# metres Y up ground pivot
mtllib Bush.mtl
o Cespuglio_01_Compatto
usemtl BushFoliage
s off
v 0.750000 0.580000 0.000000
v 0.000000 0.980000 0.000000
v 0.530330 0.580000 0.530330
v 0.530330 0.580000 0.530330
v 0.000000 0.980000 0.000000
v 0.000000 0.580000 0.750000
v 0.000000 0.580000 0.750000
v 0.000000 0.980000 0.000000
v -0.530330 0.580000 0.530330
v -0.530330 0.580000 0.530330
v 0.000000 0.980000 0.000000
v -0.750000 0.580000 0.000000
v -0.750000 0.580000 0.000000
v 0.000000 0.980000 0.000000
v -0.530330 0.580000 -0.530330
v -0.530330 0.580000 -0.530330
v 0.000000 0.980000 0.000000
v -0.000000 0.580000 -0.750000
v -0.000000 0.580000 -0.750000
v 0.000000 0.980000 0.000000
v 0.530330 0.580000 -0.530330
v 0.530330 0.580000 -0.530330
v 0.000000 0.980000 0.000000
v 0.750000 0.580000 0.000000
v -0.645000 0.260000 0.000000
v 0.645000 0.260000 0.000000
v 0.645000 0.880000 0.000000
v -0.645000 0.260000 0.000000
v 0.645000 0.880000 0.000000
v -0.645000 0.880000 0.000000
v -0.000000 0.260000 -0.645000
v 0.000000 0.260000 0.645000
v 0.000000 0.880000 0.645000
v -0.000000 0.260000 -0.645000
v 0.000000 0.880000 0.645000
v -0.000000 0.880000 -0.645000
v 0.023608 0.300000 0.373646
v -0.420000 0.600000 0.000000
v -0.370529 0.300000 0.577886
v -0.370529 0.300000 0.577886
v -0.420000 0.600000 0.000000
v -0.793646 0.300000 0.443608
v -0.793646 0.300000 0.443608
v -0.420000 0.600000 0.000000
v -0.997886 0.300000 0.049471
v -0.997886 0.300000 0.049471
v -0.420000 0.600000 0.000000
v -0.863608 0.300000 -0.373646
v -0.863608 0.300000 -0.373646
v -0.420000 0.600000 0.000000
v -0.469471 0.300000 -0.577886
v -0.469471 0.300000 -0.577886
v -0.420000 0.600000 0.000000
v -0.046354 0.300000 -0.443608
v -0.046354 0.300000 -0.443608
v -0.420000 0.600000 0.000000
v 0.157886 0.300000 -0.049471
v 0.157886 0.300000 -0.049471
v -0.420000 0.600000 0.000000
v 0.023608 0.300000 0.373646
v -0.801503 0.060000 -0.321336
v -0.038497 0.060000 0.321336
v -0.038497 0.525000 0.321336
v -0.801503 0.060000 -0.321336
v -0.038497 0.525000 0.321336
v -0.801503 0.525000 -0.321336
v -0.098664 0.060000 -0.381503
v -0.741336 0.060000 0.381503
v -0.741336 0.525000 0.381503
v -0.098664 0.060000 -0.381503
v -0.741336 0.525000 0.381503
v -0.098664 0.525000 -0.381503
v 0.420320 0.290000 0.648572
v 0.380000 0.570000 0.080000
v 0.006469 0.290000 0.510552
v 0.006469 0.290000 0.510552
v 0.380000 0.570000 0.080000
v -0.188572 0.290000 0.120320
v -0.188572 0.290000 0.120320
v 0.380000 0.570000 0.080000
v -0.050552 0.290000 -0.293531
v -0.050552 0.290000 -0.293531
v 0.380000 0.570000 0.080000
v 0.339680 0.290000 -0.488572
v 0.339680 0.290000 -0.488572
v 0.380000 0.570000 0.080000
v 0.753531 0.290000 -0.350552
v 0.753531 0.290000 -0.350552
v 0.380000 0.570000 0.080000
v 0.948572 0.290000 0.039680
v 0.948572 0.290000 0.039680
v 0.380000 0.570000 0.080000
v 0.810552 0.290000 0.453531
v 0.810552 0.290000 0.453531
v 0.380000 0.570000 0.080000
v 0.420320 0.290000 0.648572
v 0.345325 0.066000 -0.408972
v 0.414675 0.066000 0.568972
v 0.414675 0.500000 0.568972
v 0.345325 0.066000 -0.408972
v 0.414675 0.500000 0.568972
v 0.345325 0.500000 -0.408972
v 0.868972 0.066000 0.045325
v -0.108972 0.066000 0.114675
v -0.108972 0.500000 0.114675
v 0.868972 0.066000 0.045325
v -0.108972 0.500000 0.114675
v 0.868972 0.500000 0.045325
v -0.442436 0.310000 0.005278
v 0.000000 0.590000 -0.400000
v -0.599424 0.310000 -0.426275
v -0.599424 0.310000 -0.426275
v 0.000000 0.590000 -0.400000
v -0.405278 0.310000 -0.842436
v -0.405278 0.310000 -0.842436
v 0.000000 0.590000 -0.400000
v 0.026275 0.310000 -0.999424
v 0.026275 0.310000 -0.999424
v 0.000000 0.590000 -0.400000
v 0.442436 0.310000 -0.805278
v 0.442436 0.310000 -0.805278
v 0.000000 0.590000 -0.400000
v 0.599424 0.310000 -0.373725
v 0.599424 0.310000 -0.373725
v 0.000000 0.590000 -0.400000
v 0.405278 0.310000 0.042436
v 0.405278 0.310000 0.042436
v 0.000000 0.590000 -0.400000
v -0.026275 0.310000 0.199424
v -0.026275 0.310000 0.199424
v 0.000000 0.590000 -0.400000
v -0.442436 0.310000 0.005278
v 0.380495 0.086000 -0.748539
v -0.380495 0.086000 -0.051461
v -0.380495 0.520000 -0.051461
v 0.380495 0.086000 -0.748539
v -0.380495 0.520000 -0.051461
v 0.380495 0.520000 -0.748539
v 0.348539 0.086000 -0.019505
v -0.348539 0.086000 -0.780495
v -0.348539 0.520000 -0.780495
v 0.348539 0.086000 -0.019505
v -0.348539 0.520000 -0.780495
v 0.348539 0.520000 -0.019505
v -0.589490 0.270000 0.424533
v 0.000000 0.550000 0.400000
v -0.434179 0.270000 0.000515
v -0.434179 0.270000 0.000515
v 0.000000 0.550000 0.400000
v -0.024533 0.270000 -0.189490
v -0.024533 0.270000 -0.189490
v 0.000000 0.550000 0.400000
v 0.399485 0.270000 -0.034179
v 0.399485 0.270000 -0.034179
v 0.000000 0.550000 0.400000
v 0.589490 0.270000 0.375467
v 0.589490 0.270000 0.375467
v 0.000000 0.550000 0.400000
v 0.434179 0.270000 0.799485
v 0.434179 0.270000 0.799485
v 0.000000 0.550000 0.400000
v 0.024533 0.270000 0.989490
v 0.024533 0.270000 0.989490
v 0.000000 0.550000 0.400000
v -0.399485 0.270000 0.834179
v -0.399485 0.270000 0.834179
v 0.000000 0.550000 0.400000
v -0.589490 0.270000 0.424533
v 0.506961 0.046000 0.378902
v -0.506961 0.046000 0.421098
v -0.506961 0.480000 0.421098
v 0.506961 0.046000 0.378902
v -0.506961 0.480000 0.421098
v 0.506961 0.480000 0.378902
v 0.021098 0.046000 0.906961
v -0.021098 0.046000 -0.106961
v -0.021098 0.480000 -0.106961
v 0.021098 0.046000 0.906961
v -0.021098 0.480000 -0.106961
v 0.021098 0.480000 0.906961
vt 1.000000 0.500000
vt 0.500000 0.500000
vt 0.853553 0.853553
vt 0.853553 0.853553
vt 0.500000 0.500000
vt 0.500000 1.000000
vt 0.500000 1.000000
vt 0.500000 0.500000
vt 0.146447 0.853553
vt 0.146447 0.853553
vt 0.500000 0.500000
vt 0.000000 0.500000
vt 0.000000 0.500000
vt 0.500000 0.500000
vt 0.146447 0.146447
vt 0.146447 0.146447
vt 0.500000 0.500000
vt 0.500000 0.000000
vt 0.500000 0.000000
vt 0.500000 0.500000
vt 0.853553 0.146447
vt 0.853553 0.146447
vt 0.500000 0.500000
vt 1.000000 0.500000
vt 0.000000 0.000000
vt 1.000000 0.000000
vt 1.000000 1.000000
vt 0.000000 0.000000
vt 1.000000 1.000000
vt 0.000000 1.000000
vt 0.000000 0.000000
vt 1.000000 0.000000
vt 1.000000 1.000000
vt 0.000000 0.000000
vt 1.000000 1.000000
vt 0.000000 1.000000
vt 1.000000 0.500000
vt 0.500000 0.500000
vt 0.853553 0.853553
vt 0.853553 0.853553
vt 0.500000 0.500000
vt 0.500000 1.000000
vt 0.500000 1.000000
vt 0.500000 0.500000
vt 0.146447 0.853553
vt 0.146447 0.853553
vt 0.500000 0.500000
vt 0.000000 0.500000
vt 0.000000 0.500000
vt 0.500000 0.500000
vt 0.146447 0.146447
vt 0.146447 0.146447
vt 0.500000 0.500000
vt 0.500000 0.000000
vt 0.500000 0.000000
vt 0.500000 0.500000
vt 0.853553 0.146447
vt 0.853553 0.146447
vt 0.500000 0.500000
vt 1.000000 0.500000
vt 0.000000 0.000000
vt 1.000000 0.000000
vt 1.000000 1.000000
vt 0.000000 0.000000
vt 1.000000 1.000000
vt 0.000000 1.000000
vt 0.000000 0.000000
vt 1.000000 0.000000
vt 1.000000 1.000000
vt 0.000000 0.000000
vt 1.000000 1.000000
vt 0.000000 1.000000
vt 1.000000 0.500000
vt 0.500000 0.500000
vt 0.853553 0.853553
vt 0.853553 0.853553
vt 0.500000 0.500000
vt 0.500000 1.000000
vt 0.500000 1.000000
vt 0.500000 0.500000
vt 0.146447 0.853553
vt 0.146447 0.853553
vt 0.500000 0.500000
vt 0.000000 0.500000
vt 0.000000 0.500000
vt 0.500000 0.500000
vt 0.146447 0.146447
vt 0.146447 0.146447
vt 0.500000 0.500000
vt 0.500000 0.000000
vt 0.500000 0.000000
vt 0.500000 0.500000
vt 0.853553 0.146447
vt 0.853553 0.146447
vt 0.500000 0.500000
vt 1.000000 0.500000
vt 0.000000 0.000000
vt 1.000000 0.000000
vt 1.000000 1.000000
vt 0.000000 0.000000
vt 1.000000 1.000000
vt 0.000000 1.000000
vt 0.000000 0.000000
vt 1.000000 0.000000
vt 1.000000 1.000000
vt 0.000000 0.000000
vt 1.000000 1.000000
vt 0.000000 1.000000
vt 1.000000 0.500000
vt 0.500000 0.500000
vt 0.853553 0.853553
vt 0.853553 0.853553
vt 0.500000 0.500000
vt 0.500000 1.000000
vt 0.500000 1.000000
vt 0.500000 0.500000
vt 0.146447 0.853553
vt 0.146447 0.853553
vt 0.500000 0.500000
vt 0.000000 0.500000
vt 0.000000 0.500000
vt 0.500000 0.500000
vt 0.146447 0.146447
vt 0.146447 0.146447
vt 0.500000 0.500000
vt 0.500000 0.000000
vt 0.500000 0.000000
vt 0.500000 0.500000
vt 0.853553 0.146447
vt 0.853553 0.146447
vt 0.500000 0.500000
vt 1.000000 0.500000
vt 0.000000 0.000000
vt 1.000000 0.000000
vt 1.000000 1.000000
vt 0.000000 0.000000
vt 1.000000 1.000000
vt 0.000000 1.000000
vt 0.000000 0.000000
vt 1.000000 0.000000
vt 1.000000 1.000000
vt 0.000000 0.000000
vt 1.000000 1.000000
vt 0.000000 1.000000
vt 1.000000 0.500000
vt 0.500000 0.500000
vt 0.853553 0.853553
vt 0.853553 0.853553
vt 0.500000 0.500000
vt 0.500000 1.000000
vt 0.500000 1.000000
vt 0.500000 0.500000
vt 0.146447 0.853553
vt 0.146447 0.853553
vt 0.500000 0.500000
vt 0.000000 0.500000
vt 0.000000 0.500000
vt 0.500000 0.500000
vt 0.146447 0.146447
vt 0.146447 0.146447
vt 0.500000 0.500000
vt 0.500000 0.000000
vt 0.500000 0.000000
vt 0.500000 0.500000
vt 0.853553 0.146447
vt 0.853553 0.146447
vt 0.500000 0.500000
vt 1.000000 0.500000
vt 0.000000 0.000000
vt 1.000000 0.000000
vt 1.000000 1.000000
vt 0.000000 0.000000
vt 1.000000 1.000000
vt 0.000000 1.000000
vt 0.000000 0.000000
vt 1.000000 0.000000
vt 1.000000 1.000000
vt 0.000000 0.000000
vt 1.000000 1.000000
vt 0.000000 1.000000
vn 0.461895 0.866053 0.191323
vn 0.461895 0.866053 0.191323
vn 0.461895 0.866053 0.191323
vn 0.191323 0.866053 0.461895
vn 0.191323 0.866053 0.461895
vn 0.191323 0.866053 0.461895
vn -0.191323 0.866053 0.461895
vn -0.191323 0.866053 0.461895
vn -0.191323 0.866053 0.461895
vn -0.461895 0.866053 0.191323
vn -0.461895 0.866053 0.191323
vn -0.461895 0.866053 0.191323
vn -0.461895 0.866053 -0.191323
vn -0.461895 0.866053 -0.191323
vn -0.461895 0.866053 -0.191323
vn -0.191323 0.866053 -0.461895
vn -0.191323 0.866053 -0.461895
vn -0.191323 0.866053 -0.461895
vn 0.191323 0.866053 -0.461895
vn 0.191323 0.866053 -0.461895
vn 0.191323 0.866053 -0.461895
vn 0.461895 0.866053 -0.191323
vn 0.461895 0.866053 -0.191323
vn 0.461895 0.866053 -0.191323
vn 0.000000 0.000000 1.000000
vn 0.000000 0.000000 1.000000
vn 0.000000 0.000000 1.000000
vn 0.000000 0.000000 1.000000
vn 0.000000 0.000000 1.000000
vn 0.000000 0.000000 1.000000
vn -1.000000 0.000000 0.000000
vn -1.000000 0.000000 0.000000
vn -1.000000 0.000000 0.000000
vn -1.000000 0.000000 0.000000
vn -1.000000 0.000000 0.000000
vn -1.000000 0.000000 0.000000
vn 0.224758 0.872559 0.433734
vn 0.224758 0.872559 0.433734
vn 0.224758 0.872559 0.433734
vn -0.147768 0.872559 0.465624
vn -0.147768 0.872559 0.465624
vn -0.147768 0.872559 0.465624
vn -0.433734 0.872559 0.224758
vn -0.433734 0.872559 0.224758
vn -0.433734 0.872559 0.224758
vn -0.465624 0.872559 -0.147768
vn -0.465624 0.872559 -0.147768
vn -0.465624 0.872559 -0.147768
vn -0.224758 0.872559 -0.433734
vn -0.224758 0.872559 -0.433734
vn -0.224758 0.872559 -0.433734
vn 0.147768 0.872559 -0.465624
vn 0.147768 0.872559 -0.465624
vn 0.147768 0.872559 -0.465624
vn 0.433734 0.872559 -0.224758
vn 0.433734 0.872559 -0.224758
vn 0.433734 0.872559 -0.224758
vn 0.465624 0.872559 0.147768
vn 0.465624 0.872559 0.147768
vn 0.465624 0.872559 0.147768
vn -0.644218 0.000000 0.764842
vn -0.644218 0.000000 0.764842
vn -0.644218 0.000000 0.764842
vn -0.644218 0.000000 0.764842
vn -0.644218 0.000000 0.764842
vn -0.644218 0.000000 0.764842
vn -0.764842 0.000000 -0.644218
vn -0.764842 0.000000 -0.644218
vn -0.764842 0.000000 -0.644218
vn -0.764842 0.000000 -0.644218
vn -0.764842 0.000000 -0.644218
vn -0.764842 0.000000 -0.644218
vn -0.148526 0.882951 0.445352
vn -0.148526 0.882951 0.445352
vn -0.148526 0.882951 0.445352
vn -0.419935 0.882951 0.209888
vn -0.419935 0.882951 0.209888
vn -0.419935 0.882951 0.209888
vn -0.445352 0.882951 -0.148526
vn -0.445352 0.882951 -0.148526
vn -0.445352 0.882951 -0.148526
vn -0.209888 0.882951 -0.419935
vn -0.209888 0.882951 -0.419935
vn -0.209888 0.882951 -0.419935
vn 0.148526 0.882951 -0.445352
vn 0.148526 0.882951 -0.445352
vn 0.148526 0.882951 -0.445352
vn 0.419935 0.882951 -0.209888
vn 0.419935 0.882951 -0.209888
vn 0.419935 0.882951 -0.209888
vn 0.445352 0.882951 0.148526
vn 0.445352 0.882951 0.148526
vn 0.445352 0.882951 0.148526
vn 0.209888 0.882951 0.419935
vn 0.209888 0.882951 0.419935
vn 0.209888 0.882951 0.419935
vn -0.997495 0.000000 0.070737
vn -0.997495 0.000000 0.070737
vn -0.997495 0.000000 0.070737
vn -0.997495 0.000000 0.070737
vn -0.997495 0.000000 0.070737
vn -0.997495 0.000000 0.070737
vn -0.070737 0.000000 -0.997495
vn -0.070737 0.000000 -0.997495
vn -0.070737 0.000000 -0.997495
vn -0.070737 0.000000 -0.997495
vn -0.070737 0.000000 -0.997495
vn -0.070737 0.000000 -0.997495
vn -0.423700 0.892593 0.154131
vn -0.423700 0.892593 0.154131
vn -0.423700 0.892593 0.154131
vn -0.408588 0.892593 -0.190613
vn -0.408588 0.892593 -0.190613
vn -0.408588 0.892593 -0.190613
vn -0.154131 0.892593 -0.423700
vn -0.154131 0.892593 -0.423700
vn -0.154131 0.892593 -0.423700
vn 0.190613 0.892593 -0.408588
vn 0.190613 0.892593 -0.408588
vn 0.190613 0.892593 -0.408588
vn 0.423700 0.892593 -0.154131
vn 0.423700 0.892593 -0.154131
vn 0.423700 0.892593 -0.154131
vn 0.408588 0.892593 0.190613
vn 0.408588 0.892593 0.190613
vn 0.408588 0.892593 0.190613
vn 0.154131 0.892593 0.423700
vn 0.154131 0.892593 0.423700
vn 0.154131 0.892593 0.423700
vn -0.190613 0.892593 0.408588
vn -0.190613 0.892593 0.408588
vn -0.190613 0.892593 0.408588
vn -0.675463 0.000000 -0.737394
vn -0.675463 0.000000 -0.737394
vn -0.675463 0.000000 -0.737394
vn -0.675463 0.000000 -0.737394
vn -0.675463 0.000000 -0.737394
vn -0.675463 0.000000 -0.737394
vn 0.737394 0.000000 -0.675463
vn 0.737394 0.000000 -0.675463
vn 0.737394 0.000000 -0.675463
vn 0.737394 0.000000 -0.675463
vn 0.737394 0.000000 -0.675463
vn 0.737394 0.000000 -0.675463
vn -0.429045 0.889508 -0.157152
vn -0.429045 0.889508 -0.157152
vn -0.429045 0.889508 -0.157152
vn -0.192257 0.889508 -0.414504
vn -0.192257 0.889508 -0.414504
vn -0.192257 0.889508 -0.414504
vn 0.157152 0.889508 -0.429045
vn 0.157152 0.889508 -0.429045
vn 0.157152 0.889508 -0.429045
vn 0.414504 0.889508 -0.192257
vn 0.414504 0.889508 -0.192257
vn 0.414504 0.889508 -0.192257
vn 0.429045 0.889508 0.157152
vn 0.429045 0.889508 0.157152
vn 0.429045 0.889508 0.157152
vn 0.192257 0.889508 0.414504
vn 0.192257 0.889508 0.414504
vn 0.192257 0.889508 0.414504
vn -0.157152 0.889508 0.429045
vn -0.157152 0.889508 0.429045
vn -0.157152 0.889508 0.429045
vn -0.414504 0.889508 0.192257
vn -0.414504 0.889508 0.192257
vn -0.414504 0.889508 0.192257
vn -0.041581 0.000000 -0.999135
vn -0.041581 0.000000 -0.999135
vn -0.041581 0.000000 -0.999135
vn -0.041581 0.000000 -0.999135
vn -0.041581 0.000000 -0.999135
vn -0.041581 0.000000 -0.999135
vn 0.999135 0.000000 -0.041581
vn 0.999135 0.000000 -0.041581
vn 0.999135 0.000000 -0.041581
vn 0.999135 0.000000 -0.041581
vn 0.999135 0.000000 -0.041581
vn 0.999135 0.000000 -0.041581
f 1/1/1 2/2/2 3/3/3
f 4/4/4 5/5/5 6/6/6
f 7/7/7 8/8/8 9/9/9
f 10/10/10 11/11/11 12/12/12
f 13/13/13 14/14/14 15/15/15
f 16/16/16 17/17/17 18/18/18
f 19/19/19 20/20/20 21/21/21
f 22/22/22 23/23/23 24/24/24
f 25/25/25 26/26/26 27/27/27
f 28/28/28 29/29/29 30/30/30
f 31/31/31 32/32/32 33/33/33
f 34/34/34 35/35/35 36/36/36
f 37/37/37 38/38/38 39/39/39
f 40/40/40 41/41/41 42/42/42
f 43/43/43 44/44/44 45/45/45
f 46/46/46 47/47/47 48/48/48
f 49/49/49 50/50/50 51/51/51
f 52/52/52 53/53/53 54/54/54
f 55/55/55 56/56/56 57/57/57
f 58/58/58 59/59/59 60/60/60
f 61/61/61 62/62/62 63/63/63
f 64/64/64 65/65/65 66/66/66
f 67/67/67 68/68/68 69/69/69
f 70/70/70 71/71/71 72/72/72
f 73/73/73 74/74/74 75/75/75
f 76/76/76 77/77/77 78/78/78
f 79/79/79 80/80/80 81/81/81
f 82/82/82 83/83/83 84/84/84
f 85/85/85 86/86/86 87/87/87
f 88/88/88 89/89/89 90/90/90
f 91/91/91 92/92/92 93/93/93
f 94/94/94 95/95/95 96/96/96
f 97/97/97 98/98/98 99/99/99
f 100/100/100 101/101/101 102/102/102
f 103/103/103 104/104/104 105/105/105
f 106/106/106 107/107/107 108/108/108
f 109/109/109 110/110/110 111/111/111
f 112/112/112 113/113/113 114/114/114
f 115/115/115 116/116/116 117/117/117
f 118/118/118 119/119/119 120/120/120
f 121/121/121 122/122/122 123/123/123
f 124/124/124 125/125/125 126/126/126
f 127/127/127 128/128/128 129/129/129
f 130/130/130 131/131/131 132/132/132
f 133/133/133 134/134/134 135/135/135
f 136/136/136 137/137/137 138/138/138
f 139/139/139 140/140/140 141/141/141
f 142/142/142 143/143/143 144/144/144
f 145/145/145 146/146/146 147/147/147
f 148/148/148 149/149/149 150/150/150
f 151/151/151 152/152/152 153/153/153
f 154/154/154 155/155/155 156/156/156
f 157/157/157 158/158/158 159/159/159
f 160/160/160 161/161/161 162/162/162
f 163/163/163 164/164/164 165/165/165
f 166/166/166 167/167/167 168/168/168
f 169/169/169 170/170/170 171/171/171
f 172/172/172 173/173/173 174/174/174
f 175/175/175 176/176/176 177/177/177
f 178/178/178 179/179/179 180/180/180
