# metres Y up ground pivot
mtllib Bush.mtl
o Cespuglio_02_Largo
usemtl BushFoliage
s off
v 0.095162 0.340000 0.230506
v -0.650000 0.720000 0.000000
v -0.286083 0.340000 0.689902
v -0.286083 0.340000 0.689902
v -0.650000 0.720000 0.000000
v -0.880506 0.340000 0.745162
v -0.880506 0.340000 0.745162
v -0.650000 0.720000 0.000000
v -1.339902 0.340000 0.363917
v -1.339902 0.340000 0.363917
v -0.650000 0.720000 0.000000
v -1.395162 0.340000 -0.230506
v -1.395162 0.340000 -0.230506
v -0.650000 0.720000 0.000000
v -1.013917 0.340000 -0.689902
v -1.013917 0.340000 -0.689902
v -0.650000 0.720000 0.000000
v -0.419494 0.340000 -0.745162
v -0.419494 0.340000 -0.745162
v -0.650000 0.720000 0.000000
v 0.039902 0.340000 -0.363917
v 0.039902 0.340000 -0.363917
v -0.650000 0.720000 0.000000
v 0.095162 0.340000 0.230506
v -1.290840 0.036000 -0.198235
v -0.009160 0.036000 0.198235
v -0.009160 0.625000 0.198235
v -1.290840 0.036000 -0.198235
v -0.009160 0.625000 0.198235
v -1.290840 0.625000 -0.198235
v -0.451765 0.036000 -0.640840
v -0.848235 0.036000 0.640840
v -0.848235 0.625000 0.640840
v -0.451765 0.036000 -0.640840
v -0.848235 0.625000 0.640840
v -0.451765 0.625000 -0.640840
v 0.397133 0.460000 0.814272
v 0.100000 0.850000 0.050000
v -0.230317 0.460000 0.800527
v -0.230317 0.460000 0.800527
v 0.100000 0.850000 0.050000
v -0.664272 0.460000 0.347133
v -0.664272 0.460000 0.347133
v 0.100000 0.850000 0.050000
v -0.650527 0.460000 -0.280317
v -0.650527 0.460000 -0.280317
v 0.100000 0.850000 0.050000
v -0.197133 0.460000 -0.714272
v -0.197133 0.460000 -0.714272
v 0.100000 0.850000 0.050000
v 0.430317 0.460000 -0.700527
v 0.430317 0.460000 -0.700527
v 0.100000 0.850000 0.050000
v 0.864272 0.460000 -0.247133
v 0.864272 0.460000 -0.247133
v 0.100000 0.850000 0.050000
v 0.850527 0.460000 0.380317
v 0.850527 0.460000 0.380317
v 0.100000 0.850000 0.050000
v 0.397133 0.460000 0.814272
v -0.155535 0.148000 -0.607274
v 0.355535 0.148000 0.707274
v 0.355535 0.752500 0.707274
v -0.155535 0.148000 -0.607274
v 0.355535 0.752500 0.707274
v -0.155535 0.752500 -0.607274
v 0.757274 0.148000 -0.205535
v -0.557274 0.148000 0.305535
v -0.557274 0.752500 0.305535
v 0.757274 0.148000 -0.205535
v -0.557274 0.752500 0.305535
v 0.757274 0.752500 -0.205535
v 0.467827 0.280000 0.502857
v 0.730000 0.580000 -0.070000
v 0.139545 0.280000 0.149687
v 0.139545 0.280000 0.149687
v 0.730000 0.580000 -0.070000
v 0.157143 0.280000 -0.332173
v 0.157143 0.280000 -0.332173
v 0.730000 0.580000 -0.070000
v 0.510313 0.280000 -0.660455
v 0.510313 0.280000 -0.660455
v 0.730000 0.580000 -0.070000
v 0.992173 0.280000 -0.642857
v 0.992173 0.280000 -0.642857
v 0.730000 0.580000 -0.070000
v 1.320455 0.280000 -0.289687
v 1.320455 0.280000 -0.289687
v 0.730000 0.580000 -0.070000
v 1.302857 0.280000 0.192173
v 1.302857 0.280000 0.192173
v 0.730000 0.580000 -0.070000
v 0.949687 0.280000 0.520455
v 0.949687 0.280000 0.520455
v 0.730000 0.580000 -0.070000
v 0.467827 0.280000 0.502857
v 0.955468 0.040000 -0.562657
v 0.504532 0.040000 0.422657
v 0.504532 0.505000 0.422657
v 0.955468 0.040000 -0.562657
v 0.504532 0.505000 0.422657
v 0.955468 0.505000 -0.562657
v 1.222657 0.040000 0.155468
v 0.237343 0.040000 -0.295468
v 0.237343 0.505000 -0.295468
v 1.222657 0.040000 0.155468
v 0.237343 0.505000 -0.295468
v 1.222657 0.505000 0.155468
v -1.318222 0.200000 0.624243
v -0.800000 0.450000 0.440000
v -1.296718 0.200000 0.203841
v -1.296718 0.200000 0.203841
v -0.800000 0.450000 0.440000
v -0.984243 0.200000 -0.078222
v -0.984243 0.200000 -0.078222
v -0.800000 0.450000 0.440000
v -0.563841 0.200000 -0.056718
v -0.563841 0.200000 -0.056718
v -0.800000 0.450000 0.440000
v -0.281778 0.200000 0.255757
v -0.281778 0.200000 0.255757
v -0.800000 0.450000 0.440000
v -0.303282 0.200000 0.676159
v -0.303282 0.200000 0.676159
v -0.800000 0.450000 0.440000
v -0.615757 0.200000 0.958222
v -0.615757 0.200000 0.958222
v -0.800000 0.450000 0.440000
v -1.036159 0.200000 0.936718
v -1.036159 0.200000 0.936718
v -0.800000 0.450000 0.440000
v -1.318222 0.200000 0.624243
v -0.354329 0.000000 0.281551
v -1.245671 0.000000 0.598449
v -1.245671 0.387500 0.598449
v -0.354329 0.000000 0.281551
v -1.245671 0.387500 0.598449
v -0.354329 0.387500 0.281551
v -0.641551 0.000000 0.885671
v -0.958449 0.000000 -0.005671
v -0.958449 0.387500 -0.005671
v -0.641551 0.000000 0.885671
v -0.958449 0.387500 -0.005671
v -0.641551 0.387500 0.885671
v -0.136759 0.190000 0.271121
v 0.540000 0.450000 0.450000
v 0.187946 0.190000 -0.155027
v 0.187946 0.190000 -0.155027
v 0.540000 0.450000 0.450000
v 0.718879 0.190000 -0.226759
v 0.718879 0.190000 -0.226759
v 0.540000 0.450000 0.450000
v 1.145027 0.190000 0.097946
v 1.145027 0.190000 0.097946
v 0.540000 0.450000 0.450000
v 1.216759 0.190000 0.628879
v 1.216759 0.190000 0.628879
v 0.540000 0.450000 0.450000
v 0.892054 0.190000 1.055027
v 0.892054 0.190000 1.055027
v 0.540000 0.450000 0.450000
v 0.361121 0.190000 1.126759
v 0.361121 0.190000 1.126759
v 0.540000 0.450000 0.450000
v -0.065027 0.190000 0.802054
v -0.065027 0.190000 0.802054
v 0.540000 0.450000 0.450000
v -0.136759 0.190000 0.271121
v 1.122013 0.000000 0.603836
v -0.042013 0.000000 0.296164
v -0.042013 0.385000 0.296164
v 1.122013 0.000000 0.603836
v -0.042013 0.385000 0.296164
v 1.122013 0.385000 0.603836
v 0.386164 0.000000 1.032013
v 0.693836 0.000000 -0.132013
v 0.693836 0.385000 -0.132013
v 0.386164 0.000000 1.032013
v 0.693836 0.385000 -0.132013
v 0.386164 0.385000 1.032013
v -0.637890 0.240000 -1.126250
v -0.280000 0.530000 -0.490000
v -0.083170 0.240000 -1.192964
v -0.083170 0.240000 -1.192964
v -0.280000 0.530000 -0.490000
v 0.356250 0.240000 -0.847890
v 0.356250 0.240000 -0.847890
v -0.280000 0.530000 -0.490000
v 0.422964 0.240000 -0.293170
v 0.422964 0.240000 -0.293170
v -0.280000 0.530000 -0.490000
v 0.077890 0.240000 0.146250
v 0.077890 0.240000 0.146250
v -0.280000 0.530000 -0.490000
v -0.476830 0.240000 0.212964
v -0.476830 0.240000 0.212964
v -0.280000 0.530000 -0.490000
v -0.916250 0.240000 -0.132110
v -0.916250 0.240000 -0.132110
v -0.280000 0.530000 -0.490000
v -0.982964 0.240000 -0.686830
v -0.982964 0.240000 -0.686830
v -0.280000 0.530000 -0.490000
v -0.637890 0.240000 -1.126250
v 0.027786 0.008000 0.057175
v -0.587786 0.008000 -1.037175
v -0.587786 0.457500 -1.037175
v 0.027786 0.008000 0.057175
v -0.587786 0.457500 -1.037175
v 0.027786 0.457500 0.057175
v -0.827175 0.008000 -0.182214
v 0.267175 0.008000 -0.797786
v 0.267175 0.457500 -0.797786
v -0.827175 0.008000 -0.182214
v 0.267175 0.457500 -0.797786
v -0.827175 0.457500 -0.182214
v 0.784668 0.220000 -0.929051
v 0.640000 0.460000 -0.440000
v 1.088107 0.220000 -0.683516
v 1.088107 0.220000 -0.683516
v 0.640000 0.460000 -0.440000
v 1.129051 0.220000 -0.295332
v 1.129051 0.220000 -0.295332
v 0.640000 0.460000 -0.440000
v 0.883516 0.220000 0.008107
v 0.883516 0.220000 0.008107
v 0.640000 0.460000 -0.440000
v 0.495332 0.220000 0.049051
v 0.495332 0.220000 0.049051
v 0.640000 0.460000 -0.440000
v 0.191893 0.220000 -0.196484
v 0.191893 0.220000 -0.196484
v 0.640000 0.460000 -0.440000
v 0.150949 0.220000 -0.584668
v 0.150949 0.220000 -0.584668
v 0.640000 0.460000 -0.440000
v 0.396484 0.220000 -0.888107
v 0.396484 0.220000 -0.888107
v 0.640000 0.460000 -0.440000
v 0.784668 0.220000 -0.929051
v 0.515586 0.028000 -0.019416
v 0.764414 0.028000 -0.860584
v 0.764414 0.400000 -0.860584
v 0.515586 0.028000 -0.019416
v 0.764414 0.400000 -0.860584
v 0.515586 0.400000 -0.019416
v 0.219416 0.028000 -0.564414
v 1.060584 0.028000 -0.315586
v 1.060584 0.400000 -0.315586
v 0.219416 0.028000 -0.564414
v 1.060584 0.400000 -0.315586
v 0.219416 0.400000 -0.564414
vt 1.000000 0.500000
vt 0.500000 0.500000
vt 0.853553 0.853553
vt 0.853553 0.853553
vt 0.500000 0.500000
vt 0.500000 1.000000
vt 0.500000 1.000000
vt 0.500000 0.500000
vt 0.146447 0.853553
vt 0.146447 0.853553
vt 0.500000 0.500000
vt 0.000000 0.500000
vt 0.000000 0.500000
vt 0.500000 0.500000
vt 0.146447 0.146447
vt 0.146447 0.146447
vt 0.500000 0.500000
vt 0.500000 0.000000
vt 0.500000 0.000000
vt 0.500000 0.500000
vt 0.853553 0.146447
vt 0.853553 0.146447
vt 0.500000 0.500000
vt 1.000000 0.500000
vt 0.000000 0.000000
vt 1.000000 0.000000
vt 1.000000 1.000000
vt 0.000000 0.000000
vt 1.000000 1.000000
vt 0.000000 1.000000
vt 0.000000 0.000000
vt 1.000000 0.000000
vt 1.000000 1.000000
vt 0.000000 0.000000
vt 1.000000 1.000000
vt 0.000000 1.000000
vt 1.000000 0.500000
vt 0.500000 0.500000
vt 0.853553 0.853553
vt 0.853553 0.853553
vt 0.500000 0.500000
vt 0.500000 1.000000
vt 0.500000 1.000000
vt 0.500000 0.500000
vt 0.146447 0.853553
vt 0.146447 0.853553
vt 0.500000 0.500000
vt 0.000000 0.500000
vt 0.000000 0.500000
vt 0.500000 0.500000
vt 0.146447 0.146447
vt 0.146447 0.146447
vt 0.500000 0.500000
vt 0.500000 0.000000
vt 0.500000 0.000000
vt 0.500000 0.500000
vt 0.853553 0.146447
vt 0.853553 0.146447
vt 0.500000 0.500000
vt 1.000000 0.500000
vt 0.000000 0.000000
vt 1.000000 0.000000
vt 1.000000 1.000000
vt 0.000000 0.000000
vt 1.000000 1.000000
vt 0.000000 1.000000
vt 0.000000 0.000000
vt 1.000000 0.000000
vt 1.000000 1.000000
vt 0.000000 0.000000
vt 1.000000 1.000000
vt 0.000000 1.000000
vt 1.000000 0.500000
vt 0.500000 0.500000
vt 0.853553 0.853553
vt 0.853553 0.853553
vt 0.500000 0.500000
vt 0.500000 1.000000
vt 0.500000 1.000000
vt 0.500000 0.500000
vt 0.146447 0.853553
vt 0.146447 0.853553
vt 0.500000 0.500000
vt 0.000000 0.500000
vt 0.000000 0.500000
vt 0.500000 0.500000
vt 0.146447 0.146447
vt 0.146447 0.146447
vt 0.500000 0.500000
vt 0.500000 0.000000
vt 0.500000 0.000000
vt 0.500000 0.500000
vt 0.853553 0.146447
vt 0.853553 0.146447
vt 0.500000 0.500000
vt 1.000000 0.500000
vt 0.000000 0.000000
vt 1.000000 0.000000
vt 1.000000 1.000000
vt 0.000000 0.000000
vt 1.000000 1.000000
vt 0.000000 1.000000
vt 0.000000 0.000000
vt 1.000000 0.000000
vt 1.000000 1.000000
vt 0.000000 0.000000
vt 1.000000 1.000000
vt 0.000000 1.000000
vt 1.000000 0.500000
vt 0.500000 0.500000
vt 0.853553 0.853553
vt 0.853553 0.853553
vt 0.500000 0.500000
vt 0.500000 1.000000
vt 0.500000 1.000000
vt 0.500000 0.500000
vt 0.146447 0.853553
vt 0.146447 0.853553
vt 0.500000 0.500000
vt 0.000000 0.500000
vt 0.000000 0.500000
vt 0.500000 0.500000
vt 0.146447 0.146447
vt 0.146447 0.146447
vt 0.500000 0.500000
vt 0.500000 0.000000
vt 0.500000 0.000000
vt 0.500000 0.500000
vt 0.853553 0.146447
vt 0.853553 0.146447
vt 0.500000 0.500000
vt 1.000000 0.500000
vt 0.000000 0.000000
vt 1.000000 0.000000
vt 1.000000 1.000000
vt 0.000000 0.000000
vt 1.000000 1.000000
vt 0.000000 1.000000
vt 0.000000 0.000000
vt 1.000000 0.000000
vt 1.000000 1.000000
vt 0.000000 0.000000
vt 1.000000 1.000000
vt 0.000000 1.000000
vt 1.000000 0.500000
vt 0.500000 0.500000
vt 0.853553 0.853553
vt 0.853553 0.853553
vt 0.500000 0.500000
vt 0.500000 1.000000
vt 0.500000 1.000000
vt 0.500000 0.500000
vt 0.146447 0.853553
vt 0.146447 0.853553
vt 0.500000 0.500000
vt 0.000000 0.500000
vt 0.000000 0.500000
vt 0.500000 0.500000
vt 0.146447 0.146447
vt 0.146447 0.146447
vt 0.500000 0.500000
vt 0.500000 0.000000
vt 0.500000 0.000000
vt 0.500000 0.500000
vt 0.853553 0.146447
vt 0.853553 0.146447
vt 0.500000 0.500000
vt 1.000000 0.500000
vt 0.000000 0.000000
vt 1.000000 0.000000
vt 1.000000 1.000000
vt 0.000000 0.000000
vt 1.000000 1.000000
vt 0.000000 1.000000
vt 0.000000 0.000000
vt 1.000000 0.000000
vt 1.000000 1.000000
vt 0.000000 0.000000
vt 1.000000 1.000000
vt 0.000000 1.000000
vt 1.000000 0.500000
vt 0.500000 0.500000
vt 0.853553 0.853553
vt 0.853553 0.853553
vt 0.500000 0.500000
vt 0.500000 1.000000
vt 0.500000 1.000000
vt 0.500000 0.500000
vt 0.146447 0.853553
vt 0.146447 0.853553
vt 0.500000 0.500000
vt 0.000000 0.500000
vt 0.000000 0.500000
vt 0.500000 0.500000
vt 0.146447 0.146447
vt 0.146447 0.146447
vt 0.500000 0.500000
vt 0.500000 0.000000
vt 0.500000 0.000000
vt 0.500000 0.500000
vt 0.853553 0.146447
vt 0.853553 0.146447
vt 0.500000 0.500000
vt 1.000000 0.500000
vt 0.000000 0.000000
vt 1.000000 0.000000
vt 1.000000 1.000000
vt 0.000000 0.000000
vt 1.000000 1.000000
vt 0.000000 1.000000
vt 0.000000 0.000000
vt 1.000000 0.000000
vt 1.000000 1.000000
vt 0.000000 0.000000
vt 1.000000 1.000000
vt 0.000000 1.000000
vt 1.000000 0.500000
vt 0.500000 0.500000
vt 0.853553 0.853553
vt 0.853553 0.853553
vt 0.500000 0.500000
vt 0.500000 1.000000
vt 0.500000 1.000000
vt 0.500000 0.500000
vt 0.146447 0.853553
vt 0.146447 0.853553
vt 0.500000 0.500000
vt 0.000000 0.500000
vt 0.000000 0.500000
vt 0.500000 0.500000
vt 0.146447 0.146447
vt 0.146447 0.146447
vt 0.500000 0.500000
vt 0.500000 0.000000
vt 0.500000 0.000000
vt 0.500000 0.500000
vt 0.853553 0.146447
vt 0.853553 0.146447
vt 0.500000 0.500000
vt 1.000000 0.500000
vt 0.000000 0.000000
vt 1.000000 0.000000
vt 1.000000 1.000000
vt 0.000000 0.000000
vt 1.000000 1.000000
vt 0.000000 1.000000
vt 0.000000 0.000000
vt 1.000000 0.000000
vt 1.000000 1.000000
vt 0.000000 0.000000
vt 1.000000 1.000000
vt 0.000000 1.000000
vn 0.358938 0.884552 0.297877
vn 0.358938 0.884552 0.297877
vn 0.358938 0.884552 0.297877
vn 0.043177 0.884552 0.464439
vn 0.043177 0.884552 0.464439
vn 0.043177 0.884552 0.464439
vn -0.297877 0.884552 0.358938
vn -0.297877 0.884552 0.358938
vn -0.297877 0.884552 0.358938
vn -0.464439 0.884552 0.043177
vn -0.464439 0.884552 0.043177
vn -0.464439 0.884552 0.043177
vn -0.358938 0.884552 -0.297877
vn -0.358938 0.884552 -0.297877
vn -0.358938 0.884552 -0.297877
vn -0.043177 0.884552 -0.464439
vn -0.043177 0.884552 -0.464439
vn -0.043177 0.884552 -0.464439
vn 0.297877 0.884552 -0.358938
vn 0.297877 0.884552 -0.358938
vn 0.297877 0.884552 -0.358938
vn 0.464439 0.884552 -0.043177
vn 0.464439 0.884552 -0.043177
vn 0.464439 0.884552 -0.043177
vn -0.295520 0.000000 0.955336
vn -0.295520 0.000000 0.955336
vn -0.295520 0.000000 0.955336
vn -0.295520 0.000000 0.955336
vn -0.295520 0.000000 0.955336
vn -0.295520 0.000000 0.955336
vn -0.955336 0.000000 -0.295520
vn -0.955336 0.000000 -0.295520
vn -0.955336 0.000000 -0.295520
vn -0.955336 0.000000 -0.295520
vn -0.955336 0.000000 -0.295520
vn -0.955336 0.000000 -0.295520
vn -0.010024 0.889103 0.457597
vn -0.010024 0.889103 0.457597
vn -0.010024 0.889103 0.457597
vn -0.330658 0.889103 0.316482
vn -0.330658 0.889103 0.316482
vn -0.330658 0.889103 0.316482
vn -0.457597 0.889103 -0.010024
vn -0.457597 0.889103 -0.010024
vn -0.457597 0.889103 -0.010024
vn -0.316482 0.889103 -0.330658
vn -0.316482 0.889103 -0.330658
vn -0.316482 0.889103 -0.330658
vn 0.010024 0.889103 -0.457597
vn 0.010024 0.889103 -0.457597
vn 0.010024 0.889103 -0.457597
vn 0.330658 0.889103 -0.316482
vn 0.330658 0.889103 -0.316482
vn 0.330658 0.889103 -0.316482
vn 0.457597 0.889103 0.010024
vn 0.457597 0.889103 0.010024
vn 0.457597 0.889103 0.010024
vn 0.316482 0.889103 0.330658
vn 0.316482 0.889103 0.330658
vn 0.316482 0.889103 0.330658
vn -0.932039 0.000000 0.362358
vn -0.932039 0.000000 0.362358
vn -0.932039 0.000000 0.362358
vn -0.932039 0.000000 0.362358
vn -0.932039 0.000000 0.362358
vn -0.932039 0.000000 0.362358
vn -0.362358 0.000000 -0.932039
vn -0.362358 0.000000 -0.932039
vn -0.362358 0.000000 -0.932039
vn -0.362358 0.000000 -0.932039
vn -0.362358 0.000000 -0.932039
vn -0.362358 0.000000 -0.932039
vn -0.335568 0.888876 0.311921
vn -0.335568 0.888876 0.311921
vn -0.335568 0.888876 0.311921
vn -0.457843 0.888876 -0.016721
vn -0.457843 0.888876 -0.016721
vn -0.457843 0.888876 -0.016721
vn -0.311921 0.888876 -0.335568
vn -0.311921 0.888876 -0.335568
vn -0.311921 0.888876 -0.335568
vn 0.016721 0.888876 -0.457843
vn 0.016721 0.888876 -0.457843
vn 0.016721 0.888876 -0.457843
vn 0.335568 0.888876 -0.311921
vn 0.335568 0.888876 -0.311921
vn 0.335568 0.888876 -0.311921
vn 0.457843 0.888876 0.016721
vn 0.457843 0.888876 0.016721
vn 0.457843 0.888876 0.016721
vn 0.311921 0.888876 0.335568
vn 0.311921 0.888876 0.335568
vn 0.311921 0.888876 0.335568
vn -0.016721 0.888876 0.457843
vn -0.016721 0.888876 0.457843
vn -0.016721 0.888876 0.457843
vn -0.909297 0.000000 -0.416147
vn -0.909297 0.000000 -0.416147
vn -0.909297 0.000000 -0.416147
vn -0.909297 0.000000 -0.416147
vn -0.909297 0.000000 -0.416147
vn -0.909297 0.000000 -0.416147
vn 0.416147 0.000000 -0.909297
vn 0.416147 0.000000 -0.909297
vn 0.416147 0.000000 -0.909297
vn 0.416147 0.000000 -0.909297
vn 0.416147 0.000000 -0.909297
vn 0.416147 0.000000 -0.909297
vn -0.440883 0.897281 -0.022552
vn -0.440883 0.897281 -0.022552
vn -0.440883 0.897281 -0.022552
vn -0.295805 0.897281 -0.327698
vn -0.295805 0.897281 -0.327698
vn -0.295805 0.897281 -0.327698
vn 0.022552 0.897281 -0.440883
vn 0.022552 0.897281 -0.440883
vn 0.022552 0.897281 -0.440883
vn 0.327698 0.897281 -0.295805
vn 0.327698 0.897281 -0.295805
vn 0.327698 0.897281 -0.295805
vn 0.440883 0.897281 0.022552
vn 0.440883 0.897281 0.022552
vn 0.440883 0.897281 0.022552
vn 0.295805 0.897281 0.327698
vn 0.295805 0.897281 0.327698
vn 0.295805 0.897281 0.327698
vn -0.022552 0.897281 0.440883
vn -0.022552 0.897281 0.440883
vn -0.022552 0.897281 0.440883
vn -0.327698 0.897281 0.295805
vn -0.327698 0.897281 0.295805
vn -0.327698 0.897281 0.295805
vn -0.334988 0.000000 -0.942222
vn -0.334988 0.000000 -0.942222
vn -0.334988 0.000000 -0.942222
vn -0.334988 0.000000 -0.942222
vn -0.334988 0.000000 -0.942222
vn -0.334988 0.000000 -0.942222
vn 0.942222 0.000000 -0.334988
vn 0.942222 0.000000 -0.334988
vn 0.942222 0.000000 -0.334988
vn 0.942222 0.000000 -0.334988
vn 0.942222 0.000000 -0.334988
vn 0.942222 0.000000 -0.334988
vn -0.296701 0.927825 -0.226072
vn -0.296701 0.927825 -0.226072
vn -0.296701 0.927825 -0.226072
vn -0.049942 0.927825 -0.369656
vn -0.049942 0.927825 -0.369656
vn -0.049942 0.927825 -0.369656
vn 0.226072 0.927825 -0.296701
vn 0.226072 0.927825 -0.296701
vn 0.226072 0.927825 -0.296701
vn 0.369656 0.927825 -0.049942
vn 0.369656 0.927825 -0.049942
vn 0.369656 0.927825 -0.049942
vn 0.296701 0.927825 0.226072
vn 0.296701 0.927825 0.226072
vn 0.296701 0.927825 0.226072
vn 0.049942 0.927825 0.369656
vn 0.049942 0.927825 0.369656
vn 0.049942 0.927825 0.369656
vn -0.226072 0.927825 0.296701
vn -0.226072 0.927825 0.296701
vn -0.226072 0.927825 0.296701
vn -0.369656 0.927825 0.049942
vn -0.369656 0.927825 0.049942
vn -0.369656 0.927825 0.049942
vn 0.255541 0.000000 -0.966798
vn 0.255541 0.000000 -0.966798
vn 0.255541 0.000000 -0.966798
vn 0.255541 0.000000 -0.966798
vn 0.255541 0.000000 -0.966798
vn 0.255541 0.000000 -0.966798
vn 0.966798 0.000000 0.255541
vn 0.966798 0.000000 0.255541
vn 0.966798 0.000000 0.255541
vn 0.966798 0.000000 0.255541
vn 0.966798 0.000000 0.255541
vn 0.966798 0.000000 0.255541
vn -0.047167 0.918672 -0.392195
vn -0.047167 0.918672 -0.392195
vn -0.047167 0.918672 -0.392195
vn 0.243971 0.918672 -0.310676
vn 0.243971 0.918672 -0.310676
vn 0.243971 0.918672 -0.310676
vn 0.392195 0.918672 -0.047167
vn 0.392195 0.918672 -0.047167
vn 0.392195 0.918672 -0.047167
vn 0.310676 0.918672 0.243971
vn 0.310676 0.918672 0.243971
vn 0.310676 0.918672 0.243971
vn 0.047167 0.918672 0.392195
vn 0.047167 0.918672 0.392195
vn 0.047167 0.918672 0.392195
vn -0.243971 0.918672 0.310676
vn -0.243971 0.918672 0.310676
vn -0.243971 0.918672 0.310676
vn -0.392195 0.918672 0.047167
vn -0.392195 0.918672 0.047167
vn -0.392195 0.918672 0.047167
vn -0.310676 0.918672 -0.243971
vn -0.310676 0.918672 -0.243971
vn -0.310676 0.918672 -0.243971
vn 0.871576 0.000000 -0.490261
vn 0.871576 0.000000 -0.490261
vn 0.871576 0.000000 -0.490261
vn 0.871576 0.000000 -0.490261
vn 0.871576 0.000000 -0.490261
vn 0.871576 0.000000 -0.490261
vn 0.490261 0.000000 0.871576
vn 0.490261 0.000000 0.871576
vn 0.490261 0.000000 0.871576
vn 0.490261 0.000000 0.871576
vn 0.490261 0.000000 0.871576
vn 0.490261 0.000000 0.871576
vn 0.285502 0.891066 -0.352832
vn 0.285502 0.891066 -0.352832
vn 0.285502 0.891066 -0.352832
vn 0.451370 0.891066 -0.047609
vn 0.451370 0.891066 -0.047609
vn 0.451370 0.891066 -0.047609
vn 0.352832 0.891066 0.285502
vn 0.352832 0.891066 0.285502
vn 0.352832 0.891066 0.285502
vn 0.047609 0.891066 0.451370
vn 0.047609 0.891066 0.451370
vn 0.047609 0.891066 0.451370
vn -0.285502 0.891066 0.352832
vn -0.285502 0.891066 0.352832
vn -0.285502 0.891066 0.352832
vn -0.451370 0.891066 0.047609
vn -0.451370 0.891066 0.047609
vn -0.451370 0.891066 0.047609
vn -0.352832 0.891066 -0.285502
vn -0.352832 0.891066 -0.285502
vn -0.352832 0.891066 -0.285502
vn -0.047609 0.891066 -0.451370
vn -0.047609 0.891066 -0.451370
vn -0.047609 0.891066 -0.451370
vn 0.958924 0.000000 0.283662
vn 0.958924 0.000000 0.283662
vn 0.958924 0.000000 0.283662
vn 0.958924 0.000000 0.283662
vn 0.958924 0.000000 0.283662
vn 0.958924 0.000000 0.283662
vn -0.283662 0.000000 0.958924
vn -0.283662 0.000000 0.958924
vn -0.283662 0.000000 0.958924
vn -0.283662 0.000000 0.958924
vn -0.283662 0.000000 0.958924
vn -0.283662 0.000000 0.958924
f 1/1/1 2/2/2 3/3/3
f 4/4/4 5/5/5 6/6/6
f 7/7/7 8/8/8 9/9/9
f 10/10/10 11/11/11 12/12/12
f 13/13/13 14/14/14 15/15/15
f 16/16/16 17/17/17 18/18/18
f 19/19/19 20/20/20 21/21/21
f 22/22/22 23/23/23 24/24/24
f 25/25/25 26/26/26 27/27/27
f 28/28/28 29/29/29 30/30/30
f 31/31/31 32/32/32 33/33/33
f 34/34/34 35/35/35 36/36/36
f 37/37/37 38/38/38 39/39/39
f 40/40/40 41/41/41 42/42/42
f 43/43/43 44/44/44 45/45/45
f 46/46/46 47/47/47 48/48/48
f 49/49/49 50/50/50 51/51/51
f 52/52/52 53/53/53 54/54/54
f 55/55/55 56/56/56 57/57/57
f 58/58/58 59/59/59 60/60/60
f 61/61/61 62/62/62 63/63/63
f 64/64/64 65/65/65 66/66/66
f 67/67/67 68/68/68 69/69/69
f 70/70/70 71/71/71 72/72/72
f 73/73/73 74/74/74 75/75/75
f 76/76/76 77/77/77 78/78/78
f 79/79/79 80/80/80 81/81/81
f 82/82/82 83/83/83 84/84/84
f 85/85/85 86/86/86 87/87/87
f 88/88/88 89/89/89 90/90/90
f 91/91/91 92/92/92 93/93/93
f 94/94/94 95/95/95 96/96/96
f 97/97/97 98/98/98 99/99/99
f 100/100/100 101/101/101 102/102/102
f 103/103/103 104/104/104 105/105/105
f 106/106/106 107/107/107 108/108/108
f 109/109/109 110/110/110 111/111/111
f 112/112/112 113/113/113 114/114/114
f 115/115/115 116/116/116 117/117/117
f 118/118/118 119/119/119 120/120/120
f 121/121/121 122/122/122 123/123/123
f 124/124/124 125/125/125 126/126/126
f 127/127/127 128/128/128 129/129/129
f 130/130/130 131/131/131 132/132/132
f 133/133/133 134/134/134 135/135/135
f 136/136/136 137/137/137 138/138/138
f 139/139/139 140/140/140 141/141/141
f 142/142/142 143/143/143 144/144/144
f 145/145/145 146/146/146 147/147/147
f 148/148/148 149/149/149 150/150/150
f 151/151/151 152/152/152 153/153/153
f 154/154/154 155/155/155 156/156/156
f 157/157/157 158/158/158 159/159/159
f 160/160/160 161/161/161 162/162/162
f 163/163/163 164/164/164 165/165/165
f 166/166/166 167/167/167 168/168/168
f 169/169/169 170/170/170 171/171/171
f 172/172/172 173/173/173 174/174/174
f 175/175/175 176/176/176 177/177/177
f 178/178/178 179/179/179 180/180/180
f 181/181/181 182/182/182 183/183/183
f 184/184/184 185/185/185 186/186/186
f 187/187/187 188/188/188 189/189/189
f 190/190/190 191/191/191 192/192/192
f 193/193/193 194/194/194 195/195/195
f 196/196/196 197/197/197 198/198/198
f 199/199/199 200/200/200 201/201/201
f 202/202/202 203/203/203 204/204/204
f 205/205/205 206/206/206 207/207/207
f 208/208/208 209/209/209 210/210/210
f 211/211/211 212/212/212 213/213/213
f 214/214/214 215/215/215 216/216/216
f 217/217/217 218/218/218 219/219/219
f 220/220/220 221/221/221 222/222/222
f 223/223/223 224/224/224 225/225/225
f 226/226/226 227/227/227 228/228/228
f 229/229/229 230/230/230 231/231/231
f 232/232/232 233/233/233 234/234/234
f 235/235/235 236/236/236 237/237/237
f 238/238/238 239/239/239 240/240/240
f 241/241/241 242/242/242 243/243/243
f 244/244/244 245/245/245 246/246/246
f 247/247/247 248/248/248 249/249/249
f 250/250/250 251/251/251 252/252/252
