# metres Y up ground pivot
mtllib Bush.mtl
o Cespuglio_03_Ciuffi
usemtl BushFoliage
s off
v 0.140000 0.400000 0.220000
v -0.530000 0.780000 0.220000
v -0.056238 0.400000 0.693762
v -0.056238 0.400000 0.693762
v -0.530000 0.780000 0.220000
v -0.530000 0.400000 0.890000
v -0.530000 0.400000 0.890000
v -0.530000 0.780000 0.220000
v -1.003762 0.400000 0.693762
v -1.003762 0.400000 0.693762
v -0.530000 0.780000 0.220000
v -1.200000 0.400000 0.220000
v -1.200000 0.400000 0.220000
v -0.530000 0.780000 0.220000
v -1.003762 0.400000 -0.253762
v -1.003762 0.400000 -0.253762
v -0.530000 0.780000 0.220000
v -0.530000 0.400000 -0.450000
v -0.530000 0.400000 -0.450000
v -0.530000 0.780000 0.220000
v -0.056238 0.400000 -0.253762
v -0.056238 0.400000 -0.253762
v -0.530000 0.780000 0.220000
v 0.140000 0.400000 0.220000
v -1.106200 0.096000 0.220000
v 0.046200 0.096000 0.220000
v 0.046200 0.685000 0.220000
v -1.106200 0.096000 0.220000
v 0.046200 0.685000 0.220000
v -1.106200 0.685000 0.220000
v -0.530000 0.096000 -0.356200
v -0.530000 0.096000 0.796200
v -0.530000 0.685000 0.796200
v -0.530000 0.096000 -0.356200
v -0.530000 0.685000 0.796200
v -0.530000 0.685000 -0.356200
v 1.005563 0.520000 0.700844
v 0.490000 0.940000 0.170000
v 0.479195 0.520000 0.909921
v 0.479195 0.520000 0.909921
v 0.490000 0.940000 0.170000
v -0.040844 0.520000 0.685563
v -0.040844 0.520000 0.685563
v 0.490000 0.940000 0.170000
v -0.249921 0.520000 0.159195
v -0.249921 0.520000 0.159195
v 0.490000 0.940000 0.170000
v -0.025563 0.520000 -0.360844
v -0.025563 0.520000 -0.360844
v 0.490000 0.940000 0.170000
v 0.500805 0.520000 -0.569921
v 0.500805 0.520000 -0.569921
v 0.490000 0.940000 0.170000
v 1.020844 0.520000 -0.345563
v 1.020844 0.520000 -0.345563
v 0.490000 0.940000 0.170000
v 1.229921 0.520000 0.180805
v 1.229921 0.520000 0.180805
v 0.490000 0.940000 0.170000
v 1.005563 0.520000 0.700844
v 0.046616 0.184000 -0.286525
v 0.933384 0.184000 0.626525
v 0.933384 0.835000 0.626525
v 0.046616 0.184000 -0.286525
v 0.933384 0.835000 0.626525
v 0.046616 0.835000 -0.286525
v 0.946525 0.184000 -0.273384
v 0.033475 0.184000 0.613384
v 0.033475 0.835000 0.613384
v 0.946525 0.184000 -0.273384
v 0.033475 0.835000 0.613384
v 0.946525 0.835000 -0.273384
v -0.163586 0.920000 0.401170
v 0.000000 1.380000 -0.300000
v -0.611475 0.920000 0.080130
v -0.611475 0.920000 0.080130
v 0.000000 1.380000 -0.300000
v -0.701170 0.920000 -0.463586
v -0.701170 0.920000 -0.463586
v 0.000000 1.380000 -0.300000
v -0.380130 0.920000 -0.911475
v -0.380130 0.920000 -0.911475
v 0.000000 1.380000 -0.300000
v 0.163586 0.920000 -1.001170
v 0.163586 0.920000 -1.001170
v 0.000000 1.380000 -0.300000
v 0.611475 0.920000 -0.680130
v 0.611475 0.920000 -0.680130
v 0.000000 1.380000 -0.300000
v 0.701170 0.920000 -0.136414
v 0.701170 0.920000 -0.136414
v 0.000000 1.380000 -0.300000
v 0.380130 0.920000 0.311475
v 0.380130 0.920000 0.311475
v 0.000000 1.380000 -0.300000
v -0.163586 0.920000 0.401170
v 0.140684 0.552000 -0.903006
v -0.140684 0.552000 0.303006
v -0.140684 1.265000 0.303006
v 0.140684 0.552000 -0.903006
v -0.140684 1.265000 0.303006
v 0.140684 1.265000 -0.903006
v 0.603006 0.552000 -0.159316
v -0.603006 0.552000 -0.440684
v -0.603006 1.265000 -0.440684
v 0.603006 0.552000 -0.159316
v -0.603006 1.265000 -0.440684
v 0.603006 1.265000 -0.159316
v -0.908640 0.620000 -0.094856
v -0.460000 0.970000 -0.430000
v -1.014220 0.620000 -0.510254
v -1.014220 0.620000 -0.510254
v -0.460000 0.970000 -0.430000
v -0.795144 0.620000 -0.878640
v -0.795144 0.620000 -0.878640
v -0.460000 0.970000 -0.430000
v -0.379746 0.620000 -0.984220
v -0.379746 0.620000 -0.984220
v -0.460000 0.970000 -0.430000
v -0.011360 0.620000 -0.765144
v -0.011360 0.620000 -0.765144
v -0.460000 0.970000 -0.430000
v 0.094220 0.620000 -0.349746
v 0.094220 0.620000 -0.349746
v -0.460000 0.970000 -0.430000
v -0.124856 0.620000 0.018640
v -0.124856 0.620000 0.018640
v -0.460000 0.970000 -0.430000
v -0.540254 0.620000 0.124220
v -0.540254 0.620000 0.124220
v -0.460000 0.970000 -0.430000
v -0.908640 0.620000 -0.094856
v -0.074169 0.340000 -0.718224
v -0.845831 0.340000 -0.141776
v -0.845831 0.882500 -0.141776
v -0.074169 0.340000 -0.718224
v -0.845831 0.882500 -0.141776
v -0.074169 0.882500 -0.718224
v -0.171776 0.340000 -0.044169
v -0.748224 0.340000 -0.815831
v -0.748224 0.882500 -0.815831
v -0.171776 0.340000 -0.044169
v -0.748224 0.882500 -0.815831
v -0.171776 0.882500 -0.044169
v -0.140743 0.640000 -0.568214
v 0.420000 0.970000 -0.420000
v 0.128298 0.640000 -0.921308
v 0.128298 0.640000 -0.921308
v 0.420000 0.970000 -0.420000
v 0.568214 0.640000 -0.980743
v 0.568214 0.640000 -0.980743
v 0.420000 0.970000 -0.420000
v 0.921308 0.640000 -0.711702
v 0.921308 0.640000 -0.711702
v 0.420000 0.970000 -0.420000
v 0.980743 0.640000 -0.271786
v 0.980743 0.640000 -0.271786
v 0.420000 0.970000 -0.420000
v 0.711702 0.640000 0.081308
v 0.711702 0.640000 0.081308
v 0.420000 0.970000 -0.420000
v 0.271786 0.640000 0.140743
v 0.271786 0.640000 0.140743
v 0.420000 0.970000 -0.420000
v -0.081308 0.640000 -0.128298
v -0.081308 0.640000 -0.128298
v 0.420000 0.970000 -0.420000
v -0.140743 0.640000 -0.568214
v 0.902239 0.376000 -0.292536
v -0.062239 0.376000 -0.547464
v -0.062239 0.887500 -0.547464
v 0.902239 0.376000 -0.292536
v -0.062239 0.887500 -0.547464
v 0.902239 0.887500 -0.292536
v 0.292536 0.376000 0.062239
v 0.547464 0.376000 -0.902239
v 0.547464 0.887500 -0.902239
v 0.292536 0.376000 0.062239
v 0.547464 0.887500 -0.902239
v 0.292536 0.887500 0.062239
v -1.020167 0.190000 -0.284590
v -0.750000 0.440000 0.100000
v -0.669091 0.190000 -0.362983
v -0.669091 0.190000 -0.362983
v -0.750000 0.440000 0.100000
v -0.365410 0.190000 -0.170167
v -0.365410 0.190000 -0.170167
v -0.750000 0.440000 0.100000
v -0.287017 0.190000 0.180909
v -0.287017 0.190000 0.180909
v -0.750000 0.440000 0.100000
v -0.479833 0.190000 0.484590
v -0.479833 0.190000 0.484590
v -0.750000 0.440000 0.100000
v -0.830909 0.190000 0.562983
v -0.830909 0.190000 0.562983
v -0.750000 0.440000 0.100000
v -1.134590 0.190000 0.370167
v -1.134590 0.190000 0.370167
v -0.750000 0.440000 0.100000
v -1.212983 0.190000 0.019091
v -1.212983 0.190000 0.019091
v -0.750000 0.440000 0.100000
v -1.020167 0.190000 -0.284590
v -0.517656 0.000000 0.430748
v -0.982344 0.000000 -0.230748
v -0.982344 0.377500 -0.230748
v -0.517656 0.000000 0.430748
v -0.982344 0.377500 -0.230748
v -0.517656 0.377500 0.430748
v -1.080748 0.000000 0.332344
v -0.419252 0.000000 -0.132344
v -0.419252 0.377500 -0.132344
v -1.080748 0.000000 0.332344
v -0.419252 0.377500 -0.132344
v -1.080748 0.377500 0.332344
v 0.832875 0.230000 -0.388121
v 0.790000 0.480000 0.100000
v 1.165470 0.230000 -0.214837
v 1.165470 0.230000 -0.214837
v 0.790000 0.480000 0.100000
v 1.278121 0.230000 0.142875
v 1.278121 0.230000 0.142875
v 0.790000 0.480000 0.100000
v 1.104837 0.230000 0.475470
v 1.104837 0.230000 0.475470
v 0.790000 0.480000 0.100000
v 0.747125 0.230000 0.588121
v 0.747125 0.230000 0.588121
v 0.790000 0.480000 0.100000
v 0.414530 0.230000 0.414837
v 0.414530 0.230000 0.414837
v 0.790000 0.480000 0.100000
v 0.301879 0.230000 0.057125
v 0.301879 0.230000 0.057125
v 0.790000 0.480000 0.100000
v 0.475163 0.230000 -0.275470
v 0.475163 0.230000 -0.275470
v 0.790000 0.480000 0.100000
v 0.832875 0.230000 -0.388121
v 0.753128 0.030000 0.519784
v 0.826872 0.030000 -0.319784
v 0.826872 0.417500 -0.319784
v 0.753128 0.030000 0.519784
v 0.826872 0.417500 -0.319784
v 0.753128 0.417500 0.519784
v 0.370216 0.030000 0.063128
v 1.209784 0.030000 0.136872
v 1.209784 0.417500 0.136872
v 0.370216 0.030000 0.063128
v 1.209784 0.417500 0.136872
v 0.370216 0.417500 0.063128
v 0.399857 0.250000 0.073158
v 0.000000 0.550000 0.560000
v 0.626990 0.250000 0.498492
v 0.626990 0.250000 0.498492
v 0.000000 0.550000 0.560000
v 0.486842 0.250000 0.959857
v 0.486842 0.250000 0.959857
v 0.000000 0.550000 0.560000
v 0.061508 0.250000 1.186990
v 0.061508 0.250000 1.186990
v 0.000000 0.550000 0.560000
v -0.399857 0.250000 1.046842
v -0.399857 0.250000 1.046842
v 0.000000 0.550000 0.560000
v -0.626990 0.250000 0.621508
v -0.626990 0.250000 0.621508
v 0.000000 0.550000 0.560000
v -0.486842 0.250000 0.160143
v -0.486842 0.250000 0.160143
v 0.000000 0.550000 0.560000
v -0.061508 0.250000 -0.066990
v -0.061508 0.250000 -0.066990
v 0.000000 0.550000 0.560000
v 0.399857 0.250000 0.073158
v -0.343877 0.010000 0.978684
v 0.343877 0.010000 0.141316
v 0.343877 0.475000 0.141316
v -0.343877 0.010000 0.978684
v 0.343877 0.475000 0.141316
v -0.343877 0.475000 0.978684
v -0.418684 0.010000 0.216123
v 0.418684 0.010000 0.903877
v 0.418684 0.475000 0.903877
v -0.418684 0.010000 0.216123
v 0.418684 0.475000 0.903877
v -0.418684 0.475000 0.216123
vt 1.000000 0.500000
vt 0.500000 0.500000
vt 0.853553 0.853553
vt 0.853553 0.853553
vt 0.500000 0.500000
vt 0.500000 1.000000
vt 0.500000 1.000000
vt 0.500000 0.500000
vt 0.146447 0.853553
vt 0.146447 0.853553
vt 0.500000 0.500000
vt 0.000000 0.500000
vt 0.000000 0.500000
vt 0.500000 0.500000
vt 0.146447 0.146447
vt 0.146447 0.146447
vt 0.500000 0.500000
vt 0.500000 0.000000
vt 0.500000 0.000000
vt 0.500000 0.500000
vt 0.853553 0.146447
vt 0.853553 0.146447
vt 0.500000 0.500000
vt 1.000000 0.500000
vt 0.000000 0.000000
vt 1.000000 0.000000
vt 1.000000 1.000000
vt 0.000000 0.000000
vt 1.000000 1.000000
vt 0.000000 1.000000
vt 0.000000 0.000000
vt 1.000000 0.000000
vt 1.000000 1.000000
vt 0.000000 0.000000
vt 1.000000 1.000000
vt 0.000000 1.000000
vt 1.000000 0.500000
vt 0.500000 0.500000
vt 0.853553 0.853553
vt 0.853553 0.853553
vt 0.500000 0.500000
vt 0.500000 1.000000
vt 0.500000 1.000000
vt 0.500000 0.500000
vt 0.146447 0.853553
vt 0.146447 0.853553
vt 0.500000 0.500000
vt 0.000000 0.500000
vt 0.000000 0.500000
vt 0.500000 0.500000
vt 0.146447 0.146447
vt 0.146447 0.146447
vt 0.500000 0.500000
vt 0.500000 0.000000
vt 0.500000 0.000000
vt 0.500000 0.500000
vt 0.853553 0.146447
vt 0.853553 0.146447
vt 0.500000 0.500000
vt 1.000000 0.500000
vt 0.000000 0.000000
vt 1.000000 0.000000
vt 1.000000 1.000000
vt 0.000000 0.000000
vt 1.000000 1.000000
vt 0.000000 1.000000
vt 0.000000 0.000000
vt 1.000000 0.000000
vt 1.000000 1.000000
vt 0.000000 0.000000
vt 1.000000 1.000000
vt 0.000000 1.000000
vt 1.000000 0.500000
vt 0.500000 0.500000
vt 0.853553 0.853553
vt 0.853553 0.853553
vt 0.500000 0.500000
vt 0.500000 1.000000
vt 0.500000 1.000000
vt 0.500000 0.500000
vt 0.146447 0.853553
vt 0.146447 0.853553
vt 0.500000 0.500000
vt 0.000000 0.500000
vt 0.000000 0.500000
vt 0.500000 0.500000
vt 0.146447 0.146447
vt 0.146447 0.146447
vt 0.500000 0.500000
vt 0.500000 0.000000
vt 0.500000 0.000000
vt 0.500000 0.500000
vt 0.853553 0.146447
vt 0.853553 0.146447
vt 0.500000 0.500000
vt 1.000000 0.500000
vt 0.000000 0.000000
vt 1.000000 0.000000
vt 1.000000 1.000000
vt 0.000000 0.000000
vt 1.000000 1.000000
vt 0.000000 1.000000
vt 0.000000 0.000000
vt 1.000000 0.000000
vt 1.000000 1.000000
vt 0.000000 0.000000
vt 1.000000 1.000000
vt 0.000000 1.000000
vt 1.000000 0.500000
vt 0.500000 0.500000
vt 0.853553 0.853553
vt 0.853553 0.853553
vt 0.500000 0.500000
vt 0.500000 1.000000
vt 0.500000 1.000000
vt 0.500000 0.500000
vt 0.146447 0.853553
vt 0.146447 0.853553
vt 0.500000 0.500000
vt 0.000000 0.500000
vt 0.000000 0.500000
vt 0.500000 0.500000
vt 0.146447 0.146447
vt 0.146447 0.146447
vt 0.500000 0.500000
vt 0.500000 0.000000
vt 0.500000 0.000000
vt 0.500000 0.500000
vt 0.853553 0.146447
vt 0.853553 0.146447
vt 0.500000 0.500000
vt 1.000000 0.500000
vt 0.000000 0.000000
vt 1.000000 0.000000
vt 1.000000 1.000000
vt 0.000000 0.000000
vt 1.000000 1.000000
vt 0.000000 1.000000
vt 0.000000 0.000000
vt 1.000000 0.000000
vt 1.000000 1.000000
vt 0.000000 0.000000
vt 1.000000 1.000000
vt 0.000000 1.000000
vt 1.000000 0.500000
vt 0.500000 0.500000
vt 0.853553 0.853553
vt 0.853553 0.853553
vt 0.500000 0.500000
vt 0.500000 1.000000
vt 0.500000 1.000000
vt 0.500000 0.500000
vt 0.146447 0.853553
vt 0.146447 0.853553
vt 0.500000 0.500000
vt 0.000000 0.500000
vt 0.000000 0.500000
vt 0.500000 0.500000
vt 0.146447 0.146447
vt 0.146447 0.146447
vt 0.500000 0.500000
vt 0.500000 0.000000
vt 0.500000 0.000000
vt 0.500000 0.500000
vt 0.853553 0.146447
vt 0.853553 0.146447
vt 0.500000 0.500000
vt 1.000000 0.500000
vt 0.000000 0.000000
vt 1.000000 0.000000
vt 1.000000 1.000000
vt 0.000000 0.000000
vt 1.000000 1.000000
vt 0.000000 1.000000
vt 0.000000 0.000000
vt 1.000000 0.000000
vt 1.000000 1.000000
vt 0.000000 0.000000
vt 1.000000 1.000000
vt 0.000000 1.000000
vt 1.000000 0.500000
vt 0.500000 0.500000
vt 0.853553 0.853553
vt 0.853553 0.853553
vt 0.500000 0.500000
vt 0.500000 1.000000
vt 0.500000 1.000000
vt 0.500000 0.500000
vt 0.146447 0.853553
vt 0.146447 0.853553
vt 0.500000 0.500000
vt 0.000000 0.500000
vt 0.000000 0.500000
vt 0.500000 0.500000
vt 0.146447 0.146447
vt 0.146447 0.146447
vt 0.500000 0.500000
vt 0.500000 0.000000
vt 0.500000 0.000000
vt 0.500000 0.500000
vt 0.853553 0.146447
vt 0.853553 0.146447
vt 0.500000 0.500000
vt 1.000000 0.500000
vt 0.000000 0.000000
vt 1.000000 0.000000
vt 1.000000 1.000000
vt 0.000000 0.000000
vt 1.000000 1.000000
vt 0.000000 1.000000
vt 0.000000 0.000000
vt 1.000000 0.000000
vt 1.000000 1.000000
vt 0.000000 0.000000
vt 1.000000 1.000000
vt 0.000000 1.000000
vt 1.000000 0.500000
vt 0.500000 0.500000
vt 0.853553 0.853553
vt 0.853553 0.853553
vt 0.500000 0.500000
vt 0.500000 1.000000
vt 0.500000 1.000000
vt 0.500000 0.500000
vt 0.146447 0.853553
vt 0.146447 0.853553
vt 0.500000 0.500000
vt 0.000000 0.500000
vt 0.000000 0.500000
vt 0.500000 0.500000
vt 0.146447 0.146447
vt 0.146447 0.146447
vt 0.500000 0.500000
vt 0.500000 0.000000
vt 0.500000 0.000000
vt 0.500000 0.500000
vt 0.853553 0.146447
vt 0.853553 0.146447
vt 0.500000 0.500000
vt 1.000000 0.500000
vt 0.000000 0.000000
vt 1.000000 0.000000
vt 1.000000 1.000000
vt 0.000000 0.000000
vt 1.000000 1.000000
vt 0.000000 1.000000
vt 0.000000 0.000000
vt 1.000000 0.000000
vt 1.000000 1.000000
vt 0.000000 0.000000
vt 1.000000 1.000000
vt 0.000000 1.000000
vt 1.000000 0.500000
vt 0.500000 0.500000
vt 0.853553 0.853553
vt 0.853553 0.853553
vt 0.500000 0.500000
vt 0.500000 1.000000
vt 0.500000 1.000000
vt 0.500000 0.500000
vt 0.146447 0.853553
vt 0.146447 0.853553
vt 0.500000 0.500000
vt 0.000000 0.500000
vt 0.000000 0.500000
vt 0.500000 0.500000
vt 0.146447 0.146447
vt 0.146447 0.146447
vt 0.500000 0.500000
vt 0.500000 0.000000
vt 0.500000 0.000000
vt 0.500000 0.500000
vt 0.853553 0.146447
vt 0.853553 0.146447
vt 0.500000 0.500000
vt 1.000000 0.500000
vt 0.000000 0.000000
vt 1.000000 0.000000
vt 1.000000 1.000000
vt 0.000000 0.000000
vt 1.000000 1.000000
vt 0.000000 1.000000
vt 0.000000 0.000000
vt 1.000000 0.000000
vt 1.000000 1.000000
vt 0.000000 0.000000
vt 1.000000 1.000000
vt 0.000000 1.000000
vn 0.483351 0.852225 0.200211
vn 0.483351 0.852225 0.200211
vn 0.483351 0.852225 0.200211
vn 0.200211 0.852225 0.483351
vn 0.200211 0.852225 0.483351
vn 0.200211 0.852225 0.483351
vn -0.200211 0.852225 0.483351
vn -0.200211 0.852225 0.483351
vn -0.200211 0.852225 0.483351
vn -0.483351 0.852225 0.200211
vn -0.483351 0.852225 0.200211
vn -0.483351 0.852225 0.200211
vn -0.483351 0.852225 -0.200211
vn -0.483351 0.852225 -0.200211
vn -0.483351 0.852225 -0.200211
vn -0.200211 0.852225 -0.483351
vn -0.200211 0.852225 -0.483351
vn -0.200211 0.852225 -0.483351
vn 0.200211 0.852225 -0.483351
vn 0.200211 0.852225 -0.483351
vn 0.200211 0.852225 -0.483351
vn 0.483351 0.852225 -0.200211
vn 0.483351 0.852225 -0.200211
vn 0.483351 0.852225 -0.200211
vn 0.000000 0.000000 1.000000
vn 0.000000 0.000000 1.000000
vn 0.000000 0.000000 1.000000
vn 0.000000 0.000000 1.000000
vn 0.000000 0.000000 1.000000
vn 0.000000 0.000000 1.000000
vn -1.000000 0.000000 0.000000
vn -1.000000 0.000000 0.000000
vn -1.000000 0.000000 0.000000
vn -1.000000 0.000000 0.000000
vn -1.000000 0.000000 0.000000
vn -1.000000 0.000000 0.000000
vn 0.193232 0.852059 0.486474
vn 0.193232 0.852059 0.486474
vn 0.193232 0.852059 0.486474
vn -0.207354 0.852059 0.480625
vn -0.207354 0.852059 0.480625
vn -0.207354 0.852059 0.480625
vn -0.486474 0.852059 0.193232
vn -0.486474 0.852059 0.193232
vn -0.486474 0.852059 0.193232
vn -0.480625 0.852059 -0.207354
vn -0.480625 0.852059 -0.207354
vn -0.480625 0.852059 -0.207354
vn -0.193232 0.852059 -0.486474
vn -0.193232 0.852059 -0.486474
vn -0.193232 0.852059 -0.486474
vn 0.207354 0.852059 -0.480625
vn 0.207354 0.852059 -0.480625
vn 0.207354 0.852059 -0.480625
vn 0.486474 0.852059 -0.193232
vn 0.486474 0.852059 -0.193232
vn 0.486474 0.852059 -0.193232
vn 0.480625 0.852059 0.207354
vn 0.480625 0.852059 0.207354
vn 0.480625 0.852059 0.207354
vn -0.717356 0.000000 0.696707
vn -0.717356 0.000000 0.696707
vn -0.717356 0.000000 0.696707
vn -0.717356 0.000000 0.696707
vn -0.717356 0.000000 0.696707
vn -0.717356 0.000000 0.696707
vn -0.696707 0.000000 -0.717356
vn -0.696707 0.000000 -0.717356
vn -0.696707 0.000000 -0.717356
vn -0.696707 0.000000 -0.717356
vn -0.696707 0.000000 -0.717356
vn -0.696707 0.000000 -0.717356
vn -0.331359 0.822492 0.462285
vn -0.331359 0.822492 0.462285
vn -0.331359 0.822492 0.462285
vn -0.561192 0.822492 0.092579
vn -0.561192 0.822492 0.092579
vn -0.561192 0.822492 0.092579
vn -0.462285 0.822492 -0.331359
vn -0.462285 0.822492 -0.331359
vn -0.462285 0.822492 -0.331359
vn -0.092579 0.822492 -0.561192
vn -0.092579 0.822492 -0.561192
vn -0.092579 0.822492 -0.561192
vn 0.331359 0.822492 -0.462285
vn 0.331359 0.822492 -0.462285
vn 0.331359 0.822492 -0.462285
vn 0.561192 0.822492 -0.092579
vn 0.561192 0.822492 -0.092579
vn 0.561192 0.822492 -0.092579
vn 0.462285 0.822492 0.331359
vn 0.462285 0.822492 0.331359
vn 0.462285 0.822492 0.331359
vn 0.092579 0.822492 0.561192
vn 0.092579 0.822492 0.561192
vn 0.092579 0.822492 0.561192
vn -0.973848 0.000000 -0.227202
vn -0.973848 0.000000 -0.227202
vn -0.973848 0.000000 -0.227202
vn -0.973848 0.000000 -0.227202
vn -0.973848 0.000000 -0.227202
vn -0.973848 0.000000 -0.227202
vn 0.227202 0.000000 -0.973848
vn 0.227202 0.000000 -0.973848
vn 0.227202 0.000000 -0.973848
vn 0.227202 0.000000 -0.973848
vn 0.227202 0.000000 -0.973848
vn 0.227202 0.000000 -0.973848
vn -0.543057 0.828274 0.138025
vn -0.543057 0.828274 0.138025
vn -0.543057 0.828274 0.138025
vn -0.481598 0.828274 -0.286401
vn -0.481598 0.828274 -0.286401
vn -0.481598 0.828274 -0.286401
vn -0.138025 0.828274 -0.543057
vn -0.138025 0.828274 -0.543057
vn -0.138025 0.828274 -0.543057
vn 0.286401 0.828274 -0.481598
vn 0.286401 0.828274 -0.481598
vn 0.286401 0.828274 -0.481598
vn 0.543057 0.828274 -0.138025
vn 0.543057 0.828274 -0.138025
vn 0.543057 0.828274 -0.138025
vn 0.481598 0.828274 0.286401
vn 0.481598 0.828274 0.286401
vn 0.481598 0.828274 0.286401
vn 0.138025 0.828274 0.543057
vn 0.138025 0.828274 0.543057
vn 0.138025 0.828274 0.543057
vn -0.286401 0.828274 0.481598
vn -0.286401 0.828274 0.481598
vn -0.286401 0.828274 0.481598
vn -0.598472 0.000000 -0.801144
vn -0.598472 0.000000 -0.801144
vn -0.598472 0.000000 -0.801144
vn -0.598472 0.000000 -0.801144
vn -0.598472 0.000000 -0.801144
vn -0.598472 0.000000 -0.801144
vn 0.801144 0.000000 -0.598472
vn 0.801144 0.000000 -0.598472
vn 0.801144 0.000000 -0.598472
vn 0.801144 0.000000 -0.598472
vn 0.801144 0.000000 -0.598472
vn 0.801144 0.000000 -0.598472
vn -0.417100 0.851484 -0.317810
vn -0.417100 0.851484 -0.317810
vn -0.417100 0.851484 -0.317810
vn -0.070209 0.851484 -0.519660
vn -0.070209 0.851484 -0.519660
vn -0.070209 0.851484 -0.519660
vn 0.317810 0.851484 -0.417100
vn 0.317810 0.851484 -0.417100
vn 0.317810 0.851484 -0.417100
vn 0.519660 0.851484 -0.070209
vn 0.519660 0.851484 -0.070209
vn 0.519660 0.851484 -0.070209
vn 0.417100 0.851484 0.317810
vn 0.417100 0.851484 0.317810
vn 0.417100 0.851484 0.317810
vn 0.070209 0.851484 0.519660
vn 0.070209 0.851484 0.519660
vn 0.070209 0.851484 0.519660
vn -0.317810 0.851484 0.417100
vn -0.317810 0.851484 0.417100
vn -0.317810 0.851484 0.417100
vn -0.519660 0.851484 0.070209
vn -0.519660 0.851484 0.070209
vn -0.519660 0.851484 0.070209
vn 0.255541 0.000000 -0.966798
vn 0.255541 0.000000 -0.966798
vn 0.255541 0.000000 -0.966798
vn 0.255541 0.000000 -0.966798
vn 0.255541 0.000000 -0.966798
vn 0.255541 0.000000 -0.966798
vn 0.966798 0.000000 0.255541
vn 0.966798 0.000000 0.255541
vn 0.966798 0.000000 0.255541
vn 0.966798 0.000000 0.255541
vn 0.966798 0.000000 0.255541
vn 0.966798 0.000000 0.255541
vn -0.108735 0.866629 -0.486961
vn -0.108735 0.866629 -0.486961
vn -0.108735 0.866629 -0.486961
vn 0.267446 0.866629 -0.421221
vn 0.267446 0.866629 -0.421221
vn 0.267446 0.866629 -0.421221
vn 0.486961 0.866629 -0.108735
vn 0.486961 0.866629 -0.108735
vn 0.486961 0.866629 -0.108735
vn 0.421221 0.866629 0.267446
vn 0.421221 0.866629 0.267446
vn 0.421221 0.866629 0.267446
vn 0.108735 0.866629 0.486961
vn 0.108735 0.866629 0.486961
vn 0.108735 0.866629 0.486961
vn -0.267446 0.866629 0.421221
vn -0.267446 0.866629 0.421221
vn -0.267446 0.866629 0.421221
vn -0.486961 0.866629 0.108735
vn -0.486961 0.866629 0.108735
vn -0.486961 0.866629 0.108735
vn -0.421221 0.866629 -0.267446
vn -0.421221 0.866629 -0.267446
vn -0.421221 0.866629 -0.267446
vn 0.818277 0.000000 -0.574824
vn 0.818277 0.000000 -0.574824
vn 0.818277 0.000000 -0.574824
vn 0.818277 0.000000 -0.574824
vn 0.818277 0.000000 -0.574824
vn 0.818277 0.000000 -0.574824
vn 0.574824 0.000000 0.818277
vn 0.574824 0.000000 0.818277
vn 0.574824 0.000000 0.818277
vn 0.574824 0.000000 0.818277
vn 0.574824 0.000000 0.818277
vn 0.574824 0.000000 0.818277
vn 0.223368 0.875386 -0.428725
vn 0.223368 0.875386 -0.428725
vn 0.223368 0.875386 -0.428725
vn 0.461100 0.875386 -0.145210
vn 0.461100 0.875386 -0.145210
vn 0.461100 0.875386 -0.145210
vn 0.428725 0.875386 0.223368
vn 0.428725 0.875386 0.223368
vn 0.428725 0.875386 0.223368
vn 0.145210 0.875386 0.461100
vn 0.145210 0.875386 0.461100
vn 0.145210 0.875386 0.461100
vn -0.223368 0.875386 0.428725
vn -0.223368 0.875386 0.428725
vn -0.223368 0.875386 0.428725
vn -0.461100 0.875386 0.145210
vn -0.461100 0.875386 0.145210
vn -0.461100 0.875386 0.145210
vn -0.428725 0.875386 -0.223368
vn -0.428725 0.875386 -0.223368
vn -0.428725 0.875386 -0.223368
vn -0.145210 0.875386 -0.461100
vn -0.145210 0.875386 -0.461100
vn -0.145210 0.875386 -0.461100
vn 0.996165 0.000000 0.087499
vn 0.996165 0.000000 0.087499
vn 0.996165 0.000000 0.087499
vn 0.996165 0.000000 0.087499
vn 0.996165 0.000000 0.087499
vn 0.996165 0.000000 0.087499
vn -0.087499 0.000000 0.996165
vn -0.087499 0.000000 0.996165
vn -0.087499 0.000000 0.996165
vn -0.087499 0.000000 0.996165
vn -0.087499 0.000000 0.996165
vn -0.087499 0.000000 0.996165
vn 0.404135 0.888876 -0.215813
vn 0.404135 0.888876 -0.215813
vn 0.404135 0.888876 -0.215813
vn 0.438369 0.888876 0.133163
vn 0.438369 0.888876 0.133163
vn 0.438369 0.888876 0.133163
vn 0.215813 0.888876 0.404135
vn 0.215813 0.888876 0.404135
vn 0.215813 0.888876 0.404135
vn -0.133163 0.888876 0.438369
vn -0.133163 0.888876 0.438369
vn -0.133163 0.888876 0.438369
vn -0.404135 0.888876 0.215813
vn -0.404135 0.888876 0.215813
vn -0.404135 0.888876 0.215813
vn -0.438369 0.888876 -0.133163
vn -0.438369 0.888876 -0.133163
vn -0.438369 0.888876 -0.133163
vn -0.215813 0.888876 -0.404135
vn -0.215813 0.888876 -0.404135
vn -0.215813 0.888876 -0.404135
vn 0.133163 0.888876 -0.438369
vn 0.133163 0.888876 -0.438369
vn 0.133163 0.888876 -0.438369
vn 0.772764 0.000000 0.634693
vn 0.772764 0.000000 0.634693
vn 0.772764 0.000000 0.634693
vn 0.772764 0.000000 0.634693
vn 0.772764 0.000000 0.634693
vn 0.772764 0.000000 0.634693
vn -0.634693 0.000000 0.772764
vn -0.634693 0.000000 0.772764
vn -0.634693 0.000000 0.772764
vn -0.634693 0.000000 0.772764
vn -0.634693 0.000000 0.772764
vn -0.634693 0.000000 0.772764
f 1/1/1 2/2/2 3/3/3
f 4/4/4 5/5/5 6/6/6
f 7/7/7 8/8/8 9/9/9
f 10/10/10 11/11/11 12/12/12
f 13/13/13 14/14/14 15/15/15
f 16/16/16 17/17/17 18/18/18
f 19/19/19 20/20/20 21/21/21
f 22/22/22 23/23/23 24/24/24
f 25/25/25 26/26/26 27/27/27
f 28/28/28 29/29/29 30/30/30
f 31/31/31 32/32/32 33/33/33
f 34/34/34 35/35/35 36/36/36
f 37/37/37 38/38/38 39/39/39
f 40/40/40 41/41/41 42/42/42
f 43/43/43 44/44/44 45/45/45
f 46/46/46 47/47/47 48/48/48
f 49/49/49 50/50/50 51/51/51
f 52/52/52 53/53/53 54/54/54
f 55/55/55 56/56/56 57/57/57
f 58/58/58 59/59/59 60/60/60
f 61/61/61 62/62/62 63/63/63
f 64/64/64 65/65/65 66/66/66
f 67/67/67 68/68/68 69/69/69
f 70/70/70 71/71/71 72/72/72
f 73/73/73 74/74/74 75/75/75
f 76/76/76 77/77/77 78/78/78
f 79/79/79 80/80/80 81/81/81
f 82/82/82 83/83/83 84/84/84
f 85/85/85 86/86/86 87/87/87
f 88/88/88 89/89/89 90/90/90
f 91/91/91 92/92/92 93/93/93
f 94/94/94 95/95/95 96/96/96
f 97/97/97 98/98/98 99/99/99
f 100/100/100 101/101/101 102/102/102
f 103/103/103 104/104/104 105/105/105
f 106/106/106 107/107/107 108/108/108
f 109/109/109 110/110/110 111/111/111
f 112/112/112 113/113/113 114/114/114
f 115/115/115 116/116/116 117/117/117
f 118/118/118 119/119/119 120/120/120
f 121/121/121 122/122/122 123/123/123
f 124/124/124 125/125/125 126/126/126
f 127/127/127 128/128/128 129/129/129
f 130/130/130 131/131/131 132/132/132
f 133/133/133 134/134/134 135/135/135
f 136/136/136 137/137/137 138/138/138
f 139/139/139 140/140/140 141/141/141
f 142/142/142 143/143/143 144/144/144
f 145/145/145 146/146/146 147/147/147
f 148/148/148 149/149/149 150/150/150
f 151/151/151 152/152/152 153/153/153
f 154/154/154 155/155/155 156/156/156
f 157/157/157 158/158/158 159/159/159
f 160/160/160 161/161/161 162/162/162
f 163/163/163 164/164/164 165/165/165
f 166/166/166 167/167/167 168/168/168
f 169/169/169 170/170/170 171/171/171
f 172/172/172 173/173/173 174/174/174
f 175/175/175 176/176/176 177/177/177
f 178/178/178 179/179/179 180/180/180
f 181/181/181 182/182/182 183/183/183
f 184/184/184 185/185/185 186/186/186
f 187/187/187 188/188/188 189/189/189
f 190/190/190 191/191/191 192/192/192
f 193/193/193 194/194/194 195/195/195
f 196/196/196 197/197/197 198/198/198
f 199/199/199 200/200/200 201/201/201
f 202/202/202 203/203/203 204/204/204
f 205/205/205 206/206/206 207/207/207
f 208/208/208 209/209/209 210/210/210
f 211/211/211 212/212/212 213/213/213
f 214/214/214 215/215/215 216/216/216
f 217/217/217 218/218/218 219/219/219
f 220/220/220 221/221/221 222/222/222
f 223/223/223 224/224/224 225/225/225
f 226/226/226 227/227/227 228/228/228
f 229/229/229 230/230/230 231/231/231
f 232/232/232 233/233/233 234/234/234
f 235/235/235 236/236/236 237/237/237
f 238/238/238 239/239/239 240/240/240
f 241/241/241 242/242/242 243/243/243
f 244/244/244 245/245/245 246/246/246
f 247/247/247 248/248/248 249/249/249
f 250/250/250 251/251/251 252/252/252
f 253/253/253 254/254/254 255/255/255
f 256/256/256 257/257/257 258/258/258
f 259/259/259 260/260/260 261/261/261
f 262/262/262 263/263/263 264/264/264
f 265/265/265 266/266/266 267/267/267
f 268/268/268 269/269/269 270/270/270
f 271/271/271 272/272/272 273/273/273
f 274/274/274 275/275/275 276/276/276
f 277/277/277 278/278/278 279/279/279
f 280/280/280 281/281/281 282/282/282
f 283/283/283 284/284/284 285/285/285
f 286/286/286 287/287/287 288/288/288
