# Birch: Y up, metres, base pivot; foliage consists of flat cards
mtllib Tree.mtl
o Betulla_03_Espansa
s off
v 0.287857 0.000000 0.000000
v 0.143928 0.000000 -0.224474
v 0.211657 1.983808 -0.177696
vt 0.000000 0.000000
vt 0.166667 0.000000
vt 0.166667 0.500000
vn 0.841712 -0.016011 -0.539689
vn 0.841712 -0.016011 -0.539689
vn 0.841712 -0.016011 -0.539689
v 0.287857 0.000000 0.000000
v 0.211657 1.983808 -0.177696
v 0.325696 1.987603 0.000000
vt 0.000000 0.000000
vt 0.166667 0.500000
vt 0.000000 0.500000
vn 0.841644 -0.016023 -0.539795
vn 0.841644 -0.016023 -0.539795
vn 0.841644 -0.016023 -0.539795
v 0.143928 0.000000 -0.224474
v -0.143928 0.000000 -0.224474
v -0.016253 1.972204 -0.177696
vt 0.166667 0.000000
vt 0.333333 0.000000
vt 0.333333 0.500000
vn 0.000000 0.023712 -0.999719
vn 0.000000 0.023712 -0.999719
vn 0.000000 0.023712 -0.999719
v 0.143928 0.000000 -0.224474
v -0.016253 1.972204 -0.177696
v 0.211657 1.983808 -0.177696
vt 0.166667 0.000000
vt 0.333333 0.500000
vt 0.166667 0.500000
vn -0.001202 0.023614 -0.999720
vn -0.001202 0.023614 -0.999720
vn -0.001202 0.023614 -0.999720
v -0.143928 0.000000 -0.224474
v -0.287857 0.000000 -0.000000
v -0.130123 1.964397 -0.000000
vt 0.333333 0.000000
vt 0.500000 0.000000
vt 0.500000 0.500000
vn -0.839903 0.067441 -0.538530
vn -0.839903 0.067441 -0.538530
vn -0.839903 0.067441 -0.538530
v -0.143928 0.000000 -0.224474
v -0.130123 1.964397 -0.000000
v -0.016253 1.972204 -0.177696
vt 0.333333 0.000000
vt 0.500000 0.500000
vt 0.333333 0.500000
vn -0.841396 0.067188 -0.536226
vn -0.841396 0.067188 -0.536226
vn -0.841396 0.067188 -0.536226
v -0.287857 0.000000 -0.000000
v -0.143928 0.000000 0.224474
v -0.016085 1.968192 0.177696
vt 0.500000 0.000000
vt 0.666667 0.000000
vt 0.666667 0.500000
vn -0.839908 0.067355 0.538533
vn -0.839908 0.067355 0.538533
vn -0.839908 0.067355 0.538533
v -0.287857 0.000000 -0.000000
v -0.016085 1.968192 0.177696
v -0.130123 1.964397 -0.000000
vt 0.500000 0.000000
vt 0.666667 0.500000
vt 0.500000 0.500000
vn -0.840335 0.067476 0.537851
vn -0.840335 0.067476 0.537851
vn -0.840335 0.067476 0.537851
v -0.143928 0.000000 0.224474
v 0.143928 0.000000 0.224474
v 0.211824 1.979796 0.177696
vt 0.666667 0.000000
vt 0.833333 0.000000
vt 0.833333 0.500000
vn -0.000000 0.023621 0.999721
vn -0.000000 0.023621 0.999721
vn -0.000000 0.023621 0.999721
v -0.143928 0.000000 0.224474
v 0.211824 1.979796 0.177696
v -0.016085 1.968192 0.177696
vt 0.666667 0.000000
vt 0.833333 0.500000
vt 0.666667 0.500000
vn -0.001214 0.023839 0.999715
vn -0.001214 0.023839 0.999715
vn -0.001214 0.023839 0.999715
v 0.143928 0.000000 0.224474
v 0.287857 0.000000 0.000000
v 0.325696 1.987603 0.000000
vt 0.833333 0.000000
vt 1.000000 0.000000
vt 1.000000 0.500000
vn 0.841712 -0.016024 0.539689
vn 0.841712 -0.016024 0.539689
vn 0.841712 -0.016024 0.539689
v 0.143928 0.000000 0.224474
v 0.325696 1.987603 0.000000
v 0.211824 1.979796 0.177696
vt 0.833333 0.000000
vt 1.000000 0.500000
vt 0.833333 0.500000
vn 0.842169 -0.016147 0.538971
vn 0.842169 -0.016147 0.538971
vn 0.842169 -0.016147 0.538971
v 0.325696 1.987603 0.000000
v 0.211657 1.983808 -0.177696
v -0.074700 3.552188 -0.087706
vt 0.000000 0.500000
vt 0.166667 0.500000
vt 0.166667 1.000000
vn 0.825865 0.181421 -0.533885
vn 0.825865 0.181421 -0.533885
vn 0.825865 0.181421 -0.533885
v 0.325696 1.987603 0.000000
v -0.074700 3.552188 -0.087706
v 0.009013 3.562466 0.043200
vt 0.000000 0.500000
vt 0.166667 1.000000
vt 0.000000 1.000000
vn 0.822201 0.180144 -0.539938
vn 0.822201 0.180144 -0.539938
vn 0.822201 0.180144 -0.539938
v 0.211657 1.983808 -0.177696
v -0.016253 1.972204 -0.177696
v -0.241139 3.525722 -0.087706
vt 0.166667 0.500000
vt 0.333333 0.500000
vt 0.333333 1.000000
vn -0.002923 0.057408 -0.998347
vn -0.002923 0.057408 -0.998347
vn -0.002923 0.057408 -0.998347
v 0.211657 1.983808 -0.177696
v -0.241139 3.525722 -0.087706
v -0.074700 3.552188 -0.087706
vt 0.166667 0.500000
vt 0.333333 1.000000
vt 0.166667 1.000000
vn -0.008852 0.055670 -0.998410
vn -0.008852 0.055670 -0.998410
vn -0.008852 0.055670 -0.998410
v -0.016253 1.972204 -0.177696
v -0.130123 1.964397 -0.000000
v -0.323861 3.509534 0.043200
vt 0.333333 0.500000
vt 0.500000 0.500000
vt 0.500000 1.000000
vn -0.836760 -0.089816 -0.540154
vn -0.836760 -0.089816 -0.540154
vn -0.836760 -0.089816 -0.540154
v -0.016253 1.972204 -0.177696
v -0.323861 3.509534 0.043200
v -0.241139 3.525722 -0.087706
vt 0.333333 0.500000
vt 0.500000 1.000000
vt 0.333333 1.000000
vn -0.836881 -0.089868 -0.539958
vn -0.836881 -0.089868 -0.539958
vn -0.836881 -0.089868 -0.539958
v -0.130123 1.964397 -0.000000
v -0.016085 1.968192 0.177696
v -0.240153 3.519812 0.174106
vt 0.500000 0.500000
vt 0.666667 0.500000
vt 0.666667 1.000000
vn -0.834433 -0.119255 0.538052
vn -0.834433 -0.119255 0.538052
vn -0.834433 -0.119255 0.538052
v -0.130123 1.964397 -0.000000
v -0.240153 3.519812 0.174106
v -0.323861 3.509534 0.043200
vt 0.500000 0.500000
vt 0.666667 1.000000
vt 0.500000 1.000000
vn -0.832162 -0.119481 0.541508
vn -0.832162 -0.119481 0.541508
vn -0.832162 -0.119481 0.541508
v -0.016085 1.968192 0.177696
v 0.211824 1.979796 0.177696
v -0.073717 3.546278 0.174106
vt 0.666667 0.500000
vt 0.833333 0.500000
vt 0.833333 1.000000
vn -0.000116 0.002271 0.999997
vn -0.000116 0.002271 0.999997
vn -0.000116 0.002271 0.999997
v -0.016085 1.968192 0.177696
v -0.073717 3.546278 0.174106
v -0.240153 3.519812 0.174106
vt 0.666667 0.500000
vt 0.833333 1.000000
vt 0.666667 1.000000
vn -0.000360 0.002262 0.999997
vn -0.000360 0.002262 0.999997
vn -0.000360 0.002262 0.999997
v 0.211824 1.979796 0.177696
v 0.325696 1.987603 0.000000
v 0.009013 3.562466 0.043200
vt 0.833333 0.500000
vt 1.000000 0.500000
vt 1.000000 1.000000
vn 0.829131 0.151969 0.538003
vn 0.829131 0.151969 0.538003
vn 0.829131 0.151969 0.538003
v 0.211824 1.979796 0.177696
v 0.009013 3.562466 0.043200
v -0.073717 3.546278 0.174106
vt 0.833333 0.500000
vt 1.000000 1.000000
vt 0.833333 1.000000
vn 0.826920 0.151973 0.541393
vn 0.826920 0.151973 0.541393
vn 0.826920 0.151973 0.541393
v 0.009013 3.562466 0.043200
v -0.074700 3.552188 -0.087706
v -0.418808 5.408800 0.011576
vt 0.000000 1.000000
vt 0.166667 1.000000
vt 0.166667 1.500000
vn 0.821995 0.181221 -0.539891
vn 0.821995 0.181221 -0.539891
vn 0.821995 0.181221 -0.539891
v 0.009013 3.562466 0.043200
v -0.418808 5.408800 0.011576
v -0.370782 5.409188 0.086400
vt 0.000000 1.000000
vt 0.166667 1.500000
vt 0.000000 1.500000
vn 0.826995 0.182518 -0.531757
vn 0.826995 0.182518 -0.531757
vn 0.826995 0.182518 -0.531757
v -0.074700 3.552188 -0.087706
v -0.241139 3.525722 -0.087706
v -0.514883 5.407612 0.011576
vt 0.166667 1.000000
vt 0.333333 1.000000
vt 0.333333 1.500000
vn -0.008188 0.051494 -0.998640
vn -0.008188 0.051494 -0.998640
vn -0.008188 0.051494 -0.998640
v -0.074700 3.552188 -0.087706
v -0.514883 5.407612 0.011576
v -0.418808 5.408800 0.011576
vt 0.166667 1.000000
vt 0.333333 1.500000
vt 0.166667 1.500000
vn -0.000659 0.053276 -0.998580
vn -0.000659 0.053276 -0.998580
vn -0.000659 0.053276 -0.998580
v -0.241139 3.525722 -0.087706
v -0.323861 3.509534 0.043200
v -0.562932 5.406812 0.086400
vt 0.333333 1.000000
vt 0.500000 1.000000
vt 0.500000 1.500000
vn -0.836446 -0.093101 -0.540083
vn -0.836446 -0.093101 -0.540083
vn -0.836446 -0.093101 -0.540083
v -0.241139 3.525722 -0.087706
v -0.562932 5.406812 0.086400
v -0.514883 5.407612 0.011576
vt 0.333333 1.000000
vt 0.500000 1.500000
vt 0.333333 1.500000
vn -0.837316 -0.093379 -0.538686
vn -0.837316 -0.093379 -0.538686
vn -0.837316 -0.093379 -0.538686
v -0.323861 3.509534 0.043200
v -0.240153 3.519812 0.174106
v -0.514906 5.407200 0.161224
vt 0.500000 1.000000
vt 0.666667 1.000000
vt 0.666667 1.500000
vn -0.832434 -0.117484 0.541526
vn -0.832434 -0.117484 0.541526
vn -0.832434 -0.117484 0.541526
v -0.323861 3.509534 0.043200
v -0.514906 5.407200 0.161224
v -0.562932 5.406812 0.086400
vt 0.500000 1.000000
vt 0.666667 1.500000
vt 0.500000 1.500000
vn -0.835456 -0.117497 0.536850
vn -0.835456 -0.117497 0.536850
vn -0.835456 -0.117497 0.536850
v -0.240153 3.519812 0.174106
v -0.073717 3.546278 0.174106
v -0.418831 5.408388 0.161224
vt 0.666667 1.000000
vt 0.833333 1.000000
vt 0.833333 1.500000
vn -0.001068 0.006720 0.999977
vn -0.001068 0.006720 0.999977
vn -0.001068 0.006720 0.999977
v -0.240153 3.519812 0.174106
v -0.418831 5.408388 0.161224
v -0.514906 5.407200 0.161224
vt 0.666667 1.000000
vt 0.833333 1.500000
vt 0.666667 1.500000
vn -0.000084 0.006813 0.999977
vn -0.000084 0.006813 0.999977
vn -0.000084 0.006813 0.999977
v -0.073717 3.546278 0.174106
v 0.009013 3.562466 0.043200
v -0.370782 5.409188 0.086400
vt 0.833333 1.000000
vt 1.000000 1.000000
vt 1.000000 1.500000
vn 0.825931 0.157195 0.541413
vn 0.825931 0.157195 0.541413
vn 0.825931 0.157195 0.541413
v -0.073717 3.546278 0.174106
v -0.370782 5.409188 0.086400
v -0.418831 5.408388 0.161224
vt 0.833333 1.000000
vt 1.000000 1.500000
vt 0.833333 1.500000
vn 0.830170 0.157559 0.534783
vn 0.830170 0.157559 0.534783
vn 0.830170 0.157559 0.534783
v -0.370782 5.409188 0.086400
v -0.418808 5.408800 0.011576
v 0.054514 7.173355 0.030621
vt 0.000000 1.500000
vt 0.166667 1.500000
vt 0.166667 2.000000
vn 0.822404 -0.214915 -0.526747
vn 0.822404 -0.214915 -0.526747
vn 0.822404 -0.214915 -0.526747
v -0.370782 5.409188 0.086400
v 0.054514 7.173355 0.030621
v 0.069187 7.171482 0.054000
vt 0.000000 1.500000
vt 0.166667 2.000000
vt 0.000000 2.000000
vn 0.819491 -0.214363 -0.531492
vn 0.819491 -0.214363 -0.531492
vn 0.819491 -0.214363 -0.531492
v -0.418808 5.408800 0.011576
v -0.514883 5.407612 0.011576
v 0.025399 7.177874 0.030621
vt 0.166667 1.500000
vt 0.333333 1.500000
vt 0.333333 2.000000
vn -0.000134 0.010799 -0.999942
vn -0.000134 0.010799 -0.999942
vn -0.000134 0.010799 -0.999942
v -0.418808 5.408800 0.011576
v 0.025399 7.177874 0.030621
v 0.054514 7.173355 0.030621
vt 0.166667 1.500000
vt 0.333333 2.000000
vt 0.166667 2.000000
vn 0.001608 0.010361 -0.999945
vn 0.001608 0.010361 -0.999945
vn 0.001608 0.010361 -0.999945
v -0.514883 5.407612 0.011576
v -0.562932 5.406812 0.086400
v 0.010956 7.180518 0.054000
vt 0.333333 1.500000
vt 0.500000 1.500000
vt 0.500000 2.000000
vn -0.815041 0.254198 -0.520665
vn -0.815041 0.254198 -0.520665
vn -0.815041 0.254198 -0.520665
v -0.514883 5.407612 0.011576
v 0.010956 7.180518 0.054000
v 0.025399 7.177874 0.030621
vt 0.333333 1.500000
vt 0.500000 2.000000
vt 0.333333 2.000000
vn -0.810046 0.252917 -0.529017
vn -0.810046 0.252917 -0.529017
vn -0.810046 0.252917 -0.529017
v -0.562932 5.406812 0.086400
v -0.514906 5.407200 0.161224
v 0.025629 7.178645 0.077379
vt 0.500000 1.500000
vt 0.666667 1.500000
vt 0.666667 2.000000
vn -0.810505 0.271872 0.518814
vn -0.810505 0.271872 0.518814
vn -0.810505 0.271872 0.518814
v -0.562932 5.406812 0.086400
v 0.025629 7.178645 0.077379
v 0.010956 7.180518 0.054000
vt 0.500000 1.500000
vt 0.666667 2.000000
vt 0.500000 2.000000
vn -0.805584 0.270280 0.527240
vn -0.805584 0.270280 0.527240
vn -0.805584 0.270280 0.527240
v -0.514906 5.407200 0.161224
v -0.418831 5.408388 0.161224
v 0.054744 7.174126 0.077379
vt 0.666667 1.500000
vt 0.833333 1.500000
vt 0.833333 2.000000
vn -0.000589 0.047589 0.998867
vn -0.000589 0.047589 0.998867
vn -0.000589 0.047589 0.998867
v -0.514906 5.407200 0.161224
v 0.054744 7.174126 0.077379
v 0.025629 7.178645 0.077379
vt 0.666667 1.500000
vt 0.833333 2.000000
vt 0.666667 2.000000
vn 0.007006 0.045144 0.998956
vn 0.007006 0.045144 0.998956
vn 0.007006 0.045144 0.998956
v -0.418831 5.408388 0.161224
v -0.370782 5.409188 0.086400
v 0.069187 7.171482 0.054000
vt 0.833333 1.500000
vt 1.000000 1.500000
vt 1.000000 2.000000
vn 0.825995 -0.196502 0.528317
vn 0.825995 -0.196502 0.528317
vn 0.825995 -0.196502 0.528317
v -0.418831 5.408388 0.161224
v 0.069187 7.171482 0.054000
v 0.054744 7.174126 0.077379
vt 0.833333 1.500000
vt 1.000000 2.000000
vt 0.833333 2.000000
vn 0.824224 -0.195829 0.531325
vn 0.824224 -0.195829 0.531325
vn 0.824224 -0.195829 0.531325
v 0.143928 0.000000 -0.224474
v 0.287857 0.000000 0.000000
v 0.000000 0.000000 0.000000
vt 0.059970 -0.103923
vt 0.119940 0.000000
vt 0.000000 0.000000
vn 0.000000 -1.000000 0.000000
vn 0.000000 -1.000000 0.000000
vn 0.000000 -1.000000 0.000000
v -0.143928 0.000000 -0.224474
v 0.143928 0.000000 -0.224474
v 0.000000 0.000000 0.000000
vt -0.059970 -0.103923
vt 0.059970 -0.103923
vt 0.000000 0.000000
vn 0.000000 -1.000000 0.000000
vn 0.000000 -1.000000 0.000000
vn 0.000000 -1.000000 0.000000
v -0.287857 0.000000 -0.000000
v -0.143928 0.000000 -0.224474
v 0.000000 0.000000 0.000000
vt -0.119940 -0.000000
vt -0.059970 -0.103923
vt 0.000000 0.000000
vn 0.000000 -1.000000 0.000000
vn 0.000000 -1.000000 0.000000
vn 0.000000 -1.000000 0.000000
v -0.143928 0.000000 0.224474
v -0.287857 0.000000 -0.000000
v 0.000000 0.000000 0.000000
vt -0.059970 0.103923
vt -0.119940 -0.000000
vt 0.000000 0.000000
vn 0.000000 -1.000000 -0.000000
vn 0.000000 -1.000000 -0.000000
vn 0.000000 -1.000000 -0.000000
v 0.143928 0.000000 0.224474
v -0.143928 0.000000 0.224474
v 0.000000 0.000000 0.000000
vt 0.059970 0.103923
vt -0.059970 0.103923
vt 0.000000 0.000000
vn 0.000000 -1.000000 0.000000
vn 0.000000 -1.000000 0.000000
vn 0.000000 -1.000000 0.000000
v 0.287857 0.000000 0.000000
v 0.143928 0.000000 0.224474
v 0.000000 0.000000 0.000000
vt 0.119940 0.000000
vt 0.059970 0.103923
vt 0.000000 0.000000
vn 0.000000 -1.000000 0.000000
vn 0.000000 -1.000000 0.000000
vn 0.000000 -1.000000 0.000000
v 0.040071 7.176000 0.054000
v 0.069187 7.171482 0.054000
v 0.054514 7.173355 0.030621
vt -0.125000 0.025000
vt -0.112690 0.025000
vt -0.118878 0.014176
vn 0.153332 0.988028 -0.017037
vn 0.153332 0.988028 -0.017037
vn 0.153332 0.988028 -0.017037
v 0.040071 7.176000 0.054000
v 0.054514 7.173355 0.030621
v 0.025399 7.177874 0.030621
vt -0.125000 0.025000
vt -0.118878 0.014176
vt -0.131188 0.014176
vn 0.153333 0.988028 -0.017037
vn 0.153333 0.988028 -0.017037
vn 0.153333 0.988028 -0.017037
v 0.040071 7.176000 0.054000
v 0.025399 7.177874 0.030621
v 0.010956 7.180518 0.054000
vt -0.125000 0.025000
vt -0.131188 0.014176
vt -0.137310 0.025000
vn 0.153333 0.988028 -0.017037
vn 0.153333 0.988028 -0.017037
vn 0.153333 0.988028 -0.017037
v 0.040071 7.176000 0.054000
v 0.010956 7.180518 0.054000
v 0.025629 7.178645 0.077379
vt -0.125000 0.025000
vt -0.137310 0.025000
vt -0.131122 0.035824
vn 0.153333 0.988028 -0.017037
vn 0.153333 0.988028 -0.017037
vn 0.153333 0.988028 -0.017037
v 0.040071 7.176000 0.054000
v 0.025629 7.178645 0.077379
v 0.054744 7.174126 0.077379
vt -0.125000 0.025000
vt -0.131122 0.035824
vt -0.118812 0.035824
vn 0.153333 0.988028 -0.017037
vn 0.153333 0.988028 -0.017037
vn 0.153333 0.988028 -0.017037
v 0.040071 7.176000 0.054000
v 0.054744 7.174126 0.077379
v 0.069187 7.171482 0.054000
vt -0.125000 0.025000
vt -0.118812 0.035824
vt -0.112690 0.025000
vn 0.153332 0.988028 -0.017037
vn 0.153332 0.988028 -0.017037
vn 0.153332 0.988028 -0.017037
v 0.220810 2.223983 0.000000
v 0.061624 2.293556 -0.161876
v 0.874565 3.747960 -0.053918
vt 0.000000 0.000000
vt 0.250000 0.000000
vt 0.250000 0.500000
vn 0.616879 -0.290508 -0.731482
vn 0.616879 -0.290508 -0.731482
vn 0.616879 -0.290508 -0.731482
v 0.220810 2.223983 0.000000
v 0.874565 3.747960 -0.053918
v 0.993352 3.702125 0.064800
vt 0.000000 0.000000
vt 0.250000 0.500000
vt 0.000000 0.500000
vn 0.617847 -0.290889 -0.730513
vn 0.617847 -0.290889 -0.730513
vn 0.617847 -0.290889 -0.730513
v 0.061624 2.293556 -0.161876
v -0.103613 2.352017 -0.000000
v 0.751814 3.785875 0.064800
vt 0.250000 0.000000
vt 0.500000 0.000000
vt 0.500000 0.500000
vn -0.576747 0.376839 -0.724814
vn -0.576747 0.376839 -0.724814
vn -0.576747 0.376839 -0.724814
v 0.061624 2.293556 -0.161876
v 0.751814 3.785875 0.064800
v 0.874565 3.747960 -0.053918
vt 0.250000 0.000000
vt 0.500000 0.500000
vt 0.250000 0.500000
vn -0.580617 0.378061 -0.721078
vn -0.580617 0.378061 -0.721078
vn -0.580617 0.378061 -0.721078
v -0.103613 2.352017 -0.000000
v 0.055519 2.282444 0.161876
v 0.870578 3.740040 0.183518
vt 0.500000 0.000000
vt 0.750000 0.000000
vt 0.750000 0.500000
vn -0.600782 0.325102 0.730321
vn -0.600782 0.325102 0.730321
vn -0.600782 0.325102 0.730321
v -0.103613 2.352017 -0.000000
v 0.870578 3.740040 0.183518
v 0.751814 3.785875 0.064800
vt 0.500000 0.000000
vt 0.750000 0.500000
vt 0.500000 0.500000
vn -0.602273 0.326387 0.728519
vn -0.602273 0.326387 0.728519
vn -0.602273 0.326387 0.728519
v 0.055519 2.282444 0.161876
v 0.220810 2.223983 0.000000
v 0.993352 3.702125 0.064800
vt 0.750000 0.000000
vt 1.000000 0.000000
vt 1.000000 0.500000
vn 0.593017 -0.341895 0.728999
vn 0.593017 -0.341895 0.728999
vn 0.593017 -0.341895 0.728999
v 0.055519 2.282444 0.161876
v 0.993352 3.702125 0.064800
v 0.870578 3.740040 0.183518
vt 0.750000 0.000000
vt 1.000000 0.500000
vt 0.750000 0.500000
vn 0.595699 -0.343880 0.725871
vn 0.595699 -0.343880 0.725871
vn 0.595699 -0.343880 0.725871
v 0.993352 3.702125 0.064800
v 0.874565 3.747960 -0.053918
v 1.633940 5.411422 0.064899
vt 0.000000 0.500000
vt 0.250000 0.500000
vt 0.250000 1.000000
vn 0.638617 -0.239290 -0.731374
vn 0.638617 -0.239290 -0.731374
vn 0.638617 -0.239290 -0.731374
v 0.993352 3.702125 0.064800
v 1.633940 5.411422 0.064899
v 1.703830 5.399348 0.129600
vt 0.000000 0.500000
vt 0.250000 1.000000
vt 0.000000 1.000000
vn 0.637164 -0.238746 -0.732819
vn 0.637164 -0.238746 -0.732819
vn 0.637164 -0.238746 -0.732819
v 0.874565 3.747960 -0.053918
v 0.751814 3.785875 0.064800
v 1.562457 5.416652 0.129600
vt 0.250000 0.500000
vt 0.500000 0.500000
vt 0.500000 1.000000
vn -0.602310 0.328315 -0.727621
vn -0.602310 0.328315 -0.727621
vn -0.602310 0.328315 -0.727621
v 0.874565 3.747960 -0.053918
v 1.562457 5.416652 0.129600
v 1.633940 5.411422 0.064899
vt 0.250000 0.500000
vt 0.500000 1.000000
vt 0.250000 1.000000
vn -0.619133 0.333420 -0.710989
vn -0.619133 0.333420 -0.710989
vn -0.619133 0.333420 -0.710989
v 0.751814 3.785875 0.064800
v 0.870578 3.740040 0.183518
v 1.632346 5.404578 0.194301
vt 0.500000 0.500000
vt 0.750000 0.500000
vt 0.750000 1.000000
vn -0.622435 0.280120 0.730826
vn -0.622435 0.280120 0.730826
vn -0.622435 0.280120 0.730826
v 0.751814 3.785875 0.064800
v 1.632346 5.404578 0.194301
v 1.562457 5.416652 0.129600
vt 0.500000 0.500000
vt 0.750000 1.000000
vt 0.500000 1.000000
vn -0.625137 0.281827 0.727858
vn -0.625137 0.281827 0.727858
vn -0.625137 0.281827 0.727858
v 0.870578 3.740040 0.183518
v 0.993352 3.702125 0.064800
v 1.703830 5.399348 0.129600
vt 0.750000 0.500000
vt 1.000000 0.500000
vt 1.000000 1.000000
vn 0.618651 -0.286900 0.731410
vn 0.618651 -0.286900 0.731410
vn 0.618651 -0.286900 0.731410
v 0.870578 3.740040 0.183518
v 1.703830 5.399348 0.129600
v 1.632346 5.404578 0.194301
vt 0.750000 0.500000
vt 1.000000 1.000000
vt 0.750000 1.000000
vn 0.629762 -0.292868 0.719463
vn 0.629762 -0.292868 0.719463
vn 0.629762 -0.292868 0.719463
v 1.703830 5.399348 0.129600
v 1.633940 5.411422 0.064899
v 1.465483 6.345755 0.194481
vt 0.000000 1.000000
vt 0.250000 1.000000
vt 0.250000 1.500000
vn 0.682906 0.219746 -0.696672
vn 0.682906 0.219746 -0.696672
vn 0.682906 0.219746 -0.696672
v 1.703830 5.399348 0.129600
v 1.465483 6.345755 0.194481
v 1.489592 6.348512 0.216000
vt 0.000000 1.000000
vt 0.250000 1.500000
vt 0.000000 1.500000
vn 0.637294 0.211304 -0.741085
vn 0.637294 0.211304 -0.741085
vn 0.637294 0.211304 -0.741085
v 1.633940 5.411422 0.064899
v 1.562457 5.416652 0.129600
v 1.441979 6.339488 0.216000
vt 0.250000 1.000000
vt 0.500000 1.000000
vt 0.500000 1.500000
vn -0.671681 -0.018349 -0.740613
vn -0.671681 -0.018349 -0.740613
vn -0.671681 -0.018349 -0.740613
v 1.633940 5.411422 0.064899
v 1.441979 6.339488 0.216000
v 1.465483 6.345755 0.194481
vt 0.250000 1.000000
vt 0.500000 1.500000
vt 0.250000 1.500000
vn -0.672462 -0.018628 -0.739897
vn -0.672462 -0.018628 -0.739897
vn -0.672462 -0.018628 -0.739897
v 1.562457 5.416652 0.129600
v 1.632346 5.404578 0.194301
v 1.466089 6.342245 0.237519
vt 0.500000 1.000000
vt 0.750000 1.000000
vt 0.750000 1.500000
vn -0.685429 -0.154332 0.711596
vn -0.685429 -0.154332 0.711596
vn -0.685429 -0.154332 0.711596
v 1.562457 5.416652 0.129600
v 1.466089 6.342245 0.237519
v 1.441979 6.339488 0.216000
vt 0.500000 1.000000
vt 0.750000 1.500000
vt 0.500000 1.500000
vn -0.648018 -0.154425 0.745805
vn -0.648018 -0.154425 0.745805
vn -0.648018 -0.154425 0.745805
v 1.632346 5.404578 0.194301
v 1.703830 5.399348 0.129600
v 1.489592 6.348512 0.216000
vt 0.750000 1.000000
vt 1.000000 1.000000
vt 1.000000 1.500000
vn 0.672039 0.084723 0.735653
vn 0.672039 0.084723 0.735653
vn 0.672039 0.084723 0.735653
v 1.632346 5.404578 0.194301
v 1.489592 6.348512 0.216000
v 1.466089 6.342245 0.237519
vt 0.750000 1.000000
vt 1.000000 1.500000
vt 0.750000 1.500000
vn 0.660864 0.082796 0.745925
vn 0.660864 0.082796 0.745925
vn 0.660864 0.082796 0.745925
v 0.061624 2.293556 -0.161876
v 0.220810 2.223983 0.000000
v 0.058571 2.288000 0.000000
vt 0.011202 -0.074943
vt 0.078394 0.000000
vt 0.010000 0.000000
vn -0.366768 -0.929502 -0.038817
vn -0.366768 -0.929502 -0.038817
vn -0.366768 -0.929502 -0.038817
v -0.103613 2.352017 -0.000000
v 0.061624 2.293556 -0.161876
v 0.058571 2.288000 0.000000
vt -0.058394 -0.000000
vt 0.011202 -0.074943
vt 0.010000 0.000000
vn -0.366874 -0.929460 -0.038818
vn -0.366874 -0.929460 -0.038818
vn -0.366874 -0.929460 -0.038818
v 0.055519 2.282444 0.161876
v -0.103613 2.352017 -0.000000
v 0.058571 2.288000 0.000000
vt 0.008798 0.074943
vt -0.058394 -0.000000
vt 0.010000 0.000000
vn -0.366874 -0.929460 -0.038817
vn -0.366874 -0.929460 -0.038817
vn -0.366874 -0.929460 -0.038817
v 0.220810 2.223983 0.000000
v 0.055519 2.282444 0.161876
v 0.058571 2.288000 0.000000
vt 0.078394 0.000000
vt 0.008798 0.074943
vt 0.010000 0.000000
vn -0.366768 -0.929502 -0.038816
vn -0.366768 -0.929502 -0.038816
vn -0.366768 -0.929502 -0.038816
v 1.465786 6.344000 0.216000
v 1.489592 6.348512 0.216000
v 1.465483 6.345755 0.194481
vt 0.500000 0.100000
vt 0.509762 0.100000
vt 0.499812 0.090037
vn -0.185583 0.979161 0.082482
vn -0.185583 0.979161 0.082482
vn -0.185583 0.979161 0.082482
v 1.465786 6.344000 0.216000
v 1.465483 6.345755 0.194481
v 1.441979 6.339488 0.216000
vt 0.500000 0.100000
vt 0.499812 0.090037
vt 0.490238 0.100000
vn -0.185585 0.979160 0.082482
vn -0.185585 0.979160 0.082482
vn -0.185585 0.979160 0.082482
v 1.465786 6.344000 0.216000
v 1.441979 6.339488 0.216000
v 1.466089 6.342245 0.237519
vt 0.500000 0.100000
vt 0.490238 0.100000
vt 0.500188 0.109963
vn -0.185585 0.979160 0.082482
vn -0.185585 0.979160 0.082482
vn -0.185585 0.979160 0.082482
v 1.465786 6.344000 0.216000
v 1.466089 6.342245 0.237519
v 1.489592 6.348512 0.216000
vt 0.500000 0.100000
vt 0.500188 0.109963
vt 0.509762 0.100000
vn -0.185583 0.979161 0.082482
vn -0.185583 0.979161 0.082482
vn -0.185583 0.979161 0.082482
v -0.104585 3.486935 0.000000
v -0.174038 3.441227 -0.074176
v -1.489934 4.473582 0.311284
vt 0.000000 0.000000
vt 0.250000 0.000000
vt 0.250000 0.500000
vn 0.309318 0.652553 -0.691735
vn 0.309318 0.652553 -0.691735
vn 0.309318 0.652553 -0.691735
v -0.104585 3.486935 0.000000
v -1.489934 4.473582 0.311284
v -1.477923 4.481417 0.324000
vt 0.000000 0.000000
vt 0.250000 0.500000
vt 0.000000 0.500000
vn 0.308440 0.651698 -0.692931
vn 0.308440 0.651698 -0.692931
vn 0.308440 0.651698 -0.692931
v -0.174038 3.441227 -0.074176
v -0.219804 3.377065 -0.000000
v -1.497933 4.462583 0.324000
vt 0.250000 0.000000
vt 0.500000 0.000000
vt 0.500000 0.500000
vn -0.549411 -0.433740 -0.714155
vn -0.549411 -0.433740 -0.714155
vn -0.549411 -0.433740 -0.714155
v -0.174038 3.441227 -0.074176
v -1.497933 4.462583 0.324000
v -1.489934 4.473582 0.311284
vt 0.250000 0.000000
vt 0.500000 0.500000
vt 0.250000 0.500000
vn -0.547921 -0.430631 -0.717175
vn -0.547921 -0.430631 -0.717175
vn -0.547921 -0.430631 -0.717175
v -0.219804 3.377065 -0.000000
v -0.150389 3.422773 0.074176
v -1.485923 4.470418 0.336716
vt 0.500000 0.000000
vt 0.750000 0.000000
vt 0.750000 0.500000
vn -0.346476 -0.618441 0.705326
vn -0.346476 -0.618441 0.705326
vn -0.346476 -0.618441 0.705326
v -0.219804 3.377065 -0.000000
v -1.485923 4.470418 0.336716
v -1.497933 4.462583 0.324000
vt 0.500000 0.000000
vt 0.750000 0.500000
vt 0.500000 0.500000
vn -0.345327 -0.617529 0.706687
vn -0.345327 -0.617529 0.706687
vn -0.345327 -0.617529 0.706687
v -0.150389 3.422773 0.074176
v -0.104585 3.486935 0.000000
v -1.477923 4.481417 0.324000
vt 0.750000 0.000000
vt 1.000000 0.000000
vt 1.000000 0.500000
vn 0.509946 0.469353 0.720877
vn 0.509946 0.469353 0.720877
vn 0.509946 0.469353 0.720877
v -0.150389 3.422773 0.074176
v -1.477923 4.481417 0.324000
v -1.485923 4.470418 0.336716
vt 0.750000 0.000000
vt 1.000000 0.500000
vt 0.750000 0.500000
vn 0.508409 0.466777 0.723630
vn 0.508409 0.466777 0.723630
vn 0.508409 0.466777 0.723630
v -0.174038 3.441227 -0.074176
v -0.104585 3.486935 0.000000
v -0.162214 3.432000 0.000000
vt -0.105101 -0.034341
vt -0.077034 0.000000
vt -0.100000 0.000000
vn 0.676585 -0.709763 -0.196137
vn 0.676585 -0.709763 -0.196137
vn 0.676585 -0.709763 -0.196137
v -0.219804 3.377065 -0.000000
v -0.174038 3.441227 -0.074176
v -0.162214 3.432000 0.000000
vt -0.122966 -0.000000
vt -0.105101 -0.034341
vt -0.100000 0.000000
vn 0.676829 -0.709527 -0.196147
vn 0.676829 -0.709527 -0.196147
vn 0.676829 -0.709527 -0.196147
v -0.150389 3.422773 0.074176
v -0.219804 3.377065 -0.000000
v -0.162214 3.432000 0.000000
vt -0.094899 0.034341
vt -0.122966 -0.000000
vt -0.100000 0.000000
vn 0.676828 -0.709526 -0.196156
vn 0.676828 -0.709526 -0.196156
vn 0.676828 -0.709526 -0.196156
v -0.104585 3.486935 0.000000
v -0.150389 3.422773 0.074176
v -0.162214 3.432000 0.000000
vt -0.077034 0.000000
vt -0.094899 0.034341
vt -0.100000 0.000000
vn 0.676584 -0.709761 -0.196147
vn 0.676584 -0.709761 -0.196147
vn 0.676584 -0.709761 -0.196147
v -1.487929 4.472000 0.324000
v -1.477923 4.481417 0.324000
v -1.489934 4.473582 0.311284
vt -0.675000 0.150000
vt -0.671063 0.150000
vt -0.675874 0.144113
vn -0.672237 0.714233 0.194856
vn -0.672237 0.714233 0.194856
vn -0.672237 0.714233 0.194856
v -1.487929 4.472000 0.324000
v -1.489934 4.473582 0.311284
v -1.497933 4.462583 0.324000
vt -0.675000 0.150000
vt -0.675874 0.144113
vt -0.678937 0.150000
vn -0.672278 0.714194 0.194857
vn -0.672278 0.714194 0.194857
vn -0.672278 0.714194 0.194857
v -1.487929 4.472000 0.324000
v -1.497933 4.462583 0.324000
v -1.485923 4.470418 0.336716
vt -0.675000 0.150000
vt -0.678937 0.150000
vt -0.674126 0.155887
vn -0.672278 0.714193 0.194859
vn -0.672278 0.714193 0.194859
vn -0.672278 0.714193 0.194859
v -1.487929 4.472000 0.324000
v -1.485923 4.470418 0.336716
v -1.477923 4.481417 0.324000
vt -0.675000 0.150000
vt -0.674126 0.155887
vt -0.671063 0.150000
vn -0.672237 0.714233 0.194857
vn -0.672237 0.714233 0.194857
vn -0.672237 0.714233 0.194857
v -0.382544 5.159208 0.000000
v -0.411525 5.087304 -0.073376
v -1.641031 5.718509 -0.336579
vt 0.000000 0.000000
vt 0.250000 0.000000
vt 0.250000 0.500000
vn 0.435305 0.551053 -0.711934
vn 0.435305 0.551053 -0.711934
vn 0.435305 0.551053 -0.711934
v -0.382544 5.159208 0.000000
v -1.641031 5.718509 -0.336579
v -1.635965 5.730836 -0.324000
vt 0.000000 0.000000
vt 0.250000 0.500000
vt 0.000000 0.500000
vn 0.434952 0.549323 -0.713485
vn 0.434952 0.549323 -0.713485
vn 0.434952 0.549323 -0.713485
v -0.411525 5.087304 -0.073376
v -0.474404 5.032792 -0.000000
v -1.651891 5.709164 -0.324000
vt 0.250000 0.000000
vt 0.500000 0.000000
vt 0.500000 0.500000
vn -0.207170 -0.691946 -0.691586
vn -0.207170 -0.691946 -0.691586
vn -0.207170 -0.691946 -0.691586
v -0.411525 5.087304 -0.073376
v -1.651891 5.709164 -0.324000
v -1.641031 5.718509 -0.336579
vt 0.250000 0.000000
vt 0.500000 0.500000
vt 0.250000 0.500000
vn -0.206789 -0.691438 -0.692208
vn -0.206789 -0.691438 -0.692208
vn -0.206789 -0.691438 -0.692208
v -0.474404 5.032792 -0.000000
v -0.445474 5.104696 0.073376
v -1.646826 5.721491 -0.311421
vt 0.500000 0.000000
vt 0.750000 0.000000
vt 0.750000 0.500000
vn -0.490411 -0.517927 0.700892
vn -0.490411 -0.517927 0.700892
vn -0.490411 -0.517927 0.700892
v -0.474404 5.032792 -0.000000
v -1.646826 5.721491 -0.311421
v -1.651891 5.709164 -0.324000
vt 0.500000 0.000000
vt 0.750000 0.500000
vt 0.500000 0.500000
vn -0.489759 -0.515954 0.702800
vn -0.489759 -0.515954 0.702800
vn -0.489759 -0.515954 0.702800
v -0.445474 5.104696 0.073376
v -0.382544 5.159208 0.000000
v -1.635965 5.730836 -0.324000
vt 0.750000 0.000000
vt 1.000000 0.000000
vt 1.000000 0.500000
vn 0.156437 0.723886 0.671950
vn 0.156437 0.723886 0.671950
vn 0.156437 0.723886 0.671950
v -0.445474 5.104696 0.073376
v -1.635965 5.730836 -0.324000
v -1.646826 5.721491 -0.311421
vt 0.750000 0.000000
vt 1.000000 0.500000
vt 0.750000 0.500000
vn 0.156132 0.723569 0.672362
vn 0.156132 0.723569 0.672362
vn 0.156132 0.723569 0.672362
v -0.411525 5.087304 -0.073376
v -0.382544 5.159208 0.000000
v -0.428500 5.096000 0.000000
vt -0.242683 -0.033970
vt -0.232635 0.000000
vt -0.250000 0.000000
vn 0.783395 -0.569579 0.248741
vn 0.783395 -0.569579 0.248741
vn 0.783395 -0.569579 0.248741
v -0.474404 5.032792 -0.000000
v -0.411525 5.087304 -0.073376
v -0.428500 5.096000 0.000000
vt -0.267365 -0.000000
vt -0.242683 -0.033970
vt -0.250000 0.000000
vn 0.783702 -0.569148 0.248761
vn 0.783702 -0.569148 0.248761
vn 0.783702 -0.569148 0.248761
v -0.445474 5.104696 0.073376
v -0.474404 5.032792 -0.000000
v -0.428500 5.096000 0.000000
vt -0.257317 0.033970
vt -0.267365 -0.000000
vt -0.250000 0.000000
vn 0.783704 -0.569150 0.248751
vn 0.783704 -0.569150 0.248751
vn 0.783704 -0.569150 0.248751
v -0.382544 5.159208 0.000000
v -0.445474 5.104696 0.073376
v -0.428500 5.096000 0.000000
vt -0.232635 0.000000
vt -0.257317 0.033970
vt -0.250000 0.000000
vn 0.783397 -0.569581 0.248731
vn 0.783397 -0.569581 0.248731
vn 0.783397 -0.569581 0.248731
v -1.643929 5.720000 -0.324000
v -1.635965 5.730836 -0.324000
v -1.641031 5.718509 -0.336579
vt -0.775000 -0.150000
vt -0.772023 -0.150000
vt -0.773746 -0.155823
vn -0.780641 0.573741 -0.247830
vn -0.780641 0.573741 -0.247830
vn -0.780641 0.573741 -0.247830
v -1.643929 5.720000 -0.324000
v -1.641031 5.718509 -0.336579
v -1.651891 5.709164 -0.324000
vt -0.775000 -0.150000
vt -0.773746 -0.155823
vt -0.777977 -0.150000
vn -0.780694 0.573668 -0.247834
vn -0.780694 0.573668 -0.247834
vn -0.780694 0.573668 -0.247834
v -1.643929 5.720000 -0.324000
v -1.651891 5.709164 -0.324000
v -1.646826 5.721491 -0.311421
vt -0.775000 -0.150000
vt -0.777977 -0.150000
vt -0.776254 -0.144177
vn -0.780694 0.573669 -0.247832
vn -0.780694 0.573669 -0.247832
vn -0.780694 0.573669 -0.247832
v -1.643929 5.720000 -0.324000
v -1.646826 5.721491 -0.311421
v -1.635965 5.730836 -0.324000
vt -0.775000 -0.150000
vt -0.776254 -0.144177
vt -0.772023 -0.150000
vn -0.780642 0.573742 -0.247828
vn -0.780642 0.573742 -0.247828
vn -0.780642 0.573742 -0.247828
v -0.181439 5.739155 0.108000
v -0.254689 5.681402 0.044840
v -0.527375 6.857383 -0.712828
vt 0.000000 0.000000
vt 0.250000 0.000000
vt 0.250000 0.500000
vn 0.735153 -0.238396 -0.634600
vn 0.735153 -0.238396 -0.634600
vn 0.735153 -0.238396 -0.634600
v -0.181439 5.739155 0.108000
v -0.527375 6.857383 -0.712828
v -0.514667 6.867284 -0.702000
vt 0.000000 0.000000
vt 0.250000 0.500000
vt 0.000000 0.500000
vn 0.731516 -0.241688 -0.637551
vn 0.731516 -0.241688 -0.637551
vn 0.731516 -0.241688 -0.637551
v -0.254689 5.681402 0.044840
v -0.346413 5.700845 0.108000
v -0.543047 6.860716 -0.702000
vt 0.250000 0.000000
vt 0.500000 0.000000
vt 0.500000 0.500000
vn -0.552404 -0.538190 -0.636555
vn -0.552404 -0.538190 -0.636555
vn -0.552404 -0.538190 -0.636555
v -0.254689 5.681402 0.044840
v -0.543047 6.860716 -0.702000
v -0.527375 6.857383 -0.712828
vt 0.250000 0.000000
vt 0.500000 0.500000
vt 0.250000 0.500000
vn -0.553591 -0.537953 -0.635723
vn -0.553591 -0.537953 -0.635723
vn -0.553591 -0.537953 -0.635723
v -0.346413 5.700845 0.108000
v -0.273149 5.758598 0.171160
v -0.530339 6.870617 -0.691172
vt 0.500000 0.000000
vt 0.750000 0.000000
vt 0.750000 0.500000
vn -0.746017 0.291689 0.598645
vn -0.746017 0.291689 0.598645
vn -0.746017 0.291689 0.598645
v -0.346413 5.700845 0.108000
v -0.530339 6.870617 -0.691172
v -0.543047 6.860716 -0.702000
vt 0.500000 0.000000
vt 0.750000 0.500000
vt 0.500000 0.500000
vn -0.742274 0.294507 0.601909
vn -0.742274 0.294507 0.601909
vn -0.742274 0.294507 0.601909
v -0.273149 5.758598 0.171160
v -0.181439 5.739155 0.108000
v -0.514667 6.867284 -0.702000
vt 0.750000 0.000000
vt 1.000000 0.000000
vt 1.000000 0.500000
vn 0.538911 0.590509 0.600728
vn 0.538911 0.590509 0.600728
vn 0.538911 0.590509 0.600728
v -0.273149 5.758598 0.171160
v -0.514667 6.867284 -0.702000
v -0.530339 6.870617 -0.691172
vt 0.750000 0.000000
vt 1.000000 0.500000
vt 0.750000 0.500000
vn 0.540048 0.590195 0.600015
vn 0.540048 0.590195 0.600015
vn 0.540048 0.590195 0.600015
v -0.254689 5.681402 0.044840
v -0.181439 5.739155 0.108000
v -0.263929 5.720000 0.108000
vt -0.194939 0.020759
vt -0.166233 0.050000
vt -0.200000 0.050000
vn 0.191520 -0.824771 0.532045
vn 0.191520 -0.824771 0.532045
vn 0.191520 -0.824771 0.532045
v -0.346413 5.700845 0.108000
v -0.254689 5.681402 0.044840
v -0.263929 5.720000 0.108000
vt -0.233767 0.050000
vt -0.194939 0.020759
vt -0.200000 0.050000
vn 0.191531 -0.824769 0.532045
vn 0.191531 -0.824769 0.532045
vn 0.191531 -0.824769 0.532045
v -0.273149 5.758598 0.171160
v -0.346413 5.700845 0.108000
v -0.263929 5.720000 0.108000
vt -0.205061 0.079241
vt -0.233767 0.050000
vt -0.200000 0.050000
vn 0.191537 -0.824795 0.532003
vn 0.191537 -0.824795 0.532003
vn 0.191537 -0.824795 0.532003
v -0.181439 5.739155 0.108000
v -0.273149 5.758598 0.171160
v -0.263929 5.720000 0.108000
vt -0.166233 0.050000
vt -0.205061 0.079241
vt -0.200000 0.050000
vn 0.191526 -0.824798 0.532003
vn 0.191526 -0.824798 0.532003
vn 0.191526 -0.824798 0.532003
v -0.528857 6.864000 -0.702000
v -0.514667 6.867284 -0.702000
v -0.527375 6.857383 -0.712828
vt -0.350000 -0.325000
vt -0.344211 -0.325000
vt -0.349132 -0.330013
vn -0.191071 0.825703 -0.530760
vn -0.191071 0.825703 -0.530760
vn -0.191071 0.825703 -0.530760
v -0.528857 6.864000 -0.702000
v -0.527375 6.857383 -0.712828
v -0.543047 6.860716 -0.702000
vt -0.350000 -0.325000
vt -0.349132 -0.330013
vt -0.355789 -0.325000
vn -0.191073 0.825703 -0.530760
vn -0.191073 0.825703 -0.530760
vn -0.191073 0.825703 -0.530760
v -0.528857 6.864000 -0.702000
v -0.543047 6.860716 -0.702000
v -0.530339 6.870617 -0.691172
vt -0.350000 -0.325000
vt -0.355789 -0.325000
vt -0.350868 -0.319987
vn -0.191074 0.825707 -0.530753
vn -0.191074 0.825707 -0.530753
vn -0.191074 0.825707 -0.530753
v -0.528857 6.864000 -0.702000
v -0.530339 6.870617 -0.691172
v -0.514667 6.867284 -0.702000
vt -0.350000 -0.325000
vt -0.350868 -0.319987
vt -0.344211 -0.325000
vn -0.191072 0.825708 -0.530753
vn -0.191072 0.825708 -0.530753
vn -0.191072 0.825708 -0.530753
v 0.930864 3.693733 0.054000
v 0.894817 3.763327 -0.016324
v 2.201649 4.891313 0.689944
vt 0.000000 0.000000
vt 0.250000 0.000000
vt 0.250000 0.500000
vn 0.656985 -0.339764 -0.673001
vn 0.656985 -0.339764 -0.673001
vn 0.656985 -0.339764 -0.673001
v 0.930864 3.693733 0.054000
v 2.201649 4.891313 0.689944
v 2.207646 4.879383 0.702000
vt 0.000000 0.000000
vt 0.250000 0.500000
vt 0.000000 0.500000
vn 0.659085 -0.344319 -0.668619
vn 0.659085 -0.344319 -0.668619
vn 0.659085 -0.344319 -0.668619
v 0.894817 3.763327 -0.016324
v 0.814312 3.794267 0.054000
v 2.187926 4.896617 0.702000
vt 0.250000 0.000000
vt 0.500000 0.000000
vt 0.500000 0.500000
vn -0.278266 0.720271 -0.635435
vn -0.278266 0.720271 -0.635435
vn -0.278266 0.720271 -0.635435
v 0.894817 3.763327 -0.016324
v 2.187926 4.896617 0.702000
v 2.201649 4.891313 0.689944
vt 0.250000 0.000000
vt 0.500000 0.500000
vt 0.250000 0.500000
vn -0.279027 0.720654 -0.634667
vn -0.279027 0.720654 -0.634667
vn -0.279027 0.720654 -0.634667
v 0.814312 3.794267 0.054000
v 0.850331 3.724673 0.124324
v 2.193923 4.884687 0.714056
vt 0.500000 0.000000
vt 0.750000 0.000000
vt 0.750000 0.500000
vn -0.623280 0.372311 0.687682
vn -0.623280 0.372311 0.687682
vn -0.623280 0.372311 0.687682
v 0.814312 3.794267 0.054000
v 2.193923 4.884687 0.714056
v 2.187926 4.896617 0.702000
vt 0.500000 0.000000
vt 0.750000 0.500000
vt 0.500000 0.500000
vn -0.624933 0.376797 0.683727
vn -0.624933 0.376797 0.683727
vn -0.624933 0.376797 0.683727
v 0.850331 3.724673 0.124324
v 0.930864 3.693733 0.054000
v 2.207646 4.879383 0.702000
vt 0.750000 0.000000
vt 1.000000 0.000000
vt 1.000000 0.500000
vn 0.307603 -0.689577 0.655640
vn 0.307603 -0.689577 0.655640
vn 0.307603 -0.689577 0.655640
v 0.850331 3.724673 0.124324
v 2.207646 4.879383 0.702000
v 2.193923 4.884687 0.714056
vt 0.750000 0.000000
vt 1.000000 0.500000
vt 0.750000 0.500000
vn 0.308432 -0.690088 0.654712
vn 0.308432 -0.690088 0.654712
vn 0.308432 -0.690088 0.654712
v 0.894817 3.763327 -0.016324
v 0.930864 3.693733 0.054000
v 0.872571 3.744000 0.054000
vt 0.333870 -0.007557
vt 0.350317 0.025000
vt 0.325000 0.025000
vn -0.603228 -0.699547 -0.383078
vn -0.603228 -0.699547 -0.383078
vn -0.603228 -0.699547 -0.383078
v 0.814312 3.794267 0.054000
v 0.894817 3.763327 -0.016324
v 0.872571 3.744000 0.054000
vt 0.299683 0.025000
vt 0.333870 -0.007557
vt 0.325000 0.025000
vn -0.603423 -0.699372 -0.383092
vn -0.603423 -0.699372 -0.383092
vn -0.603423 -0.699372 -0.383092
v 0.850331 3.724673 0.124324
v 0.814312 3.794267 0.054000
v 0.872571 3.744000 0.054000
vt 0.316130 0.057557
vt 0.299683 0.025000
vt 0.325000 0.025000
vn -0.603433 -0.699384 -0.383056
vn -0.603433 -0.699384 -0.383056
vn -0.603433 -0.699384 -0.383056
v 0.930864 3.693733 0.054000
v 0.850331 3.724673 0.124324
v 0.872571 3.744000 0.054000
vt 0.350317 0.025000
vt 0.316130 0.057557
vt 0.325000 0.025000
vn -0.603238 -0.699559 -0.383042
vn -0.603238 -0.699559 -0.383042
vn -0.603238 -0.699559 -0.383042
v 2.197786 4.888000 0.702000
v 2.207646 4.879383 0.702000
v 2.201649 4.891313 0.689944
vt 0.850000 0.325000
vt 0.854340 0.325000
vt 0.851521 0.319419
vn 0.607172 0.694779 0.385519
vn 0.607172 0.694779 0.385519
vn 0.607172 0.694779 0.385519
v 2.197786 4.888000 0.702000
v 2.201649 4.891313 0.689944
v 2.187926 4.896617 0.702000
vt 0.850000 0.325000
vt 0.851521 0.319419
vt 0.845660 0.325000
vn 0.607205 0.694748 0.385521
vn 0.607205 0.694748 0.385521
vn 0.607205 0.694748 0.385521
v 2.197786 4.888000 0.702000
v 2.187926 4.896617 0.702000
v 2.193923 4.884687 0.714056
vt 0.850000 0.325000
vt 0.845660 0.325000
vt 0.848479 0.330581
vn 0.607207 0.694750 0.385515
vn 0.607207 0.694750 0.385515
vn 0.607207 0.694750 0.385515
v 2.197786 4.888000 0.702000
v 2.193923 4.884687 0.714056
v 2.207646 4.879383 0.702000
vt 0.850000 0.325000
vt 0.848479 0.330581
vt 0.854340 0.325000
vn 0.607173 0.694781 0.385513
vn 0.607173 0.694781 0.385513
vn 0.607173 0.694781 0.385513
v 1.549462 5.144726 0.129600
v 1.461170 5.173561 0.066866
v 2.377550 5.819468 -0.550754
vt 0.000000 0.000000
vt 0.250000 0.000000
vt 0.250000 0.500000
vn 0.160477 -0.791533 -0.589680
vn 0.160477 -0.791533 -0.589680
vn 0.160477 -0.791533 -0.589680
v 1.549462 5.144726 0.129600
v 2.377550 5.819468 -0.550754
v 2.392643 5.814524 -0.540000
vt 0.000000 0.000000
vt 0.250000 0.500000
vt 0.000000 0.500000
vn 0.160744 -0.791641 -0.589462
vn 0.160744 -0.791641 -0.589462
vn 0.160744 -0.791641 -0.589462
v 1.461170 5.173561 0.066866
v 1.447721 5.255274 0.129600
v 2.375358 5.833476 -0.540000
vt 0.250000 0.000000
vt 0.500000 0.000000
vt 0.500000 0.500000
vn -0.684230 0.369905 -0.628490
vn -0.684230 0.369905 -0.628490
vn -0.684230 0.369905 -0.628490
v 1.461170 5.173561 0.066866
v 2.375358 5.833476 -0.540000
v 2.377550 5.819468 -0.550754
vt 0.250000 0.000000
vt 0.500000 0.500000
vt 0.250000 0.500000
vn -0.684871 0.373269 -0.625797
vn -0.684871 0.373269 -0.625797
vn -0.684871 0.373269 -0.625797
v 1.447721 5.255274 0.129600
v 1.535982 5.226439 0.192334
v 2.390450 5.828532 -0.529246
vt 0.500000 0.000000
vt 0.750000 0.000000
vt 0.750000 0.500000
vn -0.119676 0.827416 0.548690
vn -0.119676 0.827416 0.548690
vn -0.119676 0.827416 0.548690
v 1.447721 5.255274 0.129600
v 2.390450 5.828532 -0.529246
v 2.375358 5.833476 -0.540000
vt 0.500000 0.000000
vt 0.750000 0.500000
vt 0.500000 0.500000
vn -0.119839 0.827499 0.548528
vn -0.119839 0.827499 0.548528
vn -0.119839 0.827499 0.548528
v 1.535982 5.226439 0.192334
v 1.549462 5.144726 0.129600
v 2.392643 5.814524 -0.540000
vt 0.750000 0.000000
vt 1.000000 0.000000
vt 1.000000 0.500000
vn 0.734295 -0.333014 0.591535
vn 0.734295 -0.333014 0.591535
vn 0.734295 -0.333014 0.591535
v 1.535982 5.226439 0.192334
v 2.392643 5.814524 -0.540000
v 2.390450 5.828532 -0.529246
vt 0.750000 0.000000
vt 1.000000 0.500000
vt 0.750000 0.500000
vn 0.734684 -0.337008 0.588783
vn 0.734684 -0.337008 0.588783
vn 0.734684 -0.337008 0.588783
v 1.461170 5.173561 0.066866
v 1.549462 5.144726 0.129600
v 1.498571 5.200000 0.129600
vt 0.535171 0.030956
vt 0.572778 0.060000
vt 0.550000 0.060000
vn -0.595878 -0.548622 0.586467
vn -0.595878 -0.548622 0.586467
vn -0.595878 -0.548622 0.586467
v 1.447721 5.255274 0.129600
v 1.461170 5.173561 0.066866
v 1.498571 5.200000 0.129600
vt 0.527222 0.060000
vt 0.535171 0.030956
vt 0.550000 0.060000
vn -0.596084 -0.548376 0.586487
vn -0.596084 -0.548376 0.586487
vn -0.596084 -0.548376 0.586487
v 1.535982 5.226439 0.192334
v 1.447721 5.255274 0.129600
v 1.498571 5.200000 0.129600
vt 0.564829 0.089044
vt 0.527222 0.060000
vt 0.550000 0.060000
vn -0.596054 -0.548348 0.586545
vn -0.596054 -0.548348 0.586545
vn -0.596054 -0.548348 0.586545
v 1.549462 5.144726 0.129600
v 1.535982 5.226439 0.192334
v 1.498571 5.200000 0.129600
vt 0.572778 0.060000
vt 0.564829 0.089044
vt 0.550000 0.060000
vn -0.595847 -0.548593 0.586525
vn -0.595847 -0.548593 0.586525
vn -0.595847 -0.548593 0.586525
v 2.384000 5.824000 -0.540000
v 2.392643 5.814524 -0.540000
v 2.377550 5.819468 -0.550754
vt 0.900000 -0.250000
vt 0.903905 -0.250000
vt 0.897458 -0.254979
vn 0.597555 0.545061 -0.588079
vn 0.597555 0.545061 -0.588079
vn 0.597555 0.545061 -0.588079
v 2.384000 5.824000 -0.540000
v 2.377550 5.819468 -0.550754
v 2.375358 5.833476 -0.540000
vt 0.900000 -0.250000
vt 0.897458 -0.254979
vt 0.896095 -0.250000
vn 0.597591 0.545018 -0.588082
vn 0.597591 0.545018 -0.588082
vn 0.597591 0.545018 -0.588082
v 2.384000 5.824000 -0.540000
v 2.375358 5.833476 -0.540000
v 2.390450 5.828532 -0.529246
vt 0.900000 -0.250000
vt 0.896095 -0.250000
vt 0.902542 -0.245021
vn 0.597586 0.545013 -0.588092
vn 0.597586 0.545013 -0.588092
vn 0.597586 0.545013 -0.588092
v 2.384000 5.824000 -0.540000
v 2.390450 5.828532 -0.529246
v 2.392643 5.814524 -0.540000
vt 0.900000 -0.250000
vt 0.902542 -0.245021
vt 0.903905 -0.250000
vn 0.597550 0.545056 -0.588089
vn 0.597550 0.545056 -0.588089
vn 0.597550 0.545056 -0.588089
v -0.003352 3.747306 0.000000
v -0.087568 3.796528 -0.052285
v -0.082105 4.897005 1.233037
vt 0.000000 0.000000
vt 0.250000 0.000000
vt 0.250000 0.500000
vn 0.646763 0.577991 -0.497618
vn 0.646763 0.577991 -0.497618
vn 0.646763 0.577991 -0.497618
v -0.003352 3.747306 0.000000
v -0.082105 4.897005 1.233037
v -0.067793 4.888567 1.242000
vt 0.000000 0.000000
vt 0.250000 0.500000
vt 0.000000 0.500000
vn 0.650016 0.576063 -0.495612
vn 0.650016 0.576063 -0.495612
vn 0.650016 0.576063 -0.495612
v -0.087568 3.796528 -0.052285
v -0.171505 3.740694 -0.000000
v -0.096636 4.887433 1.242000
vt 0.250000 0.000000
vt 0.500000 0.000000
vt 0.500000 0.500000
vn -0.673154 0.563112 -0.479342
vn -0.673154 0.563112 -0.479342
vn -0.673154 0.563112 -0.479342
v -0.087568 3.796528 -0.052285
v -0.096636 4.887433 1.242000
v -0.082105 4.897005 1.233037
vt 0.250000 0.000000
vt 0.500000 0.500000
vt 0.250000 0.500000
vn -0.669531 0.565634 -0.481443
vn -0.669531 0.565634 -0.481443
vn -0.669531 0.565634 -0.481443
v -0.171505 3.740694 -0.000000
v -0.087253 3.691472 0.052285
v -0.082323 4.878995 1.250963
vt 0.500000 0.000000
vt 0.750000 0.000000
vt 0.750000 0.500000
vn -0.648471 -0.539453 0.537100
vn -0.648471 -0.539453 0.537100
vn -0.648471 -0.539453 0.537100
v -0.171505 3.740694 -0.000000
v -0.082323 4.878995 1.250963
v -0.096636 4.887433 1.242000
vt 0.500000 0.000000
vt 0.750000 0.500000
vt 0.500000 0.500000
vn -0.651871 -0.537172 0.535266
vn -0.651871 -0.537172 0.535266
vn -0.651871 -0.537172 0.535266
v -0.087253 3.691472 0.052285
v -0.003352 3.747306 0.000000
v -0.067793 4.888567 1.242000
vt 0.750000 0.000000
vt 1.000000 0.000000
vt 1.000000 0.500000
vn 0.673607 -0.526477 0.518724
vn 0.673607 -0.526477 0.518724
vn 0.673607 -0.526477 0.518724
v -0.087253 3.691472 0.052285
v -0.067793 4.888567 1.242000
v -0.082323 4.878995 1.250963
vt 0.750000 0.000000
vt 1.000000 0.500000
vt 0.750000 0.500000
vn 0.669853 -0.528847 0.521170
vn 0.669853 -0.528847 0.521170
vn 0.669853 -0.528847 0.521170
v -0.087568 3.796528 -0.052285
v -0.003352 3.747306 0.000000
v -0.087429 3.744000 0.000000
vt -0.076148 -0.024206
vt -0.040036 0.000000
vt -0.075000 0.000000
vn 0.027725 -0.705154 -0.708512
vn 0.027725 -0.705154 -0.708512
vn 0.027725 -0.705154 -0.708512
v -0.171505 3.740694 -0.000000
v -0.087568 3.796528 -0.052285
v -0.087429 3.744000 0.000000
vt -0.109964 -0.000000
vt -0.076148 -0.024206
vt -0.075000 0.000000
vn 0.027725 -0.705154 -0.708512
vn 0.027725 -0.705154 -0.708512
vn 0.027725 -0.705154 -0.708512
v -0.087253 3.691472 0.052285
v -0.171505 3.740694 -0.000000
v -0.087429 3.744000 0.000000
vt -0.073852 0.024206
vt -0.109964 -0.000000
vt -0.075000 0.000000
vn 0.027724 -0.705144 -0.708522
vn 0.027724 -0.705144 -0.708522
vn 0.027724 -0.705144 -0.708522
v -0.003352 3.747306 0.000000
v -0.087253 3.691472 0.052285
v -0.087429 3.744000 0.000000
vt -0.040036 0.000000
vt -0.073852 0.024206
vt -0.075000 0.000000
vn 0.027724 -0.705144 -0.708522
vn 0.027724 -0.705144 -0.708522
vn 0.027724 -0.705144 -0.708522
v -0.082214 4.888000 1.242000
v -0.067793 4.888567 1.242000
v -0.082105 4.897005 1.233037
vt -0.100000 0.575000
vt -0.094006 0.575000
vt -0.100197 0.570850
vn -0.027716 0.705360 0.708307
vn -0.027716 0.705360 0.708307
vn -0.027716 0.705360 0.708307
v -0.082214 4.888000 1.242000
v -0.082105 4.897005 1.233037
v -0.096636 4.887433 1.242000
vt -0.100000 0.575000
vt -0.100197 0.570850
vt -0.105994 0.575000
vn -0.027716 0.705360 0.708307
vn -0.027716 0.705360 0.708307
vn -0.027716 0.705360 0.708307
v -0.082214 4.888000 1.242000
v -0.096636 4.887433 1.242000
v -0.082323 4.878995 1.250963
vt -0.100000 0.575000
vt -0.105994 0.575000
vt -0.099803 0.579150
vn -0.027716 0.705359 0.708309
vn -0.027716 0.705359 0.708309
vn -0.027716 0.705359 0.708309
v -0.082214 4.888000 1.242000
v -0.082323 4.878995 1.250963
v -0.067793 4.888567 1.242000
vt -0.100000 0.575000
vt -0.099803 0.579150
vt -0.094006 0.575000
vn -0.027716 0.705359 0.708309
vn -0.027716 0.705359 0.708309
vn -0.027716 0.705359 0.708309
v -1.173897 7.404800 0.861840
v 0.938103 7.404800 0.861840
v 0.938103 7.404800 -0.753840
vt 0.000000 0.000000
vt 1.000000 0.000000
vt 1.000000 1.000000
vn -0.000000 1.000000 0.000000
vn -0.000000 1.000000 0.000000
vn -0.000000 1.000000 0.000000
v -1.173897 7.404800 0.861840
v 0.938103 7.404800 -0.753840
v -1.173897 7.404800 -0.753840
vt 0.000000 0.000000
vt 1.000000 1.000000
vt 0.000000 1.000000
vn 0.000000 1.000000 0.000000
vn 0.000000 1.000000 0.000000
vn 0.000000 1.000000 0.000000
v -0.736386 7.109440 -0.916423
v -0.798056 7.109440 0.983566
v 0.833014 7.887360 1.024423
vt 0.000000 0.000000
vt 1.000000 0.000000
vt 1.000000 1.000000
vn -0.430157 0.902646 -0.013962
vn -0.430157 0.902646 -0.013962
vn -0.430157 0.902646 -0.013962
v -0.736386 7.109440 -0.916423
v 0.833014 7.887360 1.024423
v 0.894684 7.887360 -0.875566
vt 0.000000 0.000000
vt 1.000000 1.000000
vt 0.000000 1.000000
vn -0.430157 0.902646 -0.013962
vn -0.430157 0.902646 -0.013962
vn -0.430157 0.902646 -0.013962
v 1.044086 8.038197 -0.559332
v -1.064313 8.038197 -0.670290
v -1.239639 7.145803 0.650941
vt 0.000000 0.000000
vt 1.000000 0.000000
vt 1.000000 1.000000
vn -0.029303 0.830128 0.556802
vn -0.029303 0.830128 0.556802
vn -0.029303 0.830128 0.556802
v 1.044086 8.038197 -0.559332
v -1.239639 7.145803 0.650941
v 0.868760 7.145803 0.761898
vt 0.000000 0.000000
vt 1.000000 1.000000
vt 0.000000 1.000000
vn -0.029303 0.830128 0.556802
vn -0.029303 0.830128 0.556802
vn -0.029303 0.830128 0.556802
v -1.961765 6.416800 -0.691183
v -0.640395 6.416800 0.330996
v 0.324997 6.416800 -0.679852
vt 0.000000 0.000000
vt 1.000000 0.000000
vt 1.000000 1.000000
vn 0.000000 1.000000 0.000000
vn 0.000000 1.000000 0.000000
vn 0.000000 1.000000 0.000000
v -1.961765 6.416800 -0.691183
v 0.324997 6.416800 -0.679852
v -0.996373 6.416800 -1.702031
vt 0.000000 0.000000
vt 1.000000 1.000000
vt 0.000000 1.000000
vn -0.000000 1.000000 0.000000
vn -0.000000 1.000000 0.000000
vn -0.000000 1.000000 0.000000
v -0.606005 6.189508 -1.562284
v -1.779860 6.189508 -0.403405
v -0.776812 6.831292 0.374284
vt 0.000000 0.000000
vt 1.000000 0.000000
vt 1.000000 1.000000
vn -0.319244 0.890795 -0.323369
vn -0.319244 0.890795 -0.323369
vn -0.319244 0.890795 -0.323369
v -0.606005 6.189508 -1.562284
v -0.776812 6.831292 0.374284
v 0.397043 6.831292 -0.784595
vt 0.000000 0.000000
vt 1.000000 1.000000
vt 0.000000 1.000000
vn -0.319244 0.890795 -0.323369
vn -0.319244 0.890795 -0.323369
vn -0.319244 0.890795 -0.323369
v 0.284844 6.972112 -0.539188
v -0.967974 6.972112 -1.629045
v -1.875352 6.235888 -0.843965
vt 0.000000 0.000000
vt 1.000000 0.000000
vt 1.000000 1.000000
vn -0.345763 0.849983 0.397463
vn -0.345763 0.849983 0.397463
vn -0.345763 0.849983 0.397463
v 0.284844 6.972112 -0.539188
v -1.875352 6.235888 -0.843965
v -0.622534 6.235888 0.245892
vt 0.000000 0.000000
vt 1.000000 1.000000
vt 0.000000 1.000000
vn -0.345763 0.849983 0.397463
vn -0.345763 0.849983 0.397463
vn -0.345763 0.849983 0.397463
v 0.313399 6.156800 -0.868916
v 0.680249 6.156800 1.303943
v 2.732394 6.156800 1.023302
vt 0.000000 0.000000
vt 1.000000 0.000000
vt 1.000000 1.000000
vn 0.000000 1.000000 0.000000
vn 0.000000 1.000000 0.000000
vn 0.000000 1.000000 0.000000
v 0.313399 6.156800 -0.868916
v 2.732394 6.156800 1.023302
v 2.365543 6.156800 -1.149556
vt 0.000000 0.000000
vt 1.000000 1.000000
vt 0.000000 1.000000
vn -0.000000 1.000000 0.000000
vn -0.000000 1.000000 0.000000
vn -0.000000 1.000000 0.000000
v 2.621175 5.800665 -0.720241
v 0.197205 5.800665 -0.453662
v 0.489498 6.700135 1.152241
vt 0.000000 0.000000
vt 1.000000 0.000000
vt 1.000000 1.000000
vn -0.052860 0.875319 -0.480647
vn -0.052860 0.875319 -0.480647
vn -0.052860 0.875319 -0.480647
v 2.621175 5.800665 -0.720241
v 0.489498 6.700135 1.152241
v 2.913468 6.700135 0.885662
vt 0.000000 0.000000
vt 1.000000 1.000000
vt 0.000000 1.000000
vn -0.052860 0.875319 -0.480647
vn -0.052860 0.875319 -0.480647
vn -0.052860 0.875319 -0.480647
v 2.551558 6.859915 1.099822
v 2.326265 6.859915 -1.088605
v 0.546744 5.828085 -0.947425
vt 0.000000 0.000000
vt 1.000000 0.000000
vt 1.000000 1.000000
vn -0.497906 0.865715 0.051258
vn -0.497906 0.865715 0.051258
vn -0.497906 0.865715 0.051258
v 2.551558 6.859915 1.099822
v 0.546744 5.828085 -0.947425
v 0.772038 5.828085 1.241002
vt 0.000000 0.000000
vt 1.000000 1.000000
vt 0.000000 1.000000
vn -0.497906 0.865715 0.051258
vn -0.497906 0.865715 0.051258
vn -0.497906 0.865715 0.051258
v -1.752412 5.896800 -1.530650
v -2.788819 5.896800 -0.040229
v -1.381199 5.896800 0.752622
vt 0.000000 0.000000
vt 1.000000 0.000000
vt 1.000000 1.000000
vn 0.000000 1.000000 -0.000000
vn 0.000000 1.000000 -0.000000
vn 0.000000 1.000000 -0.000000
v -1.752412 5.896800 -1.530650
v -1.381199 5.896800 0.752622
v -0.344792 5.896800 -0.737799
vt 0.000000 0.000000
vt 1.000000 1.000000
vt 0.000000 1.000000
vn 0.000000 1.000000 0.000000
vn 0.000000 1.000000 0.000000
vn 0.000000 1.000000 0.000000
v -0.458206 5.630612 -0.320363
v -2.083261 5.630612 -1.296251
v -2.824519 6.350188 -0.219637
vt 0.000000 0.000000
vt 1.000000 0.000000
vt 1.000000 1.000000
vn 0.248648 0.875635 -0.414051
vn 0.248648 0.875635 -0.414051
vn 0.248648 0.875635 -0.414051
v -0.458206 5.630612 -0.320363
v -2.824519 6.350188 -0.219637
v -1.199464 6.350188 0.756251
vt 0.000000 0.000000
vt 1.000000 1.000000
vt 0.000000 1.000000
vn 0.248648 0.875635 -0.414051
vn 0.248648 0.875635 -0.414051
vn 0.248648 0.875635 -0.414051
v -1.521297 6.496732 0.686720
v -0.389988 6.496732 -0.746710
v -1.565284 5.671268 -1.455646
vt 0.000000 0.000000
vt 1.000000 0.000000
vt 1.000000 1.000000
vn -0.406905 0.855159 -0.321142
vn -0.406905 0.855159 -0.321142
vn -0.406905 0.855159 -0.321142
v -1.521297 6.496732 0.686720
v -1.565284 5.671268 -1.455646
v -2.696593 5.671268 -0.022216
vt 0.000000 0.000000
vt 1.000000 1.000000
vt 0.000000 1.000000
vn -0.406905 0.855159 -0.321142
vn -0.406905 0.855159 -0.321142
vn -0.406905 0.855159 -0.321142
v 3.446663 5.688800 -1.832957
v 1.051863 5.688800 -1.162475
v 1.685096 5.688800 0.669547
vt 0.000000 0.000000
vt 1.000000 0.000000
vt 1.000000 1.000000
vn 0.000000 1.000000 0.000000
vn 0.000000 1.000000 0.000000
vn 0.000000 1.000000 0.000000
v 3.446663 5.688800 -1.832957
v 1.685096 5.688800 0.669547
v 4.079896 5.688800 -0.000934
vt 0.000000 0.000000
vt 1.000000 1.000000
vt 0.000000 1.000000
vn 0.000000 1.000000 -0.000000
vn 0.000000 1.000000 -0.000000
vn 0.000000 1.000000 -0.000000
v 3.616574 5.320510 0.323480
v 2.941839 5.320510 -1.850499
v 1.234266 6.244290 -1.403480
vt 0.000000 0.000000
vt 1.000000 0.000000
vt 1.000000 1.000000
vn 0.443202 0.885805 -0.137556
vn 0.443202 0.885805 -0.137556
vn 0.443202 0.885805 -0.137556
v 3.616574 5.320510 0.323480
v 1.234266 6.244290 -1.403480
v 1.909001 6.244290 0.770499
vt 0.000000 0.000000
vt 1.000000 1.000000
vt 0.000000 1.000000
vn 0.443202 0.885805 -0.137556
vn 0.443202 0.885805 -0.137556
vn 0.443202 0.885805 -0.137556
v 1.618749 6.405858 0.460653
v 4.052953 6.405858 -0.082871
v 3.550215 5.346142 -1.608268
vt 0.000000 0.000000
vt 1.000000 0.000000
vt 1.000000 1.000000
vn -0.120422 0.833446 -0.539319
vn -0.120422 0.833446 -0.539319
vn -0.120422 0.833446 -0.539319
v 1.618749 6.405858 0.460653
v 3.550215 5.346142 -1.608268
v 1.116011 5.346142 -1.064745
vt 0.000000 0.000000
vt 1.000000 1.000000
vt 0.000000 1.000000
vn -0.120422 0.833446 -0.539319
vn -0.120422 0.833446 -0.539319
vn -0.120422 0.833446 -0.539319
v 1.012467 5.428800 -0.001795
v -0.732001 5.428800 -0.681204
v -1.373665 5.428800 0.653314
vt 0.000000 0.000000
vt 1.000000 0.000000
vt 1.000000 1.000000
vn 0.000000 1.000000 0.000000
vn 0.000000 1.000000 0.000000
vn 0.000000 1.000000 0.000000
v 1.012467 5.428800 -0.001795
v -1.373665 5.428800 0.653314
v 0.370803 5.428800 1.332723
vt 0.000000 0.000000
vt 1.000000 1.000000
vt 0.000000 1.000000
vn 0.000000 1.000000 0.000000
vn 0.000000 1.000000 0.000000
vn 0.000000 1.000000 0.000000
v -0.110798 5.172336 1.311587
v 0.694717 5.172336 -0.237926
v -0.521582 5.872464 -0.771587
vt 0.000000 0.000000
vt 1.000000 0.000000
vt 1.000000 1.000000
vn 0.414440 0.884207 0.215447
vn 0.414440 0.884207 0.215447
vn 0.414440 0.884207 0.215447
v -0.110798 5.172336 1.311587
v -0.521582 5.872464 -0.771587
v -1.327097 5.872464 0.777926
vt 0.000000 0.000000
vt 1.000000 1.000000
vt 0.000000 1.000000
vn 0.414440 0.884207 0.215447
vn 0.414440 0.884207 0.215447
vn 0.414440 0.884207 0.215447
v -1.286480 6.017577 0.480084
v 0.410946 6.017577 1.249983
v 0.946999 5.214423 0.186289
vt 0.000000 0.000000
vt 1.000000 0.000000
vt 1.000000 1.000000
vn 0.231062 0.828909 -0.509432
vn 0.231062 0.828909 -0.509432
vn 0.231062 0.828909 -0.509432
v -1.286480 6.017577 0.480084
v 0.946999 5.214423 0.186289
v -0.750427 5.214423 -0.583611
vt 0.000000 0.000000
vt 1.000000 1.000000
vt 0.000000 1.000000
vn 0.231062 0.828909 -0.509432
vn 0.231062 0.828909 -0.509432
vn 0.231062 0.828909 -0.509432
v 0.024881 4.752800 1.014662
v -1.013706 4.752800 -0.908627
v -2.830145 4.752800 -0.114108
vt 0.000000 0.000000
vt 1.000000 0.000000
vt 1.000000 1.000000
vn 0.000000 1.000000 0.000000
vn 0.000000 1.000000 0.000000
vn 0.000000 1.000000 0.000000
v 0.024881 4.752800 1.014662
v -2.830145 4.752800 -0.114108
v -1.791559 4.752800 1.809180
vt 0.000000 0.000000
vt 1.000000 1.000000
vt 0.000000 1.000000
vn 0.000000 1.000000 0.000000
vn 0.000000 1.000000 0.000000
vn 0.000000 1.000000 0.000000
v -2.215702 4.408820 1.480716
v -0.049300 4.408820 0.602546
v -0.711546 5.283980 -0.832716
vt 0.000000 0.000000
vt 1.000000 0.000000
vt 1.000000 1.000000
vn 0.182120 0.874631 0.449280
vn 0.182120 0.874631 0.449280
vn 0.182120 0.874631 0.449280
v -2.215702 4.408820 1.480716
v -0.711546 5.283980 -0.832716
v -2.877949 5.283980 0.045454
vt 0.000000 0.000000
vt 1.000000 1.000000
vt 0.000000 1.000000
vn 0.182120 0.874631 0.449280
vn 0.182120 0.874631 0.449280
vn 0.182120 0.874631 0.449280
v -2.584383 5.441971 -0.247868
v -1.672312 5.441971 1.726705
v -0.210201 4.438029 1.155155
vt 0.000000 0.000000
vt 1.000000 0.000000
vt 1.000000 1.000000
vn 0.489733 0.842016 -0.226211
vn 0.489733 0.842016 -0.226211
vn 0.489733 0.842016 -0.226211
v -2.584383 5.441971 -0.247868
v -0.210201 4.438029 1.155155
v -1.122271 4.438029 -0.819418
vt 0.000000 0.000000
vt 1.000000 1.000000
vt 0.000000 1.000000
vn 0.489733 0.842016 -0.226211
vn 0.489733 0.842016 -0.226211
vn 0.489733 0.842016 -0.226211
v 2.645590 4.804800 1.876013
v 3.116407 4.804800 0.267696
v 1.597441 4.804800 -0.092479
vt 0.000000 0.000000
vt 1.000000 0.000000
vt 1.000000 1.000000
vn 0.000000 1.000000 0.000000
vn 0.000000 1.000000 0.000000
vn 0.000000 1.000000 0.000000
v 2.645590 4.804800 1.876013
v 1.597441 4.804800 -0.092479
v 1.126624 4.804800 1.515838
vt 0.000000 0.000000
vt 1.000000 1.000000
vt 0.000000 1.000000
vn 0.000000 1.000000 0.000000
vn 0.000000 1.000000 0.000000
vn 0.000000 1.000000 0.000000
v 1.067328 4.558060 1.107894
v 2.839837 4.558060 1.578410
v 3.268717 5.238740 0.404106
vt 0.000000 0.000000
vt 1.000000 0.000000
vt 1.000000 1.000000
vn -0.123076 0.877430 0.463648
vn -0.123076 0.877430 0.463648
vn -0.123076 0.877430 0.463648
v 1.067328 4.558060 1.107894
v 3.268717 5.238740 0.404106
v 1.496208 5.238740 -0.066410
vt 0.000000 0.000000
vt 1.000000 1.000000
vt 0.000000 1.000000
vn -0.123076 0.877430 0.463648
vn -0.123076 0.877430 0.463648
vn -0.123076 0.877430 0.463648
v 1.827300 5.382422 -0.080924
v 1.252970 5.382422 1.499915
v 2.424492 4.601578 1.859819
vt 0.000000 0.000000
vt 1.000000 0.000000
vt 1.000000 1.000000
vn 0.505496 0.843058 0.183650
vn 0.505496 0.843058 0.183650
vn 0.505496 0.843058 0.183650
v 1.827300 5.382422 -0.080924
v 2.424492 4.601578 1.859819
v 2.998821 4.601578 0.278980
vt 0.000000 0.000000
vt 1.000000 1.000000
vt 0.000000 1.000000
vn 0.505496 0.843058 0.183650
vn 0.505496 0.843058 0.183650
vn 0.505496 0.843058 0.183650
v -0.610228 4.752800 2.563697
v 1.183426 4.752800 1.451737
v 0.133242 4.752800 0.079592
vt 0.000000 0.000000
vt 1.000000 0.000000
vt 1.000000 1.000000
vn 0.000000 1.000000 0.000000
vn 0.000000 1.000000 0.000000
vn 0.000000 1.000000 0.000000
v -0.610228 4.752800 2.563697
v 0.133242 4.752800 0.079592
v -1.660413 4.752800 1.191552
vt 0.000000 0.000000
vt 1.000000 1.000000
vt 0.000000 1.000000
vn 0.000000 1.000000 0.000000
vn 0.000000 1.000000 0.000000
vn 0.000000 1.000000 0.000000
v -1.393178 4.445285 0.810710
v -0.210567 4.445285 2.456780
v 1.187126 5.247515 1.673290
vt 0.000000 0.000000
vt 1.000000 0.000000
vt 1.000000 1.000000
vn -0.365418 0.893054 0.262533
vn -0.365418 0.893054 0.262533
vn -0.365418 0.893054 0.262533
v -1.393178 4.445285 0.810710
v 1.187126 5.247515 1.673290
v 0.004515 5.247515 0.027220
vt 0.000000 0.000000
vt 1.000000 1.000000
vt 0.000000 1.000000
vn -0.365418 0.893054 0.262533
vn -0.365418 0.893054 0.262533
vn -0.365418 0.893054 0.262533
v 0.338377 5.400140 0.223206
v -1.524340 5.400140 1.239037
v -0.798495 4.479860 2.406312
vt 0.000000 0.000000
vt 1.000000 0.000000
vt 1.000000 1.000000
vn 0.266663 0.830537 0.488977
vn 0.266663 0.830537 0.488977
vn 0.266663 0.830537 0.488977
v 0.338377 5.400140 0.223206
v -0.798495 4.479860 2.406312
v 1.064223 4.479860 1.390481
vt 0.000000 0.000000
vt 1.000000 1.000000
vt 0.000000 1.000000
vn 0.266663 0.830537 0.488977
vn 0.266663 0.830537 0.488977
vn 0.266663 0.830537 0.488977
v -0.502922 3.920800 0.836822
v 0.914553 3.920800 0.973609
v 1.043741 3.920800 -0.110759
vt 0.000000 0.000000
vt 1.000000 0.000000
vt 1.000000 1.000000
vn -0.000000 1.000000 0.000000
vn -0.000000 1.000000 0.000000
vn -0.000000 1.000000 0.000000
v -0.502922 3.920800 0.836822
v 1.043741 3.920800 -0.110759
v -0.373734 3.920800 -0.247546
vt 0.000000 0.000000
vt 1.000000 1.000000
vt 0.000000 1.000000
vn 0.000000 1.000000 0.000000
vn 0.000000 1.000000 0.000000
vn 0.000000 1.000000 0.000000
v -0.006246 3.751852 -0.321630
v -0.199556 3.751852 0.949560
v 0.868008 4.276948 1.077630
vt 0.000000 0.000000
vt 1.000000 0.000000
vt 1.000000 1.000000
vn -0.434014 0.898485 -0.066001
vn -0.434014 0.898485 -0.066001
vn -0.434014 0.898485 -0.066001
v -0.006246 3.751852 -0.321630
v 0.868008 4.276948 1.077630
v 1.061318 4.276948 -0.193560
vt 0.000000 0.000000
vt 1.000000 1.000000
vt 0.000000 1.000000
vn -0.434014 0.898485 -0.066001
vn -0.434014 0.898485 -0.066001
vn -0.434014 0.898485 -0.066001
v 1.083233 4.409183 0.019826
v -0.322953 4.409183 -0.191198
v -0.518893 3.806817 0.689991
vt 0.000000 0.000000
vt 1.000000 0.000000
vt 1.000000 1.000000
vn -0.082513 0.831186 0.549837
vn -0.082513 0.831186 0.549837
vn -0.082513 0.831186 0.549837
v 1.083233 4.409183 0.019826
v -0.518893 3.806817 0.689991
v 0.887293 3.806817 0.901014
vt 0.000000 0.000000
vt 1.000000 1.000000
vt 0.000000 1.000000
vn -0.082513 0.831186 0.549837
vn -0.082513 0.831186 0.549837
vn -0.082513 0.831186 0.549837
v -0.910491 5.584800 -1.330893
v 0.625632 5.584800 0.141333
v 2.016068 5.584800 -1.033801
vt 0.000000 0.000000
vt 1.000000 0.000000
vt 1.000000 1.000000
vn 0.000000 1.000000 0.000000
vn 0.000000 1.000000 0.000000
vn 0.000000 1.000000 0.000000
v -0.910491 5.584800 -1.330893
v 2.016068 5.584800 -1.033801
v 0.479945 5.584800 -2.506027
vt 0.000000 0.000000
vt 1.000000 1.000000
vt 0.000000 1.000000
vn -0.000000 1.000000 0.000000
vn -0.000000 1.000000 0.000000
vn -0.000000 1.000000 0.000000
v 0.929089 5.265130 -2.305962
v -0.750874 5.265130 -0.967029
v 0.406247 6.091670 0.145962
vt 0.000000 0.000000
vt 1.000000 0.000000
vt 1.000000 1.000000
vn -0.287251 0.887462 -0.360415
vn -0.287251 0.887462 -0.360415
vn -0.287251 0.887462 -0.360415
v 0.929089 5.265130 -2.305962
v 0.406247 6.091670 0.145962
v 2.086210 6.091670 -1.192971
vt 0.000000 0.000000
vt 1.000000 1.000000
vt 0.000000 1.000000
vn -0.287251 0.887462 -0.360415
vn -0.287251 0.887462 -0.360415
vn -0.287251 0.887462 -0.360415
v 1.930018 6.246084 -0.863141
v 0.492004 6.246084 -2.413559
v -0.779752 5.297916 -1.512425
vt 0.000000 0.000000
vt 1.000000 0.000000
vt 1.000000 1.000000
vn -0.383455 0.852333 0.355655
vn -0.383455 0.852333 0.355655
vn -0.383455 0.852333 0.355655
v 1.930018 6.246084 -0.863141
v -0.779752 5.297916 -1.512425
v 0.658262 5.297916 0.037993
vt 0.000000 0.000000
vt 1.000000 1.000000
vt 0.000000 1.000000
vn -0.383455 0.852333 0.355655
vn -0.383455 0.852333 0.355655
vn -0.383455 0.852333 0.355655
usemtl Bark
f 1/1/1 2/2/2 3/3/3
f 4/4/4 5/5/5 6/6/6
f 7/7/7 8/8/8 9/9/9
f 10/10/10 11/11/11 12/12/12
f 13/13/13 14/14/14 15/15/15
f 16/16/16 17/17/17 18/18/18
f 19/19/19 20/20/20 21/21/21
f 22/22/22 23/23/23 24/24/24
f 25/25/25 26/26/26 27/27/27
f 28/28/28 29/29/29 30/30/30
f 31/31/31 32/32/32 33/33/33
f 34/34/34 35/35/35 36/36/36
f 37/37/37 38/38/38 39/39/39
f 40/40/40 41/41/41 42/42/42
f 43/43/43 44/44/44 45/45/45
f 46/46/46 47/47/47 48/48/48
f 49/49/49 50/50/50 51/51/51
f 52/52/52 53/53/53 54/54/54
f 55/55/55 56/56/56 57/57/57
f 58/58/58 59/59/59 60/60/60
f 61/61/61 62/62/62 63/63/63
f 64/64/64 65/65/65 66/66/66
f 67/67/67 68/68/68 69/69/69
f 70/70/70 71/71/71 72/72/72
f 73/73/73 74/74/74 75/75/75
f 76/76/76 77/77/77 78/78/78
f 79/79/79 80/80/80 81/81/81
f 82/82/82 83/83/83 84/84/84
f 85/85/85 86/86/86 87/87/87
f 88/88/88 89/89/89 90/90/90
f 91/91/91 92/92/92 93/93/93
f 94/94/94 95/95/95 96/96/96
f 97/97/97 98/98/98 99/99/99
f 100/100/100 101/101/101 102/102/102
f 103/103/103 104/104/104 105/105/105
f 106/106/106 107/107/107 108/108/108
f 109/109/109 110/110/110 111/111/111
f 112/112/112 113/113/113 114/114/114
f 115/115/115 116/116/116 117/117/117
f 118/118/118 119/119/119 120/120/120
f 121/121/121 122/122/122 123/123/123
f 124/124/124 125/125/125 126/126/126
f 127/127/127 128/128/128 129/129/129
f 130/130/130 131/131/131 132/132/132
f 133/133/133 134/134/134 135/135/135
f 136/136/136 137/137/137 138/138/138
f 139/139/139 140/140/140 141/141/141
f 142/142/142 143/143/143 144/144/144
f 145/145/145 146/146/146 147/147/147
f 148/148/148 149/149/149 150/150/150
f 151/151/151 152/152/152 153/153/153
f 154/154/154 155/155/155 156/156/156
f 157/157/157 158/158/158 159/159/159
f 160/160/160 161/161/161 162/162/162
f 163/163/163 164/164/164 165/165/165
f 166/166/166 167/167/167 168/168/168
f 169/169/169 170/170/170 171/171/171
f 172/172/172 173/173/173 174/174/174
f 175/175/175 176/176/176 177/177/177
f 178/178/178 179/179/179 180/180/180
f 181/181/181 182/182/182 183/183/183
f 184/184/184 185/185/185 186/186/186
f 187/187/187 188/188/188 189/189/189
f 190/190/190 191/191/191 192/192/192
f 193/193/193 194/194/194 195/195/195
f 196/196/196 197/197/197 198/198/198
f 199/199/199 200/200/200 201/201/201
f 202/202/202 203/203/203 204/204/204
f 205/205/205 206/206/206 207/207/207
f 208/208/208 209/209/209 210/210/210
f 211/211/211 212/212/212 213/213/213
f 214/214/214 215/215/215 216/216/216
f 217/217/217 218/218/218 219/219/219
f 220/220/220 221/221/221 222/222/222
f 223/223/223 224/224/224 225/225/225
f 226/226/226 227/227/227 228/228/228
f 229/229/229 230/230/230 231/231/231
f 232/232/232 233/233/233 234/234/234
f 235/235/235 236/236/236 237/237/237
f 238/238/238 239/239/239 240/240/240
f 241/241/241 242/242/242 243/243/243
f 244/244/244 245/245/245 246/246/246
f 247/247/247 248/248/248 249/249/249
f 250/250/250 251/251/251 252/252/252
f 253/253/253 254/254/254 255/255/255
f 256/256/256 257/257/257 258/258/258
f 259/259/259 260/260/260 261/261/261
f 262/262/262 263/263/263 264/264/264
f 265/265/265 266/266/266 267/267/267
f 268/268/268 269/269/269 270/270/270
f 271/271/271 272/272/272 273/273/273
f 274/274/274 275/275/275 276/276/276
f 277/277/277 278/278/278 279/279/279
f 280/280/280 281/281/281 282/282/282
f 283/283/283 284/284/284 285/285/285
f 286/286/286 287/287/287 288/288/288
f 289/289/289 290/290/290 291/291/291
f 292/292/292 293/293/293 294/294/294
f 295/295/295 296/296/296 297/297/297
f 298/298/298 299/299/299 300/300/300
f 301/301/301 302/302/302 303/303/303
f 304/304/304 305/305/305 306/306/306
f 307/307/307 308/308/308 309/309/309
f 310/310/310 311/311/311 312/312/312
f 313/313/313 314/314/314 315/315/315
f 316/316/316 317/317/317 318/318/318
f 319/319/319 320/320/320 321/321/321
f 322/322/322 323/323/323 324/324/324
f 325/325/325 326/326/326 327/327/327
f 328/328/328 329/329/329 330/330/330
f 331/331/331 332/332/332 333/333/333
f 334/334/334 335/335/335 336/336/336
f 337/337/337 338/338/338 339/339/339
f 340/340/340 341/341/341 342/342/342
f 343/343/343 344/344/344 345/345/345
f 346/346/346 347/347/347 348/348/348
f 349/349/349 350/350/350 351/351/351
f 352/352/352 353/353/353 354/354/354
f 355/355/355 356/356/356 357/357/357
f 358/358/358 359/359/359 360/360/360
f 361/361/361 362/362/362 363/363/363
f 364/364/364 365/365/365 366/366/366
f 367/367/367 368/368/368 369/369/369
f 370/370/370 371/371/371 372/372/372
f 373/373/373 374/374/374 375/375/375
f 376/376/376 377/377/377 378/378/378
f 379/379/379 380/380/380 381/381/381
f 382/382/382 383/383/383 384/384/384
f 385/385/385 386/386/386 387/387/387
f 388/388/388 389/389/389 390/390/390
f 391/391/391 392/392/392 393/393/393
f 394/394/394 395/395/395 396/396/396
f 397/397/397 398/398/398 399/399/399
f 400/400/400 401/401/401 402/402/402
f 403/403/403 404/404/404 405/405/405
f 406/406/406 407/407/407 408/408/408
f 409/409/409 410/410/410 411/411/411
f 412/412/412 413/413/413 414/414/414
f 415/415/415 416/416/416 417/417/417
f 418/418/418 419/419/419 420/420/420
f 421/421/421 422/422/422 423/423/423
f 424/424/424 425/425/425 426/426/426
f 427/427/427 428/428/428 429/429/429
f 430/430/430 431/431/431 432/432/432
f 433/433/433 434/434/434 435/435/435
f 436/436/436 437/437/437 438/438/438
f 439/439/439 440/440/440 441/441/441
f 442/442/442 443/443/443 444/444/444
f 445/445/445 446/446/446 447/447/447
f 448/448/448 449/449/449 450/450/450
f 451/451/451 452/452/452 453/453/453
f 454/454/454 455/455/455 456/456/456
f 457/457/457 458/458/458 459/459/459
f 460/460/460 461/461/461 462/462/462
f 463/463/463 464/464/464 465/465/465
f 466/466/466 467/467/467 468/468/468
f 469/469/469 470/470/470 471/471/471
f 472/472/472 473/473/473 474/474/474
f 475/475/475 476/476/476 477/477/477
f 478/478/478 479/479/479 480/480/480
f 481/481/481 482/482/482 483/483/483
f 484/484/484 485/485/485 486/486/486
f 487/487/487 488/488/488 489/489/489
f 490/490/490 491/491/491 492/492/492
f 493/493/493 494/494/494 495/495/495
f 496/496/496 497/497/497 498/498/498
f 499/499/499 500/500/500 501/501/501
f 502/502/502 503/503/503 504/504/504
f 505/505/505 506/506/506 507/507/507
f 508/508/508 509/509/509 510/510/510
f 511/511/511 512/512/512 513/513/513
f 514/514/514 515/515/515 516/516/516
f 517/517/517 518/518/518 519/519/519
f 520/520/520 521/521/521 522/522/522
f 523/523/523 524/524/524 525/525/525
f 526/526/526 527/527/527 528/528/528
f 529/529/529 530/530/530 531/531/531
f 532/532/532 533/533/533 534/534/534
f 535/535/535 536/536/536 537/537/537
f 538/538/538 539/539/539 540/540/540
f 541/541/541 542/542/542 543/543/543
f 544/544/544 545/545/545 546/546/546
f 547/547/547 548/548/548 549/549/549
f 550/550/550 551/551/551 552/552/552
f 553/553/553 554/554/554 555/555/555
f 556/556/556 557/557/557 558/558/558
f 559/559/559 560/560/560 561/561/561
f 562/562/562 563/563/563 564/564/564
usemtl Foliage
f 565/565/565 566/566/566 567/567/567
f 568/568/568 569/569/569 570/570/570
f 571/571/571 572/572/572 573/573/573
f 574/574/574 575/575/575 576/576/576
f 577/577/577 578/578/578 579/579/579
f 580/580/580 581/581/581 582/582/582
f 583/583/583 584/584/584 585/585/585
f 586/586/586 587/587/587 588/588/588
f 589/589/589 590/590/590 591/591/591
f 592/592/592 593/593/593 594/594/594
f 595/595/595 596/596/596 597/597/597
f 598/598/598 599/599/599 600/600/600
f 601/601/601 602/602/602 603/603/603
f 604/604/604 605/605/605 606/606/606
f 607/607/607 608/608/608 609/609/609
f 610/610/610 611/611/611 612/612/612
f 613/613/613 614/614/614 615/615/615
f 616/616/616 617/617/617 618/618/618
f 619/619/619 620/620/620 621/621/621
f 622/622/622 623/623/623 624/624/624
f 625/625/625 626/626/626 627/627/627
f 628/628/628 629/629/629 630/630/630
f 631/631/631 632/632/632 633/633/633
f 634/634/634 635/635/635 636/636/636
f 637/637/637 638/638/638 639/639/639
f 640/640/640 641/641/641 642/642/642
f 643/643/643 644/644/644 645/645/645
f 646/646/646 647/647/647 648/648/648
f 649/649/649 650/650/650 651/651/651
f 652/652/652 653/653/653 654/654/654
f 655/655/655 656/656/656 657/657/657
f 658/658/658 659/659/659 660/660/660
f 661/661/661 662/662/662 663/663/663
f 664/664/664 665/665/665 666/666/666
f 667/667/667 668/668/668 669/669/669
f 670/670/670 671/671/671 672/672/672
f 673/673/673 674/674/674 675/675/675
f 676/676/676 677/677/677 678/678/678
f 679/679/679 680/680/680 681/681/681
f 682/682/682 683/683/683 684/684/684
f 685/685/685 686/686/686 687/687/687
f 688/688/688 689/689/689 690/690/690
f 691/691/691 692/692/692 693/693/693
f 694/694/694 695/695/695 696/696/696
f 697/697/697 698/698/698 699/699/699
f 700/700/700 701/701/701 702/702/702
f 703/703/703 704/704/704 705/705/705
f 706/706/706 707/707/707 708/708/708
f 709/709/709 710/710/710 711/711/711
f 712/712/712 713/713/713 714/714/714
f 715/715/715 716/716/716 717/717/717
f 718/718/718 719/719/719 720/720/720
f 721/721/721 722/722/722 723/723/723
f 724/724/724 725/725/725 726/726/726
f 727/727/727 728/728/728 729/729/729
f 730/730/730 731/731/731 732/732/732
f 733/733/733 734/734/734 735/735/735
f 736/736/736 737/737/737 738/738/738
f 739/739/739 740/740/740 741/741/741
f 742/742/742 743/743/743 744/744/744
f 745/745/745 746/746/746 747/747/747
f 748/748/748 749/749/749 750/750/750
f 751/751/751 752/752/752 753/753/753
f 754/754/754 755/755/755 756/756/756
f 757/757/757 758/758/758 759/759/759
f 760/760/760 761/761/761 762/762/762
