# Birch: Y up, metres, base pivot; foliage consists of flat cards
mtllib Tree.mtl
o Betulla_02_Giovane
s off
v 0.182309 0.000000 0.000000
v 0.091155 0.000000 -0.157963
v 0.117589 1.278030 -0.125045
vt 0.000000 0.000000
vt 0.166667 0.000000
vt 0.166667 0.500000
vn 0.866122 -0.005041 -0.499807
vn 0.866122 -0.005041 -0.499807
vn 0.866122 -0.005041 -0.499807
v 0.182309 0.000000 0.000000
v 0.117589 1.278030 -0.125045
v 0.189751 1.280475 0.000000
vt 0.000000 0.000000
vt 0.166667 0.500000
vt 0.000000 0.500000
vn 0.866157 -0.005034 -0.499746
vn 0.866157 -0.005034 -0.499746
vn 0.866157 -0.005034 -0.499746
v 0.091155 0.000000 -0.157963
v -0.091155 0.000000 -0.157963
v -0.026562 1.270555 -0.125045
vt 0.166667 0.000000
vt 0.333333 0.000000
vt 0.333333 0.500000
vn 0.000000 0.025899 -0.999665
vn 0.000000 0.025899 -0.999665
vn 0.000000 0.025899 -0.999665
v 0.091155 0.000000 -0.157963
v -0.026562 1.270555 -0.125045
v 0.117589 1.278030 -0.125045
vt 0.166667 0.000000
vt 0.333333 0.500000
vt 0.166667 0.500000
vn -0.001337 0.025776 -0.999667
vn -0.001337 0.025776 -0.999667
vn -0.001337 0.025776 -0.999667
v -0.091155 0.000000 -0.157963
v -0.182309 0.000000 -0.000000
v -0.098551 1.265525 -0.000000
vt 0.333333 0.000000
vt 0.500000 0.000000
vt 0.500000 0.500000
vn -0.864714 0.057231 -0.498994
vn -0.864714 0.057231 -0.498994
vn -0.864714 0.057231 -0.498994
v -0.091155 0.000000 -0.157963
v -0.098551 1.265525 -0.000000
v -0.026562 1.270555 -0.125045
vt 0.333333 0.000000
vt 0.500000 0.500000
vt 0.333333 0.500000
vn -0.866226 0.056898 -0.496401
vn -0.866226 0.056898 -0.496401
vn -0.866226 0.056898 -0.496401
v -0.182309 0.000000 -0.000000
v -0.091155 0.000000 0.157963
v -0.026389 1.267970 0.125045
vt 0.500000 0.000000
vt 0.666667 0.000000
vt 0.666667 0.500000
vn -0.864719 0.057123 0.498997
vn -0.864719 0.057123 0.498997
vn -0.864719 0.057123 0.498997
v -0.182309 0.000000 -0.000000
v -0.026389 1.267970 0.125045
v -0.098551 1.265525 -0.000000
vt 0.500000 0.000000
vt 0.666667 0.500000
vt 0.500000 0.500000
vn -0.865189 0.057262 0.498166
vn -0.865189 0.057262 0.498166
vn -0.865189 0.057262 0.498166
v -0.091155 0.000000 0.157963
v 0.091155 0.000000 0.157963
v 0.117762 1.275445 0.125045
vt 0.666667 0.000000
vt 0.833333 0.000000
vt 0.833333 0.500000
vn -0.000000 0.025800 0.999667
vn -0.000000 0.025800 0.999667
vn -0.000000 0.025800 0.999667
v -0.091155 0.000000 0.157963
v 0.117762 1.275445 0.125045
v -0.026389 1.267970 0.125045
vt 0.666667 0.000000
vt 0.833333 0.500000
vt 0.666667 0.500000
vn -0.001349 0.026021 0.999660
vn -0.001349 0.026021 0.999660
vn -0.001349 0.026021 0.999660
v 0.091155 0.000000 0.157963
v 0.182309 0.000000 0.000000
v 0.189751 1.280475 0.000000
vt 0.833333 0.000000
vt 1.000000 0.000000
vt 1.000000 0.500000
vn 0.866122 -0.005034 0.499807
vn 0.866122 -0.005034 0.499807
vn 0.866122 -0.005034 0.499807
v 0.091155 0.000000 0.157963
v 0.189751 1.280475 0.000000
v 0.117762 1.275445 0.125045
vt 0.833333 0.000000
vt 1.000000 0.500000
vt 0.833333 0.500000
vn 0.866721 -0.005208 0.498765
vn 0.866721 -0.005208 0.498765
vn 0.866721 -0.005208 0.498765
v 0.189751 1.280475 0.000000
v 0.117589 1.278030 -0.125045
v -0.100085 2.288429 -0.061719
vt 0.000000 0.500000
vt 0.166667 0.500000
vt 0.166667 1.000000
vn 0.844493 0.212738 -0.491503
vn 0.844493 0.212738 -0.491503
vn 0.844493 0.212738 -0.491503
v 0.189751 1.280475 0.000000
v -0.100085 2.288429 -0.061719
v -0.047372 2.295050 0.030400
vt 0.000000 0.500000
vt 0.166667 1.000000
vt 0.000000 1.000000
vn 0.841658 0.211596 -0.496828
vn 0.841658 0.211596 -0.496828
vn 0.841658 0.211596 -0.496828
v 0.117589 1.278030 -0.125045
v -0.026562 1.270555 -0.125045
v -0.204713 2.271379 -0.061719
vt 0.166667 0.500000
vt 0.333333 0.500000
vt 0.333333 1.000000
vn -0.003245 0.062572 -0.998035
vn -0.003245 0.062572 -0.998035
vn -0.003245 0.062572 -0.998035
v 0.117589 1.278030 -0.125045
v -0.204713 2.271379 -0.061719
v -0.100085 2.288429 -0.061719
vt 0.166667 0.500000
vt 0.333333 1.000000
vt 0.166667 1.000000
vn -0.009848 0.060435 -0.998124
vn -0.009848 0.060435 -0.998124
vn -0.009848 0.060435 -0.998124
v -0.026562 1.270555 -0.125045
v -0.098551 1.265525 -0.000000
v -0.256628 2.260950 0.030400
vt 0.333333 0.500000
vt 0.500000 0.500000
vt 0.500000 1.000000
vn -0.858157 -0.121041 -0.498914
vn -0.858157 -0.121041 -0.498914
vn -0.858157 -0.121041 -0.498914
v -0.026562 1.270555 -0.125045
v -0.256628 2.260950 0.030400
v -0.204713 2.271379 -0.061719
vt 0.333333 0.500000
vt 0.500000 1.000000
vt 0.333333 1.000000
vn -0.858799 -0.121377 -0.497726
vn -0.858799 -0.121377 -0.497726
vn -0.858799 -0.121377 -0.497726
v -0.098551 1.265525 -0.000000
v -0.026389 1.267970 0.125045
v -0.203915 2.267571 0.122519
vt 0.500000 0.500000
vt 0.666667 0.500000
vt 0.666667 1.000000
vn -0.854971 -0.150585 0.496334
vn -0.854971 -0.150585 0.496334
vn -0.854971 -0.150585 0.496334
v -0.098551 1.265525 -0.000000
v -0.203915 2.267571 0.122519
v -0.256628 2.260950 0.030400
vt 0.500000 0.500000
vt 0.666667 1.000000
vt 0.500000 1.000000
vn -0.853315 -0.150752 0.499126
vn -0.853315 -0.150752 0.499126
vn -0.853315 -0.150752 0.499126
v -0.026389 1.267970 0.125045
v 0.117762 1.275445 0.125045
v -0.099287 2.284621 0.122519
vt 0.666667 0.500000
vt 0.833333 0.500000
vt 0.833333 1.000000
vn -0.000128 0.002476 0.999997
vn -0.000128 0.002476 0.999997
vn -0.000128 0.002476 0.999997
v -0.026389 1.267970 0.125045
v -0.099287 2.284621 0.122519
v -0.203915 2.267571 0.122519
vt 0.666667 0.500000
vt 0.833333 1.000000
vt 0.666667 1.000000
vn -0.000400 0.002456 0.999997
vn -0.000400 0.002456 0.999997
vn -0.000400 0.002456 0.999997
v 0.117762 1.275445 0.125045
v 0.189751 1.280475 0.000000
v -0.047372 2.295050 0.030400
vt 0.833333 0.500000
vt 1.000000 0.500000
vt 1.000000 1.000000
vn 0.848717 0.183498 0.495991
vn 0.848717 0.183498 0.495991
vn 0.848717 0.183498 0.495991
v 0.117762 1.275445 0.125045
v -0.047372 2.295050 0.030400
v -0.099287 2.284621 0.122519
vt 0.833333 0.500000
vt 1.000000 1.000000
vt 0.833333 1.000000
vn 0.847359 0.183493 0.498311
vn 0.847359 0.183493 0.498311
vn 0.847359 0.183493 0.498311
v -0.047372 2.295050 0.030400
v -0.100085 2.288429 -0.061719
v -0.387605 3.484515 0.008146
vt 0.000000 1.000000
vt 0.166667 1.000000
vt 0.166667 1.500000
vn 0.837397 0.230253 -0.495731
vn 0.837397 0.230253 -0.495731
vn 0.837397 0.230253 -0.495731
v -0.047372 2.295050 0.030400
v -0.387605 3.484515 0.008146
v -0.357206 3.484766 0.060800
vt 0.000000 1.000000
vt 0.166667 1.500000
vt 0.000000 1.500000
vn 0.841982 0.231724 -0.487207
vn 0.841982 0.231724 -0.487207
vn 0.841982 0.231724 -0.487207
v -0.100085 2.288429 -0.061719
v -0.204713 2.271379 -0.061719
v -0.448399 3.483750 0.008146
vt 0.166667 1.000000
vt 0.333333 1.000000
vt 0.333333 1.500000
vn -0.009078 0.055710 -0.998406
vn -0.009078 0.055710 -0.998406
vn -0.009078 0.055710 -0.998406
v -0.100085 2.288429 -0.061719
v -0.448399 3.483750 0.008146
v -0.387605 3.484515 0.008146
vt 0.166667 1.000000
vt 0.333333 1.500000
vt 0.166667 1.500000
vn -0.000732 0.058136 -0.998308
vn -0.000732 0.058136 -0.998308
vn -0.000732 0.058136 -0.998308
v -0.204713 2.271379 -0.061719
v -0.256628 2.260950 0.030400
v -0.478794 3.483234 0.060800
vt 0.333333 1.000000
vt 0.500000 1.000000
vt 0.500000 1.500000
vn -0.855206 -0.143055 -0.498155
vn -0.855206 -0.143055 -0.498155
vn -0.855206 -0.143055 -0.498155
v -0.204713 2.271379 -0.061719
v -0.478794 3.483234 0.060800
v -0.448399 3.483750 0.008146
vt 0.333333 1.000000
vt 0.500000 1.500000
vt 0.333333 1.500000
vn -0.856479 -0.143580 -0.495811
vn -0.856479 -0.143580 -0.495811
vn -0.856479 -0.143580 -0.495811
v -0.256628 2.260950 0.030400
v -0.203915 2.267571 0.122519
v -0.448395 3.483485 0.113454
vt 0.500000 1.000000
vt 0.666667 1.000000
vt 0.666667 1.500000
vn -0.850483 -0.167286 0.498693
vn -0.850483 -0.167286 0.498693
vn -0.850483 -0.167286 0.498693
v -0.256628 2.260950 0.030400
v -0.448395 3.483485 0.113454
v -0.478794 3.483234 0.060800
vt 0.500000 1.000000
vt 0.666667 1.500000
vt 0.500000 1.500000
vn -0.853466 -0.167403 0.493531
vn -0.853466 -0.167403 0.493531
vn -0.853466 -0.167403 0.493531
v -0.203915 2.267571 0.122519
v -0.099287 2.284621 0.122519
v -0.387601 3.484250 0.113454
vt 0.666667 1.000000
vt 0.833333 1.000000
vt 0.833333 1.500000
vn -0.001185 0.007271 0.999973
vn -0.001185 0.007271 0.999973
vn -0.001185 0.007271 0.999973
v -0.203915 2.267571 0.122519
v -0.387601 3.484250 0.113454
v -0.448395 3.483485 0.113454
vt 0.666667 1.000000
vt 0.833333 1.500000
vt 0.666667 1.500000
vn -0.000094 0.007436 0.999972
vn -0.000094 0.007436 0.999972
vn -0.000094 0.007436 0.999972
v -0.099287 2.284621 0.122519
v -0.047372 2.295050 0.030400
v -0.357206 3.484766 0.060800
vt 0.833333 1.000000
vt 1.000000 1.000000
vt 1.000000 1.500000
vn 0.842195 0.206605 0.498017
vn 0.842195 0.206605 0.498017
vn 0.842195 0.206605 0.498017
v -0.099287 2.284621 0.122519
v -0.357206 3.484766 0.060800
v -0.387601 3.484250 0.113454
vt 0.833333 1.000000
vt 1.000000 1.500000
vt 0.833333 1.500000
vn 0.846401 0.207128 0.490615
vn 0.846401 0.207128 0.490615
vn 0.846401 0.207128 0.490615
v -0.357206 3.484766 0.060800
v -0.387605 3.484515 0.008146
v -0.180694 4.621296 0.021548
vt 0.000000 1.500000
vt 0.166667 1.500000
vt 0.166667 2.000000
vn 0.856531 -0.150080 -0.493792
vn 0.856531 -0.150080 -0.493792
vn 0.856531 -0.150080 -0.493792
v -0.357206 3.484766 0.060800
v -0.180694 4.621296 0.021548
v -0.171289 4.620089 0.038000
vt 0.000000 1.500000
vt 0.166667 2.000000
vt 0.000000 2.000000
vn 0.853580 -0.149800 -0.498959
vn 0.853580 -0.149800 -0.498959
vn 0.853580 -0.149800 -0.498959
v -0.387605 3.484515 0.008146
v -0.448399 3.483750 0.008146
v -0.199405 4.624207 0.021548
vt 0.166667 1.500000
vt 0.333333 1.500000
vt 0.333333 2.000000
vn -0.000148 0.011783 -0.999931
vn -0.000148 0.011783 -0.999931
vn -0.000148 0.011783 -0.999931
v -0.387605 3.484515 0.008146
v -0.199405 4.624207 0.021548
v -0.180694 4.621296 0.021548
vt 0.166667 1.500000
vt 0.333333 2.000000
vt 0.166667 2.000000
vn 0.001784 0.011464 -0.999933
vn 0.001784 0.011464 -0.999933
vn 0.001784 0.011464 -0.999933
v -0.448399 3.483750 0.008146
v -0.478794 3.483234 0.060800
v -0.208711 4.625911 0.038000
vt 0.333333 1.500000
vt 0.500000 1.500000
vt 0.500000 2.000000
vn -0.850869 0.191348 -0.489293
vn -0.850869 0.191348 -0.489293
vn -0.850869 0.191348 -0.489293
v -0.448399 3.483750 0.008146
v -0.208711 4.625911 0.038000
v -0.199405 4.624207 0.021548
vt 0.333333 1.500000
vt 0.500000 2.000000
vt 0.333333 2.000000
vn -0.845878 0.190533 -0.498185
vn -0.845878 0.190533 -0.498185
vn -0.845878 0.190533 -0.498185
v -0.478794 3.483234 0.060800
v -0.448395 3.483485 0.113454
v -0.199306 4.624704 0.054452
vt 0.500000 1.500000
vt 0.666667 1.500000
vt 0.666667 2.000000
vn -0.847127 0.210133 0.488077
vn -0.847127 0.210133 0.488077
vn -0.847127 0.210133 0.488077
v -0.478794 3.483234 0.060800
v -0.199306 4.624704 0.054452
v -0.208711 4.625911 0.038000
vt 0.500000 1.500000
vt 0.666667 2.000000
vt 0.500000 2.000000
vn -0.842294 0.208998 0.496851
vn -0.842294 0.208998 0.496851
vn -0.842294 0.208998 0.496851
v -0.448395 3.483485 0.113454
v -0.387601 3.484250 0.113454
v -0.180595 4.621793 0.054452
vt 0.666667 1.500000
vt 0.833333 1.500000
vt 0.833333 2.000000
vn -0.000654 0.051917 0.998651
vn -0.000654 0.051917 0.998651
vn -0.000654 0.051917 0.998651
v -0.448395 3.483485 0.113454
v -0.180595 4.621793 0.054452
v -0.199306 4.624704 0.054452
vt 0.666667 1.500000
vt 0.833333 2.000000
vt 0.666667 2.000000
vn 0.007769 0.049939 0.998722
vn 0.007769 0.049939 0.998722
vn 0.007769 0.049939 0.998722
v -0.387601 3.484250 0.113454
v -0.357206 3.484766 0.060800
v -0.171289 4.620089 0.038000
vt 0.833333 1.500000
vt 1.000000 1.500000
vt 1.000000 2.000000
vn 0.859179 -0.130762 0.494684
vn 0.859179 -0.130762 0.494684
vn 0.859179 -0.130762 0.494684
v -0.387601 3.484250 0.113454
v -0.171289 4.620089 0.038000
v -0.180595 4.621793 0.054452
vt 0.833333 1.500000
vt 1.000000 2.000000
vt 0.833333 2.000000
vn 0.857171 -0.130138 0.498319
vn 0.857171 -0.130138 0.498319
vn 0.857171 -0.130138 0.498319
v 0.091155 0.000000 -0.157963
v 0.182309 0.000000 0.000000
v 0.000000 0.000000 0.000000
vt 0.059970 -0.103923
vt 0.119940 0.000000
vt 0.000000 0.000000
vn 0.000000 -1.000000 0.000000
vn 0.000000 -1.000000 0.000000
vn 0.000000 -1.000000 0.000000
v -0.091155 0.000000 -0.157963
v 0.091155 0.000000 -0.157963
v 0.000000 0.000000 0.000000
vt -0.059970 -0.103923
vt 0.059970 -0.103923
vt 0.000000 0.000000
vn 0.000000 -1.000000 0.000000
vn 0.000000 -1.000000 0.000000
vn 0.000000 -1.000000 0.000000
v -0.182309 0.000000 -0.000000
v -0.091155 0.000000 -0.157963
v 0.000000 0.000000 0.000000
vt -0.119940 -0.000000
vt -0.059970 -0.103923
vt 0.000000 0.000000
vn 0.000000 -1.000000 0.000000
vn 0.000000 -1.000000 0.000000
vn 0.000000 -1.000000 0.000000
v -0.091155 0.000000 0.157963
v -0.182309 0.000000 -0.000000
v 0.000000 0.000000 0.000000
vt -0.059970 0.103923
vt -0.119940 -0.000000
vt 0.000000 0.000000
vn 0.000000 -1.000000 -0.000000
vn 0.000000 -1.000000 -0.000000
vn 0.000000 -1.000000 -0.000000
v 0.091155 0.000000 0.157963
v -0.091155 0.000000 0.157963
v 0.000000 0.000000 0.000000
vt 0.059970 0.103923
vt -0.059970 0.103923
vt 0.000000 0.000000
vn 0.000000 -1.000000 0.000000
vn 0.000000 -1.000000 0.000000
vn 0.000000 -1.000000 0.000000
v 0.182309 0.000000 0.000000
v 0.091155 0.000000 0.157963
v 0.000000 0.000000 0.000000
vt 0.119940 0.000000
vt 0.059970 0.103923
vt 0.000000 0.000000
vn 0.000000 -1.000000 0.000000
vn 0.000000 -1.000000 0.000000
vn 0.000000 -1.000000 0.000000
v -0.190000 4.623000 0.038000
v -0.171289 4.620089 0.038000
v -0.180694 4.621296 0.021548
vt -0.125000 0.025000
vt -0.112690 0.025000
vt -0.118878 0.014176
vn 0.153705 0.987997 -0.015371
vn 0.153705 0.987997 -0.015371
vn 0.153705 0.987997 -0.015371
v -0.190000 4.623000 0.038000
v -0.180694 4.621296 0.021548
v -0.199405 4.624207 0.021548
vt -0.125000 0.025000
vt -0.118878 0.014176
vt -0.131188 0.014176
vn 0.153705 0.987997 -0.015371
vn 0.153705 0.987997 -0.015371
vn 0.153705 0.987997 -0.015371
v -0.190000 4.623000 0.038000
v -0.199405 4.624207 0.021548
v -0.208711 4.625911 0.038000
vt -0.125000 0.025000
vt -0.131188 0.014176
vt -0.137310 0.025000
vn 0.153705 0.987997 -0.015371
vn 0.153705 0.987997 -0.015371
vn 0.153705 0.987997 -0.015371
v -0.190000 4.623000 0.038000
v -0.208711 4.625911 0.038000
v -0.199306 4.624704 0.054452
vt -0.125000 0.025000
vt -0.137310 0.025000
vt -0.131122 0.035824
vn 0.153705 0.987997 -0.015371
vn 0.153705 0.987997 -0.015371
vn 0.153705 0.987997 -0.015371
v -0.190000 4.623000 0.038000
v -0.199306 4.624704 0.054452
v -0.180595 4.621793 0.054452
vt -0.125000 0.025000
vt -0.131122 0.035824
vt -0.118812 0.035824
vn 0.153705 0.987997 -0.015371
vn 0.153705 0.987997 -0.015371
vn 0.153705 0.987997 -0.015371
v -0.190000 4.623000 0.038000
v -0.180595 4.621793 0.054452
v -0.171289 4.620089 0.038000
vt -0.125000 0.025000
vt -0.118812 0.035824
vt -0.112690 0.025000
vn 0.153705 0.987997 -0.015371
vn 0.153705 0.987997 -0.015371
vn 0.153705 0.987997 -0.015371
v 0.119159 1.432758 0.000000
v 0.017027 1.477579 -0.113913
v 0.495138 2.414551 -0.037942
vt 0.000000 0.000000
vt 0.250000 0.000000
vt 0.250000 0.500000
vn 0.657853 -0.278962 -0.699579
vn 0.657853 -0.278962 -0.699579
vn 0.657853 -0.278962 -0.699579
v 0.119159 1.432758 0.000000
v 0.495138 2.414551 -0.037942
v 0.571798 2.385023 0.045600
vt 0.000000 0.000000
vt 0.250000 0.500000
vt 0.000000 0.500000
vn 0.656584 -0.278529 -0.700941
vn 0.656584 -0.278529 -0.700941
vn 0.656584 -0.278529 -0.700941
v 0.017027 1.477579 -0.113913
v -0.088759 1.515242 -0.000000
v 0.416202 2.438977 0.045600
vt 0.250000 0.000000
vt 0.500000 0.000000
vt 0.500000 0.500000
vn -0.616073 0.371076 -0.694807
vn -0.616073 0.371076 -0.694807
vn -0.616073 0.371076 -0.694807
v 0.017027 1.477579 -0.113913
v 0.416202 2.438977 0.045600
v 0.495138 2.414551 -0.037942
vt 0.250000 0.000000
vt 0.500000 0.500000
vt 0.250000 0.500000
vn -0.618136 0.371583 -0.692700
vn -0.618136 0.371583 -0.692700
vn -0.618136 0.371583 -0.692700
v -0.088759 1.515242 -0.000000
v 0.013373 1.470421 0.113913
v 0.492862 2.409449 0.129142
vt 0.500000 0.000000
vt 0.750000 0.000000
vt 0.750000 0.500000
vn -0.641204 0.316073 0.699254
vn -0.641204 0.316073 0.699254
vn -0.641204 0.316073 0.699254
v -0.088759 1.515242 -0.000000
v 0.492862 2.409449 0.129142
v 0.416202 2.438977 0.045600
vt 0.500000 0.000000
vt 0.750000 0.500000
vt 0.500000 0.500000
vn -0.640867 0.315791 0.699689
vn -0.640867 0.315791 0.699689
vn -0.640867 0.315791 0.699689
v 0.013373 1.470421 0.113913
v 0.119159 1.432758 0.000000
v 0.571798 2.385023 0.045600
vt 0.750000 0.000000
vt 1.000000 0.000000
vt 1.000000 0.500000
vn 0.632940 -0.334294 0.698309
vn 0.632940 -0.334294 0.698309
vn 0.632940 -0.334294 0.698309
v 0.013373 1.470421 0.113913
v 0.571798 2.385023 0.045600
v 0.492862 2.409449 0.129142
vt 0.750000 0.000000
vt 1.000000 0.500000
vt 0.750000 0.500000
vn 0.633993 -0.335035 0.696997
vn 0.633993 -0.335035 0.696997
vn 0.633993 -0.335035 0.696997
v 0.571798 2.385023 0.045600
v 0.495138 2.414551 -0.037942
v 0.912350 3.486205 0.045670
vt 0.000000 0.500000
vt 0.250000 0.500000
vt 0.250000 1.000000
vn 0.681973 -0.210863 -0.700321
vn 0.681973 -0.210863 -0.700321
vn 0.681973 -0.210863 -0.700321
v 0.571798 2.385023 0.045600
v 0.912350 3.486205 0.045670
v 0.957160 3.478426 0.091200
vt 0.000000 0.500000
vt 0.250000 1.000000
vt 0.000000 1.000000
vn 0.678694 -0.209848 -0.703803
vn 0.678694 -0.209848 -0.703803
vn 0.678694 -0.209848 -0.703803
v 0.495138 2.414551 -0.037942
v 0.416202 2.438977 0.045600
v 0.866840 3.489574 0.091200
vt 0.250000 0.500000
vt 0.500000 0.500000
vt 0.500000 1.000000
vn -0.645269 0.307140 -0.699495
vn -0.645269 0.307140 -0.699495
vn -0.645269 0.307140 -0.699495
v 0.495138 2.414551 -0.037942
v 0.866840 3.489574 0.091200
v 0.912350 3.486205 0.045670
vt 0.250000 0.500000
vt 0.500000 1.000000
vt 0.250000 1.000000
vn -0.660709 0.310544 -0.683393
vn -0.660709 0.310544 -0.683393
vn -0.660709 0.310544 -0.683393
v 0.416202 2.438977 0.045600
v 0.492862 2.409449 0.129142
v 0.911650 3.481795 0.136730
vt 0.500000 0.500000
vt 0.750000 0.500000
vt 0.750000 1.000000
vn -0.665838 0.255071 0.701141
vn -0.665838 0.255071 0.701141
vn -0.665838 0.255071 0.701141
v 0.416202 2.438977 0.045600
v 0.911650 3.481795 0.136730
v 0.866840 3.489574 0.091200
vt 0.500000 0.500000
vt 0.750000 1.000000
vt 0.500000 1.000000
vn -0.666847 0.255653 0.699969
vn -0.666847 0.255653 0.699969
vn -0.666847 0.255653 0.699969
v 0.492862 2.409449 0.129142
v 0.571798 2.385023 0.045600
v 0.957160 3.478426 0.091200
vt 0.750000 0.500000
vt 1.000000 0.500000
vt 1.000000 1.000000
vn 0.661865 -0.262552 0.702140
vn 0.661865 -0.262552 0.702140
vn 0.661865 -0.262552 0.702140
v 0.492862 2.409449 0.129142
v 0.957160 3.478426 0.091200
v 0.911650 3.481795 0.136730
vt 0.750000 0.500000
vt 1.000000 1.000000
vt 0.750000 1.000000
vn 0.671598 -0.267172 0.691068
vn 0.671598 -0.267172 0.691068
vn 0.671598 -0.267172 0.691068
v 0.957160 3.478426 0.091200
v 0.912350 3.486205 0.045670
v 0.759715 4.088131 0.136857
vt 0.000000 1.000000
vt 0.250000 1.000000
vt 0.250000 1.500000
vn 0.707961 0.277885 -0.649285
vn 0.707961 0.277885 -0.649285
vn 0.707961 0.277885 -0.649285
v 0.957160 3.478426 0.091200
v 0.759715 4.088131 0.136857
v 0.774838 4.089907 0.152000
vt 0.000000 1.000000
vt 0.250000 1.500000
vt 0.000000 1.500000
vn 0.665850 0.267774 -0.696377
vn 0.665850 0.267774 -0.696377
vn 0.665850 0.267774 -0.696377
v 0.912350 3.486205 0.045670
v 0.866840 3.489574 0.091200
v 0.745162 4.084093 0.152000
vt 0.250000 1.000000
vt 0.500000 1.000000
vt 0.500000 1.500000
vn -0.708072 -0.073092 -0.702347
vn -0.708072 -0.073092 -0.702347
vn -0.708072 -0.073092 -0.702347
v 0.912350 3.486205 0.045670
v 0.745162 4.084093 0.152000
v 0.759715 4.088131 0.136857
vt 0.250000 1.000000
vt 0.500000 1.500000
vt 0.250000 1.500000
vn -0.709181 -0.073611 -0.701173
vn -0.709181 -0.073611 -0.701173
vn -0.709181 -0.073611 -0.701173
v 0.866840 3.489574 0.091200
v 0.911650 3.481795 0.136730
v 0.760285 4.085869 0.167143
vt 0.500000 1.000000
vt 0.750000 1.000000
vt 0.750000 1.500000
vn -0.714346 -0.212564 0.666728
vn -0.714346 -0.212564 0.666728
vn -0.714346 -0.212564 0.666728
v 0.866840 3.489574 0.091200
v 0.760285 4.085869 0.167143
v 0.745162 4.084093 0.152000
vt 0.500000 1.000000
vt 0.750000 1.500000
vt 0.500000 1.500000
vn -0.679180 -0.210902 0.703018
vn -0.679180 -0.210902 0.703018
vn -0.679180 -0.210902 0.703018
v 0.911650 3.481795 0.136730
v 0.957160 3.478426 0.091200
v 0.774838 4.089907 0.152000
vt 0.750000 1.000000
vt 1.000000 1.000000
vt 1.000000 1.500000
vn 0.705380 0.141253 0.694612
vn 0.705380 0.141253 0.694612
vn 0.705380 0.141253 0.694612
v 0.911650 3.481795 0.136730
v 0.774838 4.089907 0.152000
v 0.760285 4.085869 0.167143
vt 0.750000 1.000000
vt 1.000000 1.500000
vt 0.750000 1.500000
vn 0.695306 0.138721 0.705199
vn 0.695306 0.138721 0.705199
vn 0.695306 0.138721 0.705199
v 0.017027 1.477579 -0.113913
v 0.119159 1.432758 0.000000
v 0.015200 1.474000 0.000000
vt 0.011202 -0.074943
vt 0.078394 0.000000
vt 0.010000 0.000000
vn -0.368526 -0.928955 -0.035098
vn -0.368526 -0.928955 -0.035098
vn -0.368526 -0.928955 -0.035098
v -0.088759 1.515242 -0.000000
v 0.017027 1.477579 -0.113913
v 0.015200 1.474000 0.000000
vt -0.058394 -0.000000
vt 0.011202 -0.074943
vt 0.010000 0.000000
vn -0.368526 -0.928955 -0.035098
vn -0.368526 -0.928955 -0.035098
vn -0.368526 -0.928955 -0.035098
v 0.013373 1.470421 0.113913
v -0.088759 1.515242 -0.000000
v 0.015200 1.474000 0.000000
vt 0.008798 0.074943
vt -0.058394 -0.000000
vt 0.010000 0.000000
vn -0.368526 -0.928955 -0.035098
vn -0.368526 -0.928955 -0.035098
vn -0.368526 -0.928955 -0.035098
v 0.119159 1.432758 0.000000
v 0.013373 1.470421 0.113913
v 0.015200 1.474000 0.000000
vt 0.078394 0.000000
vt 0.008798 0.074943
vt 0.010000 0.000000
vn -0.368526 -0.928955 -0.035098
vn -0.368526 -0.928955 -0.035098
vn -0.368526 -0.928955 -0.035098
v 0.760000 4.087000 0.152000
v 0.774838 4.089907 0.152000
v 0.759715 4.088131 0.136857
vt 0.500000 0.100000
vt 0.509762 0.100000
vt 0.499812 0.090037
vn -0.191686 0.978457 0.076674
vn -0.191686 0.978457 0.076674
vn -0.191686 0.978457 0.076674
v 0.760000 4.087000 0.152000
v 0.759715 4.088131 0.136857
v 0.745162 4.084093 0.152000
vt 0.500000 0.100000
vt 0.499812 0.090037
vt 0.490238 0.100000
vn -0.191686 0.978457 0.076674
vn -0.191686 0.978457 0.076674
vn -0.191686 0.978457 0.076674
v 0.760000 4.087000 0.152000
v 0.745162 4.084093 0.152000
v 0.760285 4.085869 0.167143
vt 0.500000 0.100000
vt 0.490238 0.100000
vt 0.500188 0.109963
vn -0.191686 0.978457 0.076674
vn -0.191686 0.978457 0.076674
vn -0.191686 0.978457 0.076674
v 0.760000 4.087000 0.152000
v 0.760285 4.085869 0.167143
v 0.774838 4.089907 0.152000
vt 0.500000 0.100000
vt 0.500188 0.109963
vt 0.509762 0.100000
vn -0.191686 0.978457 0.076674
vn -0.191686 0.978457 0.076674
vn -0.191686 0.978457 0.076674
v -0.117091 2.246391 0.000000
v -0.159754 2.216944 -0.052198
v -1.027329 2.882019 0.219052
vt 0.000000 0.000000
vt 0.250000 0.000000
vt 0.250000 0.500000
vn 0.322831 0.686747 -0.651275
vn 0.322831 0.686747 -0.651275
vn 0.322831 0.686747 -0.651275
v -0.117091 2.246391 0.000000
v -1.027329 2.882019 0.219052
v -1.020016 2.887067 0.228000
vt 0.000000 0.000000
vt 0.250000 0.500000
vt 0.000000 0.500000
vn 0.322831 0.686747 -0.651275
vn 0.322831 0.686747 -0.651275
vn 0.322831 0.686747 -0.651275
v -0.159754 2.216944 -0.052198
v -0.186909 2.175609 -0.000000
v -1.031984 2.874933 0.228000
vt 0.250000 0.000000
vt 0.500000 0.000000
vt 0.500000 0.500000
vn -0.571656 -0.471985 -0.671148
vn -0.571656 -0.471985 -0.671148
vn -0.571656 -0.471985 -0.671148
v -0.159754 2.216944 -0.052198
v -1.031984 2.874933 0.228000
v -1.027329 2.882019 0.219052
vt 0.250000 0.000000
vt 0.500000 0.500000
vt 0.250000 0.500000
vn -0.571656 -0.471985 -0.671148
vn -0.571656 -0.471985 -0.671148
vn -0.571656 -0.471985 -0.671148
v -0.186909 2.175609 -0.000000
v -0.144246 2.205056 0.052198
v -1.024671 2.879981 0.236948
vt 0.500000 0.000000
vt 0.750000 0.000000
vt 0.750000 0.500000
vn -0.361777 -0.653837 0.664541
vn -0.361777 -0.653837 0.664541
vn -0.361777 -0.653837 0.664541
v -0.186909 2.175609 -0.000000
v -1.024671 2.879981 0.236948
v -1.031984 2.874933 0.228000
vt 0.500000 0.000000
vt 0.750000 0.500000
vt 0.500000 0.500000
vn -0.361777 -0.653837 0.664541
vn -0.361777 -0.653837 0.664541
vn -0.361777 -0.653837 0.664541
v -0.144246 2.205056 0.052198
v -0.117091 2.246391 0.000000
v -1.020016 2.887067 0.228000
vt 0.750000 0.000000
vt 1.000000 0.000000
vt 1.000000 0.500000
vn 0.531373 0.507488 0.678306
vn 0.531373 0.507488 0.678306
vn 0.531373 0.507488 0.678306
v -0.144246 2.205056 0.052198
v -1.020016 2.887067 0.228000
v -1.024671 2.879981 0.236948
vt 0.750000 0.000000
vt 1.000000 0.500000
vt 0.750000 0.500000
vn 0.531373 0.507488 0.678306
vn 0.531373 0.507488 0.678306
vn 0.531373 0.507488 0.678306
v -0.159754 2.216944 -0.052198
v -0.117091 2.246391 0.000000
v -0.152000 2.211000 0.000000
vt -0.105101 -0.034341
vt -0.077034 0.000000
vt -0.100000 0.000000
vn 0.699971 -0.690432 -0.182601
vn 0.699971 -0.690432 -0.182601
vn 0.699971 -0.690432 -0.182601
v -0.186909 2.175609 -0.000000
v -0.159754 2.216944 -0.052198
v -0.152000 2.211000 0.000000
vt -0.122966 -0.000000
vt -0.105101 -0.034341
vt -0.100000 0.000000
vn 0.699971 -0.690432 -0.182601
vn 0.699971 -0.690432 -0.182601
vn 0.699971 -0.690432 -0.182601
v -0.144246 2.205056 0.052198
v -0.186909 2.175609 -0.000000
v -0.152000 2.211000 0.000000
vt -0.094899 0.034341
vt -0.122966 -0.000000
vt -0.100000 0.000000
vn 0.699971 -0.690432 -0.182601
vn 0.699971 -0.690432 -0.182601
vn 0.699971 -0.690432 -0.182601
v -0.117091 2.246391 0.000000
v -0.144246 2.205056 0.052198
v -0.152000 2.211000 0.000000
vt -0.077034 0.000000
vt -0.094899 0.034341
vt -0.100000 0.000000
vn 0.699971 -0.690432 -0.182601
vn 0.699971 -0.690432 -0.182601
vn 0.699971 -0.690432 -0.182601
v -1.026000 2.881000 0.228000
v -1.020016 2.887067 0.228000
v -1.027329 2.882019 0.219052
vt -0.675000 0.150000
vt -0.671063 0.150000
vt -0.675874 0.144113
vn -0.699971 0.690432 0.182601
vn -0.699971 0.690432 0.182601
vn -0.699971 0.690432 0.182601
v -1.026000 2.881000 0.228000
v -1.027329 2.882019 0.219052
v -1.031984 2.874933 0.228000
vt -0.675000 0.150000
vt -0.675874 0.144113
vt -0.678937 0.150000
vn -0.699971 0.690432 0.182601
vn -0.699971 0.690432 0.182601
vn -0.699971 0.690432 0.182601
v -1.026000 2.881000 0.228000
v -1.031984 2.874933 0.228000
v -1.024671 2.879981 0.236948
vt -0.675000 0.150000
vt -0.678937 0.150000
vt -0.674126 0.155887
vn -0.699971 0.690432 0.182601
vn -0.699971 0.690432 0.182601
vn -0.699971 0.690432 0.182601
v -1.026000 2.881000 0.228000
v -1.024671 2.879981 0.236948
v -1.020016 2.887067 0.228000
vt -0.675000 0.150000
vt -0.674126 0.155887
vt -0.671063 0.150000
vn -0.699971 0.690432 0.182601
vn -0.699971 0.690432 0.182601
vn -0.699971 0.690432 0.182601
v -0.353605 3.323721 0.000000
v -0.368879 3.277398 -0.051635
v -1.176093 3.684040 -0.236852
vt 0.000000 0.000000
vt 0.250000 0.000000
vt 0.250000 0.500000
vn 0.451804 0.593484 -0.666070
vn 0.451804 0.593484 -0.666070
vn 0.451804 0.593484 -0.666070
v -0.353605 3.323721 0.000000
v -1.176093 3.684040 -0.236852
v -1.173475 3.691981 -0.228000
vt 0.000000 0.000000
vt 0.250000 0.500000
vt 0.000000 0.500000
vn 0.451804 0.593484 -0.666070
vn 0.451804 0.593484 -0.666070
vn 0.451804 0.593484 -0.666070
v -0.368879 3.277398 -0.051635
v -0.406395 3.242279 -0.000000
v -1.182525 3.678019 -0.228000
vt 0.250000 0.000000
vt 0.500000 0.000000
vt 0.500000 0.500000
vn -0.216618 -0.726854 -0.651736
vn -0.216618 -0.726854 -0.651736
vn -0.216618 -0.726854 -0.651736
v -0.368879 3.277398 -0.051635
v -1.182525 3.678019 -0.228000
v -1.176093 3.684040 -0.236852
vt 0.250000 0.000000
vt 0.500000 0.500000
vt 0.250000 0.500000
vn -0.216618 -0.726854 -0.651736
vn -0.216618 -0.726854 -0.651736
vn -0.216618 -0.726854 -0.651736
v -0.406395 3.242279 -0.000000
v -0.391121 3.288602 0.051635
v -1.179907 3.685960 -0.219148
vt 0.500000 0.000000
vt 0.750000 0.000000
vt 0.750000 0.500000
vn -0.507281 -0.561477 0.653766
vn -0.507281 -0.561477 0.653766
vn -0.507281 -0.561477 0.653766
v -0.406395 3.242279 -0.000000
v -1.179907 3.685960 -0.219148
v -1.182525 3.678019 -0.228000
vt 0.500000 0.000000
vt 0.750000 0.500000
vt 0.500000 0.500000
vn -0.507281 -0.561477 0.653766
vn -0.507281 -0.561477 0.653766
vn -0.507281 -0.561477 0.653766
v -0.391121 3.288602 0.051635
v -0.353605 3.323721 0.000000
v -1.173475 3.691981 -0.228000
vt 0.750000 0.000000
vt 1.000000 0.000000
vt 1.000000 0.500000
vn 0.163625 0.756392 0.633323
vn 0.163625 0.756392 0.633323
vn 0.163625 0.756392 0.633323
v -0.391121 3.288602 0.051635
v -1.173475 3.691981 -0.228000
v -1.179907 3.685960 -0.219148
vt 0.750000 0.000000
vt 1.000000 0.500000
vt 0.750000 0.500000
vn 0.163625 0.756392 0.633323
vn 0.163625 0.756392 0.633323
vn 0.163625 0.756392 0.633323
v -0.368879 3.277398 -0.051635
v -0.353605 3.323721 0.000000
v -0.380000 3.283000 0.000000
vt -0.242683 -0.033970
vt -0.232635 0.000000
vt -0.250000 0.000000
vn 0.816013 -0.528929 0.233146
vn 0.816013 -0.528929 0.233146
vn 0.816013 -0.528929 0.233146
v -0.406395 3.242279 -0.000000
v -0.368879 3.277398 -0.051635
v -0.380000 3.283000 0.000000
vt -0.267365 -0.000000
vt -0.242683 -0.033970
vt -0.250000 0.000000
vn 0.816013 -0.528929 0.233146
vn 0.816013 -0.528929 0.233146
vn 0.816013 -0.528929 0.233146
v -0.391121 3.288602 0.051635
v -0.406395 3.242279 -0.000000
v -0.380000 3.283000 0.000000
vt -0.257317 0.033970
vt -0.267365 -0.000000
vt -0.250000 0.000000
vn 0.816013 -0.528929 0.233146
vn 0.816013 -0.528929 0.233146
vn 0.816013 -0.528929 0.233146
v -0.353605 3.323721 0.000000
v -0.391121 3.288602 0.051635
v -0.380000 3.283000 0.000000
vt -0.232635 0.000000
vt -0.257317 0.033970
vt -0.250000 0.000000
vn 0.816013 -0.528929 0.233146
vn 0.816013 -0.528929 0.233146
vn 0.816013 -0.528929 0.233146
v -1.178000 3.685000 -0.228000
v -1.173475 3.691981 -0.228000
v -1.176093 3.684040 -0.236852
vt -0.775000 -0.150000
vt -0.772023 -0.150000
vt -0.773746 -0.155823
vn -0.816013 0.528929 -0.233146
vn -0.816013 0.528929 -0.233146
vn -0.816013 0.528929 -0.233146
v -1.178000 3.685000 -0.228000
v -1.176093 3.684040 -0.236852
v -1.182525 3.678019 -0.228000
vt -0.775000 -0.150000
vt -0.773746 -0.155823
vt -0.777977 -0.150000
vn -0.816013 0.528929 -0.233146
vn -0.816013 0.528929 -0.233146
vn -0.816013 0.528929 -0.233146
v -1.178000 3.685000 -0.228000
v -1.182525 3.678019 -0.228000
v -1.179907 3.685960 -0.219148
vt -0.775000 -0.150000
vt -0.777977 -0.150000
vt -0.776254 -0.144177
vn -0.816013 0.528929 -0.233146
vn -0.816013 0.528929 -0.233146
vn -0.816013 0.528929 -0.233146
v -1.178000 3.685000 -0.228000
v -1.179907 3.685960 -0.219148
v -1.173475 3.691981 -0.228000
vt -0.775000 -0.150000
vt -0.776254 -0.144177
vt -0.772023 -0.150000
vn -0.816013 0.528929 -0.233146
vn -0.816013 0.528929 -0.233146
vn -0.816013 0.528929 -0.233146
v -0.252675 3.697340 0.076000
v -0.296307 3.660134 0.031554
v -0.530681 4.417737 -0.501619
vt 0.000000 0.000000
vt 0.250000 0.000000
vt 0.250000 0.500000
vn 0.774480 -0.185939 -0.604655
vn 0.774480 -0.185939 -0.604655
vn 0.774480 -0.185939 -0.604655
v -0.252675 3.697340 0.076000
v -0.530681 4.417737 -0.501619
v -0.523201 4.424115 -0.494000
vt 0.000000 0.000000
vt 0.250000 0.500000
vt 0.000000 0.500000
vn 0.774480 -0.185939 -0.604655
vn 0.774480 -0.185939 -0.604655
vn 0.774480 -0.185939 -0.604655
v -0.296307 3.660134 0.031554
v -0.355325 3.672660 0.076000
v -0.540799 4.419885 -0.494000
vt 0.250000 0.000000
vt 0.500000 0.000000
vt 0.500000 0.500000
vn -0.563497 -0.584903 -0.583404
vn -0.563497 -0.584903 -0.583404
vn -0.563497 -0.584903 -0.583404
v -0.296307 3.660134 0.031554
v -0.540799 4.419885 -0.494000
v -0.530681 4.417737 -0.501619
vt 0.250000 0.000000
vt 0.500000 0.500000
vt 0.250000 0.500000
vn -0.563497 -0.584903 -0.583404
vn -0.563497 -0.584903 -0.583404
vn -0.563497 -0.584903 -0.583404
v -0.355325 3.672660 0.076000
v -0.311693 3.709866 0.120446
v -0.533319 4.426263 -0.486381
vt 0.500000 0.000000
vt 0.750000 0.000000
vt 0.750000 0.500000
vn -0.785595 0.240030 0.570286
vn -0.785595 0.240030 0.570286
vn -0.785595 0.240030 0.570286
v -0.355325 3.672660 0.076000
v -0.533319 4.426263 -0.486381
v -0.540799 4.419885 -0.494000
vt 0.500000 0.000000
vt 0.750000 0.500000
vt 0.500000 0.500000
vn -0.785595 0.240030 0.570286
vn -0.785595 0.240030 0.570286
vn -0.785595 0.240030 0.570286
v -0.311693 3.709866 0.120446
v -0.252675 3.697340 0.076000
v -0.523201 4.424115 -0.494000
vt 0.750000 0.000000
vt 1.000000 0.000000
vt 1.000000 0.500000
vn 0.546886 0.633158 0.547747
vn 0.546886 0.633158 0.547747
vn 0.546886 0.633158 0.547747
v -0.311693 3.709866 0.120446
v -0.523201 4.424115 -0.494000
v -0.533319 4.426263 -0.486381
vt 0.750000 0.000000
vt 1.000000 0.500000
vt 0.750000 0.500000
vn 0.546886 0.633158 0.547747
vn 0.546886 0.633158 0.547747
vn 0.546886 0.633158 0.547747
v -0.296307 3.660134 0.031554
v -0.252675 3.697340 0.076000
v -0.304000 3.685000 0.076000
vt -0.194939 0.020759
vt -0.166233 0.050000
vt -0.200000 0.050000
vn 0.201829 -0.839447 0.504572
vn 0.201829 -0.839447 0.504572
vn 0.201829 -0.839447 0.504572
v -0.355325 3.672660 0.076000
v -0.296307 3.660134 0.031554
v -0.304000 3.685000 0.076000
vt -0.233767 0.050000
vt -0.194939 0.020759
vt -0.200000 0.050000
vn 0.201829 -0.839447 0.504572
vn 0.201829 -0.839447 0.504572
vn 0.201829 -0.839447 0.504572
v -0.311693 3.709866 0.120446
v -0.355325 3.672660 0.076000
v -0.304000 3.685000 0.076000
vt -0.205061 0.079241
vt -0.233767 0.050000
vt -0.200000 0.050000
vn 0.201829 -0.839447 0.504572
vn 0.201829 -0.839447 0.504572
vn 0.201829 -0.839447 0.504572
v -0.252675 3.697340 0.076000
v -0.311693 3.709866 0.120446
v -0.304000 3.685000 0.076000
vt -0.166233 0.050000
vt -0.205061 0.079241
vt -0.200000 0.050000
vn 0.201829 -0.839447 0.504572
vn 0.201829 -0.839447 0.504572
vn 0.201829 -0.839447 0.504572
v -0.532000 4.422000 -0.494000
v -0.523201 4.424115 -0.494000
v -0.530681 4.417737 -0.501619
vt -0.350000 -0.325000
vt -0.344211 -0.325000
vt -0.349132 -0.330013
vn -0.201829 0.839447 -0.504572
vn -0.201829 0.839447 -0.504572
vn -0.201829 0.839447 -0.504572
v -0.532000 4.422000 -0.494000
v -0.530681 4.417737 -0.501619
v -0.540799 4.419885 -0.494000
vt -0.350000 -0.325000
vt -0.349132 -0.330013
vt -0.355789 -0.325000
vn -0.201829 0.839447 -0.504572
vn -0.201829 0.839447 -0.504572
vn -0.201829 0.839447 -0.504572
v -0.532000 4.422000 -0.494000
v -0.540799 4.419885 -0.494000
v -0.533319 4.426263 -0.486381
vt -0.350000 -0.325000
vt -0.355789 -0.325000
vt -0.350868 -0.319987
vn -0.201829 0.839447 -0.504572
vn -0.201829 0.839447 -0.504572
vn -0.201829 0.839447 -0.504572
v -0.532000 4.422000 -0.494000
v -0.533319 4.426263 -0.486381
v -0.523201 4.424115 -0.494000
vt -0.350000 -0.325000
vt -0.350868 -0.319987
vt -0.344211 -0.325000
vn -0.201829 0.839447 -0.504572
vn -0.201829 0.839447 -0.504572
vn -0.201829 0.839447 -0.504572
v 0.532483 2.379617 0.038000
v 0.507482 2.424451 -0.011487
v 1.294311 3.151135 0.485516
vt 0.000000 0.000000
vt 0.250000 0.000000
vt 0.250000 0.500000
vn 0.698571 -0.317986 -0.641002
vn 0.698571 -0.317986 -0.641002
vn 0.698571 -0.317986 -0.641002
v 0.532483 2.379617 0.038000
v 1.294311 3.151135 0.485516
v 1.298597 3.143449 0.494000
vt 0.000000 0.000000
vt 0.250000 0.500000
vt 0.000000 0.500000
vn 0.698571 -0.317986 -0.641002
vn 0.698571 -0.317986 -0.641002
vn 0.698571 -0.317986 -0.641002
v 0.507482 2.424451 -0.011487
v 0.455517 2.444383 0.038000
v 1.285403 3.154551 0.494000
vt 0.250000 0.000000
vt 0.500000 0.000000
vt 0.500000 0.500000
vn -0.296358 0.736643 -0.607889
vn -0.296358 0.736643 -0.607889
vn -0.296358 0.736643 -0.607889
v 0.507482 2.424451 -0.011487
v 1.285403 3.154551 0.494000
v 1.294311 3.151135 0.485516
vt 0.250000 0.000000
vt 0.500000 0.500000
vt 0.250000 0.500000
vn -0.296358 0.736643 -0.607889
vn -0.296358 0.736643 -0.607889
vn -0.296358 0.736643 -0.607889
v 0.455517 2.444383 0.038000
v 0.480518 2.399549 0.087487
v 1.289689 3.146865 0.502484
vt 0.500000 0.000000
vt 0.750000 0.000000
vt 0.750000 0.500000
vn -0.664833 0.354830 0.657338
vn -0.664833 0.354830 0.657338
vn -0.664833 0.354830 0.657338
v 0.455517 2.444383 0.038000
v 1.289689 3.146865 0.502484
v 1.285403 3.154551 0.494000
vt 0.500000 0.000000
vt 0.750000 0.500000
vt 0.500000 0.500000
vn -0.664833 0.354830 0.657338
vn -0.664833 0.354830 0.657338
vn -0.664833 0.354830 0.657338
v 0.480518 2.399549 0.087487
v 0.532483 2.379617 0.038000
v 1.298597 3.143449 0.494000
vt 0.750000 0.000000
vt 1.000000 0.000000
vt 1.000000 0.500000
vn 0.328457 -0.704811 0.628775
vn 0.328457 -0.704811 0.628775
vn 0.328457 -0.704811 0.628775
v 0.480518 2.399549 0.087487
v 1.298597 3.143449 0.494000
v 1.289689 3.146865 0.502484
vt 0.750000 0.000000
vt 1.000000 0.500000
vt 0.750000 0.500000
vn 0.328457 -0.704811 0.628775
vn 0.328457 -0.704811 0.628775
vn 0.328457 -0.704811 0.628775
v 0.507482 2.424451 -0.011487
v 0.532483 2.379617 0.038000
v 0.494000 2.412000 0.038000
vt 0.333870 -0.007557
vt 0.350317 0.025000
vt 0.325000 0.025000
vn -0.604266 -0.718076 -0.345295
vn -0.604266 -0.718076 -0.345295
vn -0.604266 -0.718076 -0.345295
v 0.455517 2.444383 0.038000
v 0.507482 2.424451 -0.011487
v 0.494000 2.412000 0.038000
vt 0.299683 0.025000
vt 0.333870 -0.007557
vt 0.325000 0.025000
vn -0.604266 -0.718076 -0.345295
vn -0.604266 -0.718076 -0.345295
vn -0.604266 -0.718076 -0.345295
v 0.480518 2.399549 0.087487
v 0.455517 2.444383 0.038000
v 0.494000 2.412000 0.038000
vt 0.316130 0.057557
vt 0.299683 0.025000
vt 0.325000 0.025000
vn -0.604266 -0.718076 -0.345295
vn -0.604266 -0.718076 -0.345295
vn -0.604266 -0.718076 -0.345295
v 0.532483 2.379617 0.038000
v 0.480518 2.399549 0.087487
v 0.494000 2.412000 0.038000
vt 0.350317 0.025000
vt 0.316130 0.057557
vt 0.325000 0.025000
vn -0.604266 -0.718076 -0.345295
vn -0.604266 -0.718076 -0.345295
vn -0.604266 -0.718076 -0.345295
v 1.292000 3.149000 0.494000
v 1.298597 3.143449 0.494000
v 1.294311 3.151135 0.485516
vt 0.850000 0.325000
vt 0.854340 0.325000
vt 0.851521 0.319419
vn 0.604266 0.718076 0.345295
vn 0.604266 0.718076 0.345295
vn 0.604266 0.718076 0.345295
v 1.292000 3.149000 0.494000
v 1.294311 3.151135 0.485516
v 1.285403 3.154551 0.494000
vt 0.850000 0.325000
vt 0.851521 0.319419
vt 0.845660 0.325000
vn 0.604266 0.718076 0.345295
vn 0.604266 0.718076 0.345295
vn 0.604266 0.718076 0.345295
v 1.292000 3.149000 0.494000
v 1.285403 3.154551 0.494000
v 1.289689 3.146865 0.502484
vt 0.850000 0.325000
vt 0.845660 0.325000
vt 0.848479 0.330581
vn 0.604266 0.718076 0.345295
vn 0.604266 0.718076 0.345295
vn 0.604266 0.718076 0.345295
v 1.292000 3.149000 0.494000
v 1.289689 3.146865 0.502484
v 1.298597 3.143449 0.494000
vt 0.850000 0.325000
vt 0.848479 0.330581
vt 0.854340 0.325000
vn 0.604266 0.718076 0.345295
vn 0.604266 0.718076 0.345295
vn 0.604266 0.718076 0.345295
v 0.870622 3.314391 0.091200
v 0.813459 3.332968 0.047054
v 1.364136 3.749080 -0.387568
vt 0.000000 0.000000
vt 0.250000 0.000000
vt 0.250000 0.500000
vn 0.169742 -0.810370 -0.560792
vn 0.169742 -0.810370 -0.560792
vn 0.169742 -0.810370 -0.560792
v 0.870622 3.314391 0.091200
v 1.364136 3.749080 -0.387568
v 1.373935 3.745896 -0.380000
vt 0.000000 0.000000
vt 0.250000 0.500000
vt 0.000000 0.500000
vn 0.169742 -0.810370 -0.560792
vn 0.169742 -0.810370 -0.560792
vn 0.169742 -0.810370 -0.560792
v 0.813459 3.332968 0.047054
v 0.801378 3.385609 0.091200
v 1.362065 3.758104 -0.380000
vt 0.250000 0.000000
vt 0.500000 0.000000
vt 0.500000 0.500000
vn -0.726713 0.335782 -0.599281
vn -0.726713 0.335782 -0.599281
vn -0.726713 0.335782 -0.599281
v 0.813459 3.332968 0.047054
v 1.362065 3.758104 -0.380000
v 1.364136 3.749080 -0.387568
vt 0.250000 0.000000
vt 0.500000 0.500000
vt 0.250000 0.500000
vn -0.726713 0.335782 -0.599281
vn -0.726713 0.335782 -0.599281
vn -0.726713 0.335782 -0.599281
v 0.801378 3.385609 0.091200
v 0.858541 3.367032 0.135346
v 1.371864 3.754920 -0.372432
vt 0.500000 0.000000
vt 0.750000 0.000000
vt 0.750000 0.500000
vn -0.125825 0.845612 0.518756
vn -0.125825 0.845612 0.518756
vn -0.125825 0.845612 0.518756
v 0.801378 3.385609 0.091200
v 1.371864 3.754920 -0.372432
v 1.362065 3.758104 -0.380000
vt 0.500000 0.000000
vt 0.750000 0.500000
vt 0.500000 0.500000
vn -0.125825 0.845612 0.518756
vn -0.125825 0.845612 0.518756
vn -0.125825 0.845612 0.518756
v 0.858541 3.367032 0.135346
v 0.870622 3.314391 0.091200
v 1.373935 3.745896 -0.380000
vt 0.750000 0.000000
vt 1.000000 0.000000
vt 1.000000 0.500000
vn 0.775028 -0.292071 0.560381
vn 0.775028 -0.292071 0.560381
vn 0.775028 -0.292071 0.560381
v 0.858541 3.367032 0.135346
v 1.373935 3.745896 -0.380000
v 1.371864 3.754920 -0.372432
vt 0.750000 0.000000
vt 1.000000 0.500000
vt 0.750000 0.500000
vn 0.775028 -0.292071 0.560381
vn 0.775028 -0.292071 0.560381
vn 0.775028 -0.292071 0.560381
v 0.813459 3.332968 0.047054
v 0.870622 3.314391 0.091200
v 0.836000 3.350000 0.091200
vt 0.535171 0.030956
vt 0.572778 0.060000
vt 0.550000 0.060000
vn -0.605247 -0.588471 0.536076
vn -0.605247 -0.588471 0.536076
vn -0.605247 -0.588471 0.536076
v 0.801378 3.385609 0.091200
v 0.813459 3.332968 0.047054
v 0.836000 3.350000 0.091200
vt 0.527222 0.060000
vt 0.535171 0.030956
vt 0.550000 0.060000
vn -0.605247 -0.588471 0.536076
vn -0.605247 -0.588471 0.536076
vn -0.605247 -0.588471 0.536076
v 0.858541 3.367032 0.135346
v 0.801378 3.385609 0.091200
v 0.836000 3.350000 0.091200
vt 0.564829 0.089044
vt 0.527222 0.060000
vt 0.550000 0.060000
vn -0.605247 -0.588471 0.536076
vn -0.605247 -0.588471 0.536076
vn -0.605247 -0.588471 0.536076
v 0.870622 3.314391 0.091200
v 0.858541 3.367032 0.135346
v 0.836000 3.350000 0.091200
vt 0.572778 0.060000
vt 0.564829 0.089044
vt 0.550000 0.060000
vn -0.605247 -0.588471 0.536076
vn -0.605247 -0.588471 0.536076
vn -0.605247 -0.588471 0.536076
v 1.368000 3.752000 -0.380000
v 1.373935 3.745896 -0.380000
v 1.364136 3.749080 -0.387568
vt 0.900000 -0.250000
vt 0.903905 -0.250000
vt 0.897458 -0.254979
vn 0.605247 0.588471 -0.536076
vn 0.605247 0.588471 -0.536076
vn 0.605247 0.588471 -0.536076
v 1.368000 3.752000 -0.380000
v 1.364136 3.749080 -0.387568
v 1.362065 3.758104 -0.380000
vt 0.900000 -0.250000
vt 0.897458 -0.254979
vt 0.896095 -0.250000
vn 0.605247 0.588471 -0.536076
vn 0.605247 0.588471 -0.536076
vn 0.605247 0.588471 -0.536076
v 1.368000 3.752000 -0.380000
v 1.362065 3.758104 -0.380000
v 1.371864 3.754920 -0.372432
vt 0.900000 -0.250000
vt 0.896095 -0.250000
vt 0.902542 -0.245021
vn 0.605247 0.588471 -0.536076
vn 0.605247 0.588471 -0.536076
vn 0.605247 0.588471 -0.536076
v 1.368000 3.752000 -0.380000
v 1.371864 3.754920 -0.372432
v 1.373935 3.745896 -0.380000
vt 0.900000 -0.250000
vt 0.902542 -0.245021
vt 0.903905 -0.250000
vn 0.605247 0.588471 -0.536076
vn 0.605247 0.588471 -0.536076
vn 0.605247 0.588471 -0.536076
v -0.060855 2.414130 0.000000
v -0.115745 2.445840 -0.036793
v -0.152299 3.154801 0.867693
vt 0.000000 0.000000
vt 0.250000 0.000000
vt 0.250000 0.500000
vn 0.653417 0.608384 -0.450461
vn 0.653417 0.608384 -0.450461
vn 0.653417 0.608384 -0.450461
v -0.060855 2.414130 0.000000
v -0.152299 3.154801 0.867693
v -0.142889 3.149365 0.874000
vt 0.000000 0.000000
vt 0.250000 0.500000
vt 0.000000 0.500000
vn 0.653417 0.608384 -0.450461
vn 0.653417 0.608384 -0.450461
vn 0.653417 0.608384 -0.450461
v -0.115745 2.445840 -0.036793
v -0.167145 2.409870 -0.000000
v -0.161111 3.148635 0.874000
vt 0.250000 0.000000
vt 0.500000 0.000000
vt 0.500000 0.500000
vn -0.705698 0.543500 -0.454531
vn -0.705698 0.543500 -0.454531
vn -0.705698 0.543500 -0.454531
v -0.115745 2.445840 -0.036793
v -0.161111 3.148635 0.874000
v -0.152299 3.154801 0.867693
vt 0.250000 0.000000
vt 0.500000 0.500000
vt 0.250000 0.500000
vn -0.705698 0.543500 -0.454531
vn -0.705698 0.543500 -0.454531
vn -0.705698 0.543500 -0.454531
v -0.167145 2.409870 -0.000000
v -0.112255 2.378160 0.036793
v -0.151701 3.143199 0.880307
vt 0.500000 0.000000
vt 0.750000 0.000000
vt 0.750000 0.500000
vn -0.658315 -0.572637 0.488578
vn -0.658315 -0.572637 0.488578
vn -0.658315 -0.572637 0.488578
v -0.167145 2.409870 -0.000000
v -0.151701 3.143199 0.880307
v -0.161111 3.148635 0.874000
vt 0.500000 0.000000
vt 0.750000 0.500000
vt 0.500000 0.500000
vn -0.658315 -0.572637 0.488578
vn -0.658315 -0.572637 0.488578
vn -0.658315 -0.572637 0.488578
v -0.112255 2.378160 0.036793
v -0.060855 2.414130 0.000000
v -0.142889 3.149365 0.874000
vt 0.750000 0.000000
vt 1.000000 0.000000
vt 1.000000 0.500000
vn 0.707364 -0.506804 0.492733
vn 0.707364 -0.506804 0.492733
vn 0.707364 -0.506804 0.492733
v -0.112255 2.378160 0.036793
v -0.142889 3.149365 0.874000
v -0.151701 3.143199 0.880307
vt 0.750000 0.000000
vt 1.000000 0.500000
vt 0.750000 0.500000
vn 0.707364 -0.506804 0.492733
vn 0.707364 -0.506804 0.492733
vn 0.707364 -0.506804 0.492733
v -0.115745 2.445840 -0.036793
v -0.060855 2.414130 0.000000
v -0.114000 2.412000 0.000000
vt -0.076148 -0.024206
vt -0.040036 0.000000
vt -0.075000 0.000000
vn 0.029453 -0.735007 -0.677420
vn 0.029453 -0.735007 -0.677420
vn 0.029453 -0.735007 -0.677420
v -0.167145 2.409870 -0.000000
v -0.115745 2.445840 -0.036793
v -0.114000 2.412000 0.000000
vt -0.109964 -0.000000
vt -0.076148 -0.024206
vt -0.075000 0.000000
vn 0.029453 -0.735007 -0.677420
vn 0.029453 -0.735007 -0.677420
vn 0.029453 -0.735007 -0.677420
v -0.112255 2.378160 0.036793
v -0.167145 2.409870 -0.000000
v -0.114000 2.412000 0.000000
vt -0.073852 0.024206
vt -0.109964 -0.000000
vt -0.075000 0.000000
vn 0.029453 -0.735007 -0.677420
vn 0.029453 -0.735007 -0.677420
vn 0.029453 -0.735007 -0.677420
v -0.060855 2.414130 0.000000
v -0.112255 2.378160 0.036793
v -0.114000 2.412000 0.000000
vt -0.040036 0.000000
vt -0.073852 0.024206
vt -0.075000 0.000000
vn 0.029453 -0.735007 -0.677420
vn 0.029453 -0.735007 -0.677420
vn 0.029453 -0.735007 -0.677420
v -0.152000 3.149000 0.874000
v -0.142889 3.149365 0.874000
v -0.152299 3.154801 0.867693
vt -0.100000 0.575000
vt -0.094006 0.575000
vt -0.100197 0.570850
vn -0.029453 0.735007 0.677420
vn -0.029453 0.735007 0.677420
vn -0.029453 0.735007 0.677420
v -0.152000 3.149000 0.874000
v -0.152299 3.154801 0.867693
v -0.161111 3.148635 0.874000
vt -0.100000 0.575000
vt -0.100197 0.570850
vt -0.105994 0.575000
vn -0.029453 0.735007 0.677420
vn -0.029453 0.735007 0.677420
vn -0.029453 0.735007 0.677420
v -0.152000 3.149000 0.874000
v -0.161111 3.148635 0.874000
v -0.151701 3.143199 0.880307
vt -0.100000 0.575000
vt -0.105994 0.575000
vt -0.099803 0.579150
vn -0.029453 0.735007 0.677420
vn -0.029453 0.735007 0.677420
vn -0.029453 0.735007 0.677420
v -0.152000 3.149000 0.874000
v -0.151701 3.143199 0.880307
v -0.142889 3.149365 0.874000
vt -0.100000 0.575000
vt -0.099803 0.579150
vt -0.094006 0.575000
vn -0.029453 0.735007 0.677420
vn -0.029453 0.735007 0.677420
vn -0.029453 0.735007 0.677420
v -0.854240 4.623000 0.518624
v 0.276640 4.623000 0.518624
v 0.276640 4.623000 -0.442624
vt 0.000000 0.000000
vt 1.000000 0.000000
vt 1.000000 1.000000
vn -0.000000 1.000000 0.000000
vn -0.000000 1.000000 0.000000
vn -0.000000 1.000000 0.000000
v -0.854240 4.623000 0.518624
v 0.276640 4.623000 -0.442624
v -0.854240 4.623000 -0.442624
vt 0.000000 0.000000
vt 1.000000 1.000000
vt 0.000000 1.000000
vn 0.000000 1.000000 0.000000
vn 0.000000 1.000000 0.000000
vn 0.000000 1.000000 0.000000
v -0.589545 4.471446 -0.539353
v -0.622566 4.471446 0.591045
v 0.209545 4.895154 0.615353
vt 0.000000 0.000000
vt 1.000000 0.000000
vt 1.000000 1.000000
vn -0.453411 0.891203 -0.013245
vn -0.453411 0.891203 -0.013245
vn -0.453411 0.891203 -0.013245
v -0.589545 4.471446 -0.539353
v 0.209545 4.895154 0.615353
v 0.242566 4.895154 -0.515045
vt 0.000000 0.000000
vt 1.000000 1.000000
vt 0.000000 1.000000
vn -0.453411 0.891203 -0.013245
vn -0.453411 0.891203 -0.013245
vn -0.453411 0.891203 -0.013245
v 0.298826 4.986629 -0.327793
v -0.830125 4.986629 -0.393807
v -0.876089 4.500571 0.392258
vt 0.000000 0.000000
vt 1.000000 0.000000
vt 1.000000 1.000000
vn -0.030662 0.850934 0.524376
vn -0.030662 0.850934 0.524376
vn -0.030662 0.850934 0.524376
v 0.298826 4.986629 -0.327793
v -0.876089 4.500571 0.392258
v 0.252862 4.500571 0.458272
vt 0.000000 0.000000
vt 1.000000 1.000000
vt 0.000000 1.000000
vn -0.030662 0.850934 0.524376
vn -0.030662 0.850934 0.524376
vn -0.030662 0.850934 0.524376
v -1.410212 4.187500 -0.486615
v -0.525795 4.187500 0.273567
v 0.120359 4.187500 -0.478188
vt 0.000000 0.000000
vt 1.000000 0.000000
vt 1.000000 1.000000
vn 0.000000 1.000000 0.000000
vn 0.000000 1.000000 0.000000
vn 0.000000 1.000000 0.000000
v -1.410212 4.187500 -0.486615
v 0.120359 4.187500 -0.478188
v -0.764057 4.187500 -1.238369
vt 0.000000 0.000000
vt 1.000000 1.000000
vt 0.000000 1.000000
vn -0.000000 1.000000 0.000000
vn -0.000000 1.000000 0.000000
vn -0.000000 1.000000 0.000000
v -0.494370 4.029326 -1.138100
v -1.280052 4.029326 -0.276257
v -0.645630 4.466274 0.302100
vt 0.000000 0.000000
vt 1.000000 0.000000
vt 1.000000 1.000000
vn -0.335216 0.891203 -0.305593
vn -0.335216 0.891203 -0.305593
vn -0.335216 0.891203 -0.305593
v -0.494370 4.029326 -1.138100
v -0.645630 4.466274 0.302100
v 0.140052 4.466274 -0.559743
vt 0.000000 0.000000
vt 1.000000 1.000000
vt 0.000000 1.000000
vn -0.335216 0.891203 -0.305593
vn -0.335216 0.891203 -0.305593
vn -0.335216 0.891203 -0.305593
v 0.060399 4.558724 -0.373336
v -0.778134 4.558724 -1.183848
v -1.342477 4.057476 -0.599994
vt 0.000000 0.000000
vt 1.000000 0.000000
vt 1.000000 1.000000
vn -0.365059 0.850934 0.377680
vn -0.365059 0.850934 0.377680
vn -0.365059 0.850934 0.377680
v 0.060399 4.558724 -0.373336
v -1.342477 4.057476 -0.599994
v -0.503944 4.057476 0.210518
vt 0.000000 0.000000
vt 1.000000 1.000000
vt 0.000000 1.000000
vn -0.365059 0.850934 0.377680
vn -0.365059 0.850934 0.377680
vn -0.365059 0.850934 0.377680
v 0.097527 4.020000 -0.508566
v 0.293959 4.020000 0.784175
v 1.392789 4.020000 0.617208
vt 0.000000 0.000000
vt 1.000000 0.000000
vt 1.000000 1.000000
vn 0.000000 1.000000 0.000000
vn 0.000000 1.000000 0.000000
vn 0.000000 1.000000 0.000000
v 0.097527 4.020000 -0.508566
v 1.392789 4.020000 0.617208
v 1.196357 4.020000 -0.675533
vt 0.000000 0.000000
vt 1.000000 1.000000
vt 0.000000 1.000000
vn -0.000000 1.000000 0.000000
vn -0.000000 1.000000 0.000000
vn -0.000000 1.000000 0.000000
v 1.350588 3.835344 -0.405016
v 0.052662 3.835344 -0.246415
v 0.169412 4.325256 0.709016
vt 0.000000 0.000000
vt 1.000000 0.000000
vt 1.000000 1.000000
vn -0.055019 0.891203 -0.450255
vn -0.055019 0.891203 -0.450255
vn -0.055019 0.891203 -0.450255
v 1.350588 3.835344 -0.405016
v 0.169412 4.325256 0.709016
v 1.467338 4.325256 0.550415
vt 0.000000 0.000000
vt 1.000000 1.000000
vt 0.000000 1.000000
vn -0.055019 0.891203 -0.450255
vn -0.055019 0.891203 -0.450255
vn -0.055019 0.891203 -0.450255
v 1.264481 4.421602 0.662626
v 1.143847 4.421602 -0.639378
v 0.237289 3.859598 -0.555383
vt 0.000000 0.000000
vt 1.000000 0.000000
vt 1.000000 1.000000
vn -0.523032 0.850934 0.048460
vn -0.523032 0.850934 0.048460
vn -0.523032 0.850934 0.048460
v 1.264481 4.421602 0.662626
v 0.237289 3.859598 -0.555383
v 0.357923 3.859598 0.746621
vt 0.000000 0.000000
vt 1.000000 1.000000
vt 0.000000 1.000000
vn -0.523032 0.850934 0.048460
vn -0.523032 0.850934 0.048460
vn -0.523032 0.850934 0.048460
v -1.173815 3.651500 -1.122770
v -1.867501 3.651500 -0.014364
v -0.925356 3.651500 0.575269
vt 0.000000 0.000000
vt 1.000000 0.000000
vt 1.000000 1.000000
vn 0.000000 1.000000 -0.000000
vn 0.000000 1.000000 -0.000000
vn 0.000000 1.000000 -0.000000
v -1.173815 3.651500 -1.122770
v -0.925356 3.651500 0.575269
v -0.231670 3.651500 -0.533137
vt 0.000000 0.000000
vt 1.000000 1.000000
vt 0.000000 1.000000
vn 0.000000 1.000000 0.000000
vn 0.000000 1.000000 0.000000
vn 0.000000 1.000000 0.000000
v -0.291039 3.466844 -0.227454
v -1.378717 3.466844 -0.953209
v -1.912961 3.956756 -0.152546
vt 0.000000 0.000000
vt 1.000000 0.000000
vt 1.000000 1.000000
vn 0.251767 0.891203 -0.377320
vn 0.251767 0.891203 -0.377320
vn 0.251767 0.891203 -0.377320
v -0.291039 3.466844 -0.227454
v -1.912961 3.956756 -0.152546
v -0.825283 3.956756 0.573209
vt 0.000000 0.000000
vt 1.000000 1.000000
vt 0.000000 1.000000
vn 0.251767 0.891203 -0.377320
vn 0.251767 0.891203 -0.377320
vn 0.251767 0.891203 -0.377320
v -1.052264 4.053102 0.526077
v -0.295058 4.053102 -0.539946
v -1.037308 3.491098 -1.067173
vt 0.000000 0.000000
vt 1.000000 0.000000
vt 1.000000 1.000000
vn -0.428235 0.850934 -0.304179
vn -0.428235 0.850934 -0.304179
vn -0.428235 0.850934 -0.304179
v -1.052264 4.053102 0.526077
v -1.037308 3.491098 -1.067173
v -1.794514 3.491098 -0.001150
vt 0.000000 0.000000
vt 1.000000 1.000000
vt 0.000000 1.000000
vn -0.428235 0.850934 -0.304179
vn -0.428235 0.850934 -0.304179
vn -0.428235 0.850934 -0.304179
v 1.857960 3.718500 -1.153779
v 0.575654 3.718500 -0.754877
v 0.914721 3.718500 0.335084
vt 0.000000 0.000000
vt 1.000000 0.000000
vt 1.000000 1.000000
vn 0.000000 1.000000 0.000000
vn 0.000000 1.000000 0.000000
vn 0.000000 1.000000 0.000000
v 1.857960 3.718500 -1.153779
v 0.914721 3.718500 0.335084
v 2.197028 3.718500 -0.063819
vt 0.000000 0.000000
vt 1.000000 1.000000
vt 0.000000 1.000000
vn 0.000000 1.000000 -0.000000
vn 0.000000 1.000000 -0.000000
vn 0.000000 1.000000 -0.000000
v 1.948698 3.527223 0.133727
v 1.587408 3.527223 -1.159681
v 0.635302 4.030377 -0.893727
vt 0.000000 0.000000
vt 1.000000 0.000000
vt 1.000000 1.000000
vn 0.436880 0.891203 -0.122035
vn 0.436880 0.891203 -0.122035
vn 0.436880 0.891203 -0.122035
v 1.948698 3.527223 0.133727
v 0.635302 4.030377 -0.893727
v 0.996592 4.030377 0.399681
vt 0.000000 0.000000
vt 1.000000 1.000000
vt 0.000000 1.000000
vn 0.436880 0.891203 -0.122035
vn 0.436880 0.891203 -0.122035
vn 0.436880 0.891203 -0.122035
v 0.848768 4.127697 0.211661
v 2.152173 4.127697 -0.111708
v 1.927018 3.550503 -1.019242
vt 0.000000 0.000000
vt 1.000000 0.000000
vt 1.000000 1.000000
vn -0.126483 0.850934 -0.509816
vn -0.126483 0.850934 -0.509816
vn -0.126483 0.850934 -0.509816
v 0.848768 4.127697 0.211661
v 1.927018 3.550503 -1.019242
v 0.623612 3.550503 -0.695873
vt 0.000000 0.000000
vt 1.000000 1.000000
vt 0.000000 1.000000
vn -0.126483 0.850934 -0.509816
vn -0.126483 0.850934 -0.509816
vn -0.126483 0.850934 -0.509816
v 0.585215 3.551000 -0.014360
v -0.582389 3.551000 -0.519627
v -1.011867 3.551000 0.472836
vt 0.000000 0.000000
vt 1.000000 0.000000
vt 1.000000 1.000000
vn 0.000000 1.000000 0.000000
vn 0.000000 1.000000 0.000000
vn 0.000000 1.000000 0.000000
v 0.585215 3.551000 -0.014360
v -1.011867 3.551000 0.472836
v 0.155737 3.551000 0.978104
vt 0.000000 0.000000
vt 1.000000 1.000000
vt 0.000000 1.000000
vn 0.000000 1.000000 0.000000
vn 0.000000 1.000000 0.000000
vn 0.000000 1.000000 0.000000
v -0.149437 3.372964 0.964615
v 0.389709 3.372964 -0.187738
v -0.458563 3.849636 -0.584615
vt 0.000000 0.000000
vt 1.000000 0.000000
vt 1.000000 1.000000
vn 0.410860 0.891203 0.192227
vn 0.410860 0.891203 0.192227
vn 0.410860 0.891203 0.192227
v -0.149437 3.372964 0.964615
v -0.458563 3.849636 -0.584615
v -0.997709 3.849636 0.567738
vt 0.000000 0.000000
vt 1.000000 1.000000
vt 0.000000 1.000000
vn 0.410860 0.891203 0.192227
vn 0.410860 0.891203 0.192227
vn 0.410860 0.891203 0.192227
v -0.983162 3.945008 0.343710
v 0.152956 3.945008 0.916274
v 0.551620 3.398192 0.125219
vt 0.000000 0.000000
vt 1.000000 0.000000
vt 1.000000 1.000000
vn 0.236395 0.850934 -0.469071
vn 0.236395 0.850934 -0.469071
vn 0.236395 0.850934 -0.469071
v -0.983162 3.945008 0.343710
v 0.551620 3.398192 0.125219
v -0.584498 3.398192 -0.447346
vt 0.000000 0.000000
vt 1.000000 1.000000
vt 0.000000 1.000000
vn 0.236395 0.850934 -0.469071
vn 0.236395 0.850934 -0.469071
vn 0.236395 0.850934 -0.469071
v -0.142445 2.914500 0.652642
v -0.698561 2.914500 -0.491618
v -1.671181 2.914500 -0.018919
vt 0.000000 0.000000
vt 1.000000 0.000000
vt 1.000000 1.000000
vn 0.000000 1.000000 0.000000
vn 0.000000 1.000000 0.000000
vn 0.000000 1.000000 0.000000
v -0.142445 2.914500 0.652642
v -1.671181 2.914500 -0.018919
v -1.115065 2.914500 1.125340
vt 0.000000 0.000000
vt 1.000000 1.000000
vt 0.000000 1.000000
vn 0.000000 1.000000 0.000000
vn 0.000000 1.000000 0.000000
vn 0.000000 1.000000 0.000000
v -1.337705 2.736464 0.916188
v -0.177695 2.736464 0.393721
v -0.562295 3.213136 -0.460188
vt 0.000000 0.000000
vt 1.000000 0.000000
vt 1.000000 1.000000
vn 0.186280 0.891203 0.413590
vn 0.186280 0.891203 0.413590
vn 0.186280 0.891203 0.413590
v -1.337705 2.736464 0.916188
v -0.562295 3.213136 -0.460188
v -1.722305 3.213136 0.062279
vt 0.000000 0.000000
vt 1.000000 1.000000
vt 0.000000 1.000000
vn 0.186280 0.891203 0.413590
vn 0.186280 0.891203 0.413590
vn 0.186280 0.891203 0.413590
v -1.565244 3.308508 -0.098133
v -1.076872 3.308508 1.076638
v -0.258903 2.761692 0.736595
vt 0.000000 0.000000
vt 1.000000 0.000000
vt 1.000000 1.000000
vn 0.485030 0.850934 -0.201635
vn 0.485030 0.850934 -0.201635
vn 0.485030 0.850934 -0.201635
v -1.565244 3.308508 -0.098133
v -0.258903 2.761692 0.736595
v -0.747276 2.761692 -0.438177
vt 0.000000 0.000000
vt 1.000000 1.000000
vt 0.000000 1.000000
vn 0.485030 0.850934 -0.201635
vn 0.485030 0.850934 -0.201635
vn 0.485030 0.850934 -0.201635
v 1.503601 3.149000 1.359510
v 1.818728 3.149000 0.163426
v 0.802056 3.149000 -0.104431
vt 0.000000 0.000000
vt 1.000000 0.000000
vt 1.000000 1.000000
vn 0.000000 1.000000 0.000000
vn 0.000000 1.000000 0.000000
vn 0.000000 1.000000 0.000000
v 1.503601 3.149000 1.359510
v 0.802056 3.149000 -0.104431
v 0.486930 3.149000 1.091653
vt 0.000000 0.000000
vt 1.000000 1.000000
vt 0.000000 1.000000
vn 0.000000 1.000000 0.000000
vn 0.000000 1.000000 0.000000
vn 0.000000 1.000000 0.000000
v 0.456023 2.977585 0.793699
v 1.642395 2.977585 1.143616
v 1.899977 3.441015 0.270301
vt 0.000000 0.000000
vt 1.000000 0.000000
vt 1.000000 1.000000
vn -0.128324 0.891203 0.435075
vn -0.128324 0.891203 0.435075
vn -0.128324 0.891203 0.435075
v 0.456023 2.977585 0.793699
v 1.899977 3.441015 0.270301
v 0.713605 3.441015 -0.079616
vt 0.000000 0.000000
vt 1.000000 1.000000
vt 0.000000 1.000000
vn -0.128324 0.891203 0.435075
vn -0.128324 0.891203 0.435075
vn -0.128324 0.891203 0.435075
v 0.930209 3.535413 -0.095745
v 0.545800 3.535413 1.079904
v 1.364380 3.003787 1.347560
vt 0.000000 0.000000
vt 1.000000 0.000000
vt 1.000000 1.000000
vn 0.499261 0.850934 0.163246
vn 0.499261 0.850934 0.163246
vn 0.499261 0.850934 0.163246
v 0.930209 3.535413 -0.095745
v 1.364380 3.003787 1.347560
v 1.748789 3.003787 0.171911
vt 0.000000 0.000000
vt 1.000000 1.000000
vt 0.000000 1.000000
vn 0.499261 0.850934 0.163246
vn 0.499261 0.850934 0.163246
vn 0.499261 0.850934 0.163246
v -0.432412 3.115500 1.669005
v 0.528008 3.115500 1.007445
v -0.034318 3.115500 0.191087
vt 0.000000 0.000000
vt 1.000000 0.000000
vt 1.000000 1.000000
vn 0.000000 1.000000 0.000000
vn 0.000000 1.000000 0.000000
vn 0.000000 1.000000 0.000000
v -0.432412 3.115500 1.669005
v -0.034318 3.115500 0.191087
v -0.994738 3.115500 0.852647
vt 0.000000 0.000000
vt 1.000000 1.000000
vt 0.000000 1.000000
vn 0.000000 1.000000 0.000000
vn 0.000000 1.000000 0.000000
vn 0.000000 1.000000 0.000000
v -0.829069 2.957326 0.617405
v -0.195835 2.957326 1.596733
v 0.525069 3.394274 1.130595
vt 0.000000 0.000000
vt 1.000000 0.000000
vt 1.000000 1.000000
vn -0.380912 0.891203 0.246298
vn -0.380912 0.891203 0.246298
vn -0.380912 0.891203 0.246298
v -0.829069 2.957326 0.617405
v 0.525069 3.394274 1.130595
v -0.108165 3.394274 0.151267
vt 0.000000 0.000000
vt 1.000000 1.000000
vt 0.000000 1.000000
vn -0.380912 0.891203 0.246298
vn -0.380912 0.891203 0.246298
vn -0.380912 0.891203 0.246298
v 0.051798 3.486724 0.275782
v -0.945603 3.486724 0.880150
v -0.524794 2.985476 1.574620
vt 0.000000 0.000000
vt 1.000000 0.000000
vt 1.000000 1.000000
vn 0.272211 0.850934 0.449235
vn 0.272211 0.850934 0.449235
vn 0.272211 0.850934 0.449235
v 0.051798 3.486724 0.275782
v -0.524794 2.985476 1.574620
v 0.472607 2.985476 0.970252
vt 0.000000 0.000000
vt 1.000000 1.000000
vt 0.000000 1.000000
vn 0.272211 0.850934 0.449235
vn 0.272211 0.850934 0.449235
vn 0.272211 0.850934 0.449235
v -0.484036 3.651500 -0.326831
v 0.710676 3.651500 -0.198730
v 0.819562 3.651500 -1.214236
vt 0.000000 0.000000
vt 1.000000 0.000000
vt 1.000000 1.000000
vn -0.000000 1.000000 0.000000
vn -0.000000 1.000000 0.000000
vn -0.000000 1.000000 0.000000
v -0.484036 3.651500 -0.326831
v 0.819562 3.651500 -1.214236
v -0.375150 3.651500 -1.342336
vt 0.000000 0.000000
vt 1.000000 1.000000
vt 0.000000 1.000000
vn 0.000000 1.000000 0.000000
vn 0.000000 1.000000 0.000000
vn 0.000000 1.000000 0.000000
v -0.090697 3.486705 -1.415199
v -0.253628 3.486705 -0.224737
v 0.622697 3.936895 -0.104801
vt 0.000000 0.000000
vt 1.000000 0.000000
vt 1.000000 1.000000
vn -0.449415 0.891203 -0.061508
vn -0.449415 0.891203 -0.061508
vn -0.449415 0.891203 -0.061508
v -0.090697 3.486705 -1.415199
v 0.622697 3.936895 -0.104801
v 0.785628 3.936895 -1.295263
vt 0.000000 0.000000
vt 1.000000 1.000000
vt 0.000000 1.000000
vn -0.449415 0.891203 -0.061508
vn -0.449415 0.891203 -0.061508
vn -0.449415 0.891203 -0.061508
v 0.829944 4.030318 -1.090053
v -0.355253 4.030318 -1.287675
v -0.492853 3.513882 -0.462447
vt 0.000000 0.000000
vt 1.000000 0.000000
vt 1.000000 1.000000
vn -0.086392 0.850934 0.518119
vn -0.086392 0.850934 0.518119
vn -0.086392 0.850934 0.518119
v 0.829944 4.030318 -1.090053
v -0.492853 3.513882 -0.462447
v 0.692344 3.513882 -0.264825
vt 0.000000 0.000000
vt 1.000000 1.000000
vt 0.000000 1.000000
vn -0.086392 0.850934 0.518119
vn -0.086392 0.850934 0.518119
vn -0.086392 0.850934 0.518119
usemtl Bark
f 1/1/1 2/2/2 3/3/3
f 4/4/4 5/5/5 6/6/6
f 7/7/7 8/8/8 9/9/9
f 10/10/10 11/11/11 12/12/12
f 13/13/13 14/14/14 15/15/15
f 16/16/16 17/17/17 18/18/18
f 19/19/19 20/20/20 21/21/21
f 22/22/22 23/23/23 24/24/24
f 25/25/25 26/26/26 27/27/27
f 28/28/28 29/29/29 30/30/30
f 31/31/31 32/32/32 33/33/33
f 34/34/34 35/35/35 36/36/36
f 37/37/37 38/38/38 39/39/39
f 40/40/40 41/41/41 42/42/42
f 43/43/43 44/44/44 45/45/45
f 46/46/46 47/47/47 48/48/48
f 49/49/49 50/50/50 51/51/51
f 52/52/52 53/53/53 54/54/54
f 55/55/55 56/56/56 57/57/57
f 58/58/58 59/59/59 60/60/60
f 61/61/61 62/62/62 63/63/63
f 64/64/64 65/65/65 66/66/66
f 67/67/67 68/68/68 69/69/69
f 70/70/70 71/71/71 72/72/72
f 73/73/73 74/74/74 75/75/75
f 76/76/76 77/77/77 78/78/78
f 79/79/79 80/80/80 81/81/81
f 82/82/82 83/83/83 84/84/84
f 85/85/85 86/86/86 87/87/87
f 88/88/88 89/89/89 90/90/90
f 91/91/91 92/92/92 93/93/93
f 94/94/94 95/95/95 96/96/96
f 97/97/97 98/98/98 99/99/99
f 100/100/100 101/101/101 102/102/102
f 103/103/103 104/104/104 105/105/105
f 106/106/106 107/107/107 108/108/108
f 109/109/109 110/110/110 111/111/111
f 112/112/112 113/113/113 114/114/114
f 115/115/115 116/116/116 117/117/117
f 118/118/118 119/119/119 120/120/120
f 121/121/121 122/122/122 123/123/123
f 124/124/124 125/125/125 126/126/126
f 127/127/127 128/128/128 129/129/129
f 130/130/130 131/131/131 132/132/132
f 133/133/133 134/134/134 135/135/135
f 136/136/136 137/137/137 138/138/138
f 139/139/139 140/140/140 141/141/141
f 142/142/142 143/143/143 144/144/144
f 145/145/145 146/146/146 147/147/147
f 148/148/148 149/149/149 150/150/150
f 151/151/151 152/152/152 153/153/153
f 154/154/154 155/155/155 156/156/156
f 157/157/157 158/158/158 159/159/159
f 160/160/160 161/161/161 162/162/162
f 163/163/163 164/164/164 165/165/165
f 166/166/166 167/167/167 168/168/168
f 169/169/169 170/170/170 171/171/171
f 172/172/172 173/173/173 174/174/174
f 175/175/175 176/176/176 177/177/177
f 178/178/178 179/179/179 180/180/180
f 181/181/181 182/182/182 183/183/183
f 184/184/184 185/185/185 186/186/186
f 187/187/187 188/188/188 189/189/189
f 190/190/190 191/191/191 192/192/192
f 193/193/193 194/194/194 195/195/195
f 196/196/196 197/197/197 198/198/198
f 199/199/199 200/200/200 201/201/201
f 202/202/202 203/203/203 204/204/204
f 205/205/205 206/206/206 207/207/207
f 208/208/208 209/209/209 210/210/210
f 211/211/211 212/212/212 213/213/213
f 214/214/214 215/215/215 216/216/216
f 217/217/217 218/218/218 219/219/219
f 220/220/220 221/221/221 222/222/222
f 223/223/223 224/224/224 225/225/225
f 226/226/226 227/227/227 228/228/228
f 229/229/229 230/230/230 231/231/231
f 232/232/232 233/233/233 234/234/234
f 235/235/235 236/236/236 237/237/237
f 238/238/238 239/239/239 240/240/240
f 241/241/241 242/242/242 243/243/243
f 244/244/244 245/245/245 246/246/246
f 247/247/247 248/248/248 249/249/249
f 250/250/250 251/251/251 252/252/252
f 253/253/253 254/254/254 255/255/255
f 256/256/256 257/257/257 258/258/258
f 259/259/259 260/260/260 261/261/261
f 262/262/262 263/263/263 264/264/264
f 265/265/265 266/266/266 267/267/267
f 268/268/268 269/269/269 270/270/270
f 271/271/271 272/272/272 273/273/273
f 274/274/274 275/275/275 276/276/276
f 277/277/277 278/278/278 279/279/279
f 280/280/280 281/281/281 282/282/282
f 283/283/283 284/284/284 285/285/285
f 286/286/286 287/287/287 288/288/288
f 289/289/289 290/290/290 291/291/291
f 292/292/292 293/293/293 294/294/294
f 295/295/295 296/296/296 297/297/297
f 298/298/298 299/299/299 300/300/300
f 301/301/301 302/302/302 303/303/303
f 304/304/304 305/305/305 306/306/306
f 307/307/307 308/308/308 309/309/309
f 310/310/310 311/311/311 312/312/312
f 313/313/313 314/314/314 315/315/315
f 316/316/316 317/317/317 318/318/318
f 319/319/319 320/320/320 321/321/321
f 322/322/322 323/323/323 324/324/324
f 325/325/325 326/326/326 327/327/327
f 328/328/328 329/329/329 330/330/330
f 331/331/331 332/332/332 333/333/333
f 334/334/334 335/335/335 336/336/336
f 337/337/337 338/338/338 339/339/339
f 340/340/340 341/341/341 342/342/342
f 343/343/343 344/344/344 345/345/345
f 346/346/346 347/347/347 348/348/348
f 349/349/349 350/350/350 351/351/351
f 352/352/352 353/353/353 354/354/354
f 355/355/355 356/356/356 357/357/357
f 358/358/358 359/359/359 360/360/360
f 361/361/361 362/362/362 363/363/363
f 364/364/364 365/365/365 366/366/366
f 367/367/367 368/368/368 369/369/369
f 370/370/370 371/371/371 372/372/372
f 373/373/373 374/374/374 375/375/375
f 376/376/376 377/377/377 378/378/378
f 379/379/379 380/380/380 381/381/381
f 382/382/382 383/383/383 384/384/384
f 385/385/385 386/386/386 387/387/387
f 388/388/388 389/389/389 390/390/390
f 391/391/391 392/392/392 393/393/393
f 394/394/394 395/395/395 396/396/396
f 397/397/397 398/398/398 399/399/399
f 400/400/400 401/401/401 402/402/402
f 403/403/403 404/404/404 405/405/405
f 406/406/406 407/407/407 408/408/408
f 409/409/409 410/410/410 411/411/411
f 412/412/412 413/413/413 414/414/414
f 415/415/415 416/416/416 417/417/417
f 418/418/418 419/419/419 420/420/420
f 421/421/421 422/422/422 423/423/423
f 424/424/424 425/425/425 426/426/426
f 427/427/427 428/428/428 429/429/429
f 430/430/430 431/431/431 432/432/432
f 433/433/433 434/434/434 435/435/435
f 436/436/436 437/437/437 438/438/438
f 439/439/439 440/440/440 441/441/441
f 442/442/442 443/443/443 444/444/444
f 445/445/445 446/446/446 447/447/447
f 448/448/448 449/449/449 450/450/450
f 451/451/451 452/452/452 453/453/453
f 454/454/454 455/455/455 456/456/456
f 457/457/457 458/458/458 459/459/459
f 460/460/460 461/461/461 462/462/462
f 463/463/463 464/464/464 465/465/465
f 466/466/466 467/467/467 468/468/468
f 469/469/469 470/470/470 471/471/471
f 472/472/472 473/473/473 474/474/474
f 475/475/475 476/476/476 477/477/477
f 478/478/478 479/479/479 480/480/480
f 481/481/481 482/482/482 483/483/483
f 484/484/484 485/485/485 486/486/486
f 487/487/487 488/488/488 489/489/489
f 490/490/490 491/491/491 492/492/492
f 493/493/493 494/494/494 495/495/495
f 496/496/496 497/497/497 498/498/498
f 499/499/499 500/500/500 501/501/501
f 502/502/502 503/503/503 504/504/504
f 505/505/505 506/506/506 507/507/507
f 508/508/508 509/509/509 510/510/510
f 511/511/511 512/512/512 513/513/513
f 514/514/514 515/515/515 516/516/516
f 517/517/517 518/518/518 519/519/519
f 520/520/520 521/521/521 522/522/522
f 523/523/523 524/524/524 525/525/525
f 526/526/526 527/527/527 528/528/528
f 529/529/529 530/530/530 531/531/531
f 532/532/532 533/533/533 534/534/534
f 535/535/535 536/536/536 537/537/537
f 538/538/538 539/539/539 540/540/540
f 541/541/541 542/542/542 543/543/543
f 544/544/544 545/545/545 546/546/546
f 547/547/547 548/548/548 549/549/549
f 550/550/550 551/551/551 552/552/552
f 553/553/553 554/554/554 555/555/555
f 556/556/556 557/557/557 558/558/558
f 559/559/559 560/560/560 561/561/561
f 562/562/562 563/563/563 564/564/564
usemtl Foliage
f 565/565/565 566/566/566 567/567/567
f 568/568/568 569/569/569 570/570/570
f 571/571/571 572/572/572 573/573/573
f 574/574/574 575/575/575 576/576/576
f 577/577/577 578/578/578 579/579/579
f 580/580/580 581/581/581 582/582/582
f 583/583/583 584/584/584 585/585/585
f 586/586/586 587/587/587 588/588/588
f 589/589/589 590/590/590 591/591/591
f 592/592/592 593/593/593 594/594/594
f 595/595/595 596/596/596 597/597/597
f 598/598/598 599/599/599 600/600/600
f 601/601/601 602/602/602 603/603/603
f 604/604/604 605/605/605 606/606/606
f 607/607/607 608/608/608 609/609/609
f 610/610/610 611/611/611 612/612/612
f 613/613/613 614/614/614 615/615/615
f 616/616/616 617/617/617 618/618/618
f 619/619/619 620/620/620 621/621/621
f 622/622/622 623/623/623 624/624/624
f 625/625/625 626/626/626 627/627/627
f 628/628/628 629/629/629 630/630/630
f 631/631/631 632/632/632 633/633/633
f 634/634/634 635/635/635 636/636/636
f 637/637/637 638/638/638 639/639/639
f 640/640/640 641/641/641 642/642/642
f 643/643/643 644/644/644 645/645/645
f 646/646/646 647/647/647 648/648/648
f 649/649/649 650/650/650 651/651/651
f 652/652/652 653/653/653 654/654/654
f 655/655/655 656/656/656 657/657/657
f 658/658/658 659/659/659 660/660/660
f 661/661/661 662/662/662 663/663/663
f 664/664/664 665/665/665 666/666/666
f 667/667/667 668/668/668 669/669/669
f 670/670/670 671/671/671 672/672/672
f 673/673/673 674/674/674 675/675/675
f 676/676/676 677/677/677 678/678/678
f 679/679/679 680/680/680 681/681/681
f 682/682/682 683/683/683 684/684/684
f 685/685/685 686/686/686 687/687/687
f 688/688/688 689/689/689 690/690/690
f 691/691/691 692/692/692 693/693/693
f 694/694/694 695/695/695 696/696/696
f 697/697/697 698/698/698 699/699/699
f 700/700/700 701/701/701 702/702/702
f 703/703/703 704/704/704 705/705/705
f 706/706/706 707/707/707 708/708/708
f 709/709/709 710/710/710 711/711/711
f 712/712/712 713/713/713 714/714/714
f 715/715/715 716/716/716 717/717/717
f 718/718/718 719/719/719 720/720/720
f 721/721/721 722/722/722 723/723/723
f 724/724/724 725/725/725 726/726/726
f 727/727/727 728/728/728 729/729/729
f 730/730/730 731/731/731 732/732/732
f 733/733/733 734/734/734 735/735/735
f 736/736/736 737/737/737 738/738/738
f 739/739/739 740/740/740 741/741/741
f 742/742/742 743/743/743 744/744/744
