# Oak, Y up, metres, base pivot; foliage uses only flat cards
mtllib Tree.mtl
o Quercia_02_Espansa
s off
v 0.567171 0.000000 0.000000
v 0.283586 0.000000 -0.493634
v 0.261340 0.367838 -0.375097
vt 0.000000 0.000000
vt 0.166667 0.000000
vt 0.166667 0.500000
vn 0.848080 0.208295 -0.487209
vn 0.848080 0.208295 -0.487209
vn 0.848080 0.208295 -0.487209
v 0.567171 0.000000 0.000000
v 0.261340 0.367838 -0.375097
v 0.477956 0.372859 0.000000
vt 0.000000 0.000000
vt 0.166667 0.500000
vt 0.000000 0.500000
vn 0.846831 0.202623 -0.491753
vn 0.846831 0.202623 -0.491753
vn 0.846831 0.202623 -0.491753
v 0.283586 0.000000 -0.493634
v -0.283586 0.000000 -0.493634
v -0.171016 0.346978 -0.375097
vt 0.166667 0.000000
vt 0.333333 0.000000
vt 0.333333 0.500000
vn 0.000000 0.323284 -0.946302
vn 0.000000 0.323284 -0.946302
vn 0.000000 0.323284 -0.946302
v 0.283586 0.000000 -0.493634
v -0.171016 0.346978 -0.375097
v 0.261340 0.367838 -0.375097
vt 0.166667 0.000000
vt 0.333333 0.500000
vt 0.166667 0.500000
vn -0.014757 0.305881 -0.951955
vn -0.014757 0.305881 -0.951955
vn -0.014757 0.305881 -0.951955
v -0.283586 0.000000 -0.493634
v -0.567171 0.000000 -0.000000
v -0.386756 0.331141 -0.000000
vt 0.333333 0.000000
vt 0.500000 0.000000
vt 0.500000 0.500000
vn -0.784013 0.427153 -0.450404
vn -0.784013 0.427153 -0.450404
vn -0.784013 0.427153 -0.450404
v -0.283586 0.000000 -0.493634
v -0.386756 0.331141 -0.000000
v -0.171016 0.346978 -0.375097
vt 0.333333 0.000000
vt 0.500000 0.500000
vt 0.333333 0.500000
vn -0.798079 0.409823 -0.441719
vn -0.798079 0.409823 -0.441719
vn -0.798079 0.409823 -0.441719
v -0.567171 0.000000 -0.000000
v -0.283586 0.000000 0.493634
v -0.170140 0.336162 0.375097
vt 0.500000 0.000000
vt 0.666667 0.000000
vt 0.666667 0.500000
vn -0.785266 0.424081 0.451124
vn -0.785266 0.424081 0.451124
vn -0.785266 0.424081 0.451124
v -0.567171 0.000000 -0.000000
v -0.170140 0.336162 0.375097
v -0.386756 0.331141 -0.000000
vt 0.500000 0.000000
vt 0.666667 0.500000
vt 0.500000 0.500000
vn -0.785198 0.427798 0.447720
vn -0.785198 0.427798 0.447720
vn -0.785198 0.427798 0.447720
v -0.283586 0.000000 0.493634
v 0.283586 0.000000 0.493634
v 0.262216 0.357022 0.375097
vt 0.666667 0.000000
vt 0.833333 0.000000
vt 0.833333 0.500000
vn -0.000000 0.315105 0.949057
vn -0.000000 0.315105 0.949057
vn -0.000000 0.315105 0.949057
v -0.283586 0.000000 0.493634
v 0.262216 0.357022 0.375097
v -0.170140 0.336162 0.375097
vt 0.666667 0.000000
vt 0.833333 0.500000
vt 0.666667 0.500000
vn -0.016278 0.337389 0.941225
vn -0.016278 0.337389 0.941225
vn -0.016278 0.337389 0.941225
v 0.283586 0.000000 0.493634
v 0.567171 0.000000 0.000000
v 0.477956 0.372859 0.000000
vt 0.833333 0.000000
vt 1.000000 0.000000
vt 1.000000 0.500000
vn 0.849019 0.203146 0.487749
vn 0.849019 0.203146 0.487749
vn 0.849019 0.203146 0.487749
v 0.283586 0.000000 0.493634
v 0.477956 0.372859 0.000000
v 0.262216 0.357022 0.375097
vt 0.833333 0.000000
vt 1.000000 0.500000
vt 0.833333 0.500000
vn 0.842753 0.214384 0.493769
vn 0.842753 0.214384 0.493769
vn 0.842753 0.214384 0.493769
v 0.477956 0.372859 0.000000
v 0.261340 0.367838 -0.375097
v 0.068150 1.400339 -0.281714
vt 0.000000 0.500000
vt 0.166667 0.500000
vt 0.166667 1.000000
vn 0.846778 0.202912 -0.491726
vn 0.846778 0.202912 -0.491726
vn 0.846778 0.202912 -0.491726
v 0.477956 0.372859 0.000000
v 0.068150 1.400339 -0.281714
v 0.249920 1.388458 0.034200
vt 0.000000 0.500000
vt 0.166667 1.000000
vt 0.000000 1.000000
vn 0.851274 0.207371 -0.482005
vn 0.851274 0.207371 -0.482005
vn 0.851274 0.207371 -0.482005
v 0.261340 0.367838 -0.375097
v -0.171016 0.346978 -0.375097
v -0.295770 1.419882 -0.281714
vt 0.166667 0.500000
vt 0.333333 0.500000
vt 0.333333 1.000000
vn -0.004160 0.086228 -0.996267
vn -0.004160 0.086228 -0.996267
vn -0.004160 0.086228 -0.996267
v 0.261340 0.367838 -0.375097
v -0.295770 1.419882 -0.281714
v 0.068150 1.400339 -0.281714
vt 0.166667 0.500000
vt 0.333333 1.000000
vt 0.166667 1.000000
vn 0.004886 0.090981 -0.995841
vn 0.004886 0.090981 -0.995841
vn 0.004886 0.090981 -0.995841
v -0.171016 0.346978 -0.375097
v -0.386756 0.331141 -0.000000
v -0.477920 1.427542 0.034200
vt 0.333333 0.500000
vt 0.500000 0.500000
vt 0.500000 1.000000
vn -0.864443 -0.056294 -0.499569
vn -0.864443 -0.056294 -0.499569
vn -0.864443 -0.056294 -0.499569
v -0.171016 0.346978 -0.375097
v -0.477920 1.427542 0.034200
v -0.295770 1.419882 -0.281714
vt 0.333333 0.500000
vt 0.500000 1.000000
vt 0.333333 1.000000
vn -0.865490 -0.057324 -0.497636
vn -0.865490 -0.057324 -0.497636
vn -0.865490 -0.057324 -0.497636
v -0.386756 0.331141 -0.000000
v -0.170140 0.336162 0.375097
v -0.296150 1.415661 0.350114
vt 0.500000 0.500000
vt 0.666667 0.500000
vt 0.666667 1.000000
vn -0.862012 -0.089075 0.499000
vn -0.862012 -0.089075 0.499000
vn -0.862012 -0.089075 0.499000
v -0.386756 0.331141 -0.000000
v -0.296150 1.415661 0.350114
v -0.477920 1.427542 0.034200
vt 0.500000 0.500000
vt 0.666667 1.000000
vt 0.500000 1.000000
vn -0.864869 -0.087333 0.494342
vn -0.864869 -0.087333 0.494342
vn -0.864869 -0.087333 0.494342
v -0.170140 0.336162 0.375097
v 0.262216 0.357022 0.375097
v 0.067770 1.396118 0.350114
vt 0.666667 0.500000
vt 0.833333 0.500000
vt 0.833333 1.000000
vn -0.001149 0.023820 0.999716
vn -0.001149 0.023820 0.999716
vn -0.001149 0.023820 0.999716
v -0.170140 0.336162 0.375097
v 0.067770 1.396118 0.350114
v -0.296150 1.415661 0.350114
vt 0.666667 0.500000
vt 0.833333 1.000000
vt 0.666667 1.000000
vn 0.001250 0.023282 0.999728
vn 0.001250 0.023282 0.999728
vn 0.001250 0.023282 0.999728
v 0.262216 0.357022 0.375097
v 0.477956 0.372859 0.000000
v 0.249920 1.388458 0.034200
vt 0.833333 0.500000
vt 1.000000 0.500000
vt 1.000000 1.000000
vn 0.850392 0.174223 0.496467
vn 0.850392 0.174223 0.496467
vn 0.850392 0.174223 0.496467
v 0.262216 0.357022 0.375097
v 0.249920 1.388458 0.034200
v 0.067770 1.396118 0.350114
vt 0.833333 0.500000
vt 1.000000 1.000000
vt 0.833333 1.000000
vn 0.855231 0.171795 0.488945
vn 0.855231 0.171795 0.488945
vn 0.855231 0.171795 0.488945
v 0.249920 1.388458 0.034200
v 0.068150 1.400339 -0.281714
v 0.352851 2.366690 -0.194381
vt 0.000000 1.000000
vt 0.166667 1.000000
vt 0.166667 1.500000
vn 0.845133 -0.204347 -0.493956
vn 0.845133 -0.204347 -0.493956
vn 0.845133 -0.204347 -0.493956
v 0.249920 1.388458 0.034200
v 0.352851 2.366690 -0.194381
v 0.478118 2.361729 0.022800
vt 0.000000 1.000000
vt 0.166667 1.500000
vt 0.000000 1.500000
vn 0.845974 -0.204120 -0.492609
vn 0.845974 -0.204120 -0.492609
vn 0.845974 -0.204120 -0.492609
v 0.068150 1.400339 -0.281714
v -0.295770 1.419882 -0.281714
v 0.102733 2.380960 -0.194381
vt 0.166667 1.000000
vt 0.333333 1.000000
vt 0.333333 1.500000
vn 0.004755 0.088541 -0.996061
vn 0.004755 0.088541 -0.996061
vn 0.004755 0.088541 -0.996061
v 0.068150 1.400339 -0.281714
v 0.102733 2.380960 -0.194381
v 0.352851 2.366690 -0.194381
vt 0.166667 1.000000
vt 0.333333 1.500000
vt 0.166667 1.500000
vn 0.005051 0.088530 -0.996061
vn 0.005051 0.088530 -0.996061
vn 0.005051 0.088530 -0.996061
v -0.295770 1.419882 -0.281714
v -0.477920 1.427542 0.034200
v -0.022118 2.390271 0.022800
vt 0.333333 1.000000
vt 0.500000 1.000000
vt 0.500000 1.500000
vn -0.799813 0.373103 -0.470205
vn -0.799813 0.373103 -0.470205
vn -0.799813 0.373103 -0.470205
v -0.295770 1.419882 -0.281714
v -0.022118 2.390271 0.022800
v 0.102733 2.380960 -0.194381
vt 0.333333 1.000000
vt 0.500000 1.500000
vt 0.333333 1.500000
vn -0.797157 0.373632 -0.474278
vn -0.797157 0.373632 -0.474278
vn -0.797157 0.373632 -0.474278
v -0.477920 1.427542 0.034200
v -0.296150 1.415661 0.350114
v 0.103149 2.385310 0.239981
vt 0.500000 1.000000
vt 0.666667 1.000000
vt 0.666667 1.500000
vn -0.795116 0.381017 0.471822
vn -0.795116 0.381017 0.471822
vn -0.795116 0.381017 0.471822
v -0.477920 1.427542 0.034200
v 0.103149 2.385310 0.239981
v -0.022118 2.390271 0.022800
vt 0.500000 1.000000
vt 0.666667 1.500000
vt 0.500000 1.500000
vn -0.796502 0.382647 0.468152
vn -0.796502 0.382647 0.468152
vn -0.796502 0.382647 0.468152
v -0.296150 1.415661 0.350114
v 0.067770 1.396118 0.350114
v 0.353267 2.371040 0.239981
vt 0.666667 1.000000
vt 0.833333 1.000000
vt 0.833333 1.500000
vn 0.005936 0.110534 0.993855
vn 0.005936 0.110534 0.993855
vn 0.005936 0.110534 0.993855
v -0.296150 1.415661 0.350114
v 0.353267 2.371040 0.239981
v 0.103149 2.385310 0.239981
vt 0.666667 1.000000
vt 0.833333 1.500000
vt 0.666667 1.500000
vn 0.006293 0.110294 0.993879
vn 0.006293 0.110294 0.993879
vn 0.006293 0.110294 0.993879
v 0.067770 1.396118 0.350114
v 0.249920 1.388458 0.034200
v 0.478118 2.361729 0.022800
vt 0.833333 1.000000
vt 1.000000 1.000000
vt 1.000000 1.500000
vn 0.847986 -0.193040 0.493615
vn 0.847986 -0.193040 0.493615
vn 0.847986 -0.193040 0.493615
v 0.067770 1.396118 0.350114
v 0.478118 2.361729 0.022800
v 0.353267 2.371040 0.239981
vt 0.833333 1.000000
vt 1.000000 1.500000
vt 0.833333 1.500000
vn 0.847218 -0.192151 0.495277
vn 0.847218 -0.192151 0.495277
vn 0.847218 -0.192151 0.495277
v 0.478118 2.361729 0.022800
v 0.352851 2.366690 -0.194381
v 0.125276 3.434787 -0.078971
vt 0.000000 1.500000
vt 0.166667 1.500000
vt 0.166667 2.000000
vn 0.844867 0.232094 -0.482008
vn 0.844867 0.232094 -0.482008
vn 0.844867 0.232094 -0.482008
v 0.478118 2.361729 0.022800
v 0.125276 3.434787 -0.078971
v 0.170469 3.439582 0.000000
vt 0.000000 1.500000
vt 0.166667 2.000000
vt 0.000000 2.000000
vn 0.838806 0.228969 -0.493941
vn 0.838806 0.228969 -0.493941
vn 0.838806 0.228969 -0.493941
v 0.352851 2.366690 -0.194381
v 0.102733 2.380960 -0.194381
v 0.034606 3.427205 -0.078971
vt 0.166667 1.500000
vt 0.333333 1.500000
vt 0.333333 2.000000
vn 0.006279 0.110046 -0.993907
vn 0.006279 0.110046 -0.993907
vn 0.006279 0.110046 -0.993907
v 0.352851 2.366690 -0.194381
v 0.034606 3.427205 -0.078971
v 0.125276 3.434787 -0.078971
vt 0.166667 1.500000
vt 0.333333 2.000000
vt 0.166667 2.000000
vn -0.008828 0.105563 -0.994373
vn -0.008828 0.105563 -0.994373
vn -0.008828 0.105563 -0.994373
v 0.102733 2.380960 -0.194381
v -0.022118 2.390271 0.022800
v -0.010869 3.424418 -0.000000
vt 0.333333 1.500000
vt 0.500000 1.500000
vt 0.500000 2.000000
vn -0.866983 -0.001557 -0.498335
vn -0.866983 -0.001557 -0.498335
vn -0.866983 -0.001557 -0.498335
v 0.102733 2.380960 -0.194381
v -0.010869 3.424418 -0.000000
v 0.034606 3.427205 -0.078971
vt 0.333333 1.500000
vt 0.500000 2.000000
vt 0.333333 2.000000
vn -0.866564 -0.001376 -0.499064
vn -0.866564 -0.001376 -0.499064
vn -0.866564 -0.001376 -0.499064
v -0.022118 2.390271 0.022800
v 0.103149 2.385310 0.239981
v 0.034324 3.429213 0.078971
vt 0.500000 1.500000
vt 0.666667 1.500000
vt 0.666667 2.000000
vn -0.865865 0.020013 0.499877
vn -0.865865 0.020013 0.499877
vn -0.865865 0.020013 0.499877
v -0.022118 2.390271 0.022800
v 0.034324 3.429213 0.078971
v -0.010869 3.424418 -0.000000
vt 0.500000 1.500000
vt 0.666667 2.000000
vt 0.500000 2.000000
vn -0.868275 0.020372 0.495665
vn -0.868275 0.020372 0.495665
vn -0.868275 0.020372 0.495665
v 0.103149 2.385310 0.239981
v 0.353267 2.371040 0.239981
v 0.124994 3.436795 0.078971
vt 0.666667 1.500000
vt 0.833333 1.500000
vt 0.833333 2.000000
vn 0.008626 0.151181 0.988468
vn 0.008626 0.151181 0.988468
vn 0.008626 0.151181 0.988468
v 0.103149 2.385310 0.239981
v 0.124994 3.436795 0.078971
v 0.034324 3.429213 0.078971
vt 0.666667 1.500000
vt 0.833333 2.000000
vt 0.666667 2.000000
vn -0.012678 0.151607 0.988359
vn -0.012678 0.151607 0.988359
vn -0.012678 0.151607 0.988359
v 0.353267 2.371040 0.239981
v 0.478118 2.361729 0.022800
v 0.170469 3.439582 0.000000
vt 0.833333 1.500000
vt 1.000000 1.500000
vt 1.000000 2.000000
vn 0.843835 0.250887 0.474340
vn 0.843835 0.250887 0.474340
vn 0.843835 0.250887 0.474340
v 0.353267 2.371040 0.239981
v 0.170469 3.439582 0.000000
v 0.124994 3.436795 0.078971
vt 0.833333 1.500000
vt 1.000000 2.000000
vt 0.833333 2.000000
vn 0.834575 0.252710 0.489513
vn 0.834575 0.252710 0.489513
vn 0.834575 0.252710 0.489513
v 0.283586 0.000000 -0.493634
v 0.567171 0.000000 0.000000
v 0.000000 0.000000 0.000000
vt 0.124380 -0.216506
vt 0.248759 0.000000
vt 0.000000 0.000000
vn 0.000000 -1.000000 0.000000
vn 0.000000 -1.000000 0.000000
vn 0.000000 -1.000000 0.000000
v -0.283586 0.000000 -0.493634
v 0.283586 0.000000 -0.493634
v 0.000000 0.000000 0.000000
vt -0.124380 -0.216506
vt 0.124380 -0.216506
vt 0.000000 0.000000
vn 0.000000 -1.000000 0.000000
vn 0.000000 -1.000000 0.000000
vn 0.000000 -1.000000 0.000000
v -0.567171 0.000000 -0.000000
v -0.283586 0.000000 -0.493634
v 0.000000 0.000000 0.000000
vt -0.248759 -0.000000
vt -0.124380 -0.216506
vt 0.000000 0.000000
vn 0.000000 -1.000000 0.000000
vn 0.000000 -1.000000 0.000000
vn 0.000000 -1.000000 0.000000
v -0.283586 0.000000 0.493634
v -0.567171 0.000000 -0.000000
v 0.000000 0.000000 0.000000
vt -0.124380 0.216506
vt -0.248759 -0.000000
vt 0.000000 0.000000
vn 0.000000 -1.000000 -0.000000
vn 0.000000 -1.000000 -0.000000
vn 0.000000 -1.000000 -0.000000
v 0.283586 0.000000 0.493634
v -0.283586 0.000000 0.493634
v 0.000000 0.000000 0.000000
vt 0.124380 0.216506
vt -0.124380 0.216506
vt 0.000000 0.000000
vn 0.000000 -1.000000 0.000000
vn 0.000000 -1.000000 0.000000
vn 0.000000 -1.000000 0.000000
v 0.567171 0.000000 0.000000
v 0.283586 0.000000 0.493634
v 0.000000 0.000000 0.000000
vt 0.248759 0.000000
vt 0.124380 0.216506
vt 0.000000 0.000000
vn 0.000000 -1.000000 0.000000
vn 0.000000 -1.000000 0.000000
vn 0.000000 -1.000000 0.000000
v 0.079800 3.432000 0.000000
v 0.170469 3.439582 0.000000
v 0.125276 3.434787 -0.078971
vt 0.035000 0.000000
vt 0.074767 0.000000
vt 0.054945 -0.034636
vn -0.083328 0.996440 -0.012820
vn -0.083328 0.996440 -0.012820
vn -0.083328 0.996440 -0.012820
v 0.079800 3.432000 0.000000
v 0.125276 3.434787 -0.078971
v 0.034606 3.427205 -0.078971
vt 0.035000 0.000000
vt 0.054945 -0.034636
vt 0.015178 -0.034636
vn -0.083328 0.996440 -0.012820
vn -0.083328 0.996440 -0.012820
vn -0.083328 0.996440 -0.012820
v 0.079800 3.432000 0.000000
v 0.034606 3.427205 -0.078971
v -0.010869 3.424418 -0.000000
vt 0.035000 0.000000
vt 0.015178 -0.034636
vt -0.004767 -0.000000
vn -0.083328 0.996440 -0.012820
vn -0.083328 0.996440 -0.012820
vn -0.083328 0.996440 -0.012820
v 0.079800 3.432000 0.000000
v -0.010869 3.424418 -0.000000
v 0.034324 3.429213 0.078971
vt 0.035000 0.000000
vt -0.004767 -0.000000
vt 0.015055 0.034636
vn -0.083328 0.996440 -0.012820
vn -0.083328 0.996440 -0.012820
vn -0.083328 0.996440 -0.012820
v 0.079800 3.432000 0.000000
v 0.034324 3.429213 0.078971
v 0.124994 3.436795 0.078971
vt 0.035000 0.000000
vt 0.015055 0.034636
vt 0.054822 0.034636
vn -0.083328 0.996440 -0.012820
vn -0.083328 0.996440 -0.012820
vn -0.083328 0.996440 -0.012820
v 0.079800 3.432000 0.000000
v 0.124994 3.436795 0.078971
v 0.170469 3.439582 0.000000
vt 0.035000 0.000000
vt 0.054822 0.034636
vt 0.074767 0.000000
vn -0.083328 0.996440 -0.012820
vn -0.083328 0.996440 -0.012820
vn -0.083328 0.996440 -0.012820
v 0.216049 2.118121 0.000000
v 0.049577 1.985094 -0.239194
v -0.977430 2.690155 -0.090745
vt 0.000000 0.000000
vt 0.250000 0.000000
vt 0.250000 0.500000
vn 0.372501 0.676378 -0.635418
vn 0.372501 0.676378 -0.635418
vn 0.372501 0.676378 -0.635418
v 0.216049 2.118121 0.000000
v -0.977430 2.690155 -0.090745
v -0.867157 2.767108 0.057000
vt 0.000000 0.000000
vt 0.250000 0.500000
vt 0.000000 0.500000
vn 0.373428 0.678810 -0.632272
vn 0.373428 0.678810 -0.632272
vn 0.373428 0.678810 -0.632272
v 0.049577 1.985094 -0.239194
v -0.102049 1.841879 -0.000000
v -1.070843 2.600892 0.057000
vt 0.250000 0.000000
vt 0.500000 0.000000
vt 0.500000 0.500000
vn -0.489531 -0.575644 -0.654976
vn -0.489531 -0.575644 -0.654976
vn -0.489531 -0.575644 -0.654976
v 0.049577 1.985094 -0.239194
v -1.070843 2.600892 0.057000
v -0.977430 2.690155 -0.090745
vt 0.250000 0.000000
vt 0.500000 0.500000
vt 0.250000 0.500000
vn -0.489197 -0.574386 -0.656328
vn -0.489197 -0.574386 -0.656328
vn -0.489197 -0.574386 -0.656328
v -0.102049 1.841879 -0.000000
v 0.064423 1.974906 0.239194
v -0.960570 2.677845 0.204745
vt 0.500000 0.000000
vt 0.750000 0.000000
vt 0.750000 0.500000
vn -0.443956 -0.615441 0.651257
vn -0.443956 -0.615441 0.651257
vn -0.443956 -0.615441 0.651257
v -0.102049 1.841879 -0.000000
v -0.960570 2.677845 0.204745
v -1.070843 2.600892 0.057000
vt 0.500000 0.000000
vt 0.750000 0.500000
vt 0.500000 0.500000
vn -0.443691 -0.615256 0.651612
vn -0.443691 -0.615256 0.651612
vn -0.443691 -0.615256 0.651612
v 0.064423 1.974906 0.239194
v 0.216049 2.118121 0.000000
v -0.867157 2.767108 0.057000
vt 0.750000 0.000000
vt 1.000000 0.000000
vt 1.000000 0.500000
vn 0.416773 0.638827 0.646684
vn 0.416773 0.638827 0.646684
vn 0.416773 0.638827 0.646684
v 0.064423 1.974906 0.239194
v -0.867157 2.767108 0.057000
v -0.960570 2.677845 0.204745
vt 0.750000 0.000000
vt 1.000000 0.500000
vt 0.750000 0.500000
vn 0.415705 0.637931 0.648254
vn 0.415705 0.637931 0.648254
vn 0.415705 0.637931 0.648254
v -0.867157 2.767108 0.057000
v -0.977430 2.690155 -0.090745
v -2.055578 3.522762 0.182682
vt 0.000000 0.500000
vt 0.250000 0.500000
vt 0.250000 1.000000
vn 0.367878 0.683436 -0.630540
vn 0.367878 0.683436 -0.630540
vn 0.367878 0.683436 -0.630540
v -0.867157 2.767108 0.057000
v -2.055578 3.522762 0.182682
v -2.019756 3.544890 0.228000
vt 0.000000 0.500000
vt 0.250000 1.000000
vt 0.000000 1.000000
vn 0.369683 0.685690 -0.627028
vn 0.369683 0.685690 -0.627028
vn 0.369683 0.685690 -0.627028
v -0.977430 2.690155 -0.090745
v -1.070843 2.600892 0.057000
v -2.084244 3.495110 0.228000
vt 0.250000 0.500000
vt 0.500000 0.500000
vt 0.500000 1.000000
vn -0.557510 -0.505954 -0.658174
vn -0.557510 -0.505954 -0.658174
vn -0.557510 -0.505954 -0.658174
v -0.977430 2.690155 -0.090745
v -2.084244 3.495110 0.228000
v -2.055578 3.522762 0.182682
vt 0.250000 0.500000
vt 0.500000 1.000000
vt 0.250000 1.000000
vn -0.556851 -0.504338 -0.659970
vn -0.556851 -0.504338 -0.659970
vn -0.556851 -0.504338 -0.659970
v -1.070843 2.600892 0.057000
v -0.960570 2.677845 0.204745
v -2.048422 3.517238 0.273318
vt 0.500000 0.500000
vt 0.750000 0.500000
vt 0.750000 1.000000
vn -0.438000 -0.620766 0.650235
vn -0.438000 -0.620766 0.650235
vn -0.438000 -0.620766 0.650235
v -1.070843 2.600892 0.057000
v -2.048422 3.517238 0.273318
v -2.084244 3.495110 0.228000
vt 0.500000 0.500000
vt 0.750000 1.000000
vt 0.500000 1.000000
vn -0.438358 -0.621032 0.649740
vn -0.438358 -0.621032 0.649740
vn -0.438358 -0.621032 0.649740
v -0.960570 2.677845 0.204745
v -0.867157 2.767108 0.057000
v -2.019756 3.544890 0.228000
vt 0.750000 0.500000
vt 1.000000 0.500000
vt 1.000000 1.000000
vn 0.486584 0.576814 0.656142
vn 0.486584 0.576814 0.656142
vn 0.486584 0.576814 0.656142
v -0.960570 2.677845 0.204745
v -2.019756 3.544890 0.228000
v -2.048422 3.517238 0.273318
vt 0.750000 0.500000
vt 1.000000 1.000000
vt 0.750000 1.000000
vn 0.485479 0.575410 0.658189
vn 0.485479 0.575410 0.658189
vn 0.485479 0.575410 0.658189
v 0.049577 1.985094 -0.239194
v 0.216049 2.118121 0.000000
v 0.057000 1.980000 0.000000
vt 0.021744 -0.104910
vt 0.094758 0.000000
vt 0.025000 0.000000
vn 0.655252 -0.754533 -0.036403
vn 0.655252 -0.754533 -0.036403
vn 0.655252 -0.754533 -0.036403
v -0.102049 1.841879 -0.000000
v 0.049577 1.985094 -0.239194
v 0.057000 1.980000 0.000000
vt -0.044758 -0.000000
vt 0.021744 -0.104910
vt 0.025000 0.000000
vn 0.655252 -0.754533 -0.036403
vn 0.655252 -0.754533 -0.036403
vn 0.655252 -0.754533 -0.036403
v 0.064423 1.974906 0.239194
v -0.102049 1.841879 -0.000000
v 0.057000 1.980000 0.000000
vt 0.028256 0.104910
vt -0.044758 -0.000000
vt 0.025000 0.000000
vn 0.655252 -0.754533 -0.036403
vn 0.655252 -0.754533 -0.036403
vn 0.655252 -0.754533 -0.036403
v 0.216049 2.118121 0.000000
v 0.064423 1.974906 0.239194
v 0.057000 1.980000 0.000000
vt 0.094758 0.000000
vt 0.028256 0.104910
vt 0.025000 0.000000
vn 0.655252 -0.754533 -0.036403
vn 0.655252 -0.754533 -0.036403
vn 0.655252 -0.754533 -0.036403
v -2.052000 3.520000 0.228000
v -2.019756 3.544890 0.228000
v -2.055578 3.522762 0.182682
vt -0.900000 0.100000
vt -0.885858 0.100000
vt -0.901569 0.080124
vn -0.608228 0.787931 0.096036
vn -0.608228 0.787931 0.096036
vn -0.608228 0.787931 0.096036
v -2.052000 3.520000 0.228000
v -2.055578 3.522762 0.182682
v -2.084244 3.495110 0.228000
vt -0.900000 0.100000
vt -0.901569 0.080124
vt -0.914142 0.100000
vn -0.608228 0.787931 0.096036
vn -0.608228 0.787931 0.096036
vn -0.608228 0.787931 0.096036
v -2.052000 3.520000 0.228000
v -2.084244 3.495110 0.228000
v -2.048422 3.517238 0.273318
vt -0.900000 0.100000
vt -0.914142 0.100000
vt -0.898431 0.119876
vn -0.608228 0.787931 0.096036
vn -0.608228 0.787931 0.096036
vn -0.608228 0.787931 0.096036
v -2.052000 3.520000 0.228000
v -2.048422 3.517238 0.273318
v -2.019756 3.544890 0.228000
vt -0.900000 0.100000
vt -0.898431 0.119876
vt -0.885858 0.100000
vn -0.608228 0.787931 0.096036
vn -0.608228 0.787931 0.096036
vn -0.608228 0.787931 0.096036
v 0.224302 1.847816 0.000000
v 0.091476 2.006001 -0.234498
v 1.062281 2.739298 0.138142
vt 0.000000 0.000000
vt 0.250000 0.000000
vt 0.250000 0.500000
vn 0.600121 -0.463030 -0.652271
vn 0.600121 -0.463030 -0.652271
vn 0.600121 -0.463030 -0.652271
v 0.224302 1.847816 0.000000
v 1.062281 2.739298 0.138142
v 1.157808 2.650497 0.285000
vt 0.000000 0.000000
vt 0.250000 0.500000
vt 0.000000 0.500000
vn 0.594364 -0.456052 -0.662380
vn 0.594364 -0.456052 -0.662380
vn 0.594364 -0.456052 -0.662380
v 0.091476 2.006001 -0.234498
v -0.110302 2.112184 -0.000000
v 0.939792 2.805503 0.285000
vt 0.250000 0.000000
vt 0.500000 0.000000
vt 0.500000 0.500000
vn -0.318151 0.730344 -0.604465
vn -0.318151 0.730344 -0.604465
vn -0.318151 0.730344 -0.604465
v 0.091476 2.006001 -0.234498
v 0.939792 2.805503 0.285000
v 1.062281 2.739298 0.138142
vt 0.250000 0.000000
vt 0.500000 0.500000
vt 0.250000 0.500000
vn -0.323004 0.732283 -0.599525
vn -0.323004 0.732283 -0.599525
vn -0.323004 0.732283 -0.599525
v -0.110302 2.112184 -0.000000
v 0.022524 1.953999 0.234498
v 1.035319 2.716702 0.431858
vt 0.500000 0.000000
vt 0.750000 0.000000
vt 0.750000 0.500000
vn -0.529901 0.532958 0.659667
vn -0.529901 0.532958 0.659667
vn -0.529901 0.532958 0.659667
v -0.110302 2.112184 -0.000000
v 1.035319 2.716702 0.431858
v 0.939792 2.805503 0.285000
vt 0.500000 0.000000
vt 0.750000 0.500000
vt 0.500000 0.500000
vn -0.529140 0.528564 0.663800
vn -0.529140 0.528564 0.663800
vn -0.529140 0.528564 0.663800
v 0.022524 1.953999 0.234498
v 0.224302 1.847816 0.000000
v 1.157808 2.650497 0.285000
vt 0.750000 0.000000
vt 1.000000 0.000000
vt 1.000000 0.500000
vn 0.383661 -0.671342 0.634117
vn 0.383661 -0.671342 0.634117
vn 0.383661 -0.671342 0.634117
v 0.022524 1.953999 0.234498
v 1.157808 2.650497 0.285000
v 1.035319 2.716702 0.431858
vt 0.750000 0.000000
vt 1.000000 0.500000
vt 0.750000 0.500000
vn 0.386778 -0.675930 0.627313
vn 0.386778 -0.675930 0.627313
vn 0.386778 -0.675930 0.627313
v 1.157808 2.650497 0.285000
v 1.062281 2.739298 0.138142
v 2.054132 3.653964 0.353521
vt 0.000000 0.500000
vt 0.250000 0.500000
vt 0.250000 1.000000
vn 0.580085 -0.472858 -0.663254
vn 0.580085 -0.472858 -0.663254
vn 0.580085 -0.472858 -0.663254
v 1.157808 2.650497 0.285000
v 2.054132 3.653964 0.353521
v 2.086949 3.629390 0.399000
vt 0.000000 0.500000
vt 0.250000 1.000000
vt 0.000000 1.000000
vn 0.576270 -0.469040 -0.669264
vn 0.576270 -0.469040 -0.669264
vn 0.576270 -0.469040 -0.669264
v 1.062281 2.739298 0.138142
v 0.939792 2.805503 0.285000
v 2.017051 3.674610 0.399000
vt 0.250000 0.500000
vt 0.500000 0.500000
vt 0.500000 1.000000
vn -0.436562 0.625891 -0.646277
vn -0.436562 0.625891 -0.646277
vn -0.436562 0.625891 -0.646277
v 1.062281 2.739298 0.138142
v 2.017051 3.674610 0.399000
v 2.054132 3.653964 0.353521
vt 0.250000 0.500000
vt 0.500000 1.000000
vt 0.250000 1.000000
vn -0.439112 0.627558 -0.642924
vn -0.439112 0.627558 -0.642924
vn -0.439112 0.627558 -0.642924
v 0.939792 2.805503 0.285000
v 1.035319 2.716702 0.431858
v 2.049868 3.650036 0.444479
vt 0.500000 0.500000
vt 0.750000 0.500000
vt 0.750000 1.000000
vn -0.511217 0.546734 0.663128
vn -0.511217 0.546734 0.663128
vn -0.511217 0.546734 0.663128
v 0.939792 2.805503 0.285000
v 2.049868 3.650036 0.444479
v 2.017051 3.674610 0.399000
vt 0.500000 0.500000
vt 0.750000 1.000000
vt 0.500000 1.000000
vn -0.510911 0.546205 0.663799
vn -0.510911 0.546205 0.663799
vn -0.510911 0.546205 0.663799
v 1.035319 2.716702 0.431858
v 1.157808 2.650497 0.285000
v 2.086949 3.629390 0.399000
vt 0.750000 0.500000
vt 1.000000 0.500000
vt 1.000000 1.000000
vn 0.500416 -0.552601 0.666495
vn 0.500416 -0.552601 0.666495
vn 0.500416 -0.552601 0.666495
v 1.035319 2.716702 0.431858
v 2.086949 3.629390 0.399000
v 2.049868 3.650036 0.444479
vt 0.750000 0.500000
vt 1.000000 1.000000
vt 0.750000 1.000000
vn 0.502844 -0.555554 0.662199
vn 0.502844 -0.555554 0.662199
vn 0.502844 -0.555554 0.662199
v 0.091476 2.006001 -0.234498
v 0.224302 1.847816 0.000000
v 0.057000 1.980000 0.000000
vt 0.040121 -0.102850
vt 0.098378 0.000000
vt 0.025000 0.000000
vn -0.610335 -0.772485 -0.175383
vn -0.610335 -0.772485 -0.175383
vn -0.610335 -0.772485 -0.175383
v -0.110302 2.112184 -0.000000
v 0.091476 2.006001 -0.234498
v 0.057000 1.980000 0.000000
vt -0.048378 -0.000000
vt 0.040121 -0.102850
vt 0.025000 0.000000
vn -0.610335 -0.772485 -0.175383
vn -0.610335 -0.772485 -0.175383
vn -0.610335 -0.772485 -0.175383
v 0.022524 1.953999 0.234498
v -0.110302 2.112184 -0.000000
v 0.057000 1.980000 0.000000
vt 0.009879 0.102850
vt -0.048378 -0.000000
vt 0.025000 0.000000
vn -0.610335 -0.772485 -0.175383
vn -0.610335 -0.772485 -0.175383
vn -0.610335 -0.772485 -0.175383
v 0.224302 1.847816 0.000000
v 0.022524 1.953999 0.234498
v 0.057000 1.980000 0.000000
vt 0.098378 0.000000
vt 0.009879 0.102850
vt 0.025000 0.000000
vn -0.610335 -0.772485 -0.175383
vn -0.610335 -0.772485 -0.175383
vn -0.610335 -0.772485 -0.175383
v 2.052000 3.652000 0.399000
v 2.086949 3.629390 0.399000
v 2.054132 3.653964 0.353521
vt 0.900000 0.175000
vt 0.915328 0.175000
vt 0.900935 0.155053
vn 0.542155 0.838017 0.061609
vn 0.542155 0.838017 0.061609
vn 0.542155 0.838017 0.061609
v 2.052000 3.652000 0.399000
v 2.054132 3.653964 0.353521
v 2.017051 3.674610 0.399000
vt 0.900000 0.175000
vt 0.900935 0.155053
vt 0.884672 0.175000
vn 0.542155 0.838017 0.061609
vn 0.542155 0.838017 0.061609
vn 0.542155 0.838017 0.061609
v 2.052000 3.652000 0.399000
v 2.017051 3.674610 0.399000
v 2.049868 3.650036 0.444479
vt 0.900000 0.175000
vt 0.884672 0.175000
vt 0.899065 0.194947
vn 0.542155 0.838017 0.061609
vn 0.542155 0.838017 0.061609
vn 0.542155 0.838017 0.061609
v 2.052000 3.652000 0.399000
v 2.049868 3.650036 0.444479
v 2.086949 3.629390 0.399000
vt 0.900000 0.175000
vt 0.899065 0.194947
vt 0.915328 0.175000
vn 0.542155 0.838017 0.061609
vn 0.542155 0.838017 0.061609
vn 0.542155 0.838017 0.061609
v 0.294936 1.959592 0.000000
v 0.039496 1.858395 -0.179413
v 0.160691 2.706746 -1.033290
vt 0.000000 0.000000
vt 0.250000 0.000000
vt 0.250000 0.500000
vn 0.603628 -0.606770 -0.517169
vn 0.603628 -0.606770 -0.517169
vn 0.603628 -0.606770 -0.517169
v 0.294936 1.959592 0.000000
v 0.160691 2.706746 -1.033290
v 0.318110 2.758151 -0.912000
vt 0.000000 0.000000
vt 0.250000 0.500000
vt 0.000000 0.500000
vn 0.598954 -0.609950 -0.518860
vn 0.598954 -0.609950 -0.518860
vn 0.598954 -0.609950 -0.518860
v 0.039496 1.858395 -0.179413
v -0.180936 2.000408 -0.000000
v 0.023890 2.785849 -0.912000
vt 0.250000 0.000000
vt 0.500000 0.000000
vt 0.500000 0.500000
vn -0.720150 -0.437482 -0.538511
vn -0.720150 -0.437482 -0.538511
vn -0.720150 -0.437482 -0.538511
v 0.039496 1.858395 -0.179413
v 0.023890 2.785849 -0.912000
v 0.160691 2.706746 -1.033290
vt 0.250000 0.000000
vt 0.500000 0.500000
vt 0.250000 0.500000
vn -0.725029 -0.434371 -0.534467
vn -0.725029 -0.434371 -0.534467
vn -0.725029 -0.434371 -0.534467
v -0.180936 2.000408 -0.000000
v 0.074504 2.101605 0.179413
v 0.181309 2.837254 -0.790710
vt 0.500000 0.000000
vt 0.750000 0.000000
vt 0.750000 0.500000
vn -0.583453 0.676769 0.448962
vn -0.583453 0.676769 0.448962
vn -0.583453 0.676769 0.448962
v -0.180936 2.000408 -0.000000
v 0.181309 2.837254 -0.790710
v 0.023890 2.785849 -0.912000
vt 0.500000 0.000000
vt 0.750000 0.500000
vt 0.500000 0.500000
vn -0.573835 0.679853 0.456632
vn -0.573835 0.679853 0.456632
vn -0.573835 0.679853 0.456632
v 0.074504 2.101605 0.179413
v 0.294936 1.959592 0.000000
v 0.318110 2.758151 -0.912000
vt 0.750000 0.000000
vt 1.000000 0.000000
vt 1.000000 0.500000
vn 0.715565 0.516437 0.470382
vn 0.715565 0.516437 0.470382
vn 0.715565 0.516437 0.470382
v 0.074504 2.101605 0.179413
v 0.318110 2.758151 -0.912000
v 0.181309 2.837254 -0.790710
vt 0.750000 0.000000
vt 1.000000 0.500000
vt 0.750000 0.500000
vn 0.715616 0.516385 0.470362
vn 0.715616 0.516385 0.470362
vn 0.715616 0.516385 0.470362
v 0.318110 2.758151 -0.912000
v 0.160691 2.706746 -1.033290
v 0.339116 3.766935 -1.692778
vt 0.000000 0.500000
vt 0.250000 0.500000
vt 0.250000 1.000000
vn 0.627668 -0.484615 -0.609247
vn 0.627668 -0.484615 -0.609247
vn 0.627668 -0.484615 -0.609247
v 0.318110 2.758151 -0.912000
v 0.339116 3.766935 -1.692778
v 0.387217 3.779447 -1.653000
vt 0.000000 0.500000
vt 0.250000 1.000000
vt 0.000000 1.000000
vn 0.629011 -0.483968 -0.608375
vn 0.629011 -0.483968 -0.608375
vn 0.629011 -0.483968 -0.608375
v 0.160691 2.706746 -1.033290
v 0.023890 2.785849 -0.912000
v 0.296783 3.788553 -1.653000
vt 0.250000 0.500000
vt 0.500000 0.500000
vt 0.500000 1.000000
vn -0.721804 -0.273414 -0.635801
vn -0.721804 -0.273414 -0.635801
vn -0.721804 -0.273414 -0.635801
v 0.160691 2.706746 -1.033290
v 0.296783 3.788553 -1.653000
v 0.339116 3.766935 -1.692778
vt 0.250000 0.500000
vt 0.500000 1.000000
vt 0.250000 1.000000
vn -0.728911 -0.268949 -0.629568
vn -0.728911 -0.268949 -0.629568
vn -0.728911 -0.268949 -0.629568
v 0.023890 2.785849 -0.912000
v 0.181309 2.837254 -0.790710
v 0.344884 3.801065 -1.613222
vt 0.500000 0.500000
vt 0.750000 0.500000
vt 0.750000 1.000000
vn -0.609655 0.571882 0.548883
vn -0.609655 0.571882 0.548883
vn -0.609655 0.571882 0.548883
v 0.023890 2.785849 -0.912000
v 0.344884 3.801065 -1.613222
v 0.296783 3.788553 -1.653000
vt 0.500000 0.500000
vt 0.750000 1.000000
vt 0.500000 1.000000
vn -0.605686 0.572912 0.552192
vn -0.605686 0.572912 0.552192
vn -0.605686 0.572912 0.552192
v 0.181309 2.837254 -0.790710
v 0.318110 2.758151 -0.912000
v 0.387217 3.779447 -1.653000
vt 0.750000 0.500000
vt 1.000000 0.500000
vt 1.000000 1.000000
vn 0.726897 0.370396 0.578297
vn 0.726897 0.370396 0.578297
vn 0.726897 0.370396 0.578297
v 0.181309 2.837254 -0.790710
v 0.387217 3.779447 -1.653000
v 0.344884 3.801065 -1.613222
vt 0.750000 0.500000
vt 1.000000 1.000000
vt 0.750000 1.000000
vn 0.729575 0.368077 0.576402
vn 0.729575 0.368077 0.576402
vn 0.729575 0.368077 0.576402
v 0.039496 1.858395 -0.179413
v 0.294936 1.959592 0.000000
v 0.057000 1.980000 0.000000
vt 0.017323 -0.078690
vt 0.129358 0.000000
vt 0.025000 0.000000
vn -0.070546 -0.822503 0.564369
vn -0.070546 -0.822503 0.564369
vn -0.070546 -0.822503 0.564369
v -0.180936 2.000408 -0.000000
v 0.039496 1.858395 -0.179413
v 0.057000 1.980000 0.000000
vt -0.079358 -0.000000
vt 0.017323 -0.078690
vt 0.025000 0.000000
vn -0.070546 -0.822503 0.564369
vn -0.070546 -0.822503 0.564369
vn -0.070546 -0.822503 0.564369
v 0.074504 2.101605 0.179413
v -0.180936 2.000408 -0.000000
v 0.057000 1.980000 0.000000
vt 0.032677 0.078690
vt -0.079358 -0.000000
vt 0.025000 0.000000
vn -0.070546 -0.822503 0.564369
vn -0.070546 -0.822503 0.564369
vn -0.070546 -0.822503 0.564369
v 0.294936 1.959592 0.000000
v 0.074504 2.101605 0.179413
v 0.057000 1.980000 0.000000
vt 0.129358 0.000000
vt 0.032677 0.078690
vt 0.025000 0.000000
vn -0.070546 -0.822503 0.564369
vn -0.070546 -0.822503 0.564369
vn -0.070546 -0.822503 0.564369
v 0.342000 3.784000 -1.653000
v 0.387217 3.779447 -1.653000
v 0.339116 3.766935 -1.692778
vt 0.150000 -0.725000
vt 0.169832 -0.725000
vt 0.148735 -0.742447
vn 0.091895 0.912680 -0.398210
vn 0.091895 0.912680 -0.398210
vn 0.091895 0.912680 -0.398210
v 0.342000 3.784000 -1.653000
v 0.339116 3.766935 -1.692778
v 0.296783 3.788553 -1.653000
vt 0.150000 -0.725000
vt 0.148735 -0.742447
vt 0.130168 -0.725000
vn 0.091895 0.912680 -0.398210
vn 0.091895 0.912680 -0.398210
vn 0.091895 0.912680 -0.398210
v 0.342000 3.784000 -1.653000
v 0.296783 3.788553 -1.653000
v 0.344884 3.801065 -1.613222
vt 0.150000 -0.725000
vt 0.130168 -0.725000
vt 0.151265 -0.707553
vn 0.091895 0.912680 -0.398210
vn 0.091895 0.912680 -0.398210
vn 0.091895 0.912680 -0.398210
v 0.342000 3.784000 -1.653000
v 0.344884 3.801065 -1.613222
v 0.387217 3.779447 -1.653000
vt 0.150000 -0.725000
vt 0.151265 -0.707553
vt 0.169832 -0.725000
vn 0.091895 0.912680 -0.398210
vn 0.091895 0.912680 -0.398210
vn 0.091895 0.912680 -0.398210
v 0.285503 2.035121 0.000000
v 0.007697 2.101787 -0.173177
v -0.247987 2.750855 0.793413
vt 0.000000 0.000000
vt 0.250000 0.000000
vt 0.250000 0.500000
vn 0.448060 0.792539 -0.413671
vn 0.448060 0.792539 -0.413671
vn 0.448060 0.792539 -0.413671
v 0.285503 2.035121 0.000000
v -0.247987 2.750855 0.793413
v -0.083595 2.709724 0.912000
vt 0.000000 0.000000
vt 0.250000 0.500000
vt 0.000000 0.500000
vn 0.477796 0.787558 -0.389184
vn 0.477796 0.787558 -0.389184
vn 0.477796 0.787558 -0.389184
v 0.007697 2.101787 -0.173177
v -0.171503 1.924879 -0.000000
v -0.372405 2.658276 0.912000
vt 0.250000 0.000000
vt 0.500000 0.000000
vt 0.500000 0.500000
vn -0.807315 0.360160 -0.467469
vn -0.807315 0.360160 -0.467469
vn -0.807315 0.360160 -0.467469
v 0.007697 2.101787 -0.173177
v -0.372405 2.658276 0.912000
v -0.247987 2.750855 0.793413
vt 0.250000 0.000000
vt 0.500000 0.500000
vt 0.250000 0.500000
vn -0.770253 0.416186 -0.483218
vn -0.770253 0.416186 -0.483218
vn -0.770253 0.416186 -0.483218
v -0.171503 1.924879 -0.000000
v 0.106303 1.858213 0.173177
v -0.208013 2.617145 1.030587
vt 0.500000 0.000000
vt 0.750000 0.000000
vt 0.750000 0.500000
vn -0.475578 -0.737932 0.478835
vn -0.475578 -0.737932 0.478835
vn -0.475578 -0.737932 0.478835
v -0.171503 1.924879 -0.000000
v -0.208013 2.617145 1.030587
v -0.372405 2.658276 0.912000
vt 0.500000 0.000000
vt 0.750000 0.500000
vt 0.500000 0.500000
vn -0.515573 -0.719619 0.465117
vn -0.515573 -0.719619 0.465117
vn -0.515573 -0.719619 0.465117
v 0.106303 1.858213 0.173177
v 0.285503 2.035121 0.000000
v -0.083595 2.709724 0.912000
vt 0.750000 0.000000
vt 1.000000 0.000000
vt 1.000000 0.500000
vn 0.796571 -0.284964 0.533169
vn 0.796571 -0.284964 0.533169
vn 0.796571 -0.284964 0.533169
v 0.106303 1.858213 0.173177
v -0.083595 2.709724 0.912000
v -0.208013 2.617145 1.030587
vt 0.750000 0.000000
vt 1.000000 0.500000
vt 0.750000 0.500000
vn 0.767020 -0.314292 0.559375
vn 0.767020 -0.314292 0.559375
vn 0.767020 -0.314292 0.559375
v -0.083595 2.709724 0.912000
v -0.247987 2.750855 0.793413
v -0.460018 3.713836 1.670893
vt 0.000000 0.500000
vt 0.250000 0.500000
vt 0.250000 1.000000
vn 0.553759 0.624155 -0.551164
vn 0.553759 0.624155 -0.551164
vn 0.553759 0.624155 -0.551164
v -0.083595 2.709724 0.912000
v -0.460018 3.713836 1.670893
v -0.411074 3.702031 1.710000
vt 0.000000 0.500000
vt 0.250000 1.000000
vt 0.000000 1.000000
vn 0.575842 0.619280 -0.533759
vn 0.575842 0.619280 -0.533759
vn 0.575842 0.619280 -0.533759
v -0.247987 2.750855 0.793413
v -0.372405 2.658276 0.912000
v -0.500926 3.689969 1.710000
vt 0.250000 0.500000
vt 0.500000 0.500000
vt 0.500000 1.000000
vn -0.768235 0.329044 -0.549132
vn -0.768235 0.329044 -0.549132
vn -0.768235 0.329044 -0.549132
v -0.247987 2.750855 0.793413
v -0.500926 3.689969 1.710000
v -0.460018 3.713836 1.670893
vt 0.250000 0.500000
vt 0.500000 1.000000
vt 0.250000 1.000000
vn -0.745917 0.351351 -0.565827
vn -0.745917 0.351351 -0.565827
vn -0.745917 0.351351 -0.565827
v -0.372405 2.658276 0.912000
v -0.208013 2.617145 1.030587
v -0.451982 3.678164 1.749107
vt 0.500000 0.500000
vt 0.750000 0.500000
vt 0.750000 1.000000
vn -0.575908 -0.545045 0.609308
vn -0.575908 -0.545045 0.609308
vn -0.575908 -0.545045 0.609308
v -0.372405 2.658276 0.912000
v -0.451982 3.678164 1.749107
v -0.500926 3.689969 1.710000
vt 0.500000 0.500000
vt 0.750000 1.000000
vt 0.500000 1.000000
vn -0.602670 -0.533849 0.593123
vn -0.602670 -0.533849 0.593123
vn -0.602670 -0.533849 0.593123
v -0.208013 2.617145 1.030587
v -0.083595 2.709724 0.912000
v -0.411074 3.702031 1.710000
vt 0.750000 0.500000
vt 1.000000 0.500000
vt 1.000000 1.000000
vn 0.757210 -0.238964 0.607890
vn 0.757210 -0.238964 0.607890
vn 0.757210 -0.238964 0.607890
v -0.208013 2.617145 1.030587
v -0.411074 3.702031 1.710000
v -0.451982 3.678164 1.749107
vt 0.750000 0.500000
vt 1.000000 1.000000
vt 0.750000 1.000000
vn 0.741402 -0.250984 0.622359
vn 0.741402 -0.250984 0.622359
vn 0.741402 -0.250984 0.622359
v 0.007697 2.101787 -0.173177
v 0.285503 2.035121 0.000000
v 0.057000 1.980000 0.000000
vt 0.003376 -0.075955
vt 0.125220 0.000000
vt 0.025000 0.000000
vn 0.187565 -0.777541 -0.600207
vn 0.187565 -0.777541 -0.600207
vn 0.187565 -0.777541 -0.600207
v -0.171503 1.924879 -0.000000
v 0.007697 2.101787 -0.173177
v 0.057000 1.980000 0.000000
vt -0.075220 -0.000000
vt 0.003376 -0.075955
vt 0.025000 0.000000
vn 0.187565 -0.777541 -0.600207
vn 0.187565 -0.777541 -0.600207
vn 0.187565 -0.777541 -0.600207
v 0.106303 1.858213 0.173177
v -0.171503 1.924879 -0.000000
v 0.057000 1.980000 0.000000
vt 0.046624 0.075955
vt -0.075220 -0.000000
vt 0.025000 0.000000
vn 0.187565 -0.777541 -0.600207
vn 0.187565 -0.777541 -0.600207
vn 0.187565 -0.777541 -0.600207
v 0.285503 2.035121 0.000000
v 0.106303 1.858213 0.173177
v 0.057000 1.980000 0.000000
vt 0.125220 0.000000
vt 0.046624 0.075955
vt 0.025000 0.000000
vn 0.187565 -0.777541 -0.600207
vn 0.187565 -0.777541 -0.600207
vn 0.187565 -0.777541 -0.600207
v -0.456000 3.696000 1.710000
v -0.411074 3.702031 1.710000
v -0.460018 3.713836 1.670893
vt -0.200000 0.750000
vt -0.180296 0.750000
vt -0.201762 0.732848
vn -0.120617 0.898461 0.422160
vn -0.120617 0.898461 0.422160
vn -0.120617 0.898461 0.422160
v -0.456000 3.696000 1.710000
v -0.460018 3.713836 1.670893
v -0.500926 3.689969 1.710000
vt -0.200000 0.750000
vt -0.201762 0.732848
vt -0.219704 0.750000
vn -0.120617 0.898461 0.422160
vn -0.120617 0.898461 0.422160
vn -0.120617 0.898461 0.422160
v -0.456000 3.696000 1.710000
v -0.500926 3.689969 1.710000
v -0.451982 3.678164 1.749107
vt -0.200000 0.750000
vt -0.219704 0.750000
vt -0.198238 0.767152
vn -0.120617 0.898461 0.422160
vn -0.120617 0.898461 0.422160
vn -0.120617 0.898461 0.422160
v -0.456000 3.696000 1.710000
v -0.451982 3.678164 1.749107
v -0.411074 3.702031 1.710000
vt -0.200000 0.750000
vt -0.198238 0.767152
vt -0.180296 0.750000
vn -0.120617 0.898461 0.422160
vn -0.120617 0.898461 0.422160
vn -0.120617 0.898461 0.422160
v 0.289661 1.936461 0.000000
v 0.057664 1.982116 -0.239383
v 0.513644 3.433953 -0.125377
vt 0.000000 0.000000
vt 0.250000 0.000000
vt 0.250000 0.500000
vn 0.692896 -0.162454 -0.702498
vn 0.692896 -0.162454 -0.702498
vn 0.692896 -0.162454 -0.702498
v 0.289661 1.936461 0.000000
v 0.513644 3.433953 -0.125377
v 0.656620 3.403780 0.022800
vt 0.000000 0.000000
vt 0.250000 0.500000
vt 0.000000 0.500000
vn 0.693321 -0.162482 -0.702072
vn 0.693321 -0.162482 -0.702072
vn 0.693321 -0.162482 -0.702072
v 0.057664 1.982116 -0.239383
v -0.175661 2.023539 -0.000000
v 0.369380 3.460220 0.022800
vt 0.250000 0.000000
vt 0.500000 0.000000
vt 0.500000 0.500000
vn -0.667403 0.264245 -0.696238
vn -0.667403 0.264245 -0.696238
vn -0.667403 0.264245 -0.696238
v 0.057664 1.982116 -0.239383
v 0.369380 3.460220 0.022800
v 0.513644 3.433953 -0.125377
vt 0.250000 0.000000
vt 0.500000 0.500000
vt 0.250000 0.500000
vn -0.667207 0.264238 -0.696429
vn -0.667207 0.264238 -0.696429
vn -0.667207 0.264238 -0.696429
v -0.175661 2.023539 -0.000000
v 0.056336 1.977884 0.239383
v 0.512356 3.430047 0.170977
vt 0.500000 0.000000
vt 0.750000 0.000000
vt 0.750000 0.500000
vn -0.672685 0.244146 0.698490
vn -0.672685 0.244146 0.698490
vn -0.672685 0.244146 0.698490
v -0.175661 2.023539 -0.000000
v 0.512356 3.430047 0.170977
v 0.369380 3.460220 0.022800
vt 0.500000 0.000000
vt 0.750000 0.500000
vt 0.500000 0.500000
vn -0.672553 0.244062 0.698646
vn -0.672553 0.244062 0.698646
vn -0.672553 0.244062 0.698646
v 0.056336 1.977884 0.239383
v 0.289661 1.936461 0.000000
v 0.656620 3.403780 0.022800
vt 0.750000 0.000000
vt 1.000000 0.000000
vt 1.000000 0.500000
vn 0.688007 -0.182975 0.702258
vn 0.688007 -0.182975 0.702258
vn 0.688007 -0.182975 0.702258
v 0.056336 1.977884 0.239383
v 0.656620 3.403780 0.022800
v 0.512356 3.430047 0.170977
vt 0.750000 0.000000
vt 1.000000 0.500000
vt 0.750000 0.500000
vn 0.687999 -0.182970 0.702267
vn 0.687999 -0.182970 0.702267
vn 0.687999 -0.182970 0.702267
v 0.656620 3.403780 0.022800
v 0.513644 3.433953 -0.125377
v 0.855316 4.400893 0.011416
vt 0.000000 0.500000
vt 0.250000 0.500000
vt 0.250000 1.000000
vn 0.696711 -0.146851 -0.702160
vn 0.696711 -0.146851 -0.702160
vn 0.696711 -0.146851 -0.702160
v 0.656620 3.403780 0.022800
v 0.855316 4.400893 0.011416
v 0.898993 4.390738 0.057000
vt 0.000000 0.500000
vt 0.250000 1.000000
vt 0.000000 1.000000
vn 0.697633 -0.147024 -0.701207
vn 0.697633 -0.147024 -0.701207
vn 0.697633 -0.147024 -0.701207
v 0.513644 3.433953 -0.125377
v 0.369380 3.460220 0.022800
v 0.811007 4.409262 0.057000
vt 0.250000 0.500000
vt 0.500000 0.500000
vt 0.500000 1.000000
vn -0.647747 0.326233 -0.688473
vn -0.647747 0.326233 -0.688473
vn -0.647747 0.326233 -0.688473
v 0.513644 3.433953 -0.125377
v 0.811007 4.409262 0.057000
v 0.855316 4.400893 0.011416
vt 0.250000 0.500000
vt 0.500000 1.000000
vt 0.250000 1.000000
vn -0.647224 0.326171 -0.688995
vn -0.647224 0.326171 -0.688995
vn -0.647224 0.326171 -0.688995
v 0.369380 3.460220 0.022800
v 0.512356 3.430047 0.170977
v 0.854684 4.399107 0.102584
vt 0.500000 0.500000
vt 0.750000 0.500000
vt 0.750000 1.000000
vn -0.660911 0.282540 0.695247
vn -0.660911 0.282540 0.695247
vn -0.660911 0.282540 0.695247
v 0.369380 3.460220 0.022800
v 0.854684 4.399107 0.102584
v 0.811007 4.409262 0.057000
vt 0.500000 0.500000
vt 0.750000 1.000000
vt 0.500000 1.000000
vn -0.660491 0.282281 0.695751
vn -0.660491 0.282281 0.695751
vn -0.660491 0.282281 0.695751
v 0.512356 3.430047 0.170977
v 0.656620 3.403780 0.022800
v 0.898993 4.390738 0.057000
vt 0.750000 0.500000
vt 1.000000 0.500000
vt 1.000000 1.000000
vn 0.685775 -0.192730 0.701832
vn 0.685775 -0.192730 0.701832
vn 0.685775 -0.192730 0.701832
v 0.512356 3.430047 0.170977
v 0.898993 4.390738 0.057000
v 0.854684 4.399107 0.102584
vt 0.750000 0.500000
vt 1.000000 1.000000
vt 0.750000 1.000000
vn 0.685712 -0.192696 0.701902
vn 0.685712 -0.192696 0.701902
vn 0.685712 -0.192696 0.701902
v 0.057664 1.982116 -0.239383
v 0.289661 1.936461 0.000000
v 0.057000 1.980000 0.000000
vt 0.025291 -0.104993
vt 0.127044 0.000000
vt 0.025000 0.000000
vn -0.183934 -0.982896 -0.009197
vn -0.183934 -0.982896 -0.009197
vn -0.183934 -0.982896 -0.009197
v -0.175661 2.023539 -0.000000
v 0.057664 1.982116 -0.239383
v 0.057000 1.980000 0.000000
vt -0.077044 -0.000000
vt 0.025291 -0.104993
vt 0.025000 0.000000
vn -0.183934 -0.982896 -0.009197
vn -0.183934 -0.982896 -0.009197
vn -0.183934 -0.982896 -0.009197
v 0.056336 1.977884 0.239383
v -0.175661 2.023539 -0.000000
v 0.057000 1.980000 0.000000
vt 0.024709 0.104993
vt -0.077044 -0.000000
vt 0.025000 0.000000
vn -0.183934 -0.982896 -0.009197
vn -0.183934 -0.982896 -0.009197
vn -0.183934 -0.982896 -0.009197
v 0.289661 1.936461 0.000000
v 0.056336 1.977884 0.239383
v 0.057000 1.980000 0.000000
vt 0.127044 0.000000
vt 0.024709 0.104993
vt 0.025000 0.000000
vn -0.183934 -0.982896 -0.009197
vn -0.183934 -0.982896 -0.009197
vn -0.183934 -0.982896 -0.009197
v 0.855000 4.400000 0.057000
v 0.898993 4.390738 0.057000
v 0.855316 4.400893 0.011416
vt 0.375000 0.025000
vt 0.394295 0.025000
vt 0.375138 0.005007
vn 0.205967 0.978342 0.020597
vn 0.205967 0.978342 0.020597
vn 0.205967 0.978342 0.020597
v 0.855000 4.400000 0.057000
v 0.855316 4.400893 0.011416
v 0.811007 4.409262 0.057000
vt 0.375000 0.025000
vt 0.375138 0.005007
vt 0.355705 0.025000
vn 0.205967 0.978342 0.020597
vn 0.205967 0.978342 0.020597
vn 0.205967 0.978342 0.020597
v 0.855000 4.400000 0.057000
v 0.811007 4.409262 0.057000
v 0.854684 4.399107 0.102584
vt 0.375000 0.025000
vt 0.355705 0.025000
vt 0.374862 0.044993
vn 0.205967 0.978342 0.020597
vn 0.205967 0.978342 0.020597
vn 0.205967 0.978342 0.020597
v 0.855000 4.400000 0.057000
v 0.854684 4.399107 0.102584
v 0.898993 4.390738 0.057000
vt 0.375000 0.025000
vt 0.374862 0.044993
vt 0.394295 0.025000
vn 0.205967 0.978342 0.020597
vn 0.205967 0.978342 0.020597
vn 0.205967 0.978342 0.020597
v -3.644740 3.460371 1.494093
v -0.577820 3.460371 1.494093
v -0.577820 4.477229 -0.983373
vt 0.000000 0.000000
vt 1.000000 0.000000
vt 1.000000 1.000000
vn -0.000000 0.925108 0.379704
vn -0.000000 0.925108 0.379704
vn -0.000000 0.925108 0.379704
v -3.644740 3.460371 1.494093
v -0.577820 4.477229 -0.983373
v -3.644740 4.477229 -0.983373
vt 0.000000 0.000000
vt 1.000000 1.000000
vt 0.000000 1.000000
vn 0.000000 0.925108 0.379704
vn 0.000000 0.925108 0.379704
vn 0.000000 0.925108 0.379704
v -3.529051 4.701092 -1.483300
v -3.529051 4.701092 1.583620
v -1.149509 3.553308 1.583620
vt 0.000000 0.000000
vt 1.000000 0.000000
vt 1.000000 1.000000
vn 0.434454 0.900694 -0.000000
vn 0.434454 0.900694 -0.000000
vn 0.434454 0.900694 -0.000000
v -3.529051 4.701092 -1.483300
v -1.149509 3.553308 1.583620
v -1.149509 3.553308 -1.483300
vt 0.000000 0.000000
vt 1.000000 1.000000
vt 0.000000 1.000000
vn 0.434454 0.900694 0.000000
vn 0.434454 0.900694 0.000000
vn 0.434454 0.900694 0.000000
v -3.970620 4.303200 1.690939
v -0.707940 4.303200 1.690939
v -0.707940 4.303200 -1.180219
vt 0.000000 0.000000
vt 1.000000 0.000000
vt 1.000000 1.000000
vn -0.000000 1.000000 0.000000
vn -0.000000 1.000000 0.000000
vn -0.000000 1.000000 0.000000
v -3.970620 4.303200 1.690939
v -0.707940 4.303200 -1.180219
v -3.970620 4.303200 -1.180219
vt 0.000000 0.000000
vt 1.000000 1.000000
vt 0.000000 1.000000
vn 0.000000 1.000000 0.000000
vn 0.000000 1.000000 0.000000
vn 0.000000 1.000000 0.000000
v 0.517491 3.309978 0.680546
v 3.042404 3.309978 2.521497
v 4.529530 4.346022 0.481864
vt 0.000000 0.000000
vt 1.000000 0.000000
vt 1.000000 1.000000
vn -0.223700 0.925108 0.306811
vn -0.223700 0.925108 0.306811
vn -0.223700 0.925108 0.306811
v 0.517491 3.309978 0.680546
v 4.529530 4.346022 0.481864
v 2.004617 4.346022 -1.359087
vt 0.000000 0.000000
vt 1.000000 1.000000
vt 0.000000 1.000000
vn -0.223700 0.925108 0.306811
vn -0.223700 0.925108 0.306811
vn -0.223700 0.925108 0.306811
v 2.401141 4.571121 -1.695556
v 0.560190 4.571121 0.829356
v 2.519204 3.401679 2.257702
vt 0.000000 0.000000
vt 1.000000 0.000000
vt 1.000000 1.000000
vn 0.351051 0.900694 0.255957
vn 0.351051 0.900694 0.255957
vn 0.351051 0.900694 0.255957
v 2.401141 4.571121 -1.695556
v 2.519204 3.401679 2.257702
v 4.360155 3.401679 -0.267211
vt 0.000000 0.000000
vt 1.000000 1.000000
vt 0.000000 1.000000
vn 0.351051 0.900694 0.255957
vn 0.351051 0.900694 0.255957
vn 0.351051 0.900694 0.255957
v 0.260718 4.162400 1.209515
v 3.359997 4.162400 2.411611
v 4.417842 4.162400 -0.315755
vt 0.000000 0.000000
vt 1.000000 0.000000
vt 1.000000 1.000000
vn -0.000000 1.000000 0.000000
vn -0.000000 1.000000 0.000000
vn -0.000000 1.000000 0.000000
v 0.260718 4.162400 1.209515
v 4.417842 4.162400 -0.315755
v 1.318563 4.162400 -1.517851
vt 0.000000 0.000000
vt 1.000000 1.000000
vt 0.000000 1.000000
vn 0.000000 1.000000 0.000000
vn 0.000000 1.000000 0.000000
vn 0.000000 1.000000 0.000000
v -1.219839 3.670778 -2.735849
v -0.264226 3.670778 0.239229
v 2.139051 4.706822 -0.532718
vt 0.000000 0.000000
vt 1.000000 0.000000
vt 1.000000 1.000000
vn -0.361512 0.925108 0.116120
vn -0.361512 0.925108 0.116120
vn -0.361512 0.925108 0.116120
v -1.219839 3.670778 -2.735849
v 2.139051 4.706822 -0.532718
v 1.183439 4.706822 -3.507796
vt 0.000000 0.000000
vt 1.000000 1.000000
vt 0.000000 1.000000
vn -0.361512 0.925108 0.116120
vn -0.361512 0.925108 0.116120
vn -0.361512 0.925108 0.116120
v 1.702071 4.931921 -3.546062
v -1.273007 4.931921 -2.590450
v -0.531573 3.762479 -0.282165
vt 0.000000 0.000000
vt 1.000000 0.000000
vt 1.000000 1.000000
vn 0.132864 0.900694 0.413640
vn 0.132864 0.900694 0.413640
vn 0.132864 0.900694 0.413640
v 1.702071 4.931921 -3.546062
v -0.531573 3.762479 -0.282165
v 2.443505 3.762479 -1.237777
vt 0.000000 0.000000
vt 1.000000 1.000000
vt 0.000000 1.000000
vn 0.132864 0.900694 0.413640
vn 0.132864 0.900694 0.413640
vn 0.132864 0.900694 0.413640
v -1.823801 4.523200 -1.891975
v 0.631046 4.523200 0.349520
v 2.603561 4.523200 -1.810745
vt 0.000000 0.000000
vt 1.000000 0.000000
vt 1.000000 1.000000
vn 0.000000 1.000000 0.000000
vn 0.000000 1.000000 0.000000
vn 0.000000 1.000000 0.000000
v -1.823801 4.523200 -1.891975
v 2.603561 4.523200 -1.810745
v 0.148714 4.523200 -4.052240
vt 0.000000 0.000000
vt 1.000000 1.000000
vt 0.000000 1.000000
vn -0.000000 1.000000 0.000000
vn -0.000000 1.000000 0.000000
vn -0.000000 1.000000 0.000000
v -1.299445 3.353978 0.252151
v -2.280035 3.353978 3.219090
v 0.116667 4.390022 4.011214
vt 0.000000 0.000000
vt 1.000000 0.000000
vt 1.000000 1.000000
vn -0.360523 0.925108 -0.119155
vn -0.360523 0.925108 -0.119155
vn -0.360523 0.925108 -0.119155
v -1.299445 3.353978 0.252151
v 0.116667 4.390022 4.011214
v 1.097258 4.390022 1.044275
vt 0.000000 0.000000
vt 1.000000 1.000000
vt 0.000000 1.000000
vn -0.360523 0.925108 -0.119155
vn -0.360523 0.925108 -0.119155
vn -0.360523 0.925108 -0.119155
v 1.538871 4.615121 1.318904
v -1.428068 4.615121 0.338313
v -2.188882 3.445679 2.640284
vt 0.000000 0.000000
vt 1.000000 0.000000
vt 1.000000 1.000000
vn -0.136336 0.900694 0.412508
vn -0.136336 0.900694 0.412508
vn -0.136336 0.900694 0.412508
v 1.538871 4.615121 1.318904
v -2.188882 3.445679 2.640284
v 0.778057 3.445679 3.620874
vt 0.000000 0.000000
vt 1.000000 1.000000
vt 0.000000 1.000000
vn -0.136336 0.900694 0.412508
vn -0.136336 0.900694 0.412508
vn -0.136336 0.900694 0.412508
v -2.569028 4.206400 1.076832
v -1.090867 4.206400 4.054350
v 1.529348 4.206400 2.753568
vt 0.000000 0.000000
vt 1.000000 0.000000
vt 1.000000 1.000000
vn 0.000000 1.000000 0.000000
vn 0.000000 1.000000 0.000000
vn 0.000000 1.000000 0.000000
v -2.569028 4.206400 1.076832
v 1.529348 4.206400 2.753568
v 0.051187 4.206400 -0.223950
vt 0.000000 0.000000
vt 1.000000 1.000000
vt 0.000000 1.000000
vn -0.000000 1.000000 0.000000
vn -0.000000 1.000000 0.000000
vn -0.000000 1.000000 0.000000
v 0.974298 4.248406 -1.882646
v -1.754173 4.248406 0.071802
v -0.175364 5.361194 2.275869
vt 0.000000 0.000000
vt 1.000000 0.000000
vt 1.000000 1.000000
vn -0.221113 0.925108 -0.308681
vn -0.221113 0.925108 -0.308681
vn -0.221113 0.925108 -0.308681
v 0.974298 4.248406 -1.882646
v -0.175364 5.361194 2.275869
v 2.553107 5.361194 0.321421
vt 0.000000 0.000000
vt 1.000000 1.000000
vt 0.000000 1.000000
vn -0.221113 0.925108 -0.308681
vn -0.221113 0.925108 -0.308681
vn -0.221113 0.925108 -0.308681
v 2.740013 5.591233 0.836691
v 0.785565 5.591233 -1.891780
v -1.331384 4.335167 -0.375375
vt 0.000000 0.000000
vt 1.000000 0.000000
vt 1.000000 1.000000
vn -0.353191 0.900694 0.252996
vn -0.353191 0.900694 0.252996
vn -0.353191 0.900694 0.252996
v 2.740013 5.591233 0.836691
v -1.331384 4.335167 -0.375375
v 0.623064 4.335167 2.353096
vt 0.000000 0.000000
vt 1.000000 1.000000
vt 0.000000 1.000000
vn -0.353191 0.900694 0.252996
vn -0.353191 0.900694 0.252996
vn -0.353191 0.900694 0.252996
v -1.141591 5.139200 -1.571600
v -0.817849 5.139200 1.984172
v 2.311231 5.139200 1.699280
vt 0.000000 0.000000
vt 1.000000 0.000000
vt 1.000000 1.000000
vn 0.000000 1.000000 0.000000
vn 0.000000 1.000000 0.000000
vn 0.000000 1.000000 0.000000
v -1.141591 5.139200 -1.571600
v 2.311231 5.139200 1.699280
v 1.987489 5.139200 -1.856492
vt 0.000000 0.000000
vt 1.000000 1.000000
vt 0.000000 1.000000
vn -0.000000 1.000000 0.000000
vn -0.000000 1.000000 0.000000
vn -0.000000 1.000000 0.000000
v 0.123782 4.008350 -1.924410
v -2.769436 4.008350 -1.948734
v -2.789086 4.967650 0.388416
vt 0.000000 0.000000
vt 1.000000 0.000000
vt 1.000000 1.000000
vn 0.003192 0.925108 -0.379690
vn 0.003192 0.925108 -0.379690
vn 0.003192 0.925108 -0.379690
v 0.123782 4.008350 -1.924410
v -2.789086 4.967650 0.388416
v 0.104132 4.967650 0.412741
vt 0.000000 0.000000
vt 1.000000 1.000000
vt 0.000000 1.000000
vn 0.003192 0.925108 -0.379690
vn 0.003192 0.925108 -0.379690
vn 0.003192 0.925108 -0.379690
v 0.003838 5.187808 0.895158
v 0.028163 5.187808 -1.998060
v -2.216609 4.104992 -2.016933
vt 0.000000 0.000000
vt 1.000000 0.000000
vt 1.000000 1.000000
vn -0.434439 0.900694 -0.003653
vn -0.434439 0.900694 -0.003653
vn -0.434439 0.900694 -0.003653
v 0.003838 5.187808 0.895158
v -2.216609 4.104992 -2.016933
v -2.240934 4.104992 0.876285
vt 0.000000 0.000000
vt 1.000000 1.000000
vt 0.000000 1.000000
vn -0.434439 0.900694 -0.003653
vn -0.434439 0.900694 -0.003653
vn -0.434439 0.900694 -0.003653
v -1.982401 4.822400 -2.618720
v -2.830668 4.822400 0.340085
v -0.226919 4.822400 1.086560
vt 0.000000 0.000000
vt 1.000000 0.000000
vt 1.000000 1.000000
vn 0.000000 1.000000 -0.000000
vn 0.000000 1.000000 -0.000000
vn 0.000000 1.000000 -0.000000
v -1.982401 4.822400 -2.618720
v -0.226919 4.822400 1.086560
v 0.621348 4.822400 -1.872245
vt 0.000000 0.000000
vt 1.000000 1.000000
vt 0.000000 1.000000
vn 0.000000 1.000000 0.000000
vn 0.000000 1.000000 0.000000
vn 0.000000 1.000000 0.000000
v 2.018629 3.538778 -0.218341
v -0.490717 3.538778 -2.080455
v -1.994938 4.574822 -0.053397
vt 0.000000 0.000000
vt 1.000000 0.000000
vt 1.000000 1.000000
vn 0.226272 0.925108 -0.304919
vn 0.226272 0.925108 -0.304919
vn 0.226272 0.925108 -0.304919
v 2.018629 3.538778 -0.218341
v -1.994938 4.574822 -0.053397
v 0.514408 4.574822 1.808716
vt 0.000000 0.000000
vt 1.000000 1.000000
vt 0.000000 1.000000
vn 0.226272 0.925108 -0.304919
vn 0.226272 0.925108 -0.304919
vn 0.226272 0.925108 -0.304919
v 0.115069 4.799921 2.141841
v 1.977183 4.799921 -0.367506
v 0.030247 3.630479 -1.812271
vt 0.000000 0.000000
vt 1.000000 0.000000
vt 1.000000 1.000000
vn -0.348887 0.900694 -0.258899
vn -0.348887 0.900694 -0.258899
vn -0.348887 0.900694 -0.258899
v 0.115069 4.799921 2.141841
v 0.030247 3.630479 -1.812271
v -1.831867 3.630479 0.697076
vt 0.000000 0.000000
vt 1.000000 1.000000
vt 0.000000 1.000000
vn -0.348887 0.900694 -0.258899
vn -0.348887 0.900694 -0.258899
vn -0.348887 0.900694 -0.258899
v 0.034670 4.391200 -2.208245
v -1.975007 4.391200 0.439730
v 0.355210 4.391200 2.208245
vt 0.000000 0.000000
vt 1.000000 0.000000
vt 1.000000 1.000000
vn 0.000000 1.000000 -0.000000
vn 0.000000 1.000000 -0.000000
vn 0.000000 1.000000 -0.000000
v 0.034670 4.391200 -2.208245
v 0.355210 4.391200 2.208245
v 2.364887 4.391200 -0.439730
vt 0.000000 0.000000
vt 1.000000 1.000000
vt 0.000000 1.000000
vn 0.000000 1.000000 0.000000
vn 0.000000 1.000000 0.000000
vn 0.000000 1.000000 0.000000
v 2.722503 3.889908 1.968190
v 1.964264 3.889908 -0.462408
v 0.000819 4.734092 0.150100
vt 0.000000 0.000000
vt 1.000000 0.000000
vt 1.000000 1.000000
vn 0.362476 0.925108 -0.113076
vn 0.362476 0.925108 -0.113076
vn 0.362476 0.925108 -0.113076
v 2.722503 3.889908 1.968190
v 0.000819 4.734092 0.150100
v 0.759058 4.734092 2.580698
vt 0.000000 0.000000
vt 1.000000 1.000000
vt 0.000000 1.000000
vn 0.362476 0.925108 -0.113076
vn 0.362476 0.925108 -0.113076
vn 0.362476 0.925108 -0.113076
v 0.312520 4.946839 2.659947
v 2.743119 4.946839 1.901708
v 2.154821 3.993961 0.015871
vt 0.000000 0.000000
vt 1.000000 0.000000
vt 1.000000 1.000000
vn -0.129381 0.900694 -0.414742
vn -0.129381 0.900694 -0.414742
vn -0.129381 0.900694 -0.414742
v 0.312520 4.946839 2.659947
v 2.154821 3.993961 0.015871
v -0.275778 3.993961 0.774110
vt 0.000000 0.000000
vt 1.000000 1.000000
vt 0.000000 1.000000
vn -0.129381 0.900694 -0.414742
vn -0.129381 0.900694 -0.414742
vn -0.129381 0.900694 -0.414742
v 1.958465 4.646400 -0.447970
v -0.348459 4.646400 0.971477
v 0.900655 4.646400 3.001570
vt 0.000000 0.000000
vt 1.000000 0.000000
vt 1.000000 1.000000
vn 0.000000 1.000000 0.000000
vn 0.000000 1.000000 0.000000
vn 0.000000 1.000000 0.000000
v 1.958465 4.646400 -0.447970
v 0.900655 4.646400 3.001570
v 3.207579 4.646400 1.582123
vt 0.000000 0.000000
vt 1.000000 1.000000
vt 0.000000 1.000000
vn 0.000000 1.000000 -0.000000
vn 0.000000 1.000000 -0.000000
vn 0.000000 1.000000 -0.000000
usemtl Bark
f 1/1/1 2/2/2 3/3/3
f 4/4/4 5/5/5 6/6/6
f 7/7/7 8/8/8 9/9/9
f 10/10/10 11/11/11 12/12/12
f 13/13/13 14/14/14 15/15/15
f 16/16/16 17/17/17 18/18/18
f 19/19/19 20/20/20 21/21/21
f 22/22/22 23/23/23 24/24/24
f 25/25/25 26/26/26 27/27/27
f 28/28/28 29/29/29 30/30/30
f 31/31/31 32/32/32 33/33/33
f 34/34/34 35/35/35 36/36/36
f 37/37/37 38/38/38 39/39/39
f 40/40/40 41/41/41 42/42/42
f 43/43/43 44/44/44 45/45/45
f 46/46/46 47/47/47 48/48/48
f 49/49/49 50/50/50 51/51/51
f 52/52/52 53/53/53 54/54/54
f 55/55/55 56/56/56 57/57/57
f 58/58/58 59/59/59 60/60/60
f 61/61/61 62/62/62 63/63/63
f 64/64/64 65/65/65 66/66/66
f 67/67/67 68/68/68 69/69/69
f 70/70/70 71/71/71 72/72/72
f 73/73/73 74/74/74 75/75/75
f 76/76/76 77/77/77 78/78/78
f 79/79/79 80/80/80 81/81/81
f 82/82/82 83/83/83 84/84/84
f 85/85/85 86/86/86 87/87/87
f 88/88/88 89/89/89 90/90/90
f 91/91/91 92/92/92 93/93/93
f 94/94/94 95/95/95 96/96/96
f 97/97/97 98/98/98 99/99/99
f 100/100/100 101/101/101 102/102/102
f 103/103/103 104/104/104 105/105/105
f 106/106/106 107/107/107 108/108/108
f 109/109/109 110/110/110 111/111/111
f 112/112/112 113/113/113 114/114/114
f 115/115/115 116/116/116 117/117/117
f 118/118/118 119/119/119 120/120/120
f 121/121/121 122/122/122 123/123/123
f 124/124/124 125/125/125 126/126/126
f 127/127/127 128/128/128 129/129/129
f 130/130/130 131/131/131 132/132/132
f 133/133/133 134/134/134 135/135/135
f 136/136/136 137/137/137 138/138/138
f 139/139/139 140/140/140 141/141/141
f 142/142/142 143/143/143 144/144/144
f 145/145/145 146/146/146 147/147/147
f 148/148/148 149/149/149 150/150/150
f 151/151/151 152/152/152 153/153/153
f 154/154/154 155/155/155 156/156/156
f 157/157/157 158/158/158 159/159/159
f 160/160/160 161/161/161 162/162/162
f 163/163/163 164/164/164 165/165/165
f 166/166/166 167/167/167 168/168/168
f 169/169/169 170/170/170 171/171/171
f 172/172/172 173/173/173 174/174/174
f 175/175/175 176/176/176 177/177/177
f 178/178/178 179/179/179 180/180/180
f 181/181/181 182/182/182 183/183/183
f 184/184/184 185/185/185 186/186/186
f 187/187/187 188/188/188 189/189/189
f 190/190/190 191/191/191 192/192/192
f 193/193/193 194/194/194 195/195/195
f 196/196/196 197/197/197 198/198/198
f 199/199/199 200/200/200 201/201/201
f 202/202/202 203/203/203 204/204/204
f 205/205/205 206/206/206 207/207/207
f 208/208/208 209/209/209 210/210/210
f 211/211/211 212/212/212 213/213/213
f 214/214/214 215/215/215 216/216/216
f 217/217/217 218/218/218 219/219/219
f 220/220/220 221/221/221 222/222/222
f 223/223/223 224/224/224 225/225/225
f 226/226/226 227/227/227 228/228/228
f 229/229/229 230/230/230 231/231/231
f 232/232/232 233/233/233 234/234/234
f 235/235/235 236/236/236 237/237/237
f 238/238/238 239/239/239 240/240/240
f 241/241/241 242/242/242 243/243/243
f 244/244/244 245/245/245 246/246/246
f 247/247/247 248/248/248 249/249/249
f 250/250/250 251/251/251 252/252/252
f 253/253/253 254/254/254 255/255/255
f 256/256/256 257/257/257 258/258/258
f 259/259/259 260/260/260 261/261/261
f 262/262/262 263/263/263 264/264/264
f 265/265/265 266/266/266 267/267/267
f 268/268/268 269/269/269 270/270/270
f 271/271/271 272/272/272 273/273/273
f 274/274/274 275/275/275 276/276/276
f 277/277/277 278/278/278 279/279/279
f 280/280/280 281/281/281 282/282/282
f 283/283/283 284/284/284 285/285/285
f 286/286/286 287/287/287 288/288/288
f 289/289/289 290/290/290 291/291/291
f 292/292/292 293/293/293 294/294/294
f 295/295/295 296/296/296 297/297/297
f 298/298/298 299/299/299 300/300/300
f 301/301/301 302/302/302 303/303/303
f 304/304/304 305/305/305 306/306/306
f 307/307/307 308/308/308 309/309/309
f 310/310/310 311/311/311 312/312/312
f 313/313/313 314/314/314 315/315/315
f 316/316/316 317/317/317 318/318/318
f 319/319/319 320/320/320 321/321/321
f 322/322/322 323/323/323 324/324/324
f 325/325/325 326/326/326 327/327/327
f 328/328/328 329/329/329 330/330/330
f 331/331/331 332/332/332 333/333/333
f 334/334/334 335/335/335 336/336/336
f 337/337/337 338/338/338 339/339/339
f 340/340/340 341/341/341 342/342/342
f 343/343/343 344/344/344 345/345/345
f 346/346/346 347/347/347 348/348/348
f 349/349/349 350/350/350 351/351/351
f 352/352/352 353/353/353 354/354/354
f 355/355/355 356/356/356 357/357/357
f 358/358/358 359/359/359 360/360/360
f 361/361/361 362/362/362 363/363/363
f 364/364/364 365/365/365 366/366/366
f 367/367/367 368/368/368 369/369/369
f 370/370/370 371/371/371 372/372/372
f 373/373/373 374/374/374 375/375/375
f 376/376/376 377/377/377 378/378/378
f 379/379/379 380/380/380 381/381/381
f 382/382/382 383/383/383 384/384/384
f 385/385/385 386/386/386 387/387/387
f 388/388/388 389/389/389 390/390/390
f 391/391/391 392/392/392 393/393/393
f 394/394/394 395/395/395 396/396/396
f 397/397/397 398/398/398 399/399/399
f 400/400/400 401/401/401 402/402/402
f 403/403/403 404/404/404 405/405/405
f 406/406/406 407/407/407 408/408/408
f 409/409/409 410/410/410 411/411/411
f 412/412/412 413/413/413 414/414/414
f 415/415/415 416/416/416 417/417/417
f 418/418/418 419/419/419 420/420/420
f 421/421/421 422/422/422 423/423/423
f 424/424/424 425/425/425 426/426/426
f 427/427/427 428/428/428 429/429/429
f 430/430/430 431/431/431 432/432/432
f 433/433/433 434/434/434 435/435/435
f 436/436/436 437/437/437 438/438/438
f 439/439/439 440/440/440 441/441/441
f 442/442/442 443/443/443 444/444/444
f 445/445/445 446/446/446 447/447/447
f 448/448/448 449/449/449 450/450/450
f 451/451/451 452/452/452 453/453/453
f 454/454/454 455/455/455 456/456/456
f 457/457/457 458/458/458 459/459/459
f 460/460/460 461/461/461 462/462/462
f 463/463/463 464/464/464 465/465/465
f 466/466/466 467/467/467 468/468/468
f 469/469/469 470/470/470 471/471/471
f 472/472/472 473/473/473 474/474/474
f 475/475/475 476/476/476 477/477/477
f 478/478/478 479/479/479 480/480/480
f 481/481/481 482/482/482 483/483/483
f 484/484/484 485/485/485 486/486/486
f 487/487/487 488/488/488 489/489/489
f 490/490/490 491/491/491 492/492/492
f 493/493/493 494/494/494 495/495/495
f 496/496/496 497/497/497 498/498/498
f 499/499/499 500/500/500 501/501/501
f 502/502/502 503/503/503 504/504/504
f 505/505/505 506/506/506 507/507/507
f 508/508/508 509/509/509 510/510/510
f 511/511/511 512/512/512 513/513/513
f 514/514/514 515/515/515 516/516/516
f 517/517/517 518/518/518 519/519/519
f 520/520/520 521/521/521 522/522/522
f 523/523/523 524/524/524 525/525/525
f 526/526/526 527/527/527 528/528/528
f 529/529/529 530/530/530 531/531/531
f 532/532/532 533/533/533 534/534/534
f 535/535/535 536/536/536 537/537/537
f 538/538/538 539/539/539 540/540/540
usemtl Foliage
f 541/541/541 542/542/542 543/543/543
f 544/544/544 545/545/545 546/546/546
f 547/547/547 548/548/548 549/549/549
f 550/550/550 551/551/551 552/552/552
f 553/553/553 554/554/554 555/555/555
f 556/556/556 557/557/557 558/558/558
f 559/559/559 560/560/560 561/561/561
f 562/562/562 563/563/563 564/564/564
f 565/565/565 566/566/566 567/567/567
f 568/568/568 569/569/569 570/570/570
f 571/571/571 572/572/572 573/573/573
f 574/574/574 575/575/575 576/576/576
f 577/577/577 578/578/578 579/579/579
f 580/580/580 581/581/581 582/582/582
f 583/583/583 584/584/584 585/585/585
f 586/586/586 587/587/587 588/588/588
f 589/589/589 590/590/590 591/591/591
f 592/592/592 593/593/593 594/594/594
f 595/595/595 596/596/596 597/597/597
f 598/598/598 599/599/599 600/600/600
f 601/601/601 602/602/602 603/603/603
f 604/604/604 605/605/605 606/606/606
f 607/607/607 608/608/608 609/609/609
f 610/610/610 611/611/611 612/612/612
f 613/613/613 614/614/614 615/615/615
f 616/616/616 617/617/617 618/618/618
f 619/619/619 620/620/620 621/621/621
f 622/622/622 623/623/623 624/624/624
f 625/625/625 626/626/626 627/627/627
f 628/628/628 629/629/629 630/630/630
f 631/631/631 632/632/632 633/633/633
f 634/634/634 635/635/635 636/636/636
f 637/637/637 638/638/638 639/639/639
f 640/640/640 641/641/641 642/642/642
f 643/643/643 644/644/644 645/645/645
f 646/646/646 647/647/647 648/648/648
f 649/649/649 650/650/650 651/651/651
f 652/652/652 653/653/653 654/654/654
f 655/655/655 656/656/656 657/657/657
f 658/658/658 659/659/659 660/660/660
f 661/661/661 662/662/662 663/663/663
f 664/664/664 665/665/665 666/666/666
f 667/667/667 668/668/668 669/669/669
f 670/670/670 671/671/671 672/672/672
f 673/673/673 674/674/674 675/675/675
f 676/676/676 677/677/677 678/678/678
f 679/679/679 680/680/680 681/681/681
f 682/682/682 683/683/683 684/684/684
