# Oak, Y up, metres, base pivot; foliage uses only flat cards
mtllib Tree.mtl
o Quercia_03_Slanciata
s off
v 0.407965 0.000000 0.000000
v 0.203983 0.000000 -0.372391
v 0.189292 0.497417 -0.282968
vt 0.000000 0.000000
vt 0.166667 0.000000
vt 0.166667 0.500000
vn 0.871567 0.111568 -0.477414
vn 0.871567 0.111568 -0.477414
vn 0.871567 0.111568 -0.477414
v 0.407965 0.000000 0.000000
v 0.189292 0.497417 -0.282968
v 0.345140 0.504207 0.000000
vt 0.000000 0.000000
vt 0.166667 0.500000
vt 0.000000 0.500000
vn 0.869675 0.108364 -0.481584
vn 0.869675 0.108364 -0.481584
vn 0.869675 0.108364 -0.481584
v 0.203983 0.000000 -0.372391
v -0.203983 0.000000 -0.372391
v -0.121846 0.469209 -0.282968
vt 0.166667 0.000000
vt 0.333333 0.000000
vt 0.333333 0.500000
vn 0.000000 0.187213 -0.982319
vn 0.000000 0.187213 -0.982319
vn 0.000000 0.187213 -0.982319
v 0.203983 0.000000 -0.372391
v -0.121846 0.469209 -0.282968
v 0.189292 0.497417 -0.282968
vt 0.166667 0.000000
vt 0.333333 0.500000
vt 0.166667 0.500000
vn -0.015998 0.176459 -0.984178
vn -0.015998 0.176459 -0.984178
vn -0.015998 0.176459 -0.984178
v -0.203983 0.000000 -0.372391
v -0.407965 0.000000 -0.000000
v -0.277131 0.447793 -0.000000
vt 0.333333 0.000000
vt 0.500000 0.000000
vt 0.500000 0.500000
vn -0.849592 0.248230 -0.465377
vn -0.849592 0.248230 -0.465377
vn -0.849592 0.248230 -0.465377
v -0.203983 0.000000 -0.372391
v -0.277131 0.447793 -0.000000
v -0.121846 0.469209 -0.282968
vt 0.333333 0.000000
vt 0.500000 0.500000
vt 0.333333 0.500000
vn -0.859174 0.236845 -0.453568
vn -0.859174 0.236845 -0.453568
vn -0.859174 0.236845 -0.453568
v -0.407965 0.000000 -0.000000
v -0.203983 0.000000 0.372391
v -0.121287 0.454583 0.282968
vt 0.500000 0.000000
vt 0.666667 0.000000
vt 0.666667 0.500000
vn -0.850040 0.246230 0.465622
vn -0.850040 0.246230 0.465622
vn -0.850040 0.246230 0.465622
v -0.407965 0.000000 -0.000000
v -0.121287 0.454583 0.282968
v -0.277131 0.447793 -0.000000
vt 0.500000 0.000000
vt 0.666667 0.500000
vt 0.500000 0.500000
vn -0.850943 0.248625 0.462689
vn -0.850943 0.248625 0.462689
vn -0.850943 0.248625 0.462689
v -0.203983 0.000000 0.372391
v 0.203983 0.000000 0.372391
v 0.189846 0.482791 0.282968
vt 0.666667 0.000000
vt 0.833333 0.000000
vt 0.833333 0.500000
vn -0.000000 0.182124 0.983276
vn -0.000000 0.182124 0.983276
vn -0.000000 0.182124 0.983276
v -0.203983 0.000000 0.372391
v 0.189846 0.482791 0.282968
v -0.121287 0.454583 0.282968
vt 0.666667 0.000000
vt 0.833333 0.500000
vt 0.666667 0.500000
vn -0.017778 0.196098 0.980423
vn -0.017778 0.196098 0.980423
vn -0.017778 0.196098 0.980423
v 0.203983 0.000000 0.372391
v 0.407965 0.000000 0.000000
v 0.345140 0.504207 0.000000
vt 0.833333 0.000000
vt 1.000000 0.000000
vt 1.000000 0.500000
vn 0.871852 0.108635 0.477570
vn 0.871852 0.108635 0.477570
vn 0.871852 0.108635 0.477570
v 0.203983 0.000000 0.372391
v 0.345140 0.504207 0.000000
v 0.189846 0.482791 0.282968
vt 0.833333 0.000000
vt 1.000000 0.500000
vt 0.833333 0.500000
vn 0.867126 0.115148 0.484597
vn 0.867126 0.115148 0.484597
vn 0.867126 0.115148 0.484597
v 0.345140 0.504207 0.000000
v 0.189292 0.497417 -0.282968
v 0.068012 1.893640 -0.212521
vt 0.000000 0.500000
vt 0.166667 0.500000
vt 0.166667 1.000000
vn 0.870534 0.099929 -0.481855
vn 0.870534 0.099929 -0.481855
vn 0.870534 0.099929 -0.481855
v 0.345140 0.504207 0.000000
v 0.068012 1.893640 -0.212521
v 0.198438 1.877573 0.025800
vt 0.000000 0.500000
vt 0.166667 1.000000
vt 0.000000 1.000000
vn 0.875506 0.102392 -0.472235
vn 0.875506 0.102392 -0.472235
vn 0.875506 0.102392 -0.472235
v 0.189292 0.497417 -0.282968
v -0.121846 0.469209 -0.282968
v -0.193221 1.920067 -0.212521
vt 0.166667 0.500000
vt 0.333333 0.500000
vt 0.333333 1.000000
vn -0.004377 0.048283 -0.998824
vn -0.004377 0.048283 -0.998824
vn -0.004377 0.048283 -0.998824
v 0.189292 0.497417 -0.282968
v -0.193221 1.920067 -0.212521
v 0.068012 1.893640 -0.212521
vt 0.166667 0.500000
vt 0.333333 1.000000
vt 0.166667 1.000000
vn 0.005143 0.050836 -0.998694
vn 0.005143 0.050836 -0.998694
vn 0.005143 0.050836 -0.998694
v -0.121846 0.469209 -0.282968
v -0.277131 0.447793 -0.000000
v -0.324031 1.930427 0.025800
vt 0.333333 0.500000
vt 0.500000 0.500000
vt 0.500000 1.000000
vn -0.875888 -0.019317 -0.482128
vn -0.875888 -0.019317 -0.482128
vn -0.875888 -0.019317 -0.482128
v -0.121846 0.469209 -0.282968
v -0.324031 1.930427 0.025800
v -0.193221 1.920067 -0.212521
vt 0.333333 0.500000
vt 0.500000 1.000000
vt 0.333333 1.000000
vn -0.876822 -0.019810 -0.480407
vn -0.876822 -0.019810 -0.480407
vn -0.876822 -0.019810 -0.480407
v -0.277131 0.447793 -0.000000
v -0.121287 0.454583 0.282968
v -0.193611 1.914360 0.264121
vt 0.500000 0.500000
vt 0.666667 0.500000
vt 0.666667 1.000000
vn -0.874959 -0.037117 0.482773
vn -0.874959 -0.037117 0.482773
vn -0.874959 -0.037117 0.482773
v -0.277131 0.447793 -0.000000
v -0.193611 1.914360 0.264121
v -0.324031 1.930427 0.025800
vt 0.500000 0.500000
vt 0.666667 1.000000
vt 0.500000 1.000000
vn -0.877686 -0.036079 0.477876
vn -0.877686 -0.036079 0.477876
vn -0.877686 -0.036079 0.477876
v -0.121287 0.454583 0.282968
v 0.189846 0.482791 0.282968
v 0.067624 1.887933 0.264121
vt 0.666667 0.500000
vt 0.833333 0.500000
vt 0.833333 1.000000
vn -0.001206 0.013306 0.999911
vn -0.001206 0.013306 0.999911
vn -0.001206 0.013306 0.999911
v -0.121287 0.454583 0.282968
v 0.067624 1.887933 0.264121
v -0.193611 1.914360 0.264121
vt 0.666667 0.500000
vt 0.833333 1.000000
vt 0.666667 1.000000
vn 0.001312 0.012974 0.999915
vn 0.001312 0.012974 0.999915
vn 0.001312 0.012974 0.999915
v 0.189846 0.482791 0.282968
v 0.345140 0.504207 0.000000
v 0.198438 1.877573 0.025800
vt 0.833333 0.500000
vt 1.000000 0.500000
vt 1.000000 1.000000
vn 0.870873 0.083928 0.484290
vn 0.870873 0.083928 0.484290
vn 0.870873 0.083928 0.484290
v 0.189846 0.482791 0.282968
v 0.198438 1.877573 0.025800
v 0.067624 1.887933 0.264121
vt 0.833333 0.500000
vt 1.000000 1.000000
vt 0.833333 1.000000
vn 0.875143 0.082516 0.476777
vn 0.875143 0.082516 0.476777
vn 0.875143 0.082516 0.476777
v 0.198438 1.877573 0.025800
v 0.068012 1.893640 -0.212521
v 0.308052 3.200410 -0.146638
vt 0.000000 1.000000
vt 0.166667 1.000000
vt 0.166667 1.500000
vn 0.865389 -0.134628 -0.482677
vn 0.865389 -0.134628 -0.482677
vn 0.865389 -0.134628 -0.482677
v 0.198438 1.877573 0.025800
v 0.308052 3.200410 -0.146638
v 0.397929 3.193702 0.017200
vt 0.000000 1.000000
vt 0.166667 1.500000
vt 0.000000 1.500000
vn 0.866448 -0.134473 -0.480816
vn 0.866448 -0.134473 -0.480816
vn 0.866448 -0.134473 -0.480816
v 0.068012 1.893640 -0.212521
v -0.193221 1.920067 -0.212521
v 0.128799 3.219708 -0.146638
vt 0.166667 1.000000
vt 0.333333 1.000000
vt 0.333333 1.500000
vn 0.004997 0.049393 -0.998767
vn 0.004997 0.049393 -0.998767
vn 0.004997 0.049393 -0.998767
v 0.068012 1.893640 -0.212521
v 0.128799 3.219708 -0.146638
v 0.308052 3.200410 -0.146638
vt 0.166667 1.000000
vt 0.333333 1.500000
vt 0.166667 1.500000
vn 0.005316 0.049378 -0.998766
vn 0.005316 0.049378 -0.998766
vn 0.005316 0.049378 -0.998766
v -0.193221 1.920067 -0.212521
v -0.324031 1.930427 0.025800
v 0.039425 3.232298 0.017200
vt 0.333333 1.000000
vt 0.500000 1.000000
vt 0.500000 1.500000
vn -0.848054 0.233617 -0.475633
vn -0.848054 0.233617 -0.475633
vn -0.848054 0.233617 -0.475633
v -0.193221 1.920067 -0.212521
v 0.039425 3.232298 0.017200
v 0.128799 3.219708 -0.146638
vt 0.333333 1.000000
vt 0.500000 1.500000
vt 0.333333 1.500000
vn -0.845860 0.233886 -0.479394
vn -0.845860 0.233886 -0.479394
vn -0.845860 0.233886 -0.479394
v -0.324031 1.930427 0.025800
v -0.193611 1.914360 0.264121
v 0.129299 3.225590 0.181038
vt 0.500000 1.000000
vt 0.666667 1.000000
vt 0.666667 1.500000
vn -0.845075 0.238434 0.478536
vn -0.845075 0.238434 0.478536
vn -0.845075 0.238434 0.478536
v -0.324031 1.930427 0.025800
v 0.129299 3.225590 0.181038
v 0.039425 3.232298 0.017200
vt 0.500000 1.000000
vt 0.666667 1.500000
vt 0.500000 1.500000
vn -0.847038 0.239610 0.474461
vn -0.847038 0.239610 0.474461
vn -0.847038 0.239610 0.474461
v -0.193611 1.914360 0.264121
v 0.067624 1.887933 0.264121
v 0.308551 3.206292 0.181038
vt 0.666667 1.000000
vt 0.833333 1.000000
vt 0.833333 1.500000
vn 0.006247 0.061757 0.998072
vn 0.006247 0.061757 0.998072
vn 0.006247 0.061757 0.998072
v -0.193611 1.914360 0.264121
v 0.308551 3.206292 0.181038
v 0.129299 3.225590 0.181038
vt 0.666667 1.000000
vt 0.833333 1.500000
vt 0.666667 1.500000
vn 0.006633 0.061608 0.998078
vn 0.006633 0.061608 0.998078
vn 0.006633 0.061608 0.998078
v 0.067624 1.887933 0.264121
v 0.198438 1.877573 0.025800
v 0.397929 3.193702 0.017200
vt 0.833333 1.000000
vt 1.000000 1.000000
vt 1.000000 1.500000
vn 0.867020 -0.128272 0.481481
vn 0.867020 -0.128272 0.481481
vn 0.867020 -0.128272 0.481481
v 0.067624 1.887933 0.264121
v 0.397929 3.193702 0.017200
v 0.308551 3.206292 0.181038
vt 0.833333 1.000000
vt 1.000000 1.500000
vt 0.833333 1.500000
vn 0.866488 -0.127940 0.482524
vn 0.866488 -0.127940 0.482524
vn 0.866488 -0.127940 0.482524
v 0.397929 3.193702 0.017200
v 0.308052 3.200410 -0.146638
v 0.204371 4.644769 -0.059574
vt 0.000000 1.500000
vt 0.166667 1.500000
vt 0.166667 2.000000
vn 0.874642 0.091481 -0.476060
vn 0.874642 0.091481 -0.476060
vn 0.874642 0.091481 -0.476060
v 0.397929 3.193702 0.017200
v 0.204371 4.644769 -0.059574
v 0.237198 4.651253 0.000000
vt 0.000000 1.500000
vt 0.166667 2.000000
vt 0.000000 2.000000
vn 0.868112 0.089971 -0.488147
vn 0.868112 0.089971 -0.488147
vn 0.868112 0.089971 -0.488147
v 0.308052 3.200410 -0.146638
v 0.128799 3.219708 -0.146638
v 0.138649 4.634515 -0.059574
vt 0.166667 1.500000
vt 0.333333 1.500000
vt 0.333333 2.000000
vn 0.006607 0.061374 -0.998093
vn 0.006607 0.061374 -0.998093
vn 0.006607 0.061374 -0.998093
v 0.308052 3.200410 -0.146638
v 0.138649 4.634515 -0.059574
v 0.204371 4.644769 -0.059574
vt 0.166667 1.500000
vt 0.333333 2.000000
vt 0.166667 2.000000
vn -0.009283 0.059503 -0.998185
vn -0.009283 0.059503 -0.998185
vn -0.009283 0.059503 -0.998185
v 0.128799 3.219708 -0.146638
v 0.039425 3.232298 0.017200
v 0.105753 4.630747 -0.000000
vt 0.333333 1.500000
vt 0.500000 1.500000
vt 0.500000 2.000000
vn -0.876165 0.035644 -0.480692
vn -0.876165 0.035644 -0.480692
vn -0.876165 0.035644 -0.480692
v 0.128799 3.219708 -0.146638
v 0.105753 4.630747 -0.000000
v 0.138649 4.634515 -0.059574
vt 0.333333 1.500000
vt 0.500000 2.000000
vt 0.333333 2.000000
vn -0.875806 0.035718 -0.481339
vn -0.875806 0.035718 -0.481339
vn -0.875806 0.035718 -0.481339
v 0.039425 3.232298 0.017200
v 0.129299 3.225590 0.181038
v 0.138579 4.637231 0.059574
vt 0.500000 1.500000
vt 0.666667 1.500000
vt 0.666667 2.000000
vn -0.874954 0.047216 0.481898
vn -0.874954 0.047216 0.481898
vn -0.874954 0.047216 0.481898
v 0.039425 3.232298 0.017200
v 0.138579 4.637231 0.059574
v 0.105753 4.630747 -0.000000
vt 0.500000 1.500000
vt 0.666667 2.000000
vt 0.500000 2.000000
vn -0.877029 0.047478 0.478085
vn -0.877029 0.047478 0.478085
vn -0.877029 0.047478 0.478085
v 0.129299 3.225590 0.181038
v 0.308551 3.206292 0.181038
v 0.204302 4.647485 0.059574
vt 0.666667 1.500000
vt 0.833333 1.500000
vt 0.833333 2.000000
vn 0.009111 0.084633 0.996371
vn 0.009111 0.084633 0.996371
vn 0.009111 0.084633 0.996371
v 0.129299 3.225590 0.181038
v 0.204302 4.647485 0.059574
v 0.138579 4.637231 0.059574
vt 0.666667 1.500000
vt 0.833333 2.000000
vt 0.666667 2.000000
vn -0.013387 0.085807 0.996222
vn -0.013387 0.085807 0.996222
vn -0.013387 0.085807 0.996222
v 0.308551 3.206292 0.181038
v 0.397929 3.193702 0.017200
v 0.237198 4.651253 0.000000
vt 0.833333 1.500000
vt 1.000000 1.500000
vt 1.000000 2.000000
vn 0.876552 0.102212 0.470328
vn 0.876552 0.102212 0.470328
vn 0.876552 0.102212 0.470328
v 0.308551 3.206292 0.181038
v 0.237198 4.651253 0.000000
v 0.204302 4.647485 0.059574
vt 0.833333 1.500000
vt 1.000000 2.000000
vt 0.833333 2.000000
vn 0.867893 0.103723 0.485801
vn 0.867893 0.103723 0.485801
vn 0.867893 0.103723 0.485801
v 0.203983 0.000000 -0.372391
v 0.407965 0.000000 0.000000
v 0.000000 0.000000 0.000000
vt 0.124380 -0.216506
vt 0.248759 0.000000
vt 0.000000 0.000000
vn 0.000000 -1.000000 0.000000
vn 0.000000 -1.000000 0.000000
vn 0.000000 -1.000000 0.000000
v -0.203983 0.000000 -0.372391
v 0.203983 0.000000 -0.372391
v 0.000000 0.000000 0.000000
vt -0.124380 -0.216506
vt 0.124380 -0.216506
vt 0.000000 0.000000
vn 0.000000 -1.000000 0.000000
vn 0.000000 -1.000000 0.000000
vn 0.000000 -1.000000 0.000000
v -0.407965 0.000000 -0.000000
v -0.203983 0.000000 -0.372391
v 0.000000 0.000000 0.000000
vt -0.248759 -0.000000
vt -0.124380 -0.216506
vt 0.000000 0.000000
vn 0.000000 -1.000000 0.000000
vn 0.000000 -1.000000 0.000000
vn 0.000000 -1.000000 0.000000
v -0.203983 0.000000 0.372391
v -0.407965 0.000000 -0.000000
v 0.000000 0.000000 0.000000
vt -0.124380 0.216506
vt -0.248759 -0.000000
vt 0.000000 0.000000
vn 0.000000 -1.000000 -0.000000
vn 0.000000 -1.000000 -0.000000
vn 0.000000 -1.000000 -0.000000
v 0.203983 0.000000 0.372391
v -0.203983 0.000000 0.372391
v 0.000000 0.000000 0.000000
vt 0.124380 0.216506
vt -0.124380 0.216506
vt 0.000000 0.000000
vn 0.000000 -1.000000 0.000000
vn 0.000000 -1.000000 0.000000
vn 0.000000 -1.000000 0.000000
v 0.407965 0.000000 0.000000
v 0.203983 0.000000 0.372391
v 0.000000 0.000000 0.000000
vt 0.248759 0.000000
vt 0.124380 0.216506
vt 0.000000 0.000000
vn 0.000000 -1.000000 0.000000
vn 0.000000 -1.000000 0.000000
vn 0.000000 -1.000000 0.000000
v 0.171475 4.641000 0.000000
v 0.237198 4.651253 0.000000
v 0.204371 4.644769 -0.059574
vt 0.035000 0.000000
vt 0.074767 0.000000
vt 0.054945 -0.034636
vn -0.154104 0.987796 -0.022605
vn -0.154104 0.987796 -0.022605
vn -0.154104 0.987796 -0.022605
v 0.171475 4.641000 0.000000
v 0.204371 4.644769 -0.059574
v 0.138649 4.634515 -0.059574
vt 0.035000 0.000000
vt 0.054945 -0.034636
vt 0.015178 -0.034636
vn -0.154106 0.987796 -0.022606
vn -0.154106 0.987796 -0.022606
vn -0.154106 0.987796 -0.022606
v 0.171475 4.641000 0.000000
v 0.138649 4.634515 -0.059574
v 0.105753 4.630747 -0.000000
vt 0.035000 0.000000
vt 0.015178 -0.034636
vt -0.004767 -0.000000
vn -0.154107 0.987796 -0.022606
vn -0.154107 0.987796 -0.022606
vn -0.154107 0.987796 -0.022606
v 0.171475 4.641000 0.000000
v 0.105753 4.630747 -0.000000
v 0.138579 4.637231 0.059574
vt 0.035000 0.000000
vt -0.004767 -0.000000
vt 0.015055 0.034636
vn -0.154107 0.987796 -0.022606
vn -0.154107 0.987796 -0.022606
vn -0.154107 0.987796 -0.022606
v 0.171475 4.641000 0.000000
v 0.138579 4.637231 0.059574
v 0.204302 4.647485 0.059574
vt 0.035000 0.000000
vt 0.015055 0.034636
vt 0.054822 0.034636
vn -0.154105 0.987796 -0.022605
vn -0.154105 0.987796 -0.022605
vn -0.154105 0.987796 -0.022605
v 0.171475 4.641000 0.000000
v 0.204302 4.647485 0.059574
v 0.237198 4.651253 0.000000
vt 0.035000 0.000000
vt 0.054822 0.034636
vt 0.074767 0.000000
vn -0.154104 0.987796 -0.022606
vn -0.154104 0.987796 -0.022606
vn -0.154104 0.987796 -0.022606
v 0.198854 2.864278 0.000000
v 0.073825 2.684388 -0.180445
v -0.632974 3.637824 -0.068457
vt 0.000000 0.000000
vt 0.250000 0.000000
vt 0.250000 0.500000
vn 0.471474 0.439327 -0.764659
vn 0.471474 0.439327 -0.764659
vn 0.471474 0.439327 -0.764659
v 0.198854 2.864278 0.000000
v -0.632974 3.637824 -0.068457
v -0.549588 3.741885 0.043000
vt 0.000000 0.000000
vt 0.250000 0.500000
vt 0.000000 0.500000
vn 0.472028 0.439987 -0.763938
vn 0.472028 0.439987 -0.763938
vn 0.472028 0.439987 -0.763938
v 0.073825 2.684388 -0.180445
v -0.040547 2.490722 -0.000000
v -0.704741 3.517115 0.043000
vt 0.250000 0.000000
vt 0.500000 0.000000
vt 0.500000 0.500000
vn -0.580393 -0.344671 -0.737798
vn -0.580393 -0.344671 -0.737798
vn -0.580393 -0.344671 -0.737798
v 0.073825 2.684388 -0.180445
v -0.704741 3.517115 0.043000
v -0.632974 3.637824 -0.068457
vt 0.250000 0.000000
vt 0.500000 0.500000
vt 0.250000 0.500000
vn -0.577728 -0.341185 -0.741501
vn -0.577728 -0.341185 -0.741501
vn -0.577728 -0.341185 -0.741501
v -0.040547 2.490722 -0.000000
v 0.084113 2.670612 0.180445
v -0.621488 3.621176 0.154457
vt 0.500000 0.000000
vt 0.750000 0.000000
vt 0.750000 0.500000
vn -0.539470 -0.379903 0.751429
vn -0.539470 -0.379903 0.751429
vn -0.539470 -0.379903 0.751429
v -0.040547 2.490722 -0.000000
v -0.621488 3.621176 0.154457
v -0.704741 3.517115 0.043000
vt 0.500000 0.000000
vt 0.750000 0.500000
vt 0.500000 0.500000
vn -0.536391 -0.378704 0.754234
vn -0.536391 -0.378704 0.754234
vn -0.536391 -0.378704 0.754234
v 0.084113 2.670612 0.180445
v 0.198854 2.864278 0.000000
v -0.549588 3.741885 0.043000
vt 0.750000 0.000000
vt 1.000000 0.000000
vt 1.000000 0.500000
vn 0.514268 0.401446 0.757872
vn 0.514268 0.401446 0.757872
vn 0.514268 0.401446 0.757872
v 0.084113 2.670612 0.180445
v -0.549588 3.741885 0.043000
v -0.621488 3.621176 0.154457
vt 0.750000 0.000000
vt 1.000000 0.500000
vt 0.750000 0.500000
vn 0.510114 0.399481 0.761708
vn 0.510114 0.399481 0.761708
vn 0.510114 0.399481 0.761708
v -0.549588 3.741885 0.043000
v -0.632974 3.637824 -0.068457
v -1.358385 4.763735 0.137812
vt 0.000000 0.500000
vt 0.250000 0.500000
vt 0.250000 1.000000
vn 0.469354 0.442401 -0.764191
vn 0.469354 0.442401 -0.764191
vn 0.469354 0.442401 -0.764191
v -0.549588 3.741885 0.043000
v -1.358385 4.763735 0.137812
v -1.331104 4.793658 0.172000
vt 0.000000 0.500000
vt 0.250000 1.000000
vt 0.000000 1.000000
vn 0.470355 0.443098 -0.763171
vn 0.470355 0.443098 -0.763171
vn 0.470355 0.443098 -0.763171
v -0.632974 3.637824 -0.068457
v -0.704741 3.517115 0.043000
v -1.380884 4.726342 0.172000
vt 0.250000 0.500000
vt 0.500000 0.500000
vt 0.500000 1.000000
vn -0.639160 -0.281017 -0.715894
vn -0.639160 -0.281017 -0.715894
vn -0.639160 -0.281017 -0.715894
v -0.632974 3.637824 -0.068457
v -1.380884 4.726342 0.172000
v -1.358385 4.763735 0.137812
vt 0.250000 0.500000
vt 0.500000 1.000000
vt 0.250000 1.000000
vn -0.635092 -0.277089 -0.721027
vn -0.635092 -0.277089 -0.721027
vn -0.635092 -0.277089 -0.721027
v -0.704741 3.517115 0.043000
v -0.621488 3.621176 0.154457
v -1.353615 4.756265 0.206188
vt 0.500000 0.500000
vt 0.750000 0.500000
vt 0.750000 1.000000
vn -0.535398 -0.379712 0.754433
vn -0.535398 -0.379712 0.754433
vn -0.535398 -0.379712 0.754433
v -0.704741 3.517115 0.043000
v -1.353615 4.756265 0.206188
v -1.380884 4.726342 0.172000
vt 0.500000 0.500000
vt 0.750000 1.000000
vt 0.500000 1.000000
vn -0.532983 -0.378737 0.756629
vn -0.532983 -0.378737 0.756629
vn -0.532983 -0.378737 0.756629
v -0.621488 3.621176 0.154457
v -0.549588 3.741885 0.043000
v -1.331104 4.793658 0.172000
vt 0.750000 0.500000
vt 1.000000 0.500000
vt 1.000000 1.000000
vn 0.579148 0.339425 0.741200
vn 0.579148 0.339425 0.741200
vn 0.579148 0.339425 0.741200
v -0.621488 3.621176 0.154457
v -1.331104 4.793658 0.172000
v -1.353615 4.756265 0.206188
vt 0.750000 0.500000
vt 1.000000 1.000000
vt 0.750000 1.000000
vn 0.574393 0.336472 0.746230
vn 0.574393 0.336472 0.746230
vn 0.574393 0.336472 0.746230
v 0.073825 2.684388 -0.180445
v 0.198854 2.864278 0.000000
v 0.078969 2.677500 0.000000
vt 0.021744 -0.104910
vt 0.094758 0.000000
vt 0.025000 0.000000
vn 0.840723 -0.539628 -0.044565
vn 0.840723 -0.539628 -0.044565
vn 0.840723 -0.539628 -0.044565
v -0.040547 2.490722 -0.000000
v 0.073825 2.684388 -0.180445
v 0.078969 2.677500 0.000000
vt -0.044758 -0.000000
vt 0.021744 -0.104910
vt 0.025000 0.000000
vn 0.841480 -0.538449 -0.044542
vn 0.841480 -0.538449 -0.044542
vn 0.841480 -0.538449 -0.044542
v 0.084113 2.670612 0.180445
v -0.040547 2.490722 -0.000000
v 0.078969 2.677500 0.000000
vt 0.028256 0.104910
vt -0.044758 -0.000000
vt 0.025000 0.000000
vn 0.841480 -0.538449 -0.044544
vn 0.841480 -0.538449 -0.044544
vn 0.841480 -0.538449 -0.044544
v 0.198854 2.864278 0.000000
v 0.084113 2.670612 0.180445
v 0.078969 2.677500 0.000000
vt 0.094758 0.000000
vt 0.028256 0.104910
vt 0.025000 0.000000
vn 0.840723 -0.539628 -0.044567
vn 0.840723 -0.539628 -0.044567
vn 0.840723 -0.539628 -0.044567
v -1.356000 4.760000 0.172000
v -1.331104 4.793658 0.172000
v -1.358385 4.763735 0.137812
vt -0.900000 0.100000
vt -0.885858 0.100000
vt -0.901569 0.080124
vn -0.798141 0.590364 0.120175
vn -0.798141 0.590364 0.120175
vn -0.798141 0.590364 0.120175
v -1.356000 4.760000 0.172000
v -1.358385 4.763735 0.137812
v -1.380884 4.726342 0.172000
vt -0.900000 0.100000
vt -0.901569 0.080124
vt -0.914142 0.100000
vn -0.798278 0.590181 0.120164
vn -0.798278 0.590181 0.120164
vn -0.798278 0.590181 0.120164
v -1.356000 4.760000 0.172000
v -1.380884 4.726342 0.172000
v -1.353615 4.756265 0.206188
vt -0.900000 0.100000
vt -0.914142 0.100000
vt -0.898431 0.119876
vn -0.798277 0.590180 0.120167
vn -0.798277 0.590180 0.120167
vn -0.798277 0.590180 0.120167
v -1.356000 4.760000 0.172000
v -1.353615 4.756265 0.206188
v -1.331104 4.793658 0.172000
vt -0.900000 0.100000
vt -0.898431 0.119876
vt -0.885858 0.100000
vn -0.798140 0.590364 0.120178
vn -0.798140 0.590364 0.120178
vn -0.798140 0.590364 0.120178
v 0.194408 2.498751 0.000000
v 0.104771 2.712660 -0.176902
v 0.836770 3.704278 0.104212
vt 0.000000 0.000000
vt 0.250000 0.000000
vt 0.250000 0.500000
vn 0.661976 -0.293098 -0.689841
vn 0.661976 -0.293098 -0.689841
vn 0.661976 -0.293098 -0.689841
v 0.194408 2.498751 0.000000
v 0.836770 3.704278 0.104212
v 0.900847 3.584195 0.215000
vt 0.000000 0.000000
vt 0.250000 0.500000
vt 0.000000 0.500000
vn 0.657674 -0.290352 -0.695098
vn 0.657674 -0.290352 -0.695098
vn 0.657674 -0.290352 -0.695098
v 0.104771 2.712660 -0.176902
v -0.036132 2.856249 -0.000000
v 0.752219 3.793805 0.215000
vt 0.250000 0.000000
vt 0.500000 0.000000
vt 0.500000 0.500000
vn -0.412252 0.518446 -0.749174
vn -0.412252 0.518446 -0.749174
vn -0.412252 0.518446 -0.749174
v 0.104771 2.712660 -0.176902
v 0.752219 3.793805 0.215000
v 0.836770 3.704278 0.104212
vt 0.250000 0.000000
vt 0.500000 0.500000
vt 0.250000 0.500000
vn -0.420927 0.521191 -0.742415
vn -0.420927 0.521191 -0.742415
vn -0.420927 0.521191 -0.742415
v -0.036132 2.856249 -0.000000
v 0.053180 2.642340 0.176902
v 0.816183 3.673722 0.325788
vt 0.500000 0.000000
vt 0.750000 0.000000
vt 0.750000 0.500000
vn -0.603910 0.342897 0.719524
vn -0.603910 0.342897 0.719524
vn -0.603910 0.342897 0.719524
v -0.036132 2.856249 -0.000000
v 0.816183 3.673722 0.325788
v 0.752219 3.793805 0.215000
vt 0.500000 0.000000
vt 0.750000 0.500000
vt 0.500000 0.500000
vn -0.603710 0.342558 0.719853
vn -0.603710 0.342558 0.719853
vn -0.603710 0.342558 0.719853
v 0.053180 2.642340 0.176902
v 0.194408 2.498751 0.000000
v 0.900847 3.584195 0.215000
vt 0.750000 0.000000
vt 1.000000 0.000000
vt 1.000000 0.500000
vn 0.475223 -0.458086 0.751212
vn 0.475223 -0.458086 0.751212
vn 0.475223 -0.458086 0.751212
v 0.053180 2.642340 0.176902
v 0.900847 3.584195 0.215000
v 0.816183 3.673722 0.325788
vt 0.750000 0.000000
vt 1.000000 0.500000
vt 0.750000 0.500000
vn 0.482042 -0.463902 0.743257
vn 0.482042 -0.463902 0.743257
vn 0.482042 -0.463902 0.743257
v 0.900847 3.584195 0.215000
v 0.836770 3.704278 0.104212
v 1.606841 4.941156 0.266691
vt 0.000000 0.500000
vt 0.250000 0.500000
vt 0.250000 1.000000
vn 0.641185 -0.306799 -0.703389
vn 0.641185 -0.306799 -0.703389
vn 0.641185 -0.306799 -0.703389
v 0.900847 3.584195 0.215000
v 1.606841 4.941156 0.266691
v 1.628713 4.907925 0.301000
vt 0.000000 0.500000
vt 0.250000 1.000000
vt 0.000000 1.000000
vn 0.640107 -0.306191 -0.704635
vn 0.640107 -0.306191 -0.704635
vn 0.640107 -0.306191 -0.704635
v 0.836770 3.704278 0.104212
v 0.752219 3.793805 0.215000
v 1.581634 4.969075 0.301000
vt 0.250000 0.500000
vt 0.500000 0.500000
vt 0.500000 1.000000
vn -0.522433 0.422874 -0.740433
vn -0.522433 0.422874 -0.740433
vn -0.522433 0.422874 -0.740433
v 0.836770 3.704278 0.104212
v 1.581634 4.969075 0.301000
v 1.606841 4.941156 0.266691
vt 0.250000 0.500000
vt 0.500000 1.000000
vt 0.250000 1.000000
vn -0.528498 0.425535 -0.734581
vn -0.528498 0.425535 -0.734581
vn -0.528498 0.425535 -0.734581
v 0.752219 3.793805 0.215000
v 0.816183 3.673722 0.325788
v 1.603496 4.935844 0.335309
vt 0.500000 0.500000
vt 0.750000 0.500000
vt 0.750000 1.000000
vn -0.584868 0.359356 0.727182
vn -0.584868 0.359356 0.727182
vn -0.584868 0.359356 0.727182
v 0.752219 3.793805 0.215000
v 1.603496 4.935844 0.335309
v 1.581634 4.969075 0.301000
vt 0.500000 0.500000
vt 0.750000 1.000000
vt 0.500000 1.000000
vn -0.587226 0.361422 0.724251
vn -0.587226 0.361422 0.724251
vn -0.587226 0.361422 0.724251
v 0.816183 3.673722 0.325788
v 0.900847 3.584195 0.215000
v 1.628713 4.907925 0.301000
vt 0.750000 0.500000
vt 1.000000 0.500000
vt 1.000000 1.000000
vn 0.574744 -0.363656 0.733092
vn 0.574744 -0.363656 0.733092
vn 0.574744 -0.363656 0.733092
v 0.816183 3.673722 0.325788
v 1.628713 4.907925 0.301000
v 1.603496 4.935844 0.335309
vt 0.750000 0.500000
vt 1.000000 1.000000
vt 0.750000 1.000000
vn 0.580822 -0.367796 0.726204
vn 0.580822 -0.367796 0.726204
vn 0.580822 -0.367796 0.726204
v 0.104771 2.712660 -0.176902
v 0.194408 2.498751 0.000000
v 0.078969 2.677500 0.000000
vt 0.040121 -0.102850
vt 0.098378 0.000000
vt 0.025000 0.000000
vn -0.818606 -0.528672 -0.224475
vn -0.818606 -0.528672 -0.224475
vn -0.818606 -0.528672 -0.224475
v -0.036132 2.856249 -0.000000
v 0.104771 2.712660 -0.176902
v 0.078969 2.677500 0.000000
vt -0.048378 -0.000000
vt 0.040121 -0.102850
vt 0.025000 0.000000
vn -0.819334 -0.527591 -0.224366
vn -0.819334 -0.527591 -0.224366
vn -0.819334 -0.527591 -0.224366
v 0.053180 2.642340 0.176902
v -0.036132 2.856249 -0.000000
v 0.078969 2.677500 0.000000
vt 0.009879 0.102850
vt -0.048378 -0.000000
vt 0.025000 0.000000
vn -0.819345 -0.527598 -0.224309
vn -0.819345 -0.527598 -0.224309
vn -0.819345 -0.527598 -0.224309
v 0.194408 2.498751 0.000000
v 0.053180 2.642340 0.176902
v 0.078969 2.677500 0.000000
vt 0.098378 0.000000
vt 0.009879 0.102850
vt 0.025000 0.000000
vn -0.818617 -0.528680 -0.224417
vn -0.818617 -0.528680 -0.224417
vn -0.818617 -0.528680 -0.224417
v 1.605169 4.938500 0.301000
v 1.628713 4.907925 0.301000
v 1.606841 4.941156 0.266691
vt 0.900000 0.175000
vt 0.915328 0.175000
vt 0.900935 0.155053
vn 0.789408 0.607879 0.085544
vn 0.789408 0.607879 0.085544
vn 0.789408 0.607879 0.085544
v 1.605169 4.938500 0.301000
v 1.606841 4.941156 0.266691
v 1.581634 4.969075 0.301000
vt 0.900000 0.175000
vt 0.900935 0.155053
vt 0.884672 0.175000
vn 0.789532 0.607719 0.085538
vn 0.789532 0.607719 0.085538
vn 0.789532 0.607719 0.085538
v 1.605169 4.938500 0.301000
v 1.581634 4.969075 0.301000
v 1.603496 4.935844 0.335309
vt 0.900000 0.175000
vt 0.884672 0.175000
vt 0.899065 0.194947
vn 0.789533 0.607719 0.085536
vn 0.789533 0.607719 0.085536
vn 0.789533 0.607719 0.085536
v 1.605169 4.938500 0.301000
v 1.603496 4.935844 0.335309
v 1.628713 4.907925 0.301000
vt 0.900000 0.175000
vt 0.899065 0.194947
vt 0.915328 0.175000
vn 0.789408 0.607879 0.085542
vn 0.789408 0.607879 0.085542
vn 0.789408 0.607879 0.085542
v 0.249337 2.649903 0.000000
v 0.061858 2.513057 -0.135347
v 0.186541 3.660259 -0.779499
vt 0.000000 0.000000
vt 0.250000 0.000000
vt 0.250000 0.500000
vn 0.710408 -0.401697 -0.577893
vn 0.710408 -0.401697 -0.577893
vn 0.710408 -0.401697 -0.577893
v 0.249337 2.649903 0.000000
v 0.186541 3.660259 -0.779499
v 0.302493 3.729773 -0.688000
vt 0.000000 0.000000
vt 0.250000 0.500000
vt 0.000000 0.500000
vn 0.703604 -0.406132 -0.583094
vn 0.703604 -0.406132 -0.583094
vn 0.703604 -0.406132 -0.583094
v 0.061858 2.513057 -0.135347
v -0.091391 2.705097 -0.000000
v 0.092348 3.767227 -0.688000
vt 0.250000 0.000000
vt 0.500000 0.000000
vt 0.500000 0.500000
vn -0.790403 -0.230826 -0.567435
vn -0.790403 -0.230826 -0.567435
vn -0.790403 -0.230826 -0.567435
v 0.061858 2.513057 -0.135347
v 0.092348 3.767227 -0.688000
v 0.186541 3.660259 -0.779499
vt 0.250000 0.000000
vt 0.500000 0.500000
vt 0.250000 0.500000
vn -0.798657 -0.226298 -0.557616
vn -0.798657 -0.226298 -0.557616
vn -0.798657 -0.226298 -0.557616
v -0.091391 2.705097 -0.000000
v 0.096366 2.841943 0.135347
v 0.208379 3.836741 -0.596501
vt 0.500000 0.000000
vt 0.750000 0.000000
vt 0.750000 0.500000
vn -0.715111 0.464684 0.522193
vn -0.715111 0.464684 0.522193
vn -0.715111 0.464684 0.522193
v -0.091391 2.705097 -0.000000
v 0.208379 3.836741 -0.596501
v 0.092348 3.767227 -0.688000
vt 0.500000 0.000000
vt 0.750000 0.500000
vt 0.500000 0.500000
vn -0.702818 0.468392 0.535403
vn -0.702818 0.468392 0.535403
vn -0.702818 0.468392 0.535403
v 0.096366 2.841943 0.135347
v 0.249337 2.649903 0.000000
v 0.302493 3.729773 -0.688000
vt 0.750000 0.000000
vt 1.000000 0.000000
vt 1.000000 0.500000
vn 0.810732 0.285653 0.510994
vn 0.810732 0.285653 0.510994
vn 0.810732 0.285653 0.510994
v 0.096366 2.841943 0.135347
v 0.302493 3.729773 -0.688000
v 0.208379 3.836741 -0.596501
vt 0.750000 0.000000
vt 1.000000 0.500000
vt 0.750000 0.500000
vn 0.814062 0.281896 0.507776
vn 0.814062 0.281896 0.507776
vn 0.814062 0.281896 0.507776
v 0.302493 3.729773 -0.688000
v 0.186541 3.660259 -0.779499
v 0.381353 5.093923 -1.277008
vt 0.000000 0.500000
vt 0.250000 0.500000
vt 0.250000 1.000000
vn 0.697400 -0.317697 -0.642418
vn 0.697400 -0.317697 -0.642418
vn 0.697400 -0.317697 -0.642418
v 0.302493 3.729773 -0.688000
v 0.381353 5.093923 -1.277008
v 0.416866 5.110843 -1.247000
vt 0.000000 0.500000
vt 0.250000 1.000000
vt 0.000000 1.000000
vn 0.695749 -0.318255 -0.643931
vn 0.695749 -0.318255 -0.643931
vn 0.695749 -0.318255 -0.643931
v 0.186541 3.660259 -0.779499
v 0.092348 3.767227 -0.688000
v 0.352484 5.123157 -1.247000
vt 0.250000 0.500000
vt 0.500000 0.500000
vt 0.500000 1.000000
vn -0.758027 -0.118950 -0.641285
vn -0.758027 -0.118950 -0.641285
vn -0.758027 -0.118950 -0.641285
v 0.186541 3.660259 -0.779499
v 0.352484 5.123157 -1.247000
v 0.381353 5.093923 -1.277008
vt 0.250000 0.500000
vt 0.500000 1.000000
vt 0.250000 1.000000
vn -0.769039 -0.113773 -0.628995
vn -0.769039 -0.113773 -0.628995
vn -0.769039 -0.113773 -0.628995
v 0.092348 3.767227 -0.688000
v 0.208379 3.836741 -0.596501
v 0.388003 5.140077 -1.216992
vt 0.500000 0.500000
vt 0.750000 0.500000
vt 0.750000 1.000000
vn -0.702462 0.382542 0.600174
vn -0.702462 0.382542 0.600174
vn -0.702462 0.382542 0.600174
v 0.092348 3.767227 -0.688000
v 0.388003 5.140077 -1.216992
v 0.352484 5.123157 -1.247000
vt 0.500000 0.500000
vt 0.750000 1.000000
vt 0.500000 1.000000
vn -0.695773 0.383783 0.607133
vn -0.695773 0.383783 0.607133
vn -0.695773 0.383783 0.607133
v 0.208379 3.836741 -0.596501
v 0.302493 3.729773 -0.688000
v 0.416866 5.110843 -1.247000
vt 0.750000 0.500000
vt 1.000000 0.500000
vt 1.000000 1.000000
vn 0.782104 0.177059 0.597465
vn 0.782104 0.177059 0.597465
vn 0.782104 0.177059 0.597465
v 0.208379 3.836741 -0.596501
v 0.416866 5.110843 -1.247000
v 0.388003 5.140077 -1.216992
vt 0.750000 0.500000
vt 1.000000 1.000000
vt 0.750000 1.000000
vn 0.788467 0.172419 0.590416
vn 0.788467 0.172419 0.590416
vn 0.788467 0.172419 0.590416
v 0.061858 2.513057 -0.135347
v 0.249337 2.649903 0.000000
v 0.078969 2.677500 0.000000
vt 0.017323 -0.078690
vt 0.129358 0.000000
vt 0.025000 0.000000
vn -0.101387 -0.625907 0.773279
vn -0.101387 -0.625907 0.773279
vn -0.101387 -0.625907 0.773279
v -0.091391 2.705097 -0.000000
v 0.061858 2.513057 -0.135347
v 0.078969 2.677500 0.000000
vt -0.079358 -0.000000
vt 0.017323 -0.078690
vt 0.025000 0.000000
vn -0.101391 -0.625907 0.773279
vn -0.101391 -0.625907 0.773279
vn -0.101391 -0.625907 0.773279
v 0.096366 2.841943 0.135347
v -0.091391 2.705097 -0.000000
v 0.078969 2.677500 0.000000
vt 0.032677 0.078690
vt -0.079358 -0.000000
vt 0.025000 0.000000
vn -0.101375 -0.625803 0.773365
vn -0.101375 -0.625803 0.773365
vn -0.101375 -0.625803 0.773365
v 0.249337 2.649903 0.000000
v 0.096366 2.841943 0.135347
v 0.078969 2.677500 0.000000
vt 0.129358 0.000000
vt 0.032677 0.078690
vt 0.025000 0.000000
vn -0.101370 -0.625804 0.773365
vn -0.101370 -0.625804 0.773365
vn -0.101370 -0.625804 0.773365
v 0.384675 5.117000 -1.247000
v 0.416866 5.110843 -1.247000
v 0.381353 5.093923 -1.277008
vt 0.150000 -0.725000
vt 0.169832 -0.725000
vt 0.148735 -0.742447
vn 0.148395 0.775921 -0.613127
vn 0.148395 0.775921 -0.613127
vn 0.148395 0.775921 -0.613127
v 0.384675 5.117000 -1.247000
v 0.381353 5.093923 -1.277008
v 0.352484 5.123157 -1.247000
vt 0.150000 -0.725000
vt 0.148735 -0.742447
vt 0.130168 -0.725000
vn 0.148397 0.775921 -0.613127
vn 0.148397 0.775921 -0.613127
vn 0.148397 0.775921 -0.613127
v 0.384675 5.117000 -1.247000
v 0.352484 5.123157 -1.247000
v 0.388003 5.140077 -1.216992
vt 0.150000 -0.725000
vt 0.130168 -0.725000
vt 0.151265 -0.707553
vn 0.148395 0.775908 -0.613145
vn 0.148395 0.775908 -0.613145
vn 0.148395 0.775908 -0.613145
v 0.384675 5.117000 -1.247000
v 0.388003 5.140077 -1.216992
v 0.416866 5.110843 -1.247000
vt 0.150000 -0.725000
vt 0.151265 -0.707553
vt 0.169832 -0.725000
vn 0.148393 0.775908 -0.613145
vn 0.148393 0.775908 -0.613145
vn 0.148393 0.775908 -0.613145
v 0.245474 2.752039 0.000000
v 0.048320 2.842190 -0.130642
v -0.105089 3.719907 0.598540
vt 0.000000 0.000000
vt 0.250000 0.000000
vt 0.250000 0.500000
vn 0.619776 0.562746 -0.546987
vn 0.619776 0.562746 -0.546987
vn 0.619776 0.562746 -0.546987
v 0.245474 2.752039 0.000000
v -0.105089 3.719907 0.598540
v 0.010983 3.664286 0.688000
vt 0.000000 0.000000
vt 0.250000 0.500000
vt 0.000000 0.500000
vn 0.658328 0.553753 -0.509865
vn 0.658328 0.553753 -0.509865
vn 0.658328 0.553753 -0.509865
v 0.048320 2.842190 -0.130642
v -0.087477 2.602961 -0.000000
v -0.199432 3.594714 0.688000
vt 0.250000 0.000000
vt 0.500000 0.000000
vt 0.500000 0.500000
vn -0.853407 0.228623 -0.468431
vn -0.853407 0.228623 -0.468431
vn -0.853407 0.228623 -0.468431
v 0.048320 2.842190 -0.130642
v -0.199432 3.594714 0.688000
v -0.105089 3.719907 0.598540
vt 0.250000 0.000000
vt 0.500000 0.500000
vt 0.250000 0.500000
vn -0.825889 0.267840 -0.496153
vn -0.825889 0.267840 -0.496153
vn -0.825889 0.267840 -0.496153
v -0.087477 2.602961 -0.000000
v 0.109905 2.512810 0.130642
v -0.083287 3.539093 0.777460
vt 0.500000 0.000000
vt 0.750000 0.000000
vt 0.750000 0.500000
vn -0.625253 -0.496952 0.601745
vn -0.625253 -0.496952 0.601745
vn -0.625253 -0.496952 0.601745
v -0.087477 2.602961 -0.000000
v -0.083287 3.539093 0.777460
v -0.199432 3.594714 0.688000
vt 0.500000 0.000000
vt 0.750000 0.500000
vt 0.500000 0.500000
vn -0.668507 -0.473379 0.573594
vn -0.668507 -0.473379 0.573594
vn -0.668507 -0.473379 0.573594
v 0.109905 2.512810 0.130642
v 0.245474 2.752039 0.000000
v 0.010983 3.664286 0.688000
vt 0.750000 0.000000
vt 1.000000 0.000000
vt 1.000000 0.500000
vn 0.830439 -0.183305 0.526090
vn 0.830439 -0.183305 0.526090
vn 0.830439 -0.183305 0.526090
v 0.109905 2.512810 0.130642
v 0.010983 3.664286 0.688000
v -0.083287 3.539093 0.777460
vt 0.750000 0.000000
vt 1.000000 0.500000
vt 0.750000 0.500000
vn 0.802237 -0.202860 0.561484
vn 0.802237 -0.202860 0.561484
vn 0.802237 -0.202860 0.561484
v 0.010983 3.664286 0.688000
v -0.105089 3.719907 0.598540
v -0.197310 5.022119 1.260498
vt 0.000000 0.500000
vt 0.250000 0.500000
vt 0.250000 1.000000
vn 0.671900 0.372881 -0.639929
vn 0.671900 0.372881 -0.639929
vn 0.671900 0.372881 -0.639929
v 0.010983 3.664286 0.688000
v -0.197310 5.022119 1.260498
v -0.162953 5.006156 1.290000
vt 0.000000 0.500000
vt 0.250000 1.000000
vt 0.000000 1.000000
vn 0.698274 0.366396 -0.614953
vn 0.698274 0.366396 -0.614953
vn 0.698274 0.366396 -0.614953
v -0.105089 3.719907 0.598540
v -0.199432 3.594714 0.688000
v -0.228446 4.989844 1.290000
vt 0.250000 0.500000
vt 0.500000 0.500000
vt 0.500000 1.000000
vn -0.808490 0.218907 -0.546282
vn -0.808490 0.218907 -0.546282
vn -0.808490 0.218907 -0.546282
v -0.105089 3.719907 0.598540
v -0.228446 4.989844 1.290000
v -0.197310 5.022119 1.260498
vt 0.250000 0.500000
vt 0.500000 1.000000
vt 0.250000 1.000000
vn -0.785782 0.235148 -0.572059
vn -0.785782 0.235148 -0.572059
vn -0.785782 0.235148 -0.572059
v -0.199432 3.594714 0.688000
v -0.083287 3.539093 0.777460
v -0.194083 4.973881 1.319502
vt 0.500000 0.500000
vt 0.750000 0.500000
vt 0.750000 1.000000
vn -0.668688 -0.307406 0.677022
vn -0.668688 -0.307406 0.677022
vn -0.668688 -0.307406 0.677022
v -0.199432 3.594714 0.688000
v -0.194083 4.973881 1.319502
v -0.228446 4.989844 1.290000
vt 0.500000 0.500000
vt 0.750000 1.000000
vt 0.500000 1.000000
vn -0.697645 -0.296030 0.652424
vn -0.697645 -0.296030 0.652424
vn -0.697645 -0.296030 0.652424
v -0.083287 3.539093 0.777460
v 0.010983 3.664286 0.688000
v -0.162953 5.006156 1.290000
vt 0.750000 0.500000
vt 1.000000 0.500000
vt 1.000000 1.000000
vn 0.785630 -0.165602 0.596122
vn 0.785630 -0.165602 0.596122
vn 0.785630 -0.165602 0.596122
v -0.083287 3.539093 0.777460
v -0.162953 5.006156 1.290000
v -0.194083 4.973881 1.319502
vt 0.750000 0.500000
vt 1.000000 1.000000
vt 0.750000 1.000000
vn 0.766511 -0.174325 0.618119
vn 0.766511 -0.174325 0.618119
vn 0.766511 -0.174325 0.618119
v 0.048320 2.842190 -0.130642
v 0.245474 2.752039 0.000000
v 0.078969 2.677500 0.000000
vt 0.003376 -0.075955
vt 0.125220 0.000000
vt 0.025000 0.000000
vn 0.255690 -0.571161 -0.779999
vn 0.255690 -0.571161 -0.779999
vn 0.255690 -0.571161 -0.779999
v -0.087477 2.602961 -0.000000
v 0.048320 2.842190 -0.130642
v 0.078969 2.677500 0.000000
vt -0.075220 -0.000000
vt 0.003376 -0.075955
vt 0.025000 0.000000
vn 0.255771 -0.571138 -0.779989
vn 0.255771 -0.571138 -0.779989
vn 0.255771 -0.571138 -0.779989
v 0.109905 2.512810 0.130642
v -0.087477 2.602961 -0.000000
v 0.078969 2.677500 0.000000
vt 0.046624 0.075955
vt -0.075220 -0.000000
vt 0.025000 0.000000
vn 0.255658 -0.570887 -0.780209
vn 0.255658 -0.570887 -0.780209
vn 0.255658 -0.570887 -0.780209
v 0.245474 2.752039 0.000000
v 0.109905 2.512810 0.130642
v 0.078969 2.677500 0.000000
vt 0.125220 0.000000
vt 0.046624 0.075955
vt 0.025000 0.000000
vn 0.255578 -0.570910 -0.780219
vn 0.255578 -0.570910 -0.780219
vn 0.255578 -0.570910 -0.780219
v -0.195700 4.998000 1.290000
v -0.162953 5.006156 1.290000
v -0.197310 5.022119 1.260498
vt -0.200000 0.750000
vt -0.180296 0.750000
vt -0.201762 0.732848
vn -0.188117 0.755323 0.627774
vn -0.188117 0.755323 0.627774
vn -0.188117 0.755323 0.627774
v -0.195700 4.998000 1.290000
v -0.197310 5.022119 1.260498
v -0.228446 4.989844 1.290000
vt -0.200000 0.750000
vt -0.201762 0.732848
vt -0.219704 0.750000
vn -0.188121 0.755322 0.627773
vn -0.188121 0.755322 0.627773
vn -0.188121 0.755322 0.627773
v -0.195700 4.998000 1.290000
v -0.228446 4.989844 1.290000
v -0.194083 4.973881 1.319502
vt -0.200000 0.750000
vt -0.219704 0.750000
vt -0.198238 0.767152
vn -0.188116 0.755303 0.627797
vn -0.188116 0.755303 0.627797
vn -0.188116 0.755303 0.627797
v -0.195700 4.998000 1.290000
v -0.194083 4.973881 1.319502
v -0.162953 5.006156 1.290000
vt -0.200000 0.750000
vt -0.198238 0.767152
vt -0.180296 0.750000
vn -0.188113 0.755304 0.627797
vn -0.188113 0.755304 0.627797
vn -0.188113 0.755304 0.627797
v 0.244670 2.618624 0.000000
v 0.079528 2.680361 -0.180587
v 0.483668 4.643641 -0.094583
vt 0.000000 0.000000
vt 0.250000 0.000000
vt 0.250000 0.500000
vn 0.712798 -0.116431 -0.691638
vn 0.712798 -0.116431 -0.691638
vn 0.712798 -0.116431 -0.691638
v 0.244670 2.618624 0.000000
v 0.483668 4.643641 -0.094583
v 0.584512 4.602839 0.017200
vt 0.000000 0.000000
vt 0.250000 0.500000
vt 0.000000 0.500000
vn 0.715883 -0.116644 -0.688408
vn 0.715883 -0.116644 -0.688408
vn 0.715883 -0.116644 -0.688408
v 0.079528 2.680361 -0.180587
v -0.086696 2.736376 -0.000000
v 0.381653 4.679161 0.017200
vt 0.250000 0.000000
vt 0.500000 0.000000
vt 0.500000 0.500000
vn -0.697002 0.174185 -0.695592
vn -0.697002 0.174185 -0.695592
vn -0.697002 0.174185 -0.695592
v 0.079528 2.680361 -0.180587
v 0.381653 4.679161 0.017200
v 0.483668 4.643641 -0.094583
vt 0.250000 0.000000
vt 0.500000 0.500000
vt 0.250000 0.500000
vn -0.699131 0.174292 -0.693425
vn -0.699131 0.174292 -0.693425
vn -0.699131 0.174292 -0.693425
v -0.086696 2.736376 -0.000000
v 0.078410 2.674639 0.180587
v 0.482482 4.638359 0.128983
vt 0.500000 0.000000
vt 0.750000 0.000000
vt 0.750000 0.500000
vn -0.699987 0.162312 0.695466
vn -0.699987 0.162312 0.695466
vn -0.699987 0.162312 0.695466
v -0.086696 2.736376 -0.000000
v 0.482482 4.638359 0.128983
v 0.381653 4.679161 0.017200
vt 0.500000 0.000000
vt 0.750000 0.500000
vt 0.500000 0.500000
vn -0.702246 0.163156 0.692987
vn -0.702246 0.163156 0.692987
vn -0.702246 0.163156 0.692987
v 0.078410 2.674639 0.180587
v 0.244670 2.618624 0.000000
v 0.584512 4.602839 0.017200
vt 0.750000 0.000000
vt 1.000000 0.000000
vt 1.000000 0.500000
vn 0.709650 -0.127550 0.692912
vn 0.709650 -0.127550 0.692912
vn 0.709650 -0.127550 0.692912
v 0.078410 2.674639 0.180587
v 0.584512 4.602839 0.017200
v 0.482482 4.638359 0.128983
vt 0.750000 0.000000
vt 1.000000 0.500000
vt 0.750000 0.500000
vn 0.711841 -0.128329 0.690517
vn 0.711841 -0.128329 0.690517
vn 0.711841 -0.128329 0.690517
v 0.584512 4.602839 0.017200
v 0.483668 4.643641 -0.094583
v 0.802803 5.951208 0.008612
vt 0.000000 0.500000
vt 0.250000 0.500000
vt 0.250000 1.000000
vn 0.714919 -0.120127 -0.688810
vn 0.714919 -0.120127 -0.688810
vn 0.714919 -0.120127 -0.688810
v 0.584512 4.602839 0.017200
v 0.802803 5.951208 0.008612
v 0.833356 5.937476 0.043000
vt 0.000000 0.500000
vt 0.250000 1.000000
vt 0.000000 1.000000
vn 0.717721 -0.120562 -0.685814
vn 0.717721 -0.120562 -0.685814
vn 0.717721 -0.120562 -0.685814
v 0.483668 4.643641 -0.094583
v 0.381653 4.679161 0.017200
v 0.771646 5.962524 0.043000
vt 0.250000 0.500000
vt 0.500000 0.500000
vt 0.500000 1.000000
vn -0.684104 0.221856 -0.694825
vn -0.684104 0.221856 -0.694825
vn -0.684104 0.221856 -0.694825
v 0.483668 4.643641 -0.094583
v 0.771646 5.962524 0.043000
v 0.802803 5.951208 0.008612
vt 0.250000 0.500000
vt 0.500000 1.000000
vt 0.250000 1.000000
vn -0.685115 0.221969 -0.693792
vn -0.685115 0.221969 -0.693792
vn -0.685115 0.221969 -0.693792
v 0.381653 4.679161 0.017200
v 0.482482 4.638359 0.128983
v 0.802197 5.948792 0.077388
vt 0.500000 0.500000
vt 0.750000 0.500000
vt 0.750000 1.000000
vn -0.691471 0.196078 0.695285
vn -0.691471 0.196078 0.695285
vn -0.691471 0.196078 0.695285
v 0.381653 4.679161 0.017200
v 0.802197 5.948792 0.077388
v 0.771646 5.962524 0.043000
vt 0.500000 0.500000
vt 0.750000 1.000000
vt 0.500000 1.000000
vn -0.692715 0.196555 0.693910
vn -0.692715 0.196555 0.693910
vn -0.692715 0.196555 0.693910
v 0.482482 4.638359 0.128983
v 0.584512 4.602839 0.017200
v 0.833356 5.937476 0.043000
vt 0.750000 0.500000
vt 1.000000 0.500000
vt 1.000000 1.000000
vn 0.707340 -0.145257 0.691788
vn 0.707340 -0.145257 0.691788
vn 0.707340 -0.145257 0.691788
v 0.482482 4.638359 0.128983
v 0.833356 5.937476 0.043000
v 0.802197 5.948792 0.077388
vt 0.750000 0.500000
vt 1.000000 1.000000
vt 0.750000 1.000000
vn 0.708791 -0.145754 0.690196
vn 0.708791 -0.145754 0.690196
vn 0.708791 -0.145754 0.690196
v 0.079528 2.680361 -0.180587
v 0.244670 2.618624 0.000000
v 0.078969 2.677500 0.000000
vt 0.025291 -0.104993
vt 0.127044 0.000000
vt 0.025000 0.000000
vn -0.334768 -0.942166 -0.015962
vn -0.334768 -0.942166 -0.015962
vn -0.334768 -0.942166 -0.015962
v -0.086696 2.736376 -0.000000
v 0.079528 2.680361 -0.180587
v 0.078969 2.677500 0.000000
vt -0.077044 -0.000000
vt 0.025291 -0.104993
vt 0.025000 0.000000
vn -0.334833 -0.942142 -0.015961
vn -0.334833 -0.942142 -0.015961
vn -0.334833 -0.942142 -0.015961
v 0.078410 2.674639 0.180587
v -0.086696 2.736376 -0.000000
v 0.078969 2.677500 0.000000
vt 0.024709 0.104993
vt -0.077044 -0.000000
vt 0.025000 0.000000
vn -0.334833 -0.942142 -0.015961
vn -0.334833 -0.942142 -0.015961
vn -0.334833 -0.942142 -0.015961
v 0.244670 2.618624 0.000000
v 0.078410 2.674639 0.180587
v 0.078969 2.677500 0.000000
vt 0.127044 0.000000
vt 0.024709 0.104993
vt 0.025000 0.000000
vn -0.334768 -0.942166 -0.015961
vn -0.334768 -0.942166 -0.015961
vn -0.334768 -0.942166 -0.015961
v 0.802500 5.950000 0.043000
v 0.833356 5.937476 0.043000
v 0.802803 5.951208 0.008612
vt 0.375000 0.025000
vt 0.394295 0.025000
vt 0.375138 0.005007
vn 0.375858 0.925984 0.035839
vn 0.375858 0.925984 0.035839
vn 0.375858 0.925984 0.035839
v 0.802500 5.950000 0.043000
v 0.802803 5.951208 0.008612
v 0.771646 5.962524 0.043000
vt 0.375000 0.025000
vt 0.375138 0.005007
vt 0.355705 0.025000
vn 0.375876 0.925977 0.035839
vn 0.375876 0.925977 0.035839
vn 0.375876 0.925977 0.035839
v 0.802500 5.950000 0.043000
v 0.771646 5.962524 0.043000
v 0.802197 5.948792 0.077388
vt 0.375000 0.025000
vt 0.355705 0.025000
vt 0.374862 0.044993
vn 0.375876 0.925977 0.035838
vn 0.375876 0.925977 0.035838
vn 0.375876 0.925977 0.035838
v 0.802500 5.950000 0.043000
v 0.802197 5.948792 0.077388
v 0.833356 5.937476 0.043000
vt 0.375000 0.025000
vt 0.374862 0.044993
vt 0.394295 0.025000
vn 0.375858 0.925984 0.035838
vn 0.375858 0.925984 0.035838
vn 0.375858 0.925984 0.035838
v -2.196289 4.616287 0.933431
v -0.398784 4.616287 0.933431
v -0.337349 5.736713 -0.589431
vt 0.000000 0.000000
vt 1.000000 0.000000
vt 1.000000 1.000000
vn -0.000000 0.805481 0.592622
vn -0.000000 0.805481 0.592622
vn -0.000000 0.805481 0.592622
v -2.196289 4.616287 0.933431
v -0.337349 5.736713 -0.589431
v -2.134854 5.736713 -0.589431
vt 0.000000 0.000000
vt 1.000000 1.000000
vt 0.000000 1.000000
vn 0.000000 0.805481 0.592622
vn 0.000000 0.805481 0.592622
vn 0.000000 0.805481 0.592622
v -2.079587 6.023044 -0.925394
v -2.079587 6.023044 0.959794
v -0.757164 4.758356 0.959794
vt 0.000000 0.000000
vt 1.000000 0.000000
vt 1.000000 1.000000
vn 0.691155 0.722707 -0.000000
vn 0.691155 0.722707 -0.000000
vn 0.691155 0.722707 -0.000000
v -2.079587 6.023044 -0.925394
v -0.757164 4.758356 0.959794
v -0.757164 4.758356 -0.925394
vt 0.000000 0.000000
vt 1.000000 1.000000
vt 0.000000 1.000000
vn 0.691155 0.722707 0.000000
vn 0.691155 0.722707 0.000000
vn 0.691155 0.722707 0.000000
v -2.362723 5.628700 1.054429
v -0.450483 5.628700 1.054429
v -0.450483 5.628700 -0.710429
vt 0.000000 0.000000
vt 1.000000 0.000000
vt 1.000000 1.000000
vn -0.000000 1.000000 0.000000
vn -0.000000 1.000000 0.000000
vn -0.000000 1.000000 0.000000
v -2.362723 5.628700 1.054429
v -0.450483 5.628700 -0.710429
v -2.362723 5.628700 -0.710429
vt 0.000000 0.000000
vt 1.000000 1.000000
vt 0.000000 1.000000
vn 0.000000 1.000000 0.000000
vn 0.000000 1.000000 0.000000
vn 0.000000 1.000000 0.000000
v 0.616438 4.646883 0.471723
v 2.298073 4.646883 1.757637
v 3.361289 5.944117 0.332943
vt 0.000000 0.000000
vt 1.000000 0.000000
vt 1.000000 1.000000
vn -0.358082 0.807771 0.468276
vn -0.358082 0.807771 0.468276
vn -0.358082 0.807771 0.468276
v 0.616438 4.646883 0.471723
v 3.361289 5.944117 0.332943
v 1.679654 5.944117 -0.952972
vt 0.000000 0.000000
vt 1.000000 1.000000
vt 0.000000 1.000000
vn -0.358082 0.807771 0.468276
vn -0.358082 0.807771 0.468276
vn -0.358082 0.807771 0.468276
v 1.959586 6.241831 -1.204769
v 0.733481 6.241831 0.558896
v 1.952761 4.777569 1.556604
vt 0.000000 0.000000
vt 1.000000 0.000000
vt 1.000000 1.000000
vn 0.559897 0.731441 0.389242
vn 0.559897 0.731441 0.389242
vn 0.559897 0.731441 0.389242
v 1.959586 6.241831 -1.204769
v 1.952761 4.777569 1.556604
v 3.178866 4.777569 -0.207062
vt 0.000000 0.000000
vt 1.000000 1.000000
vt 0.000000 1.000000
vn 0.559897 0.731441 0.389242
vn 0.559897 0.731441 0.389242
vn 0.559897 0.731441 0.389242
v 0.496209 5.747700 0.833705
v 2.560382 5.747700 1.673376
v 3.264924 5.747700 -0.231705
vt 0.000000 0.000000
vt 1.000000 0.000000
vt 1.000000 1.000000
vn -0.000000 1.000000 0.000000
vn -0.000000 1.000000 0.000000
vn -0.000000 1.000000 0.000000
v 0.496209 5.747700 0.833705
v 3.264924 5.747700 -0.231705
v 1.200752 5.747700 -1.071376
vt 0.000000 0.000000
vt 1.000000 1.000000
vt 0.000000 1.000000
vn 0.000000 1.000000 0.000000
vn 0.000000 1.000000 0.000000
vn 0.000000 1.000000 0.000000
v -0.797465 4.825383 -1.852690
v -0.161012 4.825383 0.225418
v 1.514830 6.122617 -0.313791
vt 0.000000 0.000000
vt 1.000000 0.000000
vt 1.000000 1.000000
vn -0.567248 0.805015 0.173729
vn -0.567248 0.805015 0.173729
vn -0.567248 0.805015 0.173729
v -0.797465 4.825383 -1.852690
v 1.514830 6.122617 -0.313791
v 0.878376 6.122617 -2.391899
vt 0.000000 0.000000
vt 1.000000 1.000000
vt 0.000000 1.000000
vn -0.567248 0.805015 0.173729
vn -0.567248 0.805015 0.173729
vn -0.567248 0.805015 0.173729
v 1.250265 6.420331 -2.434266
v -0.731187 6.420331 -1.766765
v -0.325604 4.956069 -0.154415
vt 0.000000 0.000000
vt 1.000000 0.000000
vt 1.000000 1.000000
vn 0.211366 0.749434 0.627433
vn 0.211366 0.749434 0.627433
vn 0.211366 0.749434 0.627433
v 1.250265 6.420331 -2.434266
v -0.325604 4.956069 -0.154415
v 1.655848 4.956069 -0.821916
vt 0.000000 0.000000
vt 1.000000 1.000000
vt 0.000000 1.000000
vn 0.211366 0.749434 0.627433
vn 0.211366 0.749434 0.627433
vn 0.211366 0.749434 0.627433
v -1.140746 5.926200 -1.275370
v 0.494223 5.926200 0.290327
v 1.807952 5.926200 -1.218630
vt 0.000000 0.000000
vt 1.000000 0.000000
vt 1.000000 1.000000
vn 0.000000 1.000000 0.000000
vn 0.000000 1.000000 0.000000
vn 0.000000 1.000000 0.000000
v -1.140746 5.926200 -1.275370
v 1.807952 5.926200 -1.218630
v 0.172983 5.926200 -2.784327
vt 0.000000 0.000000
vt 1.000000 1.000000
vt 0.000000 1.000000
vn -0.000000 1.000000 0.000000
vn -0.000000 1.000000 0.000000
vn -0.000000 1.000000 0.000000
v -0.443629 4.784217 0.297992
v -1.018348 4.784217 2.121724
v 0.451100 5.925783 2.608631
vt 0.000000 0.000000
vt 1.000000 0.000000
vt 1.000000 1.000000
vn -0.566107 0.804796 -0.178399
vn -0.566107 0.804796 -0.178399
vn -0.566107 0.804796 -0.178399
v -0.443629 4.784217 0.297992
v 0.451100 5.925783 2.608631
v 1.025819 5.925783 0.784899
vt 0.000000 0.000000
vt 1.000000 1.000000
vt 0.000000 1.000000
vn -0.566107 0.804796 -0.178399
vn -0.566107 0.804796 -0.178399
vn -0.566107 0.804796 -0.178399
v 1.338626 6.213475 0.932462
v -0.400282 6.213475 0.329708
v -0.922205 4.924925 1.744694
vt 0.000000 0.000000
vt 1.000000 0.000000
vt 1.000000 1.000000
vn -0.212768 0.760232 0.613822
vn -0.212768 0.760232 0.613822
vn -0.212768 0.760232 0.613822
v 1.338626 6.213475 0.932462
v -0.922205 4.924925 1.744694
v 0.816703 4.924925 2.347448
vt 0.000000 0.000000
vt 1.000000 1.000000
vt 0.000000 1.000000
vn -0.212768 0.760232 0.613822
vn -0.212768 0.760232 0.613822
vn -0.212768 0.760232 0.613822
v -1.120811 5.807200 0.774668
v -0.254468 5.807200 2.604903
v 1.281227 5.807200 1.805332
vt 0.000000 0.000000
vt 1.000000 0.000000
vt 1.000000 1.000000
vn 0.000000 1.000000 0.000000
vn 0.000000 1.000000 0.000000
vn 0.000000 1.000000 0.000000
v -1.120811 5.807200 0.774668
v 1.281227 5.807200 1.805332
v 0.414884 5.807200 -0.024903
vt 0.000000 0.000000
vt 1.000000 1.000000
vt 0.000000 1.000000
vn -0.000000 1.000000 0.000000
vn -0.000000 1.000000 0.000000
vn -0.000000 1.000000 0.000000
v 0.704975 5.907837 -1.309212
v -1.112233 5.907837 0.055981
v 0.036755 7.301163 1.595534
vt 0.000000 0.000000
vt 1.000000 0.000000
vt 1.000000 1.000000
vn -0.352654 0.809495 -0.469418
vn -0.352654 0.809495 -0.469418
vn -0.352654 0.809495 -0.469418
v 0.704975 5.907837 -1.309212
v 0.036755 7.301163 1.595534
v 1.853963 7.301163 0.230341
vt 0.000000 0.000000
vt 1.000000 1.000000
vt 0.000000 1.000000
vn -0.352654 0.809495 -0.469418
vn -0.352654 0.809495 -0.469418
vn -0.352654 0.809495 -0.469418
v 2.018680 7.605063 0.592162
v 0.716985 7.605063 -1.313690
v -0.806532 6.032337 -0.254473
vt 0.000000 0.000000
vt 1.000000 0.000000
vt 1.000000 1.000000
vn -0.533937 0.762838 0.364678
vn -0.533937 0.762838 0.364678
vn -0.533937 0.762838 0.364678
v 2.018680 7.605063 0.592162
v -0.806532 6.032337 -0.254473
v 0.495163 6.032337 1.651380
vt 0.000000 0.000000
vt 1.000000 1.000000
vt 0.000000 1.000000
vn -0.533937 0.762838 0.364678
vn -0.533937 0.762838 0.364678
vn -0.533937 0.762838 0.364678
v -0.615482 7.056700 -1.099364
v -0.399865 7.056700 1.384363
v 1.684155 7.056700 1.185364
vt 0.000000 0.000000
vt 1.000000 0.000000
vt 1.000000 1.000000
vn 0.000000 1.000000 0.000000
vn 0.000000 1.000000 0.000000
vn 0.000000 1.000000 0.000000
v -0.615482 7.056700 -1.099364
v 1.684155 7.056700 1.185364
v 1.468538 7.056700 -1.298363
vt 0.000000 0.000000
vt 1.000000 1.000000
vt 0.000000 1.000000
vn -0.000000 1.000000 0.000000
vn -0.000000 1.000000 0.000000
vn -0.000000 1.000000 0.000000
v 0.522037 5.884929 -1.325207
v -1.404895 5.884929 -1.342198
v -1.335467 7.086071 0.290315
vt 0.000000 0.000000
vt 1.000000 0.000000
vt 1.000000 1.000000
vn 0.005227 0.805353 -0.592772
vn 0.005227 0.805353 -0.592772
vn 0.005227 0.805353 -0.592772
v 0.522037 5.884929 -1.325207
v -1.335467 7.086071 0.290315
v 0.591465 7.086071 0.307306
vt 0.000000 0.000000
vt 1.000000 1.000000
vt 0.000000 1.000000
vn 0.005227 0.805353 -0.592772
vn 0.005227 0.805353 -0.592772
vn 0.005227 0.805353 -0.592772
v 0.559055 7.377599 0.655850
v 0.575256 7.377599 -1.365078
v -1.016016 6.021801 -1.378261
vt 0.000000 0.000000
vt 1.000000 0.000000
vt 1.000000 1.000000
vn -0.648508 0.761190 -0.005199
vn -0.648508 0.761190 -0.005199
vn -0.648508 0.761190 -0.005199
v 0.559055 7.377599 0.655850
v -1.016016 6.021801 -1.378261
v -1.032217 6.021801 0.642667
vt 0.000000 0.000000
vt 1.000000 1.000000
vt 0.000000 1.000000
vn -0.648508 0.761190 -0.005199
vn -0.648508 0.761190 -0.005199
vn -0.648508 0.761190 -0.005199
v -0.797073 6.937700 -1.810079
v -1.362033 6.937700 0.256662
v 0.372107 6.937700 0.778079
vt 0.000000 0.000000
vt 1.000000 0.000000
vt 1.000000 1.000000
vn 0.000000 1.000000 -0.000000
vn 0.000000 1.000000 -0.000000
vn 0.000000 1.000000 -0.000000
v -0.797073 6.937700 -1.810079
v 0.372107 6.937700 0.778079
v 0.937067 6.937700 -1.288662
vt 0.000000 0.000000
vt 1.000000 1.000000
vt 0.000000 1.000000
vn 0.000000 1.000000 0.000000
vn 0.000000 1.000000 0.000000
vn 0.000000 1.000000 0.000000
v 2.244613 5.421497 0.710563
v 0.882840 5.421497 -0.349264
v 0.133147 6.478503 0.804441
vt 0.000000 0.000000
vt 1.000000 0.000000
vt 1.000000 1.000000
vn 0.375022 0.791937 -0.481866
vn 0.375022 0.791937 -0.481866
vn 0.375022 0.791937 -0.481866
v 2.244613 5.421497 0.710563
v 0.133147 6.478503 0.804441
v 1.494920 6.478503 1.864268
vt 0.000000 0.000000
vt 1.000000 1.000000
vt 0.000000 1.000000
vn 0.375022 0.791937 -0.481866
vn 0.375022 0.791937 -0.481866
vn 0.375022 0.791937 -0.481866
v 1.308737 6.760751 2.109558
v 2.319270 6.760751 0.681357
v 1.184803 5.567649 -0.140935
vt 0.000000 0.000000
vt 1.000000 0.000000
vt 1.000000 1.000000
vn -0.529261 0.761345 -0.374482
vn -0.529261 0.761345 -0.374482
vn -0.529261 0.761345 -0.374482
v 1.308737 6.760751 2.109558
v 1.184803 5.567649 -0.140935
v 0.174271 5.567649 1.287266
vt 0.000000 0.000000
vt 1.000000 1.000000
vt 0.000000 1.000000
vn -0.529261 0.761345 -0.374482
vn -0.529261 0.761345 -0.374482
vn -0.529261 0.761345 -0.374482
v 1.261707 6.402200 -0.396829
v 0.171095 6.402200 1.110273
v 1.435659 6.402200 2.116829
vt 0.000000 0.000000
vt 1.000000 0.000000
vt 1.000000 1.000000
vn 0.000000 1.000000 -0.000000
vn 0.000000 1.000000 -0.000000
vn 0.000000 1.000000 -0.000000
v 1.261707 6.402200 -0.396829
v 1.435659 6.402200 2.116829
v 2.526271 6.402200 0.609727
vt 0.000000 0.000000
vt 1.000000 1.000000
vt 0.000000 1.000000
vn 0.000000 1.000000 0.000000
vn 0.000000 1.000000 0.000000
vn 0.000000 1.000000 0.000000
usemtl Bark
f 1/1/1 2/2/2 3/3/3
f 4/4/4 5/5/5 6/6/6
f 7/7/7 8/8/8 9/9/9
f 10/10/10 11/11/11 12/12/12
f 13/13/13 14/14/14 15/15/15
f 16/16/16 17/17/17 18/18/18
f 19/19/19 20/20/20 21/21/21
f 22/22/22 23/23/23 24/24/24
f 25/25/25 26/26/26 27/27/27
f 28/28/28 29/29/29 30/30/30
f 31/31/31 32/32/32 33/33/33
f 34/34/34 35/35/35 36/36/36
f 37/37/37 38/38/38 39/39/39
f 40/40/40 41/41/41 42/42/42
f 43/43/43 44/44/44 45/45/45
f 46/46/46 47/47/47 48/48/48
f 49/49/49 50/50/50 51/51/51
f 52/52/52 53/53/53 54/54/54
f 55/55/55 56/56/56 57/57/57
f 58/58/58 59/59/59 60/60/60
f 61/61/61 62/62/62 63/63/63
f 64/64/64 65/65/65 66/66/66
f 67/67/67 68/68/68 69/69/69
f 70/70/70 71/71/71 72/72/72
f 73/73/73 74/74/74 75/75/75
f 76/76/76 77/77/77 78/78/78
f 79/79/79 80/80/80 81/81/81
f 82/82/82 83/83/83 84/84/84
f 85/85/85 86/86/86 87/87/87
f 88/88/88 89/89/89 90/90/90
f 91/91/91 92/92/92 93/93/93
f 94/94/94 95/95/95 96/96/96
f 97/97/97 98/98/98 99/99/99
f 100/100/100 101/101/101 102/102/102
f 103/103/103 104/104/104 105/105/105
f 106/106/106 107/107/107 108/108/108
f 109/109/109 110/110/110 111/111/111
f 112/112/112 113/113/113 114/114/114
f 115/115/115 116/116/116 117/117/117
f 118/118/118 119/119/119 120/120/120
f 121/121/121 122/122/122 123/123/123
f 124/124/124 125/125/125 126/126/126
f 127/127/127 128/128/128 129/129/129
f 130/130/130 131/131/131 132/132/132
f 133/133/133 134/134/134 135/135/135
f 136/136/136 137/137/137 138/138/138
f 139/139/139 140/140/140 141/141/141
f 142/142/142 143/143/143 144/144/144
f 145/145/145 146/146/146 147/147/147
f 148/148/148 149/149/149 150/150/150
f 151/151/151 152/152/152 153/153/153
f 154/154/154 155/155/155 156/156/156
f 157/157/157 158/158/158 159/159/159
f 160/160/160 161/161/161 162/162/162
f 163/163/163 164/164/164 165/165/165
f 166/166/166 167/167/167 168/168/168
f 169/169/169 170/170/170 171/171/171
f 172/172/172 173/173/173 174/174/174
f 175/175/175 176/176/176 177/177/177
f 178/178/178 179/179/179 180/180/180
f 181/181/181 182/182/182 183/183/183
f 184/184/184 185/185/185 186/186/186
f 187/187/187 188/188/188 189/189/189
f 190/190/190 191/191/191 192/192/192
f 193/193/193 194/194/194 195/195/195
f 196/196/196 197/197/197 198/198/198
f 199/199/199 200/200/200 201/201/201
f 202/202/202 203/203/203 204/204/204
f 205/205/205 206/206/206 207/207/207
f 208/208/208 209/209/209 210/210/210
f 211/211/211 212/212/212 213/213/213
f 214/214/214 215/215/215 216/216/216
f 217/217/217 218/218/218 219/219/219
f 220/220/220 221/221/221 222/222/222
f 223/223/223 224/224/224 225/225/225
f 226/226/226 227/227/227 228/228/228
f 229/229/229 230/230/230 231/231/231
f 232/232/232 233/233/233 234/234/234
f 235/235/235 236/236/236 237/237/237
f 238/238/238 239/239/239 240/240/240
f 241/241/241 242/242/242 243/243/243
f 244/244/244 245/245/245 246/246/246
f 247/247/247 248/248/248 249/249/249
f 250/250/250 251/251/251 252/252/252
f 253/253/253 254/254/254 255/255/255
f 256/256/256 257/257/257 258/258/258
f 259/259/259 260/260/260 261/261/261
f 262/262/262 263/263/263 264/264/264
f 265/265/265 266/266/266 267/267/267
f 268/268/268 269/269/269 270/270/270
f 271/271/271 272/272/272 273/273/273
f 274/274/274 275/275/275 276/276/276
f 277/277/277 278/278/278 279/279/279
f 280/280/280 281/281/281 282/282/282
f 283/283/283 284/284/284 285/285/285
f 286/286/286 287/287/287 288/288/288
f 289/289/289 290/290/290 291/291/291
f 292/292/292 293/293/293 294/294/294
f 295/295/295 296/296/296 297/297/297
f 298/298/298 299/299/299 300/300/300
f 301/301/301 302/302/302 303/303/303
f 304/304/304 305/305/305 306/306/306
f 307/307/307 308/308/308 309/309/309
f 310/310/310 311/311/311 312/312/312
f 313/313/313 314/314/314 315/315/315
f 316/316/316 317/317/317 318/318/318
f 319/319/319 320/320/320 321/321/321
f 322/322/322 323/323/323 324/324/324
f 325/325/325 326/326/326 327/327/327
f 328/328/328 329/329/329 330/330/330
f 331/331/331 332/332/332 333/333/333
f 334/334/334 335/335/335 336/336/336
f 337/337/337 338/338/338 339/339/339
f 340/340/340 341/341/341 342/342/342
f 343/343/343 344/344/344 345/345/345
f 346/346/346 347/347/347 348/348/348
f 349/349/349 350/350/350 351/351/351
f 352/352/352 353/353/353 354/354/354
f 355/355/355 356/356/356 357/357/357
f 358/358/358 359/359/359 360/360/360
f 361/361/361 362/362/362 363/363/363
f 364/364/364 365/365/365 366/366/366
f 367/367/367 368/368/368 369/369/369
f 370/370/370 371/371/371 372/372/372
f 373/373/373 374/374/374 375/375/375
f 376/376/376 377/377/377 378/378/378
f 379/379/379 380/380/380 381/381/381
f 382/382/382 383/383/383 384/384/384
f 385/385/385 386/386/386 387/387/387
f 388/388/388 389/389/389 390/390/390
f 391/391/391 392/392/392 393/393/393
f 394/394/394 395/395/395 396/396/396
f 397/397/397 398/398/398 399/399/399
f 400/400/400 401/401/401 402/402/402
f 403/403/403 404/404/404 405/405/405
f 406/406/406 407/407/407 408/408/408
f 409/409/409 410/410/410 411/411/411
f 412/412/412 413/413/413 414/414/414
f 415/415/415 416/416/416 417/417/417
f 418/418/418 419/419/419 420/420/420
f 421/421/421 422/422/422 423/423/423
f 424/424/424 425/425/425 426/426/426
f 427/427/427 428/428/428 429/429/429
f 430/430/430 431/431/431 432/432/432
f 433/433/433 434/434/434 435/435/435
f 436/436/436 437/437/437 438/438/438
f 439/439/439 440/440/440 441/441/441
f 442/442/442 443/443/443 444/444/444
f 445/445/445 446/446/446 447/447/447
f 448/448/448 449/449/449 450/450/450
f 451/451/451 452/452/452 453/453/453
f 454/454/454 455/455/455 456/456/456
f 457/457/457 458/458/458 459/459/459
f 460/460/460 461/461/461 462/462/462
f 463/463/463 464/464/464 465/465/465
f 466/466/466 467/467/467 468/468/468
f 469/469/469 470/470/470 471/471/471
f 472/472/472 473/473/473 474/474/474
f 475/475/475 476/476/476 477/477/477
f 478/478/478 479/479/479 480/480/480
f 481/481/481 482/482/482 483/483/483
f 484/484/484 485/485/485 486/486/486
f 487/487/487 488/488/488 489/489/489
f 490/490/490 491/491/491 492/492/492
f 493/493/493 494/494/494 495/495/495
f 496/496/496 497/497/497 498/498/498
f 499/499/499 500/500/500 501/501/501
f 502/502/502 503/503/503 504/504/504
f 505/505/505 506/506/506 507/507/507
f 508/508/508 509/509/509 510/510/510
f 511/511/511 512/512/512 513/513/513
f 514/514/514 515/515/515 516/516/516
f 517/517/517 518/518/518 519/519/519
f 520/520/520 521/521/521 522/522/522
f 523/523/523 524/524/524 525/525/525
f 526/526/526 527/527/527 528/528/528
f 529/529/529 530/530/530 531/531/531
f 532/532/532 533/533/533 534/534/534
f 535/535/535 536/536/536 537/537/537
f 538/538/538 539/539/539 540/540/540
usemtl Foliage
f 541/541/541 542/542/542 543/543/543
f 544/544/544 545/545/545 546/546/546
f 547/547/547 548/548/548 549/549/549
f 550/550/550 551/551/551 552/552/552
f 553/553/553 554/554/554 555/555/555
f 556/556/556 557/557/557 558/558/558
f 559/559/559 560/560/560 561/561/561
f 562/562/562 563/563/563 564/564/564
f 565/565/565 566/566/566 567/567/567
f 568/568/568 569/569/569 570/570/570
f 571/571/571 572/572/572 573/573/573
f 574/574/574 575/575/575 576/576/576
f 577/577/577 578/578/578 579/579/579
f 580/580/580 581/581/581 582/582/582
f 583/583/583 584/584/584 585/585/585
f 586/586/586 587/587/587 588/588/588
f 589/589/589 590/590/590 591/591/591
f 592/592/592 593/593/593 594/594/594
f 595/595/595 596/596/596 597/597/597
f 598/598/598 599/599/599 600/600/600
f 601/601/601 602/602/602 603/603/603
f 604/604/604 605/605/605 606/606/606
f 607/607/607 608/608/608 609/609/609
f 610/610/610 611/611/611 612/612/612
f 613/613/613 614/614/614 615/615/615
f 616/616/616 617/617/617 618/618/618
f 619/619/619 620/620/620 621/621/621
f 622/622/622 623/623/623 624/624/624
f 625/625/625 626/626/626 627/627/627
f 628/628/628 629/629/629 630/630/630
f 631/631/631 632/632/632 633/633/633
f 634/634/634 635/635/635 636/636/636
f 637/637/637 638/638/638 639/639/639
f 640/640/640 641/641/641 642/642/642
f 643/643/643 644/644/644 645/645/645
f 646/646/646 647/647/647 648/648/648
f 649/649/649 650/650/650 651/651/651
f 652/652/652 653/653/653 654/654/654
f 655/655/655 656/656/656 657/657/657
f 658/658/658 659/659/659 660/660/660
f 661/661/661 662/662/662 663/663/663
f 664/664/664 665/665/665 666/666/666
