# Metres, Y up, base pivot, trunk solid + flat foliage cards
mtllib Tree.mtl
o Abete_05_Irregolare
s off
v 0.280000 0.000000 0.000000
v 0.223286 0.368708 0.023787
v 0.118286 0.368708 0.205652
vt 0.000000 0.000000
vt 0.000000 0.175000
vt 0.166667 0.175000
vn 0.861646 0.100443 0.497472
vn 0.861646 0.100443 0.497472
vn 0.861646 0.100443 0.497472
v 0.280000 0.000000 0.000000
v 0.118286 0.368708 0.205652
v 0.140000 0.000000 0.242487
vt 0.000000 0.000000
vt 0.166667 0.175000
vt 0.166667 0.000000
vn 0.861646 0.100443 0.497472
vn 0.861646 0.100443 0.497472
vn 0.861646 0.100443 0.497472
v 0.140000 0.000000 0.242487
v 0.118286 0.368708 0.205652
v -0.091714 0.368708 0.205652
vt 0.166667 0.000000
vt 0.166667 0.175000
vt 0.333333 0.175000
vn 0.000000 0.099407 0.995047
vn 0.000000 0.099407 0.995047
vn 0.000000 0.099407 0.995047
v 0.140000 0.000000 0.242487
v -0.091714 0.368708 0.205652
v -0.140000 0.000000 0.242487
vt 0.166667 0.000000
vt 0.333333 0.175000
vt 0.333333 0.000000
vn 0.000000 0.099407 0.995047
vn 0.000000 0.099407 0.995047
vn 0.000000 0.099407 0.995047
v -0.140000 0.000000 0.242487
v -0.091714 0.368708 0.205652
v -0.196714 0.368708 0.023787
vt 0.333333 0.000000
vt 0.333333 0.175000
vt 0.500000 0.175000
vn -0.854695 0.161228 0.493459
vn -0.854695 0.161228 0.493459
vn -0.854695 0.161228 0.493459
v -0.140000 0.000000 0.242487
v -0.196714 0.368708 0.023787
v -0.280000 0.000000 0.000000
vt 0.333333 0.000000
vt 0.500000 0.175000
vt 0.500000 0.000000
vn -0.854695 0.161228 0.493459
vn -0.854695 0.161228 0.493459
vn -0.854695 0.161228 0.493459
v -0.280000 0.000000 0.000000
v -0.196714 0.368708 0.023787
v -0.091714 0.368708 -0.158078
vt 0.500000 0.000000
vt 0.500000 0.175000
vt 0.666667 0.175000
vn -0.844379 0.222184 -0.487503
vn -0.844379 0.222184 -0.487503
vn -0.844379 0.222184 -0.487503
v -0.280000 0.000000 0.000000
v -0.091714 0.368708 -0.158078
v -0.140000 0.000000 -0.242487
vt 0.500000 0.000000
vt 0.666667 0.175000
vt 0.666667 0.000000
vn -0.844379 0.222184 -0.487503
vn -0.844379 0.222184 -0.487503
vn -0.844379 0.222184 -0.487503
v -0.140000 0.000000 -0.242487
v -0.091714 0.368708 -0.158078
v 0.118286 0.368708 -0.158078
vt 0.666667 0.000000
vt 0.666667 0.175000
vt 0.833333 0.175000
vn 0.000000 0.223158 -0.974782
vn 0.000000 0.223158 -0.974782
vn 0.000000 0.223158 -0.974782
v -0.140000 0.000000 -0.242487
v 0.118286 0.368708 -0.158078
v 0.140000 0.000000 -0.242487
vt 0.666667 0.000000
vt 0.833333 0.175000
vt 0.833333 0.000000
vn 0.000000 0.223158 -0.974782
vn 0.000000 0.223158 -0.974782
vn 0.000000 0.223158 -0.974782
v 0.140000 0.000000 -0.242487
v 0.118286 0.368708 -0.158078
v 0.223286 0.368708 0.023787
vt 0.833333 0.000000
vt 0.833333 0.175000
vt 1.000000 0.175000
vn 0.854408 0.163248 -0.493293
vn 0.854408 0.163248 -0.493293
vn 0.854408 0.163248 -0.493293
v 0.140000 0.000000 -0.242487
v 0.223286 0.368708 0.023787
v 0.280000 0.000000 0.000000
vt 0.833333 0.000000
vt 1.000000 0.175000
vt 1.000000 0.000000
vn 0.854408 0.163248 -0.493293
vn 0.854408 0.163248 -0.493293
vn 0.854408 0.163248 -0.493293
v 0.223286 0.368708 0.023787
v 0.283401 1.896212 0.036286
v 0.209026 1.896212 0.165107
vt 0.000000 0.175000
vt 0.000000 0.900000
vt 0.166667 0.900000
vn 0.865395 -0.038146 0.499637
vn 0.865395 -0.038146 0.499637
vn 0.865395 -0.038146 0.499637
v 0.223286 0.368708 0.023787
v 0.209026 1.896212 0.165107
v 0.118286 0.368708 0.205652
vt 0.000000 0.175000
vt 0.166667 0.900000
vt 0.166667 0.175000
vn 0.865395 -0.038146 0.499636
vn 0.865395 -0.038146 0.499636
vn 0.865395 -0.038146 0.499636
v 0.118286 0.368708 0.205652
v 0.209026 1.896212 0.165107
v 0.060276 1.896212 0.165107
vt 0.166667 0.175000
vt 0.166667 0.900000
vt 0.333333 0.900000
vn 0.000000 0.026534 0.999648
vn 0.000000 0.026534 0.999648
vn 0.000000 0.026534 0.999648
v 0.118286 0.368708 0.205652
v 0.060276 1.896212 0.165107
v -0.091714 0.368708 0.205652
vt 0.166667 0.175000
vt 0.333333 0.900000
vt 0.333333 0.175000
vn 0.000000 0.026534 0.999648
vn 0.000000 0.026534 0.999648
vn 0.000000 0.026534 0.999648
v -0.091714 0.368708 0.205652
v 0.060276 1.896212 0.165107
v -0.014099 1.896212 0.036286
vt 0.333333 0.175000
vt 0.333333 0.900000
vt 0.500000 0.900000
vn -0.861774 0.098955 0.497547
vn -0.861774 0.098955 0.497547
vn -0.861774 0.098955 0.497547
v -0.091714 0.368708 0.205652
v -0.014099 1.896212 0.036286
v -0.196714 0.368708 0.023787
vt 0.333333 0.175000
vt 0.500000 0.900000
vt 0.500000 0.175000
vn -0.861775 0.098955 0.497546
vn -0.861775 0.098955 0.497546
vn -0.861775 0.098955 0.497546
v -0.196714 0.368708 0.023787
v -0.014099 1.896212 0.036286
v 0.060276 1.896212 -0.092535
vt 0.500000 0.175000
vt 0.500000 0.900000
vt 0.666667 0.900000
vn -0.861052 0.107008 -0.497130
vn -0.861052 0.107008 -0.497130
vn -0.861052 0.107008 -0.497130
v -0.196714 0.368708 0.023787
v 0.060276 1.896212 -0.092535
v -0.091714 0.368708 -0.158078
vt 0.500000 0.175000
vt 0.666667 0.900000
vt 0.666667 0.175000
vn -0.861053 0.107008 -0.497129
vn -0.861053 0.107008 -0.497129
vn -0.861053 0.107008 -0.497129
v -0.091714 0.368708 -0.158078
v 0.060276 1.896212 -0.092535
v 0.209026 1.896212 -0.092535
vt 0.666667 0.175000
vt 0.666667 0.900000
vt 0.833333 0.900000
vn 0.000000 0.042869 -0.999081
vn 0.000000 0.042869 -0.999081
vn 0.000000 0.042869 -0.999081
v -0.091714 0.368708 -0.158078
v 0.209026 1.896212 -0.092535
v 0.118286 0.368708 -0.158078
vt 0.666667 0.175000
vt 0.833333 0.900000
vt 0.833333 0.175000
vn 0.000000 0.042869 -0.999081
vn 0.000000 0.042869 -0.999081
vn 0.000000 0.042869 -0.999081
v 0.118286 0.368708 -0.158078
v 0.209026 1.896212 -0.092535
v 0.283401 1.896212 0.036286
vt 0.833333 0.175000
vt 0.833333 0.900000
vt 1.000000 0.900000
vn 0.865636 -0.029978 -0.499776
vn 0.865636 -0.029978 -0.499776
vn 0.865636 -0.029978 -0.499776
v 0.118286 0.368708 -0.158078
v 0.283401 1.896212 0.036286
v 0.223286 0.368708 0.023787
vt 0.833333 0.175000
vt 1.000000 0.900000
vt 1.000000 0.175000
vn 0.865636 -0.029978 -0.499775
vn 0.865636 -0.029978 -0.499775
vn 0.865636 -0.029978 -0.499775
v 0.283401 1.896212 0.036286
v 0.319853 3.897770 -0.001536
v 0.276103 3.897770 0.074242
vt 0.000000 0.900000
vt 0.000000 1.850000
vt 0.166667 1.850000
vn 0.866009 -0.006323 0.499988
vn 0.866009 -0.006323 0.499988
vn 0.866009 -0.006323 0.499988
v 0.283401 1.896212 0.036286
v 0.276103 3.897770 0.074242
v 0.209026 1.896212 0.165107
vt 0.000000 0.900000
vt 0.166667 1.850000
vt 0.166667 0.900000
vn 0.866008 -0.006324 0.499991
vn 0.866008 -0.006324 0.499991
vn 0.866008 -0.006324 0.499991
v 0.209026 1.896212 0.165107
v 0.276103 3.897770 0.074242
v 0.188603 3.897770 0.074242
vt 0.166667 0.900000
vt 0.166667 1.850000
vt 0.333333 1.850000
vn 0.000000 0.045351 0.998971
vn 0.000000 0.045351 0.998971
vn 0.000000 0.045351 0.998971
v 0.209026 1.896212 0.165107
v 0.188603 3.897770 0.074242
v 0.060276 1.896212 0.165107
vt 0.166667 0.900000
vt 0.333333 1.850000
vt 0.333333 0.900000
vn 0.000000 0.045351 0.998971
vn 0.000000 0.045351 0.998971
vn 0.000000 0.045351 0.998971
v 0.060276 1.896212 0.165107
v 0.188603 3.897770 0.074242
v 0.144853 3.897770 -0.001536
vt 0.333333 0.900000
vt 0.333333 1.850000
vt 0.500000 1.850000
vn -0.863389 0.077984 0.498475
vn -0.863389 0.077984 0.498475
vn -0.863389 0.077984 0.498475
v 0.060276 1.896212 0.165107
v 0.144853 3.897770 -0.001536
v -0.014099 1.896212 0.036286
vt 0.333333 0.900000
vt 0.500000 1.850000
vt 0.500000 0.900000
vn -0.863388 0.077984 0.498478
vn -0.863388 0.077984 0.498478
vn -0.863388 0.077984 0.498478
v -0.014099 1.896212 0.036286
v 0.144853 3.897770 -0.001536
v 0.188603 3.897770 -0.077313
vt 0.500000 0.900000
vt 0.500000 1.850000
vt 0.666667 1.850000
vn -0.864507 0.059222 -0.499120
vn -0.864507 0.059222 -0.499120
vn -0.864507 0.059222 -0.499120
v -0.014099 1.896212 0.036286
v 0.188603 3.897770 -0.077313
v 0.060276 1.896212 -0.092535
vt 0.500000 0.900000
vt 0.666667 1.850000
vt 0.666667 0.900000
vn -0.864505 0.059222 -0.499123
vn -0.864505 0.059222 -0.499123
vn -0.864505 0.059222 -0.499123
v 0.060276 1.896212 -0.092535
v 0.188603 3.897770 -0.077313
v 0.276103 3.897770 -0.077313
vt 0.666667 0.900000
vt 0.666667 1.850000
vt 0.833333 1.850000
vn 0.000000 0.007605 -0.999971
vn 0.000000 0.007605 -0.999971
vn 0.000000 0.007605 -0.999971
v 0.060276 1.896212 -0.092535
v 0.276103 3.897770 -0.077313
v 0.209026 1.896212 -0.092535
vt 0.666667 0.900000
vt 0.833333 1.850000
vt 0.833333 0.900000
vn 0.000000 0.007605 -0.999971
vn 0.000000 0.007605 -0.999971
vn 0.000000 0.007605 -0.999971
v 0.209026 1.896212 -0.092535
v 0.276103 3.897770 -0.077313
v 0.319853 3.897770 -0.001536
vt 0.833333 0.900000
vt 0.833333 1.850000
vt 1.000000 1.850000
vn 0.865751 -0.025212 -0.499839
vn 0.865751 -0.025212 -0.499839
vn 0.865751 -0.025212 -0.499839
v 0.209026 1.896212 -0.092535
v 0.319853 3.897770 -0.001536
v 0.283401 1.896212 0.036286
vt 0.833333 0.900000
vt 1.000000 1.850000
vt 1.000000 0.900000
vn 0.865750 -0.025212 -0.499842
vn 0.865750 -0.025212 -0.499842
vn 0.865750 -0.025212 -0.499842
v 0.319853 3.897770 -0.001536
v 0.570001 5.952000 -0.012711
v 0.559063 5.952000 0.006234
vt 0.000000 1.850000
vt 0.000000 2.825000
vt 0.166667 2.825000
vn 0.861494 -0.102200 0.497376
vn 0.861494 -0.102200 0.497376
vn 0.861494 -0.102200 0.497376
v 0.319853 3.897770 -0.001536
v 0.559063 5.952000 0.006234
v 0.276103 3.897770 0.074242
vt 0.000000 1.850000
vt 0.166667 2.825000
vt 0.166667 1.850000
vn 0.861492 -0.102200 0.497380
vn 0.861492 -0.102200 0.497380
vn 0.861492 -0.102200 0.497380
v 0.276103 3.897770 0.074242
v 0.559063 5.952000 0.006234
v 0.537188 5.952000 0.006234
vt 0.166667 1.850000
vt 0.166667 2.825000
vt 0.333333 2.825000
vn 0.000000 0.033088 0.999452
vn 0.000000 0.033088 0.999452
vn 0.000000 0.033088 0.999452
v 0.276103 3.897770 0.074242
v 0.537188 5.952000 0.006234
v 0.188603 3.897770 0.074242
vt 0.166667 1.850000
vt 0.333333 2.825000
vt 0.333333 1.850000
vn 0.000000 0.033088 0.999452
vn 0.000000 0.033088 0.999452
vn 0.000000 0.033088 0.999452
v 0.188603 3.897770 0.074242
v 0.537188 5.952000 0.006234
v 0.526251 5.952000 -0.012711
vt 0.333333 1.850000
vt 0.333333 2.825000
vt 0.500000 2.825000
vn -0.854679 0.161368 0.493441
vn -0.854679 0.161368 0.493441
vn -0.854679 0.161368 0.493441
v 0.188603 3.897770 0.074242
v 0.526251 5.952000 -0.012711
v 0.144853 3.897770 -0.001536
vt 0.333333 1.850000
vt 0.500000 2.825000
vt 0.500000 1.850000
vn -0.854677 0.161368 0.493445
vn -0.854677 0.161368 0.493445
vn -0.854677 0.161368 0.493445
v 0.144853 3.897770 -0.001536
v 0.526251 5.952000 -0.012711
v 0.537188 5.952000 -0.031655
vt 0.500000 1.850000
vt 0.500000 2.825000
vt 0.666667 2.825000
vn -0.855408 0.156132 -0.493862
vn -0.855408 0.156132 -0.493862
vn -0.855408 0.156132 -0.493862
v 0.144853 3.897770 -0.001536
v 0.537188 5.952000 -0.031655
v 0.188603 3.897770 -0.077313
vt 0.500000 1.850000
vt 0.666667 2.825000
vt 0.666667 1.850000
vn -0.855406 0.156132 -0.493866
vn -0.855406 0.156132 -0.493866
vn -0.855406 0.156132 -0.493866
v 0.188603 3.897770 -0.077313
v 0.537188 5.952000 -0.031655
v 0.559063 5.952000 -0.031655
vt 0.666667 1.850000
vt 0.666667 2.825000
vt 0.833333 2.825000
vn 0.000000 0.022221 -0.999753
vn 0.000000 0.022221 -0.999753
vn 0.000000 0.022221 -0.999753
v 0.188603 3.897770 -0.077313
v 0.559063 5.952000 -0.031655
v 0.276103 3.897770 -0.077313
vt 0.666667 1.850000
vt 0.833333 2.825000
vt 0.833333 1.850000
vn 0.000000 0.022221 -0.999753
vn 0.000000 0.022221 -0.999753
vn 0.000000 0.022221 -0.999753
v 0.276103 3.897770 -0.077313
v 0.559063 5.952000 -0.031655
v 0.570001 5.952000 -0.012711
vt 0.833333 1.850000
vt 0.833333 2.825000
vt 1.000000 2.825000
vn 0.861006 -0.107551 -0.497094
vn 0.861006 -0.107551 -0.497094
vn 0.861006 -0.107551 -0.497094
v 0.276103 3.897770 -0.077313
v 0.570001 5.952000 -0.012711
v 0.319853 3.897770 -0.001536
vt 0.833333 1.850000
vt 1.000000 2.825000
vt 1.000000 1.850000
vn 0.861003 -0.107550 -0.497098
vn 0.861003 -0.107550 -0.497098
vn 0.861003 -0.107550 -0.497098
v 0.000000 0.000000 0.000000
v 0.280000 0.000000 0.000000
v 0.140000 0.000000 0.242487
vt 0.500000 0.500000
vt 0.820000 0.500000
vt 0.660000 0.777128
vn 0.000000 -1.000000 0.000000
vn 0.000000 -1.000000 0.000000
vn 0.000000 -1.000000 0.000000
v 0.000000 0.000000 0.000000
v 0.140000 0.000000 0.242487
v -0.140000 0.000000 0.242487
vt 0.500000 0.500000
vt 0.660000 0.777128
vt 0.340000 0.777128
vn 0.000000 -1.000000 0.000000
vn 0.000000 -1.000000 0.000000
vn 0.000000 -1.000000 0.000000
v 0.000000 0.000000 0.000000
v -0.140000 0.000000 0.242487
v -0.280000 0.000000 0.000000
vt 0.500000 0.500000
vt 0.340000 0.777128
vt 0.180000 0.500000
vn 0.000000 -1.000000 0.000000
vn 0.000000 -1.000000 0.000000
vn 0.000000 -1.000000 0.000000
v 0.000000 0.000000 0.000000
v -0.280000 0.000000 0.000000
v -0.140000 0.000000 -0.242487
vt 0.500000 0.500000
vt 0.180000 0.500000
vt 0.340000 0.222872
vn -0.000000 -1.000000 0.000000
vn -0.000000 -1.000000 0.000000
vn -0.000000 -1.000000 0.000000
v 0.000000 0.000000 0.000000
v -0.140000 0.000000 -0.242487
v 0.140000 0.000000 -0.242487
vt 0.500000 0.500000
vt 0.340000 0.222872
vt 0.660000 0.222872
vn 0.000000 -1.000000 -0.000000
vn 0.000000 -1.000000 -0.000000
vn 0.000000 -1.000000 -0.000000
v 0.000000 0.000000 0.000000
v 0.140000 0.000000 -0.242487
v 0.280000 0.000000 0.000000
vt 0.500000 0.500000
vt 0.660000 0.222872
vt 0.820000 0.500000
vn 0.000000 -1.000000 0.000000
vn 0.000000 -1.000000 0.000000
vn 0.000000 -1.000000 0.000000
v 0.548126 5.952000 -0.012711
v 0.559063 5.952000 0.006234
v 0.570001 5.952000 -0.012711
vt 0.540000 0.510000
vt 0.552500 0.531651
vt 0.565000 0.510000
vn 0.000000 1.000000 0.000000
vn 0.000000 1.000000 0.000000
vn 0.000000 1.000000 0.000000
v 0.548126 5.952000 -0.012711
v 0.537188 5.952000 0.006234
v 0.559063 5.952000 0.006234
vt 0.540000 0.510000
vt 0.527500 0.531651
vt 0.552500 0.531651
vn 0.000000 1.000000 -0.000000
vn 0.000000 1.000000 -0.000000
vn 0.000000 1.000000 -0.000000
v 0.548126 5.952000 -0.012711
v 0.526251 5.952000 -0.012711
v 0.537188 5.952000 0.006234
vt 0.540000 0.510000
vt 0.515000 0.510000
vt 0.527500 0.531651
vn 0.000000 1.000000 0.000000
vn 0.000000 1.000000 0.000000
vn 0.000000 1.000000 0.000000
v 0.548126 5.952000 -0.012711
v 0.537188 5.952000 -0.031655
v 0.526251 5.952000 -0.012711
vt 0.540000 0.510000
vt 0.527500 0.488349
vt 0.515000 0.510000
vn 0.000000 1.000000 0.000000
vn 0.000000 1.000000 0.000000
vn 0.000000 1.000000 0.000000
v 0.548126 5.952000 -0.012711
v 0.559063 5.952000 -0.031655
v 0.537188 5.952000 -0.031655
vt 0.540000 0.510000
vt 0.552500 0.488349
vt 0.527500 0.488349
vn 0.000000 1.000000 0.000000
vn 0.000000 1.000000 0.000000
vn 0.000000 1.000000 0.000000
v 0.548126 5.952000 -0.012711
v 0.570001 5.952000 -0.012711
v 0.559063 5.952000 -0.031655
vt 0.540000 0.510000
vt 0.565000 0.510000
vt 0.552500 0.488349
vn -0.000000 1.000000 0.000000
vn -0.000000 1.000000 0.000000
vn -0.000000 1.000000 0.000000
v 1.815023 1.142379 -1.013192
v 1.815023 1.142379 1.142426
v 0.080660 2.409380 1.142426
vt 0.000000 0.000000
vt 1.000000 0.000000
vt 1.000000 1.000000
vn -0.589890 -0.807484 0.000000
vn -0.589890 -0.807484 0.000000
vn -0.589890 -0.807484 0.000000
v 1.815023 1.142379 -1.013192
v 0.080660 2.409380 1.142426
v 0.080660 2.409380 -1.013192
vt 0.000000 0.000000
vt 1.000000 1.000000
vt 0.000000 1.000000
vn -0.589890 -0.807484 0.000000
vn -0.589890 -0.807484 0.000000
vn -0.589890 -0.807484 0.000000
v 2.125232 1.142379 0.805732
v 0.329896 1.142379 2.237465
v -0.822656 2.409380 0.792211
vt 0.000000 0.000000
vt 1.000000 0.000000
vt 1.000000 1.000000
vn -0.352492 -0.824849 -0.442011
vn -0.352492 -0.824849 -0.442011
vn -0.352492 -0.824849 -0.442011
v 2.125232 1.142379 0.805732
v -0.822656 2.409380 0.792211
v 0.972680 2.409380 -0.639522
vt 0.000000 0.000000
vt 1.000000 1.000000
vt 0.000000 1.000000
vn -0.352492 -0.824849 -0.442011
vn -0.352492 -0.824849 -0.442011
vn -0.352492 -0.824849 -0.442011
v -0.881518 1.142379 1.542955
v -1.680707 1.142379 -0.116578
v -0.347449 2.409380 -0.758641
vt 0.000000 0.000000
vt 1.000000 0.000000
vt 1.000000 1.000000
vn 0.585969 -0.759612 -0.282188
vn 0.585969 -0.759612 -0.282188
vn 0.585969 -0.759612 -0.282188
v -0.881518 1.142379 1.542955
v -0.347449 2.409380 -0.758641
v 0.451740 2.409380 0.900892
vt 0.000000 0.000000
vt 1.000000 1.000000
vt 0.000000 1.000000
vn 0.585969 -0.759612 -0.282188
vn 0.585969 -0.759612 -0.282188
vn 0.585969 -0.759612 -0.282188
v -1.759315 1.142379 0.253968
v -0.924153 1.142379 -1.480264
v 0.469726 2.409380 -0.809008
vt 0.000000 0.000000
vt 1.000000 0.000000
vt 1.000000 1.000000
vn 0.570852 -0.773663 0.274908
vn 0.570852 -0.773663 0.274908
vn 0.570852 -0.773663 0.274908
v -1.759315 1.142379 0.253968
v 0.469726 2.409380 -0.809008
v -0.365436 2.409380 0.925225
vt 0.000000 0.000000
vt 1.000000 1.000000
vt 0.000000 1.000000
vn 0.570852 -0.773663 0.274908
vn 0.570852 -0.773663 0.274908
vn 0.570852 -0.773663 0.274908
v -1.468188 1.142379 -1.496512
v 0.770261 1.142379 -2.007423
v 1.181547 2.409380 -0.205463
vt 0.000000 0.000000
vt 1.000000 0.000000
vt 1.000000 1.000000
vn 0.125815 -0.824813 0.551230
vn 0.125815 -0.824813 0.551230
vn 0.125815 -0.824813 0.551230
v -1.468188 1.142379 -1.496512
v 1.181547 2.409380 -0.205463
v -1.056903 2.409380 0.305449
vt 0.000000 0.000000
vt 1.000000 1.000000
vt 0.000000 1.000000
vn 0.125815 -0.824813 0.551230
vn 0.125815 -0.824813 0.551230
vn 0.125815 -0.824813 0.551230
v 0.337432 1.142379 -2.170204
v 2.183974 1.142379 -0.697636
v 0.998283 2.409380 0.789173
vt 0.000000 0.000000
vt 1.000000 0.000000
vt 1.000000 1.000000
vn -0.345699 -0.832212 0.433493
vn -0.345699 -0.832212 0.433493
vn -0.345699 -0.832212 0.433493
v 0.337432 1.142379 -2.170204
v 0.998283 2.409380 0.789173
v -0.848259 2.409380 -0.683394
vt 0.000000 0.000000
vt 1.000000 1.000000
vt 0.000000 1.000000
vn -0.345699 -0.832212 0.433493
vn -0.345699 -0.832212 0.433493
vn -0.345699 -0.832212 0.433493
v 1.961244 1.900503 -0.225873
v 1.183493 1.900503 1.563578
v -0.254956 3.167504 0.938383
vt 0.000000 0.000000
vt 1.000000 0.000000
vt 1.000000 1.000000
vn -0.576312 -0.777896 -0.250483
vn -0.576312 -0.777896 -0.250483
vn -0.576312 -0.777896 -0.250483
v 1.961244 1.900503 -0.225873
v -0.254956 3.167504 0.938383
v 0.522795 3.167504 -0.851068
vt 0.000000 0.000000
vt 1.000000 1.000000
vt 0.000000 1.000000
vn -0.576312 -0.777896 -0.250483
vn -0.576312 -0.777896 -0.250483
vn -0.576312 -0.777896 -0.250483
v 1.131368 1.900503 0.989991
v -0.275687 1.900503 1.369121
v -0.579463 3.167504 0.241727
vt 0.000000 0.000000
vt 1.000000 0.000000
vt 1.000000 1.000000
vn -0.191320 -0.677673 -0.710040
vn -0.191320 -0.677673 -0.710040
vn -0.191320 -0.677673 -0.710040
v 1.131368 1.900503 0.989991
v -0.579463 3.167504 0.241727
v 0.827593 3.167504 -0.137403
vt 0.000000 0.000000
vt 1.000000 1.000000
vt 0.000000 1.000000
vn -0.191320 -0.677673 -0.710040
vn -0.191320 -0.677673 -0.710040
vn -0.191320 -0.677673 -0.710040
v -0.015646 1.900503 1.685827
v -1.413005 1.900503 0.657546
v -0.587407 3.167504 -0.464380
vt 0.000000 0.000000
vt 1.000000 0.000000
vt 1.000000 1.000000
vn 0.398806 -0.739761 -0.541948
vn 0.398806 -0.739761 -0.541948
vn 0.398806 -0.739761 -0.541948
v -0.015646 1.900503 1.685827
v -0.587407 3.167504 -0.464380
v 0.809951 3.167504 0.563901
vt 0.000000 0.000000
vt 1.000000 1.000000
vt 0.000000 1.000000
vn 0.398806 -0.739761 -0.541948
vn 0.398806 -0.739761 -0.541948
vn 0.398806 -0.739761 -0.541948
v -1.498632 1.900503 1.123859
v -1.577961 1.900503 -0.919744
v 0.065509 3.167504 -0.983541
vt 0.000000 0.000000
vt 1.000000 0.000000
vt 1.000000 1.000000
vn 0.609809 -0.792195 -0.023672
vn 0.609809 -0.792195 -0.023672
vn 0.609809 -0.792195 -0.023672
v -1.498632 1.900503 1.123859
v 0.065509 3.167504 -0.983541
v 0.144839 3.167504 1.060062
vt 0.000000 0.000000
vt 1.000000 1.000000
vt 0.000000 1.000000
vn 0.609809 -0.792195 -0.023672
vn 0.609809 -0.792195 -0.023672
vn 0.609809 -0.792195 -0.023672
v -1.468525 1.900503 -0.465297
v -0.145019 1.900503 -1.607493
v 0.772115 3.167504 -0.544775
vt 0.000000 0.000000
vt 1.000000 0.000000
vt 1.000000 1.000000
vn 0.437759 -0.742339 0.507248
vn 0.437759 -0.742339 0.507248
vn 0.437759 -0.742339 0.507248
v -1.468525 1.900503 -0.465297
v 0.772115 3.167504 -0.544775
v -0.551391 3.167504 0.597421
vt 0.000000 0.000000
vt 1.000000 1.000000
vt 0.000000 1.000000
vn 0.437759 -0.742339 0.507248
vn 0.437759 -0.742339 0.507248
vn 0.437759 -0.742339 0.507248
v -0.473151 1.900503 -1.507657
v 1.233614 1.900503 -1.187192
v 0.976313 3.167504 0.183169
vt 0.000000 0.000000
vt 1.000000 0.000000
vt 1.000000 1.000000
vn -0.124103 -0.740085 0.660963
vn -0.124103 -0.740085 0.660963
vn -0.124103 -0.740085 0.660963
v -0.473151 1.900503 -1.507657
v 0.976313 3.167504 0.183169
v -0.730452 3.167504 -0.137296
vt 0.000000 0.000000
vt 1.000000 1.000000
vt 0.000000 1.000000
vn -0.124103 -0.740085 0.660963
vn -0.124103 -0.740085 0.660963
vn -0.124103 -0.740085 0.660963
v 0.923880 1.900503 -1.330864
v 1.703948 1.900503 0.140113
v 0.523449 3.167504 0.766139
vt 0.000000 0.000000
vt 1.000000 0.000000
vt 1.000000 1.000000
vn -0.607875 -0.725652 0.322360
vn -0.607875 -0.725652 0.322360
vn -0.607875 -0.725652 0.322360
v 0.923880 1.900503 -1.330864
v 0.523449 3.167504 0.766139
v -0.256620 3.167504 -0.704837
vt 0.000000 0.000000
vt 1.000000 1.000000
vt 0.000000 1.000000
vn -0.607875 -0.725652 0.322360
vn -0.607875 -0.725652 0.322360
vn -0.607875 -0.725652 0.322360
v 1.690335 2.658626 0.402491
v 0.494986 2.658626 1.517853
v -0.399939 3.925628 0.558751
vt 0.000000 0.000000
vt 1.000000 0.000000
vt 1.000000 1.000000
vn -0.473955 -0.719277 -0.507944
vn -0.473955 -0.719277 -0.507944
vn -0.473955 -0.719277 -0.507944
v 1.690335 2.658626 0.402491
v -0.399939 3.925628 0.558751
v 0.795410 3.925628 -0.556612
vt 0.000000 0.000000
vt 1.000000 1.000000
vt 0.000000 1.000000
vn -0.473955 -0.719277 -0.507944
vn -0.473955 -0.719277 -0.507944
vn -0.473955 -0.719277 -0.507944
v 0.765116 2.658626 1.336041
v -0.754912 2.658626 1.111282
v -0.574706 3.925628 -0.107439
vt 0.000000 0.000000
vt 1.000000 0.000000
vt 1.000000 1.000000
vn 0.104872 -0.697126 -0.709237
vn 0.104872 -0.697126 -0.709237
vn 0.104872 -0.697126 -0.709237
v 0.765116 2.658626 1.336041
v -0.574706 3.925628 -0.107439
v 0.945323 3.925628 0.117321
vt 0.000000 0.000000
vt 1.000000 1.000000
vt 0.000000 1.000000
vn 0.104872 -0.697126 -0.709237
vn 0.104872 -0.697126 -0.709237
vn 0.104872 -0.697126 -0.709237
v -1.504462 2.658626 0.299707
v -0.849904 2.658626 -1.381898
v 0.500803 3.925628 -0.856142
vt 0.000000 0.000000
vt 1.000000 0.000000
vt 1.000000 1.000000
vn 0.613314 -0.752897 0.238730
vn 0.613314 -0.752897 0.238730
vn 0.613314 -0.752897 0.238730
v -1.504462 2.658626 0.299707
v 0.500803 3.925628 -0.856142
v -0.153755 3.925628 0.825464
vt 0.000000 0.000000
vt 1.000000 1.000000
vt 0.000000 1.000000
vn 0.613314 -0.752897 0.238730
vn 0.613314 -0.752897 0.238730
vn 0.613314 -0.752897 0.238730
v -0.990719 2.658626 -1.036242
v 0.574369 2.658626 -1.523807
v 0.965585 3.925628 -0.268002
vt 0.000000 0.000000
vt 1.000000 0.000000
vt 1.000000 1.000000
vn 0.206341 -0.720215 0.662355
vn 0.206341 -0.720215 0.662355
vn 0.206341 -0.720215 0.662355
v -0.990719 2.658626 -1.036242
v 0.965585 3.925628 -0.268002
v -0.599503 3.925628 0.219564
vt 0.000000 0.000000
vt 1.000000 1.000000
vt 0.000000 1.000000
vn 0.206341 -0.720215 0.662355
vn 0.206341 -0.720215 0.662355
vn 0.206341 -0.720215 0.662355
v 0.246518 2.658626 -1.368357
v 1.427391 2.658626 -0.568082
v 0.786354 3.925628 0.377822
vt 0.000000 0.000000
vt 1.000000 0.000000
vt 1.000000 1.000000
vn -0.416607 -0.669727 0.614739
vn -0.416607 -0.669727 0.614739
vn -0.416607 -0.669727 0.614739
v 0.246518 2.658626 -1.368357
v 0.786354 3.925628 0.377822
v -0.394519 3.925628 -0.422452
vt 0.000000 0.000000
vt 1.000000 1.000000
vt 0.000000 1.000000
vn -0.416607 -0.669727 0.614739
vn -0.416607 -0.669727 0.614739
vn -0.416607 -0.669727 0.614739
v 1.642026 2.658626 -1.069928
v 1.788398 2.658626 0.812561
v 0.275643 3.925628 0.930184
vt 0.000000 0.000000
vt 1.000000 0.000000
vt 1.000000 1.000000
vn -0.639022 -0.767582 0.049687
vn -0.639022 -0.767582 0.049687
vn -0.639022 -0.767582 0.049687
v 1.642026 2.658626 -1.069928
v 0.275643 3.925628 0.930184
v 0.129272 3.925628 -0.952305
vt 0.000000 0.000000
vt 1.000000 1.000000
vt 0.000000 1.000000
vn -0.639022 -0.767582 0.049687
vn -0.639022 -0.767582 0.049687
vn -0.639022 -0.767582 0.049687
v 1.110063 3.416750 0.626904
v 0.039525 3.416750 1.006552
v -0.263559 4.683752 0.151908
vt 0.000000 0.000000
vt 1.000000 0.000000
vt 1.000000 1.000000
vn -0.271798 -0.582000 -0.766421
vn -0.271798 -0.582000 -0.766421
vn -0.271798 -0.582000 -0.766421
v 1.110063 3.416750 0.626904
v -0.263559 4.683752 0.151908
v 0.806978 4.683752 -0.227739
vt 0.000000 0.000000
vt 1.000000 1.000000
vt 0.000000 1.000000
vn -0.271798 -0.582000 -0.766421
vn -0.271798 -0.582000 -0.766421
vn -0.271798 -0.582000 -0.766421
v 0.261827 3.416750 1.002554
v -0.677448 3.416750 0.417853
v -0.210869 4.683752 -0.331669
vt 0.000000 0.000000
vt 1.000000 0.000000
vt 1.000000 1.000000
vn 0.433588 -0.571714 -0.696523
vn 0.433588 -0.571714 -0.696523
vn 0.433588 -0.571714 -0.696523
v 0.261827 3.416750 1.002554
v -0.210869 4.683752 -0.331669
v 0.728406 4.683752 0.253032
vt 0.000000 0.000000
vt 1.000000 1.000000
vt 0.000000 1.000000
vn 0.433588 -0.571714 -0.696523
vn 0.433588 -0.571714 -0.696523
vn 0.433588 -0.571714 -0.696523
v -0.699757 3.416750 0.711394
v -0.849812 3.416750 -0.571949
v 0.176770 4.683752 -0.691982
vt 0.000000 0.000000
vt 1.000000 0.000000
vt 1.000000 1.000000
vn 0.769631 -0.632115 -0.089989
vn 0.769631 -0.632115 -0.089989
vn 0.769631 -0.632115 -0.089989
v -0.699757 3.416750 0.711394
v 0.176770 4.683752 -0.691982
v 0.326825 4.683752 0.591361
vt 0.000000 0.000000
vt 1.000000 1.000000
vt 0.000000 1.000000
vn 0.769631 -0.632115 -0.089989
vn 0.769631 -0.632115 -0.089989
vn 0.769631 -0.632115 -0.089989
v -1.049358 3.416750 -0.358833
v -0.051121 3.416750 -1.365486
v 0.755163 4.683752 -0.565941
vt 0.000000 0.000000
vt 1.000000 0.000000
vt 1.000000 1.000000
vn 0.528784 -0.667405 0.524364
vn 0.528784 -0.667405 0.524364
vn 0.528784 -0.667405 0.524364
v -1.049358 3.416750 -0.358833
v 0.755163 4.683752 -0.565941
v -0.243074 4.683752 0.440711
vt 0.000000 0.000000
vt 1.000000 1.000000
vt 0.000000 1.000000
vn 0.528784 -0.667405 0.524364
vn 0.528784 -0.667405 0.524364
vn 0.528784 -0.667405 0.524364
v -0.164781 3.416750 -0.958708
v 0.882469 3.416750 -0.845161
v 0.791938 4.683752 -0.010192
vt 0.000000 0.000000
vt 1.000000 0.000000
vt 1.000000 1.000000
vn -0.089846 -0.552510 0.828650
vn -0.089846 -0.552510 0.828650
vn -0.089846 -0.552510 0.828650
v -0.164781 3.416750 -0.958708
v 0.791938 4.683752 -0.010192
v -0.255312 4.683752 -0.123739
vt 0.000000 0.000000
vt 1.000000 1.000000
vt 0.000000 1.000000
vn -0.089846 -0.552510 0.828650
vn -0.089846 -0.552510 0.828650
vn -0.089846 -0.552510 0.828650
v 0.849499 3.416750 -1.248097
v 1.597065 3.416750 -0.069364
v 0.653146 4.683752 0.529280
vt 0.000000 0.000000
vt 1.000000 0.000000
vt 1.000000 1.000000
vn -0.633275 -0.661556 0.401630
vn -0.633275 -0.661556 0.401630
vn -0.633275 -0.661556 0.401630
v 0.849499 3.416750 -1.248097
v 0.653146 4.683752 0.529280
v -0.094420 4.683752 -0.649453
vt 0.000000 0.000000
vt 1.000000 1.000000
vt 0.000000 1.000000
vn -0.633275 -0.661556 0.401630
vn -0.633275 -0.661556 0.401630
vn -0.633275 -0.661556 0.401630
v 1.494390 3.416750 -0.326309
v 1.063747 3.416750 0.921167
v 0.065554 4.683752 0.576580
vt 0.000000 0.000000
vt 1.000000 0.000000
vt 1.000000 1.000000
vn -0.726124 -0.640243 -0.250666
vn -0.726124 -0.640243 -0.250666
vn -0.726124 -0.640243 -0.250666
v 1.494390 3.416750 -0.326309
v 0.065554 4.683752 0.576580
v 0.496196 4.683752 -0.670896
vt 0.000000 0.000000
vt 1.000000 1.000000
vt 0.000000 1.000000
vn -0.726124 -0.640243 -0.250666
vn -0.726124 -0.640243 -0.250666
vn -0.726124 -0.640243 -0.250666
v 0.670496 4.174874 0.532075
v -0.035928 4.174874 0.483110
v 0.002772 5.441876 -0.075215
vt 0.000000 0.000000
vt 1.000000 0.000000
vt 1.000000 1.000000
vn 0.063252 -0.404059 -0.912543
vn 0.063252 -0.404059 -0.912543
vn 0.063252 -0.404059 -0.912543
v 0.670496 4.174874 0.532075
v 0.002772 5.441876 -0.075215
v 0.709196 5.441876 -0.026249
vt 0.000000 0.000000
vt 1.000000 1.000000
vt 0.000000 1.000000
vn 0.063252 -0.404059 -0.912543
vn 0.063252 -0.404059 -0.912543
vn 0.063252 -0.404059 -0.912543
v 0.066351 4.174874 0.594720
v -0.363564 4.174874 -0.028329
v 0.129718 5.441876 -0.368702
vt 0.000000 0.000000
vt 1.000000 0.000000
vt 1.000000 1.000000
vn 0.744034 -0.427595 -0.513396
vn 0.744034 -0.427595 -0.513396
vn 0.744034 -0.427595 -0.513396
v 0.066351 4.174874 0.594720
v 0.129718 5.441876 -0.368702
v 0.559633 5.441876 0.254348
vt 0.000000 0.000000
vt 1.000000 1.000000
vt 0.000000 1.000000
vn 0.744034 -0.427595 -0.513396
vn 0.744034 -0.427595 -0.513396
vn 0.744034 -0.427595 -0.513396
v -0.314557 4.174874 0.111938
v -0.103646 4.174874 -0.585655
v 0.448119 5.441876 -0.418834
vt 0.000000 0.000000
vt 1.000000 0.000000
vt 1.000000 1.000000
vn 0.871274 -0.414113 0.263422
vn 0.871274 -0.414113 0.263422
vn 0.871274 -0.414113 0.263422
v -0.314557 4.174874 0.111938
v 0.448119 5.441876 -0.418834
v 0.237208 5.441876 0.278759
vt 0.000000 0.000000
vt 1.000000 1.000000
vt 0.000000 1.000000
vn 0.871274 -0.414113 0.263422
vn 0.871274 -0.414113 0.263422
vn 0.871274 -0.414113 0.263422
v -0.174998 4.174874 -0.460995
v 0.470846 4.174874 -0.718650
v 0.674385 5.441876 -0.208456
vt 0.000000 0.000000
vt 1.000000 0.000000
vt 1.000000 1.000000
vn 0.339970 -0.397767 0.852175
vn 0.339970 -0.397767 0.852175
vn 0.339970 -0.397767 0.852175
v -0.174998 4.174874 -0.460995
v 0.674385 5.441876 -0.208456
v 0.028541 5.441876 0.049199
vt 0.000000 0.000000
vt 1.000000 1.000000
vt 0.000000 1.000000
vn 0.339970 -0.397767 0.852175
vn 0.339970 -0.397767 0.852175
vn 0.339970 -0.397767 0.852175
v 0.328706 4.174874 -0.893746
v 1.083886 4.174874 -0.463359
v 0.742038 5.441876 0.136465
vt 0.000000 0.000000
vt 1.000000 0.000000
vt 1.000000 1.000000
vn -0.434786 -0.478481 0.762900
vn -0.434786 -0.478481 0.762900
vn -0.434786 -0.478481 0.762900
v 0.328706 4.174874 -0.893746
v 0.742038 5.441876 0.136465
v -0.013142 5.441876 -0.293922
vt 0.000000 0.000000
vt 1.000000 1.000000
vt 0.000000 1.000000
vn -0.434786 -0.478481 0.762900
vn -0.434786 -0.478481 0.762900
vn -0.434786 -0.478481 0.762900
v 0.987713 4.174874 -0.604928
v 1.122273 4.174874 0.255134
v 0.439121 5.441876 0.362016
vt 0.000000 0.000000
vt 1.000000 0.000000
vt 1.000000 1.000000
vn -0.867238 -0.479050 0.135683
vn -0.867238 -0.479050 0.135683
vn -0.867238 -0.479050 0.135683
v 0.987713 4.174874 -0.604928
v 0.439121 5.441876 0.362016
v 0.304561 5.441876 -0.498046
vt 0.000000 0.000000
vt 1.000000 1.000000
vt 0.000000 1.000000
vn -0.867238 -0.479050 0.135683
vn -0.867238 -0.479050 0.135683
vn -0.867238 -0.479050 0.135683
v 1.086403 4.174874 0.074743
v 0.559585 4.174874 0.648929
v 0.104665 5.441876 0.231538
vt 0.000000 0.000000
vt 1.000000 0.000000
vt 1.000000 1.000000
vn -0.662391 -0.438044 -0.607746
vn -0.662391 -0.438044 -0.607746
vn -0.662391 -0.438044 -0.607746
v 1.086403 4.174874 0.074743
v 0.104665 5.441876 0.231538
v 0.631483 5.441876 -0.342648
vt 0.000000 0.000000
vt 1.000000 1.000000
vt 0.000000 1.000000
vn -0.662391 -0.438044 -0.607746
vn -0.662391 -0.438044 -0.607746
vn -0.662391 -0.438044 -0.607746
v 0.484678 4.932998 0.322678
v 0.143018 4.932998 0.145152
v 0.280171 6.200000 -0.118807
vt 0.000000 0.000000
vt 1.000000 0.000000
vt 1.000000 1.000000
vn 0.448868 -0.228564 -0.863873
vn 0.448868 -0.228564 -0.863873
vn 0.448868 -0.228564 -0.863873
v 0.484678 4.932998 0.322678
v 0.280171 6.200000 -0.118807
v 0.621831 6.200000 0.058719
vt 0.000000 0.000000
vt 1.000000 1.000000
vt 0.000000 1.000000
vn 0.448868 -0.228564 -0.863873
vn 0.448868 -0.228564 -0.863873
vn 0.448868 -0.228564 -0.863873
v 0.190106 4.932998 0.204232
v 0.116343 4.932998 -0.171219
v 0.406317 6.200000 -0.228188
vt 0.000000 0.000000
vt 1.000000 0.000000
vt 1.000000 1.000000
vn 0.955593 -0.227144 -0.187741
vn 0.955593 -0.227144 -0.187741
vn 0.955593 -0.227144 -0.187741
v 0.190106 4.932998 0.204232
v 0.406317 6.200000 -0.228188
v 0.480080 6.200000 0.147262
vt 0.000000 0.000000
vt 1.000000 1.000000
vt 0.000000 1.000000
vn 0.955593 -0.227144 -0.187741
vn 0.955593 -0.227144 -0.187741
vn 0.955593 -0.227144 -0.187741
v 0.138057 4.932998 -0.092161
v 0.357669 4.932998 -0.350995
v 0.556285 6.200000 -0.182476
vt 0.000000 0.000000
vt 1.000000 0.000000
vt 1.000000 1.000000
vn 0.746896 -0.201372 0.633716
vn 0.746896 -0.201372 0.633716
vn 0.746896 -0.201372 0.633716
v 0.138057 4.932998 -0.092161
v 0.556285 6.200000 -0.182476
v 0.336673 6.200000 0.076358
vt 0.000000 0.000000
vt 1.000000 1.000000
vt 0.000000 1.000000
vn 0.746896 -0.201372 0.633716
vn 0.746896 -0.201372 0.633716
vn 0.746896 -0.201372 0.633716
v 0.279371 4.932998 -0.353909
v 0.655006 4.932998 -0.342484
v 0.646190 6.200000 -0.052635
vt 0.000000 0.000000
vt 1.000000 0.000000
vt 1.000000 1.000000
vn -0.029634 -0.223104 0.974344
vn -0.029634 -0.223104 0.974344
vn -0.029634 -0.223104 0.974344
v 0.279371 4.932998 -0.353909
v 0.646190 6.200000 -0.052635
v 0.270555 6.200000 -0.064060
vt 0.000000 0.000000
vt 1.000000 1.000000
vt 0.000000 1.000000
vn -0.029634 -0.223104 0.974344
vn -0.029634 -0.223104 0.974344
vn -0.029634 -0.223104 0.974344
v 0.607951 4.932998 -0.423600
v 0.865015 4.932998 -0.080343
v 0.598455 6.200000 0.119282
vt 0.000000 0.000000
vt 1.000000 0.000000
vt 1.000000 1.000000
vn -0.774130 -0.254209 0.579742
vn -0.774130 -0.254209 0.579742
vn -0.774130 -0.254209 0.579742
v 0.607951 4.932998 -0.423600
v 0.598455 6.200000 0.119282
v 0.341391 6.200000 -0.223975
vt 0.000000 0.000000
vt 1.000000 1.000000
vt 0.000000 1.000000
vn -0.774130 -0.254209 0.579742
vn -0.774130 -0.254209 0.579742
vn -0.774130 -0.254209 0.579742
v 0.886575 4.932998 -0.174725
v 0.768021 4.932998 0.280438
v 0.413155 6.200000 0.188007
vt 0.000000 0.000000
vt 1.000000 0.000000
vt 1.000000 1.000000
vn -0.929562 -0.278017 -0.242119
vn -0.929562 -0.278017 -0.242119
vn -0.929562 -0.278017 -0.242119
v 0.886575 4.932998 -0.174725
v 0.413155 6.200000 0.188007
v 0.531709 6.200000 -0.267155
vt 0.000000 0.000000
vt 1.000000 1.000000
vt 0.000000 1.000000
vn -0.929562 -0.278017 -0.242119
vn -0.929562 -0.278017 -0.242119
vn -0.929562 -0.278017 -0.242119
v 0.771135 4.932998 0.171029
v 0.407287 4.932998 0.332813
v 0.282087 6.200000 0.051244
vt 0.000000 0.000000
vt 1.000000 0.000000
vt 1.000000 1.000000
vn -0.394785 -0.236323 -0.887860
vn -0.394785 -0.236323 -0.887860
vn -0.394785 -0.236323 -0.887860
v 0.771135 4.932998 0.171029
v 0.282087 6.200000 0.051244
v 0.645935 6.200000 -0.110541
vt 0.000000 0.000000
vt 1.000000 1.000000
vt 0.000000 1.000000
vn -0.394785 -0.236323 -0.887860
vn -0.394785 -0.236323 -0.887860
vn -0.394785 -0.236323 -0.887860
usemtl Bark
f 1/1/1 2/2/2 3/3/3
f 4/4/4 5/5/5 6/6/6
f 7/7/7 8/8/8 9/9/9
f 10/10/10 11/11/11 12/12/12
f 13/13/13 14/14/14 15/15/15
f 16/16/16 17/17/17 18/18/18
f 19/19/19 20/20/20 21/21/21
f 22/22/22 23/23/23 24/24/24
f 25/25/25 26/26/26 27/27/27
f 28/28/28 29/29/29 30/30/30
f 31/31/31 32/32/32 33/33/33
f 34/34/34 35/35/35 36/36/36
f 37/37/37 38/38/38 39/39/39
f 40/40/40 41/41/41 42/42/42
f 43/43/43 44/44/44 45/45/45
f 46/46/46 47/47/47 48/48/48
f 49/49/49 50/50/50 51/51/51
f 52/52/52 53/53/53 54/54/54
f 55/55/55 56/56/56 57/57/57
f 58/58/58 59/59/59 60/60/60
f 61/61/61 62/62/62 63/63/63
f 64/64/64 65/65/65 66/66/66
f 67/67/67 68/68/68 69/69/69
f 70/70/70 71/71/71 72/72/72
f 73/73/73 74/74/74 75/75/75
f 76/76/76 77/77/77 78/78/78
f 79/79/79 80/80/80 81/81/81
f 82/82/82 83/83/83 84/84/84
f 85/85/85 86/86/86 87/87/87
f 88/88/88 89/89/89 90/90/90
f 91/91/91 92/92/92 93/93/93
f 94/94/94 95/95/95 96/96/96
f 97/97/97 98/98/98 99/99/99
f 100/100/100 101/101/101 102/102/102
f 103/103/103 104/104/104 105/105/105
f 106/106/106 107/107/107 108/108/108
f 109/109/109 110/110/110 111/111/111
f 112/112/112 113/113/113 114/114/114
f 115/115/115 116/116/116 117/117/117
f 118/118/118 119/119/119 120/120/120
f 121/121/121 122/122/122 123/123/123
f 124/124/124 125/125/125 126/126/126
f 127/127/127 128/128/128 129/129/129
f 130/130/130 131/131/131 132/132/132
f 133/133/133 134/134/134 135/135/135
f 136/136/136 137/137/137 138/138/138
f 139/139/139 140/140/140 141/141/141
f 142/142/142 143/143/143 144/144/144
f 145/145/145 146/146/146 147/147/147
f 148/148/148 149/149/149 150/150/150
f 151/151/151 152/152/152 153/153/153
f 154/154/154 155/155/155 156/156/156
f 157/157/157 158/158/158 159/159/159
f 160/160/160 161/161/161 162/162/162
f 163/163/163 164/164/164 165/165/165
f 166/166/166 167/167/167 168/168/168
f 169/169/169 170/170/170 171/171/171
f 172/172/172 173/173/173 174/174/174
f 175/175/175 176/176/176 177/177/177
f 178/178/178 179/179/179 180/180/180
usemtl Foliage
f 181/181/181 182/182/182 183/183/183
f 184/184/184 185/185/185 186/186/186
f 187/187/187 188/188/188 189/189/189
f 190/190/190 191/191/191 192/192/192
f 193/193/193 194/194/194 195/195/195
f 196/196/196 197/197/197 198/198/198
f 199/199/199 200/200/200 201/201/201
f 202/202/202 203/203/203 204/204/204
f 205/205/205 206/206/206 207/207/207
f 208/208/208 209/209/209 210/210/210
f 211/211/211 212/212/212 213/213/213
f 214/214/214 215/215/215 216/216/216
f 217/217/217 218/218/218 219/219/219
f 220/220/220 221/221/221 222/222/222
f 223/223/223 224/224/224 225/225/225
f 226/226/226 227/227/227 228/228/228
f 229/229/229 230/230/230 231/231/231
f 232/232/232 233/233/233 234/234/234
f 235/235/235 236/236/236 237/237/237
f 238/238/238 239/239/239 240/240/240
f 241/241/241 242/242/242 243/243/243
f 244/244/244 245/245/245 246/246/246
f 247/247/247 248/248/248 249/249/249
f 250/250/250 251/251/251 252/252/252
f 253/253/253 254/254/254 255/255/255
f 256/256/256 257/257/257 258/258/258
f 259/259/259 260/260/260 261/261/261
f 262/262/262 263/263/263 264/264/264
f 265/265/265 266/266/266 267/267/267
f 268/268/268 269/269/269 270/270/270
f 271/271/271 272/272/272 273/273/273
f 274/274/274 275/275/275 276/276/276
f 277/277/277 278/278/278 279/279/279
f 280/280/280 281/281/281 282/282/282
f 283/283/283 284/284/284 285/285/285
f 286/286/286 287/287/287 288/288/288
f 289/289/289 290/290/290 291/291/291
f 292/292/292 293/293/293 294/294/294
f 295/295/295 296/296/296 297/297/297
f 298/298/298 299/299/299 300/300/300
f 301/301/301 302/302/302 303/303/303
f 304/304/304 305/305/305 306/306/306
f 307/307/307 308/308/308 309/309/309
f 310/310/310 311/311/311 312/312/312
f 313/313/313 314/314/314 315/315/315
f 316/316/316 317/317/317 318/318/318
f 319/319/319 320/320/320 321/321/321
f 322/322/322 323/323/323 324/324/324
f 325/325/325 326/326/326 327/327/327
f 328/328/328 329/329/329 330/330/330
f 331/331/331 332/332/332 333/333/333
f 334/334/334 335/335/335 336/336/336
f 337/337/337 338/338/338 339/339/339
f 340/340/340 341/341/341 342/342/342
f 343/343/343 344/344/344 345/345/345
f 346/346/346 347/347/347 348/348/348
f 349/349/349 350/350/350 351/351/351
f 352/352/352 353/353/353 354/354/354
f 355/355/355 356/356/356 357/357/357
f 358/358/358 359/359/359 360/360/360
f 361/361/361 362/362/362 363/363/363
f 364/364/364 365/365/365 366/366/366
f 367/367/367 368/368/368 369/369/369
f 370/370/370 371/371/371 372/372/372
f 373/373/373 374/374/374 375/375/375
f 376/376/376 377/377/377 378/378/378
f 379/379/379 380/380/380 381/381/381
f 382/382/382 383/383/383 384/384/384
f 385/385/385 386/386/386 387/387/387
f 388/388/388 389/389/389 390/390/390
f 391/391/391 392/392/392 393/393/393
f 394/394/394 395/395/395 396/396/396
f 397/397/397 398/398/398 399/399/399
f 400/400/400 401/401/401 402/402/402
f 403/403/403 404/404/404 405/405/405
f 406/406/406 407/407/407 408/408/408
f 409/409/409 410/410/410 411/411/411
f 412/412/412 413/413/413 414/414/414
f 415/415/415 416/416/416 417/417/417
f 418/418/418 419/419/419 420/420/420
