# Metres, Y up, base pivot, trunk solid + flat foliage cards
mtllib TreeOliva.mtl
o Abete_07_Oliva
s off
v 0.300000 0.000000 0.000000
v 0.234375 0.291398 0.000000
v 0.121875 0.291398 0.194856
vt 0.000000 0.000000
vt 0.000000 0.175000
vt 0.166667 0.175000
vn 0.850010 0.191428 0.490753
vn 0.850010 0.191428 0.490753
vn 0.850010 0.191428 0.490753
v 0.300000 0.000000 0.000000
v 0.121875 0.291398 0.194856
v 0.150000 0.000000 0.259808
vt 0.000000 0.000000
vt 0.166667 0.175000
vt 0.166667 0.000000
vn 0.850010 0.191428 0.490753
vn 0.850010 0.191428 0.490753
vn 0.850010 0.191428 0.490753
v 0.150000 0.000000 0.259808
v 0.121875 0.291398 0.194856
v -0.103125 0.291398 0.194856
vt 0.166667 0.000000
vt 0.166667 0.175000
vt 0.333333 0.175000
vn 0.000000 0.217558 0.976047
vn 0.000000 0.217558 0.976047
vn 0.000000 0.217558 0.976047
v 0.150000 0.000000 0.259808
v -0.103125 0.291398 0.194856
v -0.150000 0.000000 0.259808
vt 0.166667 0.000000
vt 0.333333 0.175000
vt 0.333333 0.000000
vn 0.000000 0.217558 0.976047
vn 0.000000 0.217558 0.976047
vn 0.000000 0.217558 0.976047
v -0.150000 0.000000 0.259808
v -0.103125 0.291398 0.194856
v -0.215625 0.291398 0.000000
vt 0.333333 0.000000
vt 0.333333 0.175000
vt 0.500000 0.175000
vn -0.840018 0.243229 0.484984
vn -0.840018 0.243229 0.484984
vn -0.840018 0.243229 0.484984
v -0.150000 0.000000 0.259808
v -0.215625 0.291398 0.000000
v -0.300000 0.000000 0.000000
vt 0.333333 0.000000
vt 0.500000 0.175000
vt 0.500000 0.000000
vn -0.840018 0.243229 0.484984
vn -0.840018 0.243229 0.484984
vn -0.840018 0.243229 0.484984
v -0.300000 0.000000 0.000000
v -0.215625 0.291398 0.000000
v -0.103125 0.291398 -0.194856
vt 0.500000 0.000000
vt 0.500000 0.175000
vt 0.666667 0.175000
vn -0.840018 0.243229 -0.484984
vn -0.840018 0.243229 -0.484984
vn -0.840018 0.243229 -0.484984
v -0.300000 0.000000 0.000000
v -0.103125 0.291398 -0.194856
v -0.150000 0.000000 -0.259808
vt 0.500000 0.000000
vt 0.666667 0.175000
vt 0.666667 0.000000
vn -0.840018 0.243229 -0.484984
vn -0.840018 0.243229 -0.484984
vn -0.840018 0.243229 -0.484984
v -0.150000 0.000000 -0.259808
v -0.103125 0.291398 -0.194856
v 0.121875 0.291398 -0.194856
vt 0.666667 0.000000
vt 0.666667 0.175000
vt 0.833333 0.175000
vn -0.000000 0.217558 -0.976047
vn -0.000000 0.217558 -0.976047
vn -0.000000 0.217558 -0.976047
v -0.150000 0.000000 -0.259808
v 0.121875 0.291398 -0.194856
v 0.150000 0.000000 -0.259808
vt 0.666667 0.000000
vt 0.833333 0.175000
vt 0.833333 0.000000
vn -0.000000 0.217558 -0.976047
vn -0.000000 0.217558 -0.976047
vn -0.000000 0.217558 -0.976047
v 0.150000 0.000000 -0.259808
v 0.121875 0.291398 -0.194856
v 0.234375 0.291398 0.000000
vt 0.833333 0.000000
vt 0.833333 0.175000
vt 1.000000 0.175000
vn 0.850010 0.191428 -0.490753
vn 0.850010 0.191428 -0.490753
vn 0.850010 0.191428 -0.490753
v 0.150000 0.000000 -0.259808
v 0.234375 0.291398 0.000000
v 0.300000 0.000000 0.000000
vt 0.833333 0.000000
vt 1.000000 0.175000
vt 1.000000 0.000000
vn 0.850010 0.191428 -0.490753
vn 0.850010 0.191428 -0.490753
vn 0.850010 0.191428 -0.490753
v 0.234375 0.291398 0.000000
v 0.225000 1.498619 -0.028125
v 0.145313 1.498619 0.109898
vt 0.000000 0.175000
vt 0.000000 0.900000
vt 0.166667 0.900000
vn 0.865879 0.018371 0.499916
vn 0.865879 0.018371 0.499916
vn 0.865879 0.018371 0.499916
v 0.234375 0.291398 0.000000
v 0.145313 1.498619 0.109898
v 0.121875 0.291398 0.194856
vt 0.000000 0.175000
vt 0.166667 0.900000
vt 0.166667 0.175000
vn 0.865879 0.018371 0.499916
vn 0.865879 0.018371 0.499916
vn 0.865879 0.018371 0.499916
v 0.121875 0.291398 0.194856
v 0.145313 1.498619 0.109898
v -0.014062 1.498619 0.109898
vt 0.166667 0.175000
vt 0.166667 0.900000
vt 0.333333 0.900000
vn 0.000000 0.070201 0.997533
vn 0.000000 0.070201 0.997533
vn 0.000000 0.070201 0.997533
v 0.121875 0.291398 0.194856
v -0.014062 1.498619 0.109898
v -0.103125 0.291398 0.194856
vt 0.166667 0.175000
vt 0.333333 0.900000
vt 0.333333 0.175000
vn 0.000000 0.070201 0.997533
vn 0.000000 0.070201 0.997533
vn 0.000000 0.070201 0.997533
v -0.103125 0.291398 0.194856
v -0.014062 1.498619 0.109898
v -0.093750 1.498619 -0.028125
vt 0.333333 0.175000
vt 0.333333 0.900000
vt 0.500000 0.900000
vn -0.861806 0.098595 0.497564
vn -0.861806 0.098595 0.497564
vn -0.861806 0.098595 0.497564
v -0.103125 0.291398 0.194856
v -0.093750 1.498619 -0.028125
v -0.215625 0.291398 0.000000
vt 0.333333 0.175000
vt 0.500000 0.900000
vt 0.500000 0.175000
vn -0.861806 0.098595 0.497564
vn -0.861806 0.098595 0.497564
vn -0.861806 0.098595 0.497564
v -0.215625 0.291398 0.000000
v -0.093750 1.498619 -0.028125
v -0.014063 1.498619 -0.166148
vt 0.500000 0.175000
vt 0.500000 0.900000
vt 0.666667 0.900000
vn -0.863549 0.075564 -0.498570
vn -0.863549 0.075564 -0.498570
vn -0.863549 0.075564 -0.498570
v -0.215625 0.291398 0.000000
v -0.014063 1.498619 -0.166148
v -0.103125 0.291398 -0.194856
vt 0.500000 0.175000
vt 0.666667 0.900000
vt 0.666667 0.175000
vn -0.863549 0.075564 -0.498570
vn -0.863549 0.075564 -0.498570
vn -0.863549 0.075564 -0.498570
v -0.103125 0.291398 -0.194856
v -0.014063 1.498619 -0.166148
v 0.145313 1.498619 -0.166148
vt 0.666667 0.175000
vt 0.666667 0.900000
vt 0.833333 0.900000
vn -0.000000 0.023773 -0.999717
vn -0.000000 0.023773 -0.999717
vn -0.000000 0.023773 -0.999717
v -0.103125 0.291398 -0.194856
v 0.145313 1.498619 -0.166148
v 0.121875 0.291398 -0.194856
vt 0.666667 0.175000
vt 0.833333 0.900000
vt 0.833333 0.175000
vn -0.000000 0.023773 -0.999717
vn -0.000000 0.023773 -0.999717
vn -0.000000 0.023773 -0.999717
v 0.121875 0.291398 -0.194856
v 0.145313 1.498619 -0.166148
v 0.225000 1.498619 -0.028125
vt 0.833333 0.175000
vt 0.833333 0.900000
vt 1.000000 0.900000
vn 0.866015 -0.004923 -0.499994
vn 0.866015 -0.004923 -0.499994
vn 0.866015 -0.004923 -0.499994
v 0.121875 0.291398 -0.194856
v 0.225000 1.498619 -0.028125
v 0.234375 0.291398 0.000000
vt 0.833333 0.175000
vt 1.000000 0.900000
vt 1.000000 0.175000
vn 0.866015 -0.004923 -0.499994
vn 0.866015 -0.004923 -0.499994
vn 0.866015 -0.004923 -0.499994
v 0.225000 1.498619 -0.028125
v 0.075000 3.080496 0.046875
v 0.028125 3.080496 0.128065
vt 0.000000 0.900000
vt 0.000000 1.850000
vt 0.166667 1.850000
vn 0.864552 0.058315 0.499149
vn 0.864552 0.058315 0.499149
vn 0.864552 0.058315 0.499149
v 0.225000 1.498619 -0.028125
v 0.028125 3.080496 0.128065
v 0.145313 1.498619 0.109898
vt 0.000000 0.900000
vt 0.166667 1.850000
vt 0.166667 0.900000
vn 0.864552 0.058315 0.499149
vn 0.864552 0.058315 0.499149
vn 0.864552 0.058315 0.499149
v 0.145313 1.498619 0.109898
v 0.028125 3.080496 0.128065
v -0.065625 3.080496 0.128065
vt 0.166667 0.900000
vt 0.166667 1.850000
vt 0.333333 1.850000
vn 0.000000 -0.011484 0.999934
vn 0.000000 -0.011484 0.999934
vn 0.000000 -0.011484 0.999934
v 0.145313 1.498619 0.109898
v -0.065625 3.080496 0.128065
v -0.014062 1.498619 0.109898
vt 0.166667 0.900000
vt 0.333333 1.850000
vt 0.333333 0.900000
vn 0.000000 -0.011484 0.999934
vn 0.000000 -0.011484 0.999934
vn 0.000000 -0.011484 0.999934
v -0.014062 1.498619 0.109898
v -0.065625 3.080496 0.128065
v -0.112500 3.080496 0.046875
vt 0.333333 0.900000
vt 0.333333 1.850000
vt 0.500000 1.850000
vn -0.865526 -0.033951 0.499712
vn -0.865526 -0.033951 0.499712
vn -0.865526 -0.033951 0.499712
v -0.014062 1.498619 0.109898
v -0.112500 3.080496 0.046875
v -0.093750 1.498619 -0.028125
vt 0.333333 0.900000
vt 0.500000 1.850000
vt 0.500000 0.900000
vn -0.865526 -0.033951 0.499712
vn -0.865526 -0.033951 0.499712
vn -0.865526 -0.033951 0.499712
v -0.093750 1.498619 -0.028125
v -0.112500 3.080496 0.046875
v -0.065625 3.080496 -0.034315
vt 0.500000 0.900000
vt 0.500000 1.850000
vt 0.666667 1.850000
vn -0.865947 0.013440 -0.499955
vn -0.865947 0.013440 -0.499955
vn -0.865947 0.013440 -0.499955
v -0.093750 1.498619 -0.028125
v -0.065625 3.080496 -0.034315
v -0.014063 1.498619 -0.166148
vt 0.500000 0.900000
vt 0.666667 1.850000
vt 0.666667 0.900000
vn -0.865947 0.013440 -0.499955
vn -0.865947 0.013440 -0.499955
vn -0.865947 0.013440 -0.499955
v -0.014063 1.498619 -0.166148
v -0.065625 3.080496 -0.034315
v 0.028125 3.080496 -0.034315
vt 0.666667 0.900000
vt 0.666667 1.850000
vt 0.833333 1.850000
vn 0.000000 0.083052 -0.996545
vn 0.000000 0.083052 -0.996545
vn 0.000000 0.083052 -0.996545
v -0.014063 1.498619 -0.166148
v 0.028125 3.080496 -0.034315
v 0.145313 1.498619 -0.166148
vt 0.666667 0.900000
vt 0.833333 1.850000
vt 0.833333 0.900000
vn -0.000000 0.083052 -0.996545
vn -0.000000 0.083052 -0.996545
vn -0.000000 0.083052 -0.996545
v 0.145313 1.498619 -0.166148
v 0.028125 3.080496 -0.034315
v 0.075000 3.080496 0.046875
vt 0.833333 0.900000
vt 0.833333 1.850000
vt 1.000000 1.850000
vn 0.861216 0.105238 -0.497224
vn 0.861216 0.105238 -0.497224
vn 0.861216 0.105238 -0.497224
v 0.145313 1.498619 -0.166148
v 0.075000 3.080496 0.046875
v 0.225000 1.498619 -0.028125
vt 0.833333 0.900000
vt 1.000000 1.850000
vt 1.000000 0.900000
vn 0.861216 0.105238 -0.497224
vn 0.861216 0.105238 -0.497224
vn 0.861216 0.105238 -0.497224
v 0.075000 3.080496 0.046875
v 0.060937 4.704000 0.009375
v 0.049219 4.704000 0.029672
vt 0.000000 1.850000
vt 0.000000 2.825000
vt 0.166667 2.825000
vn 0.865868 0.019047 0.499909
vn 0.865868 0.019047 0.499909
vn 0.865868 0.019047 0.499909
v 0.075000 3.080496 0.046875
v 0.049219 4.704000 0.029672
v 0.028125 3.080496 0.128065
vt 0.000000 1.850000
vt 0.166667 2.825000
vt 0.166667 1.850000
vn 0.865868 0.019047 0.499909
vn 0.865868 0.019047 0.499909
vn 0.865868 0.019047 0.499909
v 0.028125 3.080496 0.128065
v 0.049219 4.704000 0.029672
v 0.025781 4.704000 0.029672
vt 0.166667 1.850000
vt 0.166667 2.825000
vt 0.333333 2.825000
vn 0.000000 0.060494 0.998169
vn 0.000000 0.060494 0.998169
vn 0.000000 0.060494 0.998169
v 0.028125 3.080496 0.128065
v 0.025781 4.704000 0.029672
v -0.065625 3.080496 0.128065
vt 0.166667 1.850000
vt 0.333333 2.825000
vt 0.333333 1.850000
vn 0.000000 0.060494 0.998169
vn 0.000000 0.060494 0.998169
vn 0.000000 0.060494 0.998169
v -0.065625 3.080496 0.128065
v 0.025781 4.704000 0.029672
v 0.014062 4.704000 0.009375
vt 0.333333 1.850000
vt 0.333333 2.825000
vt 0.500000 2.825000
vn -0.863331 0.078815 0.498445
vn -0.863331 0.078815 0.498445
vn -0.863331 0.078815 0.498445
v -0.065625 3.080496 0.128065
v 0.014062 4.704000 0.009375
v -0.112500 3.080496 0.046875
vt 0.333333 1.850000
vt 0.500000 2.825000
vt 0.500000 1.850000
vn -0.863331 0.078815 0.498445
vn -0.863331 0.078815 0.498445
vn -0.863331 0.078815 0.498445
v -0.112500 3.080496 0.046875
v 0.014062 4.704000 0.009375
v 0.025781 4.704000 -0.010922
vt 0.500000 1.850000
vt 0.500000 2.825000
vt 0.666667 2.825000
vn -0.864672 0.055876 -0.499219
vn -0.864672 0.055876 -0.499219
vn -0.864672 0.055876 -0.499219
v -0.112500 3.080496 0.046875
v 0.025781 4.704000 -0.010922
v -0.065625 3.080496 -0.034315
vt 0.500000 1.850000
vt 0.666667 2.825000
vt 0.666667 1.850000
vn -0.864672 0.055876 -0.499219
vn -0.864672 0.055876 -0.499219
vn -0.864672 0.055876 -0.499219
v -0.065625 3.080496 -0.034315
v 0.025781 4.704000 -0.010922
v 0.049219 4.704000 -0.010922
vt 0.666667 1.850000
vt 0.666667 2.825000
vt 0.833333 2.825000
vn -0.000000 0.014407 -0.999896
vn -0.000000 0.014407 -0.999896
vn -0.000000 0.014407 -0.999896
v -0.065625 3.080496 -0.034315
v 0.049219 4.704000 -0.010922
v 0.028125 3.080496 -0.034315
vt 0.666667 1.850000
vt 0.833333 2.825000
vt 0.833333 1.850000
vn -0.000000 0.014407 -0.999896
vn -0.000000 0.014407 -0.999896
vn -0.000000 0.014407 -0.999896
v 0.028125 3.080496 -0.034315
v 0.049219 4.704000 -0.010922
v 0.060937 4.704000 0.009375
vt 0.833333 1.850000
vt 0.833333 2.825000
vt 1.000000 2.825000
vn 0.866018 -0.004048 -0.499996
vn 0.866018 -0.004048 -0.499996
vn 0.866018 -0.004048 -0.499996
v 0.028125 3.080496 -0.034315
v 0.060937 4.704000 0.009375
v 0.075000 3.080496 0.046875
vt 0.833333 1.850000
vt 1.000000 2.825000
vt 1.000000 1.850000
vn 0.866018 -0.004048 -0.499996
vn 0.866018 -0.004048 -0.499996
vn 0.866018 -0.004048 -0.499996
v 0.000000 0.000000 0.000000
v 0.300000 0.000000 0.000000
v 0.150000 0.000000 0.259808
vt 0.500000 0.500000
vt 0.820000 0.500000
vt 0.660000 0.777128
vn 0.000000 -1.000000 0.000000
vn 0.000000 -1.000000 0.000000
vn 0.000000 -1.000000 0.000000
v 0.000000 0.000000 0.000000
v 0.150000 0.000000 0.259808
v -0.150000 0.000000 0.259808
vt 0.500000 0.500000
vt 0.660000 0.777128
vt 0.340000 0.777128
vn 0.000000 -1.000000 0.000000
vn 0.000000 -1.000000 0.000000
vn 0.000000 -1.000000 0.000000
v 0.000000 0.000000 0.000000
v -0.150000 0.000000 0.259808
v -0.300000 0.000000 0.000000
vt 0.500000 0.500000
vt 0.340000 0.777128
vt 0.180000 0.500000
vn 0.000000 -1.000000 0.000000
vn 0.000000 -1.000000 0.000000
vn 0.000000 -1.000000 0.000000
v 0.000000 0.000000 0.000000
v -0.300000 0.000000 0.000000
v -0.150000 0.000000 -0.259808
vt 0.500000 0.500000
vt 0.180000 0.500000
vt 0.340000 0.222872
vn -0.000000 -1.000000 0.000000
vn -0.000000 -1.000000 0.000000
vn -0.000000 -1.000000 0.000000
v 0.000000 0.000000 0.000000
v -0.150000 0.000000 -0.259808
v 0.150000 0.000000 -0.259808
vt 0.500000 0.500000
vt 0.340000 0.222872
vt 0.660000 0.222872
vn 0.000000 -1.000000 -0.000000
vn 0.000000 -1.000000 -0.000000
vn 0.000000 -1.000000 -0.000000
v 0.000000 0.000000 0.000000
v 0.150000 0.000000 -0.259808
v 0.300000 0.000000 0.000000
vt 0.500000 0.500000
vt 0.660000 0.222872
vt 0.820000 0.500000
vn 0.000000 -1.000000 0.000000
vn 0.000000 -1.000000 0.000000
vn 0.000000 -1.000000 0.000000
v 0.037500 4.704000 0.009375
v 0.049219 4.704000 0.029672
v 0.060937 4.704000 0.009375
vt 0.540000 0.510000
vt 0.552500 0.531651
vt 0.565000 0.510000
vn 0.000000 1.000000 0.000000
vn 0.000000 1.000000 0.000000
vn 0.000000 1.000000 0.000000
v 0.037500 4.704000 0.009375
v 0.025781 4.704000 0.029672
v 0.049219 4.704000 0.029672
vt 0.540000 0.510000
vt 0.527500 0.531651
vt 0.552500 0.531651
vn 0.000000 1.000000 0.000000
vn 0.000000 1.000000 0.000000
vn 0.000000 1.000000 0.000000
v 0.037500 4.704000 0.009375
v 0.014062 4.704000 0.009375
v 0.025781 4.704000 0.029672
vt 0.540000 0.510000
vt 0.515000 0.510000
vt 0.527500 0.531651
vn -0.000000 1.000000 0.000000
vn -0.000000 1.000000 0.000000
vn -0.000000 1.000000 0.000000
v 0.037500 4.704000 0.009375
v 0.025781 4.704000 -0.010922
v 0.014062 4.704000 0.009375
vt 0.540000 0.510000
vt 0.527500 0.488349
vt 0.515000 0.510000
vn -0.000000 1.000000 -0.000000
vn -0.000000 1.000000 -0.000000
vn -0.000000 1.000000 -0.000000
v 0.037500 4.704000 0.009375
v 0.049219 4.704000 -0.010922
v 0.025781 4.704000 -0.010922
vt 0.540000 0.510000
vt 0.552500 0.488349
vt 0.527500 0.488349
vn -0.000000 1.000000 -0.000000
vn -0.000000 1.000000 -0.000000
vn -0.000000 1.000000 -0.000000
v 0.037500 4.704000 0.009375
v 0.060937 4.704000 0.009375
v 0.049219 4.704000 -0.010922
vt 0.540000 0.510000
vt 0.565000 0.510000
vt 0.552500 0.488349
vn 0.000000 1.000000 -0.000000
vn 0.000000 1.000000 -0.000000
vn 0.000000 1.000000 -0.000000
v 1.600000 0.590361 -0.869457
v 1.600000 0.590361 0.869457
v 0.015000 1.702209 0.869457
vt 0.000000 0.000000
vt 1.000000 0.000000
vt 1.000000 1.000000
vn -0.574276 -0.818662 0.000000
vn -0.574276 -0.818662 0.000000
vn -0.574276 -0.818662 0.000000
v 1.600000 0.590361 -0.869457
v 0.015000 1.702209 0.869457
v 0.015000 1.702209 -0.869457
vt 0.000000 0.000000
vt 1.000000 1.000000
vt 0.000000 1.000000
vn -0.574276 -0.818662 0.000000
vn -0.574276 -0.818662 0.000000
vn -0.574276 -0.818662 0.000000
v 1.746170 0.590361 0.516572
v 0.516572 0.590361 1.746170
v -0.604192 1.702209 0.625405
vt 0.000000 0.000000
vt 1.000000 0.000000
vt 1.000000 1.000000
vn -0.406074 -0.818662 -0.406074
vn -0.406074 -0.818662 -0.406074
vn -0.406074 -0.818662 -0.406074
v 1.746170 0.590361 0.516572
v -0.604192 1.702209 0.625405
v 0.625405 1.702209 -0.604192
vt 0.000000 0.000000
vt 1.000000 1.000000
vt 0.000000 1.000000
vn -0.406074 -0.818662 -0.406074
vn -0.406074 -0.818662 -0.406074
vn -0.406074 -0.818662 -0.406074
v 0.869457 0.590361 1.600000
v -0.869457 0.590361 1.600000
v -0.869457 1.702209 0.015000
vt 0.000000 0.000000
vt 1.000000 0.000000
vt 1.000000 1.000000
vn -0.000000 -0.818662 -0.574276
vn -0.000000 -0.818662 -0.574276
vn -0.000000 -0.818662 -0.574276
v 0.869457 0.590361 1.600000
v -0.869457 1.702209 0.015000
v 0.869457 1.702209 0.015000
vt 0.000000 0.000000
vt 1.000000 1.000000
vt 0.000000 1.000000
vn -0.000000 -0.818662 -0.574276
vn -0.000000 -0.818662 -0.574276
vn -0.000000 -0.818662 -0.574276
v -0.516572 0.590361 1.746170
v -1.746170 0.590361 0.516572
v -0.625405 1.702209 -0.604192
vt 0.000000 0.000000
vt 1.000000 0.000000
vt 1.000000 1.000000
vn 0.406074 -0.818662 -0.406074
vn 0.406074 -0.818662 -0.406074
vn 0.406074 -0.818662 -0.406074
v -0.516572 0.590361 1.746170
v -0.625405 1.702209 -0.604192
v 0.604192 1.702209 0.625405
vt 0.000000 0.000000
vt 1.000000 1.000000
vt 0.000000 1.000000
vn 0.406074 -0.818662 -0.406074
vn 0.406074 -0.818662 -0.406074
vn 0.406074 -0.818662 -0.406074
v -1.600000 0.590361 0.869457
v -1.600000 0.590361 -0.869457
v -0.015000 1.702209 -0.869457
vt 0.000000 0.000000
vt 1.000000 0.000000
vt 1.000000 1.000000
vn 0.574276 -0.818662 0.000000
vn 0.574276 -0.818662 0.000000
vn 0.574276 -0.818662 0.000000
v -1.600000 0.590361 0.869457
v -0.015000 1.702209 -0.869457
v -0.015000 1.702209 0.869457
vt 0.000000 0.000000
vt 1.000000 1.000000
vt 0.000000 1.000000
vn 0.574276 -0.818662 -0.000000
vn 0.574276 -0.818662 -0.000000
vn 0.574276 -0.818662 -0.000000
v -1.746170 0.590361 -0.516572
v -0.516572 0.590361 -1.746170
v 0.604192 1.702209 -0.625405
vt 0.000000 0.000000
vt 1.000000 0.000000
vt 1.000000 1.000000
vn 0.406074 -0.818662 0.406074
vn 0.406074 -0.818662 0.406074
vn 0.406074 -0.818662 0.406074
v -1.746170 0.590361 -0.516572
v 0.604192 1.702209 -0.625405
v -0.625405 1.702209 0.604192
vt 0.000000 0.000000
vt 1.000000 1.000000
vt 0.000000 1.000000
vn 0.406074 -0.818662 0.406074
vn 0.406074 -0.818662 0.406074
vn 0.406074 -0.818662 0.406074
v -0.869457 0.590361 -1.600000
v 0.869457 0.590361 -1.600000
v 0.869457 1.702209 -0.015000
vt 0.000000 0.000000
vt 1.000000 0.000000
vt 1.000000 1.000000
vn 0.000000 -0.818662 0.574276
vn 0.000000 -0.818662 0.574276
vn 0.000000 -0.818662 0.574276
v -0.869457 0.590361 -1.600000
v 0.869457 1.702209 -0.015000
v -0.869457 1.702209 -0.015000
vt 0.000000 0.000000
vt 1.000000 1.000000
vt 0.000000 1.000000
vn 0.000000 -0.818662 0.574276
vn 0.000000 -0.818662 0.574276
vn 0.000000 -0.818662 0.574276
v 0.516572 0.590361 -1.746170
v 1.746170 0.590361 -0.516572
v 0.625405 1.702209 0.604192
vt 0.000000 0.000000
vt 1.000000 0.000000
vt 1.000000 1.000000
vn -0.406074 -0.818662 0.406074
vn -0.406074 -0.818662 0.406074
vn -0.406074 -0.818662 0.406074
v 0.516572 0.590361 -1.746170
v 0.625405 1.702209 0.604192
v -0.604192 1.702209 -0.625405
vt 0.000000 0.000000
vt 1.000000 1.000000
vt 0.000000 1.000000
vn -0.406074 -0.818662 0.406074
vn -0.406074 -0.818662 0.406074
vn -0.406074 -0.818662 0.406074
v 2.210772 1.229920 -0.194539
v 1.365999 1.229920 1.749116
v -0.408630 2.341767 0.977807
vt 0.000000 0.000000
vt 1.000000 0.000000
vt 1.000000 1.000000
vn -0.456918 -0.867057 -0.198591
vn -0.456918 -0.867057 -0.198591
vn -0.456918 -0.867057 -0.198591
v 2.210772 1.229920 -0.194539
v -0.408630 2.341767 0.977807
v 0.436143 2.341767 -0.965848
vt 0.000000 0.000000
vt 1.000000 1.000000
vt 0.000000 1.000000
vn -0.456918 -0.867057 -0.198591
vn -0.456918 -0.867057 -0.198591
vn -0.456918 -0.867057 -0.198591
v 1.700812 1.229920 1.425692
v -0.270904 1.229920 2.202719
v -0.980359 2.341767 0.402469
vt 0.000000 0.000000
vt 1.000000 0.000000
vt 1.000000 1.000000
vn -0.182665 -0.867057 -0.463515
vn -0.182665 -0.867057 -0.463515
vn -0.182665 -0.867057 -0.463515
v 1.700812 1.229920 1.425692
v -0.980359 2.341767 0.402469
v 0.991358 2.341767 -0.374558
vt 0.000000 0.000000
vt 1.000000 1.000000
vt 0.000000 1.000000
vn -0.182665 -0.867057 -0.463515
vn -0.182665 -0.867057 -0.463515
vn -0.182665 -0.867057 -0.463515
v 0.194539 1.229920 2.210772
v -1.749116 1.229920 1.365999
v -0.977807 2.341767 -0.408630
vt 0.000000 0.000000
vt 1.000000 0.000000
vt 1.000000 1.000000
vn 0.198591 -0.867057 -0.456918
vn 0.198591 -0.867057 -0.456918
vn 0.198591 -0.867057 -0.456918
v 0.194539 1.229920 2.210772
v -0.977807 2.341767 -0.408630
v 0.965848 2.341767 0.436143
vt 0.000000 0.000000
vt 1.000000 1.000000
vt 0.000000 1.000000
vn 0.198591 -0.867057 -0.456918
vn 0.198591 -0.867057 -0.456918
vn 0.198591 -0.867057 -0.456918
v -1.425692 1.229920 1.700812
v -2.202719 1.229920 -0.270904
v -0.402469 2.341767 -0.980359
vt 0.000000 0.000000
vt 1.000000 0.000000
vt 1.000000 1.000000
vn 0.463515 -0.867057 -0.182665
vn 0.463515 -0.867057 -0.182665
vn 0.463515 -0.867057 -0.182665
v -1.425692 1.229920 1.700812
v -0.402469 2.341767 -0.980359
v 0.374558 2.341767 0.991358
vt 0.000000 0.000000
vt 1.000000 1.000000
vt 0.000000 1.000000
vn 0.463515 -0.867057 -0.182665
vn 0.463515 -0.867057 -0.182665
vn 0.463515 -0.867057 -0.182665
v -2.210772 1.229920 0.194539
v -1.365999 1.229920 -1.749116
v 0.408630 2.341767 -0.977807
vt 0.000000 0.000000
vt 1.000000 0.000000
vt 1.000000 1.000000
vn 0.456918 -0.867057 0.198591
vn 0.456918 -0.867057 0.198591
vn 0.456918 -0.867057 0.198591
v -2.210772 1.229920 0.194539
v 0.408630 2.341767 -0.977807
v -0.436143 2.341767 0.965848
vt 0.000000 0.000000
vt 1.000000 1.000000
vt 0.000000 1.000000
vn 0.456918 -0.867057 0.198591
vn 0.456918 -0.867057 0.198591
vn 0.456918 -0.867057 0.198591
v -1.700812 1.229920 -1.425692
v 0.270904 1.229920 -2.202719
v 0.980359 2.341767 -0.402469
vt 0.000000 0.000000
vt 1.000000 0.000000
vt 1.000000 1.000000
vn 0.182665 -0.867057 0.463515
vn 0.182665 -0.867057 0.463515
vn 0.182665 -0.867057 0.463515
v -1.700812 1.229920 -1.425692
v 0.980359 2.341767 -0.402469
v -0.991358 2.341767 0.374558
vt 0.000000 0.000000
vt 1.000000 1.000000
vt 0.000000 1.000000
vn 0.182665 -0.867057 0.463515
vn 0.182665 -0.867057 0.463515
vn 0.182665 -0.867057 0.463515
v -0.194539 1.229920 -2.210772
v 1.749116 1.229920 -1.365999
v 0.977807 2.341767 0.408630
vt 0.000000 0.000000
vt 1.000000 0.000000
vt 1.000000 1.000000
vn -0.198591 -0.867057 0.456918
vn -0.198591 -0.867057 0.456918
vn -0.198591 -0.867057 0.456918
v -0.194539 1.229920 -2.210772
v 0.977807 2.341767 0.408630
v -0.965848 2.341767 -0.436143
vt 0.000000 0.000000
vt 1.000000 1.000000
vt 0.000000 1.000000
vn -0.198591 -0.867057 0.456918
vn -0.198591 -0.867057 0.456918
vn -0.198591 -0.867057 0.456918
v 1.425692 1.229920 -1.700812
v 2.202719 1.229920 0.270904
v 0.402469 2.341767 0.980359
vt 0.000000 0.000000
vt 1.000000 0.000000
vt 1.000000 1.000000
vn -0.463515 -0.867057 0.182665
vn -0.463515 -0.867057 0.182665
vn -0.463515 -0.867057 0.182665
v 1.425692 1.229920 -1.700812
v 0.402469 2.341767 0.980359
v -0.374558 2.341767 -0.991358
vt 0.000000 0.000000
vt 1.000000 1.000000
vt 0.000000 1.000000
vn -0.463515 -0.867057 0.182665
vn -0.463515 -0.867057 0.182665
vn -0.463515 -0.867057 0.182665
v 1.662482 1.869478 0.555046
v 0.438760 1.869478 1.696883
v -0.601628 2.981325 0.581885
vt 0.000000 0.000000
vt 1.000000 0.000000
vt 1.000000 1.000000
vn -0.401915 -0.808041 -0.430737
vn -0.401915 -0.808041 -0.430737
vn -0.401915 -0.808041 -0.430737
v 1.662482 1.869478 0.555046
v -0.601628 2.981325 0.581885
v 0.622094 2.981325 -0.559951
vt 0.000000 0.000000
vt 1.000000 1.000000
vt 0.000000 1.000000
vn -0.401915 -0.808041 -0.430737
vn -0.401915 -0.808041 -0.430737
vn -0.401915 -0.808041 -0.430737
v 0.783075 1.869478 1.568029
v -0.889627 1.869478 1.510127
v -0.836870 2.981325 -0.013960
vt 0.000000 0.000000
vt 1.000000 0.000000
vt 1.000000 1.000000
vn 0.020381 -0.808041 -0.588774
vn 0.020381 -0.808041 -0.588774
vn 0.020381 -0.808041 -0.588774
v 0.783075 1.869478 1.568029
v -0.836870 2.981325 -0.013960
v 0.835832 2.981325 0.043942
vt 0.000000 0.000000
vt 1.000000 1.000000
vt 0.000000 1.000000
vn 0.020381 -0.808041 -0.588774
vn 0.020381 -0.808041 -0.588774
vn 0.020381 -0.808041 -0.588774
v -0.555046 1.869478 1.662482
v -1.696883 1.869478 0.438760
v -0.581885 2.981325 -0.601628
vt 0.000000 0.000000
vt 1.000000 0.000000
vt 1.000000 1.000000
vn 0.430737 -0.808041 -0.401915
vn 0.430737 -0.808041 -0.401915
vn 0.430737 -0.808041 -0.401915
v -0.555046 1.869478 1.662482
v -0.581885 2.981325 -0.601628
v 0.559951 2.981325 0.622094
vt 0.000000 0.000000
vt 1.000000 1.000000
vt 0.000000 1.000000
vn 0.430737 -0.808041 -0.401915
vn 0.430737 -0.808041 -0.401915
vn 0.430737 -0.808041 -0.401915
v -1.568029 1.869478 0.783075
v -1.510127 1.869478 -0.889627
v 0.013960 2.981325 -0.836870
vt 0.000000 0.000000
vt 1.000000 0.000000
vt 1.000000 1.000000
vn 0.588774 -0.808041 0.020381
vn 0.588774 -0.808041 0.020381
vn 0.588774 -0.808041 0.020381
v -1.568029 1.869478 0.783075
v 0.013960 2.981325 -0.836870
v -0.043942 2.981325 0.835832
vt 0.000000 0.000000
vt 1.000000 1.000000
vt 0.000000 1.000000
vn 0.588774 -0.808041 0.020381
vn 0.588774 -0.808041 0.020381
vn 0.588774 -0.808041 0.020381
v -1.662482 1.869478 -0.555046
v -0.438760 1.869478 -1.696883
v 0.601628 2.981325 -0.581885
vt 0.000000 0.000000
vt 1.000000 0.000000
vt 1.000000 1.000000
vn 0.401915 -0.808041 0.430737
vn 0.401915 -0.808041 0.430737
vn 0.401915 -0.808041 0.430737
v -1.662482 1.869478 -0.555046
v 0.601628 2.981325 -0.581885
v -0.622094 2.981325 0.559951
vt 0.000000 0.000000
vt 1.000000 1.000000
vt 0.000000 1.000000
vn 0.401915 -0.808041 0.430737
vn 0.401915 -0.808041 0.430737
vn 0.401915 -0.808041 0.430737
v -0.783075 1.869478 -1.568029
v 0.889627 1.869478 -1.510127
v 0.836870 2.981325 0.013960
vt 0.000000 0.000000
vt 1.000000 0.000000
vt 1.000000 1.000000
vn -0.020381 -0.808041 0.588774
vn -0.020381 -0.808041 0.588774
vn -0.020381 -0.808041 0.588774
v -0.783075 1.869478 -1.568029
v 0.836870 2.981325 0.013960
v -0.835832 2.981325 -0.043942
vt 0.000000 0.000000
vt 1.000000 1.000000
vt 0.000000 1.000000
vn -0.020381 -0.808041 0.588774
vn -0.020381 -0.808041 0.588774
vn -0.020381 -0.808041 0.588774
v 0.555046 1.869478 -1.662482
v 1.696883 1.869478 -0.438760
v 0.581885 2.981325 0.601628
vt 0.000000 0.000000
vt 1.000000 0.000000
vt 1.000000 1.000000
vn -0.430737 -0.808041 0.401915
vn -0.430737 -0.808041 0.401915
vn -0.430737 -0.808041 0.401915
v 0.555046 1.869478 -1.662482
v 0.581885 2.981325 0.601628
v -0.559951 2.981325 -0.622094
vt 0.000000 0.000000
vt 1.000000 1.000000
vt 0.000000 1.000000
vn -0.430737 -0.808041 0.401915
vn -0.430737 -0.808041 0.401915
vn -0.430737 -0.808041 0.401915
v 1.568029 1.869478 -0.783075
v 1.510127 1.869478 0.889627
v -0.013960 2.981325 0.836870
vt 0.000000 0.000000
vt 1.000000 0.000000
vt 1.000000 1.000000
vn -0.588774 -0.808041 -0.020381
vn -0.588774 -0.808041 -0.020381
vn -0.588774 -0.808041 -0.020381
v 1.568029 1.869478 -0.783075
v -0.013960 2.981325 0.836870
v 0.043942 2.981325 -0.835832
vt 0.000000 0.000000
vt 1.000000 1.000000
vt 0.000000 1.000000
vn -0.588774 -0.808041 -0.020381
vn -0.588774 -0.808041 -0.020381
vn -0.588774 -0.808041 -0.020381
v 1.083387 2.509036 0.973901
v -0.227738 2.509036 1.438870
v -0.650549 3.620884 0.246622
vt 0.000000 0.000000
vt 1.000000 0.000000
vt 1.000000 1.000000
vn -0.220655 -0.751112 -0.622208
vn -0.220655 -0.751112 -0.622208
vn -0.220655 -0.751112 -0.622208
v 1.083387 2.509036 0.973901
v -0.650549 3.620884 0.246622
v 0.660576 3.620884 -0.218347
vt 0.000000 0.000000
vt 1.000000 1.000000
vt 0.000000 1.000000
vn -0.220655 -0.751112 -0.622208
vn -0.220655 -0.751112 -0.622208
vn -0.220655 -0.751112 -0.622208
v 0.077418 2.509036 1.454723
v -1.178470 2.509036 0.856399
v -0.634395 3.620884 -0.285620
vt 0.000000 0.000000
vt 1.000000 0.000000
vt 1.000000 1.000000
vn 0.283940 -0.751112 -0.595994
vn 0.283940 -0.751112 -0.595994
vn 0.283940 -0.751112 -0.595994
v 0.077418 2.509036 1.454723
v -0.634395 3.620884 -0.285620
v 0.621492 3.620884 0.312703
vt 0.000000 0.000000
vt 1.000000 1.000000
vt 0.000000 1.000000
vn 0.283940 -0.751112 -0.595994
vn 0.283940 -0.751112 -0.595994
vn 0.283940 -0.751112 -0.595994
v -0.973901 2.509036 1.083387
v -1.438870 2.509036 -0.227738
v -0.246622 3.620884 -0.650549
vt 0.000000 0.000000
vt 1.000000 0.000000
vt 1.000000 1.000000
vn 0.622208 -0.751112 -0.220655
vn 0.622208 -0.751112 -0.220655
vn 0.622208 -0.751112 -0.220655
v -0.973901 2.509036 1.083387
v -0.246622 3.620884 -0.650549
v 0.218347 3.620884 0.660576
vt 0.000000 0.000000
vt 1.000000 1.000000
vt 0.000000 1.000000
vn 0.622208 -0.751112 -0.220655
vn 0.622208 -0.751112 -0.220655
vn 0.622208 -0.751112 -0.220655
v -1.454723 2.509036 0.077418
v -0.856399 2.509036 -1.178470
v 0.285620 3.620884 -0.634395
vt 0.000000 0.000000
vt 1.000000 0.000000
vt 1.000000 1.000000
vn 0.595994 -0.751112 0.283940
vn 0.595994 -0.751112 0.283940
vn 0.595994 -0.751112 0.283940
v -1.454723 2.509036 0.077418
v 0.285620 3.620884 -0.634395
v -0.312703 3.620884 0.621492
vt 0.000000 0.000000
vt 1.000000 1.000000
vt 0.000000 1.000000
vn 0.595994 -0.751112 0.283940
vn 0.595994 -0.751112 0.283940
vn 0.595994 -0.751112 0.283940
v -1.083387 2.509036 -0.973901
v 0.227738 2.509036 -1.438870
v 0.650549 3.620884 -0.246622
vt 0.000000 0.000000
vt 1.000000 0.000000
vt 1.000000 1.000000
vn 0.220655 -0.751112 0.622208
vn 0.220655 -0.751112 0.622208
vn 0.220655 -0.751112 0.622208
v -1.083387 2.509036 -0.973901
v 0.650549 3.620884 -0.246622
v -0.660576 3.620884 0.218347
vt 0.000000 0.000000
vt 1.000000 1.000000
vt 0.000000 1.000000
vn 0.220655 -0.751112 0.622208
vn 0.220655 -0.751112 0.622208
vn 0.220655 -0.751112 0.622208
v -0.077418 2.509036 -1.454723
v 1.178470 2.509036 -0.856399
v 0.634395 3.620884 0.285620
vt 0.000000 0.000000
vt 1.000000 0.000000
vt 1.000000 1.000000
vn -0.283940 -0.751112 0.595994
vn -0.283940 -0.751112 0.595994
vn -0.283940 -0.751112 0.595994
v -0.077418 2.509036 -1.454723
v 0.634395 3.620884 0.285620
v -0.621492 3.620884 -0.312703
vt 0.000000 0.000000
vt 1.000000 1.000000
vt 0.000000 1.000000
vn -0.283940 -0.751112 0.595994
vn -0.283940 -0.751112 0.595994
vn -0.283940 -0.751112 0.595994
v 0.973901 2.509036 -1.083387
v 1.438870 2.509036 0.227738
v 0.246622 3.620884 0.650549
vt 0.000000 0.000000
vt 1.000000 0.000000
vt 1.000000 1.000000
vn -0.622208 -0.751112 0.220655
vn -0.622208 -0.751112 0.220655
vn -0.622208 -0.751112 0.220655
v 0.973901 2.509036 -1.083387
v 0.246622 3.620884 0.650549
v -0.218347 3.620884 -0.660576
vt 0.000000 0.000000
vt 1.000000 1.000000
vt 0.000000 1.000000
vn -0.622208 -0.751112 0.220655
vn -0.622208 -0.751112 0.220655
vn -0.622208 -0.751112 0.220655
v 1.454723 2.509036 -0.077418
v 0.856399 2.509036 1.178470
v -0.285620 3.620884 0.634395
vt 0.000000 0.000000
vt 1.000000 0.000000
vt 1.000000 1.000000
vn -0.595994 -0.751112 -0.283940
vn -0.595994 -0.751112 -0.283940
vn -0.595994 -0.751112 -0.283940
v 1.454723 2.509036 -0.077418
v -0.285620 3.620884 0.634395
v 0.312703 3.620884 -0.621492
vt 0.000000 0.000000
vt 1.000000 1.000000
vt 0.000000 1.000000
vn -0.595994 -0.751112 -0.283940
vn -0.595994 -0.751112 -0.283940
vn -0.595994 -0.751112 -0.283940
v 0.387828 3.148594 0.848850
v -0.501232 3.148594 0.787225
v -0.445567 4.260442 -0.015848
vt 0.000000 0.000000
vt 1.000000 0.000000
vt 1.000000 1.000000
vn 0.056009 -0.586447 -0.808049
vn 0.056009 -0.586447 -0.808049
vn 0.056009 -0.586447 -0.808049
v 0.387828 3.148594 0.848850
v -0.445567 4.260442 -0.015848
v 0.443493 4.260442 0.045776
vt 0.000000 0.000000
vt 1.000000 1.000000
vt 0.000000 1.000000
vn 0.056009 -0.586447 -0.808049
vn 0.056009 -0.586447 -0.808049
vn 0.056009 -0.586447 -0.808049
v -0.325991 3.148594 0.874463
v -0.911076 3.148594 0.202228
v -0.303857 4.260442 -0.326270
vt 0.000000 0.000000
vt 1.000000 0.000000
vt 1.000000 1.000000
vn 0.610981 -0.586447 -0.531772
vn 0.610981 -0.586447 -0.531772
vn 0.610981 -0.586447 -0.531772
v -0.325991 3.148594 0.874463
v -0.303857 4.260442 -0.326270
v 0.281228 4.260442 0.345966
vt 0.000000 0.000000
vt 1.000000 1.000000
vt 0.000000 1.000000
vn 0.610981 -0.586447 -0.531772
vn 0.610981 -0.586447 -0.531772
vn 0.610981 -0.586447 -0.531772
v -0.848850 3.148594 0.387828
v -0.787225 3.148594 -0.501232
v 0.015848 4.260442 -0.445567
vt 0.000000 0.000000
vt 1.000000 0.000000
vt 1.000000 1.000000
vn 0.808049 -0.586447 0.056009
vn 0.808049 -0.586447 0.056009
vn 0.808049 -0.586447 0.056009
v -0.848850 3.148594 0.387828
v 0.015848 4.260442 -0.445567
v -0.045776 4.260442 0.443493
vt 0.000000 0.000000
vt 1.000000 1.000000
vt 0.000000 1.000000
vn 0.808049 -0.586447 0.056009
vn 0.808049 -0.586447 0.056009
vn 0.808049 -0.586447 0.056009
v -0.874463 3.148594 -0.325991
v -0.202228 3.148594 -0.911076
v 0.326270 4.260442 -0.303857
vt 0.000000 0.000000
vt 1.000000 0.000000
vt 1.000000 1.000000
vn 0.531772 -0.586447 0.610981
vn 0.531772 -0.586447 0.610981
vn 0.531772 -0.586447 0.610981
v -0.874463 3.148594 -0.325991
v 0.326270 4.260442 -0.303857
v -0.345966 4.260442 0.281228
vt 0.000000 0.000000
vt 1.000000 1.000000
vt 0.000000 1.000000
vn 0.531772 -0.586447 0.610981
vn 0.531772 -0.586447 0.610981
vn 0.531772 -0.586447 0.610981
v -0.387828 3.148594 -0.848850
v 0.501232 3.148594 -0.787225
v 0.445567 4.260442 0.015848
vt 0.000000 0.000000
vt 1.000000 0.000000
vt 1.000000 1.000000
vn -0.056009 -0.586447 0.808049
vn -0.056009 -0.586447 0.808049
vn -0.056009 -0.586447 0.808049
v -0.387828 3.148594 -0.848850
v 0.445567 4.260442 0.015848
v -0.443493 4.260442 -0.045776
vt 0.000000 0.000000
vt 1.000000 1.000000
vt 0.000000 1.000000
vn -0.056009 -0.586447 0.808049
vn -0.056009 -0.586447 0.808049
vn -0.056009 -0.586447 0.808049
v 0.325991 3.148594 -0.874463
v 0.911076 3.148594 -0.202228
v 0.303857 4.260442 0.326270
vt 0.000000 0.000000
vt 1.000000 0.000000
vt 1.000000 1.000000
vn -0.610981 -0.586447 0.531772
vn -0.610981 -0.586447 0.531772
vn -0.610981 -0.586447 0.531772
v 0.325991 3.148594 -0.874463
v 0.303857 4.260442 0.326270
v -0.281228 4.260442 -0.345966
vt 0.000000 0.000000
vt 1.000000 1.000000
vt 0.000000 1.000000
vn -0.610981 -0.586447 0.531772
vn -0.610981 -0.586447 0.531772
vn -0.610981 -0.586447 0.531772
v 0.848850 3.148594 -0.387828
v 0.787225 3.148594 0.501232
v -0.015848 4.260442 0.445567
vt 0.000000 0.000000
vt 1.000000 0.000000
vt 1.000000 1.000000
vn -0.808049 -0.586447 -0.056009
vn -0.808049 -0.586447 -0.056009
vn -0.808049 -0.586447 -0.056009
v 0.848850 3.148594 -0.387828
v -0.015848 4.260442 0.445567
v 0.045776 4.260442 -0.443493
vt 0.000000 0.000000
vt 1.000000 1.000000
vt 0.000000 1.000000
vn -0.808049 -0.586447 -0.056009
vn -0.808049 -0.586447 -0.056009
vn -0.808049 -0.586447 -0.056009
v 0.874463 3.148594 0.325991
v 0.202228 3.148594 0.911076
v -0.326270 4.260442 0.303857
vt 0.000000 0.000000
vt 1.000000 0.000000
vt 1.000000 1.000000
vn -0.531772 -0.586447 -0.610981
vn -0.531772 -0.586447 -0.610981
vn -0.531772 -0.586447 -0.610981
v 0.874463 3.148594 0.325991
v -0.326270 4.260442 0.303857
v 0.345966 4.260442 -0.281228
vt 0.000000 0.000000
vt 1.000000 1.000000
vt 0.000000 1.000000
vn -0.531772 -0.586447 -0.610981
vn -0.531772 -0.586447 -0.610981
vn -0.531772 -0.586447 -0.610981
v 0.008240 3.788153 0.443786
v -0.367877 3.788153 0.248356
v -0.194975 4.900000 -0.084405
vt 0.000000 0.000000
vt 1.000000 0.000000
vt 1.000000 1.000000
vn 0.436892 -0.319589 -0.840826
vn 0.436892 -0.319589 -0.840826
vn 0.436892 -0.319589 -0.840826
v 0.008240 3.788153 0.443786
v -0.194975 4.900000 -0.084405
v 0.181143 4.900000 0.111026
vt 0.000000 0.000000
vt 1.000000 1.000000
vt 0.000000 1.000000
vn 0.436892 -0.319589 -0.840826
vn 0.436892 -0.319589 -0.840826
vn 0.436892 -0.319589 -0.840826
v -0.307978 3.788153 0.319631
v -0.435743 3.788153 -0.084514
v -0.078185 4.900000 -0.197551
vt 0.000000 0.000000
vt 1.000000 0.000000
vt 1.000000 1.000000
vn 0.903483 -0.319589 -0.285624
vn 0.903483 -0.319589 -0.285624
vn 0.903483 -0.319589 -0.285624
v -0.307978 3.788153 0.319631
v -0.078185 4.900000 -0.197551
v 0.049580 4.900000 0.206594
vt 0.000000 0.000000
vt 1.000000 1.000000
vt 0.000000 1.000000
vn 0.903483 -0.319589 -0.285624
vn 0.903483 -0.319589 -0.285624
vn 0.903483 -0.319589 -0.285624
v -0.443786 3.788153 0.008240
v -0.248356 3.788153 -0.367877
v 0.084405 4.900000 -0.194975
vt 0.000000 0.000000
vt 1.000000 0.000000
vt 1.000000 1.000000
vn 0.840826 -0.319589 0.436892
vn 0.840826 -0.319589 0.436892
vn 0.840826 -0.319589 0.436892
v -0.443786 3.788153 0.008240
v 0.084405 4.900000 -0.194975
v -0.111026 4.900000 0.181143
vt 0.000000 0.000000
vt 1.000000 1.000000
vt 0.000000 1.000000
vn 0.840826 -0.319589 0.436892
vn 0.840826 -0.319589 0.436892
vn 0.840826 -0.319589 0.436892
v -0.319631 3.788153 -0.307978
v 0.084514 3.788153 -0.435743
v 0.197551 4.900000 -0.078185
vt 0.000000 0.000000
vt 1.000000 0.000000
vt 1.000000 1.000000
vn 0.285624 -0.319589 0.903483
vn 0.285624 -0.319589 0.903483
vn 0.285624 -0.319589 0.903483
v -0.319631 3.788153 -0.307978
v 0.197551 4.900000 -0.078185
v -0.206594 4.900000 0.049580
vt 0.000000 0.000000
vt 1.000000 1.000000
vt 0.000000 1.000000
vn 0.285624 -0.319589 0.903483
vn 0.285624 -0.319589 0.903483
vn 0.285624 -0.319589 0.903483
v -0.008240 3.788153 -0.443786
v 0.367877 3.788153 -0.248356
v 0.194975 4.900000 0.084405
vt 0.000000 0.000000
vt 1.000000 0.000000
vt 1.000000 1.000000
vn -0.436892 -0.319589 0.840826
vn -0.436892 -0.319589 0.840826
vn -0.436892 -0.319589 0.840826
v -0.008240 3.788153 -0.443786
v 0.194975 4.900000 0.084405
v -0.181143 4.900000 -0.111026
vt 0.000000 0.000000
vt 1.000000 1.000000
vt 0.000000 1.000000
vn -0.436892 -0.319589 0.840826
vn -0.436892 -0.319589 0.840826
vn -0.436892 -0.319589 0.840826
v 0.307978 3.788153 -0.319631
v 0.435743 3.788153 0.084514
v 0.078185 4.900000 0.197551
vt 0.000000 0.000000
vt 1.000000 0.000000
vt 1.000000 1.000000
vn -0.903483 -0.319589 0.285624
vn -0.903483 -0.319589 0.285624
vn -0.903483 -0.319589 0.285624
v 0.307978 3.788153 -0.319631
v 0.078185 4.900000 0.197551
v -0.049580 4.900000 -0.206594
vt 0.000000 0.000000
vt 1.000000 1.000000
vt 0.000000 1.000000
vn -0.903483 -0.319589 0.285624
vn -0.903483 -0.319589 0.285624
vn -0.903483 -0.319589 0.285624
v 0.443786 3.788153 -0.008240
v 0.248356 3.788153 0.367877
v -0.084405 4.900000 0.194975
vt 0.000000 0.000000
vt 1.000000 0.000000
vt 1.000000 1.000000
vn -0.840826 -0.319589 -0.436892
vn -0.840826 -0.319589 -0.436892
vn -0.840826 -0.319589 -0.436892
v 0.443786 3.788153 -0.008240
v -0.084405 4.900000 0.194975
v 0.111026 4.900000 -0.181143
vt 0.000000 0.000000
vt 1.000000 1.000000
vt 0.000000 1.000000
vn -0.840826 -0.319589 -0.436892
vn -0.840826 -0.319589 -0.436892
vn -0.840826 -0.319589 -0.436892
v 0.319631 3.788153 0.307978
v -0.084514 3.788153 0.435743
v -0.197551 4.900000 0.078185
vt 0.000000 0.000000
vt 1.000000 0.000000
vt 1.000000 1.000000
vn -0.285624 -0.319589 -0.903483
vn -0.285624 -0.319589 -0.903483
vn -0.285624 -0.319589 -0.903483
v 0.319631 3.788153 0.307978
v -0.197551 4.900000 0.078185
v 0.206594 4.900000 -0.049580
vt 0.000000 0.000000
vt 1.000000 1.000000
vt 0.000000 1.000000
vn -0.285624 -0.319589 -0.903483
vn -0.285624 -0.319589 -0.903483
vn -0.285624 -0.319589 -0.903483
usemtl Bark
f 1/1/1 2/2/2 3/3/3
f 4/4/4 5/5/5 6/6/6
f 7/7/7 8/8/8 9/9/9
f 10/10/10 11/11/11 12/12/12
f 13/13/13 14/14/14 15/15/15
f 16/16/16 17/17/17 18/18/18
f 19/19/19 20/20/20 21/21/21
f 22/22/22 23/23/23 24/24/24
f 25/25/25 26/26/26 27/27/27
f 28/28/28 29/29/29 30/30/30
f 31/31/31 32/32/32 33/33/33
f 34/34/34 35/35/35 36/36/36
f 37/37/37 38/38/38 39/39/39
f 40/40/40 41/41/41 42/42/42
f 43/43/43 44/44/44 45/45/45
f 46/46/46 47/47/47 48/48/48
f 49/49/49 50/50/50 51/51/51
f 52/52/52 53/53/53 54/54/54
f 55/55/55 56/56/56 57/57/57
f 58/58/58 59/59/59 60/60/60
f 61/61/61 62/62/62 63/63/63
f 64/64/64 65/65/65 66/66/66
f 67/67/67 68/68/68 69/69/69
f 70/70/70 71/71/71 72/72/72
f 73/73/73 74/74/74 75/75/75
f 76/76/76 77/77/77 78/78/78
f 79/79/79 80/80/80 81/81/81
f 82/82/82 83/83/83 84/84/84
f 85/85/85 86/86/86 87/87/87
f 88/88/88 89/89/89 90/90/90
f 91/91/91 92/92/92 93/93/93
f 94/94/94 95/95/95 96/96/96
f 97/97/97 98/98/98 99/99/99
f 100/100/100 101/101/101 102/102/102
f 103/103/103 104/104/104 105/105/105
f 106/106/106 107/107/107 108/108/108
f 109/109/109 110/110/110 111/111/111
f 112/112/112 113/113/113 114/114/114
f 115/115/115 116/116/116 117/117/117
f 118/118/118 119/119/119 120/120/120
f 121/121/121 122/122/122 123/123/123
f 124/124/124 125/125/125 126/126/126
f 127/127/127 128/128/128 129/129/129
f 130/130/130 131/131/131 132/132/132
f 133/133/133 134/134/134 135/135/135
f 136/136/136 137/137/137 138/138/138
f 139/139/139 140/140/140 141/141/141
f 142/142/142 143/143/143 144/144/144
f 145/145/145 146/146/146 147/147/147
f 148/148/148 149/149/149 150/150/150
f 151/151/151 152/152/152 153/153/153
f 154/154/154 155/155/155 156/156/156
f 157/157/157 158/158/158 159/159/159
f 160/160/160 161/161/161 162/162/162
f 163/163/163 164/164/164 165/165/165
f 166/166/166 167/167/167 168/168/168
f 169/169/169 170/170/170 171/171/171
f 172/172/172 173/173/173 174/174/174
f 175/175/175 176/176/176 177/177/177
f 178/178/178 179/179/179 180/180/180
usemtl FoliageOliva
f 181/181/181 182/182/182 183/183/183
f 184/184/184 185/185/185 186/186/186
f 187/187/187 188/188/188 189/189/189
f 190/190/190 191/191/191 192/192/192
f 193/193/193 194/194/194 195/195/195
f 196/196/196 197/197/197 198/198/198
f 199/199/199 200/200/200 201/201/201
f 202/202/202 203/203/203 204/204/204
f 205/205/205 206/206/206 207/207/207
f 208/208/208 209/209/209 210/210/210
f 211/211/211 212/212/212 213/213/213
f 214/214/214 215/215/215 216/216/216
f 217/217/217 218/218/218 219/219/219
f 220/220/220 221/221/221 222/222/222
f 223/223/223 224/224/224 225/225/225
f 226/226/226 227/227/227 228/228/228
f 229/229/229 230/230/230 231/231/231
f 232/232/232 233/233/233 234/234/234
f 235/235/235 236/236/236 237/237/237
f 238/238/238 239/239/239 240/240/240
f 241/241/241 242/242/242 243/243/243
f 244/244/244 245/245/245 246/246/246
f 247/247/247 248/248/248 249/249/249
f 250/250/250 251/251/251 252/252/252
f 253/253/253 254/254/254 255/255/255
f 256/256/256 257/257/257 258/258/258
f 259/259/259 260/260/260 261/261/261
f 262/262/262 263/263/263 264/264/264
f 265/265/265 266/266/266 267/267/267
f 268/268/268 269/269/269 270/270/270
f 271/271/271 272/272/272 273/273/273
f 274/274/274 275/275/275 276/276/276
f 277/277/277 278/278/278 279/279/279
f 280/280/280 281/281/281 282/282/282
f 283/283/283 284/284/284 285/285/285
f 286/286/286 287/287/287 288/288/288
f 289/289/289 290/290/290 291/291/291
f 292/292/292 293/293/293 294/294/294
f 295/295/295 296/296/296 297/297/297
f 298/298/298 299/299/299 300/300/300
f 301/301/301 302/302/302 303/303/303
f 304/304/304 305/305/305 306/306/306
f 307/307/307 308/308/308 309/309/309
f 310/310/310 311/311/311 312/312/312
f 313/313/313 314/314/314 315/315/315
f 316/316/316 317/317/317 318/318/318
f 319/319/319 320/320/320 321/321/321
f 322/322/322 323/323/323 324/324/324
f 325/325/325 326/326/326 327/327/327
f 328/328/328 329/329/329 330/330/330
f 331/331/331 332/332/332 333/333/333
f 334/334/334 335/335/335 336/336/336
f 337/337/337 338/338/338 339/339/339
f 340/340/340 341/341/341 342/342/342
f 343/343/343 344/344/344 345/345/345
f 346/346/346 347/347/347 348/348/348
f 349/349/349 350/350/350 351/351/351
f 352/352/352 353/353/353 354/354/354
f 355/355/355 356/356/356 357/357/357
f 358/358/358 359/359/359 360/360/360
f 361/361/361 362/362/362 363/363/363
f 364/364/364 365/365/365 366/366/366
f 367/367/367 368/368/368 369/369/369
f 370/370/370 371/371/371 372/372/372
f 373/373/373 374/374/374 375/375/375
f 376/376/376 377/377/377 378/378/378
f 379/379/379 380/380/380 381/381/381
f 382/382/382 383/383/383 384/384/384
f 385/385/385 386/386/386 387/387/387
f 388/388/388 389/389/389 390/390/390
f 391/391/391 392/392/392 393/393/393
f 394/394/394 395/395/395 396/396/396
f 397/397/397 398/398/398 399/399/399
f 400/400/400 401/401/401 402/402/402
f 403/403/403 404/404/404 405/405/405
f 406/406/406 407/407/407 408/408/408
f 409/409/409 410/410/410 411/411/411
f 412/412/412 413/413/413 414/414/414
f 415/415/415 416/416/416 417/417/417
f 418/418/418 419/419/419 420/420/420
f 421/421/421 422/422/422 423/423/423
f 424/424/424 425/425/425 426/426/426
f 427/427/427 428/428/428 429/429/429
f 430/430/430 431/431/431 432/432/432
f 433/433/433 434/434/434 435/435/435
f 436/436/436 437/437/437 438/438/438
f 439/439/439 440/440/440 441/441/441
f 442/442/442 443/443/443 444/444/444
f 445/445/445 446/446/446 447/447/447
f 448/448/448 449/449/449 450/450/450
f 451/451/451 452/452/452 453/453/453
f 454/454/454 455/455/455 456/456/456
f 457/457/457 458/458/458 459/459/459
f 460/460/460 461/461/461 462/462/462
f 463/463/463 464/464/464 465/465/465
f 466/466/466 467/467/467 468/468/468
