# Metres, Y up, base pivot, trunk solid + flat foliage cards
mtllib Tree.mtl
o Abete_02_Slanciato
s off
v 0.240000 0.000000 0.000000
v 0.187500 0.428177 0.000000
v 0.097500 0.428177 0.155884
vt 0.000000 0.000000
vt 0.000000 0.175000
vt 0.166667 0.175000
vn 0.861184 0.105592 0.497205
vn 0.861184 0.105592 0.497205
vn 0.861184 0.105592 0.497205
v 0.240000 0.000000 0.000000
v 0.097500 0.428177 0.155884
v 0.120000 0.000000 0.207846
vt 0.000000 0.000000
vt 0.166667 0.175000
vt 0.166667 0.000000
vn 0.861184 0.105592 0.497205
vn 0.861184 0.105592 0.497205
vn 0.861184 0.105592 0.497205
v 0.120000 0.000000 0.207846
v 0.097500 0.428177 0.155884
v -0.082500 0.428177 0.155884
vt 0.166667 0.000000
vt 0.166667 0.175000
vt 0.333333 0.175000
vn 0.000000 0.120471 0.992717
vn 0.000000 0.120471 0.992717
vn 0.000000 0.120471 0.992717
v 0.120000 0.000000 0.207846
v -0.082500 0.428177 0.155884
v -0.120000 0.000000 0.207846
vt 0.166667 0.000000
vt 0.333333 0.175000
vt 0.333333 0.000000
vn 0.000000 0.120471 0.992717
vn 0.000000 0.120471 0.992717
vn 0.000000 0.120471 0.992717
v -0.120000 0.000000 0.207846
v -0.082500 0.428177 0.155884
v -0.172500 0.428177 0.000000
vt 0.333333 0.000000
vt 0.333333 0.175000
vt 0.500000 0.175000
vn -0.858065 0.135270 0.495405
vn -0.858065 0.135270 0.495405
vn -0.858065 0.135270 0.495405
v -0.120000 0.000000 0.207846
v -0.172500 0.428177 0.000000
v -0.240000 0.000000 0.000000
vt 0.333333 0.000000
vt 0.500000 0.175000
vt 0.500000 0.000000
vn -0.858065 0.135270 0.495405
vn -0.858065 0.135270 0.495405
vn -0.858065 0.135270 0.495405
v -0.240000 0.000000 0.000000
v -0.172500 0.428177 0.000000
v -0.082500 0.428177 -0.155884
vt 0.500000 0.000000
vt 0.500000 0.175000
vt 0.666667 0.175000
vn -0.858065 0.135270 -0.495405
vn -0.858065 0.135270 -0.495405
vn -0.858065 0.135270 -0.495405
v -0.240000 0.000000 0.000000
v -0.082500 0.428177 -0.155884
v -0.120000 0.000000 -0.207846
vt 0.500000 0.000000
vt 0.666667 0.175000
vt 0.666667 0.000000
vn -0.858065 0.135270 -0.495405
vn -0.858065 0.135270 -0.495405
vn -0.858065 0.135270 -0.495405
v -0.120000 0.000000 -0.207846
v -0.082500 0.428177 -0.155884
v 0.097500 0.428177 -0.155884
vt 0.666667 0.000000
vt 0.666667 0.175000
vt 0.833333 0.175000
vn 0.000000 0.120471 -0.992717
vn 0.000000 0.120471 -0.992717
vn 0.000000 0.120471 -0.992717
v -0.120000 0.000000 -0.207846
v 0.097500 0.428177 -0.155884
v 0.120000 0.000000 -0.207846
vt 0.666667 0.000000
vt 0.833333 0.175000
vt 0.833333 0.000000
vn 0.000000 0.120471 -0.992717
vn 0.000000 0.120471 -0.992717
vn 0.000000 0.120471 -0.992717
v 0.120000 0.000000 -0.207846
v 0.097500 0.428177 -0.155884
v 0.187500 0.428177 0.000000
vt 0.833333 0.000000
vt 0.833333 0.175000
vt 1.000000 0.175000
vn 0.861184 0.105592 -0.497205
vn 0.861184 0.105592 -0.497205
vn 0.861184 0.105592 -0.497205
v 0.120000 0.000000 -0.207846
v 0.187500 0.428177 0.000000
v 0.240000 0.000000 0.000000
vt 0.833333 0.000000
vt 1.000000 0.175000
vt 1.000000 0.000000
vn 0.861184 0.105592 -0.497205
vn 0.861184 0.105592 -0.497205
vn 0.861184 0.105592 -0.497205
v 0.187500 0.428177 0.000000
v 0.180000 2.202053 -0.022500
v 0.116250 2.202053 0.087918
vt 0.000000 0.175000
vt 0.000000 0.900000
vt 0.166667 0.900000
vn 0.865982 0.010003 0.499976
vn 0.865982 0.010003 0.499976
vn 0.865982 0.010003 0.499976
v 0.187500 0.428177 0.000000
v 0.116250 2.202053 0.087918
v 0.097500 0.428177 0.155884
vt 0.000000 0.175000
vt 0.166667 0.900000
vt 0.166667 0.175000
vn 0.865982 0.010003 0.499975
vn 0.865982 0.010003 0.499975
vn 0.865982 0.010003 0.499975
v 0.097500 0.428177 0.155884
v 0.116250 2.202053 0.087918
v -0.011250 2.202053 0.087918
vt 0.166667 0.175000
vt 0.166667 0.900000
vt 0.333333 0.900000
vn 0.000000 0.038287 0.999267
vn 0.000000 0.038287 0.999267
vn 0.000000 0.038287 0.999267
v 0.097500 0.428177 0.155884
v -0.011250 2.202053 0.087918
v -0.082500 0.428177 0.155884
vt 0.166667 0.175000
vt 0.333333 0.900000
vt 0.333333 0.175000
vn 0.000000 0.038287 0.999267
vn 0.000000 0.038287 0.999267
vn 0.000000 0.038287 0.999267
v -0.082500 0.428177 0.155884
v -0.011250 2.202053 0.087918
v -0.075000 2.202053 -0.022500
vt 0.333333 0.175000
vt 0.333333 0.900000
vt 0.500000 0.900000
vn -0.864768 0.053864 0.499275
vn -0.864768 0.053864 0.499275
vn -0.864768 0.053864 0.499275
v -0.082500 0.428177 0.155884
v -0.075000 2.202053 -0.022500
v -0.172500 0.428177 0.000000
vt 0.333333 0.175000
vt 0.500000 0.900000
vt 0.500000 0.175000
vn -0.864768 0.053864 0.499274
vn -0.864768 0.053864 0.499274
vn -0.864768 0.053864 0.499274
v -0.172500 0.428177 0.000000
v -0.075000 2.202053 -0.022500
v -0.011250 2.202053 -0.132918
vt 0.500000 0.175000
vt 0.500000 0.900000
vt 0.666667 0.900000
vn -0.865289 0.041223 -0.499576
vn -0.865289 0.041223 -0.499576
vn -0.865289 0.041223 -0.499576
v -0.172500 0.428177 0.000000
v -0.011250 2.202053 -0.132918
v -0.082500 0.428177 -0.155884
vt 0.500000 0.175000
vt 0.666667 0.900000
vt 0.666667 0.175000
vn -0.865289 0.041223 -0.499575
vn -0.865289 0.041223 -0.499575
vn -0.865289 0.041223 -0.499575
v -0.082500 0.428177 -0.155884
v -0.011250 2.202053 -0.132918
v 0.116250 2.202053 -0.132918
vt 0.666667 0.175000
vt 0.666667 0.900000
vt 0.833333 0.900000
vn 0.000000 0.012946 -0.999916
vn 0.000000 0.012946 -0.999916
vn 0.000000 0.012946 -0.999916
v -0.082500 0.428177 -0.155884
v 0.116250 2.202053 -0.132918
v 0.097500 0.428177 -0.155884
vt 0.666667 0.175000
vt 0.833333 0.900000
vt 0.833333 0.175000
vn 0.000000 0.012946 -0.999916
vn 0.000000 0.012946 -0.999916
vn 0.000000 0.012946 -0.999916
v 0.097500 0.428177 -0.155884
v 0.116250 2.202053 -0.132918
v 0.180000 2.202053 -0.022500
vt 0.833333 0.175000
vt 0.833333 0.900000
vt 1.000000 0.900000
vn 0.866022 -0.002680 -0.499999
vn 0.866022 -0.002680 -0.499999
vn 0.866022 -0.002680 -0.499999
v 0.097500 0.428177 -0.155884
v 0.180000 2.202053 -0.022500
v 0.187500 0.428177 0.000000
vt 0.833333 0.175000
vt 1.000000 0.900000
vt 1.000000 0.175000
vn 0.866022 -0.002680 -0.499998
vn 0.866022 -0.002680 -0.499998
vn 0.866022 -0.002680 -0.499998
v 0.180000 2.202053 -0.022500
v 0.060000 4.526442 0.037500
v 0.022500 4.526442 0.102452
vt 0.000000 0.900000
vt 0.000000 1.850000
vt 0.166667 1.850000
vn 0.865589 0.031787 0.499745
vn 0.865589 0.031787 0.499745
vn 0.865589 0.031787 0.499745
v 0.180000 2.202053 -0.022500
v 0.022500 4.526442 0.102452
v 0.116250 2.202053 0.087918
vt 0.000000 0.900000
vt 0.166667 1.850000
vt 0.166667 0.900000
vn 0.865587 0.031787 0.499748
vn 0.865587 0.031787 0.499748
vn 0.865587 0.031787 0.499748
v 0.116250 2.202053 0.087918
v 0.022500 4.526442 0.102452
v -0.052500 4.526442 0.102452
vt 0.166667 0.900000
vt 0.166667 1.850000
vt 0.333333 1.850000
vn 0.000000 -0.006253 0.999980
vn 0.000000 -0.006253 0.999980
vn 0.000000 -0.006253 0.999980
v 0.116250 2.202053 0.087918
v -0.052500 4.526442 0.102452
v -0.011250 2.202053 0.087918
vt 0.166667 0.900000
vt 0.333333 1.850000
vt 0.333333 0.900000
vn 0.000000 -0.006253 0.999980
vn 0.000000 -0.006253 0.999980
vn 0.000000 -0.006253 0.999980
v -0.011250 2.202053 0.087918
v -0.052500 4.526442 0.102452
v -0.090000 4.526442 0.037500
vt 0.333333 0.900000
vt 0.333333 1.850000
vt 0.500000 1.850000
vn -0.865878 -0.018492 0.499913
vn -0.865878 -0.018492 0.499913
vn -0.865878 -0.018492 0.499913
v -0.011250 2.202053 0.087918
v -0.090000 4.526442 0.037500
v -0.075000 2.202053 -0.022500
vt 0.333333 0.900000
vt 0.500000 1.850000
vt 0.500000 0.900000
vn -0.865877 -0.018492 0.499915
vn -0.865877 -0.018492 0.499915
vn -0.865877 -0.018492 0.499915
v -0.075000 2.202053 -0.022500
v -0.090000 4.526442 0.037500
v -0.052500 4.526442 -0.027452
vt 0.500000 0.900000
vt 0.500000 1.850000
vt 0.666667 1.850000
vn -0.866003 0.007318 -0.499985
vn -0.866003 0.007318 -0.499985
vn -0.866003 0.007318 -0.499985
v -0.075000 2.202053 -0.022500
v -0.052500 4.526442 -0.027452
v -0.011250 2.202053 -0.132918
vt 0.500000 0.900000
vt 0.666667 1.850000
vt 0.666667 0.900000
vn -0.866002 0.007318 -0.499987
vn -0.866002 0.007318 -0.499987
vn -0.866002 0.007318 -0.499987
v -0.011250 2.202053 -0.132918
v -0.052500 4.526442 -0.027452
v 0.022500 4.526442 -0.027452
vt 0.666667 0.900000
vt 0.666667 1.850000
vt 0.833333 1.850000
vn 0.000000 0.045327 -0.998972
vn 0.000000 0.045327 -0.998972
vn 0.000000 0.045327 -0.998972
v -0.011250 2.202053 -0.132918
v 0.022500 4.526442 -0.027452
v 0.116250 2.202053 -0.132918
vt 0.666667 0.900000
vt 0.833333 1.850000
vt 0.833333 0.900000
vn 0.000000 0.045327 -0.998972
vn 0.000000 0.045327 -0.998972
vn 0.000000 0.045327 -0.998972
v 0.116250 2.202053 -0.132918
v 0.022500 4.526442 -0.027452
v 0.060000 4.526442 0.037500
vt 0.833333 0.900000
vt 0.833333 1.850000
vt 1.000000 1.850000
vn 0.864593 0.057521 -0.499170
vn 0.864593 0.057521 -0.499170
vn 0.864593 0.057521 -0.499170
v 0.116250 2.202053 -0.132918
v 0.060000 4.526442 0.037500
v 0.180000 2.202053 -0.022500
vt 0.833333 0.900000
vt 1.000000 1.850000
vt 1.000000 0.900000
vn 0.864591 0.057521 -0.499173
vn 0.864591 0.057521 -0.499173
vn 0.864591 0.057521 -0.499173
v 0.060000 4.526442 0.037500
v 0.048750 6.912000 0.007500
v 0.039375 6.912000 0.023738
vt 0.000000 1.850000
vt 0.000000 2.825000
vt 0.166667 2.825000
vn 0.865982 0.010371 0.499967
vn 0.865982 0.010371 0.499967
vn 0.865982 0.010371 0.499967
v 0.060000 4.526442 0.037500
v 0.039375 6.912000 0.023738
v 0.022500 4.526442 0.102452
vt 0.000000 1.850000
vt 0.166667 2.825000
vt 0.166667 1.850000
vn 0.865980 0.010371 0.499971
vn 0.865980 0.010371 0.499971
vn 0.865980 0.010371 0.499971
v 0.022500 4.526442 0.102452
v 0.039375 6.912000 0.023738
v 0.020625 6.912000 0.023738
vt 0.166667 1.850000
vt 0.166667 2.825000
vt 0.333333 2.825000
vn 0.000000 0.032978 0.999456
vn 0.000000 0.032978 0.999456
vn 0.000000 0.032978 0.999456
v 0.022500 4.526442 0.102452
v 0.020625 6.912000 0.023738
v -0.052500 4.526442 0.102452
vt 0.166667 1.850000
vt 0.333333 2.825000
vt 0.333333 1.850000
vn 0.000000 0.032978 0.999456
vn 0.000000 0.032978 0.999456
vn 0.000000 0.032978 0.999456
v -0.052500 4.526442 0.102452
v 0.020625 6.912000 0.023738
v 0.011250 6.912000 0.007500
vt 0.333333 1.850000
vt 0.333333 2.825000
vt 0.500000 2.825000
vn -0.865228 0.043005 0.499531
vn -0.865228 0.043005 0.499531
vn -0.865228 0.043005 0.499531
v -0.052500 4.526442 0.102452
v 0.011250 6.912000 0.007500
v -0.090000 4.526442 0.037500
vt 0.333333 1.850000
vt 0.500000 2.825000
vt 0.500000 1.850000
vn -0.865225 0.043005 0.499535
vn -0.865225 0.043005 0.499535
vn -0.865225 0.043005 0.499535
v -0.090000 4.526442 0.037500
v 0.011250 6.912000 0.007500
v 0.020625 6.912000 -0.008738
vt 0.500000 1.850000
vt 0.500000 2.825000
vt 0.666667 2.825000
vn -0.865627 0.030455 -0.499762
vn -0.865627 0.030455 -0.499762
vn -0.865627 0.030455 -0.499762
v -0.090000 4.526442 0.037500
v 0.020625 6.912000 -0.008738
v -0.052500 4.526442 -0.027452
vt 0.500000 1.850000
vt 0.666667 2.825000
vt 0.666667 1.850000
vn -0.865625 0.030455 -0.499766
vn -0.865625 0.030455 -0.499766
vn -0.865625 0.030455 -0.499766
v -0.052500 4.526442 -0.027452
v 0.020625 6.912000 -0.008738
v 0.039375 6.912000 -0.008738
vt 0.666667 1.850000
vt 0.666667 2.825000
vt 0.833333 2.825000
vn 0.000000 0.007844 -0.999969
vn 0.000000 0.007844 -0.999969
vn 0.000000 0.007844 -0.999969
v -0.052500 4.526442 -0.027452
v 0.039375 6.912000 -0.008738
v 0.022500 4.526442 -0.027452
vt 0.666667 1.850000
vt 0.833333 2.825000
vt 0.833333 1.850000
vn 0.000000 0.007844 -0.999969
vn 0.000000 0.007844 -0.999969
vn 0.000000 0.007844 -0.999969
v 0.022500 4.526442 -0.027452
v 0.039375 6.912000 -0.008738
v 0.048750 6.912000 0.007500
vt 0.833333 1.850000
vt 0.833333 2.825000
vt 1.000000 2.825000
vn 0.866027 -0.002204 -0.499992
vn 0.866027 -0.002204 -0.499992
vn 0.866027 -0.002204 -0.499992
v 0.022500 4.526442 -0.027452
v 0.048750 6.912000 0.007500
v 0.060000 4.526442 0.037500
vt 0.833333 1.850000
vt 1.000000 2.825000
vt 1.000000 1.850000
vn 0.866024 -0.002204 -0.499997
vn 0.866024 -0.002204 -0.499997
vn 0.866024 -0.002204 -0.499997
v 0.000000 0.000000 0.000000
v 0.240000 0.000000 0.000000
v 0.120000 0.000000 0.207846
vt 0.500000 0.500000
vt 0.820000 0.500000
vt 0.660000 0.777128
vn 0.000000 -1.000000 0.000000
vn 0.000000 -1.000000 0.000000
vn 0.000000 -1.000000 0.000000
v 0.000000 0.000000 0.000000
v 0.120000 0.000000 0.207846
v -0.120000 0.000000 0.207846
vt 0.500000 0.500000
vt 0.660000 0.777128
vt 0.340000 0.777128
vn 0.000000 -1.000000 0.000000
vn 0.000000 -1.000000 0.000000
vn 0.000000 -1.000000 0.000000
v 0.000000 0.000000 0.000000
v -0.120000 0.000000 0.207846
v -0.240000 0.000000 0.000000
vt 0.500000 0.500000
vt 0.340000 0.777128
vt 0.180000 0.500000
vn 0.000000 -1.000000 0.000000
vn 0.000000 -1.000000 0.000000
vn 0.000000 -1.000000 0.000000
v 0.000000 0.000000 0.000000
v -0.240000 0.000000 0.000000
v -0.120000 0.000000 -0.207846
vt 0.500000 0.500000
vt 0.180000 0.500000
vt 0.340000 0.222872
vn -0.000000 -1.000000 0.000000
vn -0.000000 -1.000000 0.000000
vn -0.000000 -1.000000 0.000000
v 0.000000 0.000000 0.000000
v -0.120000 0.000000 -0.207846
v 0.120000 0.000000 -0.207846
vt 0.500000 0.500000
vt 0.340000 0.222872
vt 0.660000 0.222872
vn 0.000000 -1.000000 -0.000000
vn 0.000000 -1.000000 -0.000000
vn 0.000000 -1.000000 -0.000000
v 0.000000 0.000000 0.000000
v 0.120000 0.000000 -0.207846
v 0.240000 0.000000 0.000000
vt 0.500000 0.500000
vt 0.660000 0.222872
vt 0.820000 0.500000
vn 0.000000 -1.000000 0.000000
vn 0.000000 -1.000000 0.000000
vn 0.000000 -1.000000 0.000000
v 0.030000 6.912000 0.007500
v 0.039375 6.912000 0.023738
v 0.048750 6.912000 0.007500
vt 0.540000 0.510000
vt 0.552500 0.531651
vt 0.565000 0.510000
vn 0.000000 1.000000 0.000000
vn 0.000000 1.000000 0.000000
vn 0.000000 1.000000 0.000000
v 0.030000 6.912000 0.007500
v 0.020625 6.912000 0.023738
v 0.039375 6.912000 0.023738
vt 0.540000 0.510000
vt 0.527500 0.531651
vt 0.552500 0.531651
vn 0.000000 1.000000 -0.000000
vn 0.000000 1.000000 -0.000000
vn 0.000000 1.000000 -0.000000
v 0.030000 6.912000 0.007500
v 0.011250 6.912000 0.007500
v 0.020625 6.912000 0.023738
vt 0.540000 0.510000
vt 0.515000 0.510000
vt 0.527500 0.531651
vn 0.000000 1.000000 0.000000
vn 0.000000 1.000000 0.000000
vn 0.000000 1.000000 0.000000
v 0.030000 6.912000 0.007500
v 0.020625 6.912000 -0.008738
v 0.011250 6.912000 0.007500
vt 0.540000 0.510000
vt 0.527500 0.488349
vt 0.515000 0.510000
vn 0.000000 1.000000 0.000000
vn 0.000000 1.000000 0.000000
vn 0.000000 1.000000 0.000000
v 0.030000 6.912000 0.007500
v 0.039375 6.912000 -0.008738
v 0.020625 6.912000 -0.008738
vt 0.540000 0.510000
vt 0.552500 0.488349
vt 0.527500 0.488349
vn 0.000000 1.000000 0.000000
vn 0.000000 1.000000 0.000000
vn 0.000000 1.000000 0.000000
v 0.030000 6.912000 0.007500
v 0.048750 6.912000 0.007500
v 0.039375 6.912000 -0.008738
vt 0.540000 0.510000
vt 0.565000 0.510000
vt 0.552500 0.488349
vn -0.000000 1.000000 0.000000
vn -0.000000 1.000000 0.000000
vn -0.000000 1.000000 0.000000
v 1.200000 1.258741 -0.852000
v 1.200000 1.258741 0.852000
v 0.015000 2.366434 0.852000
vt 0.000000 0.000000
vt 1.000000 0.000000
vt 1.000000 1.000000
vn -0.682876 -0.730535 0.000000
vn -0.682876 -0.730535 0.000000
vn -0.682876 -0.730535 0.000000
v 1.200000 1.258741 -0.852000
v 0.015000 2.366434 0.852000
v 0.015000 2.366434 -0.852000
vt 0.000000 0.000000
vt 1.000000 1.000000
vt 0.000000 1.000000
vn -0.682876 -0.730535 0.000000
vn -0.682876 -0.730535 0.000000
vn -0.682876 -0.730535 0.000000
v 1.337854 1.258741 0.613230
v -0.137854 1.258741 1.465230
v -0.730354 2.366434 0.438990
vt 0.000000 0.000000
vt 1.000000 0.000000
vt 1.000000 1.000000
vn -0.341438 -0.730535 -0.591388
vn -0.341438 -0.730535 -0.591388
vn -0.341438 -0.730535 -0.591388
v 1.337854 1.258741 0.613230
v -0.730354 2.366434 0.438990
v 0.745354 2.366434 -0.413010
vt 0.000000 0.000000
vt 1.000000 1.000000
vt 0.000000 1.000000
vn -0.341438 -0.730535 -0.591388
vn -0.341438 -0.730535 -0.591388
vn -0.341438 -0.730535 -0.591388
v 0.137854 1.258741 1.465230
v -1.337854 1.258741 0.613230
v -0.745354 2.366434 -0.413010
vt 0.000000 0.000000
vt 1.000000 0.000000
vt 1.000000 1.000000
vn 0.341438 -0.730535 -0.591388
vn 0.341438 -0.730535 -0.591388
vn 0.341438 -0.730535 -0.591388
v 0.137854 1.258741 1.465230
v -0.745354 2.366434 -0.413010
v 0.730354 2.366434 0.438990
vt 0.000000 0.000000
vt 1.000000 1.000000
vt 0.000000 1.000000
vn 0.341438 -0.730535 -0.591388
vn 0.341438 -0.730535 -0.591388
vn 0.341438 -0.730535 -0.591388
v -1.200000 1.258741 0.852000
v -1.200000 1.258741 -0.852000
v -0.015000 2.366434 -0.852000
vt 0.000000 0.000000
vt 1.000000 0.000000
vt 1.000000 1.000000
vn 0.682876 -0.730535 0.000000
vn 0.682876 -0.730535 0.000000
vn 0.682876 -0.730535 0.000000
v -1.200000 1.258741 0.852000
v -0.015000 2.366434 -0.852000
v -0.015000 2.366434 0.852000
vt 0.000000 0.000000
vt 1.000000 1.000000
vt 0.000000 1.000000
vn 0.682876 -0.730535 -0.000000
vn 0.682876 -0.730535 -0.000000
vn 0.682876 -0.730535 -0.000000
v -1.337854 1.258741 -0.613230
v 0.137854 1.258741 -1.465230
v 0.730354 2.366434 -0.438990
vt 0.000000 0.000000
vt 1.000000 0.000000
vt 1.000000 1.000000
vn 0.341438 -0.730535 0.591388
vn 0.341438 -0.730535 0.591388
vn 0.341438 -0.730535 0.591388
v -1.337854 1.258741 -0.613230
v 0.730354 2.366434 -0.438990
v -0.745354 2.366434 0.413010
vt 0.000000 0.000000
vt 1.000000 1.000000
vt 0.000000 1.000000
vn 0.341438 -0.730535 0.591388
vn 0.341438 -0.730535 0.591388
vn 0.341438 -0.730535 0.591388
v -0.137854 1.258741 -1.465230
v 1.337854 1.258741 -0.613230
v 0.745354 2.366434 0.413010
vt 0.000000 0.000000
vt 1.000000 0.000000
vt 1.000000 1.000000
vn -0.341438 -0.730535 0.591388
vn -0.341438 -0.730535 0.591388
vn -0.341438 -0.730535 0.591388
v -0.137854 1.258741 -1.465230
v 0.745354 2.366434 0.413010
v -0.730354 2.366434 -0.438990
vt 0.000000 0.000000
vt 1.000000 1.000000
vt 0.000000 1.000000
vn -0.341438 -0.730535 0.591388
vn -0.341438 -0.730535 0.591388
vn -0.341438 -0.730535 0.591388
v 1.320147 2.064336 -0.277801
v 0.697519 2.064336 1.154742
v -0.297557 3.172028 0.722251
vt 0.000000 0.000000
vt 1.000000 0.000000
vt 1.000000 1.000000
vn -0.655179 -0.699751 -0.284761
vn -0.655179 -0.699751 -0.284761
vn -0.655179 -0.699751 -0.284761
v 1.320147 2.064336 -0.277801
v -0.297557 3.172028 0.722251
v 0.325071 3.172028 -0.710292
vt 0.000000 0.000000
vt 1.000000 1.000000
vt 0.000000 1.000000
vn -0.655179 -0.699751 -0.284761
vn -0.655179 -0.699751 -0.284761
vn -0.655179 -0.699751 -0.284761
v 0.900656 2.064336 1.004380
v -0.651276 2.064336 1.181440
v -0.774266 3.172028 0.103433
vt 0.000000 0.000000
vt 1.000000 0.000000
vt 1.000000 1.000000
vn -0.080979 -0.699751 -0.709782
vn -0.080979 -0.699751 -0.709782
vn -0.080979 -0.699751 -0.709782
v 0.900656 2.064336 1.004380
v -0.774266 3.172028 0.103433
v 0.777666 3.172028 -0.073627
vt 0.000000 0.000000
vt 1.000000 1.000000
vt 0.000000 1.000000
vn -0.080979 -0.699751 -0.709782
vn -0.080979 -0.699751 -0.709782
vn -0.080979 -0.699751 -0.709782
v -0.419491 2.064336 1.282181
v -1.348795 2.064336 0.026698
v -0.476709 3.172028 -0.618817
vt 0.000000 0.000000
vt 1.000000 0.000000
vt 1.000000 1.000000
vn 0.574200 -0.699751 -0.425021
vn 0.574200 -0.699751 -0.425021
vn 0.574200 -0.699751 -0.425021
v -0.419491 2.064336 1.282181
v -0.476709 3.172028 -0.618817
v 0.452596 3.172028 0.636666
vt 0.000000 0.000000
vt 1.000000 1.000000
vt 0.000000 1.000000
vn 0.574200 -0.699751 -0.425021
vn 0.574200 -0.699751 -0.425021
vn 0.574200 -0.699751 -0.425021
v -1.320147 2.064336 0.277801
v -0.697519 2.064336 -1.154742
v 0.297557 3.172028 -0.722251
vt 0.000000 0.000000
vt 1.000000 0.000000
vt 1.000000 1.000000
vn 0.655179 -0.699751 0.284761
vn 0.655179 -0.699751 0.284761
vn 0.655179 -0.699751 0.284761
v -1.320147 2.064336 0.277801
v 0.297557 3.172028 -0.722251
v -0.325071 3.172028 0.710292
vt 0.000000 0.000000
vt 1.000000 1.000000
vt 0.000000 1.000000
vn 0.655179 -0.699751 0.284761
vn 0.655179 -0.699751 0.284761
vn 0.655179 -0.699751 0.284761
v -0.900656 2.064336 -1.004380
v 0.651276 2.064336 -1.181440
v 0.774266 3.172028 -0.103433
vt 0.000000 0.000000
vt 1.000000 0.000000
vt 1.000000 1.000000
vn 0.080979 -0.699751 0.709782
vn 0.080979 -0.699751 0.709782
vn 0.080979 -0.699751 0.709782
v -0.900656 2.064336 -1.004380
v 0.774266 3.172028 -0.103433
v -0.777666 3.172028 0.073627
vt 0.000000 0.000000
vt 1.000000 1.000000
vt 0.000000 1.000000
vn 0.080979 -0.699751 0.709782
vn 0.080979 -0.699751 0.709782
vn 0.080979 -0.699751 0.709782
v 0.419491 2.064336 -1.282181
v 1.348795 2.064336 -0.026698
v 0.476709 3.172028 0.618817
vt 0.000000 0.000000
vt 1.000000 0.000000
vt 1.000000 1.000000
vn -0.574200 -0.699751 0.425021
vn -0.574200 -0.699751 0.425021
vn -0.574200 -0.699751 0.425021
v 0.419491 2.064336 -1.282181
v 0.476709 3.172028 0.618817
v -0.452596 3.172028 -0.636666
vt 0.000000 0.000000
vt 1.000000 1.000000
vt 0.000000 1.000000
vn -0.574200 -0.699751 0.425021
vn -0.574200 -0.699751 0.425021
vn -0.574200 -0.699751 0.425021
v 1.177308 2.869930 0.241833
v 0.159846 2.869930 1.191212
v -0.498498 3.977622 0.485657
vt 0.000000 0.000000
vt 1.000000 0.000000
vt 1.000000 1.000000
vn -0.514396 -0.656872 -0.551286
vn -0.514396 -0.656872 -0.551286
vn -0.514396 -0.656872 -0.551286
v 1.177308 2.869930 0.241833
v -0.498498 3.977622 0.485657
v 0.518965 3.977622 -0.463722
vt 0.000000 0.000000
vt 1.000000 1.000000
vt 0.000000 1.000000
vn -0.514396 -0.656872 -0.551286
vn -0.514396 -0.656872 -0.551286
vn -0.514396 -0.656872 -0.551286
v 0.379220 2.869930 1.140495
v -0.951697 2.869930 0.734036
v -0.669840 3.977622 -0.188884
vt 0.000000 0.000000
vt 1.000000 0.000000
vt 1.000000 1.000000
vn 0.220229 -0.656872 -0.721123
vn 0.220229 -0.656872 -0.721123
vn 0.220229 -0.656872 -0.721123
v 0.379220 2.869930 1.140495
v -0.669840 3.977622 -0.188884
v 0.661078 3.977622 0.217575
vt 0.000000 0.000000
vt 1.000000 1.000000
vt 0.000000 1.000000
vn 0.220229 -0.656872 -0.721123
vn 0.220229 -0.656872 -0.721123
vn 0.220229 -0.656872 -0.721123
v -0.798088 2.869930 0.898662
v -1.111543 2.869930 -0.457176
v -0.171342 3.977622 -0.674540
vt 0.000000 0.000000
vt 1.000000 0.000000
vt 1.000000 1.000000
vn 0.734625 -0.656872 -0.169837
vn 0.734625 -0.656872 -0.169837
vn 0.734625 -0.656872 -0.169837
v -0.798088 2.869930 0.898662
v -0.171342 3.977622 -0.674540
v 0.142113 3.977622 0.681298
vt 0.000000 0.000000
vt 1.000000 1.000000
vt 0.000000 1.000000
vn 0.734625 -0.656872 -0.169837
vn 0.734625 -0.656872 -0.169837
vn 0.734625 -0.656872 -0.169837
v -1.177308 2.869930 -0.241833
v -0.159846 2.869930 -1.191212
v 0.498498 3.977622 -0.485657
vt 0.000000 0.000000
vt 1.000000 0.000000
vt 1.000000 1.000000
vn 0.514396 -0.656872 0.551286
vn 0.514396 -0.656872 0.551286
vn 0.514396 -0.656872 0.551286
v -1.177308 2.869930 -0.241833
v 0.498498 3.977622 -0.485657
v -0.518965 3.977622 0.463722
vt 0.000000 0.000000
vt 1.000000 1.000000
vt 0.000000 1.000000
vn 0.514396 -0.656872 0.551286
vn 0.514396 -0.656872 0.551286
vn 0.514396 -0.656872 0.551286
v -0.379220 2.869930 -1.140495
v 0.951697 2.869930 -0.734036
v 0.669840 3.977622 0.188884
vt 0.000000 0.000000
vt 1.000000 0.000000
vt 1.000000 1.000000
vn -0.220229 -0.656872 0.721123
vn -0.220229 -0.656872 0.721123
vn -0.220229 -0.656872 0.721123
v -0.379220 2.869930 -1.140495
v 0.669840 3.977622 0.188884
v -0.661078 3.977622 -0.217575
vt 0.000000 0.000000
vt 1.000000 1.000000
vt 0.000000 1.000000
vn -0.220229 -0.656872 0.721123
vn -0.220229 -0.656872 0.721123
vn -0.220229 -0.656872 0.721123
v 0.798088 2.869930 -0.898662
v 1.111543 2.869930 0.457176
v 0.171342 3.977622 0.674540
vt 0.000000 0.000000
vt 1.000000 0.000000
vt 1.000000 1.000000
vn -0.734625 -0.656872 0.169837
vn -0.734625 -0.656872 0.169837
vn -0.734625 -0.656872 0.169837
v 0.798088 2.869930 -0.898662
v 0.171342 3.977622 0.674540
v -0.142113 3.977622 -0.681298
vt 0.000000 0.000000
vt 1.000000 1.000000
vt 0.000000 1.000000
vn -0.734625 -0.656872 0.169837
vn -0.734625 -0.656872 0.169837
vn -0.734625 -0.656872 0.169837
v 0.842860 3.675524 0.592351
v -0.281341 3.675524 0.991030
v -0.557087 4.783217 0.213477
vt 0.000000 0.000000
vt 1.000000 0.000000
vt 1.000000 1.000000
vn -0.268059 -0.597323 -0.755877
vn -0.268059 -0.597323 -0.755877
vn -0.268059 -0.597323 -0.755877
v 0.842860 3.675524 0.592351
v -0.557087 4.783217 0.213477
v 0.567114 4.783217 -0.185202
vt 0.000000 0.000000
vt 1.000000 1.000000
vt 0.000000 1.000000
vn -0.268059 -0.597323 -0.755877
vn -0.268059 -0.597323 -0.755877
vn -0.268059 -0.597323 -0.755877
v -0.091561 3.675524 1.026114
v -0.998927 3.675524 0.251867
v -0.463420 4.783217 -0.375713
vt 0.000000 0.000000
vt 1.000000 0.000000
vt 1.000000 1.000000
vn 0.520579 -0.597323 -0.610084
vn 0.520579 -0.597323 -0.610084
vn 0.520579 -0.597323 -0.610084
v -0.091561 3.675524 1.026114
v -0.463420 4.783217 -0.375713
v 0.443947 4.783217 0.398534
vt 0.000000 0.000000
vt 1.000000 1.000000
vt 0.000000 1.000000
vn 0.520579 -0.597323 -0.610084
vn 0.520579 -0.597323 -0.610084
vn 0.520579 -0.597323 -0.610084
v -0.934421 3.675524 0.433763
v -0.717587 3.675524 -0.739163
v 0.093667 4.783217 -0.589190
vt 0.000000 0.000000
vt 1.000000 0.000000
vt 1.000000 1.000000
vn 0.788638 -0.597323 0.145792
vn 0.788638 -0.597323 0.145792
vn 0.788638 -0.597323 0.145792
v -0.934421 3.675524 0.433763
v 0.093667 4.783217 -0.589190
v -0.123167 4.783217 0.583736
vt 0.000000 0.000000
vt 1.000000 1.000000
vt 0.000000 1.000000
vn 0.788638 -0.597323 0.145792
vn 0.788638 -0.597323 0.145792
vn 0.788638 -0.597323 0.145792
v -0.842860 3.675524 -0.592351
v 0.281341 3.675524 -0.991030
v 0.557087 4.783217 -0.213477
vt 0.000000 0.000000
vt 1.000000 0.000000
vt 1.000000 1.000000
vn 0.268059 -0.597323 0.755877
vn 0.268059 -0.597323 0.755877
vn 0.268059 -0.597323 0.755877
v -0.842860 3.675524 -0.592351
v 0.557087 4.783217 -0.213477
v -0.567114 4.783217 0.185202
vt 0.000000 0.000000
vt 1.000000 1.000000
vt 0.000000 1.000000
vn 0.268059 -0.597323 0.755877
vn 0.268059 -0.597323 0.755877
vn 0.268059 -0.597323 0.755877
v 0.091561 3.675524 -1.026114
v 0.998927 3.675524 -0.251867
v 0.463420 4.783217 0.375713
vt 0.000000 0.000000
vt 1.000000 0.000000
vt 1.000000 1.000000
vn -0.520579 -0.597323 0.610084
vn -0.520579 -0.597323 0.610084
vn -0.520579 -0.597323 0.610084
v 0.091561 3.675524 -1.026114
v 0.463420 4.783217 0.375713
v -0.443947 4.783217 -0.398534
vt 0.000000 0.000000
vt 1.000000 1.000000
vt 0.000000 1.000000
vn -0.520579 -0.597323 0.610084
vn -0.520579 -0.597323 0.610084
vn -0.520579 -0.597323 0.610084
v 0.934421 3.675524 -0.433763
v 0.717587 3.675524 0.739163
v -0.093667 4.783217 0.589190
vt 0.000000 0.000000
vt 1.000000 0.000000
vt 1.000000 1.000000
vn -0.788638 -0.597323 -0.145792
vn -0.788638 -0.597323 -0.145792
vn -0.788638 -0.597323 -0.145792
v 0.934421 3.675524 -0.433763
v -0.093667 4.783217 0.589190
v 0.123167 4.783217 -0.583736
vt 0.000000 0.000000
vt 1.000000 1.000000
vt 0.000000 1.000000
vn -0.788638 -0.597323 -0.145792
vn -0.788638 -0.597323 -0.145792
vn -0.788638 -0.597323 -0.145792
v 0.441015 4.481119 0.722224
v -0.536440 4.481119 0.654473
v -0.489765 5.588811 -0.018912
vt 0.000000 0.000000
vt 1.000000 0.000000
vt 1.000000 1.000000
vn 0.059049 -0.520370 -0.851897
vn 0.059049 -0.520370 -0.851897
vn 0.059049 -0.520370 -0.851897
v 0.441015 4.481119 0.722224
v -0.489765 5.588811 -0.018912
v 0.487690 5.588811 0.048840
vt 0.000000 0.000000
vt 1.000000 1.000000
vt 0.000000 1.000000
vn 0.059049 -0.520370 -0.851897
vn 0.059049 -0.520370 -0.851897
vn 0.059049 -0.520370 -0.851897
v -0.404957 4.481119 0.743042
v -0.835010 4.481119 -0.137334
v -0.228504 5.588811 -0.433604
vt 0.000000 0.000000
vt 1.000000 0.000000
vt 1.000000 1.000000
vn 0.767289 -0.520370 -0.374811
vn 0.767289 -0.520370 -0.374811
vn 0.767289 -0.520370 -0.374811
v -0.404957 4.481119 0.743042
v -0.228504 5.588811 -0.433604
v 0.201548 5.588811 0.446772
vt 0.000000 0.000000
vt 1.000000 1.000000
vt 0.000000 1.000000
vn 0.767289 -0.520370 -0.374811
vn 0.767289 -0.520370 -0.374811
vn 0.767289 -0.520370 -0.374811
v -0.845972 4.481119 0.020818
v -0.298570 4.481119 -0.791807
v 0.261260 5.588811 -0.414693
vt 0.000000 0.000000
vt 1.000000 0.000000
vt 1.000000 1.000000
vn 0.708240 -0.520370 0.477086
vn 0.708240 -0.520370 0.477086
vn 0.708240 -0.520370 0.477086
v -0.845972 4.481119 0.020818
v 0.261260 5.588811 -0.414693
v -0.286142 5.588811 0.397932
vt 0.000000 0.000000
vt 1.000000 1.000000
vt 0.000000 1.000000
vn 0.708240 -0.520370 0.477086
vn 0.708240 -0.520370 0.477086
vn 0.708240 -0.520370 0.477086
v -0.441015 4.481119 -0.722224
v 0.536440 4.481119 -0.654473
v 0.489765 5.588811 0.018912
vt 0.000000 0.000000
vt 1.000000 0.000000
vt 1.000000 1.000000
vn -0.059049 -0.520370 0.851897
vn -0.059049 -0.520370 0.851897
vn -0.059049 -0.520370 0.851897
v -0.441015 4.481119 -0.722224
v 0.489765 5.588811 0.018912
v -0.487690 5.588811 -0.048840
vt 0.000000 0.000000
vt 1.000000 1.000000
vt 0.000000 1.000000
vn -0.059049 -0.520370 0.851897
vn -0.059049 -0.520370 0.851897
vn -0.059049 -0.520370 0.851897
v 0.404957 4.481119 -0.743042
v 0.835010 4.481119 0.137334
v 0.228504 5.588811 0.433604
vt 0.000000 0.000000
vt 1.000000 0.000000
vt 1.000000 1.000000
vn -0.767289 -0.520370 0.374811
vn -0.767289 -0.520370 0.374811
vn -0.767289 -0.520370 0.374811
v 0.404957 4.481119 -0.743042
v 0.228504 5.588811 0.433604
v -0.201548 5.588811 -0.446772
vt 0.000000 0.000000
vt 1.000000 1.000000
vt 0.000000 1.000000
vn -0.767289 -0.520370 0.374811
vn -0.767289 -0.520370 0.374811
vn -0.767289 -0.520370 0.374811
v 0.845972 4.481119 -0.020818
v 0.298570 4.481119 0.791807
v -0.261260 5.588811 0.414693
vt 0.000000 0.000000
vt 1.000000 0.000000
vt 1.000000 1.000000
vn -0.708240 -0.520370 -0.477086
vn -0.708240 -0.520370 -0.477086
vn -0.708240 -0.520370 -0.477086
v 0.845972 4.481119 -0.020818
v -0.261260 5.588811 0.414693
v 0.286142 5.588811 -0.397932
vt 0.000000 0.000000
vt 1.000000 1.000000
vt 0.000000 1.000000
vn -0.708240 -0.520370 -0.477086
vn -0.708240 -0.520370 -0.477086
vn -0.708240 -0.520370 -0.477086
v 0.086167 5.286713 0.619509
v -0.556461 5.286713 0.285600
v -0.328230 6.394406 -0.153644
vt 0.000000 0.000000
vt 1.000000 0.000000
vt 1.000000 1.000000
vn 0.420953 -0.407991 -0.810150
vn 0.420953 -0.407991 -0.810150
vn 0.420953 -0.407991 -0.810150
v 0.086167 5.286713 0.619509
v -0.328230 6.394406 -0.153644
v 0.314398 6.394406 0.180265
vt 0.000000 0.000000
vt 1.000000 1.000000
vt 0.000000 1.000000
vn 0.420953 -0.407991 -0.810150
vn 0.420953 -0.407991 -0.810150
vn 0.420953 -0.407991 -0.810150
v -0.493427 5.286713 0.384377
v -0.525568 5.286713 -0.339109
v -0.031055 6.394406 -0.361078
vt 0.000000 0.000000
vt 1.000000 0.000000
vt 1.000000 1.000000
vn 0.912087 -0.407991 -0.040519
vn 0.912087 -0.407991 -0.040519
vn 0.912087 -0.407991 -0.040519
v -0.493427 5.286713 0.384377
v -0.031055 6.394406 -0.361078
v 0.001085 6.394406 0.362409
vt 0.000000 0.000000
vt 1.000000 1.000000
vt 0.000000 1.000000
vn 0.912087 -0.407991 -0.040519
vn 0.912087 -0.407991 -0.040519
vn 0.912087 -0.407991 -0.040519
v -0.579594 5.286713 -0.235132
v 0.030893 5.286713 -0.624710
v 0.297175 6.394406 -0.207434
vt 0.000000 0.000000
vt 1.000000 0.000000
vt 1.000000 1.000000
vn 0.491134 -0.407991 0.769631
vn 0.491134 -0.407991 0.769631
vn 0.491134 -0.407991 0.769631
v -0.579594 5.286713 -0.235132
v 0.297175 6.394406 -0.207434
v -0.313313 6.394406 0.182144
vt 0.000000 0.000000
vt 1.000000 1.000000
vt 0.000000 1.000000
vn 0.491134 -0.407991 0.769631
vn 0.491134 -0.407991 0.769631
vn 0.491134 -0.407991 0.769631
v -0.086167 5.286713 -0.619509
v 0.556461 5.286713 -0.285600
v 0.328230 6.394406 0.153644
vt 0.000000 0.000000
vt 1.000000 0.000000
vt 1.000000 1.000000
vn -0.420953 -0.407991 0.810150
vn -0.420953 -0.407991 0.810150
vn -0.420953 -0.407991 0.810150
v -0.086167 5.286713 -0.619509
v 0.328230 6.394406 0.153644
v -0.314398 6.394406 -0.180265
vt 0.000000 0.000000
vt 1.000000 1.000000
vt 0.000000 1.000000
vn -0.420953 -0.407991 0.810150
vn -0.420953 -0.407991 0.810150
vn -0.420953 -0.407991 0.810150
v 0.493427 5.286713 -0.384377
v 0.525568 5.286713 0.339109
v 0.031055 6.394406 0.361078
vt 0.000000 0.000000
vt 1.000000 0.000000
vt 1.000000 1.000000
vn -0.912087 -0.407991 0.040519
vn -0.912087 -0.407991 0.040519
vn -0.912087 -0.407991 0.040519
v 0.493427 5.286713 -0.384377
v 0.031055 6.394406 0.361078
v -0.001085 6.394406 -0.362409
vt 0.000000 0.000000
vt 1.000000 1.000000
vt 0.000000 1.000000
vn -0.912087 -0.407991 0.040519
vn -0.912087 -0.407991 0.040519
vn -0.912087 -0.407991 0.040519
v 0.579594 5.286713 0.235132
v -0.030893 5.286713 0.624710
v -0.297175 6.394406 0.207434
vt 0.000000 0.000000
vt 1.000000 0.000000
vt 1.000000 1.000000
vn -0.491134 -0.407991 -0.769631
vn -0.491134 -0.407991 -0.769631
vn -0.491134 -0.407991 -0.769631
v 0.579594 5.286713 0.235132
v -0.297175 6.394406 0.207434
v 0.313313 6.394406 -0.182144
vt 0.000000 0.000000
vt 1.000000 1.000000
vt 0.000000 1.000000
vn -0.491134 -0.407991 -0.769631
vn -0.491134 -0.407991 -0.769631
vn -0.491134 -0.407991 -0.769631
v -0.092190 6.092308 0.330791
v -0.342690 6.092308 0.022026
v -0.136899 7.200000 -0.144932
vt 0.000000 0.000000
vt 1.000000 0.000000
vt 1.000000 1.000000
vn 0.755258 -0.232670 -0.612740
vn 0.755258 -0.232670 -0.612740
vn 0.755258 -0.232670 -0.612740
v -0.092190 6.092308 0.330791
v -0.136899 7.200000 -0.144932
v 0.113602 7.200000 0.163833
vt 0.000000 0.000000
vt 1.000000 1.000000
vt 0.000000 1.000000
vn 0.755258 -0.232670 -0.612740
vn 0.755258 -0.232670 -0.612740
vn 0.755258 -0.232670 -0.612740
v -0.332568 6.092308 0.085557
v -0.190420 6.092308 -0.285765
v 0.057065 7.200000 -0.191024
vt 0.000000 0.000000
vt 1.000000 0.000000
vt 1.000000 1.000000
vn 0.908277 -0.232670 0.347703
vn 0.908277 -0.232670 0.347703
vn 0.908277 -0.232670 0.347703
v -0.332568 6.092308 0.085557
v 0.057065 7.200000 -0.191024
v -0.085082 7.200000 0.180298
vt 0.000000 0.000000
vt 1.000000 1.000000
vt 0.000000 1.000000
vn 0.908277 -0.232670 0.347703
vn 0.908277 -0.232670 0.347703
vn 0.908277 -0.232670 0.347703
v -0.240378 6.092308 -0.245234
v 0.152269 6.092308 -0.307791
v 0.193964 7.200000 -0.046092
vt 0.000000 0.000000
vt 1.000000 0.000000
vt 1.000000 1.000000
vn 0.153019 -0.232670 0.960442
vn 0.153019 -0.232670 0.960442
vn 0.153019 -0.232670 0.960442
v -0.240378 6.092308 -0.245234
v 0.193964 7.200000 -0.046092
v -0.198684 7.200000 0.016465
vt 0.000000 0.000000
vt 1.000000 1.000000
vt 0.000000 1.000000
vn 0.153019 -0.232670 0.960442
vn 0.153019 -0.232670 0.960442
vn 0.153019 -0.232670 0.960442
v 0.092190 6.092308 -0.330791
v 0.342690 6.092308 -0.022026
v 0.136899 7.200000 0.144932
vt 0.000000 0.000000
vt 1.000000 0.000000
vt 1.000000 1.000000
vn -0.755258 -0.232670 0.612740
vn -0.755258 -0.232670 0.612740
vn -0.755258 -0.232670 0.612740
v 0.092190 6.092308 -0.330791
v 0.136899 7.200000 0.144932
v -0.113602 7.200000 -0.163833
vt 0.000000 0.000000
vt 1.000000 1.000000
vt 0.000000 1.000000
vn -0.755258 -0.232670 0.612740
vn -0.755258 -0.232670 0.612740
vn -0.755258 -0.232670 0.612740
v 0.332568 6.092308 -0.085557
v 0.190420 6.092308 0.285765
v -0.057065 7.200000 0.191024
vt 0.000000 0.000000
vt 1.000000 0.000000
vt 1.000000 1.000000
vn -0.908277 -0.232670 -0.347703
vn -0.908277 -0.232670 -0.347703
vn -0.908277 -0.232670 -0.347703
v 0.332568 6.092308 -0.085557
v -0.057065 7.200000 0.191024
v 0.085082 7.200000 -0.180298
vt 0.000000 0.000000
vt 1.000000 1.000000
vt 0.000000 1.000000
vn -0.908277 -0.232670 -0.347703
vn -0.908277 -0.232670 -0.347703
vn -0.908277 -0.232670 -0.347703
v 0.240378 6.092308 0.245234
v -0.152269 6.092308 0.307791
v -0.193964 7.200000 0.046092
vt 0.000000 0.000000
vt 1.000000 0.000000
vt 1.000000 1.000000
vn -0.153019 -0.232670 -0.960442
vn -0.153019 -0.232670 -0.960442
vn -0.153019 -0.232670 -0.960442
v 0.240378 6.092308 0.245234
v -0.193964 7.200000 0.046092
v 0.198684 7.200000 -0.016465
vt 0.000000 0.000000
vt 1.000000 1.000000
vt 0.000000 1.000000
vn -0.153019 -0.232670 -0.960442
vn -0.153019 -0.232670 -0.960442
vn -0.153019 -0.232670 -0.960442
usemtl Bark
f 1/1/1 2/2/2 3/3/3
f 4/4/4 5/5/5 6/6/6
f 7/7/7 8/8/8 9/9/9
f 10/10/10 11/11/11 12/12/12
f 13/13/13 14/14/14 15/15/15
f 16/16/16 17/17/17 18/18/18
f 19/19/19 20/20/20 21/21/21
f 22/22/22 23/23/23 24/24/24
f 25/25/25 26/26/26 27/27/27
f 28/28/28 29/29/29 30/30/30
f 31/31/31 32/32/32 33/33/33
f 34/34/34 35/35/35 36/36/36
f 37/37/37 38/38/38 39/39/39
f 40/40/40 41/41/41 42/42/42
f 43/43/43 44/44/44 45/45/45
f 46/46/46 47/47/47 48/48/48
f 49/49/49 50/50/50 51/51/51
f 52/52/52 53/53/53 54/54/54
f 55/55/55 56/56/56 57/57/57
f 58/58/58 59/59/59 60/60/60
f 61/61/61 62/62/62 63/63/63
f 64/64/64 65/65/65 66/66/66
f 67/67/67 68/68/68 69/69/69
f 70/70/70 71/71/71 72/72/72
f 73/73/73 74/74/74 75/75/75
f 76/76/76 77/77/77 78/78/78
f 79/79/79 80/80/80 81/81/81
f 82/82/82 83/83/83 84/84/84
f 85/85/85 86/86/86 87/87/87
f 88/88/88 89/89/89 90/90/90
f 91/91/91 92/92/92 93/93/93
f 94/94/94 95/95/95 96/96/96
f 97/97/97 98/98/98 99/99/99
f 100/100/100 101/101/101 102/102/102
f 103/103/103 104/104/104 105/105/105
f 106/106/106 107/107/107 108/108/108
f 109/109/109 110/110/110 111/111/111
f 112/112/112 113/113/113 114/114/114
f 115/115/115 116/116/116 117/117/117
f 118/118/118 119/119/119 120/120/120
f 121/121/121 122/122/122 123/123/123
f 124/124/124 125/125/125 126/126/126
f 127/127/127 128/128/128 129/129/129
f 130/130/130 131/131/131 132/132/132
f 133/133/133 134/134/134 135/135/135
f 136/136/136 137/137/137 138/138/138
f 139/139/139 140/140/140 141/141/141
f 142/142/142 143/143/143 144/144/144
f 145/145/145 146/146/146 147/147/147
f 148/148/148 149/149/149 150/150/150
f 151/151/151 152/152/152 153/153/153
f 154/154/154 155/155/155 156/156/156
f 157/157/157 158/158/158 159/159/159
f 160/160/160 161/161/161 162/162/162
f 163/163/163 164/164/164 165/165/165
f 166/166/166 167/167/167 168/168/168
f 169/169/169 170/170/170 171/171/171
f 172/172/172 173/173/173 174/174/174
f 175/175/175 176/176/176 177/177/177
f 178/178/178 179/179/179 180/180/180
usemtl Foliage
f 181/181/181 182/182/182 183/183/183
f 184/184/184 185/185/185 186/186/186
f 187/187/187 188/188/188 189/189/189
f 190/190/190 191/191/191 192/192/192
f 193/193/193 194/194/194 195/195/195
f 196/196/196 197/197/197 198/198/198
f 199/199/199 200/200/200 201/201/201
f 202/202/202 203/203/203 204/204/204
f 205/205/205 206/206/206 207/207/207
f 208/208/208 209/209/209 210/210/210
f 211/211/211 212/212/212 213/213/213
f 214/214/214 215/215/215 216/216/216
f 217/217/217 218/218/218 219/219/219
f 220/220/220 221/221/221 222/222/222
f 223/223/223 224/224/224 225/225/225
f 226/226/226 227/227/227 228/228/228
f 229/229/229 230/230/230 231/231/231
f 232/232/232 233/233/233 234/234/234
f 235/235/235 236/236/236 237/237/237
f 238/238/238 239/239/239 240/240/240
f 241/241/241 242/242/242 243/243/243
f 244/244/244 245/245/245 246/246/246
f 247/247/247 248/248/248 249/249/249
f 250/250/250 251/251/251 252/252/252
f 253/253/253 254/254/254 255/255/255
f 256/256/256 257/257/257 258/258/258
f 259/259/259 260/260/260 261/261/261
f 262/262/262 263/263/263 264/264/264
f 265/265/265 266/266/266 267/267/267
f 268/268/268 269/269/269 270/270/270
f 271/271/271 272/272/272 273/273/273
f 274/274/274 275/275/275 276/276/276
f 277/277/277 278/278/278 279/279/279
f 280/280/280 281/281/281 282/282/282
f 283/283/283 284/284/284 285/285/285
f 286/286/286 287/287/287 288/288/288
f 289/289/289 290/290/290 291/291/291
f 292/292/292 293/293/293 294/294/294
f 295/295/295 296/296/296 297/297/297
f 298/298/298 299/299/299 300/300/300
f 301/301/301 302/302/302 303/303/303
f 304/304/304 305/305/305 306/306/306
f 307/307/307 308/308/308 309/309/309
f 310/310/310 311/311/311 312/312/312
f 313/313/313 314/314/314 315/315/315
f 316/316/316 317/317/317 318/318/318
f 319/319/319 320/320/320 321/321/321
f 322/322/322 323/323/323 324/324/324
f 325/325/325 326/326/326 327/327/327
f 328/328/328 329/329/329 330/330/330
f 331/331/331 332/332/332 333/333/333
f 334/334/334 335/335/335 336/336/336
f 337/337/337 338/338/338 339/339/339
f 340/340/340 341/341/341 342/342/342
f 343/343/343 344/344/344 345/345/345
f 346/346/346 347/347/347 348/348/348
f 349/349/349 350/350/350 351/351/351
f 352/352/352 353/353/353 354/354/354
f 355/355/355 356/356/356 357/357/357
f 358/358/358 359/359/359 360/360/360
f 361/361/361 362/362/362 363/363/363
f 364/364/364 365/365/365 366/366/366
f 367/367/367 368/368/368 369/369/369
f 370/370/370 371/371/371 372/372/372
f 373/373/373 374/374/374 375/375/375
f 376/376/376 377/377/377 378/378/378
f 379/379/379 380/380/380 381/381/381
f 382/382/382 383/383/383 384/384/384
f 385/385/385 386/386/386 387/387/387
f 388/388/388 389/389/389 390/390/390
f 391/391/391 392/392/392 393/393/393
f 394/394/394 395/395/395 396/396/396
f 397/397/397 398/398/398 399/399/399
f 400/400/400 401/401/401 402/402/402
f 403/403/403 404/404/404 405/405/405
f 406/406/406 407/407/407 408/408/408
f 409/409/409 410/410/410 411/411/411
f 412/412/412 413/413/413 414/414/414
f 415/415/415 416/416/416 417/417/417
f 418/418/418 419/419/419 420/420/420
f 421/421/421 422/422/422 423/423/423
f 424/424/424 425/425/425 426/426/426
f 427/427/427 428/428/428 429/429/429
f 430/430/430 431/431/431 432/432/432
