# Metres, Y up, base pivot, trunk solid + flat foliage cards
mtllib TreeSalvia.mtl
o Abete_06_Salvia
s off
v 0.250000 0.000000 0.000000
v 0.196962 0.404389 0.009443
v 0.103212 0.404389 0.171823
vt 0.000000 0.000000
vt 0.000000 0.175000
vt 0.166667 0.175000
vn 0.861563 0.101384 0.497424
vn 0.861563 0.101384 0.497424
vn 0.861563 0.101384 0.497424
v 0.250000 0.000000 0.000000
v 0.103212 0.404389 0.171823
v 0.125000 0.000000 0.216506
vt 0.000000 0.000000
vt 0.166667 0.175000
vt 0.166667 0.000000
vn 0.861563 0.101384 0.497424
vn 0.861563 0.101384 0.497424
vn 0.861563 0.101384 0.497424
v 0.125000 0.000000 0.216506
v 0.103212 0.404389 0.171823
v -0.084288 0.404389 0.171823
vt 0.166667 0.000000
vt 0.166667 0.175000
vt 0.333333 0.175000
vn 0.000000 0.109828 0.993951
vn 0.000000 0.109828 0.993951
vn 0.000000 0.109828 0.993951
v 0.125000 0.000000 0.216506
v -0.084288 0.404389 0.171823
v -0.125000 0.000000 0.216506
vt 0.166667 0.000000
vt 0.333333 0.175000
vt 0.333333 0.000000
vn 0.000000 0.109828 0.993951
vn 0.000000 0.109828 0.993951
vn 0.000000 0.109828 0.993951
v -0.125000 0.000000 0.216506
v -0.084288 0.404389 0.171823
v -0.178038 0.404389 0.009443
vt 0.333333 0.000000
vt 0.333333 0.175000
vt 0.500000 0.175000
vn -0.857372 0.141012 0.495004
vn -0.857372 0.141012 0.495004
vn -0.857372 0.141012 0.495004
v -0.125000 0.000000 0.216506
v -0.178038 0.404389 0.009443
v -0.250000 0.000000 0.000000
vt 0.333333 0.000000
vt 0.500000 0.175000
vt 0.500000 0.000000
vn -0.857372 0.141012 0.495004
vn -0.857372 0.141012 0.495004
vn -0.857372 0.141012 0.495004
v -0.250000 0.000000 0.000000
v -0.178038 0.404389 0.009443
v -0.084288 0.404389 -0.152937
vt 0.500000 0.000000
vt 0.500000 0.175000
vt 0.666667 0.175000
vn -0.854364 0.163554 -0.493267
vn -0.854364 0.163554 -0.493267
vn -0.854364 0.163554 -0.493267
v -0.250000 0.000000 0.000000
v -0.084288 0.404389 -0.152937
v -0.125000 0.000000 -0.216506
vt 0.500000 0.000000
vt 0.666667 0.175000
vt 0.666667 0.000000
vn -0.854364 0.163554 -0.493267
vn -0.854364 0.163554 -0.493267
vn -0.854364 0.163554 -0.493267
v -0.125000 0.000000 -0.216506
v -0.084288 0.404389 -0.152937
v 0.103212 0.404389 -0.152937
vt 0.666667 0.000000
vt 0.666667 0.175000
vt 0.833333 0.175000
vn -0.000000 0.155292 -0.987869
vn -0.000000 0.155292 -0.987869
vn -0.000000 0.155292 -0.987869
v -0.125000 0.000000 -0.216506
v 0.103212 0.404389 -0.152937
v 0.125000 0.000000 -0.216506
vt 0.666667 0.000000
vt 0.833333 0.175000
vt 0.833333 0.000000
vn -0.000000 0.155292 -0.987869
vn -0.000000 0.155292 -0.987869
vn -0.000000 0.155292 -0.987869
v 0.125000 0.000000 -0.216506
v 0.103212 0.404389 -0.152937
v 0.196962 0.404389 0.009443
vt 0.833333 0.000000
vt 0.833333 0.175000
vt 1.000000 0.175000
vn 0.859310 0.124289 -0.496123
vn 0.859310 0.124289 -0.496123
vn 0.859310 0.124289 -0.496123
v 0.125000 0.000000 -0.216506
v 0.196962 0.404389 0.009443
v 0.250000 0.000000 0.000000
vt 0.833333 0.000000
vt 1.000000 0.175000
vt 1.000000 0.000000
vn 0.859310 0.124289 -0.496123
vn 0.859310 0.124289 -0.496123
vn 0.859310 0.124289 -0.496123
v 0.196962 0.404389 0.009443
v 0.214191 2.079717 -0.002479
v 0.147785 2.079717 0.112540
vt 0.000000 0.175000
vt 0.000000 0.900000
vt 0.166667 0.900000
vn 0.866013 -0.005348 0.499993
vn 0.866013 -0.005348 0.499993
vn 0.866013 -0.005348 0.499993
v 0.196962 0.404389 0.009443
v 0.147785 2.079717 0.112540
v 0.103212 0.404389 0.171823
vt 0.000000 0.175000
vt 0.166667 0.900000
vt 0.166667 0.175000
vn 0.866013 -0.005348 0.499993
vn 0.866013 -0.005348 0.499993
vn 0.866013 -0.005348 0.499993
v 0.103212 0.404389 0.171823
v 0.147785 2.079717 0.112540
v 0.014973 2.079717 0.112540
vt 0.166667 0.175000
vt 0.166667 0.900000
vt 0.333333 0.900000
vn 0.000000 0.035364 0.999375
vn 0.000000 0.035364 0.999375
vn 0.000000 0.035364 0.999375
v 0.103212 0.404389 0.171823
v 0.014973 2.079717 0.112540
v -0.084288 0.404389 0.171823
vt 0.166667 0.175000
vt 0.333333 0.900000
vt 0.333333 0.175000
vn 0.000000 0.035364 0.999375
vn 0.000000 0.035364 0.999375
vn 0.000000 0.035364 0.999375
v -0.084288 0.404389 0.171823
v 0.014973 2.079717 0.112540
v -0.051434 2.079717 -0.002479
vt 0.333333 0.175000
vt 0.333333 0.900000
vt 0.500000 0.900000
vn -0.863971 0.068840 0.498814
vn -0.863971 0.068840 0.498814
vn -0.863971 0.068840 0.498814
v -0.084288 0.404389 0.171823
v -0.051434 2.079717 -0.002479
v -0.178038 0.404389 0.009443
vt 0.333333 0.175000
vt 0.500000 0.900000
vt 0.500000 0.175000
vn -0.863971 0.068840 0.498814
vn -0.863971 0.068840 0.498814
vn -0.863971 0.068840 0.498814
v -0.178038 0.404389 0.009443
v -0.051434 2.079717 -0.002479
v 0.014973 2.079717 -0.117498
vt 0.500000 0.175000
vt 0.500000 0.900000
vt 0.666667 0.900000
vn -0.864372 0.061769 -0.499045
vn -0.864372 0.061769 -0.499045
vn -0.864372 0.061769 -0.499045
v -0.178038 0.404389 0.009443
v 0.014973 2.079717 -0.117498
v -0.084288 0.404389 -0.152937
vt 0.500000 0.175000
vt 0.666667 0.900000
vt 0.666667 0.175000
vn -0.864372 0.061769 -0.499045
vn -0.864372 0.061769 -0.499045
vn -0.864372 0.061769 -0.499045
v -0.084288 0.404389 -0.152937
v 0.014973 2.079717 -0.117498
v 0.147785 2.079717 -0.117498
vt 0.666667 0.175000
vt 0.666667 0.900000
vt 0.833333 0.900000
vn -0.000000 0.021149 -0.999776
vn -0.000000 0.021149 -0.999776
vn -0.000000 0.021149 -0.999776
v -0.084288 0.404389 -0.152937
v 0.147785 2.079717 -0.117498
v 0.103212 0.404389 -0.152937
vt 0.666667 0.175000
vt 0.833333 0.900000
vt 0.833333 0.175000
vn -0.000000 0.021149 -0.999776
vn -0.000000 0.021149 -0.999776
vn -0.000000 0.021149 -0.999776
v 0.103212 0.404389 -0.152937
v 0.147785 2.079717 -0.117498
v 0.214191 2.079717 -0.002479
vt 0.833333 0.175000
vt 0.833333 0.900000
vt 1.000000 0.900000
vn 0.865958 -0.012464 -0.499961
vn 0.865958 -0.012464 -0.499961
vn 0.865958 -0.012464 -0.499961
v 0.103212 0.404389 -0.152937
v 0.214191 2.079717 -0.002479
v 0.196962 0.404389 0.009443
vt 0.833333 0.175000
vt 1.000000 0.900000
vt 1.000000 0.175000
vn 0.865958 -0.012464 -0.499961
vn 0.865958 -0.012464 -0.499961
vn 0.865958 -0.012464 -0.499961
v 0.214191 2.079717 -0.002479
v 0.153356 4.274973 0.017322
v 0.114293 4.274973 0.084980
vt 0.000000 0.900000
vt 0.000000 1.850000
vt 0.166667 1.850000
vn 0.865861 0.019486 0.499905
vn 0.865861 0.019486 0.499905
vn 0.865861 0.019486 0.499905
v 0.214191 2.079717 -0.002479
v 0.114293 4.274973 0.084980
v 0.147785 2.079717 0.112540
vt 0.000000 0.900000
vt 0.166667 1.850000
vt 0.166667 0.900000
vn 0.865861 0.019486 0.499905
vn 0.865861 0.019486 0.499905
vn 0.865861 0.019486 0.499905
v 0.147785 2.079717 0.112540
v 0.114293 4.274973 0.084980
v 0.036168 4.274973 0.084980
vt 0.166667 0.900000
vt 0.166667 1.850000
vt 0.333333 1.850000
vn 0.000000 0.012553 0.999921
vn 0.000000 0.012553 0.999921
vn 0.000000 0.012553 0.999921
v 0.147785 2.079717 0.112540
v 0.036168 4.274973 0.084980
v 0.014973 2.079717 0.112540
vt 0.166667 0.900000
vt 0.333333 1.850000
vt 0.333333 0.900000
vn 0.000000 0.012553 0.999921
vn 0.000000 0.012553 0.999921
vn 0.000000 0.012553 0.999921
v 0.014973 2.079717 0.112540
v 0.036168 4.274973 0.084980
v -0.002894 4.274973 0.017322
vt 0.333333 0.900000
vt 0.333333 1.850000
vt 0.500000 1.850000
vn -0.865933 0.014637 0.499946
vn -0.865933 0.014637 0.499946
vn -0.865933 0.014637 0.499946
v 0.014973 2.079717 0.112540
v -0.002894 4.274973 0.017322
v -0.051434 2.079717 -0.002479
vt 0.333333 0.900000
vt 0.500000 1.850000
vt 0.500000 0.900000
vn -0.865933 0.014637 0.499946
vn -0.865933 0.014637 0.499946
vn -0.865933 0.014637 0.499946
v -0.051434 2.079717 -0.002479
v -0.002894 4.274973 0.017322
v 0.036168 4.274973 -0.050336
vt 0.500000 0.900000
vt 0.500000 1.850000
vt 0.666667 1.850000
vn -0.865783 0.023652 -0.499860
vn -0.865783 0.023652 -0.499860
vn -0.865783 0.023652 -0.499860
v -0.051434 2.079717 -0.002479
v 0.036168 4.274973 -0.050336
v 0.014973 2.079717 -0.117498
vt 0.500000 0.900000
vt 0.666667 1.850000
vt 0.666667 0.900000
vn -0.865783 0.023652 -0.499860
vn -0.865783 0.023652 -0.499860
vn -0.865783 0.023652 -0.499860
v 0.014973 2.079717 -0.117498
v 0.036168 4.274973 -0.050336
v 0.114293 4.274973 -0.050336
vt 0.666667 0.900000
vt 0.666667 1.850000
vt 0.833333 1.850000
vn -0.000000 0.030580 -0.999532
vn -0.000000 0.030580 -0.999532
vn -0.000000 0.030580 -0.999532
v 0.014973 2.079717 -0.117498
v 0.114293 4.274973 -0.050336
v 0.147785 2.079717 -0.117498
vt 0.666667 0.900000
vt 0.833333 1.850000
vt 0.833333 0.900000
vn -0.000000 0.030580 -0.999532
vn -0.000000 0.030580 -0.999532
vn -0.000000 0.030580 -0.999532
v 0.147785 2.079717 -0.117498
v 0.114293 4.274973 -0.050336
v 0.153356 4.274973 0.017322
vt 0.833333 0.900000
vt 0.833333 1.850000
vt 1.000000 1.850000
vn 0.865674 0.028498 -0.499797
vn 0.865674 0.028498 -0.499797
vn 0.865674 0.028498 -0.499797
v 0.147785 2.079717 -0.117498
v 0.153356 4.274973 0.017322
v 0.214191 2.079717 -0.002479
vt 0.833333 0.900000
vt 1.000000 1.850000
vt 1.000000 0.900000
vn 0.865674 0.028498 -0.499797
vn 0.865674 0.028498 -0.499797
vn 0.865674 0.028498 -0.499797
v 0.153356 4.274973 0.017322
v 0.237372 6.528000 0.013630
v 0.227607 6.528000 0.030544
vt 0.000000 1.850000
vt 0.000000 2.825000
vt 0.166667 2.825000
vn 0.865597 -0.031460 0.499753
vn 0.865597 -0.031460 0.499753
vn 0.865597 -0.031460 0.499753
v 0.153356 4.274973 0.017322
v 0.227607 6.528000 0.030544
v 0.114293 4.274973 0.084980
vt 0.000000 1.850000
vt 0.166667 2.825000
vt 0.166667 1.850000
vn 0.865597 -0.031460 0.499753
vn 0.865597 -0.031460 0.499753
vn 0.865597 -0.031460 0.499753
v 0.114293 4.274973 0.084980
v 0.227607 6.528000 0.030544
v 0.208076 6.528000 0.030544
vt 0.166667 1.850000
vt 0.166667 2.825000
vt 0.333333 2.825000
vn 0.000000 0.024154 0.999708
vn 0.000000 0.024154 0.999708
vn 0.000000 0.024154 0.999708
v 0.114293 4.274973 0.084980
v 0.208076 6.528000 0.030544
v 0.036168 4.274973 0.084980
vt 0.166667 1.850000
vt 0.333333 2.825000
vt 0.333333 1.850000
vn 0.000000 0.024154 0.999708
vn 0.000000 0.024154 0.999708
vn 0.000000 0.024154 0.999708
v 0.036168 4.274973 0.084980
v 0.208076 6.528000 0.030544
v 0.198310 6.528000 0.013630
vt 0.333333 1.850000
vt 0.333333 2.825000
vt 0.500000 2.825000
vn -0.863392 0.077921 0.498480
vn -0.863392 0.077921 0.498480
vn -0.863392 0.077921 0.498480
v 0.036168 4.274973 0.084980
v 0.198310 6.528000 0.013630
v -0.002894 4.274973 0.017322
vt 0.333333 1.850000
vt 0.500000 2.825000
vt 0.500000 1.850000
vn -0.863392 0.077921 0.498480
vn -0.863392 0.077921 0.498480
vn -0.863392 0.077921 0.498480
v -0.002894 4.274973 0.017322
v 0.198310 6.528000 0.013630
v 0.208076 6.528000 -0.003285
vt 0.500000 1.850000
vt 0.500000 2.825000
vt 0.666667 2.825000
vn -0.863501 0.076297 -0.498543
vn -0.863501 0.076297 -0.498543
vn -0.863501 0.076297 -0.498543
v -0.002894 4.274973 0.017322
v 0.208076 6.528000 -0.003285
v 0.036168 4.274973 -0.050336
vt 0.500000 1.850000
vt 0.666667 2.825000
vt 0.666667 1.850000
vn -0.863501 0.076297 -0.498543
vn -0.863501 0.076297 -0.498543
vn -0.863501 0.076297 -0.498543
v 0.036168 4.274973 -0.050336
v 0.208076 6.528000 -0.003285
v 0.227607 6.528000 -0.003285
vt 0.666667 1.850000
vt 0.666667 2.825000
vt 0.833333 2.825000
vn -0.000000 0.020879 -0.999782
vn -0.000000 0.020879 -0.999782
vn -0.000000 0.020879 -0.999782
v 0.036168 4.274973 -0.050336
v 0.227607 6.528000 -0.003285
v 0.114293 4.274973 -0.050336
vt 0.666667 1.850000
vt 0.833333 2.825000
vt 0.833333 1.850000
vn -0.000000 0.020879 -0.999782
vn -0.000000 0.020879 -0.999782
vn -0.000000 0.020879 -0.999782
v 0.114293 4.274973 -0.050336
v 0.227607 6.528000 -0.003285
v 0.237372 6.528000 0.013630
vt 0.833333 1.850000
vt 0.833333 2.825000
vt 1.000000 2.825000
vn 0.865551 -0.033096 -0.499726
vn 0.865551 -0.033096 -0.499726
vn 0.865551 -0.033096 -0.499726
v 0.114293 4.274973 -0.050336
v 0.237372 6.528000 0.013630
v 0.153356 4.274973 0.017322
vt 0.833333 1.850000
vt 1.000000 2.825000
vt 1.000000 1.850000
vn 0.865551 -0.033096 -0.499726
vn 0.865551 -0.033096 -0.499726
vn 0.865551 -0.033096 -0.499726
v 0.000000 0.000000 0.000000
v 0.250000 0.000000 0.000000
v 0.125000 0.000000 0.216506
vt 0.500000 0.500000
vt 0.820000 0.500000
vt 0.660000 0.777128
vn 0.000000 -1.000000 0.000000
vn 0.000000 -1.000000 0.000000
vn 0.000000 -1.000000 0.000000
v 0.000000 0.000000 0.000000
v 0.125000 0.000000 0.216506
v -0.125000 0.000000 0.216506
vt 0.500000 0.500000
vt 0.660000 0.777128
vt 0.340000 0.777128
vn 0.000000 -1.000000 0.000000
vn 0.000000 -1.000000 0.000000
vn 0.000000 -1.000000 0.000000
v 0.000000 0.000000 0.000000
v -0.125000 0.000000 0.216506
v -0.250000 0.000000 0.000000
vt 0.500000 0.500000
vt 0.340000 0.777128
vt 0.180000 0.500000
vn 0.000000 -1.000000 0.000000
vn 0.000000 -1.000000 0.000000
vn 0.000000 -1.000000 0.000000
v 0.000000 0.000000 0.000000
v -0.250000 0.000000 0.000000
v -0.125000 0.000000 -0.216506
vt 0.500000 0.500000
vt 0.180000 0.500000
vt 0.340000 0.222872
vn -0.000000 -1.000000 0.000000
vn -0.000000 -1.000000 0.000000
vn -0.000000 -1.000000 0.000000
v 0.000000 0.000000 0.000000
v -0.125000 0.000000 -0.216506
v 0.125000 0.000000 -0.216506
vt 0.500000 0.500000
vt 0.340000 0.222872
vt 0.660000 0.222872
vn 0.000000 -1.000000 -0.000000
vn 0.000000 -1.000000 -0.000000
vn 0.000000 -1.000000 -0.000000
v 0.000000 0.000000 0.000000
v 0.125000 0.000000 -0.216506
v 0.250000 0.000000 0.000000
vt 0.500000 0.500000
vt 0.660000 0.222872
vt 0.820000 0.500000
vn 0.000000 -1.000000 0.000000
vn 0.000000 -1.000000 0.000000
vn 0.000000 -1.000000 0.000000
v 0.217841 6.528000 0.013630
v 0.227607 6.528000 0.030544
v 0.237372 6.528000 0.013630
vt 0.540000 0.510000
vt 0.552500 0.531651
vt 0.565000 0.510000
vn 0.000000 1.000000 0.000000
vn 0.000000 1.000000 0.000000
vn 0.000000 1.000000 0.000000
v 0.217841 6.528000 0.013630
v 0.208076 6.528000 0.030544
v 0.227607 6.528000 0.030544
vt 0.540000 0.510000
vt 0.527500 0.531651
vt 0.552500 0.531651
vn 0.000000 1.000000 0.000000
vn 0.000000 1.000000 0.000000
vn 0.000000 1.000000 0.000000
v 0.217841 6.528000 0.013630
v 0.198310 6.528000 0.013630
v 0.208076 6.528000 0.030544
vt 0.540000 0.510000
vt 0.515000 0.510000
vt 0.527500 0.531651
vn -0.000000 1.000000 0.000000
vn -0.000000 1.000000 0.000000
vn -0.000000 1.000000 0.000000
v 0.217841 6.528000 0.013630
v 0.208076 6.528000 -0.003285
v 0.198310 6.528000 0.013630
vt 0.540000 0.510000
vt 0.527500 0.488349
vt 0.515000 0.510000
vn -0.000000 1.000000 -0.000000
vn -0.000000 1.000000 -0.000000
vn -0.000000 1.000000 -0.000000
v 0.217841 6.528000 0.013630
v 0.227607 6.528000 -0.003285
v 0.208076 6.528000 -0.003285
vt 0.540000 0.510000
vt 0.552500 0.488349
vt 0.527500 0.488349
vn -0.000000 1.000000 -0.000000
vn -0.000000 1.000000 -0.000000
vn -0.000000 1.000000 -0.000000
v 0.217841 6.528000 0.013630
v 0.237372 6.528000 0.013630
v 0.227607 6.528000 -0.003285
vt 0.540000 0.510000
vt 0.565000 0.510000
vt 0.552500 0.488349
vn 0.000000 1.000000 -0.000000
vn 0.000000 1.000000 -0.000000
vn 0.000000 1.000000 -0.000000
v 1.794347 1.489426 -1.234637
v 1.794347 1.489426 1.279011
v 0.039173 2.434441 1.279011
vt 0.000000 0.000000
vt 1.000000 0.000000
vt 1.000000 1.000000
vn -0.474069 -0.880488 0.000000
vn -0.474069 -0.880488 0.000000
vn -0.474069 -0.880488 0.000000
v 1.794347 1.489426 -1.234637
v 0.039173 2.434441 1.279011
v 0.039173 2.434441 -1.234637
vt 0.000000 0.000000
vt 1.000000 1.000000
vt 0.000000 1.000000
vn -0.474069 -0.880488 0.000000
vn -0.474069 -0.880488 0.000000
vn -0.474069 -0.880488 0.000000
v 1.779766 1.489426 0.826897
v -0.156725 1.489426 1.944930
v -0.936573 2.434441 0.594195
vt 0.000000 0.000000
vt 1.000000 0.000000
vt 1.000000 1.000000
vn -0.259100 -0.855260 -0.448774
vn -0.259100 -0.855260 -0.448774
vn -0.259100 -0.855260 -0.448774
v 1.779766 1.489426 0.826897
v -0.936573 2.434441 0.594195
v 0.999918 2.434441 -0.523839
vt 0.000000 0.000000
vt 1.000000 1.000000
vt 0.000000 1.000000
vn -0.259100 -0.855260 -0.448774
vn -0.259100 -0.855260 -0.448774
vn -0.259100 -0.855260 -0.448774
v -1.448208 1.489426 1.067578
v -1.448208 1.489426 -1.023203
v 0.009173 2.434441 -1.023203
vt 0.000000 0.000000
vt 1.000000 0.000000
vt 1.000000 1.000000
vn 0.544064 -0.839044 -0.000000
vn 0.544064 -0.839044 -0.000000
vn 0.544064 -0.839044 -0.000000
v -1.448208 1.489426 1.067578
v 0.009173 2.434441 -1.023203
v 0.009173 2.434441 1.067578
vt 0.000000 0.000000
vt 1.000000 1.000000
vt 0.000000 1.000000
vn 0.544064 -0.839044 -0.000000
vn 0.544064 -0.839044 -0.000000
vn 0.544064 -0.839044 -0.000000
v -1.489647 1.489426 -0.671701
v 0.180158 1.489426 -1.635764
v 0.851576 2.434441 -0.472834
vt 0.000000 0.000000
vt 1.000000 0.000000
vt 1.000000 1.000000
vn 0.287758 -0.817790 0.498412
vn 0.287758 -0.817790 0.498412
vn 0.287758 -0.817790 0.498412
v -1.489647 1.489426 -0.671701
v 0.851576 2.434441 -0.472834
v -0.818230 2.434441 0.491228
vt 0.000000 0.000000
vt 1.000000 1.000000
vt 0.000000 1.000000
vn 0.287758 -0.817790 0.498412
vn 0.287758 -0.817790 0.498412
vn 0.287758 -0.817790 0.498412
v -0.175976 1.489426 -2.105167
v 1.966590 1.489426 -0.868156
v 1.102956 2.434441 0.627702
vt 0.000000 0.000000
vt 1.000000 0.000000
vt 1.000000 1.000000
vn -0.239987 -0.877282 0.415670
vn -0.239987 -0.877282 0.415670
vn -0.239987 -0.877282 0.415670
v -0.175976 1.489426 -2.105167
v 1.102956 2.434441 0.627702
v -1.039610 2.434441 -0.609308
vt 0.000000 0.000000
vt 1.000000 1.000000
vt 0.000000 1.000000
vn -0.239987 -0.877282 0.415670
vn -0.239987 -0.877282 0.415670
vn -0.239987 -0.877282 0.415670
v 1.319813 2.362538 -0.260977
v 0.718660 2.362538 1.122157
v -0.241622 3.307553 0.704789
vt 0.000000 0.000000
vt 1.000000 0.000000
vt 1.000000 1.000000
vn -0.614476 -0.742356 -0.267071
vn -0.614476 -0.742356 -0.267071
vn -0.614476 -0.742356 -0.267071
v 1.319813 2.362538 -0.260977
v -0.241622 3.307553 0.704789
v 0.359531 3.307553 -0.678346
vt 0.000000 0.000000
vt 1.000000 1.000000
vt 0.000000 1.000000
vn -0.614476 -0.742356 -0.267071
vn -0.614476 -0.742356 -0.267071
vn -0.614476 -0.742356 -0.267071
v 0.994746 2.362538 1.066145
v -0.641433 2.362538 1.252816
v -0.771191 3.307553 0.115482
vt 0.000000 0.000000
vt 1.000000 0.000000
vt 1.000000 1.000000
vn -0.072165 -0.771166 -0.632531
vn -0.072165 -0.771166 -0.632531
vn -0.072165 -0.771166 -0.632531
v 0.994746 2.362538 1.066145
v -0.771191 3.307553 0.115482
v 0.864987 3.307553 -0.071190
vt 0.000000 0.000000
vt 1.000000 1.000000
vt 0.000000 1.000000
vn -0.072165 -0.771166 -0.632531
vn -0.072165 -0.771166 -0.632531
vn -0.072165 -0.771166 -0.632531
v -0.394438 2.362538 1.350998
v -1.368371 2.362538 0.035223
v -0.453825 3.307553 -0.641721
vt 0.000000 0.000000
vt 1.000000 0.000000
vt 1.000000 1.000000
vn 0.513540 -0.769275 -0.380121
vn 0.513540 -0.769275 -0.380121
vn 0.513540 -0.769275 -0.380121
v -0.394438 2.362538 1.350998
v -0.453825 3.307553 -0.641721
v 0.520108 3.307553 0.674054
vt 0.000000 0.000000
vt 1.000000 1.000000
vt 0.000000 1.000000
vn 0.513540 -0.769275 -0.380121
vn 0.513540 -0.769275 -0.380121
vn 0.513540 -0.769275 -0.380121
v -1.591614 2.362538 0.351680
v -0.819636 2.362538 -1.424488
v 0.417430 3.307553 -0.886821
vt 0.000000 0.000000
vt 1.000000 0.000000
vt 1.000000 1.000000
vn 0.526239 -0.818999 0.228720
vn 0.526239 -0.818999 0.228720
vn 0.526239 -0.818999 0.228720
v -1.591614 2.362538 0.351680
v 0.417430 3.307553 -0.886821
v -0.354548 3.307553 0.889347
vt 0.000000 0.000000
vt 1.000000 1.000000
vt 0.000000 1.000000
vn 0.526239 -0.818999 0.228720
vn 0.526239 -0.818999 0.228720
vn 0.526239 -0.818999 0.228720
v -1.028839 2.362538 -1.190485
v 0.821847 2.362538 -1.401630
v 0.968840 3.307553 -0.113233
vt 0.000000 0.000000
vt 1.000000 0.000000
vt 1.000000 1.000000
vn 0.066761 -0.808166 0.585158
vn 0.066761 -0.808166 0.585158
vn 0.066761 -0.808166 0.585158
v -1.028839 2.362538 -1.190485
v 0.968840 3.307553 -0.113233
v -0.881846 3.307553 0.097911
vt 0.000000 0.000000
vt 1.000000 1.000000
vt 0.000000 1.000000
vn 0.066761 -0.808166 0.585158
vn 0.066761 -0.808166 0.585158
vn 0.066761 -0.808166 0.585158
v 0.497424 2.362538 -1.374995
v 1.499248 2.362538 -0.021539
v 0.558166 3.307553 0.675046
vt 0.000000 0.000000
vt 1.000000 0.000000
vt 1.000000 1.000000
vn -0.504822 -0.778157 0.373667
vn -0.504822 -0.778157 0.373667
vn -0.504822 -0.778157 0.373667
v 0.497424 2.362538 -1.374995
v 0.558166 3.307553 0.675046
v -0.443658 3.307553 -0.678410
vt 0.000000 0.000000
vt 1.000000 1.000000
vt 0.000000 1.000000
vn -0.504822 -0.778157 0.373667
vn -0.504822 -0.778157 0.373667
vn -0.504822 -0.778157 0.373667
v 1.499689 3.235650 0.280519
v 0.265270 3.235650 1.432336
v -0.535636 4.180665 0.573994
vt 0.000000 0.000000
vt 1.000000 0.000000
vt 1.000000 1.000000
vn -0.427790 -0.778975 -0.458469
vn -0.427790 -0.778975 -0.458469
vn -0.427790 -0.778975 -0.458469
v 1.499689 3.235650 0.280519
v -0.535636 4.180665 0.573994
v 0.698783 4.180665 -0.577823
vt 0.000000 0.000000
vt 1.000000 1.000000
vt 0.000000 1.000000
vn -0.427790 -0.778975 -0.458469
vn -0.427790 -0.778975 -0.458469
vn -0.427790 -0.778975 -0.458469
v 0.543806 3.235650 1.408049
v -1.114369 3.235650 0.901646
v -0.762129 4.180665 -0.251737
vt 0.000000 0.000000
vt 1.000000 0.000000
vt 1.000000 1.000000
vn 0.180155 -0.787121 -0.589902
vn 0.180155 -0.787121 -0.589902
vn 0.180155 -0.787121 -0.589902
v 0.543806 3.235650 1.408049
v -0.762129 4.180665 -0.251737
v 0.896046 4.180665 0.254665
vt 0.000000 0.000000
vt 1.000000 1.000000
vt 0.000000 1.000000
vn 0.180155 -0.787121 -0.589902
vn 0.180155 -0.787121 -0.589902
vn 0.180155 -0.787121 -0.589902
v -1.497063 3.235650 -0.335051
v -0.141605 3.235650 -1.599808
v 0.738835 4.180665 -0.656227
vt 0.000000 0.000000
vt 1.000000 0.000000
vt 1.000000 1.000000
vn 0.403056 -0.806819 0.431960
vn 0.403056 -0.806819 0.431960
vn 0.403056 -0.806819 0.431960
v -1.497063 3.235650 -0.335051
v 0.738835 4.180665 -0.656227
v -0.616622 4.180665 0.608530
vt 0.000000 0.000000
vt 1.000000 1.000000
vt 0.000000 1.000000
vn 0.403056 -0.806819 0.431960
vn 0.403056 -0.806819 0.431960
vn 0.403056 -0.806819 0.431960
v -0.449145 3.235650 -1.578228
v 1.377559 3.235650 -1.020357
v 0.989073 4.180665 0.251708
vt 0.000000 0.000000
vt 1.000000 0.000000
vt 1.000000 1.000000
vn -0.169171 -0.815189 0.553938
vn -0.169171 -0.815189 0.553938
vn -0.169171 -0.815189 0.553938
v -0.449145 3.235650 -1.578228
v 0.989073 4.180665 0.251708
v -0.837631 4.180665 -0.306163
vt 0.000000 0.000000
vt 1.000000 1.000000
vt 0.000000 1.000000
vn -0.169171 -0.815189 0.553938
vn -0.169171 -0.815189 0.553938
vn -0.169171 -0.815189 0.553938
v 0.980064 3.235650 -1.036122
v 1.336972 3.235650 0.507671
v 0.264409 4.180665 0.755636
vt 0.000000 0.000000
vt 1.000000 0.000000
vt 1.000000 1.000000
vn -0.634619 -0.758771 0.146717
vn -0.634619 -0.758771 0.146717
vn -0.634619 -0.758771 0.146717
v 0.980064 3.235650 -1.036122
v 0.264409 4.180665 0.755636
v -0.092499 4.180665 -0.788157
vt 0.000000 0.000000
vt 1.000000 1.000000
vt 0.000000 1.000000
vn -0.634619 -0.758771 0.146717
vn -0.634619 -0.758771 0.146717
vn -0.634619 -0.758771 0.146717
v 0.994362 4.108761 0.603208
v -0.195601 4.108761 1.025208
v -0.487770 5.053776 0.201343
vt 0.000000 0.000000
vt 1.000000 0.000000
vt 1.000000 1.000000
vn -0.245364 -0.679041 -0.691881
vn -0.245364 -0.679041 -0.691881
vn -0.245364 -0.679041 -0.691881
v 0.994362 4.108761 0.603208
v -0.487770 5.053776 0.201343
v 0.702193 5.053776 -0.220657
vt 0.000000 0.000000
vt 1.000000 1.000000
vt 0.000000 1.000000
vn -0.245364 -0.679041 -0.691881
vn -0.245364 -0.679041 -0.691881
vn -0.245364 -0.679041 -0.691881
v 0.013593 4.108761 0.969191
v -0.864479 4.108761 0.219941
v -0.346575 5.053776 -0.387008
vt 0.000000 0.000000
vt 1.000000 0.000000
vt 1.000000 1.000000
vn 0.495966 -0.645118 -0.581240
vn 0.495966 -0.645118 -0.581240
vn 0.495966 -0.645118 -0.581240
v 0.013593 4.108761 0.969191
v -0.346575 5.053776 -0.387008
v 0.531497 5.053776 0.362241
vt 0.000000 0.000000
vt 1.000000 1.000000
vt 0.000000 1.000000
vn 0.495966 -0.645118 -0.581240
vn 0.495966 -0.645118 -0.581240
vn 0.495966 -0.645118 -0.581240
v -1.016709 4.108761 0.495608
v -0.757064 4.108761 -0.908892
v 0.217270 5.053776 -0.728771
vt 0.000000 0.000000
vt 1.000000 0.000000
vt 1.000000 1.000000
vn 0.678674 -0.723644 0.125464
vn 0.678674 -0.723644 0.125464
vn 0.678674 -0.723644 0.125464
v -1.016709 4.108761 0.495608
v 0.217270 5.053776 -0.728771
v -0.042375 5.053776 0.675729
vt 0.000000 0.000000
vt 1.000000 1.000000
vt 0.000000 1.000000
vn 0.678674 -0.723644 0.125464
vn 0.678674 -0.723644 0.125464
vn 0.678674 -0.723644 0.125464
v -0.705762 4.108761 -0.591617
v 0.371889 4.108761 -0.973788
v 0.636009 5.053776 -0.229017
vt 0.000000 0.000000
vt 1.000000 0.000000
vt 1.000000 1.000000
vn 0.256407 -0.641479 0.723021
vn 0.256407 -0.641479 0.723021
vn 0.256407 -0.641479 0.723021
v -0.705762 4.108761 -0.591617
v 0.636009 5.053776 -0.229017
v -0.441641 5.053776 0.153154
vt 0.000000 0.000000
vt 1.000000 1.000000
vt 0.000000 1.000000
vn 0.256407 -0.641479 0.723021
vn 0.256407 -0.641479 0.723021
vn 0.256407 -0.641479 0.723021
v 0.186103 4.108761 -0.964111
v 1.017602 4.108761 -0.254602
v 0.527683 5.053776 0.319550
vt 0.000000 0.000000
vt 1.000000 0.000000
vt 1.000000 1.000000
vn -0.507189 -0.624066 0.594391
vn -0.507189 -0.624066 0.594391
vn -0.507189 -0.624066 0.594391
v 0.186103 4.108761 -0.964111
v 0.527683 5.053776 0.319550
v -0.303815 5.053776 -0.389960
vt 0.000000 0.000000
vt 1.000000 1.000000
vt 0.000000 1.000000
vn -0.507189 -0.624066 0.594391
vn -0.507189 -0.624066 0.594391
vn -0.507189 -0.624066 0.594391
v 0.962014 4.108761 -0.422925
v 0.762492 4.108761 0.656354
v 0.017187 5.053776 0.518572
vt 0.000000 0.000000
vt 1.000000 0.000000
vt 1.000000 1.000000
vn -0.767096 -0.625662 -0.141810
vn -0.767096 -0.625662 -0.141810
vn -0.767096 -0.625662 -0.141810
v 0.962014 4.108761 -0.422925
v 0.017187 5.053776 0.518572
v 0.216709 5.053776 -0.560707
vt 0.000000 0.000000
vt 1.000000 1.000000
vt 0.000000 1.000000
vn -0.767096 -0.625662 -0.141810
vn -0.767096 -0.625662 -0.141810
vn -0.767096 -0.625662 -0.141810
v 0.644137 4.981873 0.812035
v -0.478810 4.981873 0.734198
v -0.425033 5.926888 -0.041645
vt 0.000000 0.000000
vt 1.000000 0.000000
vt 1.000000 1.000000
vn 0.053393 -0.635443 -0.770300
vn 0.053393 -0.635443 -0.770300
vn 0.053393 -0.635443 -0.770300
v 0.644137 4.981873 0.812035
v -0.425033 5.926888 -0.041645
v 0.697914 5.926888 0.036191
vt 0.000000 0.000000
vt 1.000000 1.000000
vt 0.000000 1.000000
vn 0.053393 -0.635443 -0.770300
vn 0.053393 -0.635443 -0.770300
vn 0.053393 -0.635443 -0.770300
v -0.359698 4.981873 0.894560
v -0.887685 4.981873 -0.186300
v -0.139993 5.926888 -0.551537
vt 0.000000 0.000000
vt 1.000000 0.000000
vt 1.000000 1.000000
vn 0.674353 -0.660859 -0.329413
vn 0.674353 -0.660859 -0.329413
vn 0.674353 -0.660859 -0.329413
v -0.359698 4.981873 0.894560
v -0.139993 5.926888 -0.551537
v 0.387993 5.926888 0.529323
vt 0.000000 0.000000
vt 1.000000 1.000000
vt 0.000000 1.000000
vn 0.674353 -0.660859 -0.329413
vn 0.674353 -0.660859 -0.329413
vn 0.674353 -0.660859 -0.329413
v -0.758991 4.981873 0.004370
v -0.178914 4.981873 -0.856761
v 0.415075 5.926888 -0.456637
vt 0.000000 0.000000
vt 1.000000 0.000000
vt 1.000000 1.000000
vn 0.661001 -0.604000 0.445265
vn 0.661001 -0.604000 0.445265
vn 0.661001 -0.604000 0.445265
v -0.758991 4.981873 0.004370
v 0.415075 5.926888 -0.456637
v -0.165002 5.926888 0.404494
vt 0.000000 0.000000
vt 1.000000 1.000000
vt 0.000000 1.000000
vn 0.661001 -0.604000 0.445265
vn 0.661001 -0.604000 0.445265
vn 0.661001 -0.604000 0.445265
v -0.468749 4.981873 -1.010472
v 0.874877 4.981873 -0.917340
v 0.810328 5.926888 0.013911
vt 0.000000 0.000000
vt 1.000000 0.000000
vt 1.000000 1.000000
vn -0.049195 -0.702754 0.709730
vn -0.049195 -0.702754 0.709730
vn -0.049195 -0.702754 0.709730
v -0.468749 4.981873 -1.010472
v 0.810328 5.926888 0.013911
v -0.533298 5.926888 -0.079221
vt 0.000000 0.000000
vt 1.000000 1.000000
vt 0.000000 1.000000
vn -0.049195 -0.702754 0.709730
vn -0.049195 -0.702754 0.709730
vn -0.049195 -0.702754 0.709730
v 0.729499 4.981873 -1.103971
v 1.358209 4.981873 0.183083
v 0.465310 5.926888 0.619252
vt 0.000000 0.000000
vt 1.000000 0.000000
vt 1.000000 1.000000
vn -0.619192 -0.724648 0.302468
vn -0.619192 -0.724648 0.302468
vn -0.619192 -0.724648 0.302468
v 0.729499 4.981873 -1.103971
v 0.465310 5.926888 0.619252
v -0.163399 5.926888 -0.667802
vt 0.000000 0.000000
vt 1.000000 1.000000
vt 0.000000 1.000000
vn -0.619192 -0.724648 0.302468
vn -0.619192 -0.724648 0.302468
vn -0.619192 -0.724648 0.302468
v 1.054767 4.981873 -0.040264
v 0.461218 4.981873 0.840867
v -0.146856 5.926888 0.431255
vt 0.000000 0.000000
vt 1.000000 0.000000
vt 1.000000 1.000000
vn -0.655291 -0.612980 -0.441418
vn -0.655291 -0.612980 -0.441418
vn -0.655291 -0.612980 -0.441418
v 1.054767 4.981873 -0.040264
v -0.146856 5.926888 0.431255
v 0.446693 5.926888 -0.449876
vt 0.000000 0.000000
vt 1.000000 1.000000
vt 0.000000 1.000000
vn -0.655291 -0.612980 -0.441418
vn -0.655291 -0.612980 -0.441418
vn -0.655291 -0.612980 -0.441418
v 0.241374 5.854985 0.464225
v -0.239072 5.854985 0.214585
v -0.070186 6.800000 -0.110446
vt 0.000000 0.000000
vt 1.000000 0.000000
vt 1.000000 1.000000
vn 0.429909 -0.361404 -0.827385
vn 0.429909 -0.361404 -0.827385
vn 0.429909 -0.361404 -0.827385
v 0.241374 5.854985 0.464225
v -0.070186 6.800000 -0.110446
v 0.410260 6.800000 0.139193
vt 0.000000 0.000000
vt 1.000000 1.000000
vt 0.000000 1.000000
vn 0.429909 -0.361404 -0.827385
vn 0.429909 -0.361404 -0.827385
vn 0.429909 -0.361404 -0.827385
v -0.255940 5.854985 0.338285
v -0.284138 5.854985 -0.296444
v 0.147869 6.800000 -0.315636
vt 0.000000 0.000000
vt 1.000000 0.000000
vt 1.000000 1.000000
vn 0.908423 -0.416099 -0.040356
vn 0.908423 -0.416099 -0.040356
vn 0.908423 -0.416099 -0.040356
v -0.255940 5.854985 0.338285
v 0.147869 6.800000 -0.315636
v 0.176067 6.800000 0.319093
vt 0.000000 0.000000
vt 1.000000 1.000000
vt 0.000000 1.000000
vn 0.908423 -0.416099 -0.040356
vn 0.908423 -0.416099 -0.040356
vn 0.908423 -0.416099 -0.040356
v -0.277569 5.854985 -0.183329
v 0.201180 5.854985 -0.488839
v 0.408258 6.800000 -0.164336
vt 0.000000 0.000000
vt 1.000000 0.000000
vt 1.000000 1.000000
vn 0.498195 -0.377246 0.780697
vn 0.498195 -0.377246 0.780697
vn 0.498195 -0.377246 0.780697
v -0.277569 5.854985 -0.183329
v 0.408258 6.800000 -0.164336
v -0.070490 6.800000 0.141173
vt 0.000000 0.000000
vt 1.000000 1.000000
vt 0.000000 1.000000
vn 0.498195 -0.377246 0.780697
vn 0.498195 -0.377246 0.780697
vn 0.498195 -0.377246 0.780697
v 0.105281 5.854985 -0.514235
v 0.639809 5.854985 -0.236495
v 0.451133 6.800000 0.126623
vt 0.000000 0.000000
vt 1.000000 0.000000
vt 1.000000 1.000000
vn -0.423108 -0.397365 0.814298
vn -0.423108 -0.397365 0.814298
vn -0.423108 -0.397365 0.814298
v 0.105281 5.854985 -0.514235
v 0.451133 6.800000 0.126623
v -0.083394 6.800000 -0.151117
vt 0.000000 0.000000
vt 1.000000 1.000000
vt 0.000000 1.000000
vn -0.423108 -0.397365 0.814298
vn -0.423108 -0.397365 0.814298
vn -0.423108 -0.397365 0.814298
v 0.535111 5.854985 -0.277940
v 0.558440 5.854985 0.247208
v 0.203603 6.800000 0.262971
vt 0.000000 0.000000
vt 1.000000 0.000000
vt 1.000000 1.000000
vn -0.935144 -0.351824 0.041543
vn -0.935144 -0.351824 0.041543
vn -0.935144 -0.351824 0.041543
v 0.535111 5.854985 -0.277940
v 0.203603 6.800000 0.262971
v 0.180274 6.800000 -0.262177
vt 0.000000 0.000000
vt 1.000000 1.000000
vt 0.000000 1.000000
vn -0.935144 -0.351824 0.041543
vn -0.935144 -0.351824 0.041543
vn -0.935144 -0.351824 0.041543
v 0.684944 5.854985 0.207146
v 0.149877 5.854985 0.548595
v -0.082511 6.800000 0.184432
vt 0.000000 0.000000
vt 1.000000 0.000000
vt 1.000000 1.000000
vn -0.489247 -0.415749 -0.766674
vn -0.489247 -0.415749 -0.766674
vn -0.489247 -0.415749 -0.766674
v 0.684944 5.854985 0.207146
v -0.082511 6.800000 0.184432
v 0.452556 6.800000 -0.157017
vt 0.000000 0.000000
vt 1.000000 1.000000
vt 0.000000 1.000000
vn -0.489247 -0.415749 -0.766674
vn -0.489247 -0.415749 -0.766674
vn -0.489247 -0.415749 -0.766674
usemtl Bark
f 1/1/1 2/2/2 3/3/3
f 4/4/4 5/5/5 6/6/6
f 7/7/7 8/8/8 9/9/9
f 10/10/10 11/11/11 12/12/12
f 13/13/13 14/14/14 15/15/15
f 16/16/16 17/17/17 18/18/18
f 19/19/19 20/20/20 21/21/21
f 22/22/22 23/23/23 24/24/24
f 25/25/25 26/26/26 27/27/27
f 28/28/28 29/29/29 30/30/30
f 31/31/31 32/32/32 33/33/33
f 34/34/34 35/35/35 36/36/36
f 37/37/37 38/38/38 39/39/39
f 40/40/40 41/41/41 42/42/42
f 43/43/43 44/44/44 45/45/45
f 46/46/46 47/47/47 48/48/48
f 49/49/49 50/50/50 51/51/51
f 52/52/52 53/53/53 54/54/54
f 55/55/55 56/56/56 57/57/57
f 58/58/58 59/59/59 60/60/60
f 61/61/61 62/62/62 63/63/63
f 64/64/64 65/65/65 66/66/66
f 67/67/67 68/68/68 69/69/69
f 70/70/70 71/71/71 72/72/72
f 73/73/73 74/74/74 75/75/75
f 76/76/76 77/77/77 78/78/78
f 79/79/79 80/80/80 81/81/81
f 82/82/82 83/83/83 84/84/84
f 85/85/85 86/86/86 87/87/87
f 88/88/88 89/89/89 90/90/90
f 91/91/91 92/92/92 93/93/93
f 94/94/94 95/95/95 96/96/96
f 97/97/97 98/98/98 99/99/99
f 100/100/100 101/101/101 102/102/102
f 103/103/103 104/104/104 105/105/105
f 106/106/106 107/107/107 108/108/108
f 109/109/109 110/110/110 111/111/111
f 112/112/112 113/113/113 114/114/114
f 115/115/115 116/116/116 117/117/117
f 118/118/118 119/119/119 120/120/120
f 121/121/121 122/122/122 123/123/123
f 124/124/124 125/125/125 126/126/126
f 127/127/127 128/128/128 129/129/129
f 130/130/130 131/131/131 132/132/132
f 133/133/133 134/134/134 135/135/135
f 136/136/136 137/137/137 138/138/138
f 139/139/139 140/140/140 141/141/141
f 142/142/142 143/143/143 144/144/144
f 145/145/145 146/146/146 147/147/147
f 148/148/148 149/149/149 150/150/150
f 151/151/151 152/152/152 153/153/153
f 154/154/154 155/155/155 156/156/156
f 157/157/157 158/158/158 159/159/159
f 160/160/160 161/161/161 162/162/162
f 163/163/163 164/164/164 165/165/165
f 166/166/166 167/167/167 168/168/168
f 169/169/169 170/170/170 171/171/171
f 172/172/172 173/173/173 174/174/174
f 175/175/175 176/176/176 177/177/177
f 178/178/178 179/179/179 180/180/180
usemtl FoliageSalvia
f 181/181/181 182/182/182 183/183/183
f 184/184/184 185/185/185 186/186/186
f 187/187/187 188/188/188 189/189/189
f 190/190/190 191/191/191 192/192/192
f 193/193/193 194/194/194 195/195/195
f 196/196/196 197/197/197 198/198/198
f 199/199/199 200/200/200 201/201/201
f 202/202/202 203/203/203 204/204/204
f 205/205/205 206/206/206 207/207/207
f 208/208/208 209/209/209 210/210/210
f 211/211/211 212/212/212 213/213/213
f 214/214/214 215/215/215 216/216/216
f 217/217/217 218/218/218 219/219/219
f 220/220/220 221/221/221 222/222/222
f 223/223/223 224/224/224 225/225/225
f 226/226/226 227/227/227 228/228/228
f 229/229/229 230/230/230 231/231/231
f 232/232/232 233/233/233 234/234/234
f 235/235/235 236/236/236 237/237/237
f 238/238/238 239/239/239 240/240/240
f 241/241/241 242/242/242 243/243/243
f 244/244/244 245/245/245 246/246/246
f 247/247/247 248/248/248 249/249/249
f 250/250/250 251/251/251 252/252/252
f 253/253/253 254/254/254 255/255/255
f 256/256/256 257/257/257 258/258/258
f 259/259/259 260/260/260 261/261/261
f 262/262/262 263/263/263 264/264/264
f 265/265/265 266/266/266 267/267/267
f 268/268/268 269/269/269 270/270/270
f 271/271/271 272/272/272 273/273/273
f 274/274/274 275/275/275 276/276/276
f 277/277/277 278/278/278 279/279/279
f 280/280/280 281/281/281 282/282/282
f 283/283/283 284/284/284 285/285/285
f 286/286/286 287/287/287 288/288/288
f 289/289/289 290/290/290 291/291/291
f 292/292/292 293/293/293 294/294/294
f 295/295/295 296/296/296 297/297/297
f 298/298/298 299/299/299 300/300/300
f 301/301/301 302/302/302 303/303/303
f 304/304/304 305/305/305 306/306/306
f 307/307/307 308/308/308 309/309/309
f 310/310/310 311/311/311 312/312/312
f 313/313/313 314/314/314 315/315/315
f 316/316/316 317/317/317 318/318/318
f 319/319/319 320/320/320 321/321/321
f 322/322/322 323/323/323 324/324/324
f 325/325/325 326/326/326 327/327/327
f 328/328/328 329/329/329 330/330/330
f 331/331/331 332/332/332 333/333/333
f 334/334/334 335/335/335 336/336/336
f 337/337/337 338/338/338 339/339/339
f 340/340/340 341/341/341 342/342/342
f 343/343/343 344/344/344 345/345/345
f 346/346/346 347/347/347 348/348/348
f 349/349/349 350/350/350 351/351/351
f 352/352/352 353/353/353 354/354/354
f 355/355/355 356/356/356 357/357/357
f 358/358/358 359/359/359 360/360/360
f 361/361/361 362/362/362 363/363/363
f 364/364/364 365/365/365 366/366/366
f 367/367/367 368/368/368 369/369/369
f 370/370/370 371/371/371 372/372/372
f 373/373/373 374/374/374 375/375/375
f 376/376/376 377/377/377 378/378/378
f 379/379/379 380/380/380 381/381/381
f 382/382/382 383/383/383 384/384/384
