# Metres, Y up, base pivot, trunk solid + flat foliage cards
mtllib TreeSalvia.mtl
o Abete_08_Salvia_Espanso
s off
v 0.280000 0.000000 0.000000
v 0.219740 0.350867 0.004949
v 0.114740 0.350867 0.186815
vt 0.000000 0.000000
vt 0.000000 0.175000
vt 0.166667 0.175000
vn 0.857462 0.140283 0.495056
vn 0.857462 0.140283 0.495056
vn 0.857462 0.140283 0.495056
v 0.280000 0.000000 0.000000
v 0.114740 0.350867 0.186815
v 0.140000 0.000000 0.242487
vt 0.000000 0.000000
vt 0.166667 0.175000
vt 0.166667 0.000000
vn 0.857462 0.140283 0.495056
vn 0.857462 0.140283 0.495056
vn 0.857462 0.140283 0.495056
v 0.140000 0.000000 0.242487
v 0.114740 0.350867 0.186815
v -0.095260 0.350867 0.186815
vt 0.166667 0.000000
vt 0.166667 0.175000
vt 0.333333 0.175000
vn 0.000000 0.156710 0.987645
vn 0.000000 0.156710 0.987645
vn 0.000000 0.156710 0.987645
v 0.140000 0.000000 0.242487
v -0.095260 0.350867 0.186815
v -0.140000 0.000000 0.242487
vt 0.166667 0.000000
vt 0.333333 0.175000
vt 0.333333 0.000000
vn 0.000000 0.156710 0.987645
vn 0.000000 0.156710 0.987645
vn 0.000000 0.156710 0.987645
v -0.140000 0.000000 0.242487
v -0.095260 0.350867 0.186815
v -0.200260 0.350867 0.004949
vt 0.333333 0.000000
vt 0.333333 0.175000
vt 0.500000 0.175000
vn -0.850841 0.186436 0.491234
vn -0.850841 0.186436 0.491234
vn -0.850841 0.186436 0.491234
v -0.140000 0.000000 0.242487
v -0.200260 0.350867 0.004949
v -0.280000 0.000000 0.000000
vt 0.333333 0.000000
vt 0.500000 0.175000
vt 0.500000 0.000000
vn -0.850841 0.186436 0.491234
vn -0.850841 0.186436 0.491234
vn -0.850841 0.186436 0.491234
v -0.280000 0.000000 0.000000
v -0.200260 0.350867 0.004949
v -0.095260 0.350867 -0.176916
vt 0.500000 0.000000
vt 0.500000 0.175000
vt 0.666667 0.175000
vn -0.848570 0.199761 -0.489922
vn -0.848570 0.199761 -0.489922
vn -0.848570 0.199761 -0.489922
v -0.280000 0.000000 0.000000
v -0.095260 0.350867 -0.176916
v -0.140000 0.000000 -0.242487
vt 0.500000 0.000000
vt 0.666667 0.175000
vt 0.666667 0.000000
vn -0.848570 0.199761 -0.489922
vn -0.848570 0.199761 -0.489922
vn -0.848570 0.199761 -0.489922
v -0.140000 0.000000 -0.242487
v -0.095260 0.350867 -0.176916
v 0.114740 0.350867 -0.176916
vt 0.666667 0.000000
vt 0.666667 0.175000
vt 0.833333 0.175000
vn -0.000000 0.183703 -0.982982
vn -0.000000 0.183703 -0.982982
vn -0.000000 0.183703 -0.982982
v -0.140000 0.000000 -0.242487
v 0.114740 0.350867 -0.176916
v 0.140000 0.000000 -0.242487
vt 0.666667 0.000000
vt 0.833333 0.175000
vt 0.833333 0.000000
vn -0.000000 0.183703 -0.982982
vn -0.000000 0.183703 -0.982982
vn -0.000000 0.183703 -0.982982
v 0.140000 0.000000 -0.242487
v 0.114740 0.350867 -0.176916
v 0.219740 0.350867 0.004949
vt 0.833333 0.000000
vt 0.833333 0.175000
vt 1.000000 0.175000
vn 0.855703 0.153934 -0.494041
vn 0.855703 0.153934 -0.494041
vn 0.855703 0.153934 -0.494041
v 0.140000 0.000000 -0.242487
v 0.219740 0.350867 0.004949
v 0.280000 0.000000 0.000000
vt 0.833333 0.000000
vt 1.000000 0.175000
vt 1.000000 0.000000
vn 0.855703 0.153934 -0.494041
vn 0.855703 0.153934 -0.494041
vn 0.855703 0.153934 -0.494041
v 0.219740 0.350867 0.004949
v 0.226015 1.804460 -0.012241
v 0.151640 1.804460 0.116580
vt 0.000000 0.175000
vt 0.000000 0.900000
vt 0.166667 0.900000
vn 0.866023 0.002175 0.499999
vn 0.866023 0.002175 0.499999
vn 0.866023 0.002175 0.499999
v 0.219740 0.350867 0.004949
v 0.151640 1.804460 0.116580
v 0.114740 0.350867 0.186815
vt 0.000000 0.175000
vt 0.166667 0.900000
vt 0.166667 0.175000
vn 0.866023 0.002175 0.499999
vn 0.866023 0.002175 0.499999
vn 0.866023 0.002175 0.499999
v 0.114740 0.350867 0.186815
v 0.151640 1.804460 0.116580
v 0.002890 1.804460 0.116580
vt 0.166667 0.175000
vt 0.166667 0.900000
vt 0.333333 0.900000
vn 0.000000 0.048262 0.998835
vn 0.000000 0.048262 0.998835
vn 0.000000 0.048262 0.998835
v 0.114740 0.350867 0.186815
v 0.002890 1.804460 0.116580
v -0.095260 0.350867 0.186815
vt 0.166667 0.175000
vt 0.333333 0.900000
vt 0.333333 0.175000
vn 0.000000 0.048262 0.998835
vn 0.000000 0.048262 0.998835
vn 0.000000 0.048262 0.998835
v -0.095260 0.350867 0.186815
v 0.002890 1.804460 0.116580
v -0.071485 1.804460 -0.012241
vt 0.333333 0.175000
vt 0.333333 0.900000
vt 0.500000 0.900000
vn -0.863084 0.082355 0.498302
vn -0.863084 0.082355 0.498302
vn -0.863084 0.082355 0.498302
v -0.095260 0.350867 0.186815
v -0.071485 1.804460 -0.012241
v -0.200260 0.350867 0.004949
vt 0.333333 0.175000
vt 0.500000 0.900000
vt 0.500000 0.175000
vn -0.863084 0.082355 0.498302
vn -0.863084 0.082355 0.498302
vn -0.863084 0.082355 0.498302
v -0.200260 0.350867 0.004949
v -0.071485 1.804460 -0.012241
v 0.002890 1.804460 -0.141063
vt 0.500000 0.175000
vt 0.500000 0.900000
vt 0.666667 0.900000
vn -0.863862 0.070632 -0.498751
vn -0.863862 0.070632 -0.498751
vn -0.863862 0.070632 -0.498751
v -0.200260 0.350867 0.004949
v 0.002890 1.804460 -0.141063
v -0.095260 0.350867 -0.176916
vt 0.500000 0.175000
vt 0.666667 0.900000
vt 0.666667 0.175000
vn -0.863862 0.070632 -0.498751
vn -0.863862 0.070632 -0.498751
vn -0.863862 0.070632 -0.498751
v -0.095260 0.350867 -0.176916
v 0.002890 1.804460 -0.141063
v 0.151640 1.804460 -0.141063
vt 0.666667 0.175000
vt 0.666667 0.900000
vt 0.833333 0.900000
vn 0.000000 0.024658 -0.999696
vn 0.000000 0.024658 -0.999696
vn 0.000000 0.024658 -0.999696
v -0.095260 0.350867 -0.176916
v 0.151640 1.804460 -0.141063
v 0.114740 0.350867 -0.176916
vt 0.666667 0.175000
vt 0.833333 0.900000
vt 0.833333 0.175000
vn -0.000000 0.024658 -0.999696
vn -0.000000 0.024658 -0.999696
vn -0.000000 0.024658 -0.999696
v 0.114740 0.350867 -0.176916
v 0.151640 1.804460 -0.141063
v 0.226015 1.804460 -0.012241
vt 0.833333 0.175000
vt 0.833333 0.900000
vt 1.000000 0.900000
vn 0.865985 -0.009651 -0.499977
vn 0.865985 -0.009651 -0.499977
vn 0.865985 -0.009651 -0.499977
v 0.114740 0.350867 -0.176916
v 0.226015 1.804460 -0.012241
v 0.219740 0.350867 0.004949
vt 0.833333 0.175000
vt 1.000000 0.900000
vt 1.000000 0.175000
vn 0.865985 -0.009651 -0.499977
vn 0.865985 -0.009651 -0.499977
vn 0.865985 -0.009651 -0.499977
v 0.226015 1.804460 -0.012241
v 0.124513 3.709168 0.036009
v 0.080763 3.709168 0.111786
vt 0.000000 0.900000
vt 0.000000 1.850000
vt 0.166667 1.850000
vn 0.865540 0.033466 0.499720
vn 0.865540 0.033466 0.499720
vn 0.865540 0.033466 0.499720
v 0.226015 1.804460 -0.012241
v 0.080763 3.709168 0.111786
v 0.151640 1.804460 0.116580
vt 0.000000 0.900000
vt 0.166667 1.850000
vt 0.166667 0.900000
vn 0.865540 0.033466 0.499720
vn 0.865540 0.033466 0.499720
vn 0.865540 0.033466 0.499720
v 0.151640 1.804460 0.116580
v 0.080763 3.709168 0.111786
v -0.006737 3.709168 0.111786
vt 0.166667 0.900000
vt 0.166667 1.850000
vt 0.333333 1.850000
vn 0.000000 0.002517 0.999997
vn 0.000000 0.002517 0.999997
vn 0.000000 0.002517 0.999997
v 0.151640 1.804460 0.116580
v -0.006737 3.709168 0.111786
v 0.002890 1.804460 0.116580
vt 0.166667 0.900000
vt 0.333333 1.850000
vt 0.333333 0.900000
vn 0.000000 0.002517 0.999997
vn 0.000000 0.002517 0.999997
vn 0.000000 0.002517 0.999997
v 0.002890 1.804460 0.116580
v -0.006737 3.709168 0.111786
v -0.050487 3.709168 0.036009
vt 0.333333 0.900000
vt 0.333333 1.850000
vt 0.500000 1.850000
vn -0.866021 -0.003118 0.499998
vn -0.866021 -0.003118 0.499998
vn -0.866021 -0.003118 0.499998
v 0.002890 1.804460 0.116580
v -0.050487 3.709168 0.036009
v -0.071485 1.804460 -0.012241
vt 0.333333 0.900000
vt 0.500000 1.850000
vt 0.500000 0.900000
vn -0.866021 -0.003118 0.499998
vn -0.866021 -0.003118 0.499998
vn -0.866021 -0.003118 0.499998
v -0.071485 1.804460 -0.012241
v -0.050487 3.709168 0.036009
v -0.006737 3.709168 -0.039769
vt 0.500000 0.900000
vt 0.500000 1.850000
vt 0.666667 1.850000
vn -0.865812 0.022208 -0.499877
vn -0.865812 0.022208 -0.499877
vn -0.865812 0.022208 -0.499877
v -0.071485 1.804460 -0.012241
v -0.006737 3.709168 -0.039769
v 0.002890 1.804460 -0.141063
vt 0.500000 0.900000
vt 0.666667 1.850000
vt 0.666667 0.900000
vn -0.865812 0.022208 -0.499877
vn -0.865812 0.022208 -0.499877
vn -0.865812 0.022208 -0.499877
v 0.002890 1.804460 -0.141063
v -0.006737 3.709168 -0.039769
v 0.080763 3.709168 -0.039769
vt 0.666667 0.900000
vt 0.666667 1.850000
vt 0.833333 1.850000
vn 0.000000 0.053106 -0.998589
vn 0.000000 0.053106 -0.998589
vn 0.000000 0.053106 -0.998589
v 0.002890 1.804460 -0.141063
v 0.080763 3.709168 -0.039769
v 0.151640 1.804460 -0.141063
vt 0.666667 0.900000
vt 0.833333 1.850000
vt 0.833333 0.900000
vn 0.000000 0.053106 -0.998589
vn 0.000000 0.053106 -0.998589
vn 0.000000 0.053106 -0.998589
v 0.151640 1.804460 -0.141063
v 0.080763 3.709168 -0.039769
v 0.124513 3.709168 0.036009
vt 0.833333 0.900000
vt 0.833333 1.850000
vt 1.000000 1.850000
vn 0.864531 0.058715 -0.499137
vn 0.864531 0.058715 -0.499137
vn 0.864531 0.058715 -0.499137
v 0.151640 1.804460 -0.141063
v 0.124513 3.709168 0.036009
v 0.226015 1.804460 -0.012241
vt 0.833333 0.900000
vt 1.000000 1.850000
vt 1.000000 0.900000
vn 0.864531 0.058715 -0.499137
vn 0.864531 0.058715 -0.499137
vn 0.864531 0.058715 -0.499137
v 0.124513 3.709168 0.036009
v 0.168830 5.664000 0.000393
v 0.157892 5.664000 0.019337
vt 0.000000 1.850000
vt 0.000000 2.825000
vt 0.166667 2.825000
vn 0.865977 -0.010523 0.499972
vn 0.865977 -0.010523 0.499972
vn 0.865977 -0.010523 0.499972
v 0.124513 3.709168 0.036009
v 0.157892 5.664000 0.019337
v 0.080763 3.709168 0.111786
vt 0.000000 1.850000
vt 0.166667 2.825000
vt 0.166667 1.850000
vn 0.865977 -0.010523 0.499972
vn 0.865977 -0.010523 0.499972
vn 0.865977 -0.010523 0.499972
v 0.080763 3.709168 0.111786
v 0.157892 5.664000 0.019337
v 0.136017 5.664000 0.019337
vt 0.166667 1.850000
vt 0.166667 2.825000
vt 0.333333 2.825000
vn 0.000000 0.047240 0.998884
vn 0.000000 0.047240 0.998884
vn 0.000000 0.047240 0.998884
v 0.080763 3.709168 0.111786
v 0.136017 5.664000 0.019337
v -0.006737 3.709168 0.111786
vt 0.166667 1.850000
vt 0.333333 2.825000
vt 0.333333 1.850000
vn 0.000000 0.047240 0.998884
vn 0.000000 0.047240 0.998884
vn 0.000000 0.047240 0.998884
v -0.006737 3.709168 0.111786
v 0.136017 5.664000 0.019337
v 0.125080 5.664000 0.000393
vt 0.333333 1.850000
vt 0.333333 2.825000
vt 0.500000 2.825000
vn -0.862775 0.086563 0.498123
vn -0.862775 0.086563 0.498123
vn -0.862775 0.086563 0.498123
v -0.006737 3.709168 0.111786
v 0.125080 5.664000 0.000393
v -0.050487 3.709168 0.036009
vt 0.333333 1.850000
vt 0.500000 2.825000
vt 0.500000 1.850000
vn -0.862775 0.086563 0.498123
vn -0.862775 0.086563 0.498123
vn -0.862775 0.086563 0.498123
v -0.050487 3.709168 0.036009
v 0.125080 5.664000 0.000393
v 0.136017 5.664000 -0.018552
vt 0.500000 1.850000
vt 0.500000 2.825000
vt 0.666667 2.825000
vn -0.863991 0.068508 -0.498825
vn -0.863991 0.068508 -0.498825
vn -0.863991 0.068508 -0.498825
v -0.050487 3.709168 0.036009
v 0.136017 5.664000 -0.018552
v -0.006737 3.709168 -0.039769
vt 0.500000 1.850000
vt 0.666667 2.825000
vt 0.666667 1.850000
vn -0.863991 0.068508 -0.498825
vn -0.863991 0.068508 -0.498825
vn -0.863991 0.068508 -0.498825
v -0.006737 3.709168 -0.039769
v 0.136017 5.664000 -0.018552
v 0.157892 5.664000 -0.018552
vt 0.666667 1.850000
vt 0.666667 2.825000
vt 0.833333 2.825000
vn 0.000000 0.010853 -0.999941
vn 0.000000 0.010853 -0.999941
vn 0.000000 0.010853 -0.999941
v -0.006737 3.709168 -0.039769
v 0.157892 5.664000 -0.018552
v 0.080763 3.709168 -0.039769
vt 0.666667 1.850000
vt 0.833333 2.825000
vt 0.833333 1.850000
vn -0.000000 0.010853 -0.999941
vn -0.000000 0.010853 -0.999941
vn -0.000000 0.010853 -0.999941
v 0.080763 3.709168 -0.039769
v 0.157892 5.664000 -0.018552
v 0.168830 5.664000 0.000393
vt 0.833333 1.850000
vt 0.833333 2.825000
vt 1.000000 2.825000
vn 0.865668 -0.028731 -0.499794
vn 0.865668 -0.028731 -0.499794
vn 0.865668 -0.028731 -0.499794
v 0.080763 3.709168 -0.039769
v 0.168830 5.664000 0.000393
v 0.124513 3.709168 0.036009
vt 0.833333 1.850000
vt 1.000000 2.825000
vt 1.000000 1.850000
vn 0.865668 -0.028731 -0.499794
vn 0.865668 -0.028731 -0.499794
vn 0.865668 -0.028731 -0.499794
v 0.000000 0.000000 0.000000
v 0.280000 0.000000 0.000000
v 0.140000 0.000000 0.242487
vt 0.500000 0.500000
vt 0.820000 0.500000
vt 0.660000 0.777128
vn 0.000000 -1.000000 0.000000
vn 0.000000 -1.000000 0.000000
vn 0.000000 -1.000000 0.000000
v 0.000000 0.000000 0.000000
v 0.140000 0.000000 0.242487
v -0.140000 0.000000 0.242487
vt 0.500000 0.500000
vt 0.660000 0.777128
vt 0.340000 0.777128
vn 0.000000 -1.000000 0.000000
vn 0.000000 -1.000000 0.000000
vn 0.000000 -1.000000 0.000000
v 0.000000 0.000000 0.000000
v -0.140000 0.000000 0.242487
v -0.280000 0.000000 0.000000
vt 0.500000 0.500000
vt 0.340000 0.777128
vt 0.180000 0.500000
vn 0.000000 -1.000000 0.000000
vn 0.000000 -1.000000 0.000000
vn 0.000000 -1.000000 0.000000
v 0.000000 0.000000 0.000000
v -0.280000 0.000000 0.000000
v -0.140000 0.000000 -0.242487
vt 0.500000 0.500000
vt 0.180000 0.500000
vt 0.340000 0.222872
vn -0.000000 -1.000000 0.000000
vn -0.000000 -1.000000 0.000000
vn -0.000000 -1.000000 0.000000
v 0.000000 0.000000 0.000000
v -0.140000 0.000000 -0.242487
v 0.140000 0.000000 -0.242487
vt 0.500000 0.500000
vt 0.340000 0.222872
vt 0.660000 0.222872
vn 0.000000 -1.000000 -0.000000
vn 0.000000 -1.000000 -0.000000
vn 0.000000 -1.000000 -0.000000
v 0.000000 0.000000 0.000000
v 0.140000 0.000000 -0.242487
v 0.280000 0.000000 0.000000
vt 0.500000 0.500000
vt 0.660000 0.222872
vt 0.820000 0.500000
vn 0.000000 -1.000000 0.000000
vn 0.000000 -1.000000 0.000000
vn 0.000000 -1.000000 0.000000
v 0.146955 5.664000 0.000393
v 0.157892 5.664000 0.019337
v 0.168830 5.664000 0.000393
vt 0.540000 0.510000
vt 0.552500 0.531651
vt 0.565000 0.510000
vn 0.000000 1.000000 0.000000
vn 0.000000 1.000000 0.000000
vn 0.000000 1.000000 0.000000
v 0.146955 5.664000 0.000393
v 0.136017 5.664000 0.019337
v 0.157892 5.664000 0.019337
vt 0.540000 0.510000
vt 0.527500 0.531651
vt 0.552500 0.531651
vn 0.000000 1.000000 0.000000
vn 0.000000 1.000000 0.000000
vn 0.000000 1.000000 0.000000
v 0.146955 5.664000 0.000393
v 0.125080 5.664000 0.000393
v 0.136017 5.664000 0.019337
vt 0.540000 0.510000
vt 0.515000 0.510000
vt 0.527500 0.531651
vn -0.000000 1.000000 0.000000
vn -0.000000 1.000000 0.000000
vn -0.000000 1.000000 0.000000
v 0.146955 5.664000 0.000393
v 0.136017 5.664000 -0.018552
v 0.125080 5.664000 0.000393
vt 0.540000 0.510000
vt 0.527500 0.488349
vt 0.515000 0.510000
vn -0.000000 1.000000 -0.000000
vn -0.000000 1.000000 -0.000000
vn -0.000000 1.000000 -0.000000
v 0.146955 5.664000 0.000393
v 0.157892 5.664000 -0.018552
v 0.136017 5.664000 -0.018552
vt 0.540000 0.510000
vt 0.552500 0.488349
vt 0.527500 0.488349
vn 0.000000 1.000000 -0.000000
vn 0.000000 1.000000 -0.000000
vn 0.000000 1.000000 -0.000000
v 0.146955 5.664000 0.000393
v 0.168830 5.664000 0.000393
v 0.157892 5.664000 -0.018552
vt 0.540000 0.510000
vt 0.565000 0.510000
vt 0.552500 0.488349
vn 0.000000 1.000000 -0.000000
vn 0.000000 1.000000 -0.000000
vn 0.000000 1.000000 -0.000000
v 1.815058 0.874074 -1.097479
v 1.815058 0.874074 1.125953
v 0.025661 1.966667 1.125953
vt 0.000000 0.000000
vt 1.000000 0.000000
vt 1.000000 1.000000
vn -0.521128 -0.853479 0.000000
vn -0.521128 -0.853479 0.000000
vn -0.521128 -0.853479 0.000000
v 1.815058 0.874074 -1.097479
v 0.025661 1.966667 1.125953
v 0.025661 1.966667 -1.097479
vt 0.000000 0.000000
vt 1.000000 1.000000
vt 0.000000 1.000000
vn -0.521128 -0.853479 0.000000
vn -0.521128 -0.853479 0.000000
vn -0.521128 -0.853479 0.000000
v 1.731190 0.874074 0.633351
v 0.231399 0.874074 1.829395
v -0.729882 1.966667 0.623987
vt 0.000000 0.000000
vt 1.000000 0.000000
vt 1.000000 1.000000
vn -0.360498 -0.815899 -0.452050
vn -0.360498 -0.815899 -0.452050
vn -0.360498 -0.815899 -0.452050
v 1.731190 0.874074 0.633351
v -0.729882 1.966667 0.623987
v 0.769909 1.966667 -0.572057
vt 0.000000 0.000000
vt 1.000000 1.000000
vt 0.000000 1.000000
vn -0.360498 -0.815899 -0.452050
vn -0.360498 -0.815899 -0.452050
vn -0.360498 -0.815899 -0.452050
v -1.069828 0.874074 1.700645
v -1.981499 0.874074 -0.192460
v -0.458689 1.966667 -0.925807
vt 0.000000 0.000000
vt 1.000000 0.000000
vt 1.000000 1.000000
vn 0.489118 -0.839810 -0.235547
vn 0.489118 -0.839810 -0.235547
vn 0.489118 -0.839810 -0.235547
v -1.069828 0.874074 1.700645
v -0.458689 1.966667 -0.925807
v 0.452983 1.966667 0.967298
vt 0.000000 0.000000
vt 1.000000 1.000000
vt 0.000000 1.000000
vn 0.489118 -0.839810 -0.235547
vn 0.489118 -0.839810 -0.235547
vn 0.489118 -0.839810 -0.235547
v -1.806366 0.874074 0.202764
v -0.974841 0.874074 -1.523916
v 0.412910 1.966667 -0.855611
vt 0.000000 0.000000
vt 1.000000 0.000000
vt 1.000000 1.000000
vn 0.521270 -0.815636 0.251030
vn 0.521270 -0.815636 0.251030
vn 0.521270 -0.815636 0.251030
v -1.806366 0.874074 0.202764
v 0.412910 1.966667 -0.855611
v -0.418616 1.966667 0.871069
vt 0.000000 0.000000
vt 1.000000 1.000000
vt 0.000000 1.000000
vn 0.521270 -0.815636 0.251030
vn 0.521270 -0.815636 0.251030
vn 0.521270 -0.815636 0.251030
v -1.557901 0.874074 -1.582223
v 0.731209 0.874074 -2.104697
v 1.151879 1.966667 -0.261624
vt 0.000000 0.000000
vt 1.000000 0.000000
vt 1.000000 1.000000
vn 0.111347 -0.865802 0.487842
vn 0.111347 -0.865802 0.487842
vn 0.111347 -0.865802 0.487842
v -1.557901 0.874074 -1.582223
v 1.151879 1.966667 -0.261624
v -1.137231 1.966667 0.260851
vt 0.000000 0.000000
vt 1.000000 1.000000
vt 0.000000 1.000000
vn 0.111347 -0.865802 0.487842
vn 0.111347 -0.865802 0.487842
vn 0.111347 -0.865802 0.487842
v 0.270833 0.874074 -2.125191
v 2.038557 0.874074 -0.715479
v 0.903875 1.966667 0.707366
vt 0.000000 0.000000
vt 1.000000 0.000000
vt 1.000000 1.000000
vn -0.320925 -0.857356 0.402428
vn -0.320925 -0.857356 0.402428
vn -0.320925 -0.857356 0.402428
v 0.270833 0.874074 -2.125191
v 0.903875 1.966667 0.707366
v -0.863848 1.966667 -0.702346
vt 0.000000 0.000000
vt 1.000000 1.000000
vt 0.000000 1.000000
vn -0.320925 -0.857356 0.402428
vn -0.320925 -0.857356 0.402428
vn -0.320925 -0.857356 0.402428
v 1.547825 1.529630 -0.206061
v 0.902543 1.529630 1.278604
v -0.288561 2.622222 0.760913
vt 0.000000 0.000000
vt 1.000000 0.000000
vt 1.000000 1.000000
vn -0.590407 -0.765226 -0.256609
vn -0.590407 -0.765226 -0.256609
vn -0.590407 -0.765226 -0.256609
v 1.547825 1.529630 -0.206061
v -0.288561 2.622222 0.760913
v 0.356721 2.622222 -0.723752
vt 0.000000 0.000000
vt 1.000000 1.000000
vt 0.000000 1.000000
vn -0.590407 -0.765226 -0.256609
vn -0.590407 -0.765226 -0.256609
vn -0.590407 -0.765226 -0.256609
v 1.151458 1.529630 1.077858
v -0.422474 1.529630 1.501953
v -0.762740 2.622222 0.239132
vt 0.000000 0.000000
vt 1.000000 0.000000
vt 1.000000 1.000000
vn -0.166801 -0.767439 -0.619044
vn -0.166801 -0.767439 -0.619044
vn -0.166801 -0.767439 -0.619044
v 1.151458 1.529630 1.077858
v -0.762740 2.622222 0.239132
v 0.811192 2.622222 -0.184962
vt 0.000000 0.000000
vt 1.000000 1.000000
vt 0.000000 1.000000
vn -0.166801 -0.767439 -0.619044
vn -0.166801 -0.767439 -0.619044
vn -0.166801 -0.767439 -0.619044
v -0.133704 1.529630 1.881849
v -1.718518 1.529630 0.715625
v -0.780974 2.622222 -0.558429
vt 0.000000 0.000000
vt 1.000000 0.000000
vt 1.000000 1.000000
vn 0.336841 -0.822806 -0.457742
vn 0.336841 -0.822806 -0.457742
vn 0.336841 -0.822806 -0.457742
v -0.133704 1.529630 1.881849
v -0.780974 2.622222 -0.558429
v 0.803840 2.622222 0.607795
vt 0.000000 0.000000
vt 1.000000 1.000000
vt 0.000000 1.000000
vn 0.336841 -0.822806 -0.457742
vn 0.336841 -0.822806 -0.457742
vn 0.336841 -0.822806 -0.457742
v -1.659753 1.529630 1.139901
v -1.742085 1.529630 -0.981065
v -0.035832 2.622222 -1.047300
vt 0.000000 0.000000
vt 1.000000 0.000000
vt 1.000000 1.000000
vn 0.538567 -0.842323 -0.020906
vn 0.538567 -0.842323 -0.020906
vn 0.538567 -0.842323 -0.020906
v -1.659753 1.529630 1.139901
v -0.035832 2.622222 -1.047300
v 0.046501 2.622222 1.073666
vt 0.000000 0.000000
vt 1.000000 1.000000
vt 0.000000 1.000000
vn 0.538567 -0.842323 -0.020906
vn 0.538567 -0.842323 -0.020906
vn 0.538567 -0.842323 -0.020906
v -1.531309 1.529630 -0.478643
v -0.238673 1.529630 -1.594198
v 0.656841 2.622222 -0.556532
vt 0.000000 0.000000
vt 1.000000 0.000000
vt 1.000000 1.000000
vn 0.407249 -0.781962 0.471895
vn 0.407249 -0.781962 0.471895
vn 0.407249 -0.781962 0.471895
v -1.531309 1.529630 -0.478643
v 0.656841 2.622222 -0.556532
v -0.635795 2.622222 0.559023
vt 0.000000 0.000000
vt 1.000000 1.000000
vt 0.000000 1.000000
vn 0.407249 -0.781962 0.471895
vn 0.407249 -0.781962 0.471895
vn 0.407249 -0.781962 0.471895
v -0.492690 1.529630 -1.323584
v 0.983077 1.529630 -1.046492
v 0.760975 2.622222 0.136405
vt 0.000000 0.000000
vt 1.000000 0.000000
vt 1.000000 1.000000
vn -0.124036 -0.740418 0.660603
vn -0.124036 -0.740418 0.660603
vn -0.124036 -0.740418 0.660603
v -0.492690 1.529630 -1.323584
v 0.760975 2.622222 0.136405
v -0.714792 2.622222 -0.140687
vt 0.000000 0.000000
vt 1.000000 1.000000
vt 0.000000 1.000000
vn -0.124036 -0.740418 0.660603
vn -0.124036 -0.740418 0.660603
vn -0.124036 -0.740418 0.660603
v 0.848892 1.529630 -1.398257
v 1.653081 1.529630 0.118203
v 0.435669 2.622222 0.763804
vt 0.000000 0.000000
vt 1.000000 0.000000
vt 1.000000 1.000000
vn -0.548884 -0.783582 0.291077
vn -0.548884 -0.783582 0.291077
vn -0.548884 -0.783582 0.291077
v 0.848892 1.529630 -1.398257
v 0.435669 2.622222 0.763804
v -0.368519 2.622222 -0.752656
vt 0.000000 0.000000
vt 1.000000 1.000000
vt 0.000000 1.000000
vn -0.548884 -0.783582 0.291077
vn -0.548884 -0.783582 0.291077
vn -0.548884 -0.783582 0.291077
v 1.306753 2.185185 0.355432
v 0.293139 2.185185 1.301219
v -0.464168 3.277778 0.489602
vt 0.000000 0.000000
vt 1.000000 0.000000
vt 1.000000 1.000000
vn -0.478562 -0.712692 -0.512882
vn -0.478562 -0.712692 -0.512882
vn -0.478562 -0.712692 -0.512882
v 1.306753 2.185185 0.355432
v -0.464168 3.277778 0.489602
v 0.549445 3.277778 -0.456185
vt 0.000000 0.000000
vt 1.000000 1.000000
vt 0.000000 1.000000
vn -0.478562 -0.712692 -0.512882
vn -0.478562 -0.712692 -0.512882
vn -0.478562 -0.712692 -0.512882
v 0.598019 2.185185 1.323719
v -0.890432 2.185185 1.103629
v -0.714015 3.277778 -0.089465
vt 0.000000 0.000000
vt 1.000000 0.000000
vt 1.000000 1.000000
vn 0.098206 -0.741111 -0.664161
vn 0.098206 -0.741111 -0.664161
vn 0.098206 -0.741111 -0.664161
v 0.598019 2.185185 1.323719
v -0.714015 3.277778 -0.089465
v 0.774436 3.277778 0.130625
vt 0.000000 0.000000
vt 1.000000 1.000000
vt 0.000000 1.000000
vn 0.098206 -0.741111 -0.664161
vn 0.098206 -0.741111 -0.664161
vn 0.098206 -0.741111 -0.664161
v -1.145637 2.185185 0.221306
v -0.689897 2.185185 -0.949524
v 0.246297 3.277778 -0.585115
vt 0.000000 0.000000
vt 1.000000 0.000000
vt 1.000000 1.000000
vn 0.685987 -0.676849 0.267017
vn 0.685987 -0.676849 0.267017
vn 0.685987 -0.676849 0.267017
v -1.145637 2.185185 0.221306
v 0.246297 3.277778 -0.585115
v -0.209444 3.277778 0.585716
vt 0.000000 0.000000
vt 1.000000 1.000000
vt 0.000000 1.000000
vn 0.685987 -0.676849 0.267017
vn 0.685987 -0.676849 0.267017
vn 0.685987 -0.676849 0.267017
v -1.022507 2.185185 -0.913188
v 0.378783 2.185185 -1.349726
v 0.728588 3.277778 -0.226849
vt 0.000000 0.000000
vt 1.000000 0.000000
vt 1.000000 1.000000
vn 0.202435 -0.732639 0.649816
vn 0.202435 -0.732639 0.649816
vn 0.202435 -0.732639 0.649816
v -1.022507 2.185185 -0.913188
v 0.728588 3.277778 -0.226849
v -0.672701 3.277778 0.209689
vt 0.000000 0.000000
vt 1.000000 1.000000
vt 0.000000 1.000000
vn 0.202435 -0.732639 0.649816
vn 0.202435 -0.732639 0.649816
vn 0.202435 -0.732639 0.649816
v 0.094239 2.185185 -1.417597
v 1.331510 2.185185 -0.579102
v 0.659455 3.277778 0.412572
vt 0.000000 0.000000
vt 1.000000 0.000000
vt 1.000000 1.000000
vn -0.378046 -0.738849 0.557838
vn -0.378046 -0.738849 0.557838
vn -0.378046 -0.738849 0.557838
v 0.094239 2.185185 -1.417597
v 0.659455 3.277778 0.412572
v -0.577815 3.277778 -0.425923
vt 0.000000 0.000000
vt 1.000000 1.000000
vt 0.000000 1.000000
vn -0.378046 -0.738849 0.557838
vn -0.378046 -0.738849 0.557838
vn -0.378046 -0.738849 0.557838
v 1.160901 2.185185 -0.816686
v 1.274464 2.185185 0.643849
v 0.104141 3.277778 0.734846
vt 0.000000 0.000000
vt 1.000000 0.000000
vt 1.000000 1.000000
vn -0.679266 -0.731990 0.052816
vn -0.679266 -0.731990 0.052816
vn -0.679266 -0.731990 0.052816
v 1.160901 2.185185 -0.816686
v 0.104141 3.277778 0.734846
v -0.009422 3.277778 -0.725689
vt 0.000000 0.000000
vt 1.000000 1.000000
vt 0.000000 1.000000
vn -0.679266 -0.731990 0.052816
vn -0.679266 -0.731990 0.052816
vn -0.679266 -0.731990 0.052816
v 1.290290 2.840741 0.997650
v -0.288260 2.840741 1.557456
v -0.737550 3.933333 0.290541
vt 0.000000 0.000000
vt 1.000000 0.000000
vt 1.000000 1.000000
vn -0.210816 -0.775998 -0.594461
vn -0.210816 -0.775998 -0.594461
vn -0.210816 -0.775998 -0.594461
v 1.290290 2.840741 0.997650
v -0.737550 3.933333 0.290541
v 0.841001 3.933333 -0.269265
vt 0.000000 0.000000
vt 1.000000 1.000000
vt 0.000000 1.000000
vn -0.210816 -0.775998 -0.594461
vn -0.210816 -0.775998 -0.594461
vn -0.210816 -0.775998 -0.594461
v 0.040011 2.840741 1.447836
v -1.252606 2.840741 0.643179
v -0.607524 3.933333 -0.393094
vt 0.000000 0.000000
vt 1.000000 0.000000
vt 1.000000 1.000000
vn 0.352461 -0.745111 -0.566199
vn 0.352461 -0.745111 -0.566199
vn 0.352461 -0.745111 -0.566199
v 0.040011 2.840741 1.447836
v -0.607524 3.933333 -0.393094
v 0.685093 3.933333 0.411564
vt 0.000000 0.000000
vt 1.000000 1.000000
vt 0.000000 1.000000
vn 0.352461 -0.745111 -0.566199
vn 0.352461 -0.745111 -0.566199
vn 0.352461 -0.745111 -0.566199
v -1.224834 2.840741 1.000956
v -1.422259 2.840741 -0.687518
v -0.066899 3.933333 -0.845994
vt 0.000000 0.000000
vt 1.000000 0.000000
vt 1.000000 1.000000
vn 0.620786 -0.780613 -0.072586
vn 0.620786 -0.780613 -0.072586
vn 0.620786 -0.780613 -0.072586
v -1.224834 2.840741 1.000956
v -0.066899 3.933333 -0.845994
v 0.130526 3.933333 0.842480
vt 0.000000 0.000000
vt 1.000000 1.000000
vt 0.000000 1.000000
vn 0.620786 -0.780613 -0.072586
vn 0.620786 -0.780613 -0.072586
vn 0.620786 -0.780613 -0.072586
v -1.163177 2.840741 -0.285532
v -0.245467 2.840741 -1.210978
v 0.494916 3.933333 -0.476784
vt 0.000000 0.000000
vt 1.000000 0.000000
vt 1.000000 1.000000
vn 0.513687 -0.690394 0.509393
vn 0.513687 -0.690394 0.509393
vn 0.513687 -0.690394 0.509393
v -1.163177 2.840741 -0.285532
v 0.494916 3.933333 -0.476784
v -0.422794 3.933333 0.448662
vt 0.000000 0.000000
vt 1.000000 1.000000
vt 0.000000 1.000000
vn 0.513687 -0.690394 0.509393
vn 0.513687 -0.690394 0.509393
vn 0.513687 -0.690394 0.509393
v -0.480356 2.840741 -1.111019
v 0.798906 2.840741 -0.972315
v 0.687960 3.933333 0.050940
vt 0.000000 0.000000
vt 1.000000 0.000000
vt 1.000000 1.000000
vn -0.078461 -0.685693 0.723650
vn -0.078461 -0.685693 0.723650
vn -0.078461 -0.685693 0.723650
v -0.480356 2.840741 -1.111019
v 0.687960 3.933333 0.050940
v -0.591302 3.933333 -0.087763
vt 0.000000 0.000000
vt 1.000000 1.000000
vt 0.000000 1.000000
vn -0.078461 -0.685693 0.723650
vn -0.078461 -0.685693 0.723650
vn -0.078461 -0.685693 0.723650
v 0.748916 2.840741 -1.444583
v 1.649640 2.840741 -0.024356
v 0.509741 3.933333 0.698581
vt 0.000000 0.000000
vt 1.000000 0.000000
vt 1.000000 1.000000
vn -0.531313 -0.777278 0.336965
vn -0.531313 -0.777278 0.336965
vn -0.531313 -0.777278 0.336965
v 0.748916 2.840741 -1.444583
v 0.509741 3.933333 0.698581
v -0.390983 3.933333 -0.721646
vt 0.000000 0.000000
vt 1.000000 1.000000
vt 0.000000 1.000000
vn -0.531313 -0.777278 0.336965
vn -0.531313 -0.777278 0.336965
vn -0.531313 -0.777278 0.336965
v 1.650704 2.840741 -0.361816
v 1.088066 2.840741 1.268021
v -0.220428 3.933333 0.816315
vt 0.000000 0.000000
vt 1.000000 0.000000
vt 1.000000 1.000000
vn -0.585643 -0.784952 -0.202170
vn -0.585643 -0.784952 -0.202170
vn -0.585643 -0.784952 -0.202170
v 1.650704 2.840741 -0.361816
v -0.220428 3.933333 0.816315
v 0.342210 3.933333 -0.813523
vt 0.000000 0.000000
vt 1.000000 1.000000
vt 0.000000 1.000000
vn -0.585643 -0.784952 -0.202170
vn -0.585643 -0.784952 -0.202170
vn -0.585643 -0.784952 -0.202170
v 0.443560 3.496296 0.714211
v -0.413808 3.496296 0.654783
v -0.366618 4.588889 -0.026039
vt 0.000000 0.000000
vt 1.000000 0.000000
vt 1.000000 1.000000
vn 0.058648 -0.529767 -0.846113
vn 0.058648 -0.529767 -0.846113
vn 0.058648 -0.529767 -0.846113
v 0.443560 3.496296 0.714211
v -0.366618 4.588889 -0.026039
v 0.490751 4.588889 0.033389
vt 0.000000 0.000000
vt 1.000000 1.000000
vt 0.000000 1.000000
vn 0.058648 -0.529767 -0.846113
vn 0.058648 -0.529767 -0.846113
vn 0.058648 -0.529767 -0.846113
v -0.283131 3.496296 0.775373
v -0.795229 3.496296 0.033221
v -0.205291 4.588889 -0.373846
vt 0.000000 0.000000
vt 1.000000 0.000000
vt 1.000000 1.000000
vn 0.688205 -0.548515 -0.474874
vn 0.688205 -0.548515 -0.474874
vn 0.688205 -0.548515 -0.474874
v -0.283131 3.496296 0.775373
v -0.205291 4.588889 -0.373846
v 0.306806 4.588889 0.368306
vt 0.000000 0.000000
vt 1.000000 1.000000
vt 0.000000 1.000000
vn 0.688205 -0.548515 -0.474874
vn 0.688205 -0.548515 -0.474874
vn 0.688205 -0.548515 -0.474874
v -0.999483 3.496296 0.269769
v -0.665774 3.496296 -0.833980
v 0.215600 4.588889 -0.567504
vt 0.000000 0.000000
vt 1.000000 0.000000
vt 1.000000 1.000000
vn 0.731948 -0.644422 0.221298
vn 0.731948 -0.644422 0.221298
vn 0.731948 -0.644422 0.221298
v -0.999483 3.496296 0.269769
v 0.215600 4.588889 -0.567504
v -0.118109 4.588889 0.536244
vt 0.000000 0.000000
vt 1.000000 1.000000
vt 0.000000 1.000000
vn 0.731948 -0.644422 0.221298
vn 0.731948 -0.644422 0.221298
vn 0.731948 -0.644422 0.221298
v -0.741399 3.496296 -0.609048
v 0.235227 3.496296 -0.998666
v 0.545859 4.588889 -0.220030
vt 0.000000 0.000000
vt 1.000000 0.000000
vt 1.000000 1.000000
vn 0.293981 -0.608732 0.736899
vn 0.293981 -0.608732 0.736899
vn 0.293981 -0.608732 0.736899
v -0.741399 3.496296 -0.609048
v 0.545859 4.588889 -0.220030
v -0.430768 4.588889 0.169588
vt 0.000000 0.000000
vt 1.000000 1.000000
vt 0.000000 1.000000
vn 0.293981 -0.608732 0.736899
vn 0.293981 -0.608732 0.736899
vn 0.293981 -0.608732 0.736899
v 0.032850 3.496296 -0.896018
v 0.839722 3.496296 -0.436172
v 0.473967 4.588889 0.205602
vt 0.000000 0.000000
vt 1.000000 0.000000
vt 1.000000 1.000000
vn -0.410195 -0.560088 0.719751
vn -0.410195 -0.560088 0.719751
vn -0.410195 -0.560088 0.719751
v 0.032850 3.496296 -0.896018
v 0.473967 4.588889 0.205602
v -0.332905 4.588889 -0.254244
vt 0.000000 0.000000
vt 1.000000 1.000000
vt 0.000000 1.000000
vn -0.410195 -0.560088 0.719751
vn -0.410195 -0.560088 0.719751
vn -0.410195 -0.560088 0.719751
v 0.705809 3.496296 -0.560792
v 0.842932 3.496296 0.315653
v 0.146485 4.588889 0.424615
vt 0.000000 0.000000
vt 1.000000 0.000000
vt 1.000000 1.000000
vn -0.830190 -0.542138 0.129886
vn -0.830190 -0.542138 0.129886
vn -0.830190 -0.542138 0.129886
v 0.705809 3.496296 -0.560792
v 0.146485 4.588889 0.424615
v 0.009362 4.588889 -0.451830
vt 0.000000 0.000000
vt 1.000000 1.000000
vt 0.000000 1.000000
vn -0.830190 -0.542138 0.129886
vn -0.830190 -0.542138 0.129886
vn -0.830190 -0.542138 0.129886
v 0.982511 3.496296 0.165739
v 0.318442 3.496296 0.889517
v -0.257878 4.588889 0.360741
vt 0.000000 0.000000
vt 1.000000 0.000000
vt 1.000000 1.000000
vn -0.599150 -0.582086 -0.549723
vn -0.599150 -0.582086 -0.549723
vn -0.599150 -0.582086 -0.549723
v 0.982511 3.496296 0.165739
v -0.257878 4.588889 0.360741
v 0.406191 4.588889 -0.363037
vt 0.000000 0.000000
vt 1.000000 1.000000
vt 0.000000 1.000000
vn -0.599150 -0.582086 -0.549723
vn -0.599150 -0.582086 -0.549723
vn -0.599150 -0.582086 -0.549723
v 0.129774 4.151852 0.646265
v -0.486899 4.151852 0.325843
v -0.233780 5.244444 -0.161299
vt 0.000000 0.000000
vt 1.000000 0.000000
vt 1.000000 1.000000
vn 0.411991 -0.448967 -0.792901
vn 0.411991 -0.448967 -0.792901
vn 0.411991 -0.448967 -0.792901
v 0.129774 4.151852 0.646265
v -0.233780 5.244444 -0.161299
v 0.382892 5.244444 0.159123
vt 0.000000 0.000000
vt 1.000000 1.000000
vt 0.000000 1.000000
vn 0.411991 -0.448967 -0.792901
vn 0.411991 -0.448967 -0.792901
vn 0.411991 -0.448967 -0.792901
v -0.427350 4.151852 0.456000
v -0.567495 4.151852 -0.257331
v -0.003319 5.244444 -0.368172
vt 0.000000 0.000000
vt 1.000000 0.000000
vt 1.000000 1.000000
vn 0.868348 -0.465691 -0.170600
vn 0.868348 -0.465691 -0.170600
vn 0.868348 -0.465691 -0.170600
v -0.427350 4.151852 0.456000
v -0.003319 5.244444 -0.368172
v 0.136826 5.244444 0.345159
vt 0.000000 0.000000
vt 1.000000 1.000000
vt 0.000000 1.000000
vn 0.868348 -0.465691 -0.170600
vn 0.868348 -0.465691 -0.170600
vn 0.868348 -0.465691 -0.170600
v -0.737457 4.151852 -0.139356
v -0.175189 4.151852 -0.802043
v 0.351168 5.244444 -0.355447
vt 0.000000 0.000000
vt 1.000000 0.000000
vt 1.000000 1.000000
vn 0.644637 -0.534121 0.546953
vn 0.644637 -0.534121 0.546953
vn 0.644637 -0.534121 0.546953
v -0.737457 4.151852 -0.139356
v 0.351168 5.244444 -0.355447
v -0.211100 5.244444 0.307240
vt 0.000000 0.000000
vt 1.000000 1.000000
vt 0.000000 1.000000
vn 0.644637 -0.534121 0.546953
vn 0.644637 -0.534121 0.546953
vn 0.644637 -0.534121 0.546953
v -0.265112 4.151852 -0.617230
v 0.464051 4.151852 -0.595053
v 0.446509 5.244444 -0.018303
vt 0.000000 0.000000
vt 1.000000 0.000000
vt 1.000000 1.000000
vn -0.026882 -0.466993 0.883852
vn -0.026882 -0.466993 0.883852
vn -0.026882 -0.466993 0.883852
v -0.265112 4.151852 -0.617230
v 0.446509 5.244444 -0.018303
v -0.282654 5.244444 -0.040480
vt 0.000000 0.000000
vt 1.000000 1.000000
vt 0.000000 1.000000
vn -0.026882 -0.466993 0.883852
vn -0.026882 -0.466993 0.883852
vn -0.026882 -0.466993 0.883852
v 0.359840 4.151852 -0.719892
v 0.836787 4.151852 -0.083025
v 0.331952 5.244444 0.295044
vt 0.000000 0.000000
vt 1.000000 0.000000
vt 1.000000 1.000000
vn -0.693215 -0.499941 0.519145
vn -0.693215 -0.499941 0.519145
vn -0.693215 -0.499941 0.519145
v 0.359840 4.151852 -0.719892
v 0.331952 5.244444 0.295044
v -0.144995 5.244444 -0.341824
vt 0.000000 0.000000
vt 1.000000 1.000000
vt 0.000000 1.000000
vn -0.693215 -0.499941 0.519145
vn -0.693215 -0.499941 0.519145
vn -0.693215 -0.499941 0.519145
v 0.816508 4.151852 -0.239664
v 0.613219 4.151852 0.540820
v -0.005657 5.244444 0.379624
vt 0.000000 0.000000
vt 1.000000 0.000000
vt 1.000000 1.000000
vn -0.835164 -0.505154 -0.217532
vn -0.835164 -0.505154 -0.217532
vn -0.835164 -0.505154 -0.217532
v 0.816508 4.151852 -0.239664
v -0.005657 5.244444 0.379624
v 0.197632 5.244444 -0.400860
vt 0.000000 0.000000
vt 1.000000 1.000000
vt 0.000000 1.000000
vn -0.835164 -0.505154 -0.217532
vn -0.835164 -0.505154 -0.217532
vn -0.835164 -0.505154 -0.217532
v 0.694129 4.151852 0.404938
v -0.017561 4.151852 0.721389
v -0.268278 5.244444 0.157533
vt 0.000000 0.000000
vt 1.000000 0.000000
vt 1.000000 1.000000
vn -0.353769 -0.491775 -0.795616
vn -0.353769 -0.491775 -0.795616
vn -0.353769 -0.491775 -0.795616
v 0.694129 4.151852 0.404938
v -0.268278 5.244444 0.157533
v 0.443411 5.244444 -0.158918
vt 0.000000 0.000000
vt 1.000000 1.000000
vt 0.000000 1.000000
vn -0.353769 -0.491775 -0.795616
vn -0.353769 -0.491775 -0.795616
vn -0.353769 -0.491775 -0.795616
v -0.008095 4.807407 0.301899
v -0.227615 4.807407 0.031320
v -0.019679 5.900000 -0.137377
vt 0.000000 0.000000
vt 1.000000 0.000000
vt 1.000000 1.000000
vn 0.754251 -0.238026 -0.611923
vn 0.754251 -0.238026 -0.611923
vn 0.754251 -0.238026 -0.611923
v -0.008095 4.807407 0.301899
v -0.019679 5.900000 -0.137377
v 0.199840 5.900000 0.133201
vt 0.000000 0.000000
vt 1.000000 1.000000
vt 0.000000 1.000000
vn 0.754251 -0.238026 -0.611923
vn 0.754251 -0.238026 -0.611923
vn 0.754251 -0.238026 -0.611923
v -0.177829 4.807407 0.086151
v -0.111242 4.807407 -0.217303
v 0.120371 5.900000 -0.166481
vt 0.000000 0.000000
vt 1.000000 0.000000
vt 1.000000 1.000000
vn 0.954540 -0.212091 0.209453
vn 0.954540 -0.212091 0.209453
vn 0.954540 -0.212091 0.209453
v -0.177829 4.807407 0.086151
v 0.120371 5.900000 -0.166481
v 0.053784 5.900000 0.136973
vt 0.000000 0.000000
vt 1.000000 1.000000
vt 0.000000 1.000000
vn 0.954540 -0.212091 0.209453
vn 0.954540 -0.212091 0.209453
vn 0.954540 -0.212091 0.209453
v -0.137674 4.807407 -0.162106
v 0.128554 4.807407 -0.293079
v 0.228222 5.900000 -0.090485
vt 0.000000 0.000000
vt 1.000000 0.000000
vt 1.000000 1.000000
vn 0.432297 -0.202373 0.878729
vn 0.432297 -0.202373 0.878729
vn 0.432297 -0.202373 0.878729
v -0.137674 4.807407 -0.162106
v 0.228222 5.900000 -0.090485
v -0.038006 5.900000 0.040488
vt 0.000000 0.000000
vt 1.000000 1.000000
vt 0.000000 1.000000
vn 0.432297 -0.202373 0.878729
vn 0.432297 -0.202373 0.878729
vn 0.432297 -0.202373 0.878729
v 0.059941 4.807407 -0.383819
v 0.415451 4.807407 -0.216277
v 0.285879 5.900000 0.058664
vt 0.000000 0.000000
vt 1.000000 0.000000
vt 1.000000 1.000000
vn -0.410710 -0.268008 0.871487
vn -0.410710 -0.268008 0.871487
vn -0.410710 -0.268008 0.871487
v 0.059941 4.807407 -0.383819
v 0.285879 5.900000 0.058664
v -0.069631 5.900000 -0.108879
vt 0.000000 0.000000
vt 1.000000 1.000000
vt 0.000000 1.000000
vn -0.410710 -0.268008 0.871487
vn -0.410710 -0.268008 0.871487
vn -0.410710 -0.268008 0.871487
v 0.355524 4.807407 -0.265121
v 0.442355 4.807407 0.101111
v 0.159740 5.900000 0.168116
vt 0.000000 0.000000
vt 1.000000 0.000000
vt 1.000000 1.000000
vn -0.940366 -0.256912 0.222953
vn -0.940366 -0.256912 0.222953
vn -0.940366 -0.256912 0.222953
v 0.355524 4.807407 -0.265121
v 0.159740 5.900000 0.168116
v 0.072909 5.900000 -0.198115
vt 0.000000 0.000000
vt 1.000000 1.000000
vt 0.000000 1.000000
vn -0.940366 -0.256912 0.222953
vn -0.940366 -0.256912 0.222953
vn -0.940366 -0.256912 0.222953
v 0.386047 4.807407 0.020617
v 0.200865 4.807407 0.256869
v 0.020944 5.900000 0.115840
vt 0.000000 0.000000
vt 1.000000 0.000000
vt 1.000000 1.000000
vn -0.770356 -0.204798 -0.603829
vn -0.770356 -0.204798 -0.603829
vn -0.770356 -0.204798 -0.603829
v 0.386047 4.807407 0.020617
v 0.020944 5.900000 0.115840
v 0.206125 5.900000 -0.120411
vt 0.000000 0.000000
vt 1.000000 1.000000
vt 0.000000 1.000000
vn -0.770356 -0.204798 -0.603829
vn -0.770356 -0.204798 -0.603829
vn -0.770356 -0.204798 -0.603829
v 0.270311 4.807407 0.257008
v -0.062321 4.807407 0.259800
v -0.064461 5.900000 0.004857
vt 0.000000 0.000000
vt 1.000000 0.000000
vt 1.000000 1.000000
vn -0.008175 -0.227242 -0.973804
vn -0.008175 -0.227242 -0.973804
vn -0.008175 -0.227242 -0.973804
v 0.270311 4.807407 0.257008
v -0.064461 5.900000 0.004857
v 0.268171 5.900000 0.002064
vt 0.000000 0.000000
vt 1.000000 1.000000
vt 0.000000 1.000000
vn -0.008175 -0.227242 -0.973804
vn -0.008175 -0.227242 -0.973804
vn -0.008175 -0.227242 -0.973804
usemtl Bark
f 1/1/1 2/2/2 3/3/3
f 4/4/4 5/5/5 6/6/6
f 7/7/7 8/8/8 9/9/9
f 10/10/10 11/11/11 12/12/12
f 13/13/13 14/14/14 15/15/15
f 16/16/16 17/17/17 18/18/18
f 19/19/19 20/20/20 21/21/21
f 22/22/22 23/23/23 24/24/24
f 25/25/25 26/26/26 27/27/27
f 28/28/28 29/29/29 30/30/30
f 31/31/31 32/32/32 33/33/33
f 34/34/34 35/35/35 36/36/36
f 37/37/37 38/38/38 39/39/39
f 40/40/40 41/41/41 42/42/42
f 43/43/43 44/44/44 45/45/45
f 46/46/46 47/47/47 48/48/48
f 49/49/49 50/50/50 51/51/51
f 52/52/52 53/53/53 54/54/54
f 55/55/55 56/56/56 57/57/57
f 58/58/58 59/59/59 60/60/60
f 61/61/61 62/62/62 63/63/63
f 64/64/64 65/65/65 66/66/66
f 67/67/67 68/68/68 69/69/69
f 70/70/70 71/71/71 72/72/72
f 73/73/73 74/74/74 75/75/75
f 76/76/76 77/77/77 78/78/78
f 79/79/79 80/80/80 81/81/81
f 82/82/82 83/83/83 84/84/84
f 85/85/85 86/86/86 87/87/87
f 88/88/88 89/89/89 90/90/90
f 91/91/91 92/92/92 93/93/93
f 94/94/94 95/95/95 96/96/96
f 97/97/97 98/98/98 99/99/99
f 100/100/100 101/101/101 102/102/102
f 103/103/103 104/104/104 105/105/105
f 106/106/106 107/107/107 108/108/108
f 109/109/109 110/110/110 111/111/111
f 112/112/112 113/113/113 114/114/114
f 115/115/115 116/116/116 117/117/117
f 118/118/118 119/119/119 120/120/120
f 121/121/121 122/122/122 123/123/123
f 124/124/124 125/125/125 126/126/126
f 127/127/127 128/128/128 129/129/129
f 130/130/130 131/131/131 132/132/132
f 133/133/133 134/134/134 135/135/135
f 136/136/136 137/137/137 138/138/138
f 139/139/139 140/140/140 141/141/141
f 142/142/142 143/143/143 144/144/144
f 145/145/145 146/146/146 147/147/147
f 148/148/148 149/149/149 150/150/150
f 151/151/151 152/152/152 153/153/153
f 154/154/154 155/155/155 156/156/156
f 157/157/157 158/158/158 159/159/159
f 160/160/160 161/161/161 162/162/162
f 163/163/163 164/164/164 165/165/165
f 166/166/166 167/167/167 168/168/168
f 169/169/169 170/170/170 171/171/171
f 172/172/172 173/173/173 174/174/174
f 175/175/175 176/176/176 177/177/177
f 178/178/178 179/179/179 180/180/180
usemtl FoliageSalvia
f 181/181/181 182/182/182 183/183/183
f 184/184/184 185/185/185 186/186/186
f 187/187/187 188/188/188 189/189/189
f 190/190/190 191/191/191 192/192/192
f 193/193/193 194/194/194 195/195/195
f 196/196/196 197/197/197 198/198/198
f 199/199/199 200/200/200 201/201/201
f 202/202/202 203/203/203 204/204/204
f 205/205/205 206/206/206 207/207/207
f 208/208/208 209/209/209 210/210/210
f 211/211/211 212/212/212 213/213/213
f 214/214/214 215/215/215 216/216/216
f 217/217/217 218/218/218 219/219/219
f 220/220/220 221/221/221 222/222/222
f 223/223/223 224/224/224 225/225/225
f 226/226/226 227/227/227 228/228/228
f 229/229/229 230/230/230 231/231/231
f 232/232/232 233/233/233 234/234/234
f 235/235/235 236/236/236 237/237/237
f 238/238/238 239/239/239 240/240/240
f 241/241/241 242/242/242 243/243/243
f 244/244/244 245/245/245 246/246/246
f 247/247/247 248/248/248 249/249/249
f 250/250/250 251/251/251 252/252/252
f 253/253/253 254/254/254 255/255/255
f 256/256/256 257/257/257 258/258/258
f 259/259/259 260/260/260 261/261/261
f 262/262/262 263/263/263 264/264/264
f 265/265/265 266/266/266 267/267/267
f 268/268/268 269/269/269 270/270/270
f 271/271/271 272/272/272 273/273/273
f 274/274/274 275/275/275 276/276/276
f 277/277/277 278/278/278 279/279/279
f 280/280/280 281/281/281 282/282/282
f 283/283/283 284/284/284 285/285/285
f 286/286/286 287/287/287 288/288/288
f 289/289/289 290/290/290 291/291/291
f 292/292/292 293/293/293 294/294/294
f 295/295/295 296/296/296 297/297/297
f 298/298/298 299/299/299 300/300/300
f 301/301/301 302/302/302 303/303/303
f 304/304/304 305/305/305 306/306/306
f 307/307/307 308/308/308 309/309/309
f 310/310/310 311/311/311 312/312/312
f 313/313/313 314/314/314 315/315/315
f 316/316/316 317/317/317 318/318/318
f 319/319/319 320/320/320 321/321/321
f 322/322/322 323/323/323 324/324/324
f 325/325/325 326/326/326 327/327/327
f 328/328/328 329/329/329 330/330/330
f 331/331/331 332/332/332 333/333/333
f 334/334/334 335/335/335 336/336/336
f 337/337/337 338/338/338 339/339/339
f 340/340/340 341/341/341 342/342/342
f 343/343/343 344/344/344 345/345/345
f 346/346/346 347/347/347 348/348/348
f 349/349/349 350/350/350 351/351/351
f 352/352/352 353/353/353 354/354/354
f 355/355/355 356/356/356 357/357/357
f 358/358/358 359/359/359 360/360/360
f 361/361/361 362/362/362 363/363/363
f 364/364/364 365/365/365 366/366/366
f 367/367/367 368/368/368 369/369/369
f 370/370/370 371/371/371 372/372/372
f 373/373/373 374/374/374 375/375/375
f 376/376/376 377/377/377 378/378/378
f 379/379/379 380/380/380 381/381/381
f 382/382/382 383/383/383 384/384/384
f 385/385/385 386/386/386 387/387/387
f 388/388/388 389/389/389 390/390/390
f 391/391/391 392/392/392 393/393/393
f 394/394/394 395/395/395 396/396/396
f 397/397/397 398/398/398 399/399/399
f 400/400/400 401/401/401 402/402/402
f 403/403/403 404/404/404 405/405/405
f 406/406/406 407/407/407 408/408/408
f 409/409/409 410/410/410 411/411/411
f 412/412/412 413/413/413 414/414/414
f 415/415/415 416/416/416 417/417/417
f 418/418/418 419/419/419 420/420/420
f 421/421/421 422/422/422 423/423/423
f 424/424/424 425/425/425 426/426/426
f 427/427/427 428/428/428 429/429/429
f 430/430/430 431/431/431 432/432/432
f 433/433/433 434/434/434 435/435/435
f 436/436/436 437/437/437 438/438/438
f 439/439/439 440/440/440 441/441/441
f 442/442/442 443/443/443 444/444/444
f 445/445/445 446/446/446 447/447/447
f 448/448/448 449/449/449 450/450/450
f 451/451/451 452/452/452 453/453/453
f 454/454/454 455/455/455 456/456/456
f 457/457/457 458/458/458 459/459/459
f 460/460/460 461/461/461 462/462/462
