# Y-up metres; ground pivot; triangulated
mtllib Hay.mtl
o Fieno_02_Mucchio
usemtl Hay
s off
v 1.550000 0.000000 0.000000
v 1.503000 0.280000 0.000000
v 1.337279 0.280000 0.668970
v 1.550000 0.000000 0.000000
v 1.337279 0.280000 0.668970
v 1.377374 0.000000 0.696843
v 1.377374 0.000000 0.696843
v 1.337279 0.280000 0.668970
v 0.733124 0.280000 1.124553
v 1.377374 0.000000 0.696843
v 0.733124 0.280000 1.124553
v 0.748046 0.000000 1.171409
v 0.748046 0.000000 1.171409
v 0.733124 0.280000 1.124553
v 0.015000 0.280000 1.361780
v 0.748046 0.000000 1.171409
v 0.015000 0.280000 1.361780
v 0.000000 0.000000 1.418521
v 0.000000 0.000000 1.418521
v 0.015000 0.280000 1.361780
v -0.734804 0.280000 1.199356
v 0.000000 0.000000 1.418521
v -0.734804 0.280000 1.199356
v -0.781046 0.000000 1.249329
v -0.781046 0.000000 1.249329
v -0.734804 0.280000 1.199356
v -1.234161 0.280000 0.657841
v -0.781046 0.000000 1.249329
v -1.234161 0.280000 0.657841
v -1.301209 0.000000 0.685251
v -1.301209 0.000000 0.685251
v -1.234161 0.280000 0.657841
v -1.522148 0.280000 0.000000
v -1.301209 0.000000 0.685251
v -1.522148 0.280000 0.000000
v -1.601195 0.000000 0.000000
v -1.601195 0.000000 0.000000
v -1.522148 0.280000 0.000000
v -1.256413 0.280000 -0.690488
v -1.601195 0.000000 0.000000
v -1.256413 0.280000 -0.690488
v -1.324389 0.000000 -0.719259
v -1.324389 0.000000 -0.719259
v -1.256413 0.280000 -0.690488
v -0.717684 0.280000 -1.184784
v -1.324389 0.000000 -0.719259
v -0.717684 0.280000 -1.184784
v -0.763212 0.000000 -1.234150
v -0.763212 0.000000 -1.234150
v -0.717684 0.280000 -1.184784
v 0.015000 0.280000 -1.300821
v -0.763212 0.000000 -1.234150
v 0.015000 0.280000 -1.300821
v -0.000000 0.000000 -1.355021
v -0.000000 0.000000 -1.355021
v 0.015000 0.280000 -1.300821
v 0.736964 0.280000 -1.152729
v -0.000000 0.000000 -1.355021
v 0.736964 0.280000 -1.152729
v 0.752046 0.000000 -1.200759
v 0.752046 0.000000 -1.200759
v 0.736964 0.280000 -1.152729
v 1.311154 0.280000 -0.695257
v 0.752046 0.000000 -1.200759
v 1.311154 0.280000 -0.695257
v 1.350161 0.000000 -0.724227
v 1.350161 0.000000 -0.724227
v 1.311154 0.280000 -0.695257
v 1.503000 0.280000 0.000000
v 1.350161 0.000000 -0.724227
v 1.503000 0.280000 0.000000
v 1.550000 0.000000 0.000000
v 1.503000 0.280000 0.000000
v 1.230500 1.300000 0.015000
v 1.090673 1.300000 0.579443
v 1.503000 0.280000 0.000000
v 1.090673 1.300000 0.579443
v 1.337279 0.280000 0.668970
v 1.337279 0.280000 0.668970
v 1.090673 1.300000 0.579443
v 0.580917 1.300000 0.963841
v 1.337279 0.280000 0.668970
v 0.580917 1.300000 0.963841
v 0.733124 0.280000 1.124553
v 0.733124 0.280000 1.124553
v 0.580917 1.300000 0.963841
v -0.025000 1.300000 1.164002
v 0.733124 0.280000 1.124553
v -0.025000 1.300000 1.164002
v 0.015000 0.280000 1.361780
v 0.015000 0.280000 1.361780
v -0.025000 1.300000 1.164002
v -0.657647 1.300000 1.026956
v 0.015000 0.280000 1.361780
v -0.657647 1.300000 1.026956
v -0.734804 0.280000 1.199356
v -0.734804 0.280000 1.199356
v -0.657647 1.300000 1.026956
v -1.078979 1.300000 0.570053
v -0.734804 0.280000 1.199356
v -1.078979 1.300000 0.570053
v -1.234161 0.280000 0.657841
v -1.234161 0.280000 0.657841
v -1.078979 1.300000 0.570053
v -1.321968 1.300000 0.015000
v -1.234161 0.280000 0.657841
v -1.321968 1.300000 0.015000
v -1.522148 0.280000 0.000000
v -1.522148 0.280000 0.000000
v -1.321968 1.300000 0.015000
v -1.097755 1.300000 -0.567600
v -1.522148 0.280000 0.000000
v -1.097755 1.300000 -0.567600
v -1.256413 0.280000 -0.690488
v -1.256413 0.280000 -0.690488
v -1.097755 1.300000 -0.567600
v -0.643202 1.300000 -0.984661
v -1.256413 0.280000 -0.690488
v -0.643202 1.300000 -0.984661
v -0.717684 0.280000 -1.184784
v -0.717684 0.280000 -1.184784
v -0.643202 1.300000 -0.984661
v -0.025000 1.300000 -1.082567
v -0.717684 0.280000 -1.184784
v -0.025000 1.300000 -1.082567
v 0.015000 0.280000 -1.300821
v 0.015000 0.280000 -1.300821
v -0.025000 1.300000 -1.082567
v 0.584157 1.300000 -0.957615
v 0.015000 0.280000 -1.300821
v 0.584157 1.300000 -0.957615
v 0.736964 0.280000 -1.152729
v 0.736964 0.280000 -1.152729
v 0.584157 1.300000 -0.957615
v 1.068630 1.300000 -0.571623
v 0.736964 0.280000 -1.152729
v 1.068630 1.300000 -0.571623
v 1.311154 0.280000 -0.695257
v 1.311154 0.280000 -0.695257
v 1.068630 1.300000 -0.571623
v 1.230500 1.300000 0.015000
v 1.311154 0.280000 -0.695257
v 1.230500 1.300000 0.015000
v 1.503000 0.280000 0.000000
v 1.230500 1.300000 0.015000
v 0.896000 2.300000 0.025000
v 0.788972 2.300000 0.457043
v 1.230500 1.300000 0.015000
v 0.788972 2.300000 0.457043
v 1.090673 1.300000 0.579443
v 1.090673 1.300000 0.579443
v 0.788972 2.300000 0.457043
v 0.398789 2.300000 0.751274
v 1.090673 1.300000 0.579443
v 0.398789 2.300000 0.751274
v 0.580917 1.300000 0.963841
v 0.580917 1.300000 0.963841
v 0.398789 2.300000 0.751274
v -0.065000 2.300000 0.904483
v 0.580917 1.300000 0.963841
v -0.065000 2.300000 0.904483
v -0.025000 1.300000 1.164002
v -0.025000 1.300000 1.164002
v -0.065000 2.300000 0.904483
v -0.549248 2.300000 0.799584
v -0.025000 1.300000 1.164002
v -0.549248 2.300000 0.799584
v -0.657647 1.300000 1.026956
v -0.657647 1.300000 1.026956
v -0.549248 2.300000 0.799584
v -0.871750 2.300000 0.449855
v -0.657647 1.300000 1.026956
v -0.871750 2.300000 0.449855
v -1.078979 1.300000 0.570053
v -1.078979 1.300000 0.570053
v -0.871750 2.300000 0.449855
v -1.057741 2.300000 0.025000
v -1.078979 1.300000 0.570053
v -1.057741 2.300000 0.025000
v -1.321968 1.300000 0.015000
v -1.321968 1.300000 0.015000
v -1.057741 2.300000 0.025000
v -0.886121 2.300000 -0.420940
v -1.321968 1.300000 0.015000
v -0.886121 2.300000 -0.420940
v -1.097755 1.300000 -0.567600
v -1.097755 1.300000 -0.567600
v -0.886121 2.300000 -0.420940
v -0.538192 2.300000 -0.740173
v -1.097755 1.300000 -0.567600
v -0.538192 2.300000 -0.740173
v -0.643202 1.300000 -0.984661
v -0.643202 1.300000 -0.984661
v -0.538192 2.300000 -0.740173
v -0.065000 2.300000 -0.815113
v -0.643202 1.300000 -0.984661
v -0.065000 2.300000 -0.815113
v -0.025000 1.300000 -1.082567
v -0.025000 1.300000 -1.082567
v -0.065000 2.300000 -0.815113
v 0.401269 2.300000 -0.719471
v -0.025000 1.300000 -1.082567
v 0.401269 2.300000 -0.719471
v 0.584157 1.300000 -0.957615
v 0.584157 1.300000 -0.957615
v 0.401269 2.300000 -0.719471
v 0.772100 2.300000 -0.424020
v 0.584157 1.300000 -0.957615
v 0.772100 2.300000 -0.424020
v 1.068630 1.300000 -0.571623
v 1.068630 1.300000 -0.571623
v 0.772100 2.300000 -0.424020
v 0.896000 2.300000 0.025000
v 1.068630 1.300000 -0.571623
v 0.896000 2.300000 0.025000
v 1.230500 1.300000 0.015000
v 0.896000 2.300000 0.025000
v 0.571500 2.850000 0.015000
v 0.497271 2.850000 0.314643
v 0.896000 2.300000 0.025000
v 0.497271 2.850000 0.314643
v 0.788972 2.300000 0.457043
v 0.788972 2.300000 0.457043
v 0.497271 2.850000 0.314643
v 0.226660 2.850000 0.518706
v 0.788972 2.300000 0.457043
v 0.226660 2.850000 0.518706
v 0.398789 2.300000 0.751274
v 0.398789 2.300000 0.751274
v 0.226660 2.850000 0.518706
v -0.095000 2.850000 0.624964
v 0.398789 2.300000 0.751274
v -0.095000 2.850000 0.624964
v -0.065000 2.300000 0.904483
v -0.065000 2.300000 0.904483
v -0.095000 2.850000 0.624964
v -0.430850 2.850000 0.552211
v -0.065000 2.300000 0.904483
v -0.430850 2.850000 0.552211
v -0.549248 2.300000 0.799584
v -0.549248 2.300000 0.799584
v -0.430850 2.850000 0.552211
v -0.654520 2.850000 0.309658
v -0.549248 2.300000 0.799584
v -0.654520 2.850000 0.309658
v -0.871750 2.300000 0.449855
v -0.871750 2.300000 0.449855
v -0.654520 2.850000 0.309658
v -0.783514 2.850000 0.015000
v -0.871750 2.300000 0.449855
v -0.783514 2.850000 0.015000
v -1.057741 2.300000 0.025000
v -1.057741 2.300000 0.025000
v -0.783514 2.850000 0.015000
v -0.664487 2.850000 -0.294281
v -1.057741 2.300000 0.025000
v -0.664487 2.850000 -0.294281
v -0.886121 2.300000 -0.420940
v -0.886121 2.300000 -0.420940
v -0.664487 2.850000 -0.294281
v -0.423181 2.850000 -0.515684
v -0.886121 2.300000 -0.420940
v -0.423181 2.850000 -0.515684
v -0.538192 2.300000 -0.740173
v -0.538192 2.300000 -0.740173
v -0.423181 2.850000 -0.515684
v -0.095000 2.850000 -0.567659
v -0.538192 2.300000 -0.740173
v -0.095000 2.850000 -0.567659
v -0.065000 2.300000 -0.815113
v -0.065000 2.300000 -0.815113
v -0.095000 2.850000 -0.567659
v 0.228380 2.850000 -0.501326
v -0.065000 2.300000 -0.815113
v 0.228380 2.850000 -0.501326
v 0.401269 2.300000 -0.719471
v 0.401269 2.300000 -0.719471
v 0.228380 2.850000 -0.501326
v 0.485569 2.850000 -0.296417
v 0.401269 2.300000 -0.719471
v 0.485569 2.850000 -0.296417
v 0.772100 2.300000 -0.424020
v 0.772100 2.300000 -0.424020
v 0.485569 2.850000 -0.296417
v 0.571500 2.850000 0.015000
v 0.772100 2.300000 -0.424020
v 0.571500 2.850000 0.015000
v 0.896000 2.300000 0.025000
v 0.571500 2.850000 0.015000
v 0.205000 3.080000 0.010000
v 0.170475 3.080000 0.149369
v 0.571500 2.850000 0.015000
v 0.170475 3.080000 0.149369
v 0.497271 2.850000 0.314643
v 0.497271 2.850000 0.314643
v 0.170475 3.080000 0.149369
v 0.044609 3.080000 0.244282
v 0.497271 2.850000 0.314643
v 0.044609 3.080000 0.244282
v 0.226660 2.850000 0.518706
v 0.226660 2.850000 0.518706
v 0.044609 3.080000 0.244282
v -0.105000 3.080000 0.293704
v 0.226660 2.850000 0.518706
v -0.105000 3.080000 0.293704
v -0.095000 2.850000 0.624964
v -0.095000 2.850000 0.624964
v -0.105000 3.080000 0.293704
v -0.261209 3.080000 0.259866
v -0.095000 2.850000 0.624964
v -0.261209 3.080000 0.259866
v -0.430850 2.850000 0.552211
v -0.430850 2.850000 0.552211
v -0.261209 3.080000 0.259866
v -0.365242 3.080000 0.147050
v -0.430850 2.850000 0.552211
v -0.365242 3.080000 0.147050
v -0.654520 2.850000 0.309658
v -0.654520 2.850000 0.309658
v -0.365242 3.080000 0.147050
v -0.425239 3.080000 0.010000
v -0.654520 2.850000 0.309658
v -0.425239 3.080000 0.010000
v -0.783514 2.850000 0.015000
v -0.783514 2.850000 0.015000
v -0.425239 3.080000 0.010000
v -0.369878 3.080000 -0.133852
v -0.783514 2.850000 0.015000
v -0.369878 3.080000 -0.133852
v -0.664487 2.850000 -0.294281
v -0.664487 2.850000 -0.294281
v -0.369878 3.080000 -0.133852
v -0.257642 3.080000 -0.236830
v -0.664487 2.850000 -0.294281
v -0.257642 3.080000 -0.236830
v -0.423181 2.850000 -0.515684
v -0.423181 2.850000 -0.515684
v -0.257642 3.080000 -0.236830
v -0.105000 3.080000 -0.261004
v -0.423181 2.850000 -0.515684
v -0.105000 3.080000 -0.261004
v -0.095000 2.850000 -0.567659
v -0.095000 2.850000 -0.567659
v -0.105000 3.080000 -0.261004
v 0.045409 3.080000 -0.230152
v -0.095000 2.850000 -0.567659
v 0.045409 3.080000 -0.230152
v 0.228380 2.850000 -0.501326
v 0.228380 2.850000 -0.501326
v 0.045409 3.080000 -0.230152
v 0.165032 3.080000 -0.134845
v 0.228380 2.850000 -0.501326
v 0.165032 3.080000 -0.134845
v 0.485569 2.850000 -0.296417
v 0.485569 2.850000 -0.296417
v 0.165032 3.080000 -0.134845
v 0.205000 3.080000 0.010000
v 0.485569 2.850000 -0.296417
v 0.205000 3.080000 0.010000
v 0.571500 2.850000 0.015000
v 1.550000 0.000000 0.000000
v 1.377374 0.000000 0.696843
v 0.748046 0.000000 1.171409
v 1.550000 0.000000 0.000000
v 0.748046 0.000000 1.171409
v 0.000000 0.000000 1.418521
v 1.550000 0.000000 0.000000
v 0.000000 0.000000 1.418521
v -0.781046 0.000000 1.249329
v 1.550000 0.000000 0.000000
v -0.781046 0.000000 1.249329
v -1.301209 0.000000 0.685251
v 1.550000 0.000000 0.000000
v -1.301209 0.000000 0.685251
v -1.601195 0.000000 0.000000
v 1.550000 0.000000 0.000000
v -1.601195 0.000000 0.000000
v -1.324389 0.000000 -0.719259
v 1.550000 0.000000 0.000000
v -1.324389 0.000000 -0.719259
v -0.763212 0.000000 -1.234150
v 1.550000 0.000000 0.000000
v -0.763212 0.000000 -1.234150
v -0.000000 0.000000 -1.355021
v 1.550000 0.000000 0.000000
v -0.000000 0.000000 -1.355021
v 0.752046 0.000000 -1.200759
v 1.550000 0.000000 0.000000
v 0.752046 0.000000 -1.200759
v 1.350161 0.000000 -0.724227
v 0.205000 3.080000 0.010000
v -0.105000 3.140000 0.010000
v 0.170475 3.080000 0.149369
v 0.170475 3.080000 0.149369
v -0.105000 3.140000 0.010000
v 0.044609 3.080000 0.244282
v 0.044609 3.080000 0.244282
v -0.105000 3.140000 0.010000
v -0.105000 3.080000 0.293704
v -0.105000 3.080000 0.293704
v -0.105000 3.140000 0.010000
v -0.261209 3.080000 0.259866
v -0.261209 3.080000 0.259866
v -0.105000 3.140000 0.010000
v -0.365242 3.080000 0.147050
v -0.365242 3.080000 0.147050
v -0.105000 3.140000 0.010000
v -0.425239 3.080000 0.010000
v -0.425239 3.080000 0.010000
v -0.105000 3.140000 0.010000
v -0.369878 3.080000 -0.133852
v -0.369878 3.080000 -0.133852
v -0.105000 3.140000 0.010000
v -0.257642 3.080000 -0.236830
v -0.257642 3.080000 -0.236830
v -0.105000 3.140000 0.010000
v -0.105000 3.080000 -0.261004
v -0.105000 3.080000 -0.261004
v -0.105000 3.140000 0.010000
v 0.045409 3.080000 -0.230152
v 0.045409 3.080000 -0.230152
v -0.105000 3.140000 0.010000
v 0.165032 3.080000 -0.134845
v 0.165032 3.080000 -0.134845
v -0.105000 3.140000 0.010000
v 0.205000 3.080000 0.010000
vt 0.040000 0.040000
vt 0.040000 0.120255
vt 0.115000 0.120255
vt 0.040000 0.040000
vt 0.115000 0.120255
vt 0.115000 0.040000
vt 0.115000 0.040000
vt 0.115000 0.120255
vt 0.190000 0.120255
vt 0.115000 0.040000
vt 0.190000 0.120255
vt 0.190000 0.040000
vt 0.190000 0.040000
vt 0.190000 0.120255
vt 0.265000 0.120255
vt 0.190000 0.040000
vt 0.265000 0.120255
vt 0.265000 0.040000
vt 0.265000 0.040000
vt 0.265000 0.120255
vt 0.340000 0.120255
vt 0.265000 0.040000
vt 0.340000 0.120255
vt 0.340000 0.040000
vt 0.340000 0.040000
vt 0.340000 0.120255
vt 0.415000 0.120255
vt 0.340000 0.040000
vt 0.415000 0.120255
vt 0.415000 0.040000
vt 0.415000 0.040000
vt 0.415000 0.120255
vt 0.490000 0.120255
vt 0.415000 0.040000
vt 0.490000 0.120255
vt 0.490000 0.040000
vt 0.490000 0.040000
vt 0.490000 0.120255
vt 0.565000 0.120255
vt 0.490000 0.040000
vt 0.565000 0.120255
vt 0.565000 0.040000
vt 0.565000 0.040000
vt 0.565000 0.120255
vt 0.640000 0.120255
vt 0.565000 0.040000
vt 0.640000 0.120255
vt 0.640000 0.040000
vt 0.640000 0.040000
vt 0.640000 0.120255
vt 0.715000 0.120255
vt 0.640000 0.040000
vt 0.715000 0.120255
vt 0.715000 0.040000
vt 0.715000 0.040000
vt 0.715000 0.120255
vt 0.790000 0.120255
vt 0.715000 0.040000
vt 0.790000 0.120255
vt 0.790000 0.040000
vt 0.790000 0.040000
vt 0.790000 0.120255
vt 0.865000 0.120255
vt 0.790000 0.040000
vt 0.865000 0.120255
vt 0.865000 0.040000
vt 0.865000 0.040000
vt 0.865000 0.120255
vt 0.940000 0.120255
vt 0.865000 0.040000
vt 0.940000 0.120255
vt 0.940000 0.040000
vt 0.040000 0.120255
vt 0.040000 0.412611
vt 0.115000 0.412611
vt 0.040000 0.120255
vt 0.115000 0.412611
vt 0.115000 0.120255
vt 0.115000 0.120255
vt 0.115000 0.412611
vt 0.190000 0.412611
vt 0.115000 0.120255
vt 0.190000 0.412611
vt 0.190000 0.120255
vt 0.190000 0.120255
vt 0.190000 0.412611
vt 0.265000 0.412611
vt 0.190000 0.120255
vt 0.265000 0.412611
vt 0.265000 0.120255
vt 0.265000 0.120255
vt 0.265000 0.412611
vt 0.340000 0.412611
vt 0.265000 0.120255
vt 0.340000 0.412611
vt 0.340000 0.120255
vt 0.340000 0.120255
vt 0.340000 0.412611
vt 0.415000 0.412611
vt 0.340000 0.120255
vt 0.415000 0.412611
vt 0.415000 0.120255
vt 0.415000 0.120255
vt 0.415000 0.412611
vt 0.490000 0.412611
vt 0.415000 0.120255
vt 0.490000 0.412611
vt 0.490000 0.120255
vt 0.490000 0.120255
vt 0.490000 0.412611
vt 0.565000 0.412611
vt 0.490000 0.120255
vt 0.565000 0.412611
vt 0.565000 0.120255
vt 0.565000 0.120255
vt 0.565000 0.412611
vt 0.640000 0.412611
vt 0.565000 0.120255
vt 0.640000 0.412611
vt 0.640000 0.120255
vt 0.640000 0.120255
vt 0.640000 0.412611
vt 0.715000 0.412611
vt 0.640000 0.120255
vt 0.715000 0.412611
vt 0.715000 0.120255
vt 0.715000 0.120255
vt 0.715000 0.412611
vt 0.790000 0.412611
vt 0.715000 0.120255
vt 0.790000 0.412611
vt 0.790000 0.120255
vt 0.790000 0.120255
vt 0.790000 0.412611
vt 0.865000 0.412611
vt 0.790000 0.120255
vt 0.865000 0.412611
vt 0.865000 0.120255
vt 0.865000 0.120255
vt 0.865000 0.412611
vt 0.940000 0.412611
vt 0.865000 0.120255
vt 0.940000 0.412611
vt 0.940000 0.120255
vt 0.040000 0.412611
vt 0.040000 0.699236
vt 0.115000 0.699236
vt 0.040000 0.412611
vt 0.115000 0.699236
vt 0.115000 0.412611
vt 0.115000 0.412611
vt 0.115000 0.699236
vt 0.190000 0.699236
vt 0.115000 0.412611
vt 0.190000 0.699236
vt 0.190000 0.412611
vt 0.190000 0.412611
vt 0.190000 0.699236
vt 0.265000 0.699236
vt 0.190000 0.412611
vt 0.265000 0.699236
vt 0.265000 0.412611
vt 0.265000 0.412611
vt 0.265000 0.699236
vt 0.340000 0.699236
vt 0.265000 0.412611
vt 0.340000 0.699236
vt 0.340000 0.412611
vt 0.340000 0.412611
vt 0.340000 0.699236
vt 0.415000 0.699236
vt 0.340000 0.412611
vt 0.415000 0.699236
vt 0.415000 0.412611
vt 0.415000 0.412611
vt 0.415000 0.699236
vt 0.490000 0.699236
vt 0.415000 0.412611
vt 0.490000 0.699236
vt 0.490000 0.412611
vt 0.490000 0.412611
vt 0.490000 0.699236
vt 0.565000 0.699236
vt 0.490000 0.412611
vt 0.565000 0.699236
vt 0.565000 0.412611
vt 0.565000 0.412611
vt 0.565000 0.699236
vt 0.640000 0.699236
vt 0.565000 0.412611
vt 0.640000 0.699236
vt 0.640000 0.412611
vt 0.640000 0.412611
vt 0.640000 0.699236
vt 0.715000 0.699236
vt 0.640000 0.412611
vt 0.715000 0.699236
vt 0.715000 0.412611
vt 0.715000 0.412611
vt 0.715000 0.699236
vt 0.790000 0.699236
vt 0.715000 0.412611
vt 0.790000 0.699236
vt 0.790000 0.412611
vt 0.790000 0.412611
vt 0.790000 0.699236
vt 0.865000 0.699236
vt 0.790000 0.412611
vt 0.865000 0.699236
vt 0.865000 0.412611
vt 0.865000 0.412611
vt 0.865000 0.699236
vt 0.940000 0.699236
vt 0.865000 0.412611
vt 0.940000 0.699236
vt 0.940000 0.412611
vt 0.040000 0.699236
vt 0.040000 0.856879
vt 0.115000 0.856879
vt 0.040000 0.699236
vt 0.115000 0.856879
vt 0.115000 0.699236
vt 0.115000 0.699236
vt 0.115000 0.856879
vt 0.190000 0.856879
vt 0.115000 0.699236
vt 0.190000 0.856879
vt 0.190000 0.699236
vt 0.190000 0.699236
vt 0.190000 0.856879
vt 0.265000 0.856879
vt 0.190000 0.699236
vt 0.265000 0.856879
vt 0.265000 0.699236
vt 0.265000 0.699236
vt 0.265000 0.856879
vt 0.340000 0.856879
vt 0.265000 0.699236
vt 0.340000 0.856879
vt 0.340000 0.699236
vt 0.340000 0.699236
vt 0.340000 0.856879
vt 0.415000 0.856879
vt 0.340000 0.699236
vt 0.415000 0.856879
vt 0.415000 0.699236
vt 0.415000 0.699236
vt 0.415000 0.856879
vt 0.490000 0.856879
vt 0.415000 0.699236
vt 0.490000 0.856879
vt 0.490000 0.699236
vt 0.490000 0.699236
vt 0.490000 0.856879
vt 0.565000 0.856879
vt 0.490000 0.699236
vt 0.565000 0.856879
vt 0.565000 0.699236
vt 0.565000 0.699236
vt 0.565000 0.856879
vt 0.640000 0.856879
vt 0.565000 0.699236
vt 0.640000 0.856879
vt 0.640000 0.699236
vt 0.640000 0.699236
vt 0.640000 0.856879
vt 0.715000 0.856879
vt 0.640000 0.699236
vt 0.715000 0.856879
vt 0.715000 0.699236
vt 0.715000 0.699236
vt 0.715000 0.856879
vt 0.790000 0.856879
vt 0.715000 0.699236
vt 0.790000 0.856879
vt 0.790000 0.699236
vt 0.790000 0.699236
vt 0.790000 0.856879
vt 0.865000 0.856879
vt 0.790000 0.699236
vt 0.865000 0.856879
vt 0.865000 0.699236
vt 0.865000 0.699236
vt 0.865000 0.856879
vt 0.940000 0.856879
vt 0.865000 0.699236
vt 0.940000 0.856879
vt 0.940000 0.699236
vt 0.040000 0.856879
vt 0.040000 0.922803
vt 0.115000 0.922803
vt 0.040000 0.856879
vt 0.115000 0.922803
vt 0.115000 0.856879
vt 0.115000 0.856879
vt 0.115000 0.922803
vt 0.190000 0.922803
vt 0.115000 0.856879
vt 0.190000 0.922803
vt 0.190000 0.856879
vt 0.190000 0.856879
vt 0.190000 0.922803
vt 0.265000 0.922803
vt 0.190000 0.856879
vt 0.265000 0.922803
vt 0.265000 0.856879
vt 0.265000 0.856879
vt 0.265000 0.922803
vt 0.340000 0.922803
vt 0.265000 0.856879
vt 0.340000 0.922803
vt 0.340000 0.856879
vt 0.340000 0.856879
vt 0.340000 0.922803
vt 0.415000 0.922803
vt 0.340000 0.856879
vt 0.415000 0.922803
vt 0.415000 0.856879
vt 0.415000 0.856879
vt 0.415000 0.922803
vt 0.490000 0.922803
vt 0.415000 0.856879
vt 0.490000 0.922803
vt 0.490000 0.856879
vt 0.490000 0.856879
vt 0.490000 0.922803
vt 0.565000 0.922803
vt 0.490000 0.856879
vt 0.565000 0.922803
vt 0.565000 0.856879
vt 0.565000 0.856879
vt 0.565000 0.922803
vt 0.640000 0.922803
vt 0.565000 0.856879
vt 0.640000 0.922803
vt 0.640000 0.856879
vt 0.640000 0.856879
vt 0.640000 0.922803
vt 0.715000 0.922803
vt 0.640000 0.856879
vt 0.715000 0.922803
vt 0.715000 0.856879
vt 0.715000 0.856879
vt 0.715000 0.922803
vt 0.790000 0.922803
vt 0.715000 0.856879
vt 0.790000 0.922803
vt 0.790000 0.856879
vt 0.790000 0.856879
vt 0.790000 0.922803
vt 0.865000 0.922803
vt 0.790000 0.856879
vt 0.865000 0.922803
vt 0.865000 0.856879
vt 0.865000 0.856879
vt 0.865000 0.922803
vt 0.940000 0.922803
vt 0.865000 0.856879
vt 0.940000 0.922803
vt 0.940000 0.856879
vt 0.823056 0.470000
vt 0.783735 0.628725
vt 0.640388 0.736821
vt 0.823056 0.470000
vt 0.640388 0.736821
vt 0.470000 0.793108
vt 0.823056 0.470000
vt 0.470000 0.793108
vt 0.292095 0.754569
vt 0.823056 0.470000
vt 0.292095 0.754569
vt 0.173614 0.626085
vt 0.823056 0.470000
vt 0.173614 0.626085
vt 0.105283 0.470000
vt 0.823056 0.470000
vt 0.105283 0.470000
vt 0.168334 0.306169
vt 0.823056 0.470000
vt 0.168334 0.306169
vt 0.296157 0.188888
vt 0.823056 0.470000
vt 0.296157 0.188888
vt 0.470000 0.161356
vt 0.823056 0.470000
vt 0.470000 0.161356
vt 0.641299 0.196494
vt 0.823056 0.470000
vt 0.641299 0.196494
vt 0.777537 0.305037
vt 0.040000 0.923000
vt 0.077500 0.940000
vt 0.115000 0.923000
vt 0.115000 0.923000
vt 0.152500 0.940000
vt 0.190000 0.923000
vt 0.190000 0.923000
vt 0.227500 0.940000
vt 0.265000 0.923000
vt 0.265000 0.923000
vt 0.302500 0.940000
vt 0.340000 0.923000
vt 0.340000 0.923000
vt 0.377500 0.940000
vt 0.415000 0.923000
vt 0.415000 0.923000
vt 0.452500 0.940000
vt 0.490000 0.923000
vt 0.490000 0.923000
vt 0.527500 0.940000
vt 0.565000 0.923000
vt 0.565000 0.923000
vt 0.602500 0.940000
vt 0.640000 0.923000
vt 0.640000 0.923000
vt 0.677500 0.940000
vt 0.715000 0.923000
vt 0.715000 0.923000
vt 0.752500 0.940000
vt 0.790000 0.923000
vt 0.790000 0.923000
vt 0.827500 0.940000
vt 0.865000 0.923000
vt 0.865000 0.923000
vt 0.902500 0.940000
vt 0.940000 0.923000
vn 0.958027 0.160812 0.237328
vn 0.958027 0.160812 0.237328
vn 0.958027 0.160812 0.237328
vn 0.958027 0.160812 0.237328
vn 0.958027 0.160812 0.237328
vn 0.958027 0.160812 0.237328
vn 0.593986 0.163471 0.787692
vn 0.593986 0.163471 0.787692
vn 0.593986 0.163471 0.787692
vn 0.593986 0.163471 0.787692
vn 0.593986 0.163471 0.787692
vn 0.593986 0.163471 0.787692
vn 0.308943 0.172968 0.935220
vn 0.308943 0.172968 0.935220
vn 0.308943 0.172968 0.935220
vn 0.308943 0.172968 0.935220
vn 0.308943 0.172968 0.935220
vn 0.308943 0.172968 0.935220
vn -0.207218 0.204949 0.956586
vn -0.207218 0.204949 0.956586
vn -0.207218 0.204949 0.956586
vn -0.207218 0.204949 0.956586
vn -0.207218 0.204949 0.956586
vn -0.207218 0.204949 0.956586
vn -0.714454 0.235577 0.658832
vn -0.714454 0.235577 0.658832
vn -0.714454 0.235577 0.658832
vn -0.714454 0.235577 0.658832
vn -0.714454 0.235577 0.658832
vn -0.714454 0.235577 0.658832
vn -0.886886 0.250380 0.388257
vn -0.886886 0.250380 0.388257
vn -0.886886 0.250380 0.388257
vn -0.886886 0.250380 0.388257
vn -0.886886 0.250380 0.388257
vn -0.886886 0.250380 0.388257
vn -0.902473 0.254781 -0.347317
vn -0.902473 0.254781 -0.347317
vn -0.902473 0.254781 -0.347317
vn -0.902473 0.254781 -0.347317
vn -0.902473 0.254781 -0.347317
vn -0.902473 0.254781 -0.347317
vn -0.657422 0.233226 -0.716520
vn -0.657422 0.233226 -0.716520
vn -0.657422 0.233226 -0.716520
vn -0.657422 0.233226 -0.716520
vn -0.657422 0.233226 -0.716520
vn -0.657422 0.233226 -0.716520
vn -0.153398 0.195712 -0.968590
vn -0.153398 0.195712 -0.968590
vn -0.153398 0.195712 -0.968590
vn -0.153398 0.195712 -0.968590
vn -0.153398 0.195712 -0.968590
vn -0.153398 0.195712 -0.968590
vn 0.197801 0.176067 -0.964300
vn 0.197801 0.176067 -0.964300
vn 0.197801 0.176067 -0.964300
vn 0.197801 0.176067 -0.964300
vn 0.197801 0.176067 -0.964300
vn 0.197801 0.176067 -0.964300
vn 0.614547 0.165416 -0.771343
vn 0.614547 0.165416 -0.771343
vn 0.614547 0.165416 -0.771343
vn 0.614547 0.165416 -0.771343
vn 0.614547 0.165416 -0.771343
vn 0.614547 0.165416 -0.771343
vn 0.951598 0.159732 -0.262579
vn 0.951598 0.159732 -0.262579
vn 0.951598 0.159732 -0.262579
vn 0.951598 0.159732 -0.262579
vn 0.951598 0.159732 -0.262579
vn 0.951598 0.159732 -0.262579
vn 0.940385 0.247804 0.232958
vn 0.940385 0.247804 0.232958
vn 0.940385 0.247804 0.232958
vn 0.940385 0.247804 0.232958
vn 0.940385 0.247804 0.232958
vn 0.940385 0.247804 0.232958
vn 0.588555 0.210800 0.780491
vn 0.588555 0.210800 0.780491
vn 0.588555 0.210800 0.780491
vn 0.588555 0.210800 0.780491
vn 0.588555 0.210800 0.780491
vn 0.588555 0.210800 0.780491
vn 0.307790 0.192733 0.931729
vn 0.307790 0.192733 0.931729
vn 0.307790 0.192733 0.931729
vn 0.307790 0.192733 0.931729
vn 0.307790 0.192733 0.931729
vn 0.307790 0.192733 0.931729
vn -0.208320 0.178299 0.961672
vn -0.208320 0.178299 0.961672
vn -0.208320 0.178299 0.961672
vn -0.208320 0.178299 0.961672
vn -0.208320 0.178299 0.961672
vn -0.208320 0.178299 0.961672
vn -0.724723 0.167777 0.668302
vn -0.724723 0.167777 0.668302
vn -0.724723 0.167777 0.668302
vn -0.724723 0.167777 0.668302
vn -0.724723 0.167777 0.668302
vn -0.724723 0.167777 0.668302
vn -0.902522 0.171313 0.395103
vn -0.902522 0.171313 0.395103
vn -0.902522 0.171313 0.395103
vn -0.902522 0.171313 0.395103
vn -0.902522 0.171313 0.395103
vn -0.902522 0.171313 0.395103
vn -0.917131 0.185181 -0.352958
vn -0.917131 0.185181 -0.352958
vn -0.917131 0.185181 -0.352958
vn -0.917131 0.185181 -0.352958
vn -0.917131 0.185181 -0.352958
vn -0.917131 0.185181 -0.352958
vn -0.663701 0.190387 -0.723363
vn -0.663701 0.190387 -0.723363
vn -0.663701 0.190387 -0.723363
vn -0.663701 0.190387 -0.723363
vn -0.663701 0.190387 -0.723363
vn -0.663701 0.190387 -0.723363
vn -0.153230 0.201017 -0.967529
vn -0.153230 0.201017 -0.967529
vn -0.153230 0.201017 -0.967529
vn -0.153230 0.201017 -0.967529
vn -0.153230 0.201017 -0.967529
vn -0.153230 0.201017 -0.967529
vn 0.196350 0.212521 -0.957226
vn 0.196350 0.212521 -0.957226
vn 0.196350 0.212521 -0.957226
vn 0.196350 0.212521 -0.957226
vn 0.196350 0.212521 -0.957226
vn 0.196350 0.212521 -0.957226
vn 0.605516 0.236093 -0.760007
vn 0.605516 0.236093 -0.760007
vn 0.605516 0.236093 -0.760007
vn 0.605516 0.236093 -0.760007
vn 0.605516 0.236093 -0.760007
vn 0.605516 0.236093 -0.760007
vn 0.932628 0.252942 -0.257344
vn 0.932628 0.252942 -0.257344
vn 0.932628 0.252942 -0.257344
vn 0.932628 0.252942 -0.257344
vn 0.932628 0.252942 -0.257344
vn 0.932628 0.252942 -0.257344
vn 0.923866 0.306745 0.228865
vn 0.923866 0.306745 0.228865
vn 0.923866 0.306745 0.228865
vn 0.923866 0.306745 0.228865
vn 0.923866 0.306745 0.228865
vn 0.923866 0.306745 0.228865
vn 0.579880 0.269074 0.768986
vn 0.579880 0.269074 0.768986
vn 0.579880 0.269074 0.768986
vn 0.579880 0.269074 0.768986
vn 0.579880 0.269074 0.768986
vn 0.579880 0.269074 0.768986
vn 0.303654 0.250698 0.919209
vn 0.303654 0.250698 0.919209
vn 0.303654 0.250698 0.919209
vn 0.303654 0.250698 0.919209
vn 0.303654 0.250698 0.919209
vn 0.303654 0.250698 0.919209
vn -0.205623 0.238116 0.949221
vn -0.205623 0.238116 0.949221
vn -0.205623 0.238116 0.949221
vn -0.205623 0.238116 0.949221
vn -0.205623 0.238116 0.949221
vn -0.205623 0.238116 0.949221
vn -0.715835 0.227685 0.660106
vn -0.715835 0.227685 0.660106
vn -0.715835 0.227685 0.660106
vn -0.715835 0.227685 0.660106
vn -0.715835 0.227685 0.660106
vn -0.715835 0.227685 0.660106
vn -0.891164 0.231569 0.390131
vn -0.891164 0.231569 0.390131
vn -0.891164 0.231569 0.390131
vn -0.891164 0.231569 0.390131
vn -0.891164 0.231569 0.390131
vn -0.891164 0.231569 0.390131
vn -0.905367 0.242707 -0.348430
vn -0.905367 0.242707 -0.348430
vn -0.905367 0.242707 -0.348430
vn -0.905367 0.242707 -0.348430
vn -0.905367 0.242707 -0.348430
vn -0.905367 0.242707 -0.348430
vn -0.655704 0.243579 -0.714648
vn -0.655704 0.243579 -0.714648
vn -0.655704 0.243579 -0.714648
vn -0.655704 0.243579 -0.714648
vn -0.655704 0.243579 -0.714648
vn -0.655704 0.243579 -0.714648
vn -0.151466 0.249733 -0.956395
vn -0.151466 0.249733 -0.956395
vn -0.151466 0.249733 -0.956395
vn -0.151466 0.249733 -0.956395
vn -0.151466 0.249733 -0.956395
vn -0.151466 0.249733 -0.956395
vn 0.193991 0.260699 -0.945729
vn 0.193991 0.260699 -0.945729
vn 0.193991 0.260699 -0.945729
vn 0.193991 0.260699 -0.945729
vn 0.193991 0.260699 -0.945729
vn 0.193991 0.260699 -0.945729
vn 0.596816 0.287542 -0.749087
vn 0.596816 0.287542 -0.749087
vn 0.596816 0.287542 -0.749087
vn 0.596816 0.287542 -0.749087
vn 0.596816 0.287542 -0.749087
vn 0.596816 0.287542 -0.749087
vn 0.916743 0.309180 -0.252961
vn 0.916743 0.309180 -0.252961
vn 0.916743 0.309180 -0.252961
vn 0.916743 0.309180 -0.252961
vn 0.916743 0.309180 -0.252961
vn 0.916743 0.309180 -0.252961
vn 0.840721 0.499812 0.208268
vn 0.840721 0.499812 0.208268
vn 0.840721 0.499812 0.208268
vn 0.840721 0.499812 0.208268
vn 0.840721 0.499812 0.208268
vn 0.840721 0.499812 0.208268
vn 0.532855 0.465560 0.706626
vn 0.532855 0.465560 0.706626
vn 0.532855 0.465560 0.706626
vn 0.532855 0.465560 0.706626
vn 0.532855 0.465560 0.706626
vn 0.532855 0.465560 0.706626
vn 0.280592 0.446982 0.849397
vn 0.280592 0.446982 0.849397
vn 0.280592 0.446982 0.849397
vn 0.280592 0.446982 0.849397
vn 0.280592 0.446982 0.849397
vn 0.280592 0.446982 0.849397
vn -0.190479 0.436492 0.879314
vn -0.190479 0.436492 0.879314
vn -0.190479 0.436492 0.879314
vn -0.190479 0.436492 0.879314
vn -0.190479 0.436492 0.879314
vn -0.190479 0.436492 0.879314
vn -0.667069 0.420269 0.615136
vn -0.667069 0.420269 0.615136
vn -0.667069 0.420269 0.615136
vn -0.667069 0.420269 0.615136
vn -0.667069 0.420269 0.615136
vn -0.667069 0.420269 0.615136
vn -0.830958 0.420925 0.363774
vn -0.830958 0.420925 0.363774
vn -0.830958 0.420925 0.363774
vn -0.830958 0.420925 0.363774
vn -0.830958 0.420925 0.363774
vn -0.830958 0.420925 0.363774
vn -0.848257 0.417001 -0.326451
vn -0.848257 0.417001 -0.326451
vn -0.848257 0.417001 -0.326451
vn -0.848257 0.417001 -0.326451
vn -0.848257 0.417001 -0.326451
vn -0.848257 0.417001 -0.326451
vn -0.618329 0.404364 -0.673913
vn -0.618329 0.404364 -0.673913
vn -0.618329 0.404364 -0.673913
vn -0.618329 0.404364 -0.673913
vn -0.618329 0.404364 -0.673913
vn -0.618329 0.404364 -0.673913
vn -0.143395 0.399546 -0.905429
vn -0.143395 0.399546 -0.905429
vn -0.143395 0.399546 -0.905429
vn -0.143395 0.399546 -0.905429
vn -0.143395 0.399546 -0.905429
vn -0.143395 0.399546 -0.905429
vn 0.183125 0.411653 -0.892753
vn 0.183125 0.411653 -0.892753
vn 0.183125 0.411653 -0.892753
vn 0.183125 0.411653 -0.892753
vn 0.183125 0.411653 -0.892753
vn 0.183125 0.411653 -0.892753
vn 0.555986 0.451552 -0.697840
vn 0.555986 0.451552 -0.697840
vn 0.555986 0.451552 -0.697840
vn 0.555986 0.451552 -0.697840
vn 0.555986 0.451552 -0.697840
vn 0.555986 0.451552 -0.697840
vn 0.839671 0.491193 -0.231694
vn 0.839671 0.491193 -0.231694
vn 0.839671 0.491193 -0.231694
vn 0.839671 0.491193 -0.231694
vn 0.839671 0.491193 -0.231694
vn 0.839671 0.491193 -0.231694
vn 0.525753 0.840607 0.130243
vn 0.525753 0.840607 0.130243
vn 0.525753 0.840607 0.130243
vn 0.525753 0.840607 0.130243
vn 0.525753 0.840607 0.130243
vn 0.525753 0.840607 0.130243
vn 0.345169 0.819353 0.457733
vn 0.345169 0.819353 0.457733
vn 0.345169 0.819353 0.457733
vn 0.345169 0.819353 0.457733
vn 0.345169 0.819353 0.457733
vn 0.345169 0.819353 0.457733
vn 0.183949 0.809994 0.556841
vn 0.183949 0.809994 0.556841
vn 0.183949 0.809994 0.556841
vn 0.183949 0.809994 0.556841
vn 0.183949 0.809994 0.556841
vn 0.183949 0.809994 0.556841
vn -0.123148 0.813420 0.568491
vn -0.123148 0.813420 0.568491
vn -0.123148 0.813420 0.568491
vn -0.123148 0.813420 0.568491
vn -0.123148 0.813420 0.568491
vn -0.123148 0.813420 0.568491
vn -0.426509 0.814495 0.393304
vn -0.426509 0.814495 0.393304
vn -0.426509 0.814495 0.393304
vn -0.426509 0.814495 0.393304
vn -0.426509 0.814495 0.393304
vn -0.426509 0.814495 0.393304
vn -0.523577 0.820567 0.229209
vn -0.523577 0.820567 0.229209
vn -0.523577 0.820567 0.229209
vn -0.523577 0.820567 0.229209
vn -0.523577 0.820567 0.229209
vn -0.523577 0.820567 0.229209
vn -0.530850 0.822473 -0.204297
vn -0.530850 0.822473 -0.204297
vn -0.530850 0.822473 -0.204297
vn -0.530850 0.822473 -0.204297
vn -0.530850 0.822473 -0.204297
vn -0.530850 0.822473 -0.204297
vn -0.396710 0.809738 -0.432372
vn -0.396710 0.809738 -0.432372
vn -0.396710 0.809738 -0.432372
vn -0.396710 0.809738 -0.432372
vn -0.396710 0.809738 -0.432372
vn -0.396710 0.809738 -0.432372
vn -0.094910 0.794890 -0.599285
vn -0.094910 0.794890 -0.599285
vn -0.094910 0.794890 -0.599285
vn -0.094910 0.794890 -0.599285
vn -0.094910 0.794890 -0.599285
vn -0.094910 0.794890 -0.599285
vn 0.121642 0.795948 -0.593017
vn 0.121642 0.795948 -0.593017
vn 0.121642 0.795948 -0.593017
vn 0.121642 0.795948 -0.593017
vn 0.121642 0.795948 -0.593017
vn 0.121642 0.795948 -0.593017
vn 0.359150 0.817194 -0.450783
vn 0.359150 0.817194 -0.450783
vn 0.359150 0.817194 -0.450783
vn 0.359150 0.817194 -0.450783
vn 0.359150 0.817194 -0.450783
vn 0.359150 0.817194 -0.450783
vn 0.527322 0.837114 -0.145506
vn 0.527322 0.837114 -0.145506
vn 0.527322 0.837114 -0.145506
vn 0.527322 0.837114 -0.145506
vn 0.527322 0.837114 -0.145506
vn 0.527322 0.837114 -0.145506
vn 0.000000 -1.000000 0.000000
vn 0.000000 -1.000000 0.000000
vn 0.000000 -1.000000 0.000000
vn 0.000000 -1.000000 0.000000
vn 0.000000 -1.000000 0.000000
vn 0.000000 -1.000000 0.000000
vn 0.000000 -1.000000 0.000000
vn 0.000000 -1.000000 0.000000
vn 0.000000 -1.000000 0.000000
vn 0.000000 -1.000000 0.000000
vn 0.000000 -1.000000 0.000000
vn 0.000000 -1.000000 0.000000
vn 0.000000 -1.000000 0.000000
vn 0.000000 -1.000000 0.000000
vn 0.000000 -1.000000 0.000000
vn 0.000000 -1.000000 0.000000
vn 0.000000 -1.000000 0.000000
vn 0.000000 -1.000000 0.000000
vn 0.000000 -1.000000 0.000000
vn 0.000000 -1.000000 0.000000
vn 0.000000 -1.000000 0.000000
vn 0.000000 -1.000000 0.000000
vn 0.000000 -1.000000 0.000000
vn 0.000000 -1.000000 0.000000
vn 0.000000 -1.000000 0.000000
vn 0.000000 -1.000000 0.000000
vn 0.000000 -1.000000 0.000000
vn 0.000000 -1.000000 0.000000
vn 0.000000 -1.000000 0.000000
vn 0.000000 -1.000000 0.000000
vn 0.189812 0.980694 0.047021
vn 0.189812 0.980694 0.047021
vn 0.189812 0.980694 0.047021
vn 0.127400 0.977357 0.168947
vn 0.127400 0.977357 0.168947
vn 0.127400 0.977357 0.168947
vn 0.068193 0.976082 0.206430
vn 0.068193 0.976082 0.206430
vn 0.068193 0.976082 0.206430
vn -0.044777 0.977378 0.206704
vn -0.044777 0.977378 0.206704
vn -0.044777 0.977378 0.206704
vn -0.151844 0.978436 0.140022
vn -0.151844 0.978436 0.140022
vn -0.151844 0.978436 0.140022
vn -0.183560 0.979718 0.080358
vn -0.183560 0.979718 0.080358
vn -0.183560 0.979718 0.080358
vn -0.183695 0.980438 -0.070695
vn -0.183695 0.980438 -0.070695
vn -0.183695 0.980438 -0.070695
vn -0.139244 0.978560 -0.151761
vn -0.139244 0.978560 -0.151761
vn -0.139244 0.978560 -0.151761
vn -0.034214 0.975785 -0.216038
vn -0.034214 0.975785 -0.216038
vn -0.034214 0.975785 -0.216038
vn 0.044297 0.975399 -0.215952
vn 0.044297 0.975399 -0.215952
vn 0.044297 0.975399 -0.215952
vn 0.129876 0.978038 -0.163013
vn 0.129876 0.978038 -0.163013
vn 0.129876 0.978038 -0.163013
vn 0.189761 0.980433 -0.052362
vn 0.189761 0.980433 -0.052362
vn 0.189761 0.980433 -0.052362
f 1/1/1 2/2/2 3/3/3
f 4/4/4 5/5/5 6/6/6
f 7/7/7 8/8/8 9/9/9
f 10/10/10 11/11/11 12/12/12
f 13/13/13 14/14/14 15/15/15
f 16/16/16 17/17/17 18/18/18
f 19/19/19 20/20/20 21/21/21
f 22/22/22 23/23/23 24/24/24
f 25/25/25 26/26/26 27/27/27
f 28/28/28 29/29/29 30/30/30
f 31/31/31 32/32/32 33/33/33
f 34/34/34 35/35/35 36/36/36
f 37/37/37 38/38/38 39/39/39
f 40/40/40 41/41/41 42/42/42
f 43/43/43 44/44/44 45/45/45
f 46/46/46 47/47/47 48/48/48
f 49/49/49 50/50/50 51/51/51
f 52/52/52 53/53/53 54/54/54
f 55/55/55 56/56/56 57/57/57
f 58/58/58 59/59/59 60/60/60
f 61/61/61 62/62/62 63/63/63
f 64/64/64 65/65/65 66/66/66
f 67/67/67 68/68/68 69/69/69
f 70/70/70 71/71/71 72/72/72
f 73/73/73 74/74/74 75/75/75
f 76/76/76 77/77/77 78/78/78
f 79/79/79 80/80/80 81/81/81
f 82/82/82 83/83/83 84/84/84
f 85/85/85 86/86/86 87/87/87
f 88/88/88 89/89/89 90/90/90
f 91/91/91 92/92/92 93/93/93
f 94/94/94 95/95/95 96/96/96
f 97/97/97 98/98/98 99/99/99
f 100/100/100 101/101/101 102/102/102
f 103/103/103 104/104/104 105/105/105
f 106/106/106 107/107/107 108/108/108
f 109/109/109 110/110/110 111/111/111
f 112/112/112 113/113/113 114/114/114
f 115/115/115 116/116/116 117/117/117
f 118/118/118 119/119/119 120/120/120
f 121/121/121 122/122/122 123/123/123
f 124/124/124 125/125/125 126/126/126
f 127/127/127 128/128/128 129/129/129
f 130/130/130 131/131/131 132/132/132
f 133/133/133 134/134/134 135/135/135
f 136/136/136 137/137/137 138/138/138
f 139/139/139 140/140/140 141/141/141
f 142/142/142 143/143/143 144/144/144
f 145/145/145 146/146/146 147/147/147
f 148/148/148 149/149/149 150/150/150
f 151/151/151 152/152/152 153/153/153
f 154/154/154 155/155/155 156/156/156
f 157/157/157 158/158/158 159/159/159
f 160/160/160 161/161/161 162/162/162
f 163/163/163 164/164/164 165/165/165
f 166/166/166 167/167/167 168/168/168
f 169/169/169 170/170/170 171/171/171
f 172/172/172 173/173/173 174/174/174
f 175/175/175 176/176/176 177/177/177
f 178/178/178 179/179/179 180/180/180
f 181/181/181 182/182/182 183/183/183
f 184/184/184 185/185/185 186/186/186
f 187/187/187 188/188/188 189/189/189
f 190/190/190 191/191/191 192/192/192
f 193/193/193 194/194/194 195/195/195
f 196/196/196 197/197/197 198/198/198
f 199/199/199 200/200/200 201/201/201
f 202/202/202 203/203/203 204/204/204
f 205/205/205 206/206/206 207/207/207
f 208/208/208 209/209/209 210/210/210
f 211/211/211 212/212/212 213/213/213
f 214/214/214 215/215/215 216/216/216
f 217/217/217 218/218/218 219/219/219
f 220/220/220 221/221/221 222/222/222
f 223/223/223 224/224/224 225/225/225
f 226/226/226 227/227/227 228/228/228
f 229/229/229 230/230/230 231/231/231
f 232/232/232 233/233/233 234/234/234
f 235/235/235 236/236/236 237/237/237
f 238/238/238 239/239/239 240/240/240
f 241/241/241 242/242/242 243/243/243
f 244/244/244 245/245/245 246/246/246
f 247/247/247 248/248/248 249/249/249
f 250/250/250 251/251/251 252/252/252
f 253/253/253 254/254/254 255/255/255
f 256/256/256 257/257/257 258/258/258
f 259/259/259 260/260/260 261/261/261
f 262/262/262 263/263/263 264/264/264
f 265/265/265 266/266/266 267/267/267
f 268/268/268 269/269/269 270/270/270
f 271/271/271 272/272/272 273/273/273
f 274/274/274 275/275/275 276/276/276
f 277/277/277 278/278/278 279/279/279
f 280/280/280 281/281/281 282/282/282
f 283/283/283 284/284/284 285/285/285
f 286/286/286 287/287/287 288/288/288
f 289/289/289 290/290/290 291/291/291
f 292/292/292 293/293/293 294/294/294
f 295/295/295 296/296/296 297/297/297
f 298/298/298 299/299/299 300/300/300
f 301/301/301 302/302/302 303/303/303
f 304/304/304 305/305/305 306/306/306
f 307/307/307 308/308/308 309/309/309
f 310/310/310 311/311/311 312/312/312
f 313/313/313 314/314/314 315/315/315
f 316/316/316 317/317/317 318/318/318
f 319/319/319 320/320/320 321/321/321
f 322/322/322 323/323/323 324/324/324
f 325/325/325 326/326/326 327/327/327
f 328/328/328 329/329/329 330/330/330
f 331/331/331 332/332/332 333/333/333
f 334/334/334 335/335/335 336/336/336
f 337/337/337 338/338/338 339/339/339
f 340/340/340 341/341/341 342/342/342
f 343/343/343 344/344/344 345/345/345
f 346/346/346 347/347/347 348/348/348
f 349/349/349 350/350/350 351/351/351
f 352/352/352 353/353/353 354/354/354
f 355/355/355 356/356/356 357/357/357
f 358/358/358 359/359/359 360/360/360
f 361/361/361 362/362/362 363/363/363
f 364/364/364 365/365/365 366/366/366
f 367/367/367 368/368/368 369/369/369
f 370/370/370 371/371/371 372/372/372
f 373/373/373 374/374/374 375/375/375
f 376/376/376 377/377/377 378/378/378
f 379/379/379 380/380/380 381/381/381
f 382/382/382 383/383/383 384/384/384
f 385/385/385 386/386/386 387/387/387
f 388/388/388 389/389/389 390/390/390
f 391/391/391 392/392/392 393/393/393
f 394/394/394 395/395/395 396/396/396
f 397/397/397 398/398/398 399/399/399
f 400/400/400 401/401/401 402/402/402
f 403/403/403 404/404/404 405/405/405
f 406/406/406 407/407/407 408/408/408
f 409/409/409 410/410/410 411/411/411
f 412/412/412 413/413/413 414/414/414
f 415/415/415 416/416/416 417/417/417
f 418/418/418 419/419/419 420/420/420
f 421/421/421 422/422/422 423/423/423
f 424/424/424 425/425/425 426/426/426
