# metres, Y up, base-centred pivot
mtllib Stone.mtl
o Masso_01_Monolite
usemtl Stone
s off
v 0.480110 0.000000 -0.024549
v 0.700000 1.801237 -0.031104
v 0.468014 1.879364 0.298104
vt 0.000000 -0.012275
vt 0.900619 -0.015552
vt 0.939682 0.149052
vn 0.802811 -0.095863 0.588476
vn 0.802811 -0.095863 0.588476
vn 0.802811 -0.095863 0.588476
v 0.480110 0.000000 -0.024549
v 0.468014 1.879364 0.298104
v 0.303801 0.000000 0.225649
vt 0.000000 -0.012275
vt 0.939682 0.149052
vt 0.000000 0.112824
vn 0.813870 -0.093224 0.573519
vn 0.813870 -0.093224 0.573519
vn 0.813870 -0.093224 0.573519
v 0.303801 0.000000 0.225649
v 0.468014 1.879364 0.298104
v 0.114808 1.739143 0.525342
vt 0.151900 0.000000
vt 0.234007 0.939682
vt 0.057404 0.869571
vn 0.561783 -0.080829 0.823327
vn 0.561783 -0.080829 0.823327
vn 0.561783 -0.080829 0.823327
v 0.303801 0.000000 0.225649
v 0.114808 1.739143 0.525342
v 0.035364 0.000000 0.398349
vt 0.151900 0.000000
vt 0.057404 0.869571
vt 0.017682 0.000000
vn 0.539060 -0.085807 0.837885
vn 0.539060 -0.085807 0.837885
vn 0.539060 -0.085807 0.837885
v 0.035364 0.000000 0.398349
v 0.114808 1.739143 0.525342
v -0.261325 1.902268 0.575000
vt 0.017682 0.000000
vt 0.057404 0.869571
vt -0.130662 0.951134
vn 0.097643 -0.076914 0.992245
vn 0.097643 -0.076914 0.992245
vn 0.097643 -0.076914 0.992245
v 0.035364 0.000000 0.398349
v -0.261325 1.902268 0.575000
v -0.250496 0.000000 0.436090
vt 0.017682 0.000000
vt -0.130662 0.951134
vt -0.125248 0.000000
vn 0.130553 -0.071467 0.988862
vn 0.130553 -0.071467 0.988862
vn 0.130553 -0.071467 0.988862
v -0.250496 0.000000 0.436090
v -0.261325 1.902268 0.575000
v -0.583943 1.710255 0.327261
vt -0.125248 0.000000
vt -0.130662 0.951134
vt -0.291972 0.855127
vn -0.584228 -0.062415 0.809186
vn -0.584228 -0.062415 0.809186
vn -0.584228 -0.062415 0.809186
v -0.250496 0.000000 0.436090
v -0.583943 1.710255 0.327261
v -0.495686 0.000000 0.247808
vt -0.125248 0.000000
vt -0.291972 0.855127
vt -0.247843 0.000000
vn -0.607634 -0.068117 0.791291
vn -0.607634 -0.068117 0.791291
vn -0.607634 -0.068117 0.791291
v -0.495686 0.000000 0.247808
v -0.583943 1.710255 0.327261
v -0.700000 1.807717 0.040743
vt 0.000000 0.123904
vt 0.855127 0.163630
vt 0.903858 0.020372
vn -0.932370 -0.064638 0.355679
vn -0.932370 -0.064638 0.355679
vn -0.932370 -0.064638 0.355679
v -0.495686 0.000000 0.247808
v -0.700000 1.807717 0.040743
v -0.583890 0.000000 0.030055
vt 0.000000 0.123904
vt 0.903858 0.020372
vt 0.000000 0.015027
vn -0.925088 -0.061634 0.374717
vn -0.925088 -0.061634 0.374717
vn -0.925088 -0.061634 0.374717
v -0.583890 0.000000 0.030055
v -0.700000 1.807717 0.040743
v -0.674633 1.766742 -0.346000
vt 0.000000 0.015027
vt 0.903858 0.020372
vt 0.883371 -0.173000
vn -0.996251 -0.063643 -0.058603
vn -0.996251 -0.063643 -0.058603
vn -0.996251 -0.063643 -0.058603
v -0.583890 0.000000 0.030055
v -0.674633 1.766742 -0.346000
v -0.564611 0.000000 -0.263870
vt 0.000000 0.015027
vt 0.883371 -0.173000
vt 0.000000 -0.131935
vn -0.995743 -0.065045 -0.065313
vn -0.995743 -0.065045 -0.065313
vn -0.995743 -0.065045 -0.065313
v -0.564611 0.000000 -0.263870
v -0.674633 1.766742 -0.346000
v -0.300570 1.661442 -0.575000
vt -0.282305 0.000000
vt -0.337316 0.883371
vt -0.150285 0.830721
vn -0.535511 -0.072463 -0.841414
vn -0.535511 -0.072463 -0.841414
vn -0.535511 -0.072463 -0.841414
v -0.564611 0.000000 -0.263870
v -0.300570 1.661442 -0.575000
v -0.280323 0.000000 -0.437910
vt -0.282305 0.000000
vt -0.150285 0.830721
vt -0.140162 0.000000
vn -0.520594 -0.076510 -0.850369
vn -0.520594 -0.076510 -0.850369
vn -0.520594 -0.076510 -0.850369
v -0.280323 0.000000 -0.437910
v -0.300570 1.661442 -0.575000
v 0.174791 1.904993 -0.498048
vt -0.140162 0.000000
vt -0.150285 0.830721
vt 0.087395 0.952497
vn 0.198229 -0.078202 -0.977031
vn 0.198229 -0.078202 -0.977031
vn 0.198229 -0.078202 -0.977031
v -0.280323 0.000000 -0.437910
v 0.174791 1.904993 -0.498048
v 0.080951 0.000000 -0.379427
vt -0.140162 0.000000
vt 0.087395 0.952497
vt 0.040476 0.000000
vn 0.159418 -0.069174 -0.984785
vn 0.159418 -0.069174 -0.984785
vn 0.159418 -0.069174 -0.984785
v 0.080951 0.000000 -0.379427
v 0.174791 1.904993 -0.498048
v 0.582355 1.633358 -0.331779
vt 0.040476 0.000000
vt 0.087395 0.952497
vt 0.291177 0.816679
vn 0.333444 -0.074945 -0.939786
vn 0.333444 -0.074945 -0.939786
vn 0.333444 -0.074945 -0.939786
v 0.080951 0.000000 -0.379427
v 0.582355 1.633358 -0.331779
v 0.390700 0.000000 -0.253062
vt 0.040476 0.000000
vt 0.291177 0.816679
vt 0.195350 0.000000
vn 0.376249 -0.088596 -0.922273
vn 0.376249 -0.088596 -0.922273
vn 0.376249 -0.088596 -0.922273
v 0.390700 0.000000 -0.253062
v 0.582355 1.633358 -0.331779
v 0.700000 1.801237 -0.031104
vt 0.000000 -0.126531
vt 0.816679 -0.165890
vt 0.900619 -0.015552
vn 0.945664 -0.125419 -0.299983
vn 0.945664 -0.125419 -0.299983
vn 0.945664 -0.125419 -0.299983
v 0.390700 0.000000 -0.253062
v 0.700000 1.801237 -0.031104
v 0.480110 0.000000 -0.024549
vt 0.000000 -0.126531
vt 0.900619 -0.015552
vt 0.000000 -0.012275
vn 0.925155 -0.114257 -0.361986
vn 0.925155 -0.114257 -0.361986
vn 0.925155 -0.114257 -0.361986
v 0.700000 1.801237 -0.031104
v 0.522622 2.575497 -0.023457
v 0.355592 2.679618 0.213573
vt 0.900619 -0.015552
vt 1.287749 -0.011728
vt 1.339809 0.106786
vn 0.839822 0.187365 0.509503
vn 0.839822 0.187365 0.509503
vn 0.839822 0.187365 0.509503
v 0.700000 1.801237 -0.031104
v 0.355592 2.679618 0.213573
v 0.468014 1.879364 0.298104
vt 0.900619 -0.015552
vt 1.339809 0.106786
vt 0.939682 0.149052
vn 0.823978 0.172757 0.539644
vn 0.823978 0.172757 0.539644
vn 0.823978 0.172757 0.539644
v 0.468014 1.879364 0.298104
v 0.355592 2.679618 0.213573
v 0.101284 2.666003 0.377184
vt 0.234007 0.939682
vt 0.177796 1.339809
vt 0.050642 1.333002
vn 0.527734 0.162209 0.833778
vn 0.527734 0.162209 0.833778
vn 0.527734 0.162209 0.833778
v 0.468014 1.879364 0.298104
v 0.101284 2.666003 0.377184
v 0.114808 1.739143 0.525342
vt 0.234007 0.939682
vt 0.050642 1.333002
vt 0.057404 0.869571
vn 0.494262 0.144244 0.857262
vn 0.494262 0.144244 0.857262
vn 0.494262 0.144244 0.857262
v 0.114808 1.739143 0.525342
v 0.101284 2.666003 0.377184
v -0.169531 2.628006 0.412938
vt 0.057404 0.869571
vt 0.050642 1.333002
vt -0.084766 1.314003
vn 0.107350 0.158460 0.981512
vn 0.107350 0.158460 0.981512
vn 0.107350 0.158460 0.981512
v 0.114808 1.739143 0.525342
v -0.169531 2.628006 0.412938
v -0.261325 1.902268 0.575000
vt 0.057404 0.869571
vt -0.084766 1.314003
vt -0.130662 0.951134
vn 0.208254 0.187997 0.959837
vn 0.208254 0.187997 0.959837
vn 0.208254 0.187997 0.959837
v -0.261325 1.902268 0.575000
v -0.169531 2.628006 0.412938
v -0.401817 2.785271 0.234566
vt -0.130662 0.951134
vt -0.084766 1.314003
vt -0.200908 1.392636
vn -0.478432 0.248583 0.842205
vn -0.478432 0.248583 0.842205
vn -0.478432 0.248583 0.842205
v -0.261325 1.902268 0.575000
v -0.401817 2.785271 0.234566
v -0.583943 1.710255 0.327261
vt -0.130662 0.951134
vt -0.200908 1.392636
vt -0.291972 0.855127
vn -0.663077 0.175091 0.727786
vn -0.663077 0.175091 0.727786
vn -0.663077 0.175091 0.727786
v -0.583943 1.710255 0.327261
v -0.401817 2.785271 0.234566
v -0.485378 2.800000 0.028273
vt 0.855127 0.163630
vt 1.392636 0.117283
vt 1.400000 0.014137
vn -0.905930 0.186269 0.380256
vn -0.905930 0.186269 0.380256
vn -0.905930 0.186269 0.380256
v -0.583943 1.710255 0.327261
v -0.485378 2.800000 0.028273
v -0.700000 1.807717 0.040743
vt 0.855127 0.163630
vt 1.400000 0.014137
vt 0.903858 0.020372
vn -0.883713 0.196478 0.424791
vn -0.883713 0.196478 0.424791
vn -0.883713 0.196478 0.424791
v -0.700000 1.807717 0.040743
v -0.485378 2.800000 0.028273
v -0.467113 2.692983 -0.250182
vt 0.903858 0.020372
vt 1.400000 0.014137
vt 1.346492 -0.125091
vn -0.967693 0.207504 -0.143221
vn -0.967693 0.207504 -0.143221
vn -0.967693 0.207504 -0.143221
v -0.700000 1.807717 0.040743
v -0.467113 2.692983 -0.250182
v -0.674633 1.766742 -0.346000
vt 0.903858 0.020372
vt 1.346492 -0.125091
vt 0.883371 -0.173000
vn -0.970084 0.226406 -0.087617
vn -0.970084 0.226406 -0.087617
vn -0.970084 0.226406 -0.087617
v -0.674633 1.766742 -0.346000
v -0.467113 2.692983 -0.250182
v -0.197788 2.799589 -0.415062
vt -0.337316 0.883371
vt -0.233557 1.346492
vt -0.098894 1.399795
vn -0.569572 0.209821 -0.794709
vn -0.569572 0.209821 -0.794709
vn -0.569572 0.209821 -0.794709
v -0.674633 1.766742 -0.346000
v -0.197788 2.799589 -0.415062
v -0.300570 1.661442 -0.575000
vt -0.337316 0.883371
vt -0.098894 1.399795
vt -0.150285 0.830721
vn -0.480930 0.164451 -0.861198
vn -0.480930 0.164451 -0.861198
vn -0.480930 0.164451 -0.861198
v -0.300570 1.661442 -0.575000
v -0.197788 2.799589 -0.415062
v 0.144472 2.574547 -0.359657
vt -0.150285 0.830721
vt -0.098894 1.399795
vt 0.072236 1.287273
vn 0.231854 0.114802 -0.965952
vn 0.231854 0.114802 -0.965952
vn 0.231854 0.114802 -0.965952
v -0.300570 1.661442 -0.575000
v 0.144472 2.574547 -0.359657
v 0.174791 1.904993 -0.498048
vt -0.150285 0.830721
vt 0.072236 1.287273
vt 0.087395 0.952497
vn 0.053477 0.204446 -0.977416
vn 0.053477 0.204446 -0.977416
vn 0.053477 0.204446 -0.977416
v 0.174791 1.904993 -0.498048
v 0.144472 2.574547 -0.359657
v 0.437918 2.556768 -0.239943
vt 0.087395 0.952497
vt 0.072236 1.287273
vt 0.218959 1.278384
vn 0.380370 0.203686 -0.902125
vn 0.380370 0.203686 -0.902125
vn 0.380370 0.203686 -0.902125
v 0.174791 1.904993 -0.498048
v 0.437918 2.556768 -0.239943
v 0.582355 1.633358 -0.331779
vt 0.087395 0.952497
vt 0.218959 1.278384
vt 0.291177 0.816679
vn 0.461949 0.159033 -0.872532
vn 0.461949 0.159033 -0.872532
vn 0.461949 0.159033 -0.872532
v 0.582355 1.633358 -0.331779
v 0.437918 2.556768 -0.239943
v 0.522622 2.575497 -0.023457
vt 0.816679 -0.165890
vt 1.278384 -0.119972
vt 1.287749 -0.011728
vn 0.910771 0.179445 -0.371882
vn 0.910771 0.179445 -0.371882
vn 0.910771 0.179445 -0.371882
v 0.582355 1.633358 -0.331779
v 0.522622 2.575497 -0.023457
v 0.700000 1.801237 -0.031104
vt 0.816679 -0.165890
vt 1.287749 -0.011728
vt 0.900619 -0.015552
vn 0.867952 0.203317 -0.453124
vn 0.867952 0.203317 -0.453124
vn 0.867952 0.203317 -0.453124
v -0.088408 0.000000 -0.002087
v 0.480110 0.000000 -0.024549
v 0.303801 0.000000 0.225649
vt -0.044204 -0.001043
vt 0.240055 -0.012275
vt 0.151900 0.112824
vn 0.000000 -1.000000 0.000000
vn 0.000000 -1.000000 0.000000
vn 0.000000 -1.000000 0.000000
v -0.088408 0.000000 -0.002087
v 0.303801 0.000000 0.225649
v 0.035364 0.000000 0.398349
vt -0.044204 -0.001043
vt 0.151900 0.112824
vt 0.017682 0.199175
vn 0.000000 -1.000000 0.000000
vn 0.000000 -1.000000 0.000000
vn 0.000000 -1.000000 0.000000
v -0.088408 0.000000 -0.002087
v 0.035364 0.000000 0.398349
v -0.250496 0.000000 0.436090
vt -0.044204 -0.001043
vt 0.017682 0.199175
vt -0.125248 0.218045
vn 0.000000 -1.000000 0.000000
vn 0.000000 -1.000000 0.000000
vn 0.000000 -1.000000 0.000000
v -0.088408 0.000000 -0.002087
v -0.250496 0.000000 0.436090
v -0.495686 0.000000 0.247808
vt -0.044204 -0.001043
vt -0.125248 0.218045
vt -0.247843 0.123904
vn 0.000000 -1.000000 0.000000
vn 0.000000 -1.000000 0.000000
vn 0.000000 -1.000000 0.000000
v -0.088408 0.000000 -0.002087
v -0.495686 0.000000 0.247808
v -0.583890 0.000000 0.030055
vt -0.044204 -0.001043
vt -0.247843 0.123904
vt -0.291945 0.015027
vn 0.000000 -1.000000 0.000000
vn 0.000000 -1.000000 0.000000
vn 0.000000 -1.000000 0.000000
v -0.088408 0.000000 -0.002087
v -0.583890 0.000000 0.030055
v -0.564611 0.000000 -0.263870
vt -0.044204 -0.001043
vt -0.291945 0.015027
vt -0.282305 -0.131935
vn -0.000000 -1.000000 0.000000
vn -0.000000 -1.000000 0.000000
vn -0.000000 -1.000000 0.000000
v -0.088408 0.000000 -0.002087
v -0.564611 0.000000 -0.263870
v -0.280323 0.000000 -0.437910
vt -0.044204 -0.001043
vt -0.282305 -0.131935
vt -0.140162 -0.218955
vn 0.000000 -1.000000 0.000000
vn 0.000000 -1.000000 0.000000
vn 0.000000 -1.000000 0.000000
v -0.088408 0.000000 -0.002087
v -0.280323 0.000000 -0.437910
v 0.080951 0.000000 -0.379427
vt -0.044204 -0.001043
vt -0.140162 -0.218955
vt 0.040476 -0.189713
vn 0.000000 -1.000000 -0.000000
vn 0.000000 -1.000000 -0.000000
vn 0.000000 -1.000000 -0.000000
v -0.088408 0.000000 -0.002087
v 0.080951 0.000000 -0.379427
v 0.390700 0.000000 -0.253062
vt -0.044204 -0.001043
vt 0.040476 -0.189713
vt 0.195350 -0.126531
vn 0.000000 -1.000000 0.000000
vn 0.000000 -1.000000 0.000000
vn 0.000000 -1.000000 0.000000
v -0.088408 0.000000 -0.002087
v 0.390700 0.000000 -0.253062
v 0.480110 0.000000 -0.024549
vt -0.044204 -0.001043
vt 0.195350 -0.126531
vt 0.240055 -0.012275
vn 0.000000 -1.000000 0.000000
vn 0.000000 -1.000000 0.000000
vn 0.000000 -1.000000 0.000000
v -0.015974 2.675828 -0.002177
v 0.355592 2.679618 0.213573
v 0.522622 2.575497 -0.023457
vt -0.007987 -0.001088
vt 0.177796 0.106786
vt 0.261311 -0.011728
vn 0.163423 0.940483 -0.297969
vn 0.163423 0.940483 -0.297969
vn 0.163423 0.940483 -0.297969
v -0.015974 2.675828 -0.002177
v 0.101284 2.666003 0.377184
v 0.355592 2.679618 0.213573
vt -0.007987 -0.001088
vt 0.050642 0.188592
vt 0.177796 0.106786
vn -0.030724 0.998902 0.035367
vn -0.030724 0.998902 0.035367
vn -0.030724 0.998902 0.035367
v -0.015974 2.675828 -0.002177
v -0.169531 2.628006 0.412938
v 0.101284 2.666003 0.377184
vt -0.007987 -0.001088
vt -0.084766 0.206469
vt 0.050642 0.188592
vn -0.130114 0.989311 0.065839
vn -0.130114 0.989311 0.065839
vn -0.130114 0.989311 0.065839
v -0.015974 2.675828 -0.002177
v -0.401817 2.785271 0.234566
v -0.169531 2.628006 0.412938
vt -0.007987 -0.001088
vt -0.200908 0.117283
vt -0.084766 0.206469
vn 0.403384 0.880046 0.250601
vn 0.403384 0.880046 0.250601
vn 0.403384 0.880046 0.250601
v -0.015974 2.675828 -0.002177
v -0.485378 2.800000 0.028273
v -0.401817 2.785271 0.234566
vt -0.007987 -0.001088
vt -0.242689 0.014137
vt -0.200908 0.117283
vn 0.253547 0.966737 -0.033679
vn 0.253547 0.966737 -0.033679
vn 0.253547 0.966737 -0.033679
v -0.015974 2.675828 -0.002177
v -0.467113 2.692983 -0.250182
v -0.485378 2.800000 0.028273
vt -0.007987 -0.001088
vt -0.233557 -0.125091
vt -0.242689 0.014137
vn 0.220235 0.915269 -0.337313
vn 0.220235 0.915269 -0.337313
vn 0.220235 0.915269 -0.337313
v -0.015974 2.675828 -0.002177
v -0.197788 2.799589 -0.415062
v -0.467113 2.692983 -0.250182
vt -0.007987 -0.001088
vt -0.098894 -0.207531
vt -0.233557 -0.125091
vn -0.154784 0.925534 0.345585
vn -0.154784 0.925534 0.345585
vn -0.154784 0.925534 0.345585
v -0.015974 2.675828 -0.002177
v 0.144472 2.574547 -0.359657
v -0.197788 2.799589 -0.415062
vt -0.007987 -0.001088
vt 0.072236 -0.179828
vt -0.098894 -0.207531
vn 0.548335 0.836208 0.009191
vn 0.548335 0.836208 0.009191
vn 0.548335 0.836208 0.009191
v -0.015974 2.675828 -0.002177
v 0.437918 2.556768 -0.239943
v 0.144472 2.574547 -0.359657
vt -0.007987 -0.001088
vt 0.218959 -0.119972
vt 0.072236 -0.179828
vn 0.144018 0.967170 -0.209381
vn 0.144018 0.967170 -0.209381
vn 0.144018 0.967170 -0.209381
v -0.015974 2.675828 -0.002177
v 0.522622 2.575497 -0.023457
v 0.437918 2.556768 -0.239943
vt -0.007987 -0.001088
vt 0.261311 -0.011728
vt 0.218959 -0.119972
vn 0.175152 0.972631 -0.152681
vn 0.175152 0.972631 -0.152681
vn 0.175152 0.972631 -0.152681
f 1/1/1 2/2/2 3/3/3
f 4/4/4 5/5/5 6/6/6
f 7/7/7 8/8/8 9/9/9
f 10/10/10 11/11/11 12/12/12
f 13/13/13 14/14/14 15/15/15
f 16/16/16 17/17/17 18/18/18
f 19/19/19 20/20/20 21/21/21
f 22/22/22 23/23/23 24/24/24
f 25/25/25 26/26/26 27/27/27
f 28/28/28 29/29/29 30/30/30
f 31/31/31 32/32/32 33/33/33
f 34/34/34 35/35/35 36/36/36
f 37/37/37 38/38/38 39/39/39
f 40/40/40 41/41/41 42/42/42
f 43/43/43 44/44/44 45/45/45
f 46/46/46 47/47/47 48/48/48
f 49/49/49 50/50/50 51/51/51
f 52/52/52 53/53/53 54/54/54
f 55/55/55 56/56/56 57/57/57
f 58/58/58 59/59/59 60/60/60
f 61/61/61 62/62/62 63/63/63
f 64/64/64 65/65/65 66/66/66
f 67/67/67 68/68/68 69/69/69
f 70/70/70 71/71/71 72/72/72
f 73/73/73 74/74/74 75/75/75
f 76/76/76 77/77/77 78/78/78
f 79/79/79 80/80/80 81/81/81
f 82/82/82 83/83/83 84/84/84
f 85/85/85 86/86/86 87/87/87
f 88/88/88 89/89/89 90/90/90
f 91/91/91 92/92/92 93/93/93
f 94/94/94 95/95/95 96/96/96
f 97/97/97 98/98/98 99/99/99
f 100/100/100 101/101/101 102/102/102
f 103/103/103 104/104/104 105/105/105
f 106/106/106 107/107/107 108/108/108
f 109/109/109 110/110/110 111/111/111
f 112/112/112 113/113/113 114/114/114
f 115/115/115 116/116/116 117/117/117
f 118/118/118 119/119/119 120/120/120
f 121/121/121 122/122/122 123/123/123
f 124/124/124 125/125/125 126/126/126
f 127/127/127 128/128/128 129/129/129
f 130/130/130 131/131/131 132/132/132
f 133/133/133 134/134/134 135/135/135
f 136/136/136 137/137/137 138/138/138
f 139/139/139 140/140/140 141/141/141
f 142/142/142 143/143/143 144/144/144
f 145/145/145 146/146/146 147/147/147
f 148/148/148 149/149/149 150/150/150
f 151/151/151 152/152/152 153/153/153
f 154/154/154 155/155/155 156/156/156
f 157/157/157 158/158/158 159/159/159
f 160/160/160 161/161/161 162/162/162
f 163/163/163 164/164/164 165/165/165
f 166/166/166 167/167/167 168/168/168
f 169/169/169 170/170/170 171/171/171
f 172/172/172 173/173/173 174/174/174
f 175/175/175 176/176/176 177/177/177
f 178/178/178 179/179/179 180/180/180
