# metres, Y up, base-centred pivot
mtllib Stone.mtl
o Masso_02_LastraInclinata
usemtl Stone
s off
v 0.697650 0.000000 0.049350
v 1.200000 1.730615 0.054838
v 1.197377 1.635178 0.306890
vt 0.000000 0.024675
vt 0.865307 0.027419
vt 0.817589 0.153445
vn 0.956095 -0.277227 -0.095018
vn 0.956095 -0.277227 -0.095018
vn 0.956095 -0.277227 -0.095018
v 0.697650 0.000000 0.049350
v 1.197377 1.635178 0.306890
v 0.695656 0.000000 0.240909
vt 0.000000 0.024675
vt 0.817589 0.153445
vt 0.000000 0.120455
vn 0.955851 -0.293684 0.009949
vn 0.955851 -0.293684 0.009949
vn 0.955851 -0.293684 0.009949
v 0.695656 0.000000 0.240909
v 1.197377 1.635178 0.306890
v 0.607034 1.761923 0.465237
vt 0.347828 0.000000
vt 0.598688 0.817589
vt 0.303517 0.880961
vn 0.235143 -0.111111 0.965589
vn 0.235143 -0.111111 0.965589
vn 0.235143 -0.111111 0.965589
v 0.695656 0.000000 0.240909
v 0.607034 1.761923 0.465237
v 0.246996 0.000000 0.361253
vt 0.347828 0.000000
vt 0.303517 0.880961
vt 0.123498 0.000000
vn 0.257519 -0.109283 0.960073
vn 0.257519 -0.109283 0.960073
vn 0.257519 -0.109283 0.960073
v 0.246996 0.000000 0.361253
v 0.607034 1.761923 0.465237
v -0.027049 1.530402 0.475000
vt 0.123498 0.000000
vt 0.303517 0.880961
vt -0.013525 0.765201
vn 0.039804 -0.066972 0.996961
vn 0.039804 -0.066972 0.996961
vn 0.039804 -0.066972 0.996961
v 0.246996 0.000000 0.361253
v -0.027049 1.530402 0.475000
v -0.234907 0.000000 0.368673
vt 0.123498 0.000000
vt -0.013525 0.765201
vt -0.117454 0.000000
vn 0.015356 -0.071377 0.997331
vn 0.015356 -0.071377 0.997331
vn 0.015356 -0.071377 0.997331
v -0.234907 0.000000 0.368673
v -0.027049 1.530402 0.475000
v -0.693478 1.512238 0.443666
vt -0.117454 0.000000
vt -0.013525 0.765201
vt -0.346739 0.756119
vn -0.045155 -0.063134 0.996983
vn -0.045155 -0.063134 0.996983
vn -0.045155 -0.063134 0.996983
v -0.234907 0.000000 0.368673
v -0.693478 1.512238 0.443666
v -0.741393 0.000000 0.344859
vt -0.117454 0.000000
vt -0.346739 0.756119
vt -0.370697 0.000000
vn -0.046871 -0.063649 0.996871
vn -0.046871 -0.063649 0.996871
vn -0.046871 -0.063649 0.996871
v -0.741393 0.000000 0.344859
v -0.693478 1.512238 0.443666
v -0.930212 1.591296 0.331687
vt -0.370697 0.000000
vt -0.346739 0.756119
vt -0.465106 0.795648
vn -0.439327 -0.044702 0.897214
vn -0.439327 -0.044702 0.897214
vn -0.439327 -0.044702 0.897214
v -0.741393 0.000000 0.344859
v -0.930212 1.591296 0.331687
v -0.921311 0.000000 0.259755
vt -0.370697 0.000000
vt -0.465106 0.795648
vt -0.460656 0.000000
vn -0.427195 -0.043214 0.903126
vn -0.427195 -0.043214 0.903126
vn -0.427195 -0.043214 0.903126
v -0.921311 0.000000 0.259755
v -0.930212 1.591296 0.331687
v -1.200000 1.424810 0.038917
vt 0.000000 0.129877
vt 0.795648 0.165843
vt 0.712405 0.019459
vn -0.724884 -0.035153 0.687973
vn -0.724884 -0.035153 0.687973
vn -0.724884 -0.035153 0.687973
v -0.921311 0.000000 0.259755
v -1.200000 1.424810 0.038917
v -1.126350 0.000000 0.037250
vt 0.000000 0.129877
vt 0.712405 0.019459
vt 0.000000 0.018625
vn -0.734827 -0.038776 0.677145
vn -0.734827 -0.038776 0.677145
vn -0.734827 -0.038776 0.677145
v -1.126350 0.000000 0.037250
v -1.200000 1.424810 0.038917
v -0.826270 1.549137 -0.197664
vt -0.563175 0.000000
vt -0.600000 0.712405
vt -0.413135 0.774569
vn -0.528417 -0.026321 -0.848577
vn -0.528417 -0.026321 -0.848577
vn -0.528417 -0.026321 -0.848577
v -1.126350 0.000000 0.037250
v -0.826270 1.549137 -0.197664
v -0.842315 0.000000 -0.142552
vt -0.563175 0.000000
vt -0.413135 0.774569
vt -0.421158 0.000000
vn -0.534707 -0.024512 -0.844682
vn -0.534707 -0.024512 -0.844682
vn -0.534707 -0.024512 -0.844682
v -0.842315 0.000000 -0.142552
v -0.826270 1.549137 -0.197664
v -0.461078 1.443518 -0.347310
vt -0.421158 0.000000
vt -0.413135 0.774569
vt -0.230539 0.721759
vn -0.386137 -0.028801 -0.921992
vn -0.386137 -0.028801 -0.921992
vn -0.386137 -0.028801 -0.921992
v -0.842315 0.000000 -0.142552
v -0.461078 1.443518 -0.347310
v -0.564769 0.000000 -0.256283
vt -0.421158 0.000000
vt -0.230539 0.721759
vt -0.282385 0.000000
vn -0.378990 -0.031098 -0.924878
vn -0.378990 -0.031098 -0.924878
vn -0.378990 -0.031098 -0.924878
v -0.564769 0.000000 -0.256283
v -0.461078 1.443518 -0.347310
v 0.125143 1.493205 -0.475000
vt -0.282385 0.000000
vt -0.230539 0.721759
vt 0.062571 0.746602
vn -0.208825 -0.046599 -0.976842
vn -0.208825 -0.046599 -0.976842
vn -0.208825 -0.046599 -0.976842
v -0.564769 0.000000 -0.256283
v 0.125143 1.493205 -0.475000
v -0.119241 0.000000 -0.353327
vt -0.282385 0.000000
vt 0.062571 0.746602
vt -0.059621 0.000000
vn -0.212615 -0.044740 -0.976111
vn -0.212615 -0.044740 -0.976111
vn -0.212615 -0.044740 -0.976111
v -0.119241 0.000000 -0.353327
v 0.125143 1.493205 -0.475000
v 0.741514 1.613939 -0.395451
vt -0.059621 0.000000
vt 0.062571 0.746602
vt 0.370757 0.806969
vn 0.147363 -0.104264 -0.983572
vn 0.147363 -0.104264 -0.983572
vn 0.147363 -0.104264 -0.983572
v -0.119241 0.000000 -0.353327
v 0.741514 1.613939 -0.395451
v 0.349201 0.000000 -0.292870
vt -0.059621 0.000000
vt 0.370757 0.806969
vt 0.174600 0.000000
vn 0.127435 -0.093736 -0.987408
vn 0.127435 -0.093736 -0.987408
vn 0.127435 -0.093736 -0.987408
v 0.349201 0.000000 -0.292870
v 0.741514 1.613939 -0.395451
v 1.102196 1.426252 -0.187503
vt 0.174600 0.000000
vt 0.370757 0.806969
vt 0.551098 0.713126
vn 0.428867 -0.160749 -0.888950
vn 0.428867 -0.160749 -0.888950
vn 0.428867 -0.160749 -0.888950
v 0.349201 0.000000 -0.292870
v 1.102196 1.426252 -0.187503
v 0.623319 0.000000 -0.134830
vt 0.174600 0.000000
vt 0.551098 0.713126
vt 0.311659 0.000000
vn 0.489803 -0.195831 -0.849555
vn 0.489803 -0.195831 -0.849555
vn 0.489803 -0.195831 -0.849555
v 0.623319 0.000000 -0.134830
v 1.102196 1.426252 -0.187503
v 1.200000 1.730615 0.054838
vt 0.000000 -0.067415
vt 0.713126 -0.093752
vt 0.865307 0.027419
vn 0.948046 -0.317709 0.016405
vn 0.948046 -0.317709 0.016405
vn 0.948046 -0.317709 0.016405
v 0.623319 0.000000 -0.134830
v 1.200000 1.730615 0.054838
v 0.697650 0.000000 0.049350
vt 0.000000 -0.067415
vt 0.865307 0.027419
vt 0.000000 0.024675
vn 0.895720 -0.258857 -0.361495
vn 0.895720 -0.258857 -0.361495
vn 0.895720 -0.258857 -0.361495
v 1.200000 1.730615 0.054838
v 0.899062 2.849079 0.044548
v 0.897619 2.984922 0.183176
vt 0.865307 0.027419
vt 1.424540 0.022274
vt 1.492461 0.091588
vn 0.938998 0.250482 -0.235675
vn 0.938998 0.250482 -0.235675
vn 0.938998 0.250482 -0.235675
v 1.200000 1.730615 0.054838
v 0.897619 2.984922 0.183176
v 1.197377 1.635178 0.306890
vt 0.865307 0.027419
vt 1.492461 0.091588
vt 0.817589 0.153445
vn 0.969927 0.224109 0.094952
vn 0.969927 0.224109 0.094952
vn 0.969927 0.224109 0.094952
v 1.197377 1.635178 0.306890
v 0.897619 2.984922 0.183176
v 0.572931 3.006087 0.270267
vt 0.598688 0.817589
vt 0.448810 1.492461
vt 0.286465 1.503043
vn 0.265168 0.146243 0.953047
vn 0.265168 0.146243 0.953047
vn 0.265168 0.146243 0.953047
v 1.197377 1.635178 0.306890
v 0.572931 3.006087 0.270267
v 0.607034 1.761923 0.465237
vt 0.598688 0.817589
vt 0.286465 1.503043
vt 0.303517 0.880961
vn 0.287003 0.155978 0.945145
vn 0.287003 0.155978 0.945145
vn 0.287003 0.155978 0.945145
v 0.607034 1.761923 0.465237
v 0.572931 3.006087 0.270267
v 0.224185 3.039143 0.275637
vt 0.303517 0.880961
vt 0.286465 1.503043
vt 0.112092 1.519571
vn 0.029947 0.155550 0.987374
vn 0.029947 0.155550 0.987374
vn 0.029947 0.155550 0.987374
v 0.607034 1.761923 0.465237
v 0.224185 3.039143 0.275637
v -0.027049 1.530402 0.475000
vt 0.303517 0.880961
vt 0.112092 1.519571
vt -0.013525 0.765201
vn -0.034628 0.136587 0.990023
vn -0.034628 0.136587 0.990023
vn -0.034628 0.136587 0.990023
v -0.027049 1.530402 0.475000
v 0.224185 3.039143 0.275637
v -0.142351 2.849276 0.258403
vt -0.013525 0.765201
vt 0.112092 1.519571
vt -0.071175 1.424638
vn -0.123946 0.150248 0.980848
vn -0.123946 0.150248 0.980848
vn -0.123946 0.150248 0.980848
v -0.027049 1.530402 0.475000
v -0.142351 2.849276 0.258403
v -0.693478 1.512238 0.443666
vt -0.013525 0.765201
vt -0.071175 1.424638
vt -0.346739 0.756119
vn -0.050663 0.157535 0.986213
vn -0.050663 0.157535 0.986213
vn -0.050663 0.157535 0.986213
v -0.693478 1.512238 0.443666
v -0.142351 2.849276 0.258403
v -0.272555 3.100000 0.196814
vt -0.346739 0.756119
vt -0.071175 1.424638
vt -0.136277 1.550000
vn -0.112302 0.181656 0.976928
vn -0.112302 0.181656 0.976928
vn -0.112302 0.181656 0.976928
v -0.693478 1.512238 0.443666
v -0.272555 3.100000 0.196814
v -0.930212 1.591296 0.331687
vt -0.346739 0.756119
vt -0.136277 1.550000
vt -0.465106 0.795648
vn -0.350779 0.233969 0.906759
vn -0.350779 0.233969 0.906759
vn -0.350779 0.233969 0.906759
v -0.930212 1.591296 0.331687
v -0.272555 3.100000 0.196814
v -0.420938 2.831316 0.035791
vt 0.795648 0.165843
vt 1.550000 0.098407
vt 1.415658 0.017895
vn -0.900955 0.406341 0.152209
vn -0.900955 0.406341 0.152209
vn -0.900955 0.406341 0.152209
v -0.930212 1.591296 0.331687
v -0.420938 2.831316 0.035791
v -1.200000 1.424810 0.038917
vt 0.795648 0.165843
vt 1.415658 0.017895
vt 0.712405 0.019459
vn -0.772612 0.428989 0.468016
vn -0.772612 0.428989 0.468016
vn -0.772612 0.428989 0.468016
v -1.200000 1.424810 0.038917
v -0.420938 2.831316 0.035791
v -0.215387 2.967055 -0.094329
vt -0.600000 0.712405
vt -0.210469 1.415658
vt -0.107693 1.483527
vn -0.657554 0.362751 -0.660329
vn -0.657554 0.362751 -0.660329
vn -0.657554 0.362751 -0.660329
v -1.200000 1.424810 0.038917
v -0.215387 2.967055 -0.094329
v -0.826270 1.549137 -0.197664
vt -0.600000 0.712405
vt -0.107693 1.483527
vt -0.413135 0.774569
vn -0.579742 0.304840 -0.755626
vn -0.579742 0.304840 -0.755626
vn -0.579742 0.304840 -0.755626
v -0.826270 1.549137 -0.197664
v -0.215387 2.967055 -0.094329
v -0.014531 3.033155 -0.176634
vt -0.413135 0.774569
vt -0.107693 1.483527
vt -0.007265 1.516577
vn -0.436628 0.251072 -0.863897
vn -0.436628 0.251072 -0.863897
vn -0.436628 0.251072 -0.863897
v -0.826270 1.549137 -0.197664
v -0.014531 3.033155 -0.176634
v -0.461078 1.443518 -0.347310
vt -0.413135 0.774569
vt -0.007265 1.516577
vt -0.230539 0.721759
vn -0.324510 0.190632 -0.926473
vn -0.324510 0.190632 -0.926473
vn -0.324510 0.190632 -0.926473
v -0.461078 1.443518 -0.347310
v -0.014531 3.033155 -0.176634
v 0.307891 2.907632 -0.246863
vt -0.230539 0.721759
vt -0.007265 1.516577
vt 0.153945 1.453816
vn -0.154971 0.148401 -0.976709
vn -0.154971 0.148401 -0.976709
vn -0.154971 0.148401 -0.976709
v -0.461078 1.443518 -0.347310
v 0.307891 2.907632 -0.246863
v 0.125143 1.493205 -0.475000
vt -0.230539 0.721759
vt 0.153945 1.453816
vt 0.062571 0.746602
vn -0.224031 0.183332 -0.957183
vn -0.224031 0.183332 -0.957183
vn -0.224031 0.183332 -0.957183
v 0.125143 1.493205 -0.475000
v 0.307891 2.907632 -0.246863
v 0.646895 2.919200 -0.203111
vt 0.062571 0.746602
vt 0.153945 1.453816
vt 0.323447 1.459600
vn 0.121899 0.142677 -0.982234
vn 0.121899 0.142677 -0.982234
vn 0.121899 0.142677 -0.982234
v 0.125143 1.493205 -0.475000
v 0.646895 2.919200 -0.203111
v 0.741514 1.613939 -0.395451
vt 0.062571 0.746602
vt 0.323447 1.459600
vt 0.370757 0.806969
vn 0.097173 0.151984 -0.983595
vn 0.097173 0.151984 -0.983595
vn 0.097173 0.151984 -0.983595
v 0.741514 1.613939 -0.395451
v 0.646895 2.919200 -0.203111
v 0.845270 2.793963 -0.088740
vt 0.370757 0.806969
vt 0.323447 1.459600
vt 0.422635 1.396981
vn 0.566970 0.160167 -0.808017
vn 0.566970 0.160167 -0.808017
vn 0.566970 0.160167 -0.808017
v 0.741514 1.613939 -0.395451
v 0.845270 2.793963 -0.088740
v 1.102196 1.426252 -0.187503
vt 0.370757 0.806969
vt 0.422635 1.396981
vt 0.551098 0.713126
vn 0.555136 0.163178 -0.815596
vn 0.555136 0.163178 -0.815596
vn 0.555136 0.163178 -0.815596
v 1.102196 1.426252 -0.187503
v 0.845270 2.793963 -0.088740
v 0.899062 2.849079 0.044548
vt 0.713126 -0.093752
vt 1.396981 -0.044370
vt 1.424540 0.022274
vn 0.878371 0.196468 -0.435735
vn 0.878371 0.196468 -0.435735
vn 0.878371 0.196468 -0.435735
v 1.102196 1.426252 -0.187503
v 0.899062 2.849079 0.044548
v 1.200000 1.730615 0.054838
vt 0.713126 -0.093752
vt 1.424540 0.022274
vt 0.865307 0.027419
vn 0.789055 0.206984 -0.578403
vn 0.789055 0.206984 -0.578403
vn 0.789055 0.206984 -0.578403
v -0.161455 0.000000 0.040182
v 0.697650 0.000000 0.049350
v 0.695656 0.000000 0.240909
vt -0.080728 0.020091
vt 0.348825 0.024675
vt 0.347828 0.120455
vn 0.000000 -1.000000 0.000000
vn 0.000000 -1.000000 0.000000
vn 0.000000 -1.000000 0.000000
v -0.161455 0.000000 0.040182
v 0.695656 0.000000 0.240909
v 0.246996 0.000000 0.361253
vt -0.080728 0.020091
vt 0.347828 0.120455
vt 0.123498 0.180626
vn 0.000000 -1.000000 0.000000
vn 0.000000 -1.000000 0.000000
vn 0.000000 -1.000000 0.000000
v -0.161455 0.000000 0.040182
v 0.246996 0.000000 0.361253
v -0.234907 0.000000 0.368673
vt -0.080728 0.020091
vt 0.123498 0.180626
vt -0.117454 0.184336
vn 0.000000 -1.000000 0.000000
vn 0.000000 -1.000000 0.000000
vn 0.000000 -1.000000 0.000000
v -0.161455 0.000000 0.040182
v -0.234907 0.000000 0.368673
v -0.741393 0.000000 0.344859
vt -0.080728 0.020091
vt -0.117454 0.184336
vt -0.370697 0.172430
vn 0.000000 -1.000000 0.000000
vn 0.000000 -1.000000 0.000000
vn 0.000000 -1.000000 0.000000
v -0.161455 0.000000 0.040182
v -0.741393 0.000000 0.344859
v -0.921311 0.000000 0.259755
vt -0.080728 0.020091
vt -0.370697 0.172430
vt -0.460656 0.129877
vn 0.000000 -1.000000 0.000000
vn 0.000000 -1.000000 0.000000
vn 0.000000 -1.000000 0.000000
v -0.161455 0.000000 0.040182
v -0.921311 0.000000 0.259755
v -1.126350 0.000000 0.037250
vt -0.080728 0.020091
vt -0.460656 0.129877
vt -0.563175 0.018625
vn -0.000000 -1.000000 0.000000
vn -0.000000 -1.000000 0.000000
vn -0.000000 -1.000000 0.000000
v -0.161455 0.000000 0.040182
v -1.126350 0.000000 0.037250
v -0.842315 0.000000 -0.142552
vt -0.080728 0.020091
vt -0.563175 0.018625
vt -0.421158 -0.071276
vn 0.000000 -1.000000 0.000000
vn 0.000000 -1.000000 0.000000
vn 0.000000 -1.000000 0.000000
v -0.161455 0.000000 0.040182
v -0.842315 0.000000 -0.142552
v -0.564769 0.000000 -0.256283
vt -0.080728 0.020091
vt -0.421158 -0.071276
vt -0.282385 -0.128141
vn 0.000000 -1.000000 0.000000
vn 0.000000 -1.000000 0.000000
vn 0.000000 -1.000000 0.000000
v -0.161455 0.000000 0.040182
v -0.564769 0.000000 -0.256283
v -0.119241 0.000000 -0.353327
vt -0.080728 0.020091
vt -0.282385 -0.128141
vt -0.059621 -0.176664
vn 0.000000 -1.000000 -0.000000
vn 0.000000 -1.000000 -0.000000
vn 0.000000 -1.000000 -0.000000
v -0.161455 0.000000 0.040182
v -0.119241 0.000000 -0.353327
v 0.349201 0.000000 -0.292870
vt -0.080728 0.020091
vt -0.059621 -0.176664
vt 0.174600 -0.146435
vn 0.000000 -1.000000 0.000000
vn 0.000000 -1.000000 0.000000
vn 0.000000 -1.000000 0.000000
v -0.161455 0.000000 0.040182
v 0.349201 0.000000 -0.292870
v 0.623319 0.000000 -0.134830
vt -0.080728 0.020091
vt 0.174600 -0.146435
vt 0.311659 -0.067415
vn 0.000000 -1.000000 0.000000
vn 0.000000 -1.000000 0.000000
vn 0.000000 -1.000000 0.000000
v -0.161455 0.000000 0.040182
v 0.623319 0.000000 -0.134830
v 0.697650 0.000000 0.049350
vt -0.080728 0.020091
vt 0.311659 -0.067415
vt 0.348825 0.024675
vn 0.000000 -1.000000 0.000000
vn 0.000000 -1.000000 0.000000
vn 0.000000 -1.000000 0.000000
v 0.277341 2.940069 0.037913
v 0.897619 2.984922 0.183176
v 0.899062 2.849079 0.044548
vt 0.138670 0.018957
vt 0.448810 0.091588
vt 0.449531 0.022274
vn 0.111381 0.710382 -0.694947
vn 0.111381 0.710382 -0.694947
vn 0.111381 0.710382 -0.694947
v 0.277341 2.940069 0.037913
v 0.572931 3.006087 0.270267
v 0.897619 2.984922 0.183176
vt 0.138670 0.018957
vt 0.286465 0.135133
vt 0.448810 0.091588
vn -0.007928 0.964502 -0.263955
vn -0.007928 0.964502 -0.263955
vn -0.007928 0.964502 -0.263955
v 0.277341 2.940069 0.037913
v 0.224185 3.039143 0.275637
v 0.572931 3.006087 0.270267
vt 0.138670 0.018957
vt 0.112092 0.137818
vt 0.286465 0.135133
vn 0.082139 0.926316 -0.367685
vn 0.082139 0.926316 -0.367685
vn 0.082139 0.926316 -0.367685
v 0.277341 2.940069 0.037913
v -0.142351 2.849276 0.258403
v 0.224185 3.039143 0.275637
vt 0.138670 0.018957
vt -0.071175 0.129201
vt 0.112092 0.137818
vn -0.399919 0.810828 -0.427345
vn -0.399919 0.810828 -0.427345
vn -0.399919 0.810828 -0.427345
v 0.277341 2.940069 0.037913
v -0.272555 3.100000 0.196814
v -0.142351 2.849276 0.258403
vt 0.138670 1.470034
vt -0.136277 1.550000
vt -0.071175 1.424638
vn 0.359115 0.394286 0.845917
vn 0.359115 0.394286 0.845917
vn 0.359115 0.394286 0.845917
v 0.277341 2.940069 0.037913
v -0.420938 2.831316 0.035791
v -0.272555 3.100000 0.196814
vt 0.138670 1.470034
vt -0.210469 1.415658
vt -0.136277 1.550000
vn -0.082408 0.545399 -0.834116
vn -0.082408 0.545399 -0.834116
vn -0.082408 0.545399 -0.834116
v 0.277341 2.940069 0.037913
v -0.215387 2.967055 -0.094329
v -0.420938 2.831316 0.035791
vt 0.138670 0.018957
vt -0.107693 -0.047164
vt -0.210469 0.017895
vn -0.122960 0.777462 0.616794
vn -0.122960 0.777462 0.616794
vn -0.122960 0.777462 0.616794
v 0.277341 2.940069 0.037913
v -0.014531 3.033155 -0.176634
v -0.215387 2.967055 -0.094329
vt 0.138670 0.018957
vt -0.007265 -0.088317
vt -0.107693 -0.047164
vn -0.084243 0.867166 0.490843
vn -0.084243 0.867166 0.490843
vn -0.084243 0.867166 0.490843
v 0.277341 2.940069 0.037913
v 0.307891 2.907632 -0.246863
v -0.014531 3.033155 -0.176634
vt 0.138670 0.018957
vt 0.153945 -0.123432
vt -0.007265 -0.088317
vn 0.348829 0.934640 -0.069037
vn 0.348829 0.934640 -0.069037
vn 0.348829 0.934640 -0.069037
v 0.277341 2.940069 0.037913
v 0.646895 2.919200 -0.203111
v 0.307891 2.907632 -0.246863
vt 0.138670 0.018957
vt 0.323447 -0.101556
vt 0.153945 -0.123432
vn -0.019026 0.993164 -0.115165
vn -0.019026 0.993164 -0.115165
vn -0.019026 0.993164 -0.115165
v 0.277341 2.940069 0.037913
v 0.845270 2.793963 -0.088740
v 0.646895 2.919200 -0.203111
vt 0.138670 0.018957
vt 0.422635 -0.044370
vt 0.323447 -0.101556
vn 0.311253 0.860786 0.402703
vn 0.311253 0.860786 0.402703
vn 0.311253 0.860786 0.402703
v 0.277341 2.940069 0.037913
v 0.899062 2.849079 0.044548
v 0.845270 2.793963 -0.088740
vt 0.138670 0.018957
vt 0.449531 0.022274
vt 0.422635 -0.044370
vn 0.135529 0.895074 -0.424822
vn 0.135529 0.895074 -0.424822
vn 0.135529 0.895074 -0.424822
f 1/1/1 2/2/2 3/3/3
f 4/4/4 5/5/5 6/6/6
f 7/7/7 8/8/8 9/9/9
f 10/10/10 11/11/11 12/12/12
f 13/13/13 14/14/14 15/15/15
f 16/16/16 17/17/17 18/18/18
f 19/19/19 20/20/20 21/21/21
f 22/22/22 23/23/23 24/24/24
f 25/25/25 26/26/26 27/27/27
f 28/28/28 29/29/29 30/30/30
f 31/31/31 32/32/32 33/33/33
f 34/34/34 35/35/35 36/36/36
f 37/37/37 38/38/38 39/39/39
f 40/40/40 41/41/41 42/42/42
f 43/43/43 44/44/44 45/45/45
f 46/46/46 47/47/47 48/48/48
f 49/49/49 50/50/50 51/51/51
f 52/52/52 53/53/53 54/54/54
f 55/55/55 56/56/56 57/57/57
f 58/58/58 59/59/59 60/60/60
f 61/61/61 62/62/62 63/63/63
f 64/64/64 65/65/65 66/66/66
f 67/67/67 68/68/68 69/69/69
f 70/70/70 71/71/71 72/72/72
f 73/73/73 74/74/74 75/75/75
f 76/76/76 77/77/77 78/78/78
f 79/79/79 80/80/80 81/81/81
f 82/82/82 83/83/83 84/84/84
f 85/85/85 86/86/86 87/87/87
f 88/88/88 89/89/89 90/90/90
f 91/91/91 92/92/92 93/93/93
f 94/94/94 95/95/95 96/96/96
f 97/97/97 98/98/98 99/99/99
f 100/100/100 101/101/101 102/102/102
f 103/103/103 104/104/104 105/105/105
f 106/106/106 107/107/107 108/108/108
f 109/109/109 110/110/110 111/111/111
f 112/112/112 113/113/113 114/114/114
f 115/115/115 116/116/116 117/117/117
f 118/118/118 119/119/119 120/120/120
f 121/121/121 122/122/122 123/123/123
f 124/124/124 125/125/125 126/126/126
f 127/127/127 128/128/128 129/129/129
f 130/130/130 131/131/131 132/132/132
f 133/133/133 134/134/134 135/135/135
f 136/136/136 137/137/137 138/138/138
f 139/139/139 140/140/140 141/141/141
f 142/142/142 143/143/143 144/144/144
f 145/145/145 146/146/146 147/147/147
f 148/148/148 149/149/149 150/150/150
f 151/151/151 152/152/152 153/153/153
f 154/154/154 155/155/155 156/156/156
f 157/157/157 158/158/158 159/159/159
f 160/160/160 161/161/161 162/162/162
f 163/163/163 164/164/164 165/165/165
f 166/166/166 167/167/167 168/168/168
f 169/169/169 170/170/170 171/171/171
f 172/172/172 173/173/173 174/174/174
f 175/175/175 176/176/176 177/177/177
f 178/178/178 179/179/179 180/180/180
f 181/181/181 182/182/182 183/183/183
f 184/184/184 185/185/185 186/186/186
f 187/187/187 188/188/188 189/189/189
f 190/190/190 191/191/191 192/192/192
f 193/193/193 194/194/194 195/195/195
f 196/196/196 197/197/197 198/198/198
f 199/199/199 200/200/200 201/201/201
f 202/202/202 203/203/203 204/204/204
f 205/205/205 206/206/206 207/207/207
f 208/208/208 209/209/209 210/210/210
f 211/211/211 212/212/212 213/213/213
f 214/214/214 215/215/215 216/216/216
