# metres, Y up, base-centred pivot
mtllib Stone.mtl
o Masso_10_Ciottolo
usemtl Stone
s off
v 0.289614 0.000000 -0.032002
v 0.400000 0.187753 -0.037735
v 0.336019 0.223617 0.160085
vt 0.000000 -0.016001
vt 0.093877 -0.018868
vt 0.111809 0.080043
vn 0.812885 -0.467303 0.347630
vn 0.812885 -0.467303 0.347630
vn 0.812885 -0.467303 0.347630
v 0.289614 0.000000 -0.032002
v 0.336019 0.223617 0.160085
v 0.240989 0.000000 0.118342
vt 0.000000 -0.016001
vt 0.111809 0.080043
vt 0.000000 0.059171
vn 0.863815 -0.419248 0.279383
vn 0.863815 -0.419248 0.279383
vn 0.863815 -0.419248 0.279383
v 0.240989 0.000000 0.118342
v 0.336019 0.223617 0.160085
v 0.196118 0.185815 0.248801
vt 0.120494 0.000000
vt 0.168010 0.111809
vt 0.098059 0.092908
vn 0.566508 -0.377488 0.732510
vn 0.566508 -0.377488 0.732510
vn 0.566508 -0.377488 0.732510
v 0.240989 0.000000 0.118342
v 0.196118 0.185815 0.248801
v 0.134664 0.000000 0.185766
vt 0.120494 0.000000
vt 0.098059 0.092908
vt 0.067332 0.000000
vn 0.485860 -0.420603 0.766181
vn 0.485860 -0.420603 0.766181
vn 0.485860 -0.420603 0.766181
v 0.134664 0.000000 0.185766
v 0.196118 0.185815 0.248801
v 0.047014 0.202811 0.350000
vt 0.067332 0.000000
vt 0.098059 0.092908
vt 0.023507 0.101405
vn 0.476501 -0.419667 0.772545
vn 0.476501 -0.419667 0.772545
vn 0.476501 -0.419667 0.772545
v 0.134664 0.000000 0.185766
v 0.047014 0.202811 0.350000
v 0.021345 0.000000 0.262677
vt 0.067332 0.000000
vt 0.023507 0.101405
vt 0.010672 0.000000
vn 0.516406 -0.392959 0.760860
vn 0.516406 -0.392959 0.760860
vn 0.516406 -0.392959 0.760860
v 0.021345 0.000000 0.262677
v 0.047014 0.202811 0.350000
v -0.173081 0.236564 0.325581
vt 0.010672 0.000000
vt 0.023507 0.101405
vt -0.086541 0.118282
vn -0.158675 -0.373444 0.913981
vn -0.158675 -0.373444 0.913981
vn -0.158675 -0.373444 0.913981
v 0.021345 0.000000 0.262677
v -0.173081 0.236564 0.325581
v -0.145927 0.000000 0.244119
vt 0.010672 0.000000
vt -0.086541 0.118282
vt -0.072964 0.000000
vn -0.103921 -0.334473 0.936658
vn -0.103921 -0.334473 0.936658
vn -0.103921 -0.334473 0.936658
v -0.145927 0.000000 0.244119
v -0.173081 0.236564 0.325581
v -0.350587 0.197294 0.209668
vt -0.072964 0.000000
vt -0.086541 0.118282
vt -0.175293 0.098647
vn -0.461834 -0.335719 0.820976
vn -0.461834 -0.335719 0.820976
vn -0.461834 -0.335719 0.820976
v -0.145927 0.000000 0.244119
v -0.350587 0.197294 0.209668
v -0.280832 0.000000 0.156024
vt -0.072964 0.000000
vt -0.175293 0.098647
vt -0.140416 0.000000
vn -0.503928 -0.387990 0.771700
vn -0.503928 -0.387990 0.771700
vn -0.503928 -0.387990 0.771700
v -0.280832 0.000000 0.156024
v -0.350587 0.197294 0.209668
v -0.400000 0.234357 -0.005694
vt 0.000000 0.078012
vt 0.098647 0.104834
vt 0.117178 -0.002847
vn -0.919085 -0.365199 0.148028
vn -0.919085 -0.365199 0.148028
vn -0.919085 -0.365199 0.148028
v -0.280832 0.000000 0.156024
v -0.400000 0.234357 -0.005694
v -0.318386 0.000000 -0.007651
vt 0.000000 0.078012
vt 0.117178 -0.002847
vt 0.000000 -0.003825
vn -0.922430 -0.323001 0.211645
vn -0.922430 -0.323001 0.211645
vn -0.922430 -0.323001 0.211645
v -0.318386 0.000000 -0.007651
v -0.400000 0.234357 -0.005694
v -0.371403 0.233565 -0.170134
vt 0.000000 -0.003825
vt 0.117178 -0.002847
vt 0.116783 -0.085067
vn -0.932528 -0.323410 -0.160618
vn -0.932528 -0.323410 -0.160618
vn -0.932528 -0.323410 -0.160618
v -0.318386 0.000000 -0.007651
v -0.371403 0.233565 -0.170134
v -0.296652 0.000000 -0.132625
vt 0.000000 -0.003825
vt 0.116783 -0.085067
vt 0.000000 -0.066312
vn -0.931967 -0.324298 -0.162076
vn -0.931967 -0.324298 -0.162076
vn -0.931967 -0.324298 -0.162076
v -0.296652 0.000000 -0.132625
v -0.371403 0.233565 -0.170134
v -0.187867 0.195955 -0.350000
vt 0.000000 -0.066312
vt 0.116783 -0.085067
vt 0.097977 -0.175000
vn -0.695012 -0.325398 -0.641151
vn -0.695012 -0.325398 -0.641151
vn -0.695012 -0.325398 -0.641151
v -0.296652 0.000000 -0.132625
v -0.187867 0.195955 -0.350000
v -0.157165 0.000000 -0.269323
vt -0.148326 0.000000
vt -0.093933 0.097977
vt -0.078582 0.000000
vn -0.649034 -0.374358 -0.662277
vn -0.649034 -0.374358 -0.662277
vn -0.649034 -0.374358 -0.662277
v -0.157165 0.000000 -0.269323
v -0.187867 0.195955 -0.350000
v 0.051097 0.204139 -0.307580
vt -0.078582 0.000000
vt -0.093933 0.097977
vt 0.025548 0.102069
vn 0.175297 -0.351204 -0.919743
vn 0.175297 -0.351204 -0.919743
vn 0.175297 -0.351204 -0.919743
v -0.157165 0.000000 -0.269323
v 0.051097 0.204139 -0.307580
v 0.024448 0.000000 -0.237084
vt -0.078582 0.000000
vt 0.025548 0.102069
vt 0.012224 0.000000
vn 0.164302 -0.341079 -0.925565
vn 0.164302 -0.341079 -0.925565
vn 0.164302 -0.341079 -0.925565
v 0.024448 0.000000 -0.237084
v 0.051097 0.204139 -0.307580
v 0.232835 0.226780 -0.292895
vt 0.012224 0.000000
vt 0.025548 0.102069
vt 0.116417 0.113390
vn 0.117543 -0.337831 -0.933838
vn 0.117543 -0.337831 -0.933838
vn 0.117543 -0.337831 -0.933838
v 0.024448 0.000000 -0.237084
v 0.232835 0.226780 -0.292895
v 0.162569 0.000000 -0.225923
vt 0.012224 0.000000
vt 0.116417 0.113390
vt 0.081284 0.000000
vn 0.076723 -0.304182 -0.949519
vn 0.076723 -0.304182 -0.949519
vn 0.076723 -0.304182 -0.949519
v 0.162569 0.000000 -0.225923
v 0.232835 0.226780 -0.292895
v 0.353440 0.220589 -0.175463
vt 0.081284 0.000000
vt 0.116417 0.113390
vt 0.176720 0.110294
vn 0.631043 -0.393036 -0.668810
vn 0.631043 -0.393036 -0.668810
vn 0.631043 -0.393036 -0.668810
v 0.162569 0.000000 -0.225923
v 0.353440 0.220589 -0.175463
v 0.254229 0.000000 -0.136675
vt 0.081284 0.000000
vt 0.176720 0.110294
vt 0.127114 0.000000
vn 0.638604 -0.402541 -0.655855
vn 0.638604 -0.402541 -0.655855
vn 0.638604 -0.402541 -0.655855
v 0.254229 0.000000 -0.136675
v 0.353440 0.220589 -0.175463
v 0.400000 0.187753 -0.037735
vt 0.000000 -0.068337
vt 0.110294 -0.087731
vt 0.093877 -0.018868
vn 0.816910 -0.434172 -0.379674
vn 0.816910 -0.434172 -0.379674
vn 0.816910 -0.434172 -0.379674
v 0.254229 0.000000 -0.136675
v 0.400000 0.187753 -0.037735
v 0.289614 0.000000 -0.032002
vt 0.000000 -0.068337
vt 0.093877 -0.018868
vt 0.000000 -0.016001
vn 0.824172 -0.493063 -0.278619
vn 0.824172 -0.493063 -0.278619
vn 0.824172 -0.493063 -0.278619
v 0.400000 0.187753 -0.037735
v 0.269459 0.525977 -0.028179
v 0.231071 0.495817 0.090513
vt 0.093877 -0.018868
vt 0.262988 -0.014090
vt 0.247909 0.045256
vn 0.872002 0.326248 0.364931
vn 0.872002 0.326248 0.364931
vn 0.872002 0.326248 0.364931
v 0.400000 0.187753 -0.037735
v 0.231071 0.495817 0.090513
v 0.336019 0.223617 0.160085
vt 0.093877 -0.018868
vt 0.247909 0.045256
vt 0.111809 0.080043
vn 0.891240 0.398819 0.215948
vn 0.891240 0.398819 0.215948
vn 0.891240 0.398819 0.215948
v 0.336019 0.223617 0.160085
v 0.231071 0.495817 0.090513
v 0.147130 0.550000 0.143743
vt 0.111809 0.080043
vt 0.247909 0.045256
vt 0.275000 0.071871
vn 0.662974 0.414891 0.623162
vn 0.662974 0.414891 0.623162
vn 0.662974 0.414891 0.623162
v 0.336019 0.223617 0.160085
v 0.147130 0.550000 0.143743
v 0.196118 0.185815 0.248801
vt 0.168010 0.111809
vt 0.073565 0.275000
vt 0.098059 0.092908
vn 0.450671 0.302868 0.839742
vn 0.450671 0.302868 0.839742
vn 0.450671 0.302868 0.839742
v 0.196118 0.185815 0.248801
v 0.147130 0.550000 0.143743
v 0.057668 0.522121 0.204462
vt 0.098059 0.092908
vt 0.073565 0.275000
vt 0.028834 0.261061
vn 0.468953 0.302464 0.829818
vn 0.468953 0.302464 0.829818
vn 0.468953 0.302464 0.829818
v 0.196118 0.185815 0.248801
v 0.057668 0.522121 0.204462
v 0.047014 0.202811 0.350000
vt 0.098059 0.092908
vt 0.028834 0.261061
vt 0.023507 0.101405
vn 0.555658 0.329399 0.763374
vn 0.555658 0.329399 0.763374
vn 0.555658 0.329399 0.763374
v 0.047014 0.202811 0.350000
v 0.057668 0.522121 0.204462
v -0.074390 0.497875 0.189810
vt 0.023507 0.101405
vt 0.028834 0.261061
vt -0.037195 0.248937
vn -0.175013 0.413168 0.893679
vn -0.175013 0.413168 0.893679
vn -0.175013 0.413168 0.893679
v 0.047014 0.202811 0.350000
v -0.074390 0.497875 0.189810
v -0.173081 0.236564 0.325581
vt 0.023507 0.101405
vt -0.037195 0.248937
vt -0.086541 0.118282
vn -0.026097 0.468643 0.883002
vn -0.026097 0.468643 0.883002
vn -0.026097 0.468643 0.883002
v -0.173081 0.236564 0.325581
v -0.074390 0.497875 0.189810
v -0.180893 0.514604 0.120262
vt -0.086541 0.118282
vt -0.037195 0.248937
vt -0.090446 0.257302
vn -0.400477 0.537012 0.742453
vn -0.400477 0.537012 0.742453
vn -0.400477 0.537012 0.742453
v -0.173081 0.236564 0.325581
v -0.180893 0.514604 0.120262
v -0.350587 0.197294 0.209668
vt -0.086541 0.118282
vt -0.090446 0.257302
vt -0.175293 0.098647
vn -0.550718 0.485769 0.678777
vn -0.550718 0.485769 0.678777
vn -0.550718 0.485769 0.678777
v -0.350587 0.197294 0.209668
v -0.180893 0.514604 0.120262
v -0.210541 0.498614 -0.008955
vt 0.098647 0.104834
vt 0.257302 0.060131
vt 0.249307 -0.004477
vn -0.857364 0.496619 0.135261
vn -0.857364 0.496619 0.135261
vn -0.857364 0.496619 0.135261
v -0.350587 0.197294 0.209668
v -0.210541 0.498614 -0.008955
v -0.400000 0.234357 -0.005694
vt 0.098647 0.104834
vt 0.249307 -0.004477
vt 0.117178 -0.002847
vn -0.779608 0.562341 0.275652
vn -0.779608 0.562341 0.275652
vn -0.779608 0.562341 0.275652
v -0.400000 0.234357 -0.005694
v -0.210541 0.498614 -0.008955
v -0.193382 0.495096 -0.107619
vt 0.117178 -0.002847
vt 0.249307 -0.004477
vt 0.247548 -0.053809
vn -0.803155 0.573846 -0.160135
vn -0.803155 0.573846 -0.160135
vn -0.803155 0.573846 -0.160135
v -0.400000 0.234357 -0.005694
v -0.193382 0.495096 -0.107619
v -0.371403 0.233565 -0.170134
vt 0.117178 -0.002847
vt 0.247548 -0.053809
vt 0.116783 -0.085067
vn -0.802102 0.579990 -0.142283
vn -0.802102 0.579990 -0.142283
vn -0.802102 0.579990 -0.142283
v -0.371403 0.233565 -0.170134
v -0.193382 0.495096 -0.107619
v -0.083261 0.525102 -0.215538
vt 0.116783 -0.085067
vt 0.247548 -0.053809
vt 0.262551 -0.107769
vn -0.651078 0.564470 -0.507415
vn -0.651078 0.564470 -0.507415
vn -0.651078 0.564470 -0.507415
v -0.371403 0.233565 -0.170134
v -0.083261 0.525102 -0.215538
v -0.187867 0.195955 -0.350000
vt -0.185701 0.116783
vt -0.041631 0.262551
vt -0.093933 0.097977
vn -0.571897 0.459392 -0.679627
vn -0.571897 0.459392 -0.679627
vn -0.571897 0.459392 -0.679627
v -0.187867 0.195955 -0.350000
v -0.083261 0.525102 -0.215538
v 0.060117 0.485249 -0.190086
vt -0.093933 0.097977
vt -0.041631 0.262551
vt 0.030059 0.242625
vn 0.246598 0.298306 -0.922064
vn 0.246598 0.298306 -0.922064
vn 0.246598 0.298306 -0.922064
v -0.187867 0.195955 -0.350000
v 0.060117 0.485249 -0.190086
v 0.051097 0.204139 -0.307580
vt -0.093933 0.097977
vt 0.030059 0.242625
vt 0.025548 0.102069
vn 0.149330 0.377228 -0.914002
vn 0.149330 0.377228 -0.914002
vn 0.149330 0.377228 -0.914002
v 0.051097 0.204139 -0.307580
v 0.060117 0.485249 -0.190086
v 0.169160 0.494420 -0.181275
vt 0.025548 0.102069
vt 0.030059 0.242625
vt 0.084580 0.247210
vn 0.042217 0.384138 -0.922310
vn 0.042217 0.384138 -0.922310
vn 0.042217 0.384138 -0.922310
v 0.051097 0.204139 -0.307580
v 0.169160 0.494420 -0.181275
v 0.232835 0.226780 -0.292895
vt 0.025548 0.102069
vt 0.084580 0.247210
vt 0.116417 0.113390
vn 0.025787 0.390010 -0.920449
vn 0.025787 0.390010 -0.920449
vn 0.025787 0.390010 -0.920449
v 0.232835 0.226780 -0.292895
v 0.169160 0.494420 -0.181275
v 0.241523 0.484198 -0.110816
vt 0.113390 -0.146448
vt 0.247210 -0.090638
vt 0.242099 -0.055408
vn 0.663646 0.416917 -0.621091
vn 0.663646 0.416917 -0.621091
vn 0.663646 0.416917 -0.621091
v 0.232835 0.226780 -0.292895
v 0.241523 0.484198 -0.110816
v 0.353440 0.220589 -0.175463
vt 0.113390 -0.146448
vt 0.242099 -0.055408
vt 0.110294 -0.087731
vn 0.641550 0.428417 -0.636296
vn 0.641550 0.428417 -0.636296
vn 0.641550 0.428417 -0.636296
v 0.353440 0.220589 -0.175463
v 0.241523 0.484198 -0.110816
v 0.269459 0.525977 -0.028179
vt 0.110294 -0.087731
vt 0.242099 -0.055408
vt 0.262988 -0.014090
vn 0.759488 0.439958 -0.479181
vn 0.759488 0.439958 -0.479181
vn 0.759488 0.439958 -0.479181
v 0.353440 0.220589 -0.175463
v 0.269459 0.525977 -0.028179
v 0.400000 0.187753 -0.037735
vt 0.110294 -0.087731
vt 0.262988 -0.014090
vt 0.093877 -0.018868
vn 0.907565 0.356551 -0.221806
vn 0.907565 0.356551 -0.221806
vn 0.907565 0.356551 -0.221806
v -0.005925 0.000000 -0.006196
v 0.289614 0.000000 -0.032002
v 0.240989 0.000000 0.118342
vt -0.002963 -0.003098
vt 0.144807 -0.016001
vt 0.120494 0.059171
vn 0.000000 -1.000000 0.000000
vn 0.000000 -1.000000 0.000000
vn 0.000000 -1.000000 0.000000
v -0.005925 0.000000 -0.006196
v 0.240989 0.000000 0.118342
v 0.134664 0.000000 0.185766
vt -0.002963 -0.003098
vt 0.120494 0.059171
vt 0.067332 0.092883
vn 0.000000 -1.000000 0.000000
vn 0.000000 -1.000000 0.000000
vn 0.000000 -1.000000 0.000000
v -0.005925 0.000000 -0.006196
v 0.134664 0.000000 0.185766
v 0.021345 0.000000 0.262677
vt -0.002963 -0.003098
vt 0.067332 0.092883
vt 0.010672 0.131339
vn 0.000000 -1.000000 0.000000
vn 0.000000 -1.000000 0.000000
vn 0.000000 -1.000000 0.000000
v -0.005925 0.000000 -0.006196
v 0.021345 0.000000 0.262677
v -0.145927 0.000000 0.244119
vt -0.002963 -0.003098
vt 0.010672 0.131339
vt -0.072964 0.122059
vn 0.000000 -1.000000 0.000000
vn 0.000000 -1.000000 0.000000
vn 0.000000 -1.000000 0.000000
v -0.005925 0.000000 -0.006196
v -0.145927 0.000000 0.244119
v -0.280832 0.000000 0.156024
vt -0.002963 -0.003098
vt -0.072964 0.122059
vt -0.140416 0.078012
vn 0.000000 -1.000000 0.000000
vn 0.000000 -1.000000 0.000000
vn 0.000000 -1.000000 0.000000
v -0.005925 0.000000 -0.006196
v -0.280832 0.000000 0.156024
v -0.318386 0.000000 -0.007651
vt -0.002963 -0.003098
vt -0.140416 0.078012
vt -0.159193 -0.003825
vn -0.000000 -1.000000 0.000000
vn -0.000000 -1.000000 0.000000
vn -0.000000 -1.000000 0.000000
v -0.005925 0.000000 -0.006196
v -0.318386 0.000000 -0.007651
v -0.296652 0.000000 -0.132625
vt -0.002963 -0.003098
vt -0.159193 -0.003825
vt -0.148326 -0.066312
vn 0.000000 -1.000000 0.000000
vn 0.000000 -1.000000 0.000000
vn 0.000000 -1.000000 0.000000
v -0.005925 0.000000 -0.006196
v -0.296652 0.000000 -0.132625
v -0.157165 0.000000 -0.269323
vt -0.002963 -0.003098
vt -0.148326 -0.066312
vt -0.078582 -0.134661
vn 0.000000 -1.000000 0.000000
vn 0.000000 -1.000000 0.000000
vn 0.000000 -1.000000 0.000000
v -0.005925 0.000000 -0.006196
v -0.157165 0.000000 -0.269323
v 0.024448 0.000000 -0.237084
vt -0.002963 -0.003098
vt -0.078582 -0.134661
vt 0.012224 -0.118542
vn 0.000000 -1.000000 -0.000000
vn 0.000000 -1.000000 -0.000000
vn 0.000000 -1.000000 -0.000000
v -0.005925 0.000000 -0.006196
v 0.024448 0.000000 -0.237084
v 0.162569 0.000000 -0.225923
vt -0.002963 -0.003098
vt 0.012224 -0.118542
vt 0.081284 -0.112962
vn 0.000000 -1.000000 0.000000
vn 0.000000 -1.000000 0.000000
vn 0.000000 -1.000000 0.000000
v -0.005925 0.000000 -0.006196
v 0.162569 0.000000 -0.225923
v 0.254229 0.000000 -0.136675
vt -0.002963 -0.003098
vt 0.081284 -0.112962
vt 0.127114 -0.068337
vn 0.000000 -1.000000 0.000000
vn 0.000000 -1.000000 0.000000
vn 0.000000 -1.000000 0.000000
v -0.005925 0.000000 -0.006196
v 0.254229 0.000000 -0.136675
v 0.289614 0.000000 -0.032002
vt -0.002963 -0.003098
vt 0.127114 -0.068337
vt 0.144807 -0.016001
vn 0.000000 -1.000000 0.000000
vn 0.000000 -1.000000 0.000000
vn 0.000000 -1.000000 0.000000
v 0.036138 0.507423 -0.007807
v 0.231071 0.495817 0.090513
v 0.269459 0.525977 -0.028179
vt 0.018069 -0.003903
vt 0.115535 0.045256
vt 0.134730 -0.014090
vn -0.057342 0.971875 0.228409
vn -0.057342 0.971875 0.228409
vn -0.057342 0.971875 0.228409
v 0.036138 0.507423 -0.007807
v 0.147130 0.550000 0.143743
v 0.231071 0.495817 0.090513
vt 0.018069 -0.003903
vt 0.073565 0.071871
vt 0.115535 0.045256
vn 0.272972 0.855382 -0.440235
vn 0.272972 0.855382 -0.440235
vn 0.272972 0.855382 -0.440235
v 0.036138 0.507423 -0.007807
v 0.057668 0.522121 0.204462
v 0.147130 0.550000 0.143743
vt 0.018069 -0.003903
vt 0.028834 0.102231
vt 0.073565 0.071871
vn -0.317921 0.947530 -0.033367
vn -0.317921 0.947530 -0.033367
vn -0.317921 0.947530 -0.033367
v 0.036138 0.507423 -0.007807
v -0.074390 0.497875 0.189810
v 0.057668 0.522121 0.204462
vt 0.018069 -0.003903
vt -0.037195 0.094905
vt 0.028834 0.102231
vn -0.174955 0.983289 -0.050343
vn -0.174955 0.983289 -0.050343
vn -0.174955 0.983289 -0.050343
v 0.036138 0.507423 -0.007807
v -0.180893 0.514604 0.120262
v -0.074390 0.497875 0.189810
vt 0.018069 -0.003903
vt -0.090446 0.060131
vt -0.037195 0.094905
vn 0.091112 0.990924 0.098838
vn 0.091112 0.990924 0.098838
vn 0.091112 0.990924 0.098838
v 0.036138 0.507423 -0.007807
v -0.210541 0.498614 -0.008955
v -0.180893 0.514604 0.120262
vt 0.018069 -0.003903
vt -0.105270 -0.004477
vt -0.090446 0.060131
vn -0.034917 0.992770 -0.114840
vn -0.034917 0.992770 -0.114840
vn -0.034917 0.992770 -0.114840
v 0.036138 0.507423 -0.007807
v -0.193382 0.495096 -0.107619
v -0.210541 0.498614 -0.008955
vt 0.018069 -0.003903
vt -0.096691 -0.053809
vt -0.105270 -0.004477
vn -0.035462 0.998498 -0.041768
vn -0.035462 0.998498 -0.041768
vn -0.035462 0.998498 -0.041768
v 0.036138 0.507423 -0.007807
v -0.083261 0.525102 -0.215538
v -0.193382 0.495096 -0.107619
vt 0.018069 -0.003903
vt -0.041631 -0.107769
vt -0.096691 -0.053809
vn -0.118684 0.981271 0.151731
vn -0.118684 0.981271 0.151731
vn -0.118684 0.981271 0.151731
v 0.036138 0.507423 -0.007807
v 0.060117 0.485249 -0.190086
v -0.083261 0.525102 -0.215538
vt 0.018069 -0.003903
vt 0.030059 -0.095043
vt -0.041631 -0.107769
vn 0.280040 0.956688 -0.079539
vn 0.280040 0.956688 -0.079539
vn 0.280040 0.956688 -0.079539
v 0.036138 0.507423 -0.007807
v 0.169160 0.494420 -0.181275
v 0.060117 0.485249 -0.190086
vt 0.018069 -0.003903
vt 0.084580 -0.090638
vt 0.030059 -0.095043
vn -0.072675 0.988866 -0.129853
vn -0.072675 0.988866 -0.129853
vn -0.072675 0.988866 -0.129853
v 0.036138 0.507423 -0.007807
v 0.241523 0.484198 -0.110816
v 0.169160 0.494420 -0.181275
vt 0.018069 -0.003903
vt 0.120762 -0.055408
vt 0.084580 -0.090638
vn 0.121723 0.992383 0.018954
vn 0.121723 0.992383 0.018954
vn 0.121723 0.992383 0.018954
v 0.036138 0.507423 -0.007807
v 0.269459 0.525977 -0.028179
v 0.241523 0.484198 -0.110816
vt 0.018069 -0.003903
vt 0.134730 -0.014090
vt 0.120762 -0.055408
vn -0.108282 0.901443 -0.419136
vn -0.108282 0.901443 -0.419136
vn -0.108282 0.901443 -0.419136
f 1/1/1 2/2/2 3/3/3
f 4/4/4 5/5/5 6/6/6
f 7/7/7 8/8/8 9/9/9
f 10/10/10 11/11/11 12/12/12
f 13/13/13 14/14/14 15/15/15
f 16/16/16 17/17/17 18/18/18
f 19/19/19 20/20/20 21/21/21
f 22/22/22 23/23/23 24/24/24
f 25/25/25 26/26/26 27/27/27
f 28/28/28 29/29/29 30/30/30
f 31/31/31 32/32/32 33/33/33
f 34/34/34 35/35/35 36/36/36
f 37/37/37 38/38/38 39/39/39
f 40/40/40 41/41/41 42/42/42
f 43/43/43 44/44/44 45/45/45
f 46/46/46 47/47/47 48/48/48
f 49/49/49 50/50/50 51/51/51
f 52/52/52 53/53/53 54/54/54
f 55/55/55 56/56/56 57/57/57
f 58/58/58 59/59/59 60/60/60
f 61/61/61 62/62/62 63/63/63
f 64/64/64 65/65/65 66/66/66
f 67/67/67 68/68/68 69/69/69
f 70/70/70 71/71/71 72/72/72
f 73/73/73 74/74/74 75/75/75
f 76/76/76 77/77/77 78/78/78
f 79/79/79 80/80/80 81/81/81
f 82/82/82 83/83/83 84/84/84
f 85/85/85 86/86/86 87/87/87
f 88/88/88 89/89/89 90/90/90
f 91/91/91 92/92/92 93/93/93
f 94/94/94 95/95/95 96/96/96
f 97/97/97 98/98/98 99/99/99
f 100/100/100 101/101/101 102/102/102
f 103/103/103 104/104/104 105/105/105
f 106/106/106 107/107/107 108/108/108
f 109/109/109 110/110/110 111/111/111
f 112/112/112 113/113/113 114/114/114
f 115/115/115 116/116/116 117/117/117
f 118/118/118 119/119/119 120/120/120
f 121/121/121 122/122/122 123/123/123
f 124/124/124 125/125/125 126/126/126
f 127/127/127 128/128/128 129/129/129
f 130/130/130 131/131/131 132/132/132
f 133/133/133 134/134/134 135/135/135
f 136/136/136 137/137/137 138/138/138
f 139/139/139 140/140/140 141/141/141
f 142/142/142 143/143/143 144/144/144
f 145/145/145 146/146/146 147/147/147
f 148/148/148 149/149/149 150/150/150
f 151/151/151 152/152/152 153/153/153
f 154/154/154 155/155/155 156/156/156
f 157/157/157 158/158/158 159/159/159
f 160/160/160 161/161/161 162/162/162
f 163/163/163 164/164/164 165/165/165
f 166/166/166 167/167/167 168/168/168
f 169/169/169 170/170/170 171/171/171
f 172/172/172 173/173/173 174/174/174
f 175/175/175 176/176/176 177/177/177
f 178/178/178 179/179/179 180/180/180
f 181/181/181 182/182/182 183/183/183
f 184/184/184 185/185/185 186/186/186
f 187/187/187 188/188/188 189/189/189
f 190/190/190 191/191/191 192/192/192
f 193/193/193 194/194/194 195/195/195
f 196/196/196 197/197/197 198/198/198
f 199/199/199 200/200/200 201/201/201
f 202/202/202 203/203/203 204/204/204
f 205/205/205 206/206/206 207/207/207
f 208/208/208 209/209/209 210/210/210
f 211/211/211 212/212/212 213/213/213
f 214/214/214 215/215/215 216/216/216
