# metres, Y up, base-centred pivot
mtllib Stone.mtl
o Masso_08_Allungato
usemtl Stone
s off
v 1.298350 0.000000 -0.026049
v 1.600000 0.562124 -0.043312
v 1.322094 0.577764 0.267795
vt 0.000000 -0.013024
vt 0.281062 -0.021656
vt 0.288882 0.133897
vn 0.689615 -0.350604 0.633646
vn 0.689615 -0.350604 0.633646
vn 0.689615 -0.350604 0.633646
v 1.298350 0.000000 -0.026049
v 1.322094 0.577764 0.267795
v 1.087141 0.000000 0.210393
vt 0.000000 -0.013024
vt 0.288882 0.133897
vt 0.000000 0.105196
vn 0.699561 -0.346567 0.624905
vn 0.699561 -0.346567 0.624905
vn 0.699561 -0.346567 0.624905
v 1.087141 0.000000 0.210393
v 1.322094 0.577764 0.267795
v 0.736294 0.532802 0.436556
vt 0.543571 0.000000
vt 0.661047 0.288882
vt 0.368147 0.266401
vn 0.285493 -0.209023 0.935309
vn 0.285493 -0.209023 0.935309
vn 0.285493 -0.209023 0.935309
v 1.087141 0.000000 0.210393
v 0.736294 0.532802 0.436556
v 0.641934 0.000000 0.338651
vt 0.543571 0.000000
vt 0.368147 0.266401
vt 0.320967 0.000000
vn 0.270041 -0.220069 0.937362
vn 0.270041 -0.220069 0.937362
vn 0.270041 -0.220069 0.937362
v 0.641934 0.000000 0.338651
v 0.736294 0.532802 0.436556
v 0.098838 0.500912 0.575000
vt 0.320967 0.000000
vt 0.368147 0.266401
vt 0.049419 0.250456
vn 0.217529 -0.213535 0.952410
vn 0.217529 -0.213535 0.952410
vn 0.217529 -0.213535 0.952410
v 0.641934 0.000000 0.338651
v 0.098838 0.500912 0.575000
v 0.157467 0.000000 0.443869
vt 0.320967 0.000000
vt 0.049419 0.250456
vt 0.078734 0.000000
vn 0.206790 -0.225055 0.952149
vn 0.206790 -0.225055 0.952149
vn 0.206790 -0.225055 0.952149
v 0.157467 0.000000 0.443869
v 0.098838 0.500912 0.575000
v -0.612892 0.462631 0.455351
vt 0.078734 0.000000
vt 0.049419 0.250456
vt -0.306446 0.231316
vn -0.145833 -0.266483 0.952743
vn -0.145833 -0.266483 0.952743
vn -0.145833 -0.266483 0.952743
v 0.157467 0.000000 0.443869
v -0.612892 0.462631 0.455351
v -0.383447 0.000000 0.352935
vt 0.078734 0.000000
vt -0.306446 0.231316
vt -0.191724 0.000000
vn -0.158769 -0.287818 0.944433
vn -0.158769 -0.287818 0.944433
vn -0.158769 -0.287818 0.944433
v -0.383447 0.000000 0.352935
v -0.612892 0.462631 0.455351
v -1.312182 0.577284 0.346026
vt -0.191724 0.000000
vt -0.306446 0.231316
vt -0.656091 0.288642
vn -0.195544 -0.303431 0.932573
vn -0.195544 -0.303431 0.932573
vn -0.195544 -0.303431 0.932573
v -0.383447 0.000000 0.352935
v -1.312182 0.577284 0.346026
v -0.914908 0.000000 0.269849
vt -0.191724 0.000000
vt -0.656091 0.288642
vt -0.457454 0.000000
vn -0.150307 -0.230309 0.961439
vn -0.150307 -0.230309 0.961439
vn -0.150307 -0.230309 0.961439
v -0.914908 0.000000 0.269849
v -1.312182 0.577284 0.346026
v -1.600000 0.517737 0.017837
vt -0.457454 0.000000
vt -0.656091 0.288642
vt -0.800000 0.258868
vn -0.605016 -0.498306 0.621005
vn -0.605016 -0.498306 0.621005
vn -0.605016 -0.498306 0.621005
v -0.914908 0.000000 0.269849
v -1.600000 0.517737 0.017837
v -1.133650 0.000000 0.020425
vt 0.000000 0.134924
vt 0.258868 0.008919
vt 0.000000 0.010212
vn -0.623470 -0.558857 0.546776
vn -0.623470 -0.558857 0.546776
vn -0.623470 -0.558857 0.546776
v -1.133650 0.000000 0.020425
v -1.600000 0.517737 0.017837
v -1.158183 0.571800 -0.265315
vt -0.566825 0.000000
vt -0.800000 0.258868
vt -0.579092 0.285900
vn -0.454839 -0.413637 -0.788686
vn -0.454839 -0.413637 -0.788686
vn -0.454839 -0.413637 -0.788686
v -1.133650 0.000000 0.020425
v -1.158183 0.571800 -0.265315
v -0.797869 0.000000 -0.194771
vt -0.566825 0.000000
vt -0.579092 0.285900
vt -0.398935 0.000000
vn -0.493178 -0.405709 -0.769530
vn -0.493178 -0.405709 -0.769530
vn -0.493178 -0.405709 -0.769530
v -0.797869 0.000000 -0.194771
v -1.158183 0.571800 -0.265315
v -0.700000 0.599983 -0.522439
vt -0.398935 0.000000
vt -0.579092 0.285900
vt -0.350000 0.299992
vn -0.435884 -0.375573 -0.817893
vn -0.435884 -0.375573 -0.817893
vn -0.435884 -0.375573 -0.817893
v -0.797869 0.000000 -0.194771
v -0.700000 0.599983 -0.522439
v -0.449650 0.000000 -0.390185
vt -0.398935 0.000000
vt -0.350000 0.299992
vt -0.224825 0.000000
vn -0.454942 -0.368529 -0.810687
vn -0.454942 -0.368529 -0.810687
vn -0.454942 -0.368529 -0.810687
v -0.449650 0.000000 -0.390185
v -0.700000 0.599983 -0.522439
v -0.167786 0.494467 -0.575000
vt -0.224825 0.000000
vt -0.350000 0.299992
vt -0.083893 0.247234
vn -0.147715 -0.271285 -0.951097
vn -0.147715 -0.271285 -0.951097
vn -0.147715 -0.271285 -0.951097
v -0.449650 0.000000 -0.390185
v -0.167786 0.494467 -0.575000
v -0.045167 0.000000 -0.430131
vt -0.224825 0.000000
vt -0.083893 0.247234
vt -0.022584 0.000000
vn -0.093716 -0.301255 -0.948927
vn -0.093716 -0.301255 -0.948927
vn -0.093716 -0.301255 -0.948927
v -0.045167 0.000000 -0.430131
v -0.167786 0.494467 -0.575000
v 0.792671 0.522994 -0.443304
vt -0.022584 0.000000
vt -0.083893 0.247234
vt 0.396335 0.261497
vn 0.138837 -0.246575 -0.959127
vn 0.138837 -0.246575 -0.959127
vn 0.138837 -0.246575 -0.959127
v -0.045167 0.000000 -0.430131
v 0.792671 0.522994 -0.443304
v 0.684780 0.000000 -0.330042
vt -0.022584 0.000000
vt 0.396335 0.261497
vt 0.342390 0.000000
vn 0.132018 -0.235744 -0.962806
vn 0.132018 -0.235744 -0.962806
vn 0.132018 -0.235744 -0.962806
v 0.684780 0.000000 -0.330042
v 0.792671 0.522994 -0.443304
v 1.157121 0.564359 -0.254395
vt 0.342390 0.000000
vt 0.396335 0.261497
vt 0.578561 0.282179
vn 0.466730 -0.278098 -0.839539
vn 0.466730 -0.278098 -0.839539
vn 0.466730 -0.278098 -0.839539
v 0.684780 0.000000 -0.330042
v 1.157121 0.564359 -0.254395
v 0.961762 0.000000 -0.186472
vt 0.342390 0.000000
vt 0.578561 0.282179
vt 0.480881 0.000000
vn 0.444710 -0.257200 -0.857952
vn 0.444710 -0.257200 -0.857952
vn 0.444710 -0.257200 -0.857952
v 0.961762 0.000000 -0.186472
v 1.157121 0.564359 -0.254395
v 1.600000 0.562124 -0.043312
vt 0.480881 0.000000
vt 0.578561 0.282179
vt 0.800000 0.281062
vn 0.415652 -0.249160 -0.874730
vn 0.415652 -0.249160 -0.874730
vn 0.415652 -0.249160 -0.874730
v 0.961762 0.000000 -0.186472
v 1.600000 0.562124 -0.043312
v 1.298350 0.000000 -0.026049
vt 0.480881 0.000000
vt 0.800000 0.281062
vt 0.649175 0.000000
vn 0.416543 -0.250368 -0.873961
vn 0.416543 -0.250368 -0.873961
vn 0.416543 -0.250368 -0.873961
v 1.600000 0.562124 -0.043312
v 0.735248 1.090363 -0.008785
v 0.590736 1.126661 0.152990
vt 0.800000 -0.021656
vt 0.367624 -0.004393
vt 0.295368 0.076495
vn 0.509524 0.816339 0.271986
vn 0.509524 0.816339 0.271986
vn 0.509524 0.816339 0.271986
v 1.600000 0.562124 -0.043312
v 0.590736 1.126661 0.152990
v 1.322094 0.577764 0.267795
vt 0.800000 -0.021656
vt 0.295368 0.076495
vt 0.661047 0.133897
vn 0.504500 0.758484 0.412531
vn 0.504500 0.758484 0.412531
vn 0.504500 0.758484 0.412531
v 1.322094 0.577764 0.267795
v 0.590736 1.126661 0.152990
v 0.286121 1.200000 0.240746
vt 0.661047 0.288882
vt 0.295368 0.563331
vt 0.143060 0.600000
vn 0.351416 0.615737 0.705248
vn 0.351416 0.615737 0.705248
vn 0.351416 0.615737 0.705248
v 1.322094 0.577764 0.267795
v 0.286121 1.200000 0.240746
v 0.736294 0.532802 0.436556
vt 0.661047 0.288882
vt 0.143060 0.600000
vt 0.368147 0.266401
vn 0.223264 0.410156 0.884265
vn 0.223264 0.410156 0.884265
vn 0.223264 0.410156 0.884265
v 0.736294 0.532802 0.436556
v 0.286121 1.200000 0.240746
v -0.045356 1.116784 0.312737
vt 0.368147 0.266401
vt 0.143060 0.600000
vt -0.022678 0.558392
vn 0.114106 0.349875 0.929821
vn 0.114106 0.349875 0.929821
vn 0.114106 0.349875 0.929821
v 0.736294 0.532802 0.436556
v -0.045356 1.116784 0.312737
v 0.098838 0.500912 0.575000
vt 0.368147 0.266401
vt -0.022678 0.558392
vt 0.049419 0.250456
vn 0.172518 0.419838 0.891052
vn 0.172518 0.419838 0.891052
vn 0.172518 0.419838 0.891052
v 0.098838 0.500912 0.575000
v -0.045356 1.116784 0.312737
v -0.415456 1.174139 0.250519
vt 0.049419 0.250456
vt -0.022678 0.558392
vt -0.207728 0.587070
vn -0.097876 0.370429 0.923690
vn -0.097876 0.370429 0.923690
vn -0.097876 0.370429 0.923690
v 0.098838 0.500912 0.575000
v -0.415456 1.174139 0.250519
v -0.612892 0.462631 0.455351
vt 0.049419 0.250456
vt -0.207728 0.587070
vt -0.306446 0.231316
vn -0.173792 0.316670 0.932479
vn -0.173792 0.316670 0.932479
vn -0.173792 0.316670 0.932479
v -0.612892 0.462631 0.455351
v -0.415456 1.174139 0.250519
v -0.779087 1.115865 0.193671
vt -0.306446 0.231316
vt -0.207728 0.587070
vt -0.389544 0.557932
vn -0.196309 0.321182 0.926447
vn -0.196309 0.321182 0.926447
vn -0.196309 0.321182 0.926447
v -0.612892 0.462631 0.455351
v -0.779087 1.115865 0.193671
v -1.312182 0.577284 0.346026
vt -0.306446 0.231316
vt -0.389544 0.557932
vt -0.656091 0.288642
vn -0.088190 0.350999 0.932213
vn -0.088190 0.350999 0.932213
vn -0.088190 0.350999 0.932213
v -1.312182 0.577284 0.346026
v -0.779087 1.115865 0.193671
v -0.928752 1.104122 0.023012
vt -0.656091 0.173013
vt -0.389544 0.096835
vt -0.464376 0.011506
vn -0.567598 0.689214 0.450352
vn -0.567598 0.689214 0.450352
vn -0.567598 0.689214 0.450352
v -1.312182 0.577284 0.346026
v -0.928752 1.104122 0.023012
v -1.600000 0.517737 0.017837
vt -0.656091 0.173013
vt -0.464376 0.011506
vt -0.800000 0.008919
vn -0.603433 0.687192 0.404519
vn -0.603433 0.687192 0.404519
vn -0.603433 0.687192 0.404519
v -1.600000 0.517737 0.017837
v -0.928752 1.104122 0.023012
v -0.699008 1.151670 -0.124227
vt -0.800000 0.258868
vt -0.464376 0.552061
vt -0.349504 0.575835
vn -0.516800 0.597008 -0.613596
vn -0.516800 0.597008 -0.613596
vn -0.516800 0.597008 -0.613596
v -1.600000 0.517737 0.017837
v -0.699008 1.151670 -0.124227
v -1.158183 0.571800 -0.265315
vt -0.800000 0.258868
vt -0.349504 0.575835
vt -0.579092 0.285900
vn -0.495888 0.555147 -0.667763
vn -0.495888 0.555147 -0.667763
vn -0.495888 0.555147 -0.667763
v -1.158183 0.571800 -0.265315
v -0.699008 1.151670 -0.124227
v -0.460752 1.197647 -0.257931
vt -0.579092 0.285900
vt -0.349504 0.575835
vt -0.230376 0.598824
vn -0.486823 0.550506 -0.678194
vn -0.486823 0.550506 -0.678194
vn -0.486823 0.550506 -0.678194
v -1.158183 0.571800 -0.265315
v -0.460752 1.197647 -0.257931
v -0.700000 0.599983 -0.522439
vt -0.579092 0.285900
vt -0.230376 0.598824
vt -0.350000 0.299992
vn -0.445715 0.505413 -0.738848
vn -0.445715 0.505413 -0.738848
vn -0.445715 0.505413 -0.738848
v -0.700000 0.599983 -0.522439
v -0.460752 1.197647 -0.257931
v -0.184001 1.086231 -0.285263
vt -0.350000 0.299992
vt -0.230376 0.598824
vt -0.092001 0.543116
vn 0.063037 0.382692 -0.921723
vn 0.063037 0.382692 -0.921723
vn 0.063037 0.382692 -0.921723
v -0.700000 0.599983 -0.522439
v -0.184001 1.086231 -0.285263
v -0.167786 0.494467 -0.575000
vt -0.350000 0.299992
vt -0.092001 0.543116
vt -0.083893 0.247234
vn -0.001526 0.439703 -0.898142
vn -0.001526 0.439703 -0.898142
vn -0.001526 0.439703 -0.898142
v -0.167786 0.494467 -0.575000
v -0.184001 1.086231 -0.285263
v 0.315436 1.182034 -0.216781
vt -0.083893 0.247234
vt -0.092001 0.543116
vt 0.157718 0.591017
vn 0.038549 0.440262 -0.897041
vn 0.038549 0.440262 -0.897041
vn 0.038549 0.440262 -0.897041
v -0.167786 0.494467 -0.575000
v 0.315436 1.182034 -0.216781
v 0.792671 0.522994 -0.443304
vt -0.083893 0.247234
vt 0.157718 0.591017
vt 0.396335 0.261497
vn 0.113247 0.395316 -0.911537
vn 0.113247 0.395316 -0.911537
vn 0.113247 0.395316 -0.911537
v 0.792671 0.522994 -0.443304
v 0.315436 1.182034 -0.216781
v 0.504951 1.190405 -0.118548
vt 0.396335 0.261497
vt 0.157718 0.591017
vt 0.252475 0.595203
vn 0.371415 0.530792 -0.761781
vn 0.371415 0.530792 -0.761781
vn 0.371415 0.530792 -0.761781
v 0.792671 0.522994 -0.443304
v 0.504951 1.190405 -0.118548
v 1.157121 0.564359 -0.254395
vt 0.396335 0.261497
vt 0.252475 0.595203
vt 0.578561 0.282179
vn 0.343385 0.526481 -0.777756
vn 0.343385 0.526481 -0.777756
vn 0.343385 0.526481 -0.777756
v 1.157121 0.564359 -0.254395
v 0.504951 1.190405 -0.118548
v 0.735248 1.090363 -0.008785
vt 0.578561 -0.127198
vt 0.252475 -0.059274
vt 0.367624 -0.004393
vn 0.535923 0.669809 -0.513948
vn 0.535923 0.669809 -0.513948
vn 0.535923 0.669809 -0.513948
v 1.157121 0.564359 -0.254395
v 0.735248 1.090363 -0.008785
v 1.600000 0.562124 -0.043312
vt 0.578561 0.282179
vt 0.367624 0.545182
vt 0.800000 0.281062
vn 0.343662 0.609300 -0.714598
vn 0.343662 0.609300 -0.714598
vn 0.343662 0.609300 -0.714598
v 0.092229 0.000000 0.006539
v 1.298350 0.000000 -0.026049
v 1.087141 0.000000 0.210393
vt 0.046114 0.003270
vt 0.649175 -0.013024
vt 0.543571 0.105196
vn 0.000000 -1.000000 0.000000
vn 0.000000 -1.000000 0.000000
vn 0.000000 -1.000000 0.000000
v 0.092229 0.000000 0.006539
v 1.087141 0.000000 0.210393
v 0.641934 0.000000 0.338651
vt 0.046114 0.003270
vt 0.543571 0.105196
vt 0.320967 0.169325
vn 0.000000 -1.000000 0.000000
vn 0.000000 -1.000000 0.000000
vn 0.000000 -1.000000 0.000000
v 0.092229 0.000000 0.006539
v 0.641934 0.000000 0.338651
v 0.157467 0.000000 0.443869
vt 0.046114 0.003270
vt 0.320967 0.169325
vt 0.078734 0.221934
vn 0.000000 -1.000000 0.000000
vn 0.000000 -1.000000 0.000000
vn 0.000000 -1.000000 0.000000
v 0.092229 0.000000 0.006539
v 0.157467 0.000000 0.443869
v -0.383447 0.000000 0.352935
vt 0.046114 0.003270
vt 0.078734 0.221934
vt -0.191724 0.176467
vn 0.000000 -1.000000 0.000000
vn 0.000000 -1.000000 0.000000
vn 0.000000 -1.000000 0.000000
v 0.092229 0.000000 0.006539
v -0.383447 0.000000 0.352935
v -0.914908 0.000000 0.269849
vt 0.046114 0.003270
vt -0.191724 0.176467
vt -0.457454 0.134924
vn 0.000000 -1.000000 0.000000
vn 0.000000 -1.000000 0.000000
vn 0.000000 -1.000000 0.000000
v 0.092229 0.000000 0.006539
v -0.914908 0.000000 0.269849
v -1.133650 0.000000 0.020425
vt 0.046114 0.003270
vt -0.457454 0.134924
vt -0.566825 0.010212
vn 0.000000 -1.000000 0.000000
vn 0.000000 -1.000000 0.000000
vn 0.000000 -1.000000 0.000000
v 0.092229 0.000000 0.006539
v -1.133650 0.000000 0.020425
v -0.797869 0.000000 -0.194771
vt 0.046114 0.003270
vt -0.566825 0.010212
vt -0.398935 -0.097385
vn -0.000000 -1.000000 0.000000
vn -0.000000 -1.000000 0.000000
vn -0.000000 -1.000000 0.000000
v 0.092229 0.000000 0.006539
v -0.797869 0.000000 -0.194771
v -0.449650 0.000000 -0.390185
vt 0.046114 0.003270
vt -0.398935 -0.097385
vt -0.224825 -0.195092
vn 0.000000 -1.000000 0.000000
vn 0.000000 -1.000000 0.000000
vn 0.000000 -1.000000 0.000000
v 0.092229 0.000000 0.006539
v -0.449650 0.000000 -0.390185
v -0.045167 0.000000 -0.430131
vt 0.046114 0.003270
vt -0.224825 -0.195092
vt -0.022584 -0.215066
vn 0.000000 -1.000000 0.000000
vn 0.000000 -1.000000 0.000000
vn 0.000000 -1.000000 0.000000
v 0.092229 0.000000 0.006539
v -0.045167 0.000000 -0.430131
v 0.684780 0.000000 -0.330042
vt 0.046114 0.003270
vt -0.022584 -0.215066
vt 0.342390 -0.165021
vn 0.000000 -1.000000 -0.000000
vn 0.000000 -1.000000 -0.000000
vn 0.000000 -1.000000 -0.000000
v 0.092229 0.000000 0.006539
v 0.684780 0.000000 -0.330042
v 0.961762 0.000000 -0.186472
vt 0.046114 0.003270
vt 0.342390 -0.165021
vt 0.480881 -0.093236
vn 0.000000 -1.000000 0.000000
vn 0.000000 -1.000000 0.000000
vn 0.000000 -1.000000 0.000000
v 0.092229 0.000000 0.006539
v 0.961762 0.000000 -0.186472
v 1.298350 0.000000 -0.026049
vt 0.046114 0.003270
vt 0.480881 -0.093236
vt 0.649175 -0.013024
vn 0.000000 -1.000000 0.000000
vn 0.000000 -1.000000 0.000000
vn 0.000000 -1.000000 0.000000
v -0.089994 1.144660 0.013512
v 0.590736 1.126661 0.152990
v 0.735248 1.090363 -0.008785
vt -0.044997 0.006756
vt 0.295368 0.076495
vt 0.367624 -0.004393
vn 0.060238 0.984115 -0.166998
vn 0.060238 0.984115 -0.166998
vn 0.060238 0.984115 -0.166998
v -0.089994 1.144660 0.013512
v 0.286121 1.200000 0.240746
v 0.590736 1.126661 0.152990
vt -0.044997 0.006756
vt 0.143060 0.120373
vt 0.295368 0.076495
vn 0.105349 0.911982 -0.396473
vn 0.105349 0.911982 -0.396473
vn 0.105349 0.911982 -0.396473
v -0.089994 1.144660 0.013512
v -0.045356 1.116784 0.312737
v 0.286121 1.200000 0.240746
vt -0.044997 0.006756
vt -0.022678 0.156369
vt 0.143060 0.120373
vn -0.216539 0.968554 0.122534
vn -0.216539 0.968554 0.122534
vn -0.216539 0.968554 0.122534
v -0.089994 1.144660 0.013512
v -0.415456 1.174139 0.250519
v -0.045356 1.116784 0.312737
vt -0.044997 0.006756
vt -0.207728 0.125260
vt -0.022678 0.156369
vn 0.141102 0.987450 0.070943
vn 0.141102 0.987450 0.070943
vn 0.141102 0.987450 0.070943
v -0.089994 1.144660 0.013512
v -0.779087 1.115865 0.193671
v -0.415456 1.174139 0.250519
vt -0.044997 0.006756
vt -0.389544 0.096835
vt -0.207728 0.125260
vn -0.110840 0.956139 -0.271133
vn -0.110840 0.956139 -0.271133
vn -0.110840 0.956139 -0.271133
v -0.089994 1.144660 0.013512
v -0.928752 1.104122 0.023012
v -0.779087 1.115865 0.193671
vt -0.044997 0.006756
vt -0.464376 0.011506
vt -0.389544 0.096835
vn -0.048554 0.998479 -0.026124
vn -0.048554 0.998479 -0.026124
vn -0.048554 0.998479 -0.026124
v -0.089994 1.144660 0.013512
v -0.699008 1.151670 -0.124227
v -0.928752 1.104122 0.023012
vt -0.044997 0.006756
vt -0.349504 -0.062113
vt -0.464376 0.011506
vn -0.044056 0.968749 0.244098
vn -0.044056 0.968749 0.244098
vn -0.044056 0.968749 0.244098
v -0.089994 1.144660 0.013512
v -0.460752 1.197647 -0.257931
v -0.699008 1.151670 -0.124227
vt -0.044997 0.006756
vt -0.230376 -0.128966
vt -0.349504 -0.062113
vn -0.045664 0.966880 0.251112
vn -0.045664 0.966880 0.251112
vn -0.045664 0.966880 0.251112
v -0.089994 1.144660 0.013512
v -0.184001 1.086231 -0.285263
v -0.460752 1.197647 -0.257931
vt -0.044997 0.006756
vt -0.092001 -0.142631
vt -0.230376 -0.128966
vn 0.334376 0.899534 -0.281125
vn 0.334376 0.899534 -0.281125
vn 0.334376 0.899534 -0.281125
v -0.089994 1.144660 0.013512
v 0.315436 1.182034 -0.216781
v -0.184001 1.086231 -0.285263
vt -0.044997 0.006756
vt 0.157718 -0.108390
vt -0.092001 -0.142631
vn -0.168314 0.976037 -0.137917
vn -0.168314 0.976037 -0.137917
vn -0.168314 0.976037 -0.137917
v -0.089994 1.144660 0.013512
v 0.504951 1.190405 -0.118548
v 0.315436 1.182034 -0.216781
vt -0.044997 0.006756
vt 0.252475 -0.059274
vt 0.157718 -0.108390
vn -0.066864 0.996789 0.044054
vn -0.066864 0.996789 0.044054
vn -0.066864 0.996789 0.044054
v -0.089994 1.144660 0.013512
v 0.735248 1.090363 -0.008785
v 0.504951 1.190405 -0.118548
vt -0.044997 0.006756
vt 0.367624 -0.004393
vt 0.252475 -0.059274
vn 0.068887 0.805040 0.589207
vn 0.068887 0.805040 0.589207
vn 0.068887 0.805040 0.589207
f 1/1/1 2/2/2 3/3/3
f 4/4/4 5/5/5 6/6/6
f 7/7/7 8/8/8 9/9/9
f 10/10/10 11/11/11 12/12/12
f 13/13/13 14/14/14 15/15/15
f 16/16/16 17/17/17 18/18/18
f 19/19/19 20/20/20 21/21/21
f 22/22/22 23/23/23 24/24/24
f 25/25/25 26/26/26 27/27/27
f 28/28/28 29/29/29 30/30/30
f 31/31/31 32/32/32 33/33/33
f 34/34/34 35/35/35 36/36/36
f 37/37/37 38/38/38 39/39/39
f 40/40/40 41/41/41 42/42/42
f 43/43/43 44/44/44 45/45/45
f 46/46/46 47/47/47 48/48/48
f 49/49/49 50/50/50 51/51/51
f 52/52/52 53/53/53 54/54/54
f 55/55/55 56/56/56 57/57/57
f 58/58/58 59/59/59 60/60/60
f 61/61/61 62/62/62 63/63/63
f 64/64/64 65/65/65 66/66/66
f 67/67/67 68/68/68 69/69/69
f 70/70/70 71/71/71 72/72/72
f 73/73/73 74/74/74 75/75/75
f 76/76/76 77/77/77 78/78/78
f 79/79/79 80/80/80 81/81/81
f 82/82/82 83/83/83 84/84/84
f 85/85/85 86/86/86 87/87/87
f 88/88/88 89/89/89 90/90/90
f 91/91/91 92/92/92 93/93/93
f 94/94/94 95/95/95 96/96/96
f 97/97/97 98/98/98 99/99/99
f 100/100/100 101/101/101 102/102/102
f 103/103/103 104/104/104 105/105/105
f 106/106/106 107/107/107 108/108/108
f 109/109/109 110/110/110 111/111/111
f 112/112/112 113/113/113 114/114/114
f 115/115/115 116/116/116 117/117/117
f 118/118/118 119/119/119 120/120/120
f 121/121/121 122/122/122 123/123/123
f 124/124/124 125/125/125 126/126/126
f 127/127/127 128/128/128 129/129/129
f 130/130/130 131/131/131 132/132/132
f 133/133/133 134/134/134 135/135/135
f 136/136/136 137/137/137 138/138/138
f 139/139/139 140/140/140 141/141/141
f 142/142/142 143/143/143 144/144/144
f 145/145/145 146/146/146 147/147/147
f 148/148/148 149/149/149 150/150/150
f 151/151/151 152/152/152 153/153/153
f 154/154/154 155/155/155 156/156/156
f 157/157/157 158/158/158 159/159/159
f 160/160/160 161/161/161 162/162/162
f 163/163/163 164/164/164 165/165/165
f 166/166/166 167/167/167 168/168/168
f 169/169/169 170/170/170 171/171/171
f 172/172/172 173/173/173 174/174/174
f 175/175/175 176/176/176 177/177/177
f 178/178/178 179/179/179 180/180/180
f 181/181/181 182/182/182 183/183/183
f 184/184/184 185/185/185 186/186/186
f 187/187/187 188/188/188 189/189/189
f 190/190/190 191/191/191 192/192/192
f 193/193/193 194/194/194 195/195/195
f 196/196/196 197/197/197 198/198/198
f 199/199/199 200/200/200 201/201/201
f 202/202/202 203/203/203 204/204/204
f 205/205/205 206/206/206 207/207/207
f 208/208/208 209/209/209 210/210/210
f 211/211/211 212/212/212 213/213/213
f 214/214/214 215/215/215 216/216/216
