# metres, Y up, base-centred pivot
mtllib Stone.mtl
o Masso_09_Piramidale
usemtl Stone
s off
v 0.613118 0.000000 0.033660
v 0.850000 0.818415 0.047979
v 0.765288 0.764256 0.363010
vt 0.000000 0.016830
vt 0.409207 0.023990
vt 0.382128 0.181505
vn 0.939169 -0.275423 0.205193
vn 0.939169 -0.275423 0.205193
vn 0.939169 -0.275423 0.205193
v 0.613118 0.000000 0.033660
v 0.765288 0.764256 0.363010
v 0.548737 0.000000 0.273083
vt 0.000000 0.016830
vt 0.382128 0.181505
vt 0.000000 0.136542
vn 0.923898 -0.291018 0.248436
vn 0.923898 -0.291018 0.248436
vn 0.923898 -0.291018 0.248436
v 0.548737 0.000000 0.273083
v 0.765288 0.764256 0.363010
v 0.148290 0.785549 0.599188
vt 0.274369 0.000000
vt 0.382644 0.382128
vt 0.074145 0.392774
vn 0.343698 -0.205213 0.916384
vn 0.343698 -0.205213 0.916384
vn 0.343698 -0.205213 0.916384
v 0.548737 0.000000 0.273083
v 0.148290 0.785549 0.599188
v 0.079818 0.000000 0.452579
vt 0.274369 0.000000
vt 0.074145 0.392774
vt 0.039909 0.000000
vn 0.350176 -0.201256 0.914807
vn 0.350176 -0.201256 0.914807
vn 0.350176 -0.201256 0.914807
v 0.079818 0.000000 0.452579
v 0.148290 0.785549 0.599188
v -0.272498 0.784850 0.700000
vt 0.039909 0.000000
vt 0.074145 0.392774
vt -0.136249 0.392425
vn 0.228691 -0.197830 0.953186
vn 0.228691 -0.197830 0.953186
vn 0.228691 -0.197830 0.953186
v 0.079818 0.000000 0.452579
v -0.272498 0.784850 0.700000
v -0.239981 0.000000 0.529196
vt 0.039909 0.000000
vt -0.136249 0.392425
vt -0.119990 0.000000
vn 0.228373 -0.197987 0.953230
vn 0.228373 -0.197987 0.953230
vn 0.228373 -0.197987 0.953230
v -0.239981 0.000000 0.529196
v -0.272498 0.784850 0.700000
v -0.696170 0.853012 0.322068
vt -0.119990 0.000000
vt -0.136249 0.392425
vt -0.348085 0.426506
vn -0.670624 -0.184166 0.718573
vn -0.670624 -0.184166 0.718573
vn -0.670624 -0.184166 0.718573
v -0.239981 0.000000 0.529196
v -0.696170 0.853012 0.322068
v -0.561972 0.000000 0.241967
vt -0.119990 0.000000
vt -0.348085 0.426506
vt -0.280986 0.000000
vn -0.655733 -0.172190 0.735095
vn -0.655733 -0.172190 0.735095
vn -0.655733 -0.172190 0.735095
v -0.561972 0.000000 0.241967
v -0.696170 0.853012 0.322068
v -0.827510 0.718664 -0.073284
vt 0.000000 0.120984
vt 0.426506 0.161034
vt 0.359332 -0.036642
vn -0.914156 -0.178016 0.364184
vn -0.914156 -0.178016 0.364184
vn -0.914156 -0.178016 0.364184
v -0.561972 0.000000 0.241967
v -0.827510 0.718664 -0.073284
v -0.661790 0.000000 -0.058500
vt 0.000000 0.120984
vt 0.359332 -0.036642
vt 0.000000 -0.029250
vn -0.928304 -0.207718 0.308391
vn -0.928304 -0.207718 0.308391
vn -0.928304 -0.207718 0.308391
v -0.661790 0.000000 -0.058500
v -0.827510 0.718664 -0.073284
v -0.850000 0.714164 -0.472476
vt 0.000000 -0.029250
vt 0.359332 -0.036642
vt 0.357082 -0.236238
vn -0.973083 -0.223208 0.057339
vn -0.973083 -0.223208 0.057339
vn -0.973083 -0.223208 0.057339
v -0.661790 0.000000 -0.058500
v -0.850000 0.714164 -0.472476
v -0.678882 0.000000 -0.361886
vt 0.000000 -0.029250
vt 0.357082 -0.236238
vt 0.000000 -0.180943
vn -0.972902 -0.224625 0.054812
vn -0.972902 -0.224625 0.054812
vn -0.972902 -0.224625 0.054812
v -0.678882 0.000000 -0.361886
v -0.850000 0.714164 -0.472476
v -0.358856 0.641974 -0.673130
vt -0.339441 0.000000
vt -0.425000 0.357082
vt -0.179428 0.320987
vn -0.396929 -0.232598 -0.887888
vn -0.396929 -0.232598 -0.887888
vn -0.396929 -0.232598 -0.887888
v -0.678882 0.000000 -0.361886
v -0.358856 0.641974 -0.673130
v -0.305613 0.000000 -0.514383
vt -0.339441 0.000000
vt -0.179428 0.320987
vt -0.152806 0.000000
vn -0.366005 -0.251887 -0.895876
vn -0.366005 -0.251887 -0.895876
vn -0.366005 -0.251887 -0.895876
v -0.305613 0.000000 -0.514383
v -0.358856 0.641974 -0.673130
v 0.287777 0.828020 -0.700000
vt -0.152806 0.000000
vt -0.179428 0.320987
vt 0.143889 0.414010
vn 0.028063 -0.237761 -0.970918
vn 0.028063 -0.237761 -0.970918
vn 0.028063 -0.237761 -0.970918
v -0.305613 0.000000 -0.514383
v 0.287777 0.828020 -0.700000
v 0.185829 0.000000 -0.534804
vt -0.152806 0.000000
vt 0.143889 0.414010
vt 0.092914 0.000000
vn -0.040756 -0.190660 -0.980810
vn -0.040756 -0.190660 -0.980810
vn -0.040756 -0.190660 -0.980810
v 0.185829 0.000000 -0.534804
v 0.287777 0.828020 -0.700000
v 0.650778 0.838070 -0.518098
vt 0.092914 0.000000
vt 0.143889 0.414010
vt 0.325389 0.419035
vn 0.441283 -0.227514 -0.868048
vn 0.441283 -0.227514 -0.868048
vn 0.441283 -0.227514 -0.868048
v 0.185829 0.000000 -0.534804
v 0.650778 0.838070 -0.518098
v 0.461709 0.000000 -0.396559
vt 0.092914 0.000000
vt 0.325389 0.419035
vt 0.230855 0.000000
vn 0.436536 -0.224818 -0.871145
vn 0.436536 -0.224818 -0.871145
vn 0.436536 -0.224818 -0.871145
v 0.461709 0.000000 -0.396559
v 0.650778 0.838070 -0.518098
v 0.850000 0.818415 0.047979
vt 0.000000 -0.198279
vt 0.419035 -0.259049
vt 0.409207 0.023990
vn 0.909824 -0.252966 -0.328981
vn 0.909824 -0.252966 -0.328981
vn 0.909824 -0.252966 -0.328981
v 0.461709 0.000000 -0.396559
v 0.850000 0.818415 0.047979
v 0.613118 0.000000 0.033660
vt 0.000000 -0.198279
vt 0.409207 0.023990
vt 0.000000 0.016830
vn 0.911313 -0.258159 -0.320722
vn 0.911313 -0.258159 -0.320722
vn 0.911313 -0.258159 -0.320722
v 0.850000 0.818415 0.047979
v 0.056611 2.200000 -0.006315
v 0.048987 2.131963 0.022038
vt 0.425000 0.409207
vt 0.028305 1.100000
vt 0.024493 1.065981
vn 0.460111 0.297103 0.836677
vn 0.460111 0.297103 0.836677
vn 0.460111 0.297103 0.836677
v 0.850000 0.818415 0.047979
v 0.048987 2.131963 0.022038
v 0.765288 0.764256 0.363010
vt 0.409207 0.023990
vt 1.065981 0.011019
vt 0.382128 0.181505
vn 0.810684 0.500367 0.304014
vn 0.810684 0.500367 0.304014
vn 0.810684 0.500367 0.304014
v 0.765288 0.764256 0.363010
v 0.048987 2.131963 0.022038
v -0.006543 2.002846 0.043294
vt 0.382644 0.382128
vt 0.024493 1.065981
vt -0.003272 1.001423
vn -0.086678 0.198013 0.976359
vn -0.086678 0.198013 0.976359
vn -0.086678 0.198013 0.976359
v 0.765288 0.764256 0.363010
v -0.006543 2.002846 0.043294
v 0.148290 0.785549 0.599188
vt 0.382644 0.382128
vt -0.003272 1.001423
vt 0.074145 0.392774
vn 0.336178 0.426269 0.839809
vn 0.336178 0.426269 0.839809
vn 0.336178 0.426269 0.839809
v 0.148290 0.785549 0.599188
v -0.006543 2.002846 0.043294
v -0.044414 2.104921 0.052367
vt 0.392774 0.299594
vt 1.001423 0.021647
vt 1.052460 0.026184
vn 0.873875 0.289502 0.390551
vn 0.873875 0.289502 0.390551
vn 0.873875 0.289502 0.390551
v 0.148290 0.785549 0.599188
v -0.044414 2.104921 0.052367
v -0.272498 0.784850 0.700000
vt 0.074145 0.392774
vt -0.022207 1.052460
vt -0.136249 0.392425
vn 0.212857 0.400470 0.891244
vn 0.212857 0.400470 0.891244
vn 0.212857 0.400470 0.891244
v -0.272498 0.784850 0.700000
v -0.044414 2.104921 0.052367
v -0.082545 2.054354 0.018353
vt 0.392425 0.350000
vt 1.052460 0.026184
vt 1.027177 0.009177
vn -0.837893 0.350186 0.418695
vn -0.837893 0.350186 0.418695
vn -0.837893 0.350186 0.418695
v -0.272498 0.784850 0.700000
v -0.082545 2.054354 0.018353
v -0.696170 0.853012 0.322068
vt -0.136249 0.392425
vt -0.041272 1.027177
vt -0.348085 0.426506
vn -0.549802 0.457510 0.698858
vn -0.549802 0.457510 0.698858
vn -0.549802 0.457510 0.698858
v -0.696170 0.853012 0.322068
v -0.082545 2.054354 0.018353
v -0.094365 2.171975 -0.017228
vt -0.348085 0.426506
vt -0.041272 1.027177
vt -0.047183 1.085988
vn -0.077757 0.281508 0.956403
vn -0.077757 0.281508 0.956403
vn -0.077757 0.281508 0.956403
v -0.696170 0.853012 0.322068
v -0.094365 2.171975 -0.017228
v -0.827510 0.718664 -0.073284
vt 0.426506 0.161034
vt 1.085988 -0.008614
vt 0.359332 -0.036642
vn -0.885710 0.441244 0.144299
vn -0.885710 0.441244 0.144299
vn -0.885710 0.441244 0.144299
v -0.827510 0.718664 -0.073284
v -0.094365 2.171975 -0.017228
v -0.096389 2.048312 -0.053156
vt -0.413755 0.359332
vt -0.047183 1.085988
vt -0.048195 1.024156
vn -0.443311 0.256760 -0.858807
vn -0.443311 0.256760 -0.858807
vn -0.443311 0.256760 -0.858807
v -0.827510 0.718664 -0.073284
v -0.096389 2.048312 -0.053156
v -0.850000 0.714164 -0.472476
vt 0.359332 -0.036642
vt 1.024156 -0.026578
vt 0.357082 -0.236238
vn -0.875703 0.480849 0.043916
vn -0.875703 0.480849 0.043916
vn -0.875703 0.480849 0.043916
v -0.850000 0.714164 -0.472476
v -0.096389 2.048312 -0.053156
v -0.052186 2.052530 -0.071215
vt -0.425000 0.357082
vt -0.048195 1.024156
vt -0.026093 1.026265
vn -0.372703 0.463239 -0.804054
vn -0.372703 0.463239 -0.804054
vn -0.372703 0.463239 -0.804054
v -0.850000 0.714164 -0.472476
v -0.052186 2.052530 -0.071215
v -0.358856 0.641974 -0.673130
vt -0.425000 0.357082
vt -0.026093 1.026265
vt -0.179428 0.320987
vn -0.287159 0.428090 -0.856901
vn -0.287159 0.428090 -0.856901
vn -0.287159 0.428090 -0.856901
v -0.358856 0.641974 -0.673130
v -0.052186 2.052530 -0.071215
v 0.006011 2.142632 -0.073633
vt 0.320987 -0.336565
vt 1.026265 -0.035607
vt 1.071316 -0.036816
vn -0.662617 0.411185 -0.625992
vn -0.662617 0.411185 -0.625992
vn -0.662617 0.411185 -0.625992
v -0.358856 0.641974 -0.673130
v 0.006011 2.142632 -0.073633
v 0.287777 0.828020 -0.700000
vt -0.179428 0.320987
vt 0.003005 1.071316
vt 0.143889 0.414010
vn -0.152197 0.398351 -0.904518
vn -0.152197 0.398351 -0.904518
vn -0.152197 0.398351 -0.904518
v 0.287777 0.828020 -0.700000
v 0.006011 2.142632 -0.073633
v 0.038681 2.167770 -0.057262
vt 0.143889 0.414010
vt 0.003005 1.071316
vt 0.019340 1.083885
vn 0.102667 0.445711 -0.889270
vn 0.102667 0.445711 -0.889270
vn 0.102667 0.445711 -0.889270
v 0.287777 0.828020 -0.700000
v 0.038681 2.167770 -0.057262
v 0.650778 0.838070 -0.518098
vt 0.143889 0.414010
vt 0.019340 1.083885
vt 0.325389 0.419035
vn 0.388520 0.456288 -0.800533
vn 0.388520 0.456288 -0.800533
vn 0.388520 0.456288 -0.800533
v 0.650778 0.838070 -0.518098
v 0.038681 2.167770 -0.057262
v 0.056611 2.200000 -0.006315
vt 0.419035 -0.259049
vt 1.083885 -0.028631
vt 1.100000 -0.003157
vn 0.668930 0.498898 -0.551030
vn 0.668930 0.498898 -0.551030
vn 0.668930 0.498898 -0.551030
v 0.650778 0.838070 -0.518098
v 0.056611 2.200000 -0.006315
v 0.850000 0.818415 0.047979
vt 0.419035 -0.259049
vt 1.100000 -0.003157
vt 0.409207 0.023990
vn 0.837572 0.470042 -0.278449
vn 0.837572 0.470042 -0.278449
vn 0.837572 0.470042 -0.278449
v -0.055903 0.000000 -0.033565
v 0.613118 0.000000 0.033660
v 0.548737 0.000000 0.273083
vt -0.027951 -0.016782
vt 0.306559 0.016830
vt 0.274369 0.136542
vn 0.000000 -1.000000 0.000000
vn 0.000000 -1.000000 0.000000
vn 0.000000 -1.000000 0.000000
v -0.055903 0.000000 -0.033565
v 0.548737 0.000000 0.273083
v 0.079818 0.000000 0.452579
vt -0.027951 -0.016782
vt 0.274369 0.136542
vt 0.039909 0.226289
vn 0.000000 -1.000000 0.000000
vn 0.000000 -1.000000 0.000000
vn 0.000000 -1.000000 0.000000
v -0.055903 0.000000 -0.033565
v 0.079818 0.000000 0.452579
v -0.239981 0.000000 0.529196
vt -0.027951 -0.016782
vt 0.039909 0.226289
vt -0.119990 0.264598
vn 0.000000 -1.000000 0.000000
vn 0.000000 -1.000000 0.000000
vn 0.000000 -1.000000 0.000000
v -0.055903 0.000000 -0.033565
v -0.239981 0.000000 0.529196
v -0.561972 0.000000 0.241967
vt -0.027951 -0.016782
vt -0.119990 0.264598
vt -0.280986 0.120984
vn 0.000000 -1.000000 0.000000
vn 0.000000 -1.000000 0.000000
vn 0.000000 -1.000000 0.000000
v -0.055903 0.000000 -0.033565
v -0.561972 0.000000 0.241967
v -0.661790 0.000000 -0.058500
vt -0.027951 -0.016782
vt -0.280986 0.120984
vt -0.330895 -0.029250
vn -0.000000 -1.000000 0.000000
vn -0.000000 -1.000000 0.000000
vn -0.000000 -1.000000 0.000000
v -0.055903 0.000000 -0.033565
v -0.661790 0.000000 -0.058500
v -0.678882 0.000000 -0.361886
vt -0.027951 -0.016782
vt -0.330895 -0.029250
vt -0.339441 -0.180943
vn 0.000000 -1.000000 0.000000
vn 0.000000 -1.000000 0.000000
vn 0.000000 -1.000000 0.000000
v -0.055903 0.000000 -0.033565
v -0.678882 0.000000 -0.361886
v -0.305613 0.000000 -0.514383
vt -0.027951 -0.016782
vt -0.339441 -0.180943
vt -0.152806 -0.257192
vn 0.000000 -1.000000 0.000000
vn 0.000000 -1.000000 0.000000
vn 0.000000 -1.000000 0.000000
v -0.055903 0.000000 -0.033565
v -0.305613 0.000000 -0.514383
v 0.185829 0.000000 -0.534804
vt -0.027951 -0.016782
vt -0.152806 -0.257192
vt 0.092914 -0.267402
vn 0.000000 -1.000000 -0.000000
vn 0.000000 -1.000000 -0.000000
vn 0.000000 -1.000000 -0.000000
v -0.055903 0.000000 -0.033565
v 0.185829 0.000000 -0.534804
v 0.461709 0.000000 -0.396559
vt -0.027951 -0.016782
vt 0.092914 -0.267402
vt 0.230855 -0.198279
vn 0.000000 -1.000000 0.000000
vn 0.000000 -1.000000 0.000000
vn 0.000000 -1.000000 0.000000
v -0.055903 0.000000 -0.033565
v 0.461709 0.000000 -0.396559
v 0.613118 0.000000 0.033660
vt -0.027951 -0.016782
vt 0.230855 -0.198279
vt 0.306559 0.016830
vn 0.000000 -1.000000 0.000000
vn 0.000000 -1.000000 0.000000
vn 0.000000 -1.000000 0.000000
v -0.022615 2.107730 -0.014276
v 0.048987 2.131963 0.022038
v 0.056611 2.200000 -0.006315
vt -0.011308 1.053865
vt 0.024493 1.065981
vt 0.028305 1.100000
vn -0.517312 0.377937 0.767823
vn -0.517312 0.377937 0.767823
vn -0.517312 0.377937 0.767823
v -0.022615 2.107730 -0.014276
v -0.006543 2.002846 0.043294
v 0.048987 2.131963 0.022038
vt -0.011308 1.053865
vt -0.003272 1.001423
vt 0.024493 1.065981
vn -0.515248 0.350359 0.782156
vn -0.515248 0.350359 0.782156
vn -0.515248 0.350359 0.782156
v -0.022615 2.107730 -0.014276
v -0.044414 2.104921 0.052367
v -0.006543 2.002846 0.043294
vt 1.053865 -0.007138
vt 1.052460 0.026184
vt 1.001423 0.021647
vn 0.900702 0.306833 0.307553
vn 0.900702 0.306833 0.307553
vn 0.900702 0.306833 0.307553
v -0.022615 2.107730 -0.014276
v -0.082545 2.054354 0.018353
v -0.044414 2.104921 0.052367
vt 1.053865 -0.007138
vt 1.027177 0.009177
vt 1.052460 0.026184
vn -0.710723 0.673214 -0.204097
vn -0.710723 0.673214 -0.204097
vn -0.710723 0.673214 -0.204097
v -0.022615 2.107730 -0.014276
v -0.094365 2.171975 -0.017228
v -0.082545 2.054354 0.018353
vt -0.011308 1.053865
vt -0.047183 1.085988
vt -0.041272 1.027177
vn 0.233248 0.302965 0.924017
vn 0.233248 0.302965 0.924017
vn 0.233248 0.302965 0.924017
v -0.022615 2.107730 -0.014276
v -0.096389 2.048312 -0.053156
v -0.094365 2.171975 -0.017228
vt -0.011308 1.053865
vt -0.048195 1.024156
vt -0.047183 1.085988
vn 0.274548 0.264121 -0.924588
vn 0.274548 0.264121 -0.924588
vn 0.274548 0.264121 -0.924588
v -0.022615 2.107730 -0.014276
v -0.052186 2.052530 -0.071215
v -0.096389 2.048312 -0.053156
vt -0.011308 -0.007138
vt -0.026093 -0.035607
vt -0.048195 -0.026578
vn -0.307362 0.758032 -0.575253
vn -0.307362 0.758032 -0.575253
vn -0.307362 0.758032 -0.575253
v -0.022615 2.107730 -0.014276
v 0.006011 2.142632 -0.073633
v -0.052186 2.052530 -0.071215
vt 1.053865 -0.007138
vt 1.071316 -0.036816
vt 1.026265 -0.035607
vn -0.837876 0.538845 -0.087241
vn -0.837876 0.538845 -0.087241
vn -0.837876 0.538845 -0.087241
v -0.022615 2.107730 -0.014276
v 0.038681 2.167770 -0.057262
v 0.006011 2.142632 -0.073633
vt -0.011308 -0.007138
vt 0.019340 -0.028631
vt 0.003005 -0.036816
vn -0.645074 0.752720 0.131499
vn -0.645074 0.752720 0.131499
vn -0.645074 0.752720 0.131499
v -0.022615 2.107730 -0.014276
v 0.056611 2.200000 -0.006315
v 0.038681 2.167770 -0.057262
vt 1.053865 -0.007138
vt 1.100000 -0.003157
vt 1.083885 -0.028631
vn -0.743611 0.651470 -0.150429
vn -0.743611 0.651470 -0.150429
vn -0.743611 0.651470 -0.150429
f 1/1/1 2/2/2 3/3/3
f 4/4/4 5/5/5 6/6/6
f 7/7/7 8/8/8 9/9/9
f 10/10/10 11/11/11 12/12/12
f 13/13/13 14/14/14 15/15/15
f 16/16/16 17/17/17 18/18/18
f 19/19/19 20/20/20 21/21/21
f 22/22/22 23/23/23 24/24/24
f 25/25/25 26/26/26 27/27/27
f 28/28/28 29/29/29 30/30/30
f 31/31/31 32/32/32 33/33/33
f 34/34/34 35/35/35 36/36/36
f 37/37/37 38/38/38 39/39/39
f 40/40/40 41/41/41 42/42/42
f 43/43/43 44/44/44 45/45/45
f 46/46/46 47/47/47 48/48/48
f 49/49/49 50/50/50 51/51/51
f 52/52/52 53/53/53 54/54/54
f 55/55/55 56/56/56 57/57/57
f 58/58/58 59/59/59 60/60/60
f 61/61/61 62/62/62 63/63/63
f 64/64/64 65/65/65 66/66/66
f 67/67/67 68/68/68 69/69/69
f 70/70/70 71/71/71 72/72/72
f 73/73/73 74/74/74 75/75/75
f 76/76/76 77/77/77 78/78/78
f 79/79/79 80/80/80 81/81/81
f 82/82/82 83/83/83 84/84/84
f 85/85/85 86/86/86 87/87/87
f 88/88/88 89/89/89 90/90/90
f 91/91/91 92/92/92 93/93/93
f 94/94/94 95/95/95 96/96/96
f 97/97/97 98/98/98 99/99/99
f 100/100/100 101/101/101 102/102/102
f 103/103/103 104/104/104 105/105/105
f 106/106/106 107/107/107 108/108/108
f 109/109/109 110/110/110 111/111/111
f 112/112/112 113/113/113 114/114/114
f 115/115/115 116/116/116 117/117/117
f 118/118/118 119/119/119 120/120/120
f 121/121/121 122/122/122 123/123/123
f 124/124/124 125/125/125 126/126/126
f 127/127/127 128/128/128 129/129/129
f 130/130/130 131/131/131 132/132/132
f 133/133/133 134/134/134 135/135/135
f 136/136/136 137/137/137 138/138/138
f 139/139/139 140/140/140 141/141/141
f 142/142/142 143/143/143 144/144/144
f 145/145/145 146/146/146 147/147/147
f 148/148/148 149/149/149 150/150/150
f 151/151/151 152/152/152 153/153/153
f 154/154/154 155/155/155 156/156/156
f 157/157/157 158/158/158 159/159/159
f 160/160/160 161/161/161 162/162/162
f 163/163/163 164/164/164 165/165/165
f 166/166/166 167/167/167 168/168/168
f 169/169/169 170/170/170 171/171/171
f 172/172/172 173/173/173 174/174/174
f 175/175/175 176/176/176 177/177/177
f 178/178/178 179/179/179 180/180/180
