# metres, Y up, base-centred pivot
mtllib Stone.mtl
o Masso_05_Blocco
usemtl Stone
s off
v 0.605360 0.000000 -0.028927
v 0.750000 0.802936 -0.022420
v 0.544469 0.765237 0.375718
vt 0.000000 -0.014464
vt 0.401468 -0.011210
vt 0.382619 0.187859
vn 0.882948 -0.162623 0.440406
vn 0.882948 -0.162623 0.440406
vn 0.882948 -0.162623 0.440406
v 0.605360 0.000000 -0.028927
v 0.544469 0.765237 0.375718
v 0.449156 0.000000 0.273657
vt 0.000000 -0.014464
vt 0.382619 0.187859
vt 0.000000 0.136829
vn 0.875746 -0.169372 0.452087
vn 0.875746 -0.169372 0.452087
vn 0.875746 -0.169372 0.452087
v 0.449156 0.000000 0.273657
v 0.544469 0.765237 0.375718
v 0.120503 0.803005 0.750000
vt 0.224578 0.000000
vt 0.272235 0.382619
vt 0.060251 0.401502
vn 0.642051 -0.179382 0.745381
vn 0.642051 -0.179382 0.745381
vn 0.642051 -0.179382 0.745381
v 0.449156 0.000000 0.273657
v 0.120503 0.803005 0.750000
v 0.126942 0.000000 0.558112
vt 0.224578 0.000000
vt 0.060251 0.401502
vt 0.063471 0.000000
vn 0.652036 -0.171267 0.738591
vn 0.652036 -0.171267 0.738591
vn 0.652036 -0.171267 0.738591
v 0.126942 0.000000 0.558112
v 0.120503 0.803005 0.750000
v -0.314624 0.797446 0.479537
vt 0.063471 0.000000
vt 0.060251 0.401502
vt -0.157312 0.398723
vn -0.515026 -0.203128 0.832759
vn -0.515026 -0.203128 0.832759
vn -0.515026 -0.203128 0.832759
v 0.126942 0.000000 0.558112
v -0.314624 0.797446 0.479537
v -0.203754 0.000000 0.352560
vt 0.063471 0.000000
vt -0.157312 0.398723
vt -0.101877 0.000000
vn -0.516778 -0.204232 0.831402
vn -0.516778 -0.204232 0.831402
vn -0.516778 -0.204232 0.831402
v -0.203754 0.000000 0.352560
v -0.314624 0.797446 0.479537
v -0.750000 0.791910 0.145010
vt -0.101877 0.000000
vt -0.157312 0.398723
vt -0.375000 0.395955
vn -0.594507 -0.206400 0.777149
vn -0.594507 -0.206400 0.777149
vn -0.594507 -0.206400 0.777149
v -0.203754 0.000000 0.352560
v -0.750000 0.791910 0.145010
v -0.534640 0.000000 0.098320
vt -0.101877 0.000000
vt -0.375000 0.395955
vt -0.267320 0.000000
vn -0.595977 -0.207808 0.775646
vn -0.595977 -0.207808 0.775646
vn -0.595977 -0.207808 0.775646
v -0.534640 0.000000 0.098320
v -0.750000 0.791910 0.145010
v -0.688365 0.814436 -0.303908
vt 0.000000 0.049160
vt 0.395955 0.072505
vt 0.407218 -0.151954
vn -0.957010 -0.251767 -0.144029
vn -0.957010 -0.251767 -0.144029
vn -0.957010 -0.251767 -0.144029
v -0.534640 0.000000 0.098320
v -0.688365 0.814436 -0.303908
v -0.487797 0.000000 -0.242859
vt 0.000000 0.049160
vt 0.407218 -0.151954
vt 0.000000 -0.121429
vn -0.960176 -0.246340 -0.131830
vn -0.960176 -0.246340 -0.131830
vn -0.960176 -0.246340 -0.131830
v -0.487797 0.000000 -0.242859
v -0.688365 0.814436 -0.303908
v -0.302454 0.804508 -0.729759
vt 0.000000 -0.121429
vt 0.407218 -0.151954
vt 0.402254 -0.364879
vn -0.724259 -0.227161 -0.651035
vn -0.724259 -0.227161 -0.651035
vn -0.724259 -0.227161 -0.651035
v -0.487797 0.000000 -0.242859
v -0.302454 0.804508 -0.729759
v -0.194505 0.000000 -0.566505
vt 0.000000 -0.121429
vt 0.402254 -0.364879
vt 0.000000 -0.283252
vn -0.721239 -0.229406 -0.653595
vn -0.721239 -0.229406 -0.653595
vn -0.721239 -0.229406 -0.653595
v -0.194505 0.000000 -0.566505
v -0.302454 0.804508 -0.729759
v 0.110418 0.810463 -0.750000
vt -0.097253 0.000000
vt -0.151227 0.402254
vt 0.055209 0.405231
vn -0.044990 -0.204464 -0.977840
vn -0.044990 -0.204464 -0.977840
vn -0.044990 -0.204464 -0.977840
v -0.194505 0.000000 -0.566505
v 0.110418 0.810463 -0.750000
v 0.119278 0.000000 -0.581888
vt -0.097253 0.000000
vt 0.055209 0.405231
vt 0.059639 0.000000
vn -0.047944 -0.203372 -0.977927
vn -0.047944 -0.203372 -0.977927
vn -0.047944 -0.203372 -0.977927
v 0.119278 0.000000 -0.581888
v 0.110418 0.810463 -0.750000
v 0.611283 0.839856 -0.500191
vt 0.059639 0.000000
vt 0.055209 0.405231
vt 0.305642 0.419928
vn 0.447576 -0.176931 -0.876568
vn 0.447576 -0.176931 -0.876568
vn 0.447576 -0.176931 -0.876568
v 0.119278 0.000000 -0.581888
v 0.611283 0.839856 -0.500191
v 0.499935 0.000000 -0.392034
vt 0.059639 0.000000
vt 0.305642 0.419928
vt 0.249968 0.000000
vn 0.439684 -0.171822 -0.881564
vn 0.439684 -0.171822 -0.881564
vn 0.439684 -0.171822 -0.881564
v 0.499935 0.000000 -0.392034
v 0.611283 0.839856 -0.500191
v 0.750000 0.802936 -0.022420
vt 0.000000 -0.196017
vt 0.419928 -0.250096
vt 0.401468 -0.011210
vn 0.944215 -0.162102 -0.286671
vn 0.944215 -0.162102 -0.286671
vn 0.944215 -0.162102 -0.286671
v 0.499935 0.000000 -0.392034
v 0.750000 0.802936 -0.022420
v 0.605360 0.000000 -0.028927
vt 0.000000 -0.196017
vt 0.401468 -0.011210
vt 0.000000 -0.014464
vn 0.946643 -0.168300 -0.274850
vn 0.946643 -0.168300 -0.274850
vn 0.946643 -0.168300 -0.274850
v 0.750000 0.802936 -0.022420
v 0.594198 1.297118 -0.028114
v 0.431829 1.209931 0.286415
vt 0.401468 -0.011210
vt 0.648559 -0.014057
vt 0.604965 0.143207
vn 0.824633 0.265737 0.499363
vn 0.824633 0.265737 0.499363
vn 0.824633 0.265737 0.499363
v 0.750000 0.802936 -0.022420
v 0.431829 1.209931 0.286415
v 0.544469 0.765237 0.375718
vt 0.401468 -0.011210
vt 0.604965 0.143207
vt 0.382619 0.187859
vn 0.834589 0.303696 0.459597
vn 0.834589 0.303696 0.459597
vn 0.834589 0.303696 0.459597
v 0.544469 0.765237 0.375718
v 0.431829 1.209931 0.286415
v 0.096896 1.137739 0.582098
vt 0.272235 0.382619
vt 0.215915 0.604965
vt 0.048448 0.568870
vn 0.594063 0.300336 0.746249
vn 0.594063 0.300336 0.746249
vn 0.594063 0.300336 0.746249
v 0.544469 0.765237 0.375718
v 0.096896 1.137739 0.582098
v 0.120503 0.803005 0.750000
vt 0.272235 0.382619
vt 0.048448 0.568870
vt 0.060251 0.401502
vn 0.630255 0.383156 0.675256
vn 0.630255 0.383156 0.675256
vn 0.630255 0.383156 0.675256
v 0.120503 0.803005 0.750000
v 0.096896 1.137739 0.582098
v -0.246855 1.282574 0.368432
vt 0.060251 0.401502
vt 0.048448 0.568870
vt -0.123427 0.641287
vn -0.357158 0.398537 0.844752
vn -0.357158 0.398537 0.844752
vn -0.357158 0.398537 0.844752
v 0.120503 0.803005 0.750000
v -0.246855 1.282574 0.368432
v -0.314624 0.797446 0.479537
vt 0.060251 0.401502
vt -0.123427 0.641287
vt -0.157312 0.398723
vn -0.512264 0.259087 0.818816
vn -0.512264 0.259087 0.818816
vn -0.512264 0.259087 0.818816
v -0.314624 0.797446 0.479537
v -0.246855 1.282574 0.368432
v -0.590802 1.229195 0.104156
vt -0.157312 0.398723
vt -0.123427 0.641287
vt -0.295401 0.614597
vn -0.613595 0.256731 0.746720
vn -0.613595 0.256731 0.746720
vn -0.613595 0.256731 0.746720
v -0.314624 0.797446 0.479537
v -0.590802 1.229195 0.104156
v -0.750000 0.791910 0.145010
vt -0.157312 0.398723
vt -0.295401 0.614597
vt -0.375000 0.395955
vn -0.586399 0.284347 0.758474
vn -0.586399 0.284347 0.758474
vn -0.586399 0.284347 0.758474
v -0.750000 0.791910 0.145010
v -0.590802 1.229195 0.104156
v -0.542110 1.157566 -0.250490
vt 0.395955 0.072505
vt 0.614597 0.052078
vt 0.578783 -0.125245
vn -0.927815 0.319845 -0.191986
vn -0.927815 0.319845 -0.191986
vn -0.927815 0.319845 -0.191986
v -0.750000 0.791910 0.145010
v -0.542110 1.157566 -0.250490
v -0.688365 0.814436 -0.303908
vt 0.395955 0.072505
vt 0.578783 -0.125245
vt 0.407218 -0.151954
vn -0.908907 0.403684 -0.104534
vn -0.908907 0.403684 -0.104534
vn -0.908907 0.403684 -0.104534
v -0.688365 0.814436 -0.303908
v -0.542110 1.157566 -0.250490
v -0.237241 1.280338 -0.586912
vt 0.407218 -0.151954
vt 0.578783 -0.125245
vt 0.640169 -0.293456
vn -0.746870 0.400934 -0.530507
vn -0.746870 0.400934 -0.530507
vn -0.746870 0.400934 -0.530507
v -0.688365 0.814436 -0.303908
v -0.237241 1.280338 -0.586912
v -0.302454 0.804508 -0.729759
vt 0.407218 -0.151954
vt 0.640169 -0.293456
vt 0.402254 -0.364879
vn -0.705617 0.290705 -0.646216
vn -0.705617 0.290705 -0.646216
vn -0.705617 0.290705 -0.646216
v -0.302454 0.804508 -0.729759
v -0.237241 1.280338 -0.586912
v 0.088929 1.295840 -0.602902
vt -0.151227 0.402254
vt -0.118620 0.640169
vt 0.044464 0.647920
vn -0.060758 0.294627 -0.953679
vn -0.060758 0.294627 -0.953679
vn -0.060758 0.294627 -0.953679
v -0.302454 0.804508 -0.729759
v 0.088929 1.295840 -0.602902
v 0.110418 0.810463 -0.750000
vt -0.151227 0.402254
vt 0.044464 0.647920
vt 0.055209 0.405231
vn -0.051036 0.287584 -0.956395
vn -0.051036 0.287584 -0.956395
vn -0.051036 0.287584 -0.956395
v 0.110418 0.810463 -0.750000
v 0.088929 1.295840 -0.602902
v 0.484612 1.300000 -0.405553
vt 0.055209 0.405231
vt 0.044464 0.647920
vt 0.242306 0.650000
vn 0.426165 0.279605 -0.860351
vn 0.426165 0.279605 -0.860351
vn 0.426165 0.279605 -0.860351
v 0.110418 0.810463 -0.750000
v 0.484612 1.300000 -0.405553
v 0.611283 0.839856 -0.500191
vt 0.055209 0.405231
vt 0.242306 0.650000
vt 0.305642 0.419928
vn 0.413238 0.291212 -0.862804
vn 0.413238 0.291212 -0.862804
vn 0.413238 0.291212 -0.862804
v 0.611283 0.839856 -0.500191
v 0.484612 1.300000 -0.405553
v 0.594198 1.297118 -0.028114
vt 0.419928 -0.250096
vt 0.650000 -0.202777
vt 0.648559 -0.014057
vn 0.914895 0.306010 -0.263296
vn 0.914895 0.306010 -0.263296
vn 0.914895 0.306010 -0.263296
v 0.611283 0.839856 -0.500191
v 0.594198 1.297118 -0.028114
v 0.750000 0.802936 -0.022420
vt 0.419928 -0.250096
vt 0.648559 -0.014057
vt 0.401468 -0.011210
vn 0.925156 0.288838 -0.246291
vn 0.925156 0.288838 -0.246291
vn 0.925156 0.288838 -0.246291
v 0.042219 0.000000 -0.058840
v 0.605360 0.000000 -0.028927
v 0.449156 0.000000 0.273657
vt 0.021110 -0.029420
vt 0.302680 -0.014464
vt 0.224578 0.136829
vn 0.000000 -1.000000 0.000000
vn 0.000000 -1.000000 0.000000
vn 0.000000 -1.000000 0.000000
v 0.042219 0.000000 -0.058840
v 0.449156 0.000000 0.273657
v 0.126942 0.000000 0.558112
vt 0.021110 -0.029420
vt 0.224578 0.136829
vt 0.063471 0.279056
vn 0.000000 -1.000000 0.000000
vn 0.000000 -1.000000 0.000000
vn 0.000000 -1.000000 0.000000
v 0.042219 0.000000 -0.058840
v 0.126942 0.000000 0.558112
v -0.203754 0.000000 0.352560
vt 0.021110 -0.029420
vt 0.063471 0.279056
vt -0.101877 0.176280
vn 0.000000 -1.000000 0.000000
vn 0.000000 -1.000000 0.000000
vn 0.000000 -1.000000 0.000000
v 0.042219 0.000000 -0.058840
v -0.203754 0.000000 0.352560
v -0.534640 0.000000 0.098320
vt 0.021110 -0.029420
vt -0.101877 0.176280
vt -0.267320 0.049160
vn 0.000000 -1.000000 0.000000
vn 0.000000 -1.000000 0.000000
vn 0.000000 -1.000000 0.000000
v 0.042219 0.000000 -0.058840
v -0.534640 0.000000 0.098320
v -0.487797 0.000000 -0.242859
vt 0.021110 -0.029420
vt -0.267320 0.049160
vt -0.243899 -0.121429
vn -0.000000 -1.000000 0.000000
vn -0.000000 -1.000000 0.000000
vn -0.000000 -1.000000 0.000000
v 0.042219 0.000000 -0.058840
v -0.487797 0.000000 -0.242859
v -0.194505 0.000000 -0.566505
vt 0.021110 -0.029420
vt -0.243899 -0.121429
vt -0.097253 -0.283252
vn 0.000000 -1.000000 0.000000
vn 0.000000 -1.000000 0.000000
vn 0.000000 -1.000000 0.000000
v 0.042219 0.000000 -0.058840
v -0.194505 0.000000 -0.566505
v 0.119278 0.000000 -0.581888
vt 0.021110 -0.029420
vt -0.097253 -0.283252
vt 0.059639 -0.290944
vn 0.000000 -1.000000 -0.000000
vn 0.000000 -1.000000 -0.000000
vn 0.000000 -1.000000 -0.000000
v 0.042219 0.000000 -0.058840
v 0.119278 0.000000 -0.581888
v 0.499935 0.000000 -0.392034
vt 0.021110 -0.029420
vt 0.059639 -0.290944
vt 0.249968 -0.196017
vn 0.000000 -1.000000 0.000000
vn 0.000000 -1.000000 0.000000
vn 0.000000 -1.000000 0.000000
v 0.042219 0.000000 -0.058840
v 0.499935 0.000000 -0.392034
v 0.605360 0.000000 -0.028927
vt 0.021110 -0.029420
vt 0.249968 -0.196017
vt 0.302680 -0.014464
vn 0.000000 -1.000000 0.000000
vn 0.000000 -1.000000 0.000000
vn 0.000000 -1.000000 0.000000
v 0.008829 1.243367 -0.059208
v 0.431829 1.209931 0.286415
v 0.594198 1.297118 -0.028114
vt 0.004414 -0.029604
vt 0.215915 0.143207
vt 0.297099 -0.014057
vn -0.100691 0.970928 0.217162
vn -0.100691 0.970928 0.217162
vn -0.100691 0.970928 0.217162
v 0.008829 1.243367 -0.059208
v 0.096896 1.137739 0.582098
v 0.431829 1.209931 0.286415
vt 0.004414 -0.029604
vt 0.048448 0.291049
vt 0.215915 0.143207
vn -0.061516 0.983448 0.170428
vn -0.061516 0.983448 0.170428
vn -0.061516 0.983448 0.170428
v 0.008829 1.243367 -0.059208
v -0.246855 1.282574 0.368432
v 0.096896 1.137739 0.582098
vt 0.004414 -0.029604
vt -0.123427 0.184216
vt 0.048448 0.291049
vn 0.327293 0.938541 0.109639
vn 0.327293 0.938541 0.109639
vn 0.327293 0.938541 0.109639
v 0.008829 1.243367 -0.059208
v -0.590802 1.229195 0.104156
v -0.246855 1.282574 0.368432
vt 0.004414 -0.029604
vt -0.295401 0.052078
vt -0.123427 0.184216
vn -0.057518 0.990463 -0.125198
vn -0.057518 0.990463 -0.125198
vn -0.057518 0.990463 -0.125198
v 0.008829 1.243367 -0.059208
v -0.542110 1.157566 -0.250490
v -0.590802 1.229195 0.104156
vt 0.004414 -0.029604
vt -0.271055 -0.125245
vt -0.295401 0.052078
vn -0.079667 0.974913 -0.207843
vn -0.079667 0.974913 -0.207843
vn -0.079667 0.974913 -0.207843
v 0.008829 1.243367 -0.059208
v -0.237241 1.280338 -0.586912
v -0.542110 1.157566 -0.250490
vt 0.004414 -0.029604
vt -0.118620 -0.293456
vt -0.271055 -0.125245
vn -0.207198 0.964423 0.164184
vn -0.207198 0.964423 0.164184
vn -0.207198 0.964423 0.164184
v 0.008829 1.243367 -0.059208
v 0.088929 1.295840 -0.602902
v -0.237241 1.280338 -0.586912
vt 0.004414 -0.029604
vt 0.044464 -0.301451
vt -0.118620 -0.293456
vn -0.042895 0.995043 0.089715
vn -0.042895 0.995043 0.089715
vn -0.042895 0.995043 0.089715
v 0.008829 1.243367 -0.059208
v 0.484612 1.300000 -0.405553
v 0.088929 1.295840 -0.602902
vt 0.004414 -0.029604
vt 0.242306 -0.202777
vt 0.044464 -0.301451
vn -0.054342 0.994638 0.087989
vn -0.054342 0.994638 0.087989
vn -0.054342 0.994638 0.087989
v 0.008829 1.243367 -0.059208
v 0.594198 1.297118 -0.028114
v 0.484612 1.300000 -0.405553
vt 0.004414 -0.029604
vt 0.297099 -0.014057
vt 0.242306 -0.202777
vn -0.093211 0.995043 0.034660
vn -0.093211 0.995043 0.034660
vn -0.093211 0.995043 0.034660
f 1/1/1 2/2/2 3/3/3
f 4/4/4 5/5/5 6/6/6
f 7/7/7 8/8/8 9/9/9
f 10/10/10 11/11/11 12/12/12
f 13/13/13 14/14/14 15/15/15
f 16/16/16 17/17/17 18/18/18
f 19/19/19 20/20/20 21/21/21
f 22/22/22 23/23/23 24/24/24
f 25/25/25 26/26/26 27/27/27
f 28/28/28 29/29/29 30/30/30
f 31/31/31 32/32/32 33/33/33
f 34/34/34 35/35/35 36/36/36
f 37/37/37 38/38/38 39/39/39
f 40/40/40 41/41/41 42/42/42
f 43/43/43 44/44/44 45/45/45
f 46/46/46 47/47/47 48/48/48
f 49/49/49 50/50/50 51/51/51
f 52/52/52 53/53/53 54/54/54
f 55/55/55 56/56/56 57/57/57
f 58/58/58 59/59/59 60/60/60
f 61/61/61 62/62/62 63/63/63
f 64/64/64 65/65/65 66/66/66
f 67/67/67 68/68/68 69/69/69
f 70/70/70 71/71/71 72/72/72
f 73/73/73 74/74/74 75/75/75
f 76/76/76 77/77/77 78/78/78
f 79/79/79 80/80/80 81/81/81
f 82/82/82 83/83/83 84/84/84
f 85/85/85 86/86/86 87/87/87
f 88/88/88 89/89/89 90/90/90
f 91/91/91 92/92/92 93/93/93
f 94/94/94 95/95/95 96/96/96
f 97/97/97 98/98/98 99/99/99
f 100/100/100 101/101/101 102/102/102
f 103/103/103 104/104/104 105/105/105
f 106/106/106 107/107/107 108/108/108
f 109/109/109 110/110/110 111/111/111
f 112/112/112 113/113/113 114/114/114
f 115/115/115 116/116/116 117/117/117
f 118/118/118 119/119/119 120/120/120
f 121/121/121 122/122/122 123/123/123
f 124/124/124 125/125/125 126/126/126
f 127/127/127 128/128/128 129/129/129
f 130/130/130 131/131/131 132/132/132
f 133/133/133 134/134/134 135/135/135
f 136/136/136 137/137/137 138/138/138
f 139/139/139 140/140/140 141/141/141
f 142/142/142 143/143/143 144/144/144
f 145/145/145 146/146/146 147/147/147
f 148/148/148 149/149/149 150/150/150
f 151/151/151 152/152/152 153/153/153
f 154/154/154 155/155/155 156/156/156
f 157/157/157 158/158/158 159/159/159
f 160/160/160 161/161/161 162/162/162
