# metres, Y up, base-centred pivot
mtllib Stone.mtl
o Masso_03_MassoPiatto
usemtl Stone
s off
v 1.320823 0.000000 0.048551
v 1.700000 0.315893 0.060456
v 1.124295 0.337704 0.460932
vt 0.660412 0.000000
vt 0.850000 0.157947
vt 0.562148 0.168852
vn 0.454153 -0.570912 0.683962
vn 0.454153 -0.570912 0.683962
vn 0.454153 -0.570912 0.683962
v 1.320823 0.000000 0.048551
v 1.124295 0.337704 0.460932
v 0.883288 0.000000 0.352913
vt 0.660412 0.000000
vt 0.562148 0.168852
vt 0.441644 0.000000
vn 0.474385 -0.556685 0.681953
vn 0.474385 -0.556685 0.681953
vn 0.474385 -0.556685 0.681953
v 0.883288 0.000000 0.352913
v 1.124295 0.337704 0.460932
v 1.046538 0.293699 0.884846
vt 0.000000 0.176456
vt 0.168852 0.230466
vt 0.146849 0.442423
vn 0.798092 -0.596587 0.084462
vn 0.798092 -0.596587 0.084462
vn 0.798092 -0.596587 0.084462
v 0.883288 0.000000 0.352913
v 1.046538 0.293699 0.884846
v 0.824192 0.000000 0.675088
vt 0.000000 0.176456
vt 0.146849 0.442423
vt 0.000000 0.337544
vn 0.740783 -0.657858 0.135879
vn 0.740783 -0.657858 0.135879
vn 0.740783 -0.657858 0.135879
v 0.824192 0.000000 0.675088
v 1.046538 0.293699 0.884846
v 0.509232 0.369273 1.165388
vt 0.412096 0.337544
vt 0.523269 0.442423
vt 0.254616 0.582694
vn 0.259864 -0.683736 0.681892
vn 0.259864 -0.683736 0.681892
vn 0.259864 -0.683736 0.681892
v 0.824192 0.000000 0.675088
v 0.509232 0.369273 1.165388
v 0.415839 0.000000 0.888299
vt 0.412096 0.000000
vt 0.254616 0.184636
vt 0.207920 0.000000
vn 0.364556 -0.616114 0.698214
vn 0.364556 -0.616114 0.698214
vn 0.364556 -0.616114 0.698214
v 0.415839 0.000000 0.888299
v 0.509232 0.369273 1.165388
v -0.003786 0.319640 1.250000
vt 0.207920 0.000000
vt 0.254616 0.184636
vt -0.001893 0.159820
vn 0.185733 -0.619364 0.762818
vn 0.185733 -0.619364 0.762818
vn 0.185733 -0.619364 0.762818
v 0.415839 0.000000 0.888299
v -0.003786 0.319640 1.250000
v 0.025946 0.000000 0.952604
vt 0.207920 0.000000
vt -0.001893 0.159820
vt 0.012973 0.000000
vn 0.120785 -0.670141 0.732340
vn 0.120785 -0.670141 0.732340
vn 0.120785 -0.670141 0.732340
v 0.025946 0.000000 0.952604
v -0.003786 0.319640 1.250000
v -0.847293 0.332828 0.970612
vt 0.012973 0.000000
vt -0.001893 0.159820
vt -0.423647 0.166414
vn -0.242052 -0.672890 0.699021
vn -0.242052 -0.672890 0.699021
vn -0.242052 -0.672890 0.699021
v 0.025946 0.000000 0.952604
v -0.847293 0.332828 0.970612
v -0.615120 0.000000 0.740270
vt 0.012973 0.000000
vt -0.423647 0.166414
vt -0.307560 0.000000
vn -0.236474 -0.659063 0.713945
vn -0.236474 -0.659063 0.713945
vn -0.236474 -0.659063 0.713945
v -0.615120 0.000000 0.740270
v -0.847293 0.332828 0.970612
v -1.079674 0.312214 0.840819
vt -0.307560 0.370135
vt -0.423647 0.485306
vt -0.539837 0.420410
vn -0.311640 -0.678076 0.665653
vn -0.311640 -0.678076 0.665653
vn -0.311640 -0.678076 0.665653
v -0.615120 0.000000 0.740270
v -1.079674 0.312214 0.840819
v -0.791729 0.000000 0.641627
vt -0.307560 0.370135
vt -0.539837 0.420410
vt -0.395865 0.320813
vn -0.343649 -0.709474 0.615266
vn -0.343649 -0.709474 0.615266
vn -0.343649 -0.709474 0.615266
v -0.791729 0.000000 0.641627
v -1.079674 0.312214 0.840819
v -1.546161 0.382998 0.456552
vt -0.395865 0.320813
vt -0.539837 0.420410
vt -0.773080 0.228276
vn -0.489220 -0.742801 0.457068
vn -0.489220 -0.742801 0.457068
vn -0.489220 -0.742801 0.457068
v -0.791729 0.000000 0.641627
v -1.546161 0.382998 0.456552
v -1.146259 0.000000 0.349584
vt -0.395865 0.320813
vt -0.773080 0.228276
vt -0.573129 0.174792
vn -0.477442 -0.660390 0.579598
vn -0.477442 -0.660390 0.579598
vn -0.477442 -0.660390 0.579598
v -1.146259 0.000000 0.349584
v -1.546161 0.382998 0.456552
v -1.700000 0.310875 -0.061788
vt -0.573129 0.174792
vt -0.773080 0.228276
vt -0.850000 -0.030894
vn -0.621786 -0.729103 0.285991
vn -0.621786 -0.729103 0.285991
vn -0.621786 -0.729103 0.285991
v -1.146259 0.000000 0.349584
v -1.700000 0.310875 -0.061788
v -1.263177 0.000000 -0.044355
vt -0.573129 0.174792
vt -0.850000 -0.030894
vt -0.631588 -0.022177
vn -0.575816 -0.799518 0.170898
vn -0.575816 -0.799518 0.170898
vn -0.575816 -0.799518 0.170898
v -1.263177 0.000000 -0.044355
v -1.700000 0.310875 -0.061788
v -1.598523 0.299003 -0.511180
vt -0.631588 -0.022177
vt -0.850000 -0.030894
vt -0.799261 -0.255590
vn -0.573566 -0.812000 -0.108066
vn -0.573566 -0.812000 -0.108066
vn -0.573566 -0.812000 -0.108066
v -1.263177 0.000000 -0.044355
v -1.598523 0.299003 -0.511180
v -1.186054 0.000000 -0.385892
vt -0.631588 -0.022177
vt -0.799261 -0.255590
vt -0.593027 -0.192946
vn -0.556937 -0.820978 -0.125762
vn -0.556937 -0.820978 -0.125762
vn -0.556937 -0.820978 -0.125762
v -1.186054 0.000000 -0.385892
v -1.598523 0.299003 -0.511180
v -1.418731 0.339333 -0.744438
vt -0.593027 -0.192946
vt -0.799261 -0.255590
vt -0.709365 -0.372219
vn -0.424370 -0.778898 -0.461767
vn -0.424370 -0.778898 -0.461767
vn -0.424370 -0.778898 -0.461767
v -1.186054 0.000000 -0.385892
v -1.418731 0.339333 -0.744438
v -1.049412 0.000000 -0.563169
vt -0.593027 -0.192946
vt -0.709365 -0.372219
vt -0.524706 -0.281584
vn -0.510015 -0.765081 -0.393111
vn -0.510015 -0.765081 -0.393111
vn -0.510015 -0.765081 -0.393111
v -1.049412 0.000000 -0.563169
v -1.418731 0.339333 -0.744438
v -0.667307 0.319388 -1.041843
vt -0.524706 0.000000
vt -0.709365 0.169666
vt -0.333654 0.159694
vn -0.286874 -0.675229 -0.679536
vn -0.286874 -0.675229 -0.679536
vn -0.286874 -0.675229 -0.679536
v -1.049412 0.000000 -0.563169
v -0.667307 0.319388 -1.041843
v -0.478330 0.000000 -0.789196
vt -0.524706 -0.281584
vt -0.333654 -0.520921
vt -0.239165 -0.394598
vn -0.266374 -0.689991 -0.673021
vn -0.266374 -0.689991 -0.673021
vn -0.266374 -0.689991 -0.673021
v -0.478330 0.000000 -0.789196
v -0.667307 0.319388 -1.041843
v -0.037778 0.326371 -1.250000
vt -0.239165 0.000000
vt -0.333654 0.159694
vt -0.018889 0.163186
vn -0.222634 -0.682448 -0.696203
vn -0.222634 -0.682448 -0.696203
vn -0.222634 -0.682448 -0.696203
v -0.478330 0.000000 -0.789196
v -0.037778 0.326371 -1.250000
v 0.000112 0.000000 -0.947396
vt -0.239165 0.000000
vt -0.018889 0.163186
vt 0.000056 0.000000
vn -0.231412 -0.675758 -0.699857
vn -0.231412 -0.675758 -0.699857
vn -0.231412 -0.675758 -0.699857
v 0.000112 0.000000 -0.947396
v -0.037778 0.326371 -1.250000
v 0.390112 0.356681 -1.059882
vt 0.000056 0.000000
vt -0.018889 0.163186
vt 0.195056 0.178340
vn 0.356780 -0.612548 -0.705332
vn 0.356780 -0.612548 -0.705332
vn 0.356780 -0.612548 -0.705332
v 0.000112 0.000000 -0.947396
v 0.390112 0.356681 -1.059882
v 0.325309 0.000000 -0.802906
vt 0.000056 0.000000
vt 0.195056 0.178340
vt 0.162654 0.000000
vn 0.327614 -0.590754 -0.737346
vn 0.327614 -0.590754 -0.737346
vn 0.327614 -0.590754 -0.737346
v 0.325309 0.000000 -0.802906
v 0.390112 0.356681 -1.059882
v 0.982837 0.339821 -0.776092
vt 0.162654 0.000000
vt 0.195056 0.178340
vt 0.491418 0.169910
vn 0.334925 -0.590093 -0.734585
vn 0.334925 -0.590093 -0.734585
vn 0.334925 -0.590093 -0.734585
v 0.325309 0.000000 -0.802906
v 0.982837 0.339821 -0.776092
v 0.775779 0.000000 -0.587226
vt 0.162654 0.000000
vt 0.491418 0.169910
vt 0.387889 0.000000
vn 0.343086 -0.607305 -0.716570
vn 0.343086 -0.607305 -0.716570
vn 0.343086 -0.607305 -0.716570
v 0.775779 0.000000 -0.587226
v 0.982837 0.339821 -0.776092
v 1.271566 0.296297 -0.535104
vt 0.387889 0.000000
vt 0.491418 0.169910
vt 0.635783 0.148148
vn 0.441782 -0.626219 -0.642400
vn 0.441782 -0.626219 -0.642400
vn 0.441782 -0.626219 -0.642400
v 0.775779 0.000000 -0.587226
v 1.271566 0.296297 -0.535104
v 0.995213 0.000000 -0.404075
vt 0.387889 -0.293613
vt 0.635783 -0.267552
vt 0.497607 -0.202037
vn 0.467554 -0.683807 -0.560179
vn 0.467554 -0.683807 -0.560179
vn 0.467554 -0.683807 -0.560179
v 0.995213 0.000000 -0.404075
v 1.271566 0.296297 -0.535104
v 1.700000 0.315893 0.060456
vt 0.497607 -0.202037
vt 0.635783 -0.267552
vt 0.850000 0.030228
vn 0.579210 -0.714094 -0.393175
vn 0.579210 -0.714094 -0.393175
vn 0.579210 -0.714094 -0.393175
v 0.995213 0.000000 -0.404075
v 1.700000 0.315893 0.060456
v 1.320823 0.000000 0.048551
vt 0.497607 -0.202037
vt 0.850000 0.030228
vt 0.660412 0.024275
vn 0.587833 -0.689658 -0.422875
vn 0.587833 -0.689658 -0.422875
vn 0.587833 -0.689658 -0.422875
v 1.700000 0.315893 0.060456
v 1.044627 0.763176 0.044583
v 0.653148 0.850000 0.316906
vt 0.850000 0.030228
vt 0.522313 0.022291
vt 0.326574 0.158453
vn 0.489786 0.734328 0.469970
vn 0.489786 0.734328 0.469970
vn 0.489786 0.734328 0.469970
v 1.700000 0.315893 0.060456
v 0.653148 0.850000 0.316906
v 1.124295 0.337704 0.460932
vt 0.850000 0.157947
vt 0.326574 0.425000
vt 0.562148 0.168852
vn 0.467909 0.610090 0.639415
vn 0.467909 0.610090 0.639415
vn 0.467909 0.610090 0.639415
v 1.124295 0.337704 0.460932
v 0.653148 0.850000 0.316906
v 0.600273 0.808207 0.605168
vt 0.562148 0.230466
vt 0.326574 0.158453
vt 0.300136 0.302584
vn 0.684508 0.693076 0.226041
vn 0.684508 0.693076 0.226041
vn 0.684508 0.693076 0.226041
v 1.124295 0.337704 0.460932
v 0.600273 0.808207 0.605168
v 1.046538 0.293699 0.884846
vt 0.562148 0.230466
vt 0.300136 0.302584
vt 0.523269 0.442423
vn 0.684479 0.701525 0.198375
vn 0.684479 0.701525 0.198375
vn 0.684479 0.701525 0.198375
v 1.046538 0.293699 0.884846
v 0.600273 0.808207 0.605168
v 0.234904 0.803008 0.795936
vt 0.523269 0.146849
vt 0.300136 0.404104
vt 0.117452 0.401504
vn 0.340487 0.659578 0.670094
vn 0.340487 0.659578 0.670094
vn 0.340487 0.659578 0.670094
v 1.046538 0.293699 0.884846
v 0.234904 0.803008 0.795936
v 0.509232 0.369273 1.165388
vt 0.523269 0.442423
vt 0.117452 0.397968
vt 0.254616 0.582694
vn 0.395139 0.727589 0.560785
vn 0.395139 0.727589 0.560785
vn 0.395139 0.727589 0.560785
v 0.509232 0.369273 1.165388
v 0.234904 0.803008 0.795936
v -0.113948 0.845277 0.853472
vt 0.254616 0.582694
vt 0.117452 0.397968
vt -0.056974 0.426736
vn 0.197748 0.705112 0.680965
vn 0.197748 0.705112 0.680965
vn 0.197748 0.705112 0.680965
v 0.509232 0.369273 1.165388
v -0.113948 0.845277 0.853472
v -0.003786 0.319640 1.250000
vt 0.254616 0.184636
vt -0.056974 0.422639
vt -0.001893 0.159820
vn 0.071110 0.610164 0.789078
vn 0.071110 0.610164 0.789078
vn 0.071110 0.610164 0.789078
v -0.003786 0.319640 1.250000
v -0.113948 0.845277 0.853472
v -0.687533 0.815456 0.663489
vt -0.001893 0.159820
vt -0.056974 0.422639
vt -0.343766 0.407728
vn -0.290303 0.536780 0.792207
vn -0.290303 0.536780 0.792207
vn -0.290303 0.536780 0.792207
v -0.003786 0.319640 1.250000
v -0.687533 0.815456 0.663489
v -0.847293 0.332828 0.970612
vt -0.001893 0.159820
vt -0.343766 0.407728
vt -0.423647 0.166414
vn -0.248599 0.577253 0.777803
vn -0.248599 0.577253 0.777803
vn -0.248599 0.577253 0.777803
v -0.847293 0.332828 0.970612
v -0.687533 0.815456 0.663489
v -0.845552 0.824739 0.575229
vt -0.423647 0.166414
vt -0.343766 0.407728
vt -0.422776 0.412370
vn -0.369871 0.582852 0.723518
vn -0.369871 0.582852 0.723518
vn -0.369871 0.582852 0.723518
v -0.847293 0.332828 0.970612
v -0.845552 0.824739 0.575229
v -1.079674 0.312214 0.840819
vt -0.423647 0.166414
vt -0.422776 0.412370
vt -0.539837 0.156107
vn -0.440404 0.563405 0.699013
vn -0.440404 0.563405 0.699013
vn -0.440404 0.563405 0.699013
v -1.079674 0.312214 0.840819
v -0.845552 0.824739 0.575229
v -1.162762 0.770561 0.313928
vt -0.539837 0.156107
vt -0.422776 0.412370
vt -0.581381 0.385280
vn -0.579006 0.567730 0.585179
vn -0.579006 0.567730 0.585179
vn -0.579006 0.567730 0.585179
v -1.079674 0.312214 0.840819
v -1.162762 0.770561 0.313928
v -1.546161 0.382998 0.456552
vt -0.539837 0.420410
vt -0.581381 0.156964
vt -0.773080 0.228276
vn -0.421972 0.650015 0.631996
vn -0.421972 0.650015 0.631996
vn -0.421972 0.650015 0.631996
v -1.546161 0.382998 0.456552
v -1.162762 0.770561 0.313928
v -1.267373 0.806114 -0.038543
vt -0.773080 0.228276
vt -0.581381 0.156964
vt -0.633687 -0.019272
vn -0.636142 0.725725 0.262004
vn -0.636142 0.725725 0.262004
vn -0.636142 0.725725 0.262004
v -1.546161 0.382998 0.456552
v -1.267373 0.806114 -0.038543
v -1.700000 0.310875 -0.061788
vt 0.191499 0.228276
vt 0.403057 -0.019272
vt 0.155438 -0.030894
vn -0.749564 0.648593 0.132218
vn -0.749564 0.648593 0.132218
vn -0.749564 0.648593 0.132218
v -1.700000 0.310875 -0.061788
v -1.267373 0.806114 -0.038543
v -1.198369 0.832296 -0.344130
vt 0.155438 -0.030894
vt 0.403057 -0.019272
vt 0.416148 -0.172065
vn -0.745746 0.656727 -0.112129
vn -0.745746 0.656727 -0.112129
vn -0.745746 0.656727 -0.112129
v -1.700000 0.310875 -0.061788
v -1.198369 0.832296 -0.344130
v -1.598523 0.299003 -0.511180
vt 0.155438 -0.030894
vt 0.416148 -0.172065
vt 0.149502 -0.255590
vn -0.756618 0.626427 -0.187401
vn -0.756618 0.626427 -0.187401
vn -0.756618 0.626427 -0.187401
v -1.598523 0.299003 -0.511180
v -1.198369 0.832296 -0.344130
v -1.076110 0.845600 -0.502746
vt 0.149502 -0.255590
vt 0.416148 -0.172065
vt 0.422800 -0.251373
vn -0.644204 0.622557 -0.444325
vn -0.644204 0.622557 -0.444325
vn -0.644204 0.622557 -0.444325
v -1.598523 0.299003 -0.511180
v -1.076110 0.845600 -0.502746
v -1.418731 0.339333 -0.744438
vt 0.149502 -0.255590
vt 0.422800 -0.251373
vt 0.169666 -0.372219
vn -0.659941 0.636892 -0.398556
vn -0.659941 0.636892 -0.398556
vn -0.659941 0.636892 -0.398556
v -1.418731 0.339333 -0.744438
v -1.076110 0.845600 -0.502746
v -0.565142 0.768157 -0.704981
vt -0.709365 0.169666
vt -0.538055 0.422800
vt -0.282571 0.384079
vn -0.236160 0.544159 -0.805059
vn -0.236160 0.544159 -0.805059
vn -0.236160 0.544159 -0.805059
v -1.418731 0.339333 -0.744438
v -0.565142 0.768157 -0.704981
v -0.667307 0.319388 -1.041843
vt -0.709365 0.169666
vt -0.282571 0.384079
vt -0.333654 0.159694
vn -0.275579 0.616420 -0.737619
vn -0.275579 0.616420 -0.737619
vn -0.275579 0.616420 -0.737619
v -0.667307 0.319388 -1.041843
v -0.565142 0.768157 -0.704981
v -0.137062 0.779761 -0.846528
vt -0.333654 0.159694
vt -0.282571 0.384079
vt -0.068531 0.389880
vn -0.262129 0.616793 -0.742195
vn -0.262129 0.616793 -0.742195
vn -0.262129 0.616793 -0.742195
v -0.667307 0.319388 -1.041843
v -0.137062 0.779761 -0.846528
v -0.037778 0.326371 -1.250000
vt -0.333654 0.159694
vt -0.068531 0.389880
vt -0.018889 0.163186
vn -0.254584 0.611174 -0.749435
vn -0.254584 0.611174 -0.749435
vn -0.254584 0.611174 -0.749435
v -0.037778 0.326371 -1.250000
v -0.137062 0.779761 -0.846528
v 0.153903 0.756213 -0.717247
vt -0.018889 -0.625000
vt -0.068531 -0.423264
vt 0.076952 -0.358624
vn 0.347636 0.664659 -0.661346
vn 0.347636 0.664659 -0.661346
vn 0.347636 0.664659 -0.661346
v -0.037778 0.326371 -1.250000
v 0.153903 0.756213 -0.717247
v 0.390112 0.356681 -1.059882
vt -0.018889 -0.625000
vt 0.076952 -0.358624
vt 0.195056 -0.529941
vn 0.243191 0.710280 -0.660576
vn 0.243191 0.710280 -0.660576
vn 0.243191 0.710280 -0.660576
v 0.390112 0.356681 -1.059882
v 0.153903 0.756213 -0.717247
v 0.556956 0.839352 -0.524270
vt 0.195056 -0.529941
vt 0.076952 -0.358624
vt 0.278478 -0.262135
vn 0.185414 0.700566 -0.689078
vn 0.185414 0.700566 -0.689078
vn 0.185414 0.700566 -0.689078
v 0.390112 0.356681 -1.059882
v 0.556956 0.839352 -0.524270
v 0.982837 0.339821 -0.776092
vt 0.195056 0.178340
vt 0.278478 0.419676
vt 0.491418 0.169910
vn 0.346315 0.640700 -0.685251
vn 0.346315 0.640700 -0.685251
vn 0.346315 0.640700 -0.685251
v 0.982837 0.339821 -0.776092
v 0.556956 0.839352 -0.524270
v 0.753292 0.789843 -0.360398
vt 0.491418 -0.388046
vt 0.278478 -0.262135
vt 0.376646 -0.180199
vn 0.553512 0.699654 -0.451784
vn 0.553512 0.699654 -0.451784
vn 0.553512 0.699654 -0.451784
v 0.982837 0.339821 -0.776092
v 0.753292 0.789843 -0.360398
v 1.271566 0.296297 -0.535104
vt 0.491418 -0.388046
vt 0.376646 -0.180199
vt 0.635783 -0.267552
vn 0.511753 0.709097 -0.485067
vn 0.511753 0.709097 -0.485067
vn 0.511753 0.709097 -0.485067
v 1.271566 0.296297 -0.535104
v 0.753292 0.789843 -0.360398
v 1.044627 0.763176 0.044583
vt 0.635783 -0.267552
vt 0.376646 -0.180199
vt 0.522313 0.022291
vn 0.574535 0.732551 -0.365074
vn 0.574535 0.732551 -0.365074
vn 0.574535 0.732551 -0.365074
v 1.271566 0.296297 -0.535104
v 1.044627 0.763176 0.044583
v 1.700000 0.315893 0.060456
vt 0.635783 -0.267552
vt 0.522313 0.022291
vt 0.850000 0.030228
vn 0.523014 0.752105 -0.400993
vn 0.523014 0.752105 -0.400993
vn 0.523014 0.752105 -0.400993
v -0.060224 0.000000 0.007795
v 1.320823 0.000000 0.048551
v 0.883288 0.000000 0.352913
vt -0.030112 0.003898
vt 0.660412 0.024275
vt 0.441644 0.176456
vn 0.000000 -1.000000 0.000000
vn 0.000000 -1.000000 0.000000
vn 0.000000 -1.000000 0.000000
v -0.060224 0.000000 0.007795
v 0.883288 0.000000 0.352913
v 0.824192 0.000000 0.675088
vt -0.030112 0.003898
vt 0.441644 0.176456
vt 0.412096 0.337544
vn 0.000000 -1.000000 0.000000
vn 0.000000 -1.000000 0.000000
vn 0.000000 -1.000000 0.000000
v -0.060224 0.000000 0.007795
v 0.824192 0.000000 0.675088
v 0.415839 0.000000 0.888299
vt -0.030112 0.003898
vt 0.412096 0.337544
vt 0.207920 0.444150
vn 0.000000 -1.000000 0.000000
vn 0.000000 -1.000000 0.000000
vn 0.000000 -1.000000 0.000000
v -0.060224 0.000000 0.007795
v 0.415839 0.000000 0.888299
v 0.025946 0.000000 0.952604
vt -0.030112 0.003898
vt 0.207920 0.444150
vt 0.012973 0.476302
vn 0.000000 -1.000000 0.000000
vn 0.000000 -1.000000 0.000000
vn 0.000000 -1.000000 0.000000
v -0.060224 0.000000 0.007795
v 0.025946 0.000000 0.952604
v -0.615120 0.000000 0.740270
vt -0.030112 0.003898
vt 0.012973 0.476302
vt -0.307560 0.370135
vn 0.000000 -1.000000 0.000000
vn 0.000000 -1.000000 0.000000
vn 0.000000 -1.000000 0.000000
v -0.060224 0.000000 0.007795
v -0.615120 0.000000 0.740270
v -0.791729 0.000000 0.641627
vt -0.030112 0.003898
vt -0.307560 0.370135
vt -0.395865 0.320813
vn 0.000000 -1.000000 0.000000
vn 0.000000 -1.000000 0.000000
vn 0.000000 -1.000000 0.000000
v -0.060224 0.000000 0.007795
v -0.791729 0.000000 0.641627
v -1.146259 0.000000 0.349584
vt -0.030112 0.003898
vt -0.395865 0.320813
vt -0.573129 0.174792
vn 0.000000 -1.000000 0.000000
vn 0.000000 -1.000000 0.000000
vn 0.000000 -1.000000 0.000000
v -0.060224 0.000000 0.007795
v -1.146259 0.000000 0.349584
v -1.263177 0.000000 -0.044355
vt -0.030112 0.003898
vt -0.573129 0.174792
vt -0.631588 -0.022177
vn -0.000000 -1.000000 0.000000
vn -0.000000 -1.000000 0.000000
vn -0.000000 -1.000000 0.000000
v -0.060224 0.000000 0.007795
v -1.263177 0.000000 -0.044355
v -1.186054 0.000000 -0.385892
vt -0.030112 0.003898
vt -0.631588 -0.022177
vt -0.593027 -0.192946
vn 0.000000 -1.000000 0.000000
vn 0.000000 -1.000000 0.000000
vn 0.000000 -1.000000 0.000000
v -0.060224 0.000000 0.007795
v -1.186054 0.000000 -0.385892
v -1.049412 0.000000 -0.563169
vt -0.030112 0.003898
vt -0.593027 -0.192946
vt -0.524706 -0.281584
vn 0.000000 -1.000000 0.000000
vn 0.000000 -1.000000 0.000000
vn 0.000000 -1.000000 0.000000
v -0.060224 0.000000 0.007795
v -1.049412 0.000000 -0.563169
v -0.478330 0.000000 -0.789196
vt -0.030112 0.003898
vt -0.524706 -0.281584
vt -0.239165 -0.394598
vn 0.000000 -1.000000 0.000000
vn 0.000000 -1.000000 0.000000
vn 0.000000 -1.000000 0.000000
v -0.060224 0.000000 0.007795
v -0.478330 0.000000 -0.789196
v 0.000112 0.000000 -0.947396
vt -0.030112 0.003898
vt -0.239165 -0.394598
vt 0.000056 -0.473698
vn 0.000000 -1.000000 -0.000000
vn 0.000000 -1.000000 -0.000000
vn 0.000000 -1.000000 -0.000000
v -0.060224 0.000000 0.007795
v 0.000112 0.000000 -0.947396
v 0.325309 0.000000 -0.802906
vt -0.030112 0.003898
vt 0.000056 -0.473698
vt 0.162654 -0.401453
vn 0.000000 -1.000000 0.000000
vn 0.000000 -1.000000 0.000000
vn 0.000000 -1.000000 0.000000
v -0.060224 0.000000 0.007795
v 0.325309 0.000000 -0.802906
v 0.775779 0.000000 -0.587226
vt -0.030112 0.003898
vt 0.162654 -0.401453
vt 0.387889 -0.293613
vn 0.000000 -1.000000 0.000000
vn 0.000000 -1.000000 0.000000
vn 0.000000 -1.000000 0.000000
v -0.060224 0.000000 0.007795
v 0.775779 0.000000 -0.587226
v 0.995213 0.000000 -0.404075
vt -0.030112 0.003898
vt 0.387889 -0.293613
vt 0.497607 -0.202037
vn 0.000000 -1.000000 0.000000
vn 0.000000 -1.000000 0.000000
vn 0.000000 -1.000000 0.000000
v -0.060224 0.000000 0.007795
v 0.995213 0.000000 -0.404075
v 1.320823 0.000000 0.048551
vt -0.030112 0.003898
vt 0.497607 -0.202037
vt 0.660412 0.024275
vn 0.000000 -1.000000 0.000000
vn 0.000000 -1.000000 0.000000
vn 0.000000 -1.000000 0.000000
v -0.191047 0.806110 0.008117
v 0.653148 0.850000 0.316906
v 1.044627 0.763176 0.044583
vt -0.095523 0.004058
vt 0.326574 0.158453
vt 0.522313 0.022291
vn 0.040980 0.967494 -0.249551
vn 0.040980 0.967494 -0.249551
vn 0.040980 0.967494 -0.249551
v -0.191047 0.806110 0.008117
v 0.600273 0.808207 0.605168
v 0.653148 0.850000 0.316906
vt -0.095523 0.004058
vt 0.300136 0.302584
vt 0.326574 0.158453
vn -0.097173 0.987346 0.125323
vn -0.097173 0.987346 0.125323
vn -0.097173 0.987346 0.125323
v -0.191047 0.806110 0.008117
v 0.234904 0.803008 0.795936
v 0.600273 0.808207 0.605168
vt -0.095523 0.004058
vt 0.117452 0.397968
vt 0.300136 0.302584
vn -0.009494 0.999914 0.009071
vn -0.009494 0.999914 0.009071
vn -0.009494 0.999914 0.009071
v -0.191047 0.806110 0.008117
v -0.113948 0.845277 0.853472
v 0.234904 0.803008 0.795936
vt -0.095523 0.004058
vt -0.056974 0.426736
vt 0.117452 0.397968
vn 0.110976 0.992239 -0.056094
vn 0.110976 0.992239 -0.056094
vn 0.110976 0.992239 -0.056094
v -0.191047 0.806110 0.008117
v -0.687533 0.815456 0.663489
v -0.113948 0.845277 0.853472
vt -0.095523 0.004058
vt -0.343766 0.331744
vt -0.056974 0.426736
vn -0.037725 0.998370 -0.042816
vn -0.037725 0.998370 -0.042816
vn -0.037725 0.998370 -0.042816
v -0.191047 0.806110 0.008117
v -0.845552 0.824739 0.575229
v -0.687533 0.815456 0.663489
vt -0.095523 0.004058
vt -0.422776 0.287615
vt -0.343766 0.331744
vn 0.046815 0.998678 0.021224
vn 0.046815 0.998678 0.021224
vn 0.046815 0.998678 0.021224
v -0.191047 0.806110 0.008117
v -1.162762 0.770561 0.313928
v -0.845552 0.824739 0.575229
vt -0.095523 0.004058
vt -0.581381 0.156964
vt -0.422776 0.287615
vn -0.072983 0.990474 -0.116766
vn -0.072983 0.990474 -0.116766
vn -0.072983 0.990474 -0.116766
v -0.191047 0.806110 0.008117
v -1.267373 0.806114 -0.038543
v -1.162762 0.770561 0.313928
vt -0.095523 0.004058
vt -0.633687 -0.019272
vt -0.581381 0.156964
vn -0.004403 0.994810 0.101651
vn -0.004403 0.994810 0.101651
vn -0.004403 0.994810 0.101651
v -0.191047 0.806110 0.008117
v -1.198369 0.832296 -0.344130
v -1.267373 0.806114 -0.038543
vt -0.095523 0.004058
vt -0.599184 -0.172065
vt -0.633687 -0.019272
vn -0.003662 0.996413 0.084546
vn -0.003662 0.996413 0.084546
vn -0.003662 0.996413 0.084546
v -0.191047 0.806110 0.008117
v -1.076110 0.845600 -0.502746
v -1.198369 0.832296 -0.344130
vt -0.095523 0.004058
vt -0.538055 -0.251373
vt -0.599184 -0.172065
vn -0.002617 0.996664 0.081577
vn -0.002617 0.996664 0.081577
vn -0.002617 0.996664 0.081577
v -0.191047 0.806110 0.008117
v -0.565142 0.768157 -0.704981
v -1.076110 0.845600 -0.502746
vt -0.095523 0.004058
vt -0.282571 -0.352490
vt -0.538055 -0.251373
vn 0.106798 0.988329 -0.108628
vn 0.106798 0.988329 -0.108628
vn 0.106798 0.988329 -0.108628
v -0.191047 0.806110 0.008117
v -0.137062 0.779761 -0.846528
v -0.565142 0.768157 -0.704981
vt -0.095523 0.004058
vt -0.068531 -0.423264
vt -0.282571 -0.352490
vn -0.038047 0.998724 -0.033195
vn -0.038047 0.998724 -0.033195
vn -0.038047 0.998724 -0.033195
v -0.191047 0.806110 0.008117
v 0.153903 0.756213 -0.717247
v -0.137062 0.779761 -0.846528
vt -0.095523 0.004058
vt 0.076952 -0.358624
vt -0.068531 -0.423264
vn 0.091628 0.995482 -0.024904
vn 0.091628 0.995482 -0.024904
vn 0.091628 0.995482 -0.024904
v -0.191047 0.806110 0.008117
v 0.556956 0.839352 -0.524270
v 0.153903 0.756213 -0.717247
vt -0.095523 0.004058
vt 0.278478 -0.262135
vt 0.076952 -0.358624
vn -0.138555 0.981330 -0.133395
vn -0.138555 0.981330 -0.133395
vn -0.138555 0.981330 -0.133395
v -0.191047 0.806110 0.008117
v 0.753292 0.789843 -0.360398
v 0.556956 0.839352 -0.524270
vt -0.095523 0.004058
vt 0.376646 -0.180199
vt 0.278478 -0.262135
vn 0.090060 0.978107 0.187608
vn 0.090060 0.978107 0.187608
vn 0.090060 0.978107 0.187608
v -0.191047 0.806110 0.008117
v 1.044627 0.763176 0.044583
v 0.753292 0.789843 -0.360398
vt -0.095523 0.004058
vt 0.522313 0.022291
vt 0.376646 -0.180199
vn 0.033466 0.998570 0.041678
vn 0.033466 0.998570 0.041678
vn 0.033466 0.998570 0.041678
f 1/1/1 2/2/2 3/3/3
f 4/4/4 5/5/5 6/6/6
f 7/7/7 8/8/8 9/9/9
f 10/10/10 11/11/11 12/12/12
f 13/13/13 14/14/14 15/15/15
f 16/16/16 17/17/17 18/18/18
f 19/19/19 20/20/20 21/21/21
f 22/22/22 23/23/23 24/24/24
f 25/25/25 26/26/26 27/27/27
f 28/28/28 29/29/29 30/30/30
f 31/31/31 32/32/32 33/33/33
f 34/34/34 35/35/35 36/36/36
f 37/37/37 38/38/38 39/39/39
f 40/40/40 41/41/41 42/42/42
f 43/43/43 44/44/44 45/45/45
f 46/46/46 47/47/47 48/48/48
f 49/49/49 50/50/50 51/51/51
f 52/52/52 53/53/53 54/54/54
f 55/55/55 56/56/56 57/57/57
f 58/58/58 59/59/59 60/60/60
f 61/61/61 62/62/62 63/63/63
f 64/64/64 65/65/65 66/66/66
f 67/67/67 68/68/68 69/69/69
f 70/70/70 71/71/71 72/72/72
f 73/73/73 74/74/74 75/75/75
f 76/76/76 77/77/77 78/78/78
f 79/79/79 80/80/80 81/81/81
f 82/82/82 83/83/83 84/84/84
f 85/85/85 86/86/86 87/87/87
f 88/88/88 89/89/89 90/90/90
f 91/91/91 92/92/92 93/93/93
f 94/94/94 95/95/95 96/96/96
f 97/97/97 98/98/98 99/99/99
f 100/100/100 101/101/101 102/102/102
f 103/103/103 104/104/104 105/105/105
f 106/106/106 107/107/107 108/108/108
f 109/109/109 110/110/110 111/111/111
f 112/112/112 113/113/113 114/114/114
f 115/115/115 116/116/116 117/117/117
f 118/118/118 119/119/119 120/120/120
f 121/121/121 122/122/122 123/123/123
f 124/124/124 125/125/125 126/126/126
f 127/127/127 128/128/128 129/129/129
f 130/130/130 131/131/131 132/132/132
f 133/133/133 134/134/134 135/135/135
f 136/136/136 137/137/137 138/138/138
f 139/139/139 140/140/140 141/141/141
f 142/142/142 143/143/143 144/144/144
f 145/145/145 146/146/146 147/147/147
f 148/148/148 149/149/149 150/150/150
f 151/151/151 152/152/152 153/153/153
f 154/154/154 155/155/155 156/156/156
f 157/157/157 158/158/158 159/159/159
f 160/160/160 161/161/161 162/162/162
f 163/163/163 164/164/164 165/165/165
f 166/166/166 167/167/167 168/168/168
f 169/169/169 170/170/170 171/171/171
f 172/172/172 173/173/173 174/174/174
f 175/175/175 176/176/176 177/177/177
f 178/178/178 179/179/179 180/180/180
f 181/181/181 182/182/182 183/183/183
f 184/184/184 185/185/185 186/186/186
f 187/187/187 188/188/188 189/189/189
f 190/190/190 191/191/191 192/192/192
f 193/193/193 194/194/194 195/195/195
f 196/196/196 197/197/197 198/198/198
f 199/199/199 200/200/200 201/201/201
f 202/202/202 203/203/203 204/204/204
f 205/205/205 206/206/206 207/207/207
f 208/208/208 209/209/209 210/210/210
f 211/211/211 212/212/212 213/213/213
f 214/214/214 215/215/215 216/216/216
f 217/217/217 218/218/218 219/219/219
f 220/220/220 221/221/221 222/222/222
f 223/223/223 224/224/224 225/225/225
f 226/226/226 227/227/227 228/228/228
f 229/229/229 230/230/230 231/231/231
f 232/232/232 233/233/233 234/234/234
f 235/235/235 236/236/236 237/237/237
f 238/238/238 239/239/239 240/240/240
f 241/241/241 242/242/242 243/243/243
f 244/244/244 245/245/245 246/246/246
f 247/247/247 248/248/248 249/249/249
f 250/250/250 251/251/251 252/252/252
f 253/253/253 254/254/254 255/255/255
f 256/256/256 257/257/257 258/258/258
f 259/259/259 260/260/260 261/261/261
f 262/262/262 263/263/263 264/264/264
f 265/265/265 266/266/266 267/267/267
f 268/268/268 269/269/269 270/270/270
f 271/271/271 272/272/272 273/273/273
f 274/274/274 275/275/275 276/276/276
f 277/277/277 278/278/278 279/279/279
f 280/280/280 281/281/281 282/282/282
f 283/283/283 284/284/284 285/285/285
f 286/286/286 287/287/287 288/288/288
