# metres, Y up, base-centred pivot
mtllib Stone.mtl
o Masso_07_Arrotondato
usemtl Stone
s off
v 0.715052 0.000000 0.046929
v 0.900000 0.759828 0.034535
v 0.871461 0.649599 0.389894
vt 0.000000 0.023465
vt 0.379914 0.017268
vt 0.324799 0.194947
vn 0.971638 -0.236428 0.004695
vn 0.971638 -0.236428 0.004695
vn 0.971638 -0.236428 0.004695
v 0.715052 0.000000 0.046929
v 0.871461 0.649599 0.389894
v 0.693362 0.000000 0.317002
vt 0.000000 0.023465
vt 0.324799 0.194947
vt 0.000000 0.158501
vn 0.959306 -0.271655 0.077043
vn 0.959306 -0.271655 0.077043
vn 0.959306 -0.271655 0.077043
v 0.693362 0.000000 0.317002
v 0.871461 0.649599 0.389894
v 0.415929 0.591310 0.720163
vt 0.346681 0.000000
vt 0.435730 0.324799
vt 0.207965 0.295655
vn 0.589251 -0.247843 0.768998
vn 0.589251 -0.247843 0.768998
vn 0.589251 -0.247843 0.768998
v 0.693362 0.000000 0.317002
v 0.415929 0.591310 0.720163
v 0.347158 0.000000 0.568006
vt 0.346681 0.000000
vt 0.207965 0.295655
vt 0.173579 0.000000
vn 0.565735 -0.266586 0.780305
vn 0.565735 -0.266586 0.780305
vn 0.565735 -0.266586 0.780305
v 0.347158 0.000000 0.568006
v 0.415929 0.591310 0.720163
v 0.245744 0.687447 0.829526
vt 0.173579 0.000000
vt 0.207965 0.295655
vt 0.122872 0.343724
vn 0.406925 -0.271738 0.872107
vn 0.406925 -0.271738 0.872107
vn 0.406925 -0.271738 0.872107
v 0.347158 0.000000 0.568006
v 0.245744 0.687447 0.829526
v 0.217817 0.000000 0.651122
vt 0.173579 0.000000
vt 0.122872 0.343724
vt 0.108909 0.000000
vn 0.525652 -0.233635 0.817988
vn 0.525652 -0.233635 0.817988
vn 0.525652 -0.233635 0.817988
v 0.217817 0.000000 0.651122
v 0.245744 0.687447 0.829526
v -0.267971 0.730916 0.823326
vt 0.108909 0.000000
vt 0.122872 0.343724
vt -0.133985 0.365458
vn -0.032819 -0.249811 0.967738
vn -0.032819 -0.249811 0.967738
vn -0.032819 -0.249811 0.967738
v 0.217817 0.000000 0.651122
v -0.267971 0.730916 0.823326
v -0.172606 0.000000 0.646410
vt 0.108909 0.000000
vt -0.133985 0.365458
vt -0.086303 0.000000
vn -0.011726 -0.236682 0.971516
vn -0.011726 -0.236682 0.971516
vn -0.011726 -0.236682 0.971516
v -0.172606 0.000000 0.646410
v -0.267971 0.730916 0.823326
v -0.527549 0.640934 0.850000
vt -0.086303 0.000000
vt -0.133985 0.365458
vt -0.263775 0.320467
vn 0.171867 -0.210513 0.962365
vn 0.171867 -0.210513 0.962365
vn 0.171867 -0.210513 0.962365
v -0.172606 0.000000 0.646410
v -0.527549 0.640934 0.850000
v -0.369886 0.000000 0.666682
vt -0.086303 0.000000
vt -0.263775 0.320467
vt -0.184943 0.000000
vn 0.098948 -0.251065 0.962900
vn 0.098948 -0.251065 0.962900
vn 0.098948 -0.251065 0.962900
v -0.369886 0.000000 0.666682
v -0.527549 0.640934 0.850000
v -0.900000 0.721759 0.491407
vt 0.000000 0.333341
vt 0.320467 0.425000
vt 0.360880 0.245703
vn -0.687873 -0.350933 0.635356
vn -0.687873 -0.350933 0.635356
vn -0.687873 -0.350933 0.635356
v -0.369886 0.000000 0.666682
v -0.900000 0.721759 0.491407
v -0.652948 0.000000 0.394152
vt -0.184943 0.000000
vt -0.450000 0.360880
vt -0.326474 0.000000
vn -0.657761 -0.317202 0.683179
vn -0.657761 -0.317202 0.683179
vn -0.657761 -0.317202 0.683179
v -0.652948 0.000000 0.394152
v -0.900000 0.721759 0.491407
v -0.803746 0.738100 0.150541
vt 0.000000 0.197076
vt 0.360880 0.245703
vt 0.369050 0.075271
vn -0.920765 -0.278336 -0.273351
vn -0.920765 -0.278336 -0.273351
vn -0.920765 -0.278336 -0.273351
v -0.652948 0.000000 0.394152
v -0.803746 0.738100 0.150541
v -0.579795 0.000000 0.135094
vt 0.000000 0.197076
vt 0.369050 0.075271
vt 0.000000 0.067547
vn -0.925193 -0.275250 -0.261257
vn -0.925193 -0.275250 -0.261257
vn -0.925193 -0.275250 -0.261257
v -0.579795 0.000000 0.135094
v -0.803746 0.738100 0.150541
v -0.839819 0.649645 -0.247950
vt 0.000000 0.067547
vt 0.369050 0.075271
vt 0.324823 -0.123975
vn -0.945230 -0.289935 0.149924
vn -0.945230 -0.289935 0.149924
vn -0.945230 -0.289935 0.149924
v -0.579795 0.000000 0.135094
v -0.839819 0.649645 -0.247950
v -0.607210 0.000000 -0.167759
vt 0.000000 0.067547
vt 0.324823 -0.123975
vt 0.000000 -0.083880
vn -0.941337 -0.326532 0.085214
vn -0.941337 -0.326532 0.085214
vn -0.941337 -0.326532 0.085214
v -0.607210 0.000000 -0.167759
v -0.839819 0.649645 -0.247950
v -0.664877 0.728335 -0.631656
vt 0.000000 -0.083880
vt 0.324823 -0.123975
vt 0.364168 -0.315828
vn -0.823201 -0.349937 -0.447084
vn -0.823201 -0.349937 -0.447084
vn -0.823201 -0.349937 -0.447084
v -0.607210 0.000000 -0.167759
v -0.664877 0.728335 -0.631656
v -0.474255 0.000000 -0.459376
vt 0.000000 -0.083880
vt 0.364168 -0.315828
vt 0.000000 -0.229688
vn -0.862438 -0.318729 -0.393208
vn -0.862438 -0.318729 -0.393208
vn -0.862438 -0.318729 -0.393208
v -0.474255 0.000000 -0.459376
v -0.664877 0.728335 -0.631656
v -0.287227 0.792442 -0.669041
vt -0.237127 0.000000
vt -0.332439 0.364168
vt -0.143613 0.396221
vn -0.054560 -0.243345 -0.968404
vn -0.054560 -0.243345 -0.968404
vn -0.054560 -0.243345 -0.968404
v -0.474255 0.000000 -0.459376
v -0.287227 0.792442 -0.669041
v -0.187240 0.000000 -0.487789
vt -0.237127 0.000000
vt -0.143613 0.396221
vt -0.093620 0.000000
vn -0.095793 -0.233413 -0.967648
vn -0.095793 -0.233413 -0.967648
vn -0.095793 -0.233413 -0.967648
v -0.187240 0.000000 -0.487789
v -0.287227 0.792442 -0.669041
v 0.285033 0.750475 -0.850000
vt -0.093620 0.000000
vt -0.143613 0.396221
vt 0.142517 0.375238
vn -0.308560 -0.248917 -0.918058
vn -0.308560 -0.248917 -0.918058
vn -0.308560 -0.248917 -0.918058
v -0.187240 0.000000 -0.487789
v 0.285033 0.750475 -0.850000
v 0.247677 0.000000 -0.625318
vt -0.093620 0.000000
vt 0.142517 0.375238
vt 0.123839 0.000000
vn -0.291046 -0.261068 -0.920400
vn -0.291046 -0.261068 -0.920400
vn -0.291046 -0.261068 -0.920400
v 0.247677 0.000000 -0.625318
v 0.285033 0.750475 -0.850000
v 0.511585 0.602014 -0.678652
vt 0.123839 0.000000
vt 0.142517 0.375238
vt 0.255793 0.301007
vn 0.458324 -0.275771 -0.844920
vn 0.458324 -0.275771 -0.844920
vn 0.458324 -0.275771 -0.844920
v 0.247677 0.000000 -0.625318
v 0.511585 0.602014 -0.678652
v 0.419857 0.000000 -0.495093
vt 0.123839 0.000000
vt 0.255793 0.301007
vt 0.209928 0.000000
vn 0.571968 -0.317734 -0.756239
vn 0.571968 -0.317734 -0.756239
vn 0.571968 -0.317734 -0.756239
v 0.419857 0.000000 -0.495093
v 0.511585 0.602014 -0.678652
v 0.753314 0.623292 -0.244445
vt 0.000000 -0.247546
vt 0.301007 -0.339326
vt 0.311646 -0.122222
vn 0.847099 -0.268847 -0.458416
vn 0.847099 -0.268847 -0.458416
vn 0.847099 -0.268847 -0.458416
v 0.419857 0.000000 -0.495093
v 0.753314 0.623292 -0.244445
v 0.603571 0.000000 -0.165096
vt 0.000000 -0.247546
vt 0.311646 -0.122222
vt 0.000000 -0.082548
vn 0.843132 -0.262315 -0.469383
vn 0.843132 -0.262315 -0.469383
vn 0.843132 -0.262315 -0.469383
v 0.603571 0.000000 -0.165096
v 0.753314 0.623292 -0.244445
v 0.900000 0.759828 0.034535
vt 0.000000 -0.082548
vt 0.311646 -0.122222
vt 0.379914 0.017268
vn 0.901200 -0.260597 -0.346306
vn 0.901200 -0.260597 -0.346306
vn 0.901200 -0.260597 -0.346306
v 0.603571 0.000000 -0.165096
v 0.900000 0.759828 0.034535
v 0.715052 0.000000 0.046929
vt 0.000000 -0.082548
vt 0.379914 0.017268
vt 0.000000 0.023465
vn 0.863883 -0.217685 -0.454224
vn 0.863883 -0.217685 -0.454224
vn 0.863883 -0.217685 -0.454224
v 0.900000 0.759828 0.034535
v 0.329657 1.454362 0.064487
v 0.317671 1.550118 0.213738
vt 0.379914 0.017268
vt 0.727181 0.032244
vt 0.775059 0.106869
vn 0.722030 0.607222 -0.331593
vn 0.722030 0.607222 -0.331593
vn 0.722030 0.607222 -0.331593
v 0.900000 0.759828 0.034535
v 0.317671 1.550118 0.213738
v 0.871461 0.649599 0.389894
vt 0.379914 0.017268
vt 0.775059 0.106869
vt 0.324799 0.194947
vn 0.807376 0.542087 0.232993
vn 0.807376 0.542087 0.232993
vn 0.807376 0.542087 0.232993
v 0.871461 0.649599 0.389894
v 0.317671 1.550118 0.213738
v 0.126347 1.543074 0.352450
vt 0.435730 0.324799
vt 0.158835 0.775059
vt 0.063174 0.771537
vn 0.511092 0.456739 0.728131
vn 0.511092 0.456739 0.728131
vn 0.511092 0.456739 0.728131
v 0.871461 0.649599 0.389894
v 0.126347 1.543074 0.352450
v 0.415929 0.591310 0.720163
vt 0.435730 0.324799
vt 0.063174 0.771537
vt 0.207965 0.295655
vn 0.489582 0.439839 0.752895
vn 0.489582 0.439839 0.752895
vn 0.489582 0.439839 0.752895
v 0.415929 0.591310 0.720163
v 0.126347 1.543074 0.352450
v 0.054870 1.546226 0.398383
vt 0.207965 0.295655
vt 0.063174 0.771537
vt 0.027435 0.773113
vn 0.499073 0.440222 0.746412
vn 0.499073 0.440222 0.746412
vn 0.499073 0.440222 0.746412
v 0.415929 0.591310 0.720163
v 0.054870 1.546226 0.398383
v 0.245744 0.687447 0.829526
vt 0.295655 0.360081
vt 0.773113 0.199192
vt 0.343724 0.414763
vn 0.648739 0.451678 0.612474
vn 0.648739 0.451678 0.612474
vn 0.648739 0.451678 0.612474
v 0.245744 0.687447 0.829526
v 0.054870 1.546226 0.398383
v -0.160890 1.594021 0.395779
vt 0.122872 0.343724
vt 0.027435 0.773113
vt -0.080445 0.797010
vn 0.091926 0.463017 0.881570
vn 0.091926 0.463017 0.881570
vn 0.091926 0.463017 0.881570
v 0.245744 0.687447 0.829526
v -0.160890 1.594021 0.395779
v -0.267971 0.730916 0.823326
vt 0.122872 0.343724
vt -0.080445 0.797010
vt -0.133985 0.365458
vn 0.026496 0.441086 0.897074
vn 0.026496 0.441086 0.897074
vn 0.026496 0.441086 0.897074
v -0.267971 0.730916 0.823326
v -0.160890 1.594021 0.395779
v -0.269913 1.408679 0.406982
vt -0.133985 0.365458
vt -0.080445 0.797010
vt -0.134957 0.704340
vn -0.624378 0.407556 0.666371
vn -0.624378 0.407556 0.666371
vn -0.624378 0.407556 0.666371
v -0.267971 0.730916 0.823326
v -0.269913 1.408679 0.406982
v -0.527549 0.640934 0.850000
vt -0.133985 0.365458
vt -0.134957 0.704340
vt -0.263775 0.320467
vn -0.093394 0.520939 0.848469
vn -0.093394 0.520939 0.848469
vn -0.093394 0.520939 0.848469
v -0.527549 0.640934 0.850000
v -0.269913 1.408679 0.406982
v -0.426343 1.423219 0.256373
vt -0.263775 0.320467
vt -0.134957 0.704340
vt -0.213171 0.711610
vn -0.553280 0.547784 0.627545
vn -0.553280 0.547784 0.627545
vn -0.553280 0.547784 0.627545
v -0.527549 0.640934 0.850000
v -0.426343 1.423219 0.256373
v -0.900000 0.721759 0.491407
vt -0.263775 0.320467
vt -0.213171 0.711610
vt -0.450000 0.360880
vn -0.507387 0.561601 0.653577
vn -0.507387 0.561601 0.653577
vn -0.507387 0.561601 0.653577
v -0.900000 0.721759 0.491407
v -0.426343 1.423219 0.256373
v -0.385916 1.479809 0.113210
vt 0.360880 0.245703
vt 0.711610 0.128187
vt 0.739905 0.056605
vn -0.830959 0.556136 -0.014816
vn -0.830959 0.556136 -0.014816
vn -0.830959 0.556136 -0.014816
v -0.900000 0.721759 0.491407
v -0.385916 1.479809 0.113210
v -0.803746 0.738100 0.150541
vt 0.360880 0.245703
vt 0.739905 0.056605
vt 0.369050 0.075271
vn -0.854817 0.470534 -0.218827
vn -0.854817 0.470534 -0.218827
vn -0.854817 0.470534 -0.218827
v -0.803746 0.738100 0.150541
v -0.385916 1.479809 0.113210
v -0.401067 1.568746 -0.054157
vt 0.369050 0.075271
vt 0.739905 0.056605
vt 0.784373 -0.027078
vn -0.816241 0.476274 0.326976
vn -0.816241 0.476274 0.326976
vn -0.816241 0.476274 0.326976
v -0.803746 0.738100 0.150541
v -0.401067 1.568746 -0.054157
v -0.839819 0.649645 -0.247950
vt 0.369050 0.075271
vt 0.784373 -0.027078
vt 0.324823 -0.123975
vn -0.901150 0.433261 -0.014598
vn -0.901150 0.433261 -0.014598
vn -0.901150 0.433261 -0.014598
v -0.839819 0.649645 -0.247950
v -0.401067 1.568746 -0.054157
v -0.327591 1.600000 -0.215313
vt 0.324823 -0.123975
vt 0.784373 -0.027078
vt 0.800000 -0.107657
vn -0.837583 0.461486 -0.292378
vn -0.837583 0.461486 -0.292378
vn -0.837583 0.461486 -0.292378
v -0.839819 0.649645 -0.247950
v -0.327591 1.600000 -0.215313
v -0.664877 0.728335 -0.631656
vt 0.324823 -0.123975
vt 0.800000 -0.107657
vt 0.364168 -0.315828
vn -0.838894 0.462033 -0.287721
vn -0.838894 0.462033 -0.287721
vn -0.838894 0.462033 -0.287721
v -0.664877 0.728335 -0.631656
v -0.327591 1.600000 -0.215313
v -0.168978 1.569341 -0.231015
vt -0.332439 0.364168
vt -0.163796 0.800000
vt -0.084489 0.784670
vn -0.005595 0.432755 -0.901494
vn -0.005595 0.432755 -0.901494
vn -0.005595 0.432755 -0.901494
v -0.664877 0.728335 -0.631656
v -0.168978 1.569341 -0.231015
v -0.287227 0.792442 -0.669041
vt -0.332439 0.364168
vt -0.084489 0.784670
vt -0.143613 0.396221
vn -0.169340 0.503469 -0.847256
vn -0.169340 0.503469 -0.847256
vn -0.169340 0.503469 -0.847256
v -0.287227 0.792442 -0.669041
v -0.168978 1.569341 -0.231015
v 0.071371 1.466597 -0.307018
vt -0.143613 0.396221
vt -0.084489 0.784670
vt 0.035686 0.733299
vn -0.061106 0.497254 -0.865451
vn -0.061106 0.497254 -0.865451
vn -0.061106 0.497254 -0.865451
v -0.287227 0.792442 -0.669041
v 0.071371 1.466597 -0.307018
v 0.285033 0.750475 -0.850000
vt -0.143613 0.396221
vt 0.035686 0.733299
vt 0.142517 0.375238
vn -0.215289 0.548422 -0.808012
vn -0.215289 0.548422 -0.808012
vn -0.215289 0.548422 -0.808012
v 0.285033 0.750475 -0.850000
v 0.071371 1.466597 -0.307018
v 0.166523 1.484337 -0.235051
vt 0.142517 0.375238
vt 0.035686 0.733299
vt 0.083262 0.742168
vn 0.392046 0.627231 -0.672965
vn 0.392046 0.627231 -0.672965
vn 0.392046 0.627231 -0.672965
v 0.285033 0.750475 -0.850000
v 0.166523 1.484337 -0.235051
v 0.511585 0.602014 -0.678652
vt 0.375238 -0.425000
vt 0.742168 -0.117526
vt 0.301007 -0.339326
vn 0.705337 0.518742 -0.483122
vn 0.705337 0.518742 -0.483122
vn 0.705337 0.518742 -0.483122
v 0.511585 0.602014 -0.678652
v 0.166523 1.484337 -0.235051
v 0.268049 1.441061 -0.052685
vt 0.301007 -0.339326
vt 0.742168 -0.117526
vt 0.720530 -0.026342
vn 0.808154 0.484456 -0.334948
vn 0.808154 0.484456 -0.334948
vn 0.808154 0.484456 -0.334948
v 0.511585 0.602014 -0.678652
v 0.268049 1.441061 -0.052685
v 0.753314 0.623292 -0.244445
vt 0.301007 -0.339326
vt 0.720530 -0.026342
vt 0.311646 -0.122222
vn 0.727869 0.533063 -0.431337
vn 0.727869 0.533063 -0.431337
vn 0.727869 0.533063 -0.431337
v 0.753314 0.623292 -0.244445
v 0.268049 1.441061 -0.052685
v 0.329657 1.454362 0.064487
vt 0.311646 -0.122222
vt 0.720530 -0.026342
vt 0.727181 0.032244
vn 0.722918 0.532281 -0.440529
vn 0.722918 0.532281 -0.440529
vn 0.722918 0.532281 -0.440529
v 0.753314 0.623292 -0.244445
v 0.329657 1.454362 0.064487
v 0.900000 0.759828 0.034535
vt 0.311646 -0.122222
vt 0.727181 0.032244
vt 0.379914 0.017268
vn 0.615310 0.530432 -0.583126
vn 0.615310 0.530432 -0.583126
vn 0.615310 0.530432 -0.583126
v 0.014325 0.000000 0.073212
v 0.715052 0.000000 0.046929
v 0.693362 0.000000 0.317002
vt 0.007163 0.036606
vt 0.357526 0.023465
vt 0.346681 0.158501
vn 0.000000 -1.000000 0.000000
vn 0.000000 -1.000000 0.000000
vn 0.000000 -1.000000 0.000000
v 0.014325 0.000000 0.073212
v 0.693362 0.000000 0.317002
v 0.347158 0.000000 0.568006
vt 0.007163 0.036606
vt 0.346681 0.158501
vt 0.173579 0.284003
vn 0.000000 -1.000000 0.000000
vn 0.000000 -1.000000 0.000000
vn 0.000000 -1.000000 0.000000
v 0.014325 0.000000 0.073212
v 0.347158 0.000000 0.568006
v 0.217817 0.000000 0.651122
vt 0.007163 0.036606
vt 0.173579 0.284003
vt 0.108909 0.325561
vn 0.000000 -1.000000 0.000000
vn 0.000000 -1.000000 0.000000
vn 0.000000 -1.000000 0.000000
v 0.014325 0.000000 0.073212
v 0.217817 0.000000 0.651122
v -0.172606 0.000000 0.646410
vt 0.007163 0.036606
vt 0.108909 0.325561
vt -0.086303 0.323205
vn 0.000000 -1.000000 0.000000
vn 0.000000 -1.000000 0.000000
vn 0.000000 -1.000000 0.000000
v 0.014325 0.000000 0.073212
v -0.172606 0.000000 0.646410
v -0.369886 0.000000 0.666682
vt 0.007163 0.036606
vt -0.086303 0.323205
vt -0.184943 0.333341
vn 0.000000 -1.000000 0.000000
vn 0.000000 -1.000000 0.000000
vn 0.000000 -1.000000 0.000000
v 0.014325 0.000000 0.073212
v -0.369886 0.000000 0.666682
v -0.652948 0.000000 0.394152
vt 0.007163 0.036606
vt -0.184943 0.333341
vt -0.326474 0.197076
vn 0.000000 -1.000000 0.000000
vn 0.000000 -1.000000 0.000000
vn 0.000000 -1.000000 0.000000
v 0.014325 0.000000 0.073212
v -0.652948 0.000000 0.394152
v -0.579795 0.000000 0.135094
vt 0.007163 0.036606
vt -0.326474 0.197076
vt -0.289897 0.067547
vn 0.000000 -1.000000 0.000000
vn 0.000000 -1.000000 0.000000
vn 0.000000 -1.000000 0.000000
v 0.014325 0.000000 0.073212
v -0.579795 0.000000 0.135094
v -0.607210 0.000000 -0.167759
vt 0.007163 0.036606
vt -0.289897 0.067547
vt -0.303605 -0.083880
vn -0.000000 -1.000000 0.000000
vn -0.000000 -1.000000 0.000000
vn -0.000000 -1.000000 0.000000
v 0.014325 0.000000 0.073212
v -0.607210 0.000000 -0.167759
v -0.474255 0.000000 -0.459376
vt 0.007163 0.036606
vt -0.303605 -0.083880
vt -0.237127 -0.229688
vn 0.000000 -1.000000 0.000000
vn 0.000000 -1.000000 0.000000
vn 0.000000 -1.000000 0.000000
v 0.014325 0.000000 0.073212
v -0.474255 0.000000 -0.459376
v -0.187240 0.000000 -0.487789
vt 0.007163 0.036606
vt -0.237127 -0.229688
vt -0.093620 -0.243895
vn 0.000000 -1.000000 0.000000
vn 0.000000 -1.000000 0.000000
vn 0.000000 -1.000000 0.000000
v 0.014325 0.000000 0.073212
v -0.187240 0.000000 -0.487789
v 0.247677 0.000000 -0.625318
vt 0.007163 0.036606
vt -0.093620 -0.243895
vt 0.123839 -0.312659
vn 0.000000 -1.000000 -0.000000
vn 0.000000 -1.000000 -0.000000
vn 0.000000 -1.000000 -0.000000
v 0.014325 0.000000 0.073212
v 0.247677 0.000000 -0.625318
v 0.419857 0.000000 -0.495093
vt 0.007163 0.036606
vt 0.123839 -0.312659
vt 0.209928 -0.247546
vn 0.000000 -1.000000 0.000000
vn 0.000000 -1.000000 0.000000
vn 0.000000 -1.000000 0.000000
v 0.014325 0.000000 0.073212
v 0.419857 0.000000 -0.495093
v 0.603571 0.000000 -0.165096
vt 0.007163 0.036606
vt 0.209928 -0.247546
vt 0.301785 -0.082548
vn 0.000000 -1.000000 0.000000
vn 0.000000 -1.000000 0.000000
vn 0.000000 -1.000000 0.000000
v 0.014325 0.000000 0.073212
v 0.603571 0.000000 -0.165096
v 0.715052 0.000000 0.046929
vt 0.007163 0.036606
vt 0.301785 -0.082548
vt 0.357526 0.023465
vn 0.000000 -1.000000 0.000000
vn 0.000000 -1.000000 0.000000
vn 0.000000 -1.000000 0.000000
v -0.057586 1.509256 0.079012
v 0.317671 1.550118 0.213738
v 0.329657 1.454362 0.064487
vt -0.028793 0.039506
vt 0.158835 0.106869
vt 0.164829 0.032244
vn 0.099292 0.841114 -0.531665
vn 0.099292 0.841114 -0.531665
vn 0.099292 0.841114 -0.531665
v -0.057586 1.509256 0.079012
v 0.126347 1.543074 0.352450
v 0.317671 1.550118 0.213738
vt -0.028793 0.039506
vt 0.063174 0.176225
vt 0.158835 0.106869
vn -0.084529 0.994226 -0.066099
vn -0.084529 0.994226 -0.066099
vn -0.084529 0.994226 -0.066099
v -0.057586 1.509256 0.079012
v 0.054870 1.546226 0.398383
v 0.126347 1.543074 0.352450
vt -0.028793 0.039506
vt 0.027435 0.199192
vt 0.063174 0.176225
vn -0.024546 0.994018 -0.106422
vn -0.024546 0.994018 -0.106422
vn -0.024546 0.994018 -0.106422
v -0.057586 1.509256 0.079012
v -0.160890 1.594021 0.395779
v 0.054870 1.546226 0.398383
vt -0.028793 0.039506
vt -0.080445 0.197890
vt 0.027435 0.199192
vn 0.214625 0.958715 -0.186552
vn 0.214625 0.958715 -0.186552
vn 0.214625 0.958715 -0.186552
v -0.057586 1.509256 0.079012
v -0.269913 1.408679 0.406982
v -0.160890 1.594021 0.395779
vt 0.754628 0.039506
vt 0.704340 0.203491
vt 0.797010 0.197890
vn -0.805976 0.450916 -0.383506
vn -0.805976 0.450916 -0.383506
vn -0.805976 0.450916 -0.383506
v -0.057586 1.509256 0.079012
v -0.426343 1.423219 0.256373
v -0.269913 1.408679 0.406982
vt -0.028793 0.039506
vt -0.213171 0.128187
vt -0.134957 0.203491
vn -0.120672 0.968276 0.218814
vn -0.120672 0.968276 0.218814
vn -0.120672 0.968276 0.218814
v -0.057586 1.509256 0.079012
v -0.385916 1.479809 0.113210
v -0.426343 1.423219 0.256373
vt -0.028793 0.039506
vt -0.192958 0.056605
vt -0.213171 0.128187
vn -0.046657 0.933403 0.355783
vn -0.046657 0.933403 0.355783
vn -0.046657 0.933403 0.355783
v -0.057586 1.509256 0.079012
v -0.401067 1.568746 -0.054157
v -0.385916 1.479809 0.113210
vt -0.028793 0.039506
vt -0.200533 -0.027078
vt -0.192958 0.056605
vn -0.029989 0.881540 0.471156
vn -0.029989 0.881540 0.471156
vn -0.029989 0.881540 0.471156
v -0.057586 1.509256 0.079012
v -0.327591 1.600000 -0.215313
v -0.401067 1.568746 -0.054157
vt -0.028793 0.039506
vt -0.163796 -0.107657
vt -0.200533 -0.027078
vn 0.080866 0.970957 0.225173
vn 0.080866 0.970957 0.225173
vn 0.080866 0.970957 0.225173
v -0.057586 1.509256 0.079012
v -0.168978 1.569341 -0.231015
v -0.327591 1.600000 -0.215313
vt -0.028793 0.039506
vt -0.084489 -0.115508
vt -0.163796 -0.107657
vn 0.199619 0.972884 0.116826
vn 0.199619 0.972884 0.116826
vn 0.199619 0.972884 0.116826
v -0.057586 1.509256 0.079012
v 0.071371 1.466597 -0.307018
v -0.168978 1.569341 -0.231015
vt -0.028793 0.039506
vt 0.035686 -0.153509
vt -0.084489 -0.115508
vn 0.401672 0.915187 0.033048
vn 0.401672 0.915187 0.033048
vn 0.401672 0.915187 0.033048
v -0.057586 1.509256 0.079012
v 0.166523 1.484337 -0.235051
v 0.071371 1.466597 -0.307018
vt -0.028793 0.039506
vt 0.083262 -0.117526
vt 0.035686 -0.153509
vn -0.081071 0.987359 -0.136194
vn -0.081071 0.987359 -0.136194
vn -0.081071 0.987359 -0.136194
v -0.057586 1.509256 0.079012
v 0.268049 1.441061 -0.052685
v 0.166523 1.484337 -0.235051
vt -0.028793 0.039506
vt 0.134025 -0.026342
vt 0.083262 -0.117526
vn 0.240771 0.965905 0.095169
vn 0.240771 0.965905 0.095169
vn 0.240771 0.965905 0.095169
v -0.057586 1.509256 0.079012
v 0.329657 1.454362 0.064487
v 0.268049 1.441061 -0.052685
vt -0.028793 0.039506
vt 0.164829 0.032244
vt 0.134025 -0.026342
vn 0.131453 0.974884 -0.179784
vn 0.131453 0.974884 -0.179784
vn 0.131453 0.974884 -0.179784
f 1/1/1 2/2/2 3/3/3
f 4/4/4 5/5/5 6/6/6
f 7/7/7 8/8/8 9/9/9
f 10/10/10 11/11/11 12/12/12
f 13/13/13 14/14/14 15/15/15
f 16/16/16 17/17/17 18/18/18
f 19/19/19 20/20/20 21/21/21
f 22/22/22 23/23/23 24/24/24
f 25/25/25 26/26/26 27/27/27
f 28/28/28 29/29/29 30/30/30
f 31/31/31 32/32/32 33/33/33
f 34/34/34 35/35/35 36/36/36
f 37/37/37 38/38/38 39/39/39
f 40/40/40 41/41/41 42/42/42
f 43/43/43 44/44/44 45/45/45
f 46/46/46 47/47/47 48/48/48
f 49/49/49 50/50/50 51/51/51
f 52/52/52 53/53/53 54/54/54
f 55/55/55 56/56/56 57/57/57
f 58/58/58 59/59/59 60/60/60
f 61/61/61 62/62/62 63/63/63
f 64/64/64 65/65/65 66/66/66
f 67/67/67 68/68/68 69/69/69
f 70/70/70 71/71/71 72/72/72
f 73/73/73 74/74/74 75/75/75
f 76/76/76 77/77/77 78/78/78
f 79/79/79 80/80/80 81/81/81
f 82/82/82 83/83/83 84/84/84
f 85/85/85 86/86/86 87/87/87
f 88/88/88 89/89/89 90/90/90
f 91/91/91 92/92/92 93/93/93
f 94/94/94 95/95/95 96/96/96
f 97/97/97 98/98/98 99/99/99
f 100/100/100 101/101/101 102/102/102
f 103/103/103 104/104/104 105/105/105
f 106/106/106 107/107/107 108/108/108
f 109/109/109 110/110/110 111/111/111
f 112/112/112 113/113/113 114/114/114
f 115/115/115 116/116/116 117/117/117
f 118/118/118 119/119/119 120/120/120
f 121/121/121 122/122/122 123/123/123
f 124/124/124 125/125/125 126/126/126
f 127/127/127 128/128/128 129/129/129
f 130/130/130 131/131/131 132/132/132
f 133/133/133 134/134/134 135/135/135
f 136/136/136 137/137/137 138/138/138
f 139/139/139 140/140/140 141/141/141
f 142/142/142 143/143/143 144/144/144
f 145/145/145 146/146/146 147/147/147
f 148/148/148 149/149/149 150/150/150
f 151/151/151 152/152/152 153/153/153
f 154/154/154 155/155/155 156/156/156
f 157/157/157 158/158/158 159/159/159
f 160/160/160 161/161/161 162/162/162
f 163/163/163 164/164/164 165/165/165
f 166/166/166 167/167/167 168/168/168
f 169/169/169 170/170/170 171/171/171
f 172/172/172 173/173/173 174/174/174
f 175/175/175 176/176/176 177/177/177
f 178/178/178 179/179/179 180/180/180
f 181/181/181 182/182/182 183/183/183
f 184/184/184 185/185/185 186/186/186
f 187/187/187 188/188/188 189/189/189
f 190/190/190 191/191/191 192/192/192
f 193/193/193 194/194/194 195/195/195
f 196/196/196 197/197/197 198/198/198
f 199/199/199 200/200/200 201/201/201
f 202/202/202 203/203/203 204/204/204
f 205/205/205 206/206/206 207/207/207
f 208/208/208 209/209/209 210/210/210
f 211/211/211 212/212/212 213/213/213
f 214/214/214 215/215/215 216/216/216
f 217/217/217 218/218/218 219/219/219
f 220/220/220 221/221/221 222/222/222
f 223/223/223 224/224/224 225/225/225
f 226/226/226 227/227/227 228/228/228
f 229/229/229 230/230/230 231/231/231
f 232/232/232 233/233/233 234/234/234
f 235/235/235 236/236/236 237/237/237
f 238/238/238 239/239/239 240/240/240
f 241/241/241 242/242/242 243/243/243
f 244/244/244 245/245/245 246/246/246
f 247/247/247 248/248/248 249/249/249
f 250/250/250 251/251/251 252/252/252
