# metres, Y up, base-centred pivot
mtllib Stone.mtl
o Masso_06_Scheggia
usemtl Stone
s off
v 0.236026 0.000000 0.002256
v 0.338875 0.910645 0.000905
v 0.350000 0.972540 0.202657
vt 0.000000 0.001128
vt 0.455322 0.000452
vt 0.486270 0.101329
vn 0.993473 -0.112233 -0.020351
vn 0.993473 -0.112233 -0.020351
vn 0.993473 -0.112233 -0.020351
v 0.236026 0.000000 0.002256
v 0.350000 0.972540 0.202657
v 0.244481 0.000000 0.155588
vt 0.000000 0.001128
vt 0.486270 0.101329
vt 0.000000 0.077794
vn 0.992955 -0.105084 -0.054754
vn 0.992955 -0.105084 -0.054754
vn 0.992955 -0.105084 -0.054754
v 0.244481 0.000000 0.155588
v 0.350000 0.972540 0.202657
v 0.128470 0.880240 0.325000
vt 0.122241 0.000000
vt 0.175000 0.486270
vt 0.064235 0.440120
vn 0.511783 -0.096842 0.853639
vn 0.511783 -0.096842 0.853639
vn 0.511783 -0.096842 0.853639
v 0.244481 0.000000 0.155588
v 0.128470 0.880240 0.325000
v 0.076119 0.000000 0.248569
vt 0.122241 0.000000
vt 0.064235 0.440120
vt 0.038059 0.000000
vn 0.480808 -0.104191 0.870613
vn 0.480808 -0.104191 0.870613
vn 0.480808 -0.104191 0.870613
v 0.076119 0.000000 0.248569
v 0.128470 0.880240 0.325000
v -0.092008 0.860350 0.280421
vt 0.038059 0.000000
vt 0.064235 0.440120
vt -0.046004 0.430175
vn -0.191262 -0.073612 0.978775
vn -0.191262 -0.073612 0.978775
vn -0.191262 -0.073612 0.978775
v 0.076119 0.000000 0.248569
v -0.092008 0.860350 0.280421
v -0.091445 0.000000 0.214689
vt 0.038059 0.000000
vt -0.046004 0.430175
vt -0.045722 0.000000
vn -0.197628 -0.074806 0.977419
vn -0.197628 -0.074806 0.977419
vn -0.197628 -0.074806 0.977419
v -0.091445 0.000000 0.214689
v -0.092008 0.860350 0.280421
v -0.202763 0.786596 0.210159
vt -0.045722 0.000000
vt -0.046004 0.430175
vt -0.101382 0.393298
vn -0.502714 -0.066181 0.861916
vn -0.502714 -0.066181 0.861916
vn -0.502714 -0.066181 0.861916
v -0.091445 0.000000 0.214689
v -0.202763 0.786596 0.210159
v -0.175619 0.000000 0.161290
vt -0.045722 0.000000
vt -0.101382 0.393298
vt -0.087809 0.000000
vn -0.534341 -0.070770 0.842301
vn -0.534341 -0.070770 0.842301
vn -0.534341 -0.070770 0.842301
v -0.175619 0.000000 0.161290
v -0.202763 0.786596 0.210159
v -0.350000 0.939411 0.023538
vt 0.000000 0.080645
vt 0.393298 0.105080
vt 0.469705 0.011769
vn -0.808369 -0.064251 0.585159
vn -0.808369 -0.064251 0.585159
vn -0.808369 -0.064251 0.585159
v -0.175619 0.000000 0.161290
v -0.350000 0.939411 0.023538
v -0.287519 0.000000 0.019458
vt 0.000000 0.080645
vt 0.469705 0.011769
vt 0.000000 0.009729
vn -0.783899 -0.054824 0.618464
vn -0.783899 -0.054824 0.618464
vn -0.783899 -0.054824 0.618464
v -0.287519 0.000000 0.019458
v -0.350000 0.939411 0.023538
v -0.213323 0.841610 -0.180972
vt 0.000000 0.009729
vt 0.469705 0.011769
vt 0.420805 -0.090486
vn -0.841885 -0.053663 -0.536983
vn -0.841885 -0.053663 -0.536983
vn -0.841885 -0.053663 -0.536983
v -0.287519 0.000000 0.019458
v -0.213323 0.841610 -0.180972
v -0.183644 0.000000 -0.135970
vt 0.000000 0.009729
vt 0.420805 -0.090486
vt 0.000000 -0.067985
vn -0.829972 -0.058928 -0.554684
vn -0.829972 -0.058928 -0.554684
vn -0.829972 -0.058928 -0.554684
v -0.183644 0.000000 -0.135970
v -0.213323 0.841610 -0.180972
v -0.113500 0.979402 -0.319397
vt 0.000000 -0.067985
vt 0.420805 -0.090486
vt 0.489701 -0.159699
vn -0.779899 -0.060812 -0.622944
vn -0.779899 -0.060812 -0.622944
vn -0.779899 -0.060812 -0.622944
v -0.183644 0.000000 -0.135970
v -0.113500 0.979402 -0.319397
v -0.107779 0.000000 -0.241173
vt 0.000000 -0.067985
vt 0.489701 -0.159699
vt 0.000000 -0.120587
vn -0.810028 -0.051386 -0.584136
vn -0.810028 -0.051386 -0.584136
vn -0.810028 -0.051386 -0.584136
v -0.107779 0.000000 -0.241173
v -0.113500 0.979402 -0.319397
v 0.102670 0.898506 -0.325000
vt -0.053889 0.000000
vt -0.056750 0.489701
vt 0.051335 0.449253
vn -0.055664 -0.079815 -0.995254
vn -0.055664 -0.079815 -0.995254
vn -0.055664 -0.079815 -0.995254
v -0.107779 0.000000 -0.241173
v 0.102670 0.898506 -0.325000
v 0.056511 0.000000 -0.245431
vt -0.053889 0.000000
vt 0.051335 0.449253
vt 0.028255 0.000000
vn -0.025812 -0.086866 -0.995886
vn -0.025812 -0.086866 -0.995886
vn -0.025812 -0.086866 -0.995886
v 0.056511 0.000000 -0.245431
v 0.102670 0.898506 -0.325000
v 0.262973 0.795691 -0.194435
vt 0.028255 0.000000
vt 0.051335 0.449253
vt 0.131486 0.397846
vn 0.588424 -0.101268 -0.802186
vn 0.588424 -0.101268 -0.802186
vn 0.588424 -0.101268 -0.802186
v 0.056511 0.000000 -0.245431
v 0.262973 0.795691 -0.194435
v 0.178341 0.000000 -0.146201
vt 0.028255 0.000000
vt 0.131486 0.397846
vt 0.089170 0.000000
vn 0.627447 -0.113434 -0.770353
vn 0.627447 -0.113434 -0.770353
vn 0.627447 -0.113434 -0.770353
v 0.178341 0.000000 -0.146201
v 0.262973 0.795691 -0.194435
v 0.338875 0.910645 0.000905
vt 0.000000 -0.073101
vt 0.397846 -0.097217
vt 0.455322 0.000452
vn 0.947112 -0.118808 -0.298099
vn 0.947112 -0.118808 -0.298099
vn 0.947112 -0.118808 -0.298099
v 0.178341 0.000000 -0.146201
v 0.338875 0.910645 0.000905
v 0.236026 0.000000 0.002256
vt 0.000000 -0.073101
vt 0.455322 0.000452
vt 0.000000 0.001128
vn 0.926932 -0.105223 -0.360174
vn 0.926932 -0.105223 -0.360174
vn 0.926932 -0.105223 -0.360174
v 0.338875 0.910645 0.000905
v 0.113641 1.712356 0.005523
v 0.115644 1.576667 0.041838
vt 0.455322 0.000452
vt 0.856178 0.002762
vt 0.788334 0.020919
vn 0.702950 0.193545 0.684398
vn 0.702950 0.193545 0.684398
vn 0.702950 0.193545 0.684398
v 0.338875 0.910645 0.000905
v 0.115644 1.576667 0.041838
v 0.350000 0.972540 0.202657
vt 0.455322 0.000452
vt 0.788334 0.020919
vt 0.486270 0.101329
vn 0.934542 0.322479 -0.150465
vn 0.934542 0.322479 -0.150465
vn 0.934542 0.322479 -0.150465
v 0.350000 0.972540 0.202657
v 0.115644 1.576667 0.041838
v 0.075768 1.637021 0.063860
vt 0.486270 0.101329
vt 0.788334 0.020919
vt 0.818511 0.031930
vn 0.833388 0.419180 0.360210
vn 0.833388 0.419180 0.360210
vn 0.833388 0.419180 0.360210
v 0.350000 0.972540 0.202657
v 0.075768 1.637021 0.063860
v 0.128470 0.880240 0.325000
vt 0.175000 0.486270
vt 0.037884 0.818511
vt 0.064235 0.440120
vn 0.348640 0.327330 0.878240
vn 0.348640 0.327330 0.878240
vn 0.348640 0.327330 0.878240
v 0.128470 0.880240 0.325000
v 0.075768 1.637021 0.063860
v 0.036082 1.770629 0.055836
vt 0.440120 0.162500
vt 0.818511 0.031930
vt 0.885315 0.027918
vn 0.754732 0.260345 0.602162
vn 0.754732 0.260345 0.602162
vn 0.754732 0.260345 0.602162
v 0.128470 0.880240 0.325000
v 0.036082 1.770629 0.055836
v -0.092008 0.860350 0.280421
vt 0.064235 0.440120
vt 0.018041 0.885315
vt -0.046004 0.430175
vn -0.213921 0.262263 0.940987
vn -0.213921 0.262263 0.940987
vn -0.213921 0.262263 0.940987
v -0.092008 0.860350 0.280421
v 0.036082 1.770629 0.055836
v 0.016146 1.688112 0.043189
vt 0.430175 0.140210
vt 0.885315 0.027918
vt 0.844056 0.021594
vn -0.951389 0.193077 0.239957
vn -0.951389 0.193077 0.239957
vn -0.951389 0.193077 0.239957
v -0.092008 0.860350 0.280421
v 0.016146 1.688112 0.043189
v -0.202763 0.786596 0.210159
vt -0.046004 0.430175
vt 0.008073 0.844056
vt -0.101382 0.393298
vn -0.642232 0.287547 0.710531
vn -0.642232 0.287547 0.710531
vn -0.642232 0.287547 0.710531
v -0.202763 0.786596 0.210159
v 0.016146 1.688112 0.043189
v -0.010356 1.799587 0.009597
vt -0.101382 0.393298
vt 0.008073 0.844056
vt -0.005178 0.899793
vn -0.228556 0.230672 0.945808
vn -0.228556 0.230672 0.945808
vn -0.228556 0.230672 0.945808
v -0.202763 0.786596 0.210159
v -0.010356 1.799587 0.009597
v -0.350000 0.939411 0.023538
vt -0.101382 0.393298
vt -0.005178 0.899793
vt -0.175000 0.469705
vn -0.640007 0.264402 0.721445
vn -0.640007 0.264402 0.721445
vn -0.640007 0.264402 0.721445
v -0.350000 0.939411 0.023538
v -0.010356 1.799587 0.009597
v 0.014245 1.693451 -0.027215
vt -0.175000 0.469705
vt -0.005178 0.899793
vt 0.007123 0.846725
vn -0.493021 0.180879 -0.851007
vn -0.493021 0.180879 -0.851007
vn -0.493021 0.180879 -0.851007
v -0.350000 0.939411 0.023538
v 0.014245 1.693451 -0.027215
v -0.213323 0.841610 -0.180972
vt 0.469705 0.011769
vt 0.846725 -0.013607
vt 0.420805 -0.090486
vn -0.718096 0.304770 -0.625663
vn -0.718096 0.304770 -0.625663
vn -0.718096 0.304770 -0.625663
v -0.213323 0.841610 -0.180972
v 0.014245 1.693451 -0.027215
v 0.032214 1.715586 -0.052131
vt 0.420805 -0.090486
vt 0.846725 -0.013607
vt 0.857793 -0.026066
vn -0.880080 0.301346 -0.366947
vn -0.880080 0.301346 -0.366947
vn -0.880080 0.301346 -0.366947
v -0.213323 0.841610 -0.180972
v 0.032214 1.715586 -0.052131
v -0.113500 0.979402 -0.319397
vt 0.420805 -0.090486
vt 0.857793 -0.026066
vt 0.489701 -0.159699
vn -0.890078 0.300575 -0.342661
vn -0.890078 0.300575 -0.342661
vn -0.890078 0.300575 -0.342661
v -0.113500 0.979402 -0.319397
v 0.032214 1.715586 -0.052131
v 0.071124 1.759509 -0.053140
vt -0.056750 0.489701
vt 0.016107 0.857793
vt 0.035562 0.879755
vn -0.452207 0.382091 -0.805925
vn -0.452207 0.382091 -0.805925
vn -0.452207 0.382091 -0.805925
v -0.113500 0.979402 -0.319397
v 0.071124 1.759509 -0.053140
v 0.102670 0.898506 -0.325000
vt -0.056750 0.489701
vt 0.035562 0.879755
vt 0.051335 0.449253
vn 0.088746 0.302863 -0.948893
vn 0.088746 0.302863 -0.948893
vn 0.088746 0.302863 -0.948893
v 0.102670 0.898506 -0.325000
v 0.071124 1.759509 -0.053140
v 0.099979 1.800000 -0.029638
vt 0.051335 0.449253
vt 0.035562 0.879755
vt 0.049989 0.900000
vn 0.318152 0.296031 -0.900636
vn 0.318152 0.296031 -0.900636
vn 0.318152 0.296031 -0.900636
v 0.102670 0.898506 -0.325000
v 0.099979 1.800000 -0.029638
v 0.262973 0.795691 -0.194435
vt 0.449253 -0.162500
vt 0.900000 -0.014819
vt 0.397846 -0.097217
vn 0.697983 0.224844 -0.679900
vn 0.697983 0.224844 -0.679900
vn 0.697983 0.224844 -0.679900
v 0.262973 0.795691 -0.194435
v 0.099979 1.800000 -0.029638
v 0.113641 1.712356 0.005523
vt 0.397846 -0.097217
vt 0.900000 -0.014819
vt 0.856178 0.002762
vn 0.987312 0.158398 0.011196
vn 0.987312 0.158398 0.011196
vn 0.987312 0.158398 0.011196
v 0.262973 0.795691 -0.194435
v 0.113641 1.712356 0.005523
v 0.338875 0.910645 0.000905
vt 0.397846 -0.097217
vt 0.856178 0.002762
vt 0.455322 0.000452
vn 0.848303 0.241039 -0.471469
vn 0.848303 0.241039 -0.471469
vn 0.848303 0.241039 -0.471469
v -0.005453 0.000000 0.003307
v 0.236026 0.000000 0.002256
v 0.244481 0.000000 0.155588
vt -0.002726 0.001654
vt 0.118013 0.001128
vt 0.122241 0.077794
vn 0.000000 -1.000000 0.000000
vn 0.000000 -1.000000 0.000000
vn 0.000000 -1.000000 0.000000
v -0.005453 0.000000 0.003307
v 0.244481 0.000000 0.155588
v 0.076119 0.000000 0.248569
vt -0.002726 0.001654
vt 0.122241 0.077794
vt 0.038059 0.124284
vn 0.000000 -1.000000 0.000000
vn 0.000000 -1.000000 0.000000
vn 0.000000 -1.000000 0.000000
v -0.005453 0.000000 0.003307
v 0.076119 0.000000 0.248569
v -0.091445 0.000000 0.214689
vt -0.002726 0.001654
vt 0.038059 0.124284
vt -0.045722 0.107344
vn 0.000000 -1.000000 0.000000
vn 0.000000 -1.000000 0.000000
vn 0.000000 -1.000000 0.000000
v -0.005453 0.000000 0.003307
v -0.091445 0.000000 0.214689
v -0.175619 0.000000 0.161290
vt -0.002726 0.001654
vt -0.045722 0.107344
vt -0.087809 0.080645
vn 0.000000 -1.000000 0.000000
vn 0.000000 -1.000000 0.000000
vn 0.000000 -1.000000 0.000000
v -0.005453 0.000000 0.003307
v -0.175619 0.000000 0.161290
v -0.287519 0.000000 0.019458
vt -0.002726 0.001654
vt -0.087809 0.080645
vt -0.143759 0.009729
vn 0.000000 -1.000000 0.000000
vn 0.000000 -1.000000 0.000000
vn 0.000000 -1.000000 0.000000
v -0.005453 0.000000 0.003307
v -0.287519 0.000000 0.019458
v -0.183644 0.000000 -0.135970
vt -0.002726 0.001654
vt -0.143759 0.009729
vt -0.091822 -0.067985
vn -0.000000 -1.000000 0.000000
vn -0.000000 -1.000000 0.000000
vn -0.000000 -1.000000 0.000000
v -0.005453 0.000000 0.003307
v -0.183644 0.000000 -0.135970
v -0.107779 0.000000 -0.241173
vt -0.002726 0.001654
vt -0.091822 -0.067985
vt -0.053889 -0.120587
vn 0.000000 -1.000000 0.000000
vn 0.000000 -1.000000 0.000000
vn 0.000000 -1.000000 0.000000
v -0.005453 0.000000 0.003307
v -0.107779 0.000000 -0.241173
v 0.056511 0.000000 -0.245431
vt -0.002726 0.001654
vt -0.053889 -0.120587
vt 0.028255 -0.122716
vn 0.000000 -1.000000 -0.000000
vn 0.000000 -1.000000 -0.000000
vn 0.000000 -1.000000 -0.000000
v -0.005453 0.000000 0.003307
v 0.056511 0.000000 -0.245431
v 0.178341 0.000000 -0.146201
vt -0.002726 0.001654
vt 0.028255 -0.122716
vt 0.089170 -0.073101
vn 0.000000 -1.000000 0.000000
vn 0.000000 -1.000000 0.000000
vn 0.000000 -1.000000 0.000000
v -0.005453 0.000000 0.003307
v 0.178341 0.000000 -0.146201
v 0.236026 0.000000 0.002256
vt -0.002726 0.001654
vt 0.089170 -0.073101
vt 0.118013 0.001128
vn 0.000000 -1.000000 0.000000
vn 0.000000 -1.000000 0.000000
vn 0.000000 -1.000000 0.000000
v 0.056449 1.715292 0.005772
v 0.115644 1.576667 0.041838
v 0.113641 1.712356 0.005523
vt 0.028224 0.857646
vt 0.057822 0.788334
vt 0.056821 0.856178
vn 0.017486 0.258740 0.965789
vn 0.017486 0.258740 0.965789
vn 0.017486 0.258740 0.965789
v 0.056449 1.715292 0.005772
v 0.075768 1.637021 0.063860
v 0.115644 1.576667 0.041838
vt 0.857646 0.002886
vt 0.818511 0.031930
vt 0.788334 0.020919
vn 0.840771 0.440801 0.314323
vn 0.840771 0.440801 0.314323
vn 0.840771 0.440801 0.314323
v 0.056449 1.715292 0.005772
v 0.036082 1.770629 0.055836
v 0.075768 1.637021 0.063860
vt 0.857646 0.002886
vt 0.885315 0.027918
vt 0.818511 0.031930
vn 0.955074 0.287910 0.070296
vn 0.955074 0.287910 0.070296
vn 0.955074 0.287910 0.070296
v 0.056449 1.715292 0.005772
v 0.016146 1.688112 0.043189
v 0.036082 1.770629 0.055836
vt 0.857646 0.002886
vt 0.844056 0.021594
vt 0.885315 0.027918
vn -0.746992 0.273357 -0.606035
vn -0.746992 0.273357 -0.606035
vn -0.746992 0.273357 -0.606035
v 0.056449 1.715292 0.005772
v -0.010356 1.799587 0.009597
v 0.016146 1.688112 0.043189
vt 0.028224 0.857646
vt -0.005178 0.899793
vt 0.008073 0.844056
vn 0.495167 0.356475 0.792297
vn 0.495167 0.356475 0.792297
vn 0.495167 0.356475 0.792297
v 0.056449 1.715292 0.005772
v 0.014245 1.693451 -0.027215
v -0.010356 1.799587 0.009597
vt 0.028224 0.857646
vt 0.007123 0.846725
vt -0.005178 0.899793
vn 0.437325 0.383498 -0.813435
vn 0.437325 0.383498 -0.813435
vn 0.437325 0.383498 -0.813435
v 0.056449 1.715292 0.005772
v 0.032214 1.715586 -0.052131
v 0.014245 1.693451 -0.027215
vt 0.028224 0.002886
vt 0.016107 -0.026066
vt 0.007123 -0.013607
vn -0.592819 0.764892 0.252002
vn -0.592819 0.764892 0.252002
vn -0.592819 0.764892 0.252002
v 0.056449 1.715292 0.005772
v 0.071124 1.759509 -0.053140
v 0.032214 1.715586 -0.052131
vt 0.857646 0.002886
vt 0.879755 -0.026570
vt 0.857793 -0.026066
vn -0.710477 0.636290 0.300595
vn -0.710477 0.636290 0.300595
vn -0.710477 0.636290 0.300595
v 0.056449 1.715292 0.005772
v 0.099979 1.800000 -0.029638
v 0.071124 1.759509 -0.053140
vt 0.857646 0.002886
vt 0.900000 -0.014819
vt 0.879755 -0.026570
vn -0.846323 0.505331 0.168460
vn -0.846323 0.505331 0.168460
vn -0.846323 0.505331 0.168460
v 0.056449 1.715292 0.005772
v 0.113641 1.712356 0.005523
v 0.099979 1.800000 -0.029638
vt 0.028224 0.857646
vt 0.056821 0.856178
vt 0.049989 0.900000
vn 0.023302 0.375360 0.926586
vn 0.023302 0.375360 0.926586
vn 0.023302 0.375360 0.926586
f 1/1/1 2/2/2 3/3/3
f 4/4/4 5/5/5 6/6/6
f 7/7/7 8/8/8 9/9/9
f 10/10/10 11/11/11 12/12/12
f 13/13/13 14/14/14 15/15/15
f 16/16/16 17/17/17 18/18/18
f 19/19/19 20/20/20 21/21/21
f 22/22/22 23/23/23 24/24/24
f 25/25/25 26/26/26 27/27/27
f 28/28/28 29/29/29 30/30/30
f 31/31/31 32/32/32 33/33/33
f 34/34/34 35/35/35 36/36/36
f 37/37/37 38/38/38 39/39/39
f 40/40/40 41/41/41 42/42/42
f 43/43/43 44/44/44 45/45/45
f 46/46/46 47/47/47 48/48/48
f 49/49/49 50/50/50 51/51/51
f 52/52/52 53/53/53 54/54/54
f 55/55/55 56/56/56 57/57/57
f 58/58/58 59/59/59 60/60/60
f 61/61/61 62/62/62 63/63/63
f 64/64/64 65/65/65 66/66/66
f 67/67/67 68/68/68 69/69/69
f 70/70/70 71/71/71 72/72/72
f 73/73/73 74/74/74 75/75/75
f 76/76/76 77/77/77 78/78/78
f 79/79/79 80/80/80 81/81/81
f 82/82/82 83/83/83 84/84/84
f 85/85/85 86/86/86 87/87/87
f 88/88/88 89/89/89 90/90/90
f 91/91/91 92/92/92 93/93/93
f 94/94/94 95/95/95 96/96/96
f 97/97/97 98/98/98 99/99/99
f 100/100/100 101/101/101 102/102/102
f 103/103/103 104/104/104 105/105/105
f 106/106/106 107/107/107 108/108/108
f 109/109/109 110/110/110 111/111/111
f 112/112/112 113/113/113 114/114/114
f 115/115/115 116/116/116 117/117/117
f 118/118/118 119/119/119 120/120/120
f 121/121/121 122/122/122 123/123/123
f 124/124/124 125/125/125 126/126/126
f 127/127/127 128/128/128 129/129/129
f 130/130/130 131/131/131 132/132/132
f 133/133/133 134/134/134 135/135/135
f 136/136/136 137/137/137 138/138/138
f 139/139/139 140/140/140 141/141/141
f 142/142/142 143/143/143 144/144/144
f 145/145/145 146/146/146 147/147/147
f 148/148/148 149/149/149 150/150/150
f 151/151/151 152/152/152 153/153/153
f 154/154/154 155/155/155 156/156/156
f 157/157/157 158/158/158 159/159/159
f 160/160/160 161/161/161 162/162/162
f 163/163/163 164/164/164 165/165/165
f 166/166/166 167/167/167 168/168/168
f 169/169/169 170/170/170 171/171/171
f 172/172/172 173/173/173 174/174/174
f 175/175/175 176/176/176 177/177/177
f 178/178/178 179/179/179 180/180/180
