# metres, Y up, base-centred pivot
mtllib Stone.mtl
o Masso_04_Cuneo
usemtl Stone
s off
v 0.618912 0.000000 0.011692
v 0.950000 0.436103 0.008356
v 0.782763 0.598143 0.467593
vt 0.000000 0.005846
vt 0.218052 0.004178
vt 0.299071 0.233796
vn 0.713120 -0.537961 0.449508
vn 0.713120 -0.537961 0.449508
vn 0.713120 -0.537961 0.449508
v 0.618912 0.000000 0.011692
v 0.782763 0.598143 0.467593
v 0.491812 0.000000 0.360712
vt 0.000000 0.005846
vt 0.299071 0.233796
vt 0.000000 0.180356
vn 0.834272 -0.460098 0.303810
vn 0.834272 -0.460098 0.303810
vn 0.834272 -0.460098 0.303810
v 0.491812 0.000000 0.360712
v 0.782763 0.598143 0.467593
v 0.378843 0.571049 0.664189
vt 0.245906 0.000000
vt 0.391382 0.299071
vt 0.189421 0.285524
vn 0.428092 -0.356617 0.830399
vn 0.428092 -0.356617 0.830399
vn 0.428092 -0.356617 0.830399
v 0.491812 0.000000 0.360712
v 0.378843 0.571049 0.664189
v 0.184832 0.000000 0.510125
vt 0.245906 0.000000
vt 0.189421 0.285524
vt 0.092416 0.000000
vn 0.407549 -0.364370 0.837340
vn 0.407549 -0.364370 0.837340
vn 0.407549 -0.364370 0.837340
v 0.184832 0.000000 0.510125
v 0.378843 0.571049 0.664189
v -0.281689 0.481142 0.675000
vt 0.092416 0.000000
vt 0.189421 0.285524
vt -0.140844 0.240571
vn 0.053403 -0.276979 0.959391
vn 0.053403 -0.276979 0.959391
vn 0.053403 -0.276979 0.959391
v 0.184832 0.000000 0.510125
v -0.281689 0.481142 0.675000
v -0.317172 0.000000 0.518341
vt 0.092416 0.000000
vt -0.140844 0.240571
vt -0.158586 0.000000
vn 0.015556 -0.310600 0.950413
vn 0.015556 -0.310600 0.950413
vn 0.015556 -0.310600 0.950413
v -0.317172 0.000000 0.518341
v -0.281689 0.481142 0.675000
v -0.748759 0.478669 0.353021
vt -0.158586 0.000000
vt -0.140844 0.240571
vt -0.374380 0.239335
vn -0.552758 -0.220866 0.803540
vn -0.552758 -0.220866 0.803540
vn -0.552758 -0.220866 0.803540
v -0.317172 0.000000 0.518341
v -0.748759 0.478669 0.353021
v -0.672145 0.000000 0.273637
vt -0.158586 0.000000
vt -0.374380 0.239335
vt -0.336073 0.000000
vn -0.553440 -0.221725 0.802833
vn -0.553440 -0.221725 0.802833
vn -0.553440 -0.221725 0.802833
v -0.672145 0.000000 0.273637
v -0.748759 0.478669 0.353021
v -0.950000 0.434522 -0.019649
vt 0.000000 0.136819
vt 0.239335 0.176510
vt 0.217261 -0.009825
vn -0.848217 -0.215967 0.483618
vn -0.848217 -0.215967 0.483618
vn -0.848217 -0.215967 0.483618
v -0.672145 0.000000 0.273637
v -0.950000 0.434522 -0.019649
v -0.825088 0.000000 -0.009592
vt 0.000000 0.136819
vt 0.217261 -0.009825
vt 0.000000 -0.004796
vn -0.855230 -0.235163 0.461822
vn -0.855230 -0.235163 0.461822
vn -0.855230 -0.235163 0.461822
v -0.825088 0.000000 -0.009592
v -0.950000 0.434522 -0.019649
v -0.721858 0.609701 -0.304158
vt 0.000000 -0.004796
vt 0.217261 -0.009825
vt 0.304850 -0.152079
vn -0.692959 -0.215131 -0.688133
vn -0.692959 -0.215131 -0.688133
vn -0.692959 -0.215131 -0.688133
v -0.825088 0.000000 -0.009592
v -0.721858 0.609701 -0.304158
v -0.651700 0.000000 -0.225818
vt 0.000000 -0.004796
vt 0.304850 -0.152079
vt 0.000000 -0.112909
vn -0.769098 -0.167741 -0.616726
vn -0.769098 -0.167741 -0.616726
vn -0.769098 -0.167741 -0.616726
v -0.651700 0.000000 -0.225818
v -0.721858 0.609701 -0.304158
v -0.178714 0.594895 -0.557043
vt -0.325850 0.000000
vt -0.360929 0.304850
vt -0.089357 0.297447
vn -0.420090 -0.163042 -0.892716
vn -0.420090 -0.163042 -0.892716
vn -0.420090 -0.163042 -0.892716
v -0.651700 0.000000 -0.225818
v -0.178714 0.594895 -0.557043
v -0.238911 0.000000 -0.418011
vt -0.325850 0.000000
vt -0.089357 0.297447
vt -0.119456 0.000000
vn -0.416176 -0.166789 -0.893856
vn -0.416176 -0.166789 -0.893856
vn -0.416176 -0.166789 -0.893856
v -0.238911 0.000000 -0.418011
v -0.178714 0.594895 -0.557043
v 0.268955 0.506537 -0.675000
vt -0.119456 0.000000
vt -0.089357 0.297447
vt 0.134477 0.253269
vn -0.285139 -0.190676 -0.939329
vn -0.285139 -0.190676 -0.939329
vn -0.285139 -0.190676 -0.939329
v -0.238911 0.000000 -0.418011
v 0.268955 0.506537 -0.675000
v 0.101317 0.000000 -0.507659
vt -0.119456 0.000000
vt 0.134477 0.253269
vt 0.050659 0.000000
vn -0.248030 -0.228893 -0.941323
vn -0.248030 -0.228893 -0.941323
vn -0.248030 -0.228893 -0.941323
v 0.101317 0.000000 -0.507659
v 0.268955 0.506537 -0.675000
v 0.716588 0.616103 -0.415570
vt 0.050659 0.000000
vt 0.134477 0.253269
vt 0.358294 0.308052
vn 0.529888 -0.418960 -0.737354
vn 0.529888 -0.418960 -0.737354
vn 0.529888 -0.418960 -0.737354
v 0.101317 0.000000 -0.507659
v 0.716588 0.616103 -0.415570
v 0.441519 0.000000 -0.310492
vt 0.050659 0.000000
vt 0.358294 0.308052
vt 0.220759 0.000000
vn 0.470055 -0.348192 -0.811056
vn 0.470055 -0.348192 -0.811056
vn 0.470055 -0.348192 -0.811056
v 0.441519 0.000000 -0.310492
v 0.716588 0.616103 -0.415570
v 0.950000 0.436103 0.008356
vt 0.000000 -0.155246
vt 0.308052 -0.207785
vt 0.218052 0.004178
vn 0.711370 -0.414415 -0.567639
vn 0.711370 -0.414415 -0.567639
vn 0.711370 -0.414415 -0.567639
v 0.441519 0.000000 -0.310492
v 0.950000 0.436103 0.008356
v 0.618912 0.000000 0.011692
vt 0.000000 -0.155246
vt 0.218052 0.004178
vt 0.000000 0.005846
vn 0.728174 -0.555894 -0.400929
vn 0.728174 -0.555894 -0.400929
vn 0.728174 -0.555894 -0.400929
v 0.950000 0.436103 0.008356
v 0.313607 1.389863 0.020171
v 0.288521 1.292655 0.089056
vt 0.475000 0.218052
vt 0.156803 0.694931
vt 0.144261 0.646327
vn 0.570622 0.371675 0.732289
vn 0.570622 0.371675 0.732289
vn 0.570622 0.371675 0.732289
v 0.950000 0.436103 0.008356
v 0.288521 1.292655 0.089056
v 0.782763 0.598143 0.467593
vt 0.218052 0.004178
vt 0.646327 0.044528
vt 0.299071 0.233796
vn 0.792639 0.605040 0.075163
vn 0.792639 0.605040 0.075163
vn 0.792639 0.605040 0.075163
v 0.782763 0.598143 0.467593
v 0.288521 1.292655 0.089056
v 0.227933 1.292587 0.118546
vt 0.391382 0.299071
vt 0.144261 0.646327
vt 0.113967 0.646293
vn 0.340971 0.625261 0.701989
vn 0.340971 0.625261 0.701989
vn 0.340971 0.625261 0.701989
v 0.782763 0.598143 0.467593
v 0.227933 1.292587 0.118546
v 0.378843 0.571049 0.664189
vt 0.391382 0.299071
vt 0.113967 0.646293
vt 0.189421 0.285524
vn 0.311858 0.613726 0.725317
vn 0.311858 0.613726 0.725317
vn 0.311858 0.613726 0.725317
v 0.378843 0.571049 0.664189
v 0.227933 1.292587 0.118546
v 0.128853 1.383357 0.120167
vt 0.189421 0.285524
vt 0.113967 0.646293
vt 0.064427 0.691678
vn 0.538629 0.576969 0.613992
vn 0.538629 0.576969 0.613992
vn 0.538629 0.576969 0.613992
v 0.378843 0.571049 0.664189
v 0.128853 1.383357 0.120167
v -0.281689 0.481142 0.675000
vt 0.189421 0.285524
vt 0.064427 0.691678
vt -0.140844 0.240571
vn -0.060143 0.542606 0.837831
vn -0.060143 0.542606 0.837831
vn -0.060143 0.542606 0.837831
v -0.281689 0.481142 0.675000
v 0.128853 1.383357 0.120167
v 0.058793 1.400000 0.071870
vt -0.140844 0.240571
vt 0.064427 0.691678
vt 0.029396 0.700000
vn -0.351750 0.601272 0.717457
vn -0.351750 0.601272 0.717457
vn -0.351750 0.601272 0.717457
v -0.281689 0.481142 0.675000
v 0.058793 1.400000 0.071870
v -0.748759 0.478669 0.353021
vt -0.140844 0.240571
vt 0.029396 0.700000
vt -0.374380 0.239335
vn -0.456095 0.600261 0.657012
vn -0.456095 0.600261 0.657012
vn -0.456095 0.600261 0.657012
v -0.748759 0.478669 0.353021
v 0.058793 1.400000 0.071870
v 0.028607 1.339263 0.015970
vt 0.239335 0.176510
vt 0.700000 0.035935
vt 0.669632 0.007985
vn -0.765294 0.598467 -0.236986
vn -0.765294 0.598467 -0.236986
vn -0.765294 0.598467 -0.236986
v -0.748759 0.478669 0.353021
v 0.028607 1.339263 0.015970
v -0.950000 0.434522 -0.019649
vt -0.374380 0.176510
vt 0.014303 0.007985
vt -0.475000 -0.009825
vn -0.658493 0.701527 0.272481
vn -0.658493 0.701527 0.272481
vn -0.658493 0.701527 0.272481
v -0.950000 0.434522 -0.019649
v 0.028607 1.339263 0.015970
v 0.062828 1.365091 -0.026706
vt -0.475000 -0.009825
vt 0.014303 0.007985
vt 0.031414 -0.013353
vn -0.673752 0.732574 -0.096920
vn -0.673752 0.732574 -0.096920
vn -0.673752 0.732574 -0.096920
v -0.950000 0.434522 -0.019649
v 0.062828 1.365091 -0.026706
v -0.721858 0.609701 -0.304158
vt -0.475000 -0.009825
vt 0.031414 -0.013353
vt -0.360929 -0.152079
vn -0.674209 0.733130 -0.089230
vn -0.674209 0.733130 -0.089230
vn -0.674209 0.733130 -0.089230
v -0.721858 0.609701 -0.304158
v 0.062828 1.365091 -0.026706
v 0.144300 1.312708 -0.064639
vt -0.360929 0.304850
vt 0.031414 0.682545
vt 0.072150 0.656354
vn -0.121627 0.451089 -0.884152
vn -0.121627 0.451089 -0.884152
vn -0.121627 0.451089 -0.884152
v -0.721858 0.609701 -0.304158
v 0.144300 1.312708 -0.064639
v -0.178714 0.594895 -0.557043
vt -0.360929 0.304850
vt 0.072150 0.656354
vt -0.089357 0.297447
vn -0.313945 0.629086 -0.711119
vn -0.313945 0.629086 -0.711119
vn -0.313945 0.629086 -0.711119
v -0.178714 0.594895 -0.557043
v 0.144300 1.312708 -0.064639
v 0.211450 1.391632 -0.082333
vt 0.297447 -0.278522
vt 0.656354 -0.032320
vt 0.695816 -0.041166
vn -0.753867 0.566978 -0.331995
vn -0.753867 0.566978 -0.331995
vn -0.753867 0.566978 -0.331995
v -0.178714 0.594895 -0.557043
v 0.211450 1.391632 -0.082333
v 0.268955 0.506537 -0.675000
vt -0.089357 0.297447
vt 0.105725 0.695816
vt 0.134477 0.253269
vn -0.110306 0.548038 -0.829148
vn -0.110306 0.548038 -0.829148
vn -0.110306 0.548038 -0.829148
v 0.268955 0.506537 -0.675000
v 0.211450 1.391632 -0.082333
v 0.278595 1.263920 -0.043418
vt 0.253269 -0.337500
vt 0.695816 -0.041166
vt 0.631960 -0.021709
vn 0.854570 0.326146 -0.404152
vn 0.854570 0.326146 -0.404152
vn 0.854570 0.326146 -0.404152
v 0.268955 0.506537 -0.675000
v 0.278595 1.263920 -0.043418
v 0.716588 0.616103 -0.415570
vt 0.134477 0.253269
vt 0.139297 0.631960
vt 0.358294 0.308052
vn 0.278463 0.613017 -0.739370
vn 0.278463 0.613017 -0.739370
vn 0.278463 0.613017 -0.739370
v 0.716588 0.616103 -0.415570
v 0.278595 1.263920 -0.043418
v 0.313607 1.389863 0.020171
vt 0.358294 0.308052
vt 0.139297 0.631960
vt 0.156803 0.694931
vn -0.064418 0.463989 -0.883496
vn -0.064418 0.463989 -0.883496
vn -0.064418 0.463989 -0.883496
v 0.716588 0.616103 -0.415570
v 0.313607 1.389863 0.020171
v 0.950000 0.436103 0.008356
vt 0.308052 -0.207785
vt 0.694931 0.010085
vt 0.218052 0.004178
vn 0.811022 0.543823 -0.215637
vn 0.811022 0.543823 -0.215637
vn 0.811022 0.543823 -0.215637
v -0.086663 0.000000 0.020293
v 0.618912 0.000000 0.011692
v 0.491812 0.000000 0.360712
vt -0.043331 0.010147
vt 0.309456 0.005846
vt 0.245906 0.180356
vn 0.000000 -1.000000 0.000000
vn 0.000000 -1.000000 0.000000
vn 0.000000 -1.000000 0.000000
v -0.086663 0.000000 0.020293
v 0.491812 0.000000 0.360712
v 0.184832 0.000000 0.510125
vt -0.043331 0.010147
vt 0.245906 0.180356
vt 0.092416 0.255062
vn 0.000000 -1.000000 0.000000
vn 0.000000 -1.000000 0.000000
vn 0.000000 -1.000000 0.000000
v -0.086663 0.000000 0.020293
v 0.184832 0.000000 0.510125
v -0.317172 0.000000 0.518341
vt -0.043331 0.010147
vt 0.092416 0.255062
vt -0.158586 0.259171
vn 0.000000 -1.000000 0.000000
vn 0.000000 -1.000000 0.000000
vn 0.000000 -1.000000 0.000000
v -0.086663 0.000000 0.020293
v -0.317172 0.000000 0.518341
v -0.672145 0.000000 0.273637
vt -0.043331 0.010147
vt -0.158586 0.259171
vt -0.336073 0.136819
vn 0.000000 -1.000000 0.000000
vn 0.000000 -1.000000 0.000000
vn 0.000000 -1.000000 0.000000
v -0.086663 0.000000 0.020293
v -0.672145 0.000000 0.273637
v -0.825088 0.000000 -0.009592
vt -0.043331 0.010147
vt -0.336073 0.136819
vt -0.412544 -0.004796
vn -0.000000 -1.000000 0.000000
vn -0.000000 -1.000000 0.000000
vn -0.000000 -1.000000 0.000000
v -0.086663 0.000000 0.020293
v -0.825088 0.000000 -0.009592
v -0.651700 0.000000 -0.225818
vt -0.043331 0.010147
vt -0.412544 -0.004796
vt -0.325850 -0.112909
vn 0.000000 -1.000000 0.000000
vn 0.000000 -1.000000 0.000000
vn 0.000000 -1.000000 0.000000
v -0.086663 0.000000 0.020293
v -0.651700 0.000000 -0.225818
v -0.238911 0.000000 -0.418011
vt -0.043331 0.010147
vt -0.325850 -0.112909
vt -0.119456 -0.209006
vn 0.000000 -1.000000 0.000000
vn 0.000000 -1.000000 0.000000
vn 0.000000 -1.000000 0.000000
v -0.086663 0.000000 0.020293
v -0.238911 0.000000 -0.418011
v 0.101317 0.000000 -0.507659
vt -0.043331 0.010147
vt -0.119456 -0.209006
vt 0.050659 -0.253829
vn 0.000000 -1.000000 -0.000000
vn 0.000000 -1.000000 -0.000000
vn 0.000000 -1.000000 -0.000000
v -0.086663 0.000000 0.020293
v 0.101317 0.000000 -0.507659
v 0.441519 0.000000 -0.310492
vt -0.043331 0.010147
vt 0.050659 -0.253829
vt 0.220759 -0.155246
vn 0.000000 -1.000000 0.000000
vn 0.000000 -1.000000 0.000000
vn 0.000000 -1.000000 0.000000
v -0.086663 0.000000 0.020293
v 0.441519 0.000000 -0.310492
v 0.618912 0.000000 0.011692
vt -0.043331 0.010147
vt 0.220759 -0.155246
vt 0.309456 0.005846
vn 0.000000 -1.000000 0.000000
vn 0.000000 -1.000000 0.000000
vn 0.000000 -1.000000 0.000000
v 0.174349 1.343107 0.021868
v 0.288521 1.292655 0.089056
v 0.313607 1.389863 0.020171
vt 0.087174 0.671554
vt 0.144261 0.646327
vt 0.156803 0.694931
vn -0.191953 0.599927 0.776686
vn -0.191953 0.599927 0.776686
vn -0.191953 0.599927 0.776686
v 0.174349 1.343107 0.021868
v 0.227933 1.292587 0.118546
v 0.288521 1.292655 0.089056
vt 0.087174 0.010934
vt 0.113967 0.059273
vt 0.144261 0.044528
vn 0.181330 0.909262 0.374650
vn 0.181330 0.909262 0.374650
vn 0.181330 0.909262 0.374650
v 0.174349 1.343107 0.021868
v 0.128853 1.383357 0.120167
v 0.227933 1.292587 0.118546
vt 0.087174 0.010934
vt 0.064427 0.060084
vt 0.113967 0.059273
vn 0.675567 0.737220 0.010809
vn 0.675567 0.737220 0.010809
vn 0.675567 0.737220 0.010809
v 0.174349 1.343107 0.021868
v 0.058793 1.400000 0.071870
v 0.128853 1.383357 0.120167
vt 0.087174 0.010934
vt 0.029396 0.035935
vt 0.064427 0.060084
vn 0.358724 0.910272 -0.206691
vn 0.358724 0.910272 -0.206691
vn 0.358724 0.910272 -0.206691
v 0.174349 1.343107 0.021868
v 0.028607 1.339263 0.015970
v 0.058793 1.400000 0.071870
vt 0.087174 0.671554
vt 0.014303 0.669632
vt 0.029396 0.700000
vn 0.012123 0.673887 -0.738735
vn 0.012123 0.673887 -0.738735
vn 0.012123 0.673887 -0.738735
v 0.174349 1.343107 0.021868
v 0.062828 1.365091 -0.026706
v 0.028607 1.339263 0.015970
vt 0.087174 0.010934
vt 0.031414 -0.013353
vt 0.014303 0.007985
vn -0.042845 0.869589 0.491913
vn -0.042845 0.869589 0.491913
vn -0.042845 0.869589 0.491913
v 0.174349 1.343107 0.021868
v 0.144300 1.312708 -0.064639
v 0.062828 1.365091 -0.026706
vt 0.087174 0.010934
vt 0.072150 -0.032320
vt 0.031414 -0.013353
vn 0.346866 0.840660 -0.415901
vn 0.346866 0.840660 -0.415901
vn 0.346866 0.840660 -0.415901
v 0.174349 1.343107 0.021868
v 0.211450 1.391632 -0.082333
v 0.144300 1.312708 -0.064639
vt 0.671554 0.010934
vt 0.695816 -0.041166
vt 0.656354 -0.032320
vn -0.757420 0.652044 0.033963
vn -0.757420 0.652044 0.033963
vn -0.757420 0.652044 0.033963
v 0.174349 1.343107 0.021868
v 0.278595 1.263920 -0.043418
v 0.211450 1.391632 -0.082333
vt 0.671554 0.010934
vt 0.631960 -0.021709
vt 0.695816 -0.041166
vn 0.700715 0.517914 0.490676
vn 0.700715 0.517914 0.490676
vn 0.700715 0.517914 0.490676
v 0.174349 1.343107 0.021868
v 0.313607 1.389863 0.020171
v 0.278595 1.263920 -0.043418
vt 0.087174 0.671554
vt 0.156803 0.694931
vt 0.139297 0.631960
vn -0.172206 0.481709 -0.859245
vn -0.172206 0.481709 -0.859245
vn -0.172206 0.481709 -0.859245
f 1/1/1 2/2/2 3/3/3
f 4/4/4 5/5/5 6/6/6
f 7/7/7 8/8/8 9/9/9
f 10/10/10 11/11/11 12/12/12
f 13/13/13 14/14/14 15/15/15
f 16/16/16 17/17/17 18/18/18
f 19/19/19 20/20/20 21/21/21
f 22/22/22 23/23/23 24/24/24
f 25/25/25 26/26/26 27/27/27
f 28/28/28 29/29/29 30/30/30
f 31/31/31 32/32/32 33/33/33
f 34/34/34 35/35/35 36/36/36
f 37/37/37 38/38/38 39/39/39
f 40/40/40 41/41/41 42/42/42
f 43/43/43 44/44/44 45/45/45
f 46/46/46 47/47/47 48/48/48
f 49/49/49 50/50/50 51/51/51
f 52/52/52 53/53/53 54/54/54
f 55/55/55 56/56/56 57/57/57
f 58/58/58 59/59/59 60/60/60
f 61/61/61 62/62/62 63/63/63
f 64/64/64 65/65/65 66/66/66
f 67/67/67 68/68/68 69/69/69
f 70/70/70 71/71/71 72/72/72
f 73/73/73 74/74/74 75/75/75
f 76/76/76 77/77/77 78/78/78
f 79/79/79 80/80/80 81/81/81
f 82/82/82 83/83/83 84/84/84
f 85/85/85 86/86/86 87/87/87
f 88/88/88 89/89/89 90/90/90
f 91/91/91 92/92/92 93/93/93
f 94/94/94 95/95/95 96/96/96
f 97/97/97 98/98/98 99/99/99
f 100/100/100 101/101/101 102/102/102
f 103/103/103 104/104/104 105/105/105
f 106/106/106 107/107/107 108/108/108
f 109/109/109 110/110/110 111/111/111
f 112/112/112 113/113/113 114/114/114
f 115/115/115 116/116/116 117/117/117
f 118/118/118 119/119/119 120/120/120
f 121/121/121 122/122/122 123/123/123
f 124/124/124 125/125/125 126/126/126
f 127/127/127 128/128/128 129/129/129
f 130/130/130 131/131/131 132/132/132
f 133/133/133 134/134/134 135/135/135
f 136/136/136 137/137/137 138/138/138
f 139/139/139 140/140/140 141/141/141
f 142/142/142 143/143/143 144/144/144
f 145/145/145 146/146/146 147/147/147
f 148/148/148 149/149/149 150/150/150
f 151/151/151 152/152/152 153/153/153
f 154/154/154 155/155/155 156/156/156
f 157/157/157 158/158/158 159/159/159
f 160/160/160 161/161/161 162/162/162
f 163/163/163 164/164/164 165/165/165
f 166/166/166 167/167/167 168/168/168
f 169/169/169 170/170/170 171/171/171
f 172/172/172 173/173/173 174/174/174
f 175/175/175 176/176/176 177/177/177
f 178/178/178 179/179/179 180/180/180
